<?xml version="1.0" encoding="utf-8"?>
<!-- Generator: Adobe Illustrator 18.0.0, SVG Export Plug-In . SVG Version: 6.00 Build 0)  -->
<!DOCTYPE svg PUBLIC "-//W3C//DTD SVG 1.1//EN" "http://www.w3.org/Graphics/SVG/1.1/DTD/svg11.dtd">
<svg version="1.1" xmlns="http://www.w3.org/2000/svg" xmlns:xlink="http://www.w3.org/1999/xlink" x="0px" y="0px"
	 viewBox="0 0 153.4 247.3" enable-background="new 0 0 153.4 247.3" xml:space="preserve">
<g id="Layer_2">
</g>
<g id="Layer_1">
	<g>
		<path fill="#1A1A1A" d="M110.3,226.3c-3.5,12.5-13.6,17-12.9,18.4c0.7,1.4,4.7-5.6,9.3-3.8c4.5,1.8,6.3,8.7,11.9,5.6
			c5.6-3.1,9.4-8.4,8.4-20.3C126.6,222.3,113.1,216.3,110.3,226.3z"/>
		<path fill="#1A1A1A" d="M41.5,226.3c-2.8-10-16.3-4-16.6-0.1c-1,11.9,2.8,17.1,8.4,20.3c5.6,3.1,7.3-3.8,11.9-5.6
			c4.5-1.7,8.6,5.2,9.3,3.8C55.1,243.3,45,238.8,41.5,226.3z"/>
		<path fill="#1A1A1A" d="M21.3,76.1C17.2,54.3,12.9,50.8,9,33.3C5.5,17.7,13.5,0,13.5,0S3.4,12.9,2.6,19.6
			C0.7,33.8-0.6,42.7,0.3,51.8c1.5,15,6.7,35.9,12.8,59.8c1.4,5.5,2.8,9.3,3.8,12c-3.8-0.1-4.5,4.1-11.7-7.6
			c-2.7-4.4-1.9,0.7,0.6,11.5c2.2,9.2,9.8,14.4,14.8,25.9c3.3,5.7,4.6,11.2,6.9,15.5c0.6,1.2,1.2,2.2,1.9,3.3
			c0.3,0.6,0.5,1.2,0.8,1.8c3.5,6.7,14.7,19.8,22.2,16.5c6.4-2.8,5.3-24.5,4.6-29.5C53.8,136.2,26.4,102.5,21.3,76.1z"/>
		<path fill="#1A1A1A" d="M152.3,27.3c-1-11.4-10.1-25.6-10.4-25.2c-1.7,2.2,5,4.8,3.7,34.8c-1,23.4-21.3,63.6-28.1,77.2
			c-6.5,13.1-16.9,33.4-21,45.3c-2,5.6-5.5,28.1,0.6,32c0.9,0.5,1.9,0.8,3,0.7l-0.1,0.2c4.7,0.3,14.3-4.3,23.2-22
			c2.1-4.2,6.2-11.1,8.6-17c5.3-12.8,11.1-14.9,13.5-25c2.4-10.1,3.4-14.7,0.8-10.5c-6.6,10.7-8.1,8.4-12.1,8.8
			c2.3-6.1,10.7-19.4,13.8-34.4C153.9,63,154.4,50.5,152.3,27.3z"/>
	</g>
</g>
</svg>
