<?xml version="1.0" encoding="utf-8"?>
<!-- Generator: Adobe Illustrator 17.1.0, SVG Export Plug-In . SVG Version: 6.00 Build 0)  -->
<!DOCTYPE svg PUBLIC "-//W3C//DTD SVG 1.1//EN" "http://www.w3.org/Graphics/SVG/1.1/DTD/svg11.dtd">
<svg version="1.1" id="Layer_1" xmlns="http://www.w3.org/2000/svg" xmlns:xlink="http://www.w3.org/1999/xlink" x="0px" y="0px" viewBox="0 0 187.9 35.1" style="enable-background:new 0 0 187.9 35.1;" xml:space="preserve">
<style type="text/css">
	.st0{enable-background:new    ;}
	.st1{fill:#2BACE2;}
	.st2{fill:#2BACE2;}
</style>
<g class="st0">
	<path class="st1" d="M141.3,35.1c-0.3,0-0.6,0-0.9-0.1c-0.3-0.1-0.5-0.2-0.6-0.3l0.1-0.6c0.5,0.2,0.9,0.4,1.4,0.4
		c0.7,0,1-0.2,1.1-0.7c0-0.2-0.1-0.4-0.2-0.5c-0.1-0.1-0.4-0.2-0.9-0.4l-0.3-0.1c-0.4-0.1-0.7-0.3-0.9-0.5c-0.2-0.2-0.3-0.4-0.3-0.7
		c0-0.4,0.1-0.7,0.4-0.9c0.3-0.2,0.7-0.4,1.2-0.4c0.5,0,1,0.1,1.4,0.3l-0.2,0.5c-0.4-0.2-0.8-0.3-1.2-0.3c-0.3,0-0.5,0.1-0.7,0.2
		c-0.2,0.1-0.2,0.3-0.2,0.5c0,0.2,0.1,0.3,0.2,0.4c0.1,0.1,0.4,0.2,0.7,0.3c0.1,0,0.2,0.1,0.3,0.1c0.5,0.2,0.8,0.3,1,0.5
		c0.2,0.2,0.3,0.5,0.3,0.8c0,0.4-0.2,0.8-0.5,1C142.2,35,141.8,35.1,141.3,35.1z"/>
	<path class="st1" d="M148.4,35c-0.6-2.1-1-3.4-1.2-3.9c-0.1,0.3-0.2,0.6-0.3,1c-0.1,0.4-0.2,0.7-0.3,0.9c-0.1,0.3-0.2,0.6-0.3,1
		c-0.1,0.4-0.2,0.7-0.3,0.9h-0.8l-1.3-4.6h0.7l1,3.8c0.1-0.4,0.5-1.7,1.2-3.8h0.8c0.7,2.1,1.1,3.4,1.2,3.8l1-3.8h0.7l-1.3,4.6H148.4
		z"/>
	<path class="st1" d="M152.4,28.7v0.8h-0.7v-0.8H152.4z M152.4,30.4V35h-0.7v-4.6H152.4z"/>
	<path class="st1" d="M155.7,35.1c-0.5,0-0.8-0.1-1-0.3c-0.2-0.2-0.3-0.6-0.3-1.1v-2.8h-0.7l0-0.5l0.7-0.1l0.2-1.1l0.5,0v1.1h1.3
		v0.5h-1.3v2.6c0,0.4,0.1,0.6,0.2,0.7s0.3,0.2,0.5,0.2c0.1,0,0.3,0,0.6-0.1l0,0.6C156.1,35.1,155.9,35.1,155.7,35.1z"/>
	<path class="st1" d="M160.6,35h-3.2v-0.5l2.4-3.5h-2.3v-0.6h3.1V31l-2.4,3.5h2.4V35z"/>
	<path class="st1" d="M163.9,35.1c-0.7,0-1.2-0.2-1.6-0.6c-0.4-0.4-0.6-1-0.6-1.7c0-0.7,0.2-1.3,0.6-1.7c0.4-0.4,0.9-0.7,1.5-0.7
		c0.6,0,1,0.2,1.4,0.6c0.3,0.4,0.5,0.9,0.5,1.6c0,0,0,0.1,0,0.2c0,0.1,0,0.2,0,0.2h-3.2c0,0.5,0.1,0.9,0.4,1.2
		c0.3,0.3,0.6,0.4,1.1,0.4c0.5,0,1-0.1,1.5-0.4l0.1,0.6C165.1,35,164.5,35.1,163.9,35.1z M164.6,31.3c-0.2-0.2-0.5-0.4-0.8-0.4
		c-0.4,0-0.7,0.1-0.9,0.4c-0.2,0.3-0.4,0.6-0.4,1h2.4C164.9,31.9,164.8,31.5,164.6,31.3z"/>
	<path class="st1" d="M169.2,30.4c0.1,0,0.2,0,0.3,0l0,0.6c-0.1,0-0.2,0-0.3,0c-0.4,0-0.7,0.1-1,0.4c-0.2,0.3-0.4,0.6-0.4,1V35h-0.7
		c0-2.8,0-4.4,0-4.6h0.6l0.1,0.8c0.2-0.3,0.4-0.5,0.6-0.6C168.6,30.5,168.9,30.4,169.2,30.4z"/>
	<path class="st1" d="M171.9,35.1c-0.4,0-0.8-0.1-1-0.4c-0.2-0.2-0.3-0.7-0.3-1.3v-4.9l0.7,0v4.6c0,0.2,0,0.3,0,0.5
		c0,0.1,0,0.2,0,0.3c0,0.1,0,0.2,0.1,0.2c0,0.1,0.1,0.1,0.1,0.2c0.1,0,0.1,0.1,0.2,0.1c0.1,0,0.2,0,0.3,0c0.1,0,0.3,0,0.5-0.1l0,0.6
		C172.4,35.1,172.1,35.1,171.9,35.1z"/>
</g>
<g class="st0">
	<path class="st1" d="M176.7,35c0-0.2-0.1-0.4-0.1-0.6c-0.3,0.3-0.5,0.4-0.7,0.5c-0.2,0.1-0.5,0.1-0.8,0.1c-0.4,0-0.8-0.1-1-0.3
		c-0.3-0.2-0.4-0.5-0.4-1c0-0.5,0.2-0.8,0.5-1c0.4-0.2,0.9-0.4,1.5-0.4c0.1,0,0.2,0,0.4,0c0.2,0,0.3,0,0.4,0v-0.4
		c0-0.3-0.1-0.6-0.2-0.7c-0.2-0.2-0.4-0.2-0.7-0.2c-0.5,0-0.9,0.1-1.4,0.3c0,0-0.1-0.1-0.1-0.3c-0.1-0.2-0.1-0.2-0.1-0.2
		c0.2-0.1,0.4-0.2,0.7-0.3c0.3-0.1,0.6-0.1,0.9-0.1c0.6,0,1,0.1,1.2,0.4c0.3,0.3,0.4,0.7,0.4,1.3v3H176.7z M175.2,34.6
		c0.3,0,0.6-0.1,0.9-0.3c0.3-0.2,0.4-0.4,0.5-0.7v-0.8c0,0-0.1,0-0.3,0c-0.2,0-0.3,0-0.3,0c-0.6,0.1-1,0.2-1.3,0.3
		c-0.2,0.1-0.4,0.4-0.4,0.7c0,0.2,0.1,0.4,0.2,0.6C174.7,34.5,174.9,34.6,175.2,34.6z"/>
</g>
<g class="st0">
	<path class="st1" d="M178.9,35v-4.6h0.6l0.1,0.7c0.2-0.2,0.4-0.4,0.7-0.5c0.3-0.1,0.6-0.2,0.9-0.2c0.5,0,0.9,0.1,1.2,0.4
		c0.3,0.3,0.4,0.8,0.4,1.4V35H182c0-1.8,0-2.8,0-3c0-0.4-0.1-0.7-0.2-0.9c-0.1-0.2-0.4-0.3-0.7-0.3c-0.4,0-0.7,0.1-0.9,0.3
		c-0.2,0.2-0.4,0.4-0.5,0.7c0,0.2,0,0.4,0,0.6V35H178.9z"/>
</g>
<g class="st0">
	<path class="st1" d="M187.4,34.4c-0.2,0.2-0.4,0.4-0.6,0.6c-0.3,0.1-0.5,0.2-0.8,0.2c-0.6,0-1.1-0.2-1.4-0.6
		c-0.3-0.4-0.5-1-0.5-1.8c0-0.7,0.2-1.3,0.5-1.7c0.3-0.4,0.8-0.7,1.4-0.7c0.3,0,0.6,0.1,0.9,0.2c0.3,0.1,0.5,0.3,0.6,0.5l0-0.4v-2
		l0.7,0V35h-0.6L187.4,34.4z M186,34.5c0.5,0,0.8-0.1,1-0.4c0.2-0.3,0.3-0.7,0.3-1.3c0-0.6-0.1-1.1-0.3-1.4
		c-0.2-0.3-0.6-0.5-1.1-0.5c-0.2,0-0.4,0-0.6,0.1c-0.2,0.1-0.3,0.2-0.4,0.4c-0.1,0.2-0.2,0.4-0.2,0.6c-0.1,0.2-0.1,0.4-0.1,0.7
		c0,0.4,0,0.7,0.1,0.9c0.1,0.3,0.2,0.5,0.4,0.6C185.4,34.4,185.7,34.5,186,34.5z"/>
</g>
<path class="st1" d="M45.8,16h5.3v4.9c-1.1,0.6-2.5,0.9-4.2,0.9c-4.4,0-6.9-3.1-6.9-8.4v-0.1c0-5.4,2.6-8.4,7.3-8.4
	c2.6,0,6.1,1,7.7,1.9L55.3,7l0.1-4.1l-0.1-0.1c-2-1.6-4.7-2.4-8.2-2.4c-7.5,0-12.6,5.2-12.6,12.8c0,7.9,5,13,12.6,13
	c3.8,0,6.5-1.1,8.8-2.3l0.1-0.1V12H46L45.8,16z"/>
<path class="st1" d="M67.5,21.8L67.1,22c0,0-0.2,0.1-0.9,0.1c-2.3,0-2.6-0.7-2.6-3.4V0.5l-5.2,0v17.4c0,3.9,0.5,8.1,6.5,8.1
	c1.6,0,2.5-0.2,2.5-0.2l0.2,0l-0.2-3.6L67.5,21.8z"/>
<path class="st1" d="M76.7,6.7c-5.6,0-9.1,3.7-9.1,9.8c0,6,3.5,9.7,9.1,9.7c5.6,0,9.1-3.7,9.1-9.7C85.8,10.5,82.3,6.7,76.7,6.7
	 M80.7,16.5c0,3.6-1.5,5.7-4,5.7c-2.6,0-4-2.1-4-5.7c0-3.7,1.5-5.8,4-5.8C79.2,10.7,80.7,12.9,80.7,16.5"/>
<path class="st1" d="M97.8,6.7h-0.1c-2.6,0-4.3,1-5.2,2.2V0.5h-5.2v25.3h5.2l0.1-2c1.1,1.5,2.9,2.3,5.1,2.3h0.2
	c4.7,0,8.1-4.1,8.1-9.8C105.8,9.7,101.7,6.7,97.8,6.7 M100.7,16.5c0,5.1-3,5.7-4.3,5.7c-1.1,0-3.2-0.4-4.1-2.8l0-5.7
	c0.7-1.8,2.2-2.9,4.1-2.9C98.1,10.7,100.7,11.5,100.7,16.5"/>
<path class="st1" d="M115.5,6.7h-0.4c-2.8,0.1-5.2,0.5-7,1.4l-0.1,0.1l0,3.4l0.3-0.1c3.8-1.1,6.6-0.7,6.6-0.7
	c2.2,0.4,2.4,0.8,2.4,2.9v0.6l-1.1,0.2c-6,0.9-9.3,1.6-9.3,6.4c0,3.2,2.4,5.4,5.9,5.4c2.2,0,3.7-0.8,5.3-2.1l0.4,1.7h4.1v-13
	C122.6,8.9,120,6.7,115.5,6.7 M117.3,21.3c-1.3,0.9-2.2,1.4-3.7,1.4c-1.3,0-2-0.7-2-2c0-2.2,1.8-2.6,4.6-3l1-0.2
	C117.3,17.4,117.3,21.3,117.3,21.3z"/>
<path class="st1" d="M138.6,21c-1,0.7-3.2,1.3-4.8,1.3c-3.1,0-4.7-2-4.7-5.8c0-3.6,1.7-5.7,4.6-5.7c1.6,0,4.2,0.8,4.8,1.2l0.4,0.3
	l0-3.7l-0.1-0.1c-1.6-1.2-3.2-1.7-5.5-1.7h-0.1c-4.5,0-9.1,2.9-9.1,9.5c0,6.2,3.5,10,9.4,10h0.1c2.4,0,3.8-0.6,5.3-1.6l0.1-0.1
	l0-3.8L138.6,21z"/>
<path class="st1" d="M149,6.7c-5.6,0-9.1,3.7-9.1,9.8c0,6,3.5,9.7,9.1,9.7c5.6,0,9.1-3.7,9.1-9.7C158.1,10.5,154.6,6.7,149,6.7
	 M153.1,16.5c0,3.6-1.5,5.7-4,5.7c-2.6,0-4-2.1-4-5.7c0-3.7,1.5-5.8,4-5.8C151.5,10.7,153.1,12.9,153.1,16.5"/>
<path class="st1" d="M181.7,6.7h-0.2c-2.4,0-4.5,0.9-6.2,2.8c-0.9-1.9-2.5-2.8-4.7-2.8h-0.2c-2.2,0.1-4.4,1.1-5.9,2.8l-0.3-2.1h-4.5
	v18.4h5.2V13.4c1-1.8,2.3-2.7,3.8-2.7c2.1,0,2.5,1.6,2.5,4.6v10.5h5.2V13.4c0.7-1.2,1.8-2.6,3.9-2.7h0.1c1.8,0,2.1,1.3,2.1,4.9v10.2
	h5.2V14.6C187.9,9.5,185.7,6.7,181.7,6.7"/>
<path class="st2" d="M18.3,14.6h10.1V2.2c0,0-5.7-1.9-12.9-2.1v11.8C15.5,13.4,16.7,14.6,18.3,14.6"/>
<path class="st1" d="M15.5,19.7v14.7c7.2-0.7,12.8-6.7,12.8-14h0.1v-3.1H17.9C16.6,17.3,15.5,18.4,15.5,19.7"/>
<path class="st2" d="M10.1,14.6H0V2.1c0,0,5.7-1.9,12.9-2.1v11.8C12.9,13.3,11.7,14.6,10.1,14.6"/>
<path class="st1" d="M12.9,19.6v14.7c-7.2-0.7-12.8-6.7-12.8-14H0v-3.1h10.5C11.8,17.2,12.9,18.3,12.9,19.6"/>
</svg>
