<?xml version="1.0" encoding="utf-8"?>
<!-- Generator: Adobe Illustrator 17.1.0, SVG Export Plug-In . SVG Version: 6.00 Build 0)  -->
<!DOCTYPE svg PUBLIC "-//W3C//DTD SVG 1.1//EN" "http://www.w3.org/Graphics/SVG/1.1/DTD/svg11.dtd">
<svg version="1.1" id="Layer_1" xmlns="http://www.w3.org/2000/svg" xmlns:xlink="http://www.w3.org/1999/xlink" x="0px" y="0px" viewBox="0 0 125.3 151.8" style="enable-background:new 0 0 125.3 151.8;" xml:space="preserve"
	>
<style type="text/css">
	.st0{fill:#2BACE2;}
	.st1{fill:#233362;}
</style>
<path class="st0" d="M80.5,64.5h44.7v-55c0,0-25.2-8.2-57-9.3v52C68.3,59,73.8,64.5,80.5,64.5"/>
<path class="st1" d="M68.3,86.9v65c31.6-3,56.3-29.4,56.6-61.8h0.4V76.2H79C73.1,76.2,68.3,81,68.3,86.9"/>
<path class="st0" d="M44.7,64.2H0v-55c0,0,25.2-8.2,57-9.3v52C57,58.7,51.5,64.2,44.7,64.2"/>
<path class="st1" d="M57,86.6v65c-31.6-3-56.3-29.4-56.6-61.8H0V75.9h46.3C52.2,75.9,57,80.7,57,86.6"/>
</svg>
