<?xml version="1.0" encoding="utf-8"?>
<!-- Generator: Adobe Illustrator 16.0.0, SVG Export Plug-In . SVG Version: 6.00 Build 0)  -->
<!DOCTYPE svg PUBLIC "-//W3C//DTD SVG 1.1//EN" "http://www.w3.org/Graphics/SVG/1.1/DTD/svg11.dtd">
<svg version="1.1" id="Layer_1" xmlns="http://www.w3.org/2000/svg" xmlns:xlink="http://www.w3.org/1999/xlink" x="0px" y="0px"
	 viewBox="0 0 320.002 60.604" enable-background="new 0 0 320.002 60.604"
	 xml:space="preserve">
<rect x="-86.498" y="-114" fill="transparent" width="504" height="360"/>
<text transform="matrix(1 0 0 1 237.0645 60.6045)"><tspan x="0" y="0" fill="#FFFFFF" font-family="'Oxygen'" font-size="14.6496" letter-spacing="1">s</tspan><tspan x="7.793" y="0" fill="#FFFFFF" font-family="'Oxygen'" font-size="14.6496" letter-spacing="1">w</tspan><tspan x="20.45" y="0" fill="#FFFFFF" font-family="'Oxygen'" font-size="14.6496" letter-spacing="1">itzerlan</tspan><tspan x="75.415" y="0" fill="#FFFFFF" font-family="'Oxygen'" font-size="14.6496">d</tspan></text>
<g>
	<defs>
		<rect id="SVGID_1_" x="-86.498" y="-114" width="504" height="360"/>
	</defs>
	<clipPath id="SVGID_2_">
		<use xlink:href="#SVGID_1_"  overflow="visible"/>
	</clipPath>
	<path clip-path="url(#SVGID_2_)" fill="#FFFFFF" d="M77.808,28.125h8.977v8.481c-1.844,0.981-4.296,1.499-7.11,1.499
		c-7.477,0-11.765-5.233-11.765-14.357v-0.234c0.056-9.259,4.464-14.358,12.413-14.358c4.459,0,10.354,1.691,13.061,3.27
		l0.545,0.318L94.07,5.9l-0.142-0.114c-3.473-2.79-8.059-4.146-14.017-4.146c-12.837,0-21.462,8.766-21.462,21.814
		c0,13.395,8.447,22.051,21.52,22.051c6.506,0,10.983-1.939,15.01-3.927l0.207-0.102V21.434H78.205L77.808,28.125z"/>
	<path clip-path="url(#SVGID_2_)" fill="#FFFFFF" d="M114.664,38.114l-0.503,0.252c-0.012,0.004-0.304,0.093-1.575,0.093
		c-3.968,0-4.4-1.189-4.4-5.873V1.843l-8.873-0.014v29.637c0,8.522,1.856,13.804,11.094,13.804c2.66,0,4.255-0.349,4.322-0.363
		l0.309-0.069l-0.373-6.148L114.664,38.114z"/>
	<path clip-path="url(#SVGID_2_)" fill="#FFFFFF" d="M130.415,12.42c-9.531,0-15.452,6.373-15.452,16.631
		c0,10.149,5.921,16.454,15.452,16.454c9.531,0,15.453-6.305,15.453-16.454C145.868,18.793,139.946,12.42,130.415,12.42
		 M137.349,29.051c0,6.112-2.592,9.761-6.934,9.761c-4.369,0-6.875-3.558-6.875-9.761c0-6.279,2.506-9.88,6.875-9.88
		C134.757,19.171,137.349,22.865,137.349,29.051"/>
	<path clip-path="url(#SVGID_2_)" fill="#FFFFFF" d="M166.448,12.42h-0.24c-4.492,0.051-7.425,1.819-8.932,3.753V1.842h-8.872
		v43.073h8.744l0.094-3.428c1.855,2.569,4.948,4.018,8.676,4.018h0.413c7.93,0,13.685-7.019,13.685-16.69
		C180.016,17.55,172.982,12.42,166.448,12.42 M171.438,29.051c0,8.757-5.096,9.702-7.287,9.702c-1.96,0-5.466-0.633-6.991-4.861
		l0.053-9.757c1.172-3.11,3.761-4.964,6.938-4.964C166.872,19.171,171.438,20.455,171.438,29.051"/>
	<path clip-path="url(#SVGID_2_)" fill="#FFFFFF" d="M196.55,12.419h-0.716c-4.783,0.112-8.796,0.896-11.929,2.332l-0.218,0.1
		l0.023,5.698l0.476-0.145c6.472-1.96,11.294-1.239,11.301-1.238c3.782,0.627,4.166,1.495,4.166,4.936V25.2l-1.861,0.302
		c-10.136,1.473-15.87,2.703-15.87,10.853c0,5.473,4.031,9.149,10.032,9.149c3.708,0,6.312-1.422,8.974-3.597l0.752,3.008h6.906
		V22.748C208.586,16.184,204.198,12.419,196.55,12.419 M199.653,30.547v6.612c-2.177,1.466-3.69,2.36-6.284,2.36
		c-2.16,0-3.399-1.26-3.399-3.458c0-3.812,3.139-4.545,7.935-5.23L199.653,30.547z"/>
	<path clip-path="url(#SVGID_2_)" fill="#FFFFFF" d="M235.904,36.643c-1.633,1.167-5.515,2.229-8.144,2.229
		c-5.304,0-7.994-3.364-7.994-9.998c0-6.166,2.85-9.702,7.817-9.702c2.706,0,7.092,1.317,8.203,2.11l0.595,0.425l-0.067-6.256
		l-0.149-0.109c-2.76-2.021-5.467-2.867-9.348-2.922h-0.235c-7.662,0-15.394,4.997-15.394,16.16
		c0,10.598,5.976,16.925,15.983,16.925h0.118c4.115,0,6.51-1.045,9.04-2.732l0.166-0.11l-0.005-6.439L235.904,36.643z"/>
	<path clip-path="url(#SVGID_2_)" fill="#FFFFFF" d="M253.656,12.42c-9.531,0-15.452,6.373-15.452,16.631
		c0,10.149,5.921,16.454,15.452,16.454s15.451-6.305,15.451-16.454C269.107,18.793,263.188,12.42,253.656,12.42 M260.589,29.051
		c0,6.112-2.592,9.761-6.933,9.761c-4.37,0-6.876-3.558-6.876-9.761c0-6.279,2.506-9.88,6.876-9.88
		C257.997,19.171,260.589,22.865,260.589,29.051"/>
	<path clip-path="url(#SVGID_2_)" fill="#FFFFFF" d="M309.4,12.42h-0.354c-4.135,0-7.593,1.594-10.555,4.868
		c-1.474-3.188-4.229-4.868-8.003-4.868h-0.361c-3.828,0.101-7.554,1.862-10.121,4.752l-0.57-3.573h-7.58v31.317h8.872V23.732
		c1.789-3.026,4.003-4.56,6.581-4.56c3.532,0,4.223,2.866,4.223,7.817v17.927h8.872v-21.13c1.171-2.107,2.997-4.5,6.698-4.614h0.177
		c3.136,0,3.694,2.187,3.694,8.347v17.397h8.871V25.811C319.845,17.051,316.233,12.42,309.4,12.42"/>
	<path clip-path="url(#SVGID_2_)" fill="#FFFFFF" d="M30.828,25.843h17.287V4.609c0,0-9.74-3.177-22.003-3.584v20.102
		C26.112,23.732,28.224,25.843,30.828,25.843"/>
	<path clip-path="url(#SVGID_2_)" fill="#FFFFFF" d="M26.113,34.493v25.089c12.202-1.146,21.76-11.373,21.847-23.855h0.155v-5.354
		H30.233C27.957,30.373,26.113,32.218,26.113,34.493"/>
	<path clip-path="url(#SVGID_2_)" fill="#FFFFFF" d="M17.009,25.73H-0.277V4.496c0,0,9.74-3.177,22.003-3.584v20.102
		C21.726,23.619,19.613,25.73,17.009,25.73"/>
	<path clip-path="url(#SVGID_2_)" fill="#FFFFFF" d="M21.725,34.38v25.089C9.523,58.323-0.035,48.096-0.122,35.614h-0.155V30.26
		h17.882C19.881,30.26,21.725,32.105,21.725,34.38"/>
</g>
<g>
	<defs>
		<rect id="SVGID_3_" x="-86.498" y="-114" width="504" height="360"/>
	</defs>
	<clipPath id="SVGID_4_">
		<use xlink:href="#SVGID_3_"  overflow="visible"/>
	</clipPath>
</g>
</svg>
