<?xml version="1.0" encoding="utf-8"?>
<!-- Generator: Adobe Illustrator 16.0.4, SVG Export Plug-In . SVG Version: 6.00 Build 0)  -->
<!DOCTYPE svg PUBLIC "-//W3C//DTD SVG 1.1//EN" "http://www.w3.org/Graphics/SVG/1.1/DTD/svg11.dtd">
<svg version="1.1" id="Layer_1" xmlns="http://www.w3.org/2000/svg" xmlns:xlink="http://www.w3.org/1999/xlink" x="0px" y="0px" viewBox="0 90.5 612 611" enable-background="new 0 90.5 612 611" xml:space="preserve">
<rect y="90" fill="#DCDBC7" width="612" height="612"/>
<g enable-background="new    ">
	<path fill="#231F20" d="M69.73,220.592c3.883,0,4.91-1.027,5.981-5.267l5.043-19.728c0.401-1.651,0.669-2.812,0.669-3.66
		c0-1.83-1.205-2.143-4.418-2.143l0.491-1.785h14.505l-0.491,1.785c-3.928,0-4.955,1.25-6.561,7.32l-4.642,17.674
		c-0.268,0.982-0.402,1.785-0.402,2.5c0,2.142,1.294,3.169,4.999,3.169c7.097,0,10.087-2.232,12.631-8.391h2.098l-3.927,10.31H69.24
		L69.73,220.592z"/>
	<path fill="#231F20" d="M106.547,207.648c0.848-2.321,1.161-3.705,1.161-4.508s-0.312-1.026-0.625-1.026
		c-1.25,0-3.392,2.856-3.883,3.793l-1.294-0.803c1.384-2.678,5.534-6.829,8.614-6.829c1.473,0,2.232,0.759,2.232,2.99
		c0,1.741-1.161,4.552-2.812,9.105l-1.651,4.508c-0.223,0.625-0.937,2.633-0.937,3.481c0,0.536,0.268,1.027,0.937,1.027
		c1.741,0,4.106-3.437,4.776-4.642l1.339,0.758c-1.428,2.901-4.999,7.32-8.927,7.32c-1.74,0-2.588-0.848-2.588-2.901
		c0-1.696,0.58-3.526,1.651-6.561L106.547,207.648z M110.341,188.233c0-1.606,1.205-2.901,2.767-2.901
		c1.651,0,2.856,1.339,2.856,2.856c0,1.562-1.294,2.767-2.856,2.767C111.636,190.956,110.341,189.84,110.341,188.233z"/>
	<path fill="#231F20" d="M125.157,202.561l0.134,0.089c1.741-2.722,4.463-4.329,7.364-4.329c3.615,0,5.668,2.455,5.668,6.338
		c0,8.48-7.989,18.165-15.22,18.165c-3.392,0-5.802-2.276-5.802-5.534c0-1.562,0.669-4.419,1.919-8.346l5.4-17.407
		c0.312-1.071,0.669-2.321,0.669-2.856c0-1.071-1.071-1.562-3.392-1.562l0.357-1.339l8.569-0.402L125.157,202.561z M133.904,204.301
		c0-2.053-1.071-3.615-2.455-3.615c-4.017,0-9.908,9.64-9.908,16.201c0,2.41,0.759,3.66,2.276,3.66
		C127.968,220.547,133.904,210.951,133.904,204.301z"/>
	<path fill="#231F20" d="M140.819,204.926c1.339-2.99,5.802-6.65,8.167-6.65c1.428,0,2.053,1.026,2.053,3.392
		c0,0.937-0.089,1.785-0.312,2.945l0.134,0.134c1.473-3.481,5.49-6.918,8.167-6.918c1.696,0,3.035,1.25,3.035,2.856
		c0,1.562-1.116,2.678-2.633,2.678c-1.875,0-2.053-1.651-3.125-1.651c-2.276,0-6.204,6.427-8.837,14.505l-2.008,6.159h-4.151
		l2.901-9.239c2.276-7.097,2.812-9.149,2.812-10.399c0-0.669-0.223-0.982-0.669-0.982c-1.205,0-3.615,2.053-4.374,3.749
		L140.819,204.926z"/>
	<path fill="#231F20" d="M176.432,216.441c-2.544,4.195-5.847,6.382-9.551,6.382c-4.062,0-6.382-2.678-6.382-7.275
		c0-8.212,7.498-17.272,14.282-17.272c2.856,0,4.865,1.606,4.865,3.883c0,4.151-6.65,9.105-14.595,10.89
		c-0.134,0.848-0.178,1.651-0.178,2.455c0,3.169,1.205,4.865,3.437,4.865c2.187,0,4.686-1.83,6.695-4.865L176.432,216.441z
		 M165.497,211.041c5.713-1.562,9.953-5.222,9.953-8.792c0-1.25-0.536-1.875-1.562-1.875
		C170.763,200.374,167.014,205.595,165.497,211.041z"/>
	<path fill="#231F20" d="M191.69,220.592c3.615,0,4.775-0.669,6.025-5.312l5.266-19.683c0.312-1.25,0.491-2.276,0.491-3.08
		c0-2.008-1.161-2.723-4.106-2.723l0.491-1.785h11.961c5.133,0,11.292,1.562,11.292,7.721c0,5.802-5.312,7.677-9.462,8.302v0.179
		c5.177,1.071,8.034,3.972,8.034,8.301c0,6.07-5.981,9.864-14.148,9.864h-16.335L191.69,220.592z M202.803,213.138
		c-0.312,1.116-0.938,3.437-0.938,4.552c0,2.41,2.321,2.678,4.196,2.678c6.561,0,10.399-3.705,10.399-8.659
		c0-4.508-2.901-6.516-8.926-6.516h-2.544L202.803,213.138z M205.57,202.917h3.303c5.624,0,9.507-2.99,9.507-7.409
		c0-3.838-2.009-5.49-7.141-5.49c-1.607,0-2.5,1.027-3.169,3.571L205.57,202.917z"/>
	<path fill="#231F20" d="M244.529,198.722h3.704l-2.544,6.829c-1.696,4.508-3.303,10.801-3.303,12.765
		c0,0.848,0.312,1.294,0.848,1.294c0.848,0,2.5-1.919,4.463-4.642l1.16,0.937c-2.455,4.374-5.534,6.918-8.212,6.918
		c-1.383,0-2.142-0.982-2.142-3.347c0-0.536,0.044-1.205,0.134-2.366l-0.179-0.044c-1.74,3.303-5.132,5.757-8.078,5.757
		c-2.99,0-4.82-2.455-4.82-6.472c0-8.212,7.677-18.076,14.104-18.076c1.964,0,3.169,0.893,3.928,2.945L244.529,198.722z
		 M229.801,216.128c0,2.143,0.982,3.526,2.499,3.526c4.151,0,9.462-10.801,9.462-16.559c0-1.562-0.714-2.499-1.83-2.499
		C235.379,200.597,229.801,209.969,229.801,216.128z"/>
	<path fill="#231F20" d="M261.396,198.276c2.856,0,4.999,1.606,4.999,3.838c0,1.25-0.759,2.008-1.919,2.008
		c-2.723,0-1.875-3.928-4.106-3.928c-1.294,0-2.321,1.294-2.321,2.946c0,3.972,5.624,6.338,5.624,12.318
		c0,4.017-3.793,7.364-7.855,7.364c-3.526,0-5.847-1.696-5.847-4.195c0-1.696,0.893-2.767,2.231-2.767
		c1.25,0,2.008,0.893,2.187,2.633c0.179,1.919,0.491,2.365,1.83,2.365c2.142,0,3.481-1.383,3.481-3.615
		c0-4.82-5.713-6.739-5.713-12.14C253.987,201.177,257.111,198.276,261.396,198.276z"/>
	<path fill="#231F20" d="M287.146,215.459l1.161,0.625c-2.143,4.463-4.374,6.739-6.65,6.739c-1.428,0-2.187-0.848-3.303-3.481
		l-2.99-7.141l-0.982,0.446l-2.812,9.73h-4.062l8.614-32.001c0.223-0.848,0.312-1.294,0.312-1.651c0-1.25-0.893-1.607-4.151-1.607
		l0.402-1.339l8.882-0.446l-4.642,17.183l0.179,0.045c1.696-2.856,3.928-4.33,6.561-4.33c2.767,0,4.508,1.428,4.508,3.705
		c0,2.767-2.946,5.757-7.855,7.989l-1.16,0.536l2.276,5.891c0.625,1.696,1.25,2.455,2.053,2.455
		C284.378,218.807,285.583,217.69,287.146,215.459z M283.709,203.096c0-1.16-0.669-1.83-1.83-1.83c-2.455,0-5.757,4.24-7.096,9.149
		C279.96,208.63,283.709,205.506,283.709,203.096z"/>
	<path fill="#231F20" d="M307.003,216.441c-2.544,4.195-5.847,6.382-9.551,6.382c-4.062,0-6.382-2.678-6.382-7.275
		c0-8.212,7.498-17.272,14.282-17.272c2.856,0,4.864,1.606,4.864,3.883c0,4.151-6.65,9.105-14.594,10.89
		c-0.134,0.848-0.178,1.651-0.178,2.455c0,3.169,1.205,4.865,3.437,4.865c2.187,0,4.686-1.83,6.695-4.865L307.003,216.441z
		 M296.068,211.041c5.713-1.562,9.953-5.222,9.953-8.792c0-1.25-0.535-1.875-1.562-1.875
		C301.334,200.374,297.585,205.595,296.068,211.041z"/>
	<path fill="#231F20" d="M311.73,204.926c1.339-2.99,5.802-6.65,8.167-6.65c1.429,0,2.054,1.026,2.054,3.392
		c0,0.937-0.09,1.785-0.312,2.945l0.134,0.134c1.473-3.481,5.489-6.918,8.168-6.918c1.695,0,3.034,1.25,3.034,2.856
		c0,1.562-1.115,2.678-2.633,2.678c-1.875,0-2.053-1.651-3.124-1.651c-2.276,0-6.204,6.427-8.837,14.505l-2.009,6.159h-4.151
		l2.901-9.239c2.276-7.097,2.812-9.149,2.812-10.399c0-0.669-0.223-0.982-0.669-0.982c-1.205,0-3.615,2.053-4.374,3.749
		L311.73,204.926z"/>
	<path fill="#231F20" d="M351.404,200.82c0-1.651,0.804-2.544,2.321-2.544c1.829,0,2.588,1.25,2.588,4.24
		c0,9.462-7.543,20.308-14.104,20.308c-3.258,0-5.668-2.678-5.668-6.293c0-3.392,1.919-8.212,5.312-13.077l-0.09-0.134
		c-3.258,0-3.972-2.321-5.222-2.321c-0.491,0-0.759,0.312-0.759,0.759c0,1.116,1.562,1.518,1.562,2.946
		c0,1.071-0.937,1.83-2.231,1.83c-1.518,0-2.41-1.027-2.41-2.723c0-2.946,2.589-5.534,5.535-5.534c2.365,0,3.079,1.919,4.954,1.919
		c0.624,0,1.026-0.179,1.517-0.669c1.25-1.116,1.429-1.25,2.143-1.25c0.58,0,0.893,0.268,0.893,0.759
		c0,0.491-0.044,0.535-1.83,2.678c-2.722,3.303-4.686,8.659-4.686,12.72c0,3.169,1.205,5.311,2.945,5.311
		c3.303,0,8.257-7.989,8.257-13.3C352.431,204.033,351.404,202.649,351.404,200.82z"/>
	<path fill="#231F20" d="M363.494,207.648c0.848-2.321,1.16-3.705,1.16-4.508s-0.312-1.026-0.624-1.026
		c-1.25,0-3.393,2.856-3.884,3.793l-1.294-0.803c1.384-2.678,5.534-6.829,8.614-6.829c1.473,0,2.231,0.759,2.231,2.99
		c0,1.741-1.16,4.552-2.812,9.105l-1.651,4.508c-0.224,0.625-0.938,2.633-0.938,3.481c0,0.536,0.268,1.027,0.938,1.027
		c1.74,0,4.105-3.437,4.775-4.642l1.339,0.758c-1.429,2.901-4.999,7.32-8.927,7.32c-1.74,0-2.589-0.848-2.589-2.901
		c0-1.696,0.581-3.526,1.651-6.561L363.494,207.648z M367.288,188.233c0-1.606,1.205-2.901,2.767-2.901
		c1.651,0,2.856,1.339,2.856,2.856c0,1.562-1.294,2.767-2.856,2.767C368.582,190.956,367.288,189.84,367.288,188.233z"/>
	<path fill="#231F20" d="M381.167,191.536c0.268-1.071,0.669-2.321,0.669-2.856c0-1.071-1.071-1.562-3.392-1.562l0.356-1.339
		l8.168-0.402l-7.989,29.323c-0.446,1.607-0.714,2.812-0.714,3.66c0,0.536,0.268,1.027,0.938,1.027c1.919,0,4.508-3.749,5.222-5.088
		l1.339,0.759c-1.83,4.062-5.936,7.766-8.703,7.766c-2.053,0-3.035-0.848-3.035-2.901c0-1.205,0.312-3.08,1.205-6.561
		L381.167,191.536z"/>
	<path fill="#231F20" d="M395.134,191.536c0.268-1.071,0.669-2.321,0.669-2.856c0-1.071-1.071-1.562-3.392-1.562l0.356-1.339
		l8.168-0.402l-7.989,29.323c-0.446,1.607-0.714,2.812-0.714,3.66c0,0.536,0.268,1.027,0.938,1.027c1.919,0,4.508-3.749,5.222-5.088
		l1.339,0.759c-1.83,4.062-5.936,7.766-8.703,7.766c-2.053,0-3.035-0.848-3.035-2.901c0-1.205,0.312-3.08,1.205-6.561
		L395.134,191.536z"/>
	<path fill="#231F20" d="M417.491,216.441c-2.544,4.195-5.847,6.382-9.552,6.382c-4.062,0-6.382-2.678-6.382-7.275
		c0-8.212,7.498-17.272,14.282-17.272c2.856,0,4.864,1.606,4.864,3.883c0,4.151-6.649,9.105-14.594,10.89
		c-0.135,0.848-0.179,1.651-0.179,2.455c0,3.169,1.205,4.865,3.437,4.865c2.187,0,4.687-1.83,6.694-4.865L417.491,216.441z
		 M406.557,211.041c5.713-1.562,9.952-5.222,9.952-8.792c0-1.25-0.535-1.875-1.562-1.875
		C411.823,200.374,408.074,205.595,406.557,211.041z"/>
	<path fill="#231F20" d="M443.551,214.879c-0.357,1.294-0.536,2.321-0.536,3.124c0,2.008,1.205,2.589,4.062,2.589l-0.535,1.785
		h-14.238l0.491-1.785c3.526,0,4.865-0.893,6.025-5.267l5.222-19.728c0.446-1.651,0.67-2.812,0.67-3.66
		c0-1.83-1.205-2.143-4.419-2.143l0.491-1.785h14.505l-0.49,1.785c-3.928,0-4.954,1.25-6.562,7.32L443.551,214.879z"/>
	<path fill="#231F20" d="M461.355,202.426l-3.704,12.274c-0.491,1.607-0.759,2.812-0.804,3.66c0,0.536,0.224,1.027,0.893,1.027
		c2.098,0,5.044-3.749,5.847-5.088l1.295,0.759c-2.054,4.062-6.472,7.766-9.373,7.766c-2.053,0-2.945-0.848-2.945-2.901
		c0-1.161,0.356-3.08,1.384-6.561l3.303-10.935h-3.839l0.58-2.053h3.883l2.321-7.677h4.106l-2.321,7.677h4.865l-0.625,2.053H461.355
		z"/>
	<path fill="#231F20" d="M486.57,198.722h3.704l-2.544,6.829c-1.696,4.508-3.303,10.801-3.303,12.765
		c0,0.848,0.312,1.294,0.848,1.294c0.849,0,2.5-1.919,4.464-4.642l1.16,0.937c-2.455,4.374-5.534,6.918-8.212,6.918
		c-1.384,0-2.143-0.982-2.143-3.347c0-0.536,0.045-1.205,0.134-2.366l-0.179-0.044c-1.74,3.303-5.133,5.757-8.078,5.757
		c-2.99,0-4.82-2.455-4.82-6.472c0-8.212,7.677-18.076,14.104-18.076c1.964,0,3.169,0.893,3.928,2.945L486.57,198.722z
		 M471.842,216.128c0,2.143,0.981,3.526,2.499,3.526c4.151,0,9.462-10.801,9.462-16.559c0-1.562-0.714-2.499-1.83-2.499
		C477.421,200.597,471.842,209.969,471.842,216.128z"/>
	<path fill="#231F20" d="M500.759,191.536c0.268-1.071,0.669-2.321,0.669-2.856c0-1.071-1.071-1.562-3.392-1.562l0.356-1.339
		l8.168-0.402l-7.989,29.323c-0.446,1.607-0.714,2.812-0.714,3.66c0,0.536,0.268,1.027,0.938,1.027c1.919,0,4.508-3.749,5.222-5.088
		l1.339,0.759c-1.83,4.062-5.936,7.766-8.703,7.766c-2.053,0-3.035-0.848-3.035-2.901c0-1.205,0.312-3.08,1.205-6.561
		L500.759,191.536z"/>
	<path fill="#231F20" d="M512.405,207.648c0.848-2.321,1.16-3.705,1.16-4.508s-0.312-1.026-0.624-1.026
		c-1.25,0-3.393,2.856-3.884,3.793l-1.294-0.803c1.384-2.678,5.534-6.829,8.614-6.829c1.473,0,2.231,0.759,2.231,2.99
		c0,1.741-1.16,4.552-2.812,9.105l-1.651,4.508c-0.224,0.625-0.938,2.633-0.938,3.481c0,0.536,0.268,1.027,0.938,1.027
		c1.74,0,4.105-3.437,4.775-4.642l1.339,0.758c-1.429,2.901-4.999,7.32-8.927,7.32c-1.74,0-2.589-0.848-2.589-2.901
		c0-1.696,0.581-3.526,1.651-6.561L512.405,207.648z M516.199,188.233c0-1.606,1.205-2.901,2.767-2.901
		c1.651,0,2.856,1.339,2.856,2.856c0,1.562-1.294,2.767-2.856,2.767C517.493,190.956,516.199,189.84,516.199,188.233z"/>
	<path fill="#231F20" d="M538.557,215.191c-2.454,4.909-5.892,7.632-9.641,7.632c-3.838,0-6.382-2.901-6.382-7.275
		c0-7.944,7.364-17.272,13.657-17.272c2.812,0,4.909,1.74,4.909,4.062c0,1.473-0.981,2.499-2.32,2.499s-2.321-0.982-2.321-2.231
		c0-0.759,0.357-1.205,0.357-1.607c0-0.401-0.357-0.625-1.071-0.625c-3.973,0-8.524,8.123-8.524,15.219
		c0,2.856,1.16,4.597,3.124,4.597c2.098,0,4.865-2.5,6.65-5.892L538.557,215.191z"/>
</g>
<g enable-background="new    ">
	<path fill="#231F20" d="M102.805,292.759c-0.445,1.947-0.668,3.394-0.668,4.284c0,2.169,1.113,2.726,5.174,2.726l-0.556,2.226
		H90.287l0.556-2.226c4.339,0,5.285-1.001,6.621-7.065l1.502-6.843H87.004l-3.505,3.672c-6.064,6.342-6.564,7.455-6.564,8.345
		c0,1.391,1.112,1.891,4.172,1.891l-0.556,2.226H66.142l0.556-2.226c3.505,0,6.676-2.503,13.519-10.626l25.647-30.542h4.673
		L102.805,292.759z M99.466,283.079l4.562-17.246h-0.223l-14.409,17.246H99.466z"/>
	<path fill="#231F20" d="M136.075,272.508h4.618l-3.171,8.512c-2.114,5.619-4.117,13.463-4.117,15.911
		c0,1.057,0.389,1.613,1.057,1.613c1.057,0,3.115-2.392,5.563-5.786l1.447,1.168c-3.06,5.452-6.899,8.623-10.237,8.623
		c-1.725,0-2.67-1.224-2.67-4.172c0-0.667,0.056-1.502,0.167-2.949l-0.223-0.056c-2.169,4.117-6.398,7.177-10.069,7.177
		c-3.728,0-6.009-3.06-6.009-8.067c0-10.236,9.569-22.531,17.581-22.531c2.448,0,3.95,1.112,4.896,3.672L136.075,272.508z
		 M117.715,294.206c0,2.67,1.224,4.395,3.116,4.395c5.174,0,11.794-13.463,11.794-20.64c0-1.947-0.89-3.116-2.281-3.116
		C124.67,274.845,117.715,286.528,117.715,294.206z"/>
	<path fill="#231F20" d="M216.857,276.013c0,10.014-5.508,19.305-13.296,23.533l-12.072,6.564l0.111,0.167
		c6.23,0,9.068,5.063,15.021,5.063c3.727,0,6.898-1.947,8.011-5.786l1.836,0.834c-1.335,6.064-6.342,10.07-12.573,10.07
		c-8.401,0-12.406-7.288-17.08-7.288c-4.062,0-4.006,5.396-8.067,5.396c-1.78,0-2.837-1.057-2.837-2.782
		c0-1.892,1.224-3.06,5.174-4.729l10.682-4.506c-9.235-0.389-15.188-7.177-15.188-17.469c0-14.131,11.35-26.481,24.423-26.481
		C210.682,258.6,216.857,265.387,216.857,276.013z M183.31,285.249c0,9.013,3.505,13.853,10.014,13.853
		c9.625,0,16.801-10.515,16.801-24.59c0-8.901-2.893-13.018-9.124-13.018C191.099,261.493,183.31,271.896,183.31,285.249z"/>
	<path fill="#231F20" d="M235.441,297.265l-0.167-0.111c-2.003,3.505-5.062,5.396-8.567,5.396c-4.618,0-7.288-3.338-7.288-9.068
		c0-10.07,8.512-21.53,16.301-21.53c2.559,0,4.284,1.168,5.897,3.95l1.335-3.95h4.228l-10.237,37.775
		c-0.278,1.001-0.389,1.502-0.389,1.947c0,1.335,1.001,1.947,4.284,2.003l-0.334,2.225H226.15l0.334-2.225
		c3.06,0,4.339-0.612,4.896-2.559L235.441,297.265z M225.205,293.872c0,3.505,1.057,5.341,3.227,5.341
		c4.951,0,10.793-10.125,10.793-18.303c0-4.062-1.168-6.064-3.227-6.064C231.213,274.845,225.205,285.693,225.205,293.872z"/>
	<path fill="#231F20" d="M291.911,290.478c-0.723,2.615-1.168,4.729-1.168,5.675c0,2.225,2.114,3.338,6.342,3.338l-0.612,2.503
		h-18.47l0.612-2.226c3.561,0,5.73-2.058,6.955-6.62l6.564-24.534c0.501-1.836,0.723-3.227,0.723-4.173
		c0-2.225-1.279-2.948-5.786-3.06l0.612-2.226h15.466c8.901,0,14.354,3.561,14.354,9.569c0,6.064-4.84,10.237-12.184,11.739
		l4.117,10.181c3.061,7.566,4.507,9.124,9.347,9.124l-0.612,2.226H307.6l-8.178-20.863h-4.896L291.911,290.478z M295.25,278.294
		h2.726c7.789,0,13.352-3.561,13.352-9.903c0-4.451-2.837-6.732-8.066-6.732c-3.004,0-3.839,0.89-4.785,4.451L295.25,278.294z"/>
	<path fill="#231F20" d="M321.287,280.241c1.669-3.727,7.232-8.289,10.182-8.289c1.78,0,2.559,1.279,2.559,4.228
		c0,1.168-0.111,2.225-0.39,3.672l0.167,0.167c1.836-4.339,6.843-8.624,10.182-8.624c2.113,0,3.782,1.558,3.782,3.561
		c0,1.947-1.391,3.338-3.282,3.338c-2.336,0-2.559-2.059-3.894-2.059c-2.838,0-7.733,8.011-11.016,18.081l-2.504,7.677h-5.174
		l3.616-11.516c2.837-8.846,3.505-11.405,3.505-12.962c0-0.835-0.278-1.224-0.835-1.224c-1.502,0-4.506,2.559-5.451,4.673
		L321.287,280.241z"/>
</g>
<g enable-background="new    ">
	<path fill="#FFFFFF" d="M493.715,261.358h17.17l-11.791,31.65c-7.861,20.893-15.309,50.061-15.309,59.163
		c0,3.931,1.448,5.999,3.931,5.999c3.931,0,11.585-8.895,20.687-21.514l5.379,4.344c-11.378,20.272-25.651,32.064-38.063,32.064
		c-6.412,0-9.93-4.551-9.93-15.515c0-2.482,0.207-5.585,0.621-10.963l-0.827-0.207c-8.068,15.308-23.79,26.686-37.442,26.686
		c-13.86,0-22.342-11.378-22.342-29.996c0-38.062,35.581-83.779,65.369-83.779c9.102,0,14.688,4.137,18.204,13.653L493.715,261.358z
		 M425.45,342.035c0,9.93,4.551,16.342,11.584,16.342c19.238,0,43.855-50.061,43.855-76.747c0-7.24-3.31-11.584-8.481-11.584
		C451.308,270.047,425.45,313.488,425.45,342.035z"/>
</g>
<g enable-background="new    ">
	<path fill="#231F20" d="M98.804,355.321H83.06c-1.78,4.005-2.615,6.62-2.615,8.178c0,2.226,1.669,2.559,5.007,2.559v2.226H70.208
		v-2.226c3.561-0.389,5.118-1.335,6.398-4.506l14.631-36.663h4.117l13.296,32.49c3.06,7.511,3.894,8.123,8.901,8.624v2.281h-21.03
		v-2.281c3.561-0.167,5.007-0.557,5.007-2.337c0-1.057-0.557-2.67-1.447-5.007L98.804,355.321z M84.339,351.982H97.58l-6.398-16.857
		H90.96L84.339,351.982z"/>
	<path fill="#231F20" d="M135.079,349.479v-2.336c0-4.284-1.502-6.175-4.673-6.175c-2.114,0-3.06,1.057-4.006,3.727
		c-0.667,1.836-1.836,2.949-3.95,2.949c-2.059,0-3.227-1.335-3.227-3.616c0-3.505,3.95-5.786,11.739-5.786
		c8.345,0,11.572,2.726,11.572,9.792v12.184c0,3.171,0.612,4.729,1.892,4.729c0.723,0,1.335-0.223,1.947-0.723l0.834,1.613
		c-1.001,1.836-3.394,3.004-6.12,3.004c-3.394,0-5.229-2.169-5.229-5.953h-0.278c-2.114,3.839-5.675,5.897-10.014,5.897
		c-4.618,0-7.733-2.893-7.733-7.121c0-3.227,2.67-6.064,9.402-8.79L135.079,349.479z M135.079,352.428
		c-6.176,2.837-9.402,5.062-9.402,7.677c0,2.17,1.335,3.505,3.116,3.505c3.616,0,6.287-2.615,6.287-5.897V352.428z"/>
	<path fill="#231F20" d="M227.766,347.254c0,7.622-3.95,14.298-10.682,18.637c-2.448,1.558-4.339,2.448-9.902,4.395
		c-3.283,1.168-4.451,1.78-5.842,2.67v0.222c0.501-0.055,1.447-0.111,2.17-0.111c6.342,0,11.182,3.338,17.413,3.338
		c3.505,0,5.396-1.168,6.509-4.117h2.059c0.167,0.945,0.222,1.78,0.222,2.392c0,4.618-4.451,8.067-10.292,8.067
		c-8.234,0-14.187-6.788-19.973-6.788c-3.95,0-4.617,3.171-7.455,3.171c-1.28,0-2.059-0.667-2.059-1.558
		c0-1.28,0.946-2.114,4.061-3.839l7.01-3.95c-11.906-1.001-20.974-10.682-20.974-22.476c0-12.685,10.237-22.42,23.645-22.42
		C217.14,324.889,227.766,334.736,227.766,347.254z M218.085,347.42c0-11.572-5.619-18.915-14.409-18.915
		c-8.679,0-13.964,7.177-13.964,18.915c0,11.85,5.341,19.194,13.964,19.194C212.411,366.614,218.085,359.048,218.085,347.42z"/>
	<path fill="#231F20" d="M255.362,364.834h-0.278c-2.559,2.837-5.062,4.005-8.512,4.005c-8.178,0-14.131-6.397-14.131-15.188
		c0-9.012,6.008-15.41,14.409-15.41c3.728,0,6.899,1.279,9.514,3.783l4.228-3.227h2.448v34.215c0,6.175,0.445,6.787,5.396,6.954
		v2.225H248.52v-2.225c5.396-0.111,6.843-1.502,6.843-6.565V364.834z M255.251,350.981c0-5.452-3.227-9.513-7.511-9.513
		c-4.395,0-6.898,4.284-6.898,11.85c0,7.677,2.448,11.905,6.898,11.905c2.67,0,5.007-1.502,6.231-4.061
		c0.834-1.78,1.28-4.117,1.28-6.731V350.981z"/>
	<path fill="#231F20" d="M324.851,348.088l12.907,14.798c1.78,2.059,4.395,3.171,6.898,3.171v2.226h-13.186l-13.797-16.913
		c-1.836-2.225-3.171-2.837-4.339-2.837v10.904c0,5.508,1.001,6.62,8.066,6.62v2.226h-22.086v-2.226
		c4.896,0,5.841-1.112,5.841-6.342v-25.703c0-5.174-0.667-6.12-5.229-6.342v-2.226h19.249c10.682,0,16.857,4.006,16.857,10.737
		C336.033,342.358,332.64,346.697,324.851,348.088z M313.335,345.195h3.616c6.954,0,10.403-2.559,10.403-8.734
		c0-4.729-3.061-7.9-8.179-7.9h-4.84c-0.612,0-1.001,0.389-1.001,0.946V345.195z"/>
	<path fill="#231F20" d="M357.064,359.66c0,5.73,0.724,6.342,5.897,6.397v2.226H344.38v-2.226c4.507-0.278,4.951-0.89,4.951-6.509
		v-6.788c0-9.179-0.667-10.515-5.174-10.515v-1.947l11.127-2.058l0.89,6.398h0.223c2.003-3.895,5.508-6.398,9.124-6.398
		c2.838,0,4.784,1.558,4.784,3.728c0,2.392-1.502,4.228-3.838,4.228c-2.281,0-3.283-2.226-4.841-2.226
		c-1.391,0-2.781,2.003-3.561,5.119c-0.611,2.225-1.001,5.174-1.001,7.9V359.66z"/>
</g>
<g enable-background="new    ">
	<path fill="#9F392A" d="M160.234,429.46c4.759-5.66,7.204-8.683,7.204-10.227c0-1.286-1.479-1.607-4.438-1.607l0.643-2.573H180.3
		l-0.643,2.573c-4.052,0-7.846,2.766-15.628,12.284l-29.007,35.31h-5.402l8.94-39.49c0.515-2.251,0.772-3.923,0.772-4.952
		c0-2.509-1.287-3.151-5.981-3.151l0.643-2.573h19.038l-0.643,2.573c-5.017,0-6.11,1.157-7.654,8.168l-6.496,29.649h0.257
		L160.234,429.46z"/>
	<path fill="#9F392A" d="M186.024,456.022c-3.666,6.045-8.426,9.197-13.764,9.197c-5.853,0-9.197-3.859-9.197-10.483
		c0-11.835,10.805-24.891,20.581-24.891c4.116,0,7.01,2.315,7.01,5.596c0,5.981-9.583,13.12-21.031,15.692
		c-0.193,1.223-0.257,2.38-0.257,3.538c0,4.566,1.737,7.01,4.953,7.01c3.151,0,6.753-2.637,9.647-7.01L186.024,456.022z
		 M170.267,448.24c8.232-2.251,14.342-7.525,14.342-12.671c0-1.801-0.772-2.701-2.251-2.701
		C177.856,432.868,172.454,440.394,170.267,448.24z"/>
	<path fill="#9F392A" d="M192.84,439.429c1.93-4.31,8.361-9.583,11.77-9.583c2.058,0,2.958,1.479,2.958,4.888
		c0,1.351-0.129,2.573-0.45,4.245l0.193,0.193c2.123-5.017,7.911-9.97,11.77-9.97c2.444,0,4.374,1.801,4.374,4.116
		c0,2.251-1.608,3.859-3.794,3.859c-2.701,0-2.958-2.38-4.502-2.38c-3.28,0-8.94,9.262-12.735,20.902l-2.894,8.876h-5.981
		l4.181-13.313c3.28-10.227,4.052-13.185,4.052-14.985c0-0.965-0.322-1.415-0.965-1.415c-1.736,0-5.209,2.958-6.303,5.402
		L192.84,439.429z"/>
	<path fill="#9F392A" d="M234.067,436.02l0.193,0.129c2.508-3.923,6.432-6.238,10.612-6.238c5.21,0,8.168,3.537,8.168,9.133
		c0,12.22-11.513,26.177-21.932,26.177c-4.888,0-8.361-3.28-8.361-7.976c0-2.251,0.965-6.367,2.766-12.027l7.782-25.083
		c0.45-1.543,0.965-3.345,0.965-4.116c0-1.543-1.543-2.251-4.888-2.251l0.515-1.93l12.349-0.578L234.067,436.02z M246.673,438.528
		c0-2.959-1.544-5.21-3.538-5.21c-5.789,0-14.278,13.893-14.278,23.347c0,3.474,1.094,5.274,3.28,5.274
		C238.119,461.939,246.673,448.111,246.673,438.528z"/>
	<path fill="#9F392A" d="M263.715,443.352c1.222-3.344,1.672-5.338,1.672-6.495c0-1.158-0.45-1.479-0.9-1.479
		c-1.801,0-4.888,4.116-5.596,5.467l-1.865-1.158c1.994-3.858,7.976-9.84,12.413-9.84c2.123,0,3.216,1.094,3.216,4.31
		c0,2.508-1.672,6.56-4.052,13.12l-2.38,6.496c-0.321,0.9-1.351,3.794-1.351,5.017c0,0.771,0.386,1.479,1.351,1.479
		c2.508,0,5.917-4.952,6.882-6.688l1.93,1.094c-2.058,4.181-7.204,10.548-12.863,10.548c-2.508,0-3.73-1.223-3.73-4.181
		c0-2.444,0.836-5.081,2.38-9.455L263.715,443.352z M269.182,415.375c0-2.315,1.737-4.181,3.988-4.181
		c2.379,0,4.116,1.929,4.116,4.116c0,2.251-1.865,3.987-4.116,3.987C271.047,419.298,269.182,417.69,269.182,415.375z"/>
	<path fill="#9F392A" d="M290.212,451.713l-4.759,12.863h-5.66l4.759-14.729c3.023-9.39,4.052-13.056,4.052-14.729
		c0-1.093-0.386-1.736-1.093-1.736c-1.93,0-5.403,5.146-7.075,10.355l-1.93-0.965c3.023-8.747,6.689-12.928,11.448-12.928
		c2.766,0,3.795,1.415,3.795,5.081c0,2.187-0.322,4.052-1.094,5.853l0.193,0.193c4.374-7.654,8.747-11.127,14.021-11.127
		c3.729,0,5.788,1.865,5.788,5.21c0,2.251-0.771,5.017-3.409,12.67c-1.993,5.788-3.408,9.904-3.408,11.513
		c0,0.643,0.192,0.965,0.643,0.965c1.223,0,3.409-1.865,7.332-6.239l1.673,0.9c-2.766,5.081-9.197,10.355-12.606,10.355
		c-2.123,0-3.473-2.059-3.473-5.146c0-2.38,0.515-3.987,5.081-16.915c1.543-4.438,1.993-6.046,1.993-7.59
		c0-1.607-0.579-2.379-1.736-2.379C300.695,433.19,293.685,442.388,290.212,451.713z"/>
	<path fill="#9F392A" d="M347.838,420.069c0.644-2.315,1.029-3.858,1.029-4.566c0-1.286-1.479-1.736-5.917-1.736l0.707-2.572h12.413
		l-7.139,26.048c-3.666,13.441-4.631,18.266-4.631,21.031c0,1.93,0.707,2.637,1.607,2.637c1.865,0,4.31-3.473,5.981-8.618
		l2.444,0.579c-2.895,8.425-6.303,12.349-10.677,12.349c-3.087,0-4.823-2.059-4.823-5.725c0-0.9,0.192-1.994,0.45-2.958
		l-0.515-0.129c-3.216,5.659-8.361,8.812-12.542,8.812c-4.373,0-7.782-4.053-7.782-10.033c0-11.191,11.256-25.341,20.131-25.341
		c2.959,0,4.053,1.094,5.531,3.473L347.838,420.069z M324.685,455.958c0,3.087,1.672,5.081,4.245,5.081
		c5.853,0,13.312-15.372,13.312-23.54c0-2.637-1.028-4.245-3.216-4.245C332.338,433.254,324.685,446.954,324.685,455.958z"/>
	<path fill="#9F392A" d="M379.93,443.352l4.76-12.862h5.981l-4.76,14.728c-2.766,8.618-3.73,11.898-3.73,13.507
		c0,1.029,0.386,1.672,1.158,1.672c1.736,0,5.017-3.602,6.688-7.461l1.93,0.965c-2.251,5.66-7.396,11.32-11.834,11.32
		c-2.638,0-3.409-1.994-3.409-5.467c0-1.415,0.129-3.216,0.45-4.824l-0.192-0.192c-4.566,8.168-8.747,10.483-12.478,10.483
		c-3.987,0-5.402-2.509-5.402-5.789c0-3.602,1.672-8.232,3.216-12.091c3.087-7.654,4.181-10.42,4.181-11.771
		c0-0.321-0.064-0.707-0.579-0.707c-1.094,0-3.087,1.865-6.689,6.238l-1.672-0.9c2.572-5.017,8.232-10.354,12.413-10.354
		c2.058,0,3.216,1.351,3.216,3.73c0,3.022-1.865,7.782-4.502,14.342c-1.673,4.181-2.959,7.525-2.959,10.227
		c0,1.801,0.579,2.444,1.351,2.444C369.832,460.589,376.649,452.228,379.93,443.352z"/>
	<path fill="#9F392A" d="M407.134,451.713l-4.76,12.863h-5.659l4.759-14.729c3.023-9.39,4.053-13.056,4.053-14.729
		c0-1.093-0.387-1.736-1.094-1.736c-1.93,0-5.402,5.146-7.075,10.355l-1.929-0.965c3.022-8.747,6.688-12.928,11.448-12.928
		c2.766,0,3.794,1.415,3.794,5.081c0,2.187-0.321,4.052-1.093,5.853l0.192,0.193c4.374-7.654,8.747-11.127,14.021-11.127
		c3.729,0,5.788,1.865,5.788,5.21c0,2.251-0.771,5.017-3.409,12.67c-1.993,5.788-3.408,9.904-3.408,11.513
		c0,0.643,0.192,0.965,0.643,0.965c1.223,0,3.409-1.865,7.332-6.239l1.673,0.9c-2.766,5.081-9.197,10.355-12.606,10.355
		c-2.122,0-3.473-2.059-3.473-5.146c0-2.38,0.515-3.987,5.081-16.915c1.543-4.438,1.993-6.046,1.993-7.59
		c0-1.607-0.578-2.379-1.736-2.379C417.617,433.19,410.606,442.388,407.134,451.713z"/>
	<path fill="#9F392A" d="M445.593,481.298c-9.39,0-15.757-3.666-15.757-9.068c0-3.473,2.572-6.109,6.045-6.109
		c1.029,0,1.865,0.192,3.28,0.9c-2.315,0.965-3.602,2.958-3.602,5.595c0,3.603,3.923,5.789,10.227,5.789
		c6.945,0,11.834-3.345,11.834-6.303c0-2.38-3.023-4.503-8.232-5.403c-9.326-1.607-13.571-3.473-13.571-7.332
		c0-2.443,1.865-4.052,7.525-5.724l0.129-0.258c-3.28-2.314-4.889-5.209-4.889-8.939c0-7.976,7.011-14.664,15.308-14.664
		c3.28,0,5.788,1.094,7.976,3.473c1.993-2.251,3.923-3.408,5.853-3.408c2.701,0,5.145,1.994,5.145,4.181
		c0,1.736-1.286,3.022-3.022,3.022c-2.637,0-2.315-2.701-4.631-2.701c-0.579,0-0.9,0.129-2.251,1.029
		c0.45,1.157,0.579,2.122,0.579,3.73c0,9.39-5.596,15.307-14.729,16.015c-4.052,0.321-5.724,0.965-5.724,2.315
		c0,5.338,19.552,1.543,19.552,11.834C462.637,476.668,456.012,481.298,445.593,481.298z M457.427,437.949
		c0-3.408-1.672-5.596-4.181-5.596c-3.987,0-8.618,7.719-8.618,14.472c0,3.216,1.801,5.467,4.502,5.467
		C453.246,452.292,457.427,445.152,457.427,437.949z"/>
</g>
<g enable-background="new    ">
	<path fill="#231F20" d="M172.869,511.052h3.175l-2.181,5.853c-1.454,3.864-2.831,9.258-2.831,10.94
		c0,0.728,0.268,1.109,0.727,1.109c0.727,0,2.142-1.645,3.825-3.979l0.995,0.804c-2.104,3.749-4.744,5.93-7.039,5.93
		c-1.186,0-1.836-0.842-1.836-2.869c0-0.459,0.038-1.033,0.115-2.027l-0.153-0.038c-1.492,2.83-4.399,4.935-6.924,4.935
		c-2.563,0-4.132-2.104-4.132-5.547c0-7.039,6.58-15.493,12.088-15.493c1.683,0,2.716,0.766,3.366,2.525L172.869,511.052z
		 M160.245,525.971c0,1.836,0.842,3.022,2.142,3.022c3.558,0,8.11-9.258,8.11-14.192c0-1.339-0.612-2.143-1.568-2.143
		C165.027,512.658,160.245,520.691,160.245,525.971z"/>
	<path fill="#231F20" d="M187.938,514.342l0.115,0.076c1.492-2.333,3.826-3.711,6.312-3.711c3.099,0,4.858,2.104,4.858,5.433
		c0,7.268-6.848,15.569-13.045,15.569c-2.907,0-4.973-1.951-4.973-4.744c0-1.339,0.574-3.787,1.645-7.153l4.629-14.919
		c0.268-0.918,0.574-1.989,0.574-2.448c0-0.918-0.918-1.339-2.907-1.339l0.306-1.147l7.345-0.344L187.938,514.342z M195.436,515.833
		c0-1.76-0.918-3.099-2.104-3.099c-3.443,0-8.493,8.264-8.493,13.887c0,2.065,0.65,3.137,1.951,3.137
		C190.348,529.758,195.436,521.533,195.436,515.833z"/>
</g>
<g enable-background="new    ">
	<path fill="#231F20" d="M220.298,525.167c-2.104,4.208-5.049,6.542-8.263,6.542c-3.29,0-5.47-2.486-5.47-6.235
		c0-6.81,6.312-14.805,11.706-14.805c2.41,0,4.208,1.492,4.208,3.481c0,1.262-0.842,2.142-1.989,2.142s-1.989-0.841-1.989-1.912
		c0-0.65,0.306-1.033,0.306-1.377c0-0.345-0.306-0.536-0.918-0.536c-3.405,0-7.307,6.963-7.307,13.045
		c0,2.448,0.995,3.94,2.678,3.94c1.798,0,4.169-2.143,5.7-5.05L220.298,525.167z"/>
</g>
<g enable-background="new    ">
	<path fill="#231F20" d="M244.625,504.854c0.382-1.377,0.612-2.295,0.612-2.716c0-0.766-0.88-1.033-3.519-1.033l0.421-1.53h7.383
		l-4.246,15.493c-2.181,7.995-2.754,10.864-2.754,12.509c0,1.147,0.421,1.568,0.957,1.568c1.109,0,2.563-2.065,3.558-5.126
		l1.454,0.345c-1.722,5.011-3.749,7.345-6.35,7.345c-1.836,0-2.869-1.225-2.869-3.405c0-0.535,0.115-1.186,0.268-1.759l-0.306-0.077
		c-1.913,3.366-4.973,5.241-7.459,5.241c-2.601,0-4.628-2.41-4.628-5.968c0-6.656,6.694-15.072,11.973-15.072
		c1.76,0,2.41,0.65,3.29,2.065L244.625,504.854z M230.854,526.2c0,1.836,0.995,3.022,2.525,3.022c3.481,0,7.918-9.144,7.918-14.001
		c0-1.568-0.612-2.525-1.913-2.525C235.406,512.696,230.854,520.845,230.854,526.2z"/>
	<path fill="#231F20" d="M265.892,526.238c-2.181,3.596-5.011,5.471-8.187,5.471c-3.481,0-5.47-2.296-5.47-6.235
		c0-7.039,6.427-14.805,12.241-14.805c2.448,0,4.169,1.377,4.169,3.328c0,3.558-5.7,7.804-12.509,9.334
		c-0.115,0.727-0.153,1.415-0.153,2.104c0,2.716,1.033,4.169,2.945,4.169c1.875,0,4.017-1.568,5.738-4.169L265.892,526.238z
		 M256.52,521.609c4.896-1.339,8.531-4.476,8.531-7.536c0-1.07-0.459-1.606-1.339-1.606
		C261.034,512.467,257.82,516.942,256.52,521.609z"/>
</g>
<g enable-background="new    ">
	<path fill="#231F20" d="M280.424,528.533c-2.601,10.367-5.202,12.739-9.563,12.739c-2.104,0-3.672-1.263-3.672-2.907
		c0-1.263,0.689-2.066,1.875-2.066c2.142,0,1.147,2.678,3.137,2.678c1.186,0,2.219-1.339,2.716-3.328l5.547-21.536h-3.672
		l0.497-1.76h3.634c2.257-9.143,5.241-12.777,9.219-12.777c2.983,0,5.164,1.416,5.164,3.29c0,1.147-0.688,2.104-1.836,2.104
		c-2.945,0-1.262-3.673-3.672-3.673c-2.027,0-4.055,4.629-5.355,11.056h3.864l-0.536,1.76h-3.749L280.424,528.533z"/>
</g>
<g enable-background="new    ">
	<path fill="#231F20" d="M297.714,541.272c-5.585,0-9.372-2.181-9.372-5.395c0-2.065,1.53-3.634,3.596-3.634
		c0.612,0,1.109,0.115,1.951,0.536c-1.377,0.573-2.142,1.759-2.142,3.327c0,2.143,2.333,3.443,6.082,3.443
		c4.132,0,7.039-1.989,7.039-3.749c0-1.415-1.798-2.678-4.896-3.213c-5.547-0.957-8.072-2.066-8.072-4.361
		c0-1.453,1.109-2.41,4.476-3.404l0.077-0.153c-1.951-1.377-2.907-3.099-2.907-5.317c0-4.743,4.169-8.722,9.104-8.722
		c1.951,0,3.443,0.65,4.744,2.065c1.186-1.339,2.333-2.027,3.48-2.027c1.607,0,3.061,1.187,3.061,2.486
		c0,1.033-0.765,1.798-1.798,1.798c-1.568,0-1.377-1.606-2.754-1.606c-0.345,0-0.536,0.077-1.339,0.612
		c0.268,0.688,0.344,1.263,0.344,2.219c0,5.585-3.328,9.104-8.76,9.525c-2.41,0.191-3.405,0.573-3.405,1.377
		c0,3.175,11.629,0.918,11.629,7.039C307.852,538.518,303.911,541.272,297.714,541.272z M304.753,515.489
		c0-2.027-0.995-3.328-2.487-3.328c-2.372,0-5.126,4.591-5.126,8.607c0,1.912,1.071,3.251,2.678,3.251
		C302.266,524.02,304.753,519.773,304.753,515.489z"/>
	<path fill="#231F20" d="M329.194,514.304c0-1.187-0.345-1.607-1.263-1.607c-3.137,0-6.006,4.744-9.755,15.99l-0.88,2.64h-3.213
		l7.574-25.937c0.344-1.262,0.573-2.295,0.573-2.83c0-1.033-0.803-1.377-3.404-1.454l0.268-1.53h7.804l-4.36,14.767l0.114,0.076
		c1.646-2.372,3.864-3.749,6.197-3.749c2.41,0,3.749,1.492,3.749,4.17c0,1.683-0.497,3.901-1.568,6.81
		c-1.989,5.546-2.104,5.853-2.104,6.312c0,0.573,0.23,0.88,0.728,0.88c1.032,0,2.64-1.301,4.169-3.404l1.071,0.803
		c-1.606,2.984-5.088,5.471-7.65,5.471c-1.377,0-1.951-0.728-1.951-2.41c0-1.722,0.459-3.481,2.678-9.869
		C328.85,516.828,329.194,515.451,329.194,514.304z"/>
	<path fill="#231F20" d="M343.422,518.702c0.727-1.989,0.994-3.175,0.994-3.863s-0.268-0.88-0.535-0.88
		c-1.071,0-2.907,2.448-3.328,3.252l-1.109-0.689c1.186-2.295,4.743-5.853,7.383-5.853c1.262,0,1.912,0.65,1.912,2.563
		c0,1.491-0.994,3.901-2.409,7.804l-1.416,3.863c-0.191,0.536-0.803,2.257-0.803,2.984c0,0.459,0.229,0.879,0.803,0.879
		c1.492,0,3.52-2.945,4.094-3.978l1.147,0.65c-1.225,2.486-4.284,6.273-7.651,6.273c-1.491,0-2.219-0.728-2.219-2.486
		c0-1.454,0.498-3.022,1.416-5.624L343.422,518.702z M346.673,502.062c0-1.378,1.033-2.487,2.372-2.487
		c1.415,0,2.448,1.147,2.448,2.448c0,1.339-1.109,2.372-2.448,2.372C347.782,504.396,346.673,503.439,346.673,502.062z"/>
	<path fill="#231F20" d="M358.339,518.664c0.497-1.989,0.804-3.213,0.804-3.94c0-0.497-0.153-0.765-0.574-0.765
		c-1.109,0-2.869,2.448-3.29,3.252l-1.109-0.689c1.187-2.295,4.744-5.853,7.383-5.853c1.339,0,1.913,0.688,1.913,2.143
		c0,1.683-0.765,4.438-1.836,8.301l-3.176,11.515c-1.224,4.36-4.781,8.646-8.415,8.646c-2.104,0-3.673-1.263-3.673-2.907
		c0-1.378,0.688-2.258,1.875-2.258c2.104,0,1.683,2.869,3.137,2.869c1.224,0,2.219-1.339,2.716-3.328L358.339,518.664z
		 M360.366,502.062c0-1.378,1.033-2.487,2.372-2.487c1.415,0,2.448,1.147,2.448,2.448c0,1.339-1.109,2.372-2.448,2.372
		C361.476,504.396,360.366,503.439,360.366,502.062z"/>
</g>
<g enable-background="new    ">
	<path fill="#231F20" d="M390.737,525.396l0.995,0.536c-1.836,3.825-3.749,5.776-5.7,5.776c-1.224,0-1.874-0.728-2.83-2.984
		l-2.563-6.12l-0.842,0.383l-2.41,8.339h-3.48l7.383-27.428c0.191-0.727,0.268-1.109,0.268-1.416c0-1.07-0.765-1.377-3.558-1.377
		l0.345-1.147l7.612-0.383l-3.979,14.729l0.153,0.038c1.453-2.448,3.366-3.711,5.623-3.711c2.372,0,3.863,1.225,3.863,3.175
		c0,2.372-2.524,4.935-6.732,6.848l-0.994,0.459l1.95,5.05c0.536,1.453,1.071,2.104,1.76,2.104
		C388.366,528.266,389.398,527.31,390.737,525.396z M387.792,514.801c0-0.995-0.573-1.568-1.568-1.568
		c-2.104,0-4.935,3.634-6.082,7.842C384.579,519.544,387.792,516.866,387.792,514.801z"/>
</g>
<g enable-background="new    ">
	<path fill="#231F20" d="M404.392,504.893c0.229-0.918,0.574-1.989,0.574-2.448c0-0.918-0.918-1.339-2.907-1.339l0.306-1.147
		l7.001-0.344l-6.848,25.132c-0.383,1.378-0.612,2.41-0.612,3.138c0,0.459,0.229,0.879,0.804,0.879c1.645,0,3.863-3.213,4.476-4.36
		l1.147,0.65c-1.568,3.48-5.088,6.656-7.459,6.656c-1.76,0-2.602-0.728-2.602-2.486c0-1.033,0.268-2.64,1.033-5.624L404.392,504.893
		z"/>
</g>
<g enable-background="new    ">
	<path fill="#231F20" d="M439.967,513.768c0-0.803-0.229-1.109-0.765-1.109c-1.377,0-3.328,1.951-5.509,5.433
		c-1.568,2.486-2.295,4.284-5.432,13.235h-3.596l2.524-7.689c2.143-6.503,2.754-8.645,2.754-9.716c0-0.804-0.344-1.263-0.956-1.263
		c-2.027,0-6.044,5.126-7.842,9.984l-3.214,8.684h-3.366l2.831-8.76c1.913-5.968,2.41-7.728,2.41-8.723
		c0-0.688-0.229-1.07-0.65-1.07c-1.109,0-3.099,2.907-4.208,6.158l-1.147-0.573c1.798-5.203,3.979-7.689,6.81-7.689
		c1.645,0,2.257,0.842,2.257,2.984c0,1.224-0.191,2.333-0.65,3.519l0.114,0.115c2.334-4.361,4.896-6.618,7.536-6.618
		c1.989,0,3.175,1.301,3.175,3.404c0,0.728-0.152,1.454-0.65,3.252l0.077,0.115c2.869-4.858,5.049-6.771,7.728-6.771
		c1.988,0,2.983,1.033,2.983,3.328c0,1.454-0.535,3.214-1.913,7.307c-1.76,5.241-1.912,5.814-1.912,6.694
		c0,0.535,0.114,0.727,0.382,0.727c0.766,0,2.258-1.415,4.706-4.476l0.994,0.536c-1.722,3.404-5.738,6.924-7.88,6.924
		c-1.263,0-2.066-1.187-2.066-3.022c0-1.263,0.383-2.524,3.022-10.099C439.853,514.801,439.967,514.418,439.967,513.768z"/>
</g>
<g enable-background="new    ">
	<path fill="#231F20" d="M162.608,555.586c0.344,0,0.497,0.191,0.497,0.612c0,0.727-0.574,3.711-0.612,7.383
		c3.558-6.312,5.623-7.956,7.039-7.956c0.803,0,0.918,1.606,0.918,2.524c0,2.869-0.765,7.191-0.765,8.454
		c0,0.688,0.077,1.186,0.306,1.186c0.383,0,1.071-1.339,1.798-2.601l0.65,0.344c-1.262,2.754-3.787,5.585-4.935,5.585
		c-0.383,0-0.498-0.344-0.498-0.88c0-2.027,0.995-6.924,0.995-10.061c0-0.842-0.153-1.722-0.612-1.722
		c-0.842,0-3.634,3.902-4.744,6.771c-0.65,1.645-0.459,2.257-0.688,4.935c-0.038,0.459-0.498,0.727-0.995,0.727h-0.612
		c-0.421,0-0.765-0.114-0.727-0.573c0.459-4.82,0.765-10.864,0.765-12.051c0-0.611-0.115-0.841-0.421-0.841
		c-0.344,0-1.76,0.573-1.76,0.573l-0.344-0.803C158.477,557.002,161.805,555.586,162.608,555.586z"/>
	<path fill="#231F20" d="M178.94,557.92c0.957-1.109,2.525-2.41,4.17-2.41c3.137,0,3.864,3.214,3.864,5.241
		c0,4.819-3.672,10.558-7.154,10.558c-2.372,0-3.94-2.448-3.94-5.355C175.88,561.133,178.52,558.417,178.94,557.92z
		 M180.892,569.855c1.798,0,3.596-4.553,3.596-8.11c0-1.951-0.65-5.011-2.333-5.011c-1.492,0-3.71,3.558-3.71,7.612
		C178.443,567.254,179.399,569.855,180.892,569.855z"/>
	<path fill="#231F20" d="M191.792,578.807c0.803-10.559,1.224-15.685,1.454-18.133c0.115-1.491,0.268-2.257,0.268-2.716
		c0-0.306-0.077-0.459-0.306-0.459s-0.536,0.115-2.41,0.956l-0.383-0.88c0,0,4.361-2.142,5.241-2.142
		c0.306,0,0.536,0.114,0.536,0.459c0,0.152-0.497,2.983-0.727,4.514c0,0,2.983-4.667,5.546-4.667c1.339,0,2.372,1.186,2.372,4.132
		c0,2.295-1.071,5.088-1.607,6.197c-1.3,2.678-3.519,5.011-4.82,5.011c-1.186,0-2.181-1.071-2.181-1.071
		c-0.191,4.246-0.574,7.804-0.574,8.569c0,0.65,0,0.956,0.727,0.956c0.344,0,2.065-0.153,3.443-0.229l-0.039,1.033l-9.295,0.88
		v-1.109C191.868,579.839,191.715,580.068,191.792,578.807z M197.033,569.357c1.874,0,4.361-3.52,4.361-7.115
		c0-1.339-0.421-4.169-2.066-4.169c-1.377,0-4.323,3.328-4.323,7.076C195.005,568.134,195.923,569.357,197.033,569.357z"/>
	<path fill="#231F20" d="M207.933,561.095c1.606-3.825,4.361-5.394,5.585-5.394c1.645,0,2.907,2.104,2.907,2.104
		s0.344-1.95,0.536-2.716l0.957,0.153c-0.536,3.061-0.612,3.825-1.033,7.688c-0.459,4.094-0.918,14.805-0.918,15.646
		c0,0.88,0.229,0.956,1.109,0.956c0.382,0,0.957-0.038,1.53-0.038v0.918l-9.296,0.765l0.039-1.262
		c3.634-0.268,3.978,0.076,4.169-1.875l1.224-12.776c0,0-2.984,5.7-5.585,5.7c-1.53,0-2.333-2.181-2.333-4.285
		C206.824,565.379,207.245,562.74,207.933,561.095z M210.917,568.593c0.88,0,1.759-1.225,2.524-2.448
		c0.88-1.377,1.454-3.328,1.454-5.203c0-2.601-1.415-3.863-2.333-3.863c-1.836,0-3.596,4.629-3.596,7.23
		C208.966,567.637,210.19,568.593,210.917,568.593z"/>
	<path fill="#231F20" d="M227.058,555.472c0.344,0,0.459,0.229,0.459,0.497c0,1.109-0.803,6.312-0.803,6.312
		s3.251-6.656,5.279-6.656c0.612,0,1.683,1.95,1.683,3.137c0,0.535-0.153,0.956-0.497,0.956c-0.574,0-0.957-0.956-1.722-0.956
		c-2.027,0-3.481,3.213-4.246,5.508c-0.765,2.334-0.727,3.635-0.918,6.006c-0.038,0.421-0.421,0.612-0.803,0.612h-0.88
		c-0.498,0-0.765-0.191-0.765-0.497c0.382-4.17,0.88-9.755,0.957-12.203c0-0.573-0.191-0.842-0.536-0.842
		c-0.421,0-1.875,0.65-2.333,0.842l-0.268-0.88C221.664,557.308,225.949,555.472,227.058,555.472z"/>
</g>
<g enable-background="new    ">
	<path fill="#231F20" d="M246.449,566.986c1.109,0,0.995,2.792,3.366,2.792c1.683,0,2.984-1.224,2.984-2.792
		c0-2.907-5.011-4.476-5.011-8.033c0-2.296,2.295-3.367,4.705-3.367c1.454,0,3.022,0.689,3.022,1.951c0,0.345-0.268,0.88-0.688,0.88
		c-1.53,0-2.027-1.722-3.52-1.722c-0.918,0-1.53,0.574-1.53,1.301c0,2.448,5.317,4.705,5.317,8.34c0,2.371-2.563,4.781-5.815,4.781
		c-1.875,0-3.099-0.459-3.443-0.918c-0.229-0.268-0.306-0.765-0.306-1.645C245.531,567.866,245.798,566.986,246.449,566.986z"/>
	<path fill="#231F20" d="M259.836,555.854h3.022l0.536-3.214c0.038-0.306,1.645-1.032,2.142-1.032c0.229,0,0.344,0.229,0.344,0.497
		c0,0.727-0.498,1.989-0.688,3.749h3.366l-0.153,1.186H265c-0.038,0.383-0.65,5.202-0.65,8.875c0,1.377,0.077,2.716,0.842,2.716
		c0.841,0,2.984-2.41,2.984-2.41l0.65,0.612c-2.295,3.404-5.432,4.208-5.853,4.208c-0.688,0-1.224-0.727-1.224-1.568
		c0-5.853,0.918-12.433,0.918-12.433h-2.945L259.836,555.854z"/>
</g>
<g enable-background="new    ">
	<path fill="#231F20" d="M281.487,555.472c0.498,0,0.65,0.268,0.65,0.804c0,0.841-0.459,2.333-0.688,4.437
		c-0.268,2.64-0.383,4.323-0.383,5.395c0,0.841,0,1.912,0.459,1.912c1.148,0,5.815-6.886,5.815-10.443v-0.841
		c0-0.728,0.229-1.148,1.109-1.148h0.918c0.268,0,0.574,0.191,0.536,0.574c-0.268,2.945-0.918,7.65-0.918,10.979
		c0,0.345,0.153,0.728,0.421,0.728c0.612,0,2.372-2.793,2.372-2.793l0.688,0.497c-0.306,0.498-1.071,2.257-3.787,4.858
		c-0.498,0.497-0.957,0.804-1.301,0.804c-0.574,0-0.957-0.65-0.957-1.837c0-1.606,0.383-4.169,0.574-7.306
		c0,0-0.765,1.721-1.951,3.672c-1.875,3.175-4.82,5.433-5.814,5.433c-0.612,0-0.918-0.842-0.918-2.181
		c0-2.678,0.879-7.307,0.879-10.635c0-0.574-0.153-0.88-0.497-0.88c-0.115,0-0.306,0.038-0.459,0.115l-1.722,0.765l-0.42-1.033
		C276.093,557.346,280.339,555.472,281.487,555.472z"/>
</g>
<g enable-background="new    ">
	<path fill="#231F20" d="M302.945,555.318c0.498,0,0.688,0.268,0.688,0.612c0,1.109-0.841,4.667-0.841,7.612v1.684
		c0,2.448,0.153,3.71,1.109,3.71c0.956,0,5.05-4.36,5.05-9.219c0-1.684-0.995-1.76-0.995-3.061c0-0.765,0.383-1.224,1.147-1.224
		c1.071,0,1.607,1.186,1.607,2.219c0,2.18-1.263,6.465-2.984,9.104c-2.295,3.519-4.667,4.667-5.814,4.667
		c-1.492,0-1.683-1.837-1.683-3.443c0-2.64,0.421-7.229,0.65-9.678c0.038-0.498-0.153-0.804-0.498-0.804
		c-0.115,0-0.306,0.038-0.459,0.115l-1.721,0.727l-0.229-1.071C302.333,555.434,302.448,555.318,302.945,555.318z"/>
</g>
<g enable-background="new    ">
	<path fill="#231F20" d="M321.726,555.472c0.421,0,0.612,0.191,0.612,0.573c0,0.65-0.957,8.264-0.957,9.603
		c0,1.53,0.269,3.175,1.148,3.175c0.727,0,2.104-1.109,3.71-4.055c1.454-2.64,1.951-6.542,2.104-7.957
		c0.076-0.688,0.229-1.109,1.032-1.109h0.766c0.497,0,0.65,0.497,0.65,0.842c-0.153,1.836-0.88,3.672-0.88,8.76
		c0,1.989,0.076,3.558,0.956,3.558c1.263,0,5.317-4.781,5.317-9.028c0-1.529-0.994-1.95-0.994-3.098c0-0.459,0.42-1.033,1.339-1.033
		c1.07,0,1.415,1.033,1.415,2.065c0,2.181-1.454,6.465-3.175,9.104c-2.296,3.52-4.399,4.476-5.509,4.476
		c-1.606,0-1.76-1.645-1.76-3.251c0-0.995,0.268-4.399,0.268-4.399s-1.301,3.061-2.907,5.088c-1.186,1.53-3.137,2.562-4.055,2.562
		c-1.492,0-1.951-1.645-1.951-3.251c0-3.214,0.727-7.728,0.766-9.679c0-0.497-0.191-0.842-0.536-0.842
		c-0.229,0-0.229,0.039-2.333,0.957l-0.307-0.728C318.818,556.543,320.922,555.472,321.726,555.472z"/>
</g>
<g enable-background="new    ">
	<path fill="#231F20" d="M343.986,568.937c0.535,0,0.421,0.688,1.071,0.688c1.109,0,2.448-1.606,2.83-2.18
		c1.109-1.607,1.837-3.176,1.837-5.279c0-1.76-0.039-4.438-0.995-4.438c-1.415,0-2.372,2.831-2.372,2.831l-0.765-0.421
		c0.229-0.612,0.459-1.377,1.722-2.945c0.727-0.88,1.645-1.646,2.792-1.646c1.722,0,1.722,4.132,1.722,4.132
		s2.716-4.094,4.743-4.094c1.033,0,1.301,0.65,1.301,1.071c0,0.612-0.612,1.147-1.032,1.147c-0.459,0-0.421-0.727-0.995-0.727
		c-0.459,0-1.53,0.918-2.524,2.181c-1.147,1.453-1.798,2.831-1.798,4.629c0,2.601,1.53,4.552,2.257,4.552
		c1.032,0,2.181-2.371,2.562-3.213l0.918,0.268c-0.727,1.606-0.956,2.448-3.137,4.743c-0.497,0.536-1.032,0.918-1.453,0.918
		c-2.181,0-2.793-5.087-2.793-5.087s-2.333,5.087-5.278,5.087c-0.919,0-1.53-0.382-1.53-1.147
		C343.068,569.549,343.604,568.937,343.986,568.937z"/>
	<path fill="#231F20" d="M364.297,577.468c1.798-1.913,3.94-5.509,3.94-6.542c0-1.109-1.454-6.694-2.717-10.099
		c-0.573-1.53-1.109-2.64-1.415-2.64c-0.574,0-1.147,1.147-2.104,2.602l-0.88-0.536c0.114-0.152,1.147-1.989,2.257-3.175
		c0.803-0.842,1.606-1.568,2.257-1.568c0.803,0,1.377,1.186,2.104,3.634c0.574,1.989,1.263,4.858,2.219,8.569
		c1.071-2.602,1.989-5.892,1.989-9.831c0-1.301-0.842-1.492-0.842-1.492l0.039-0.65c0.611-0.076,1.07-0.076,1.339-0.076h0.229
		c1.147,0,1.606,0.076,1.606,0.994c0,1.875-2.755,10.94-5.279,16.066c-1.339,2.717-2.716,5.088-4.399,7.46
		c-0.268,0.344-0.42,0.612-1.032,0.612h-3.137v-0.88C361.963,579.533,361.925,579.992,364.297,577.468z"/>
</g>
<g enable-background="new    ">
	<path fill="#231F20" d="M385.601,565.838l7.345-7.459c-2.983-0.191-5.316-0.765-6.235-0.765c-2.218,0-2.601,0.803-2.601,0.956
		c0,0.497,1.032,0.727,1.032,1.377c0,0.421-0.229,0.804-0.918,0.804c-0.535,0-1.224-0.612-1.224-1.646
		c0-2.027,2.181-3.634,4.781-3.634c2.793,0,4.208,0.688,6.81,0.688c0.535,0,0.727-0.115,0.727-0.574c0-0.19-0.229-0.497-0.229-0.841
		c0-0.459,0.345-0.918,0.995-0.918c0.344,0,1.186,0.42,1.186,1.339c0,0.611-0.842,1.453-1.454,2.065l-10.979,10.902
		c0,0,0.88-0.383,2.754-0.383c2.143,0,3.902,1.071,5.547,1.071c1.684,0,2.143-1.875,2.143-2.181c0-0.765-0.383-1.147-0.612-1.377
		l0.574-0.536c0,0,1.339,0.536,1.339,2.334c0,1.684-1.301,4.246-4.017,4.246c-2.219,0-4.476-1.568-6.848-1.568
		c-2.065,0-3.137,0.65-3.137,1.415c0,0.115,0.153,0.688,0.153,1.109c0,0.383-0.115,0.728-0.65,0.728c-0.498,0-0.88-0.421-0.88-1.148
		C381.202,569.625,383.573,567.904,385.601,565.838z"/>
</g>
<g enable-background="new    ">
	<path fill="#FFFFFF" d="M206.699,615.808c1.02-7.141,4.112-12.049,9.212-12.049s6.79,4.908,5.77,12.049
		c-0.956,6.821-3.857,12.049-9.18,12.049S205.743,622.629,206.699,615.808z M209.568,615.712c-0.797,5.642,0.287,9.786,3.283,9.786
		c2.997,0,5.196-4.145,5.993-9.786c0.765-5.547-0.287-9.562-3.283-9.562C212.564,606.149,210.333,610.165,209.568,615.712z"/>
	<path fill="#FFFFFF" d="M235.833,604.236l-3.283,23.27h-2.646l2.869-20.4c-1.275,0.797-2.709,1.402-3.793,1.753l0.351-2.613
		c1.371-0.605,2.869-1.147,4.144-2.009H235.833z"/>
	<path fill="#FFFFFF" d="M250.463,603.759c3.984,0,6.152,2.518,5.61,6.343v0.096c-0.446,2.933-2.231,5.164-5.037,7.905l-7.108,7.013
		h10.105l-0.479,2.391h-12.75v-2.55l8.766-8.926c1.977-2.008,3.283-3.793,3.57-5.609l0.032-0.16
		c0.351-2.581-0.829-4.048-3.283-4.048c-1.817,0-3.666,0.574-5.068,1.913l-0.51-2.327
		C245.682,604.587,247.626,603.759,250.463,603.759z"/>
	<path fill="#FFFFFF" d="M265.89,616.254l0.319-2.295c3.315,0,6.534-0.415,7.044-4.08c0.351-2.582-0.861-3.729-3.443-3.729
		c-1.976,0-3.793,0.669-5.068,1.657l-0.51-2.263c1.466-1.084,3.475-1.785,6.502-1.785c3.22,0,5.993,2.04,5.451,5.77
		c-0.415,2.996-2.168,4.812-4.686,5.578c2.646,0.638,4.08,2.741,3.602,6.024c-0.605,4.144-4.048,6.726-8.288,6.726
		c-2.837,0-4.75-0.956-5.451-1.785l1.116-2.295c0.956,0.925,2.422,1.722,4.622,1.722c2.837,0,4.973-1.562,5.387-4.399
		C273.094,616.923,269.938,616.254,265.89,616.254z"/>
	<path fill="#FFFFFF" d="M294.609,621.736l-0.797,5.77h-2.55l0.829-5.77h-9.786l0.319-2.391l11.667-15.109h2.773l-2.136,15.237
		h2.646l-0.51,2.263H294.609z M285.174,619.474h7.236l1.657-11.73L285.174,619.474z"/>
	<path fill="#FFFFFF" d="M319.185,606.787h-8.893l-1.243,7.331c1.274-0.797,2.486-1.147,3.729-1.147
		c4.431,0,6.216,3.155,5.642,7.108c-0.669,4.653-4.08,7.777-9.021,7.777c-2.582,0-4.495-0.86-5.61-2.136l1.275-2.199
		c0.829,0.765,2.327,1.816,4.75,1.816c3.251,0,5.451-2.167,5.897-5.228c0.382-2.677-0.893-4.686-3.825-4.686
		c-1.371,0-2.614,0.446-3.666,1.53l-2.008-0.287l2.295-12.432h11.252L319.185,606.787z"/>
	<path fill="#FFFFFF" d="M340.509,620.525c-0.605,4.144-3.857,7.331-8.384,7.331c-4.717,0-6.948-3.475-6.343-7.682
		c0.51-3.507,1.881-5.706,5.355-9.627c1.466-1.689,5.705-6.216,5.705-6.216h3.442l-9.116,9.786c1.021-0.542,2.264-0.956,3.442-0.956
		C338.341,613.162,341.114,616.222,340.509,620.525z M332.381,625.498c2.996,0,4.94-2.264,5.322-4.941
		c0.415-2.868-0.956-5.036-3.92-5.036c-3.252,0-4.846,2.264-5.228,4.94C328.173,623.139,329.353,625.498,332.381,625.498z"/>
	<path fill="#FFFFFF" d="M359.251,606.627h-9.754l0.479-2.391h12.559l-0.287,2.104l-10.71,21.165h-2.646L359.251,606.627z"/>
	<path fill="#FFFFFF" d="M366.933,621.514c0.414-2.997,2.454-5.292,5.482-6.28c-2.422-0.956-3.761-2.772-3.347-5.609
		c0.542-3.762,3.666-5.865,7.555-5.865s6.375,2.104,5.833,5.865c-0.414,2.837-2.136,4.653-4.59,5.609
		c2.518,0.988,3.793,3.283,3.379,6.28c-0.574,4.144-4.08,6.343-8.001,6.343S366.359,625.657,366.933,621.514z M369.578,621.322
		c-0.351,2.613,1.371,4.176,3.984,4.176c2.614,0,4.75-1.562,5.101-4.176c0.351-2.582-1.307-4.112-3.825-4.75
		C372.16,617.21,369.929,618.74,369.578,621.322z M371.714,609.592c-0.351,2.486,0.893,3.984,3.442,4.622
		c2.741-0.638,4.335-2.136,4.686-4.622c0.319-2.231-1.402-3.442-3.538-3.442S372.033,607.36,371.714,609.592z"/>
</g>
<g enable-background="new    ">
	<path fill="#FFFFFF" d="M394.249,611.122c0.606-4.145,3.953-7.363,8.479-7.363c4.718,0,6.885,3.314,6.279,7.522
		c-0.446,3.092-1.657,5.132-4.398,8.383c-1.689,2.009-6.949,7.842-6.949,7.842h-3.283l9.244-10.232
		c-1.021,0.542-2.295,0.925-3.475,0.925C396.417,618.198,393.644,615.425,394.249,611.122z M402.474,606.149
		c-2.997,0-5.037,2.231-5.419,4.908c-0.415,2.869,1.02,4.813,3.984,4.813c3.251,0,4.813-2.199,5.195-4.877
		C406.617,608.316,405.502,606.149,402.474,606.149z"/>
</g>
</svg>
