<?xml version="1.0" encoding="utf-8"?>
<!-- Generator: Adobe Illustrator 17.1.0, SVG Export Plug-In . SVG Version: 6.00 Build 0)  -->
<!DOCTYPE svg PUBLIC "-//W3C//DTD SVG 1.1//EN" "http://www.w3.org/Graphics/SVG/1.1/DTD/svg11.dtd">
<svg version="1.1" id="Layer_1" xmlns="http://www.w3.org/2000/svg" xmlns:xlink="http://www.w3.org/1999/xlink" x="0px" y="0px" viewBox="0 90 612 612" style="enable-background:new 0 90 612 612;" xml:space="preserve">
<style type="text/css">
	.st0{fill:#DCDBC7;}
	.st1{enable-background:new    ;}
	.st2{fill:#231F20;}
	.st3{fill:#FFFFFF;}
	.st4{fill:#9F392A;}
</style>
<rect y="90" class="st0" width="612" height="612"/>
<g class="st1">
	<path class="st2" d="M74,194.5c0-17.4,10-29.1,27.3-29.1s27.2,11.8,27.2,29.1c0,16.4-9.3,28.7-27.2,28.7
		C83.4,223.2,74,210.9,74,194.5z M81.1,194.5c0,12.9,6.1,23,20.2,23c14.1,0,20.1-10.2,20.1-23c0-13.9-6.7-23.4-20.1-23.4
		S81.1,180.5,81.1,194.5z"/>
	<path class="st2" d="M170.3,181.4l-14.7,20.4l14.7,20.7h-6.8L151.9,206l-11.6,16.4h-7.2l15-20.7l-14.6-20.3h7.2l11.1,15.5
		l11.2-15.5L170.3,181.4L170.3,181.4z"/>
	<path class="st2" d="M177.8,181.4l12.9,33.3c3.2-9.8,10.8-33.3,10.8-33.3h6.7l-14.9,42.8c-3.4,9.9-7.3,17-18.9,17h-1.9l-0.8-5.7
		h1.1c8.8,0,10.1-1.3,14.4-13.9l-15.9-40.2L177.8,181.4L177.8,181.4z"/>
	<path class="st2" d="M220.1,235.5h7.7c12.9,0,14.3-5.9,14.3-16.2v-3.6c-2.7,3.9-6.2,6.7-12.6,6.7c-12.1,0-17.6-10.9-17.6-20.4
		c0-11.6,5.6-21.7,18.1-21.7c5.4,0,9.3,2.3,12.4,6.5v-5.5h6v38c0,10.6-1.6,21.7-20.7,21.7H221L220.1,235.5z M242.3,203.1V200
		c0-7.8-3.4-14.3-11.9-14.3c-8.8,0-12.2,8.8-12.2,15.9c0,7,3.7,15.4,12.1,15.4C239.2,217,242.3,210.4,242.3,203.1z"/>
	<path class="st2" d="M274.1,223.3c-11.7,0-18.8-8.3-18.8-21.5c0-12.2,7.3-21.1,18.1-21.4c10.2,0,16.5,7.7,16.5,19.8
		c0,0.6-0.1,2.1-0.1,2.8h-28.1c0,9.3,5.4,14.9,12.6,14.9c5.8,0,10.1-2.1,13-4.1l1.9,4.6C285.9,221.3,280.7,223.3,274.1,223.3z
		 M261.9,198.7h21.9c0-8.7-4.4-13.2-10.5-13.2C267.1,185.5,262.6,190.6,261.9,198.7z"/>
	<path class="st2" d="M330.5,197.8v24.6h-6.3v-20.6c0-10.6-0.5-16.1-8-16.1c-6.9,0-11.8,5-12.8,8.6v28h-6.3v-31.1l-0.2-9.9h5.4
		l0.5,6c3.2-4.4,9-7,14.6-7C326.6,180.4,330.5,186.3,330.5,197.8z"/>
</g>
<g class="st1">
	<path class="st2" d="M98.2,289.1H82.1L77.2,302h-4.9l15.1-40.6h5.8l14.3,40.6h-4.9L98.2,289.1z M96.6,285.4l-6.2-19.4l-6.8,19.4
		H96.6z"/>
	<path class="st2" d="M119.1,302.7c-4.9,0-9.1-2.6-9.1-8.1c0-7.8,7.6-8.9,15.2-10l3-0.3v-3.4c0-3.6-1.8-5.5-5.9-5.5
		c-3.3,0-6.8,0.8-9.3,2l-1.3-3.6c2.3-1.2,6.2-2.3,10.5-2.3c5.9,0,10.5,1.9,10.5,8.6V302h-3.7l-0.7-3.3
		C125.8,301.7,122.2,302.7,119.1,302.7z M128.3,294.7v-7.3c0,0-2.7,0.4-2.7,0.4c-8.5,1.1-11,2.4-11,6.6c0,3.3,2.1,4.7,5,4.7
		C122.4,299.1,126.3,297.4,128.3,294.7z"/>
	<path class="st2" d="M162.2,281.7c0-12.6,7.3-21.2,19.9-21.2s19.8,8.6,19.8,21.2c0,11.9-6.8,20.9-19.8,20.9
		C169.1,302.6,162.2,293.6,162.2,281.7z M167.4,281.7c0,9.3,4.5,16.7,14.7,16.7c10.2,0,14.6-7.4,14.6-16.7c0-10.1-4.8-17-14.6-17
		S167.4,271.5,167.4,281.7z M185.1,302.4c0.1,0,3.5-1.8,4.6-1.2c1.8,4,6.6,9.5,7.5,10.2l-3.2,3.2
		C192.9,313.7,187.5,307.2,185.1,302.4z"/>
	<path class="st2" d="M219.2,302.7c-8.3,0-12.5-7.3-12.5-15.3c0-8.6,4.1-15.9,12.9-15.9c4.2,0,7.2,2.1,9.1,5.1v-4.3h4.5v41.7
		l-4.6,0.6v-17.1C226.6,300.7,223.4,302.7,219.2,302.7z M228.7,287c0-6.3-2.7-11.6-9-11.6c-6.4,0-8.3,6.2-8.3,11.6
		c0,5.6,2,11.6,8.4,11.6C226.1,298.7,228.7,293.4,228.7,287z"/>
	<path class="st2" d="M289,302l-5.5-12.6c-1.1-2.4-2.1-4.7-2.9-6.1c-0.8,0.1-3.7,0.1-4.7,0.1c-0.5,0-7.2-0.2-7.2-0.2V302h-4.8v-40.6
		h12.9c9.7,0,15.8,1.4,15.8,10.6c0,5-2.4,9-7.7,10.3c-0.1,0,2.1,3.4,3,5.5l6.6,14.2H289z M268.7,279.1l9.7,0.1
		c7.3,0.1,9.5-2.3,9.5-7.2c0-4.2-2.1-6.5-8.3-6.5h-10.8V279.1z"/>
	<path class="st2" d="M299.5,302v-23c0-2.3-0.1-4.6-0.1-6.8h3.8l0.3,5.2c2.1-3.8,5.2-5.2,8.7-5.2h0.8l0.3,4.2h-1.1
		c-5.6,0-8.3,3.7-8.3,8.2V302L299.5,302L299.5,302z"/>
</g>
<g class="st1">
	<path class="st3" d="M405.8,371.4c-18.2,0-33.7-9.5-33.7-30.2c0-29.2,28.1-33.1,56.7-37.2l11.2-1.2v-12.6
		c0-13.4-6.6-20.5-21.9-20.5c-12.2,0-25.4,3.1-34.5,7.4l-4.8-13.2c8.5-4.6,23.2-8.5,38.9-8.5c21.9,0,39.1,7.2,39.1,32.1v81.5h-13.9
		l-2.5-12.2C430.6,367.6,417.3,371.4,405.8,371.4z M439.9,341.8v-27.3c0,0-9.9,1.4-10.1,1.4c-31.4,4.1-40.8,9.1-40.8,24.6
		c0,12.4,7.9,17.6,18.4,17.6C418,358.1,432.7,351.7,439.9,341.8z"/>
</g>
<g class="st1">
	<path class="st2" d="M94.6,356.2H82.9l-4.3,12.1h-8l1.1-3.3L85,329h7.6l12.9,36l1.1,3.3h-7.7L94.6,356.2z M92.7,351.3L88.8,338
		l-4.1,13.3H92.7z"/>
	<path class="st2" d="M117.2,368.8c-5.4,0-9.1-3.2-9.1-8.3c0-7.3,5.1-8.5,14.7-9.9l2.1-0.3V349c0-3.4-0.3-4.8-4.2-5h-0.4
		c-2.8,0-7.7,1.6-9,2l-1.5-5.5c2.7-1.2,6.3-2.1,11.1-2.2h0.7c6.7,0,11,3.1,11,9.4v20.6h-5.9l-0.8-3.1
		C123.3,367.3,120.9,368.8,117.2,368.8z M124.8,361.5v-6.8l-2.1,0.3c-4.3,0.6-7.8,1.3-7.8,5.3c0,2.1,1.2,3.6,3.6,3.6
		C121.2,363.9,122.7,362.9,124.8,361.5z"/>
	<path class="st2" d="M181,328.1c11.3,0,19.8,7.5,19.8,20.4c0,12.8-8.5,20.3-19.8,20.3s-19.7-7.5-19.7-20.3
		C161.3,335.6,169.8,328.1,181,328.1z M181.1,334.5c-7.7,0-11.5,5.8-11.5,14.1s3.8,13.9,11.5,13.9c7.7,0,11.6-5.6,11.6-13.9
		S188.9,334.5,181.1,334.5z M197.7,377l-4.1,4.1c-3.8-2.7-7.9-8.4-10.1-12.4l4.7-3.1C190.1,368.9,192.4,372.2,197.7,377z"/>
	<path class="st2" d="M233.6,339.4v39.2l-7.7,0.8v-15.2c-1.8,2.9-4,4.6-8.7,4.6c-8.4-0.1-12.8-7.2-12.8-15.4
		c0-7.5,4.2-15.1,13.1-15.1c3.8,0,6.8,1.3,8.6,5l0.6-3.8L233.6,339.4L233.6,339.4z M226,353.7c0-7.3-3.6-9.7-7-9.7
		c-3.4,0-7.2,1.9-7.2,9.7c0,7.3,3.7,9.5,7.2,9.5C222.6,363.2,226,361.1,226,353.7z"/>
	<path class="st2" d="M286.9,350.6c1.7,1.9,2.6,3.8,3.8,6.3l5.6,11.3h-8.5l-4.3-9.3c-1-2.1-3.4-6.8-3.4-6.8
		c-1.2-0.1-8.1-0.1-8.1-0.1v16.2h-8.1V329h15.1c9.2,0,15,2.1,15,11.2C293.9,345.7,291.4,348.9,286.9,350.6z M279.3,334.9h-7.4v11.4
		h7.2c5.1,0,7.2-1.7,7.2-6C286.4,336.5,283.9,334.9,279.3,334.9z"/>
	<path class="st2" d="M314.4,339.4l0.4,5.8h-2.1c-5.5,0-6.5,2.8-6.5,7.1v15.9h-7.7v-28.9h7.1l0.6,4c1.8-2.6,3.7-4,7.3-4L314.4,339.4
		L314.4,339.4z"/>
</g>
<g class="st1">
	<path class="st4" d="M173.8,408.1h5.9l-17.2,47h-6l-17.2-47h6l14.2,40.8C159.4,448.9,168.7,422,173.8,408.1z"/>
	<path class="st4" d="M197.5,455.8c-9.8,0-15.8-7-15.8-18.1c0-10.3,6.2-17.8,15.2-18c8.6,0,13.9,6.5,13.9,16.7
		c0,0.5-0.1,1.8-0.1,2.4h-23.6c0,7.8,4.6,12.5,10.6,12.5c4.9,0,8.5-1.8,10.9-3.5l1.6,3.9C207.4,454.1,203,455.8,197.5,455.8z
		 M187.3,435.1h18.4c0-7.3-3.7-11.1-8.8-11.1C191.6,424,187.8,428.3,187.3,435.1z"/>
	<path class="st4" d="M217.1,455v-26.6c0-2.7-0.1-5.3-0.1-7.9h4.4l0.4,6c2.4-4.4,6-6,10.1-6h1l0.4,4.8H232c-6.4,0-9.6,4.3-9.6,9.5
		V455H217.1z"/>
	<path class="st4" d="M253.5,455.8c-4.6,0-8.7-2.2-10.8-5.9v5.1h-5.2v-46.8l5.3-0.6v18.2c2.7-4.4,7.1-6.1,10.9-6.1
		c9.6,0,14.5,8.5,14.5,17.7C268.1,447.4,263.3,455.8,253.5,455.8z M253.1,451.5c7.4,0,9.6-7.5,9.6-13.8c0-6.2-2.1-13.6-9.5-13.6
		c-6,0.1-10.5,5.5-10.5,13.6C242.7,445.2,245.9,451.5,253.1,451.5z"/>
	<path class="st4" d="M280.8,414.2h-5.3v-6.2h5.3V414.2z M280.8,455h-5.3v-34.5h5.3V455z"/>
	<path class="st4" d="M316.7,434.4V455h-5.3v-17.3c0-8.9-0.4-13.5-6.8-13.5c-5.8,0-9.9,4.2-10.7,7.3V455h-5.3v-26.1l-0.1-8.4h4.6
		l0.5,5.1c2.7-3.7,7.5-5.9,12.3-5.9C313.4,419.7,316.7,424.7,316.7,434.4z"/>
	<path class="st4" d="M337.1,455.8c-9.3,0-14.7-7.7-14.7-18.4c0-9.8,5.8-17.7,14.5-17.7c4.6,0,9.1,2.2,10.9,5.9v-17.4l5.3-0.6V455
		h-4.7l-0.6-5.4C345.7,453.1,341.9,455.8,337.1,455.8z M337.4,451.1c7.1,0,10.4-6,10.4-13.4s-3.1-13.4-10.4-13.4
		c-7,0-9.6,6.9-9.6,13.2C327.8,444.3,330.3,451.1,337.4,451.1z"/>
	<path class="st4" d="M360.1,420.5h5.3v23c0,6.2,3.7,7.9,8.6,7.9c4.9,0,8.5-1.8,8.5-7.9v-23h5.3v23c0,9.1-6.5,12.3-13.8,12.3
		s-13.9-3.3-13.9-12.3L360.1,420.5L360.1,420.5z"/>
	<path class="st4" d="M422.8,434.4V455h-5.3v-17.3c0-8.9-0.4-13.5-6.8-13.5c-5.8,0-9.9,4.2-10.7,7.3V455h-5.3v-26.1l-0.1-8.4h4.6
		l0.5,5.1c2.7-3.7,7.5-5.9,12.3-5.9C419.6,419.7,422.8,424.7,422.8,434.4z"/>
	<path class="st4" d="M435.5,466h6.4c10.8,0,12-5,12-13.6v-3c-2.3,3.3-5.2,5.7-10.6,5.7c-10.2,0-14.8-9.2-14.8-17.1
		c0-9.8,4.7-18.2,15.2-18.2c4.6,0,7.8,1.9,10.4,5.5v-4.6h5.1v32c0,8.9-1.4,18.3-17.4,18.3h-5.6L435.5,466z M454.2,438.8v-2.6
		c0-6.6-2.8-12-10-12c-7.4,0-10.2,7.4-10.2,13.4c0,5.9,3.1,12.9,10.2,12.9C451.5,450.5,454.2,445,454.2,438.8z"/>
</g>
<g class="st1">
	<path class="st2" d="M163,521.2c-3.4,0-6.2-1.8-6.2-5.6c0-5.4,5.2-6.1,10.5-6.9l2.1-0.2v-2.3c0-2.5-1.2-3.8-4.1-3.8
		c-2.3,0-4.7,0.6-6.4,1.4l-0.9-2.4c1.6-0.8,4.3-1.6,7.2-1.6c4.1,0,7.2,1.3,7.2,5.9v15.1h-2.6l-0.5-2.3
		C167.6,520.5,165.1,521.2,163,521.2z M169.3,515.7v-5c0,0-1.8,0.3-1.9,0.3c-5.8,0.8-7.5,1.7-7.5,4.6c0,2.3,1.5,3.3,3.4,3.3
		C165.3,518.7,168,517.5,169.3,515.7z"/>
	<path class="st2" d="M188.5,521.2c-2.8,0-5.2-1.3-6.4-3.5v3.1H179v-27.8l3.1-0.3v10.8c1.6-2.6,4.2-3.6,6.5-3.6
		c5.7,0,8.6,5,8.6,10.5C197.2,516.1,194.3,521.2,188.5,521.2z M188.3,518.6c4.4,0,5.7-4.4,5.7-8.2c0-3.7-1.3-8.1-5.6-8.1
		c-3.6,0-6.3,3.3-6.3,8.1C182.1,514.8,184,518.6,188.3,518.6z"/>
</g>
<g class="st1">
	<path class="st2" d="M221,519.3c-1.3,1.3-3.5,1.9-5.5,1.9c-6.4,0-9.9-5-9.9-10.7c0-5.7,3.7-10.7,9.8-10.7c2.4,0,4.4,0.7,5.6,1.8
		l-0.8,2.2c-1.6-1-3.3-1.4-4.8-1.4c-3.7,0-6.6,3.5-6.6,8.2c0,4.7,2.8,8.1,6.8,8.1c1.8,0,3.5-0.7,4.6-1.5L221,519.3z"/>
</g>
<g class="st1">
	<path class="st2" d="M235.9,521.2c-5.5,0-8.8-4.6-8.8-10.9c0-5.8,3.4-10.5,8.6-10.5c2.7,0,5.4,1.3,6.5,3.5v-10.3l3.1-0.3v28.2h-2.8
		l-0.4-3.2C241,519.6,238.7,521.2,235.9,521.2z M236.1,518.4c4.2,0,6.2-3.6,6.2-8s-1.8-8-6.2-8c-4.2,0-5.7,4.1-5.7,7.8
		C230.4,514.4,231.9,518.4,236.1,518.4z"/>
	<path class="st2" d="M260.5,521.2c-5.9,0-9.4-4.2-9.4-10.7c0-6.1,3.7-10.6,9-10.7c5.1,0,8.3,3.9,8.3,9.9c0,0.3,0,1.1,0,1.4h-14
		c0,4.6,2.7,7.5,6.3,7.5c2.9,0,5-1.1,6.5-2.1l1,2.3C266.4,520.2,263.8,521.2,260.5,521.2z M254.5,508.8h10.9c0-4.4-2.2-6.6-5.2-6.6
		C257.1,502.3,254.8,504.8,254.5,508.8z"/>
</g>
<g class="st1">
	<path class="st2" d="M276.1,500.2h3v-0.6c0.1-6.1,1.7-7.6,6.7-7.6h1.4l0.4,2.4h-1.8c-3.3,0-3.5,1.3-3.5,5.2v0.6h4.6v2.2h-4.6v18.3
		h-3.1v-18.3h-3L276.1,500.2L276.1,500.2z"/>
</g>
<g class="st1">
	<path class="st2" d="M296.8,527.2h3.8c6.4,0,7.2-2.9,7.2-8.1v-1.8c-1.3,2-3.1,3.4-6.3,3.4c-6,0-8.8-5.5-8.8-10.2
		c0-5.8,2.8-10.8,9-10.8c2.7,0,4.6,1.1,6.2,3.3v-2.8h3v19c0,5.3-0.8,10.9-10.4,10.9h-3.3L296.8,527.2z M307.9,511.1v-1.5
		c0-3.9-1.7-7.2-5.9-7.2c-4.4,0-6.1,4.4-6.1,8c0,3.5,1.8,7.7,6,7.7C306.3,518,307.9,514.7,307.9,511.1z"/>
	<path class="st2" d="M320.3,520.7h-3.1v-27.8l3.1-0.3V503c1.7-2.1,4.2-3.3,7.3-3.3c4.3,0,6.2,3.2,6.2,8.6v12.4h-3.1v-11.5
		c0-4.6-0.6-6.8-4.1-6.8c-3.2,0-5.8,2.4-6.3,4.4L320.3,520.7L320.3,520.7z"/>
	<path class="st2" d="M343.9,496.4h-3.1v-3.7h3.1V496.4z M343.9,520.7h-3.1v-20.5h3.1V520.7z"/>
	<path class="st2" d="M354.8,523.3c0,5-1.1,6.8-6.2,6.8h-1l-0.4-2.8h1c3.4,0,3.5-1.2,3.5-4.3v-22.8h3.1V523.3z M354.8,496.4h-3.1
		v-3.7h3.1V496.4z"/>
</g>
<g class="st1">
	<path class="st2" d="M371,492.5v16.4l9.1-8.7h4.2l-8.8,8.5l9.4,12h-4l-7.7-10.5l-2.2,1.9v8.6h-3.1v-27.8L371,492.5z"/>
</g>
<g class="st1">
	<path class="st2" d="M394.1,512.7c0,4.5,0.1,5.9,2.3,5.9c0.5,0,0.7,0,1.7-0.1l0.2,2.4c-1.1,0.2-1.8,0.2-2.1,0.2
		c-5,0-5.2-2.3-5.2-9.1v-19.1l3.1-0.3L394.1,512.7L394.1,512.7z"/>
</g>
<g class="st1">
	<path class="st2" d="M404.5,520.7v-15.3c0-1.7-0.1-4.6-0.1-5.2h2.7l0.3,3.1c1.8-2.4,4.3-3.6,6.9-3.6c2.9,0,4.8,1,5.8,3.8
		c1.8-2.8,4.2-3.8,7.1-3.8c4.6,0,6.3,3.2,6.3,8v13h-3.1V510c0-4.6-0.2-7.6-3.7-7.6c-2.6,0-4.8,1.9-5.8,4.6v13.7h-3.1v-11.4
		c0-4.2-0.7-6.9-3.8-6.9c-3.2,0-5.6,2.2-6.3,4.3v14H404.5z"/>
</g>
<g class="st1">
	<path class="st2" d="M174,554.3v12.3h-3.1v-10.3c0-5.3-0.2-8-4-8c-3.4,0-5.9,2.5-6.4,4.3v14h-3.1v-15.5l-0.1-5h2.7l0.3,3
		c1.6-2.2,4.5-3.5,7.3-3.5C172,545.6,174,548.6,174,554.3z"/>
	<path class="st2" d="M189.1,567.1c-6.2,0-9.6-4.8-9.6-10.7c0-5.9,3.5-10.8,9.7-10.8c6.3,0,9.4,4.9,9.4,10.7
		C198.6,562,195.3,567.1,189.1,567.1z M189.1,548.2c-4.4,0-6.4,4.1-6.4,8.2c0,4.1,2,8.1,6.5,8.1c4.4,0,6.2-3.9,6.2-8.1
		C195.3,552,193.7,548.2,189.1,548.2z"/>
	<path class="st2" d="M204.4,546.1h2.9l0.2,2.8c1.6-2.1,3.6-3.3,6.4-3.3c6,0,8.6,5,8.6,11c0,5.5-3.2,10.5-8.6,10.5
		c-2.6,0-4.9-1.1-6.4-3.4v11.1l-3.1,0.4L204.4,546.1L204.4,546.1z M213.4,564.4c4.3,0,5.9-4.3,5.9-8s-1.6-8.1-5.9-8.1
		c-4.3,0-5.9,3.6-5.9,8.1C207.5,560.7,209.1,564.4,213.4,564.4z"/>
	<path class="st2" d="M236,567.1c-5.7,0-8.6-5-8.6-10.5c0-5.9,2.8-10.9,8.8-10.9c2.9,0,4.9,1.4,6.3,3.5v-3h3.1v28.7l-3.1,0.4v-11.7
		C241.2,565.7,238.9,567.1,236,567.1z M242.5,556.3c0-4.3-1.8-8-6.2-8c-4.4,0-5.7,4.3-5.7,8c0,3.8,1.4,8,5.8,8
		C240.8,564.3,242.5,560.7,242.5,556.3z"/>
	<path class="st2" d="M252.2,566.6v-15.8c0-1.6,0-3.1,0-4.7h2.6l0.2,3.6c1.5-2.6,3.6-3.6,6-3.6h0.6l0.2,2.9h-0.8
		c-3.8,0-5.7,2.6-5.7,5.6v12H252.2z"/>
</g>
<g class="st1">
	<path class="st2" d="M288.6,561.1c-0.1,3.9-2.9,6-6.8,6c-3.1,0-5.9-1-7.1-1.9l0.8-2.4c0.8,0.5,3,1.7,5.8,1.7h0.3
		c2.3,0,3.8-1.1,4-3.3V561c0-1.3-0.8-2.5-3.1-3.2l-2.7-0.8c-4.1-1.1-5.3-3.2-5.3-5.7c0-2.9,2.3-5.7,6.8-5.8c2.6,0,4.6,0.5,6.2,1.3
		l-0.7,2.3c-1.1-0.5-3-1.1-5.2-1.1s-3.9,1.2-3.9,3.3c0,1.3,0.7,2.3,2.9,2.8l2.8,0.8C286.8,555.9,288.6,557.6,288.6,561.1
		L288.6,561.1L288.6,561.1z"/>
	<path class="st2" d="M298.9,559.8c0,3.8,0.5,4.6,2.9,4.6c0.3,0,1.1-0.1,2.6-0.2l0.3,2.5c-2.3,0.2-2.9,0.3-3.6,0.3
		c-5,0-5.4-2.4-5.4-8.7v-10h-3.1l0.3-2.2h2.9l0.8-6.6l2.3-0.2v6.8h5.4v2.2h-5.4V559.8z"/>
</g>
<g class="st1">
	<path class="st2" d="M312.7,546.1h3.1v13.7c0,3.7,2.2,4.7,5.1,4.7c2.9,0,5-1.1,5-4.7v-13.7h3.1v13.7c0,5.4-3.9,7.3-8.2,7.3
		c-4.3,0-8.3-2-8.3-7.3L312.7,546.1L312.7,546.1z"/>
</g>
<g class="st1">
	<path class="st2" d="M335,546.1h3.3l6.5,17.1l6.1-17.1h3.3l-8,20.5H343L335,546.1z"/>
</g>
<g class="st1">
	<path class="st2" d="M361.6,546.1l4.6,16.3l5.4-16.3h3.7l5.2,16.3l4.4-16.3h3.2l-6.1,20.5h-3.1l-5.5-17.3l-5.7,17.3h-3.2l-6.1-20.5
		H361.6z"/>
</g>
<g class="st1">
	<path class="st2" d="M411.1,546.1l-7.3,10.2l7.3,10.3h-3.4l-5.8-8.2l-5.8,8.2h-3.6l7.5-10.4l-7.3-10.1h3.6l5.5,7.8l5.6-7.8H411.1z"
		/>
	<path class="st2" d="M417,546.1l6.5,16.6c1.6-4.9,5.4-16.6,5.4-16.6h3.3l-7.5,21.4c-1.7,5-3.6,8.5-9.4,8.5h-1l-0.4-2.8h0.5
		c4.4,0,5-0.7,7.2-7l-8-20.1H417z"/>
</g>
<g class="st1">
	<path class="st2" d="M439.7,564l9.8-15.4h-9.9v-2.5h13.5v2.5l-9.9,15.5h10.3v2.5h-13.8L439.7,564L439.7,564z"/>
</g>
<g class="st1">
	<path class="st3" d="M203,612.6c0-7.1,2.6-12,8-12c5.4,0,7.9,4.9,7.9,12c0,6.8-2.3,12-7.9,12S203,619.4,203,612.6z M206,612.5
		c0,5.6,1.8,9.8,5,9.8c3.3,0,5-4.1,5-9.8c0-5.5-1.7-9.6-5-9.6C207.7,603,206,607,206,612.5z"/>
	<path class="st3" d="M232.3,601v23.3h-2.8v-20.4c-1.2,0.8-2.3,1.4-3.4,1.8l-0.6-2.3c1.4-0.6,3-1.5,4.2-2.4L232.3,601L232.3,601z"/>
	<path class="st3" d="M247.9,600.6c4.2,0,6.9,2.5,6.9,6.3v0.1c0,2.9-1.6,5.2-4.1,7.9l-6.6,7h10.8l-0.2,2.4h-13.6l-0.4-2.5l8-8.9
		c1.8-2,3-3.8,3-5.6v-0.2c0-2.6-1.5-4-4.1-4c-1.9,0-3.9,0.6-5.2,1.9l-0.9-2.3C242.9,601.4,244.9,600.6,247.9,600.6z"/>
	<path class="st3" d="M266,613.1v-2.3c3.6,0,6.9-0.4,6.9-4.1c0-2.6-1.5-3.7-4.3-3.7c-2.1,0-4,0.7-5.2,1.7l-0.9-2.3
		c1.4-1.1,3.5-1.8,6.7-1.8c3.4,0,6.7,2,6.7,5.8c0,3-1.6,4.8-4.1,5.6c2.8,0.6,4.7,2.7,4.7,6c0,4.1-3.3,6.7-7.8,6.7
		c-3,0-5.2-1-6.1-1.8l0.9-2.3c1.2,0.9,2.8,1.7,5.2,1.7c3.1,0,5.1-1.6,5.1-4.4C273.8,613.7,270.3,613.1,266,613.1z"/>
	<path class="st3" d="M297.2,618.5v5.8h-2.6v-5.8H284v-2.4l10.2-15.1h2.9v15.2h2.9l-0.2,2.3H297.2z M286.8,616.3h7.8v-11.7
		L286.8,616.3z"/>
	<path class="st3" d="M320.8,603.6h-9.5c-0.1,2.3-0.2,5.1-0.2,7.3c1.2-0.8,2.5-1.1,3.8-1.1c4.7,0,7.1,3.2,7.1,7.1
		c0,4.7-3.2,7.8-8.4,7.8c-2.7,0-4.9-0.9-6.2-2.1l1-2.2c1,0.8,2.7,1.8,5.3,1.8c3.4,0,5.5-2.2,5.5-5.2c0-2.7-1.6-4.7-4.8-4.7
		c-1.5,0-2.7,0.4-3.7,1.5l-2.2-0.3l0.6-12.4H321L320.8,603.6z"/>
	<path class="st3" d="M345.2,617.3c0,4.1-3.1,7.3-7.8,7.3c-5,0-7.8-3.5-7.8-7.7c0-3.5,1.2-5.7,4.3-9.6c1.3-1.7,5.1-6.2,5.1-6.2h3.6
		l-8.2,9.8c1-0.5,2.3-1,3.5-1C341.8,610,345.2,613,345.2,617.3z M337.3,622.3c3.2,0,4.9-2.3,4.9-4.9c0-2.9-1.8-5-4.9-5
		c-3.4,0-4.8,2.3-4.8,4.9C332.5,620,334.1,622.3,337.3,622.3z"/>
	<path class="st3" d="M362.9,603.4h-10.5l0.2-2.4h13.5v2.1l-8.4,21.2h-2.8L362.9,603.4z"/>
	<path class="st3" d="M373,618.3c0-3,1.8-5.3,4.8-6.3c-2.7-1-4.3-2.8-4.3-5.6c0-3.8,3-5.9,7.1-5.9c4.1,0,7,2.1,7,5.9
		c0,2.8-1.5,4.7-4,5.6c2.8,1,4.5,3.3,4.5,6.3c0,4.1-3.4,6.3-7.6,6.3C376.5,624.7,373,622.5,373,618.3z M375.8,618.1
		c0,2.6,2.1,4.2,4.9,4.2s4.8-1.6,4.8-4.2c0-2.6-2-4.1-4.8-4.8C377.9,614,375.8,615.6,375.8,618.1z M376.3,606.4c0,2.5,1.5,4,4.3,4.6
		c2.8-0.6,4.3-2.1,4.3-4.6c0-2.2-2-3.5-4.3-3.5S376.3,604.2,376.3,606.4z"/>
</g>
<g class="st1">
	<path class="st3" d="M400,607.9c0-4.1,3.1-7.4,7.9-7.4c5,0,7.7,3.3,7.7,7.5c0,3.1-1,5.1-3.4,8.4c-1.5,2-6.3,7.8-6.3,7.8h-3.4
		l8.3-10.2c-1,0.5-2.3,0.9-3.5,0.9C403.4,615,400,612.2,400,607.9z M408,603c-3.2,0-5,2.2-5,4.9c0,2.9,1.8,4.8,4.9,4.8
		c3.4,0,4.8-2.2,4.8-4.9S411.2,603,408,603z"/>
</g>
</svg>
