<?xml version="1.0" encoding="utf-8"?>
<!-- Generator: Adobe Illustrator 16.0.0, SVG Export Plug-In . SVG Version: 6.00 Build 0)  -->
<!DOCTYPE svg PUBLIC "-//W3C//DTD SVG 1.1//EN" "http://www.w3.org/Graphics/SVG/1.1/DTD/svg11.dtd">
<svg version="1.1" id="Layer_1" xmlns="http://www.w3.org/2000/svg" xmlns:xlink="http://www.w3.org/1999/xlink" x="0px" y="0px" viewBox="0 0 403.7 539.3" style="enable-background:new 0 0 403.7 539.3;" xml:space="preserve"
	>
<g>
	<g>
		<path d="M203,0c4.6,0.1,8.1,9.2,8,15.9c-0.1,6.7-3.8,15.7-8.4,15.7c-4.5-0.1-8.1-9.2-8-15.9C194.8,9,198.5-0.1,203,0z"/>
	</g>
</g>
<g>
	<g>
		<path d="M250.1,52.8c0,0-31,5.2-18.7,26.7c10.8,18.8,79.9-4,46.6-37.8C236.8,7.7,175,67.9,209.2,108.3c28.5,35,84.5-0.5,94-17.9
			c16.6-30.3-72.5,22.5,11.6,44.9c-1.1-0.7-0.4-1.1,1.4-1c-75.2-22.3-2.2-66.8-14.1-45.3c-10.1,18.3-64,50.8-90.5,13.8
			c-26.5-36.9,31.1-83.7,59.6-58.6c27.5,30.2-27.2,48.8-37.2,33C225.4,57.4,250.1,52.8,250.1,52.8L250.1,52.8z"/>
		<path d="M323.3,139l-8.8-2.3c-20.4-5.4-32.6-13.1-36.4-22.8c-12.5,6.9-25.5,10.7-36.9,10.7c-13.6,0-24.7-5.2-33.1-15.4
			C197,96,194.8,79.1,202.3,62.9c8.9-19.2,28.9-32.6,48.6-32.6c10.1,0,19.8,3.6,28,10.4c11,11.2,10.4,20.4,8,26.2
			c-5.4,12.9-24.5,20.8-39.1,20.8l0,0c-8.6,0-14.8-2.6-17.6-7.5c-3.3-5.7-4-10.9-2-15.4c3.6-8.3,15-11.8,19.7-12.9
			c1.1-0.3,1.9-0.4,1.9-0.4l1.6-0.3l0,2.8l-1.2,0.3c0,0-0.6,0.1-1.7,0.3c-3.3,0.9-11.1,3.7-14,9.8c-1.7,3.5-1.5,7.7,0.6,12.5
			c2,3.1,6.5,4.9,12.7,4.9c10.6,0,24.1-5.7,28.2-15.1c2.9-6.5,0.8-13.9-6-21.4c-5-4.4-11.2-6.6-18.3-6.6
			c-15.9,0-33.3,11.4-41.4,27.1c-6.4,12.5-5.6,25.4,2.2,36.4c7.8,10.8,18.5,16.3,31.8,16.3c10,0,21.4-3.3,32.3-9.2
			c-0.8-7.4,3-13.7,6.5-17.8c5.4-6.4,13.7-11.5,18.8-11.5c2.3,0,3.5,1.1,4,1.9c1.2,2,0.6,5-1.7,9.2c-3.2,5.9-11.1,13.2-20.8,19.4
			c2.5,9.1,13.9,16.8,33,22.5l11.4,3.4l-9.8-0.6L323.3,139z M280.5,112.5c1.3,3.6,4.1,7,8.3,10.1c-3.8-3.2-6.3-6.8-7.5-10.6
			l-0.1,0.1l0,0C281,112.2,280.7,112.4,280.5,112.5z M250.9,33.1c-18.7,0-37.6,12.8-46.1,31c-7,15.1-5,30.9,5.5,43.3
			c7.8,9.5,18.2,14.4,30.9,14.4c3.8,0,7.7-0.4,11.8-1.3c-18,2.8-32.6-3-42.5-16.8c-8.5-11.8-9.4-25.8-2.5-39.2
			c8.5-16.6,26.9-28.6,43.8-28.6c7.7,0,14.7,2.6,20.3,7.4c9.7,10.7,9,19.2,6.6,24.4c-4.6,10.5-19.3,16.8-30.8,16.8
			c-7.1,0-12.5-2.3-15.1-6.4c-2.4-5.4-2.7-10.1-1-14.2c-0.4,0.6-0.8,1.3-1.1,2c-1.6,3.7-1,8.1,1.9,13c2.2,3.9,7.6,6.1,15.2,6.1h0
			c13.8,0,31.8-7.7,36.6-19.1c3-7.3,0.6-15.1-7.3-23.1C269.4,36.3,260.6,33.1,250.9,33.1z M283.6,95.7c-2.2,3.3-4.2,7.4-4,12
			c0.3-0.2,0.6-0.3,0.8-0.5C280.3,103.4,281.4,99.5,283.6,95.7z M301.5,84.7c-2.4,0-7.6,2.9-11.9,7.6c-2.3,2.5-6,7.4-6.4,13.2
			c8.1-5.4,14.8-11.8,17.7-17c1.3-2.3,1.2-3.4,1.1-3.6C302.1,84.8,301.9,84.7,301.5,84.7z"/>
	</g>
</g>
<g>
	<g>
		<path d="M154,52.8c0,0,31,5.2,18.7,26.7c-10.8,18.8-79.9-4-46.6-37.8c41.3-34.1,103.1,26.2,68.9,66.6c-28.5,35-84.5-0.5-94-17.9
			c-16.6-30.3,72.5,22.5-11.6,44.9c1.1-0.7,0.4-1.1-1.4-1c75.2-22.3,2.2-66.8,14.1-45.3c10.1,18.3,64,50.8,90.5,13.8
			c26.5-36.9-31.1-83.7-59.6-58.6c-27.5,30.2,27.2,48.8,37.2,33C178.8,57.4,154,52.8,154,52.8L154,52.8z"/>
		<path d="M80.7,139.1l5.2-3.2l-9.8,0.6l11.4-3.4c19.1-5.7,30.5-13.4,33-22.5c-9.6-6.2-17.6-13.5-20.8-19.4
			c-2.3-4.2-2.9-7.3-1.7-9.2c0.5-0.9,1.6-1.9,4-1.9c5.1,0,13.3,5,18.8,11.5c3.5,4.1,7.3,10.5,6.5,17.8c10.9,5.9,22.3,9.2,32.3,9.2
			c13.3,0,24-5.5,31.8-16.3c7.9-11,8.7-23.9,2.2-36.4c-8.1-15.7-25.5-27.1-41.4-27.1c-7.1,0-13.3,2.3-18.4,6.8
			c-6.7,7.4-8.8,14.8-5.9,21.2c4.2,9.5,17.6,15.1,28.2,15.1c6.2,0,10.7-1.8,12.8-5.1c2-4.6,2.2-8.8,0.5-12.3
			c-2.9-6.1-10.7-8.8-14-9.8c-1-0.2-1.6-0.3-1.7-0.3l-1.1-0.2v-2.8l1.6,0.2c0,0,0.7,0.1,1.9,0.4c4.8,1.1,16.2,4.6,19.7,12.9
			c2,4.5,1.3,9.7-2,15.4c-2.8,4.8-9,7.5-17.6,7.5c-14.6,0-33.8-8-39.1-20.8c-2.4-5.8-3-15,7.9-26.1c8.3-6.9,18-10.5,28.1-10.5
			c19.7,0,39.7,13.4,48.6,32.6c7.5,16.2,5.4,33-5.8,46.3c-8.3,10.2-19.4,15.4-33.1,15.4c-11.3,0-24.4-3.8-36.9-10.7
			c-3.8,9.7-16.1,17.4-36.4,22.8L80.7,139.1z M122.9,112c-1.2,3.8-3.7,7.3-7.5,10.6c4.2-3.1,7-6.5,8.3-10.1
			C123.4,112.4,123.2,112.2,122.9,112L122.9,112L122.9,112z M151.1,120.5c17.9,3.7,32.7-0.7,42.7-13.1c10.5-12.4,12.5-28.2,5.5-43.3
			c-8.5-18.3-27.4-31-46.1-31c-9.6,0-18.5,3.3-26.3,9.7c-7.8,7.9-10.3,15.7-7.2,23c4.8,11.4,22.8,19.1,36.6,19.1
			c7.5,0,12.9-2.2,15.2-6.1c2.8-4.9,3.5-9.3,1.9-13c-0.3-0.7-0.7-1.4-1.1-2c1.7,4.1,1.3,8.8-0.9,14c-2.7,4.3-8.1,6.6-15.2,6.6
			c-11.5,0-26.1-6.3-30.8-16.8c-2.3-5.3-3.1-13.8,6.5-24.3c5.6-5,12.6-7.5,20.4-7.5c16.9,0,35.3,12,43.8,28.6
			c6.9,13.5,6,27.4-2.4,39.2C183.7,117.5,169.1,123.3,151.1,120.5z M123.7,107.2c0.3,0.2,0.6,0.3,0.8,0.5c0.1-4.6-1.8-8.8-4-12
			C122.8,99.5,123.9,103.4,123.7,107.2z M102.7,84.7c-0.4,0-0.6,0.1-0.6,0.1c-0.1,0.2-0.2,1.2,1.1,3.6c2.9,5.3,9.6,11.7,17.7,17
			c-0.4-5.8-4.1-10.6-6.4-13.2C110.3,87.6,105.1,84.7,102.7,84.7z"/>
	</g>
</g>
<g>
	<g>
		<g>
			<path d="M152,143.8c1.3,0,2.3,1,2.4,2.3c0,1.3-1,2.3-2.3,2.3c-1.3,0-2.3-1-2.3-2.3C149.7,144.9,150.7,143.8,152,143.8z"/>
		</g>
	</g>
	<g>
		<g>
			<path d="M129.3,148.8c1.3,0,2.3,1,2.3,2.2c0,1.3-1,2.3-2.3,2.3c-1.3,0-2.3-1-2.3-2.2C127,149.8,128,148.8,129.3,148.8z"/>
		</g>
	</g>
	<g>
		<g>
			<path d="M247.7,143.8c1.3,0,2.3,1,2.3,2.3c0,1.3-1,2.3-2.3,2.3s-2.3-1-2.4-2.2C245.4,144.9,246.4,143.9,247.7,143.8z"/>
		</g>
	</g>
	<g>
		<g>
			<path d="M269.1,148.7c1.3,0,2.3,1,2.3,2.3c0,1.3-1,2.3-2.3,2.3c-1.3,0-2.3-1-2.3-2.2C266.8,149.7,267.8,148.7,269.1,148.7z"/>
		</g>
	</g>
	<g>
		<g>
			<path d="M176.4,138.2c2.1,0,3.7,1.6,3.8,3.6c0,2-1.6,3.7-3.7,3.7c-2.1,0-3.7-1.6-3.8-3.6C172.8,139.9,174.4,138.2,176.4,138.2z"
				/>
		</g>
	</g>
	<g>
		<g>
			<path d="M202.1,133.5c2.8,0,5.1,2.2,5.2,5c0,2.8-2.2,5-5,5.1c-2.8,0-5.1-2.2-5.2-5C197,135.8,199.3,133.5,202.1,133.5z"/>
		</g>
	</g>
	<g>
		<g>
			<path d="M225.3,138.2c2.1,0,3.7,1.6,3.8,3.6c0,2-1.6,3.7-3.7,3.7c-2.1,0-3.7-1.6-3.8-3.6C221.6,139.9,223.3,138.3,225.3,138.2z"
				/>
		</g>
	</g>
</g>
<g>
	<g>
		<g>
			<path d="M152,396.2c1.3,0,2.3-1,2.4-2.3c0-1.3-1-2.3-2.3-2.3c-1.3,0-2.3,1-2.3,2.3C149.7,395.1,150.7,396.1,152,396.2z"/>
		</g>
	</g>
	<g>
		<g>
			<path d="M129.3,391.2c1.3,0,2.3-1,2.3-2.2c0-1.3-1-2.3-2.3-2.3c-1.3,0-2.3,1-2.3,2.2C127,390.2,128,391.2,129.3,391.2z"/>
		</g>
	</g>
	<g>
		<g>
			<path d="M247.7,396.1c1.3,0,2.3-1,2.3-2.3c0-1.3-1-2.3-2.3-2.3c-1.3,0-2.3,1-2.4,2.2C245.4,395.1,246.4,396.1,247.7,396.1z"/>
		</g>
	</g>
	<g>
		<g>
			<path d="M269.1,391.3c1.3,0,2.3-1,2.3-2.3c0-1.3-1-2.3-2.3-2.3c-1.3,0-2.3,1-2.3,2.2C266.8,390.3,267.8,391.3,269.1,391.3z"/>
		</g>
	</g>
	<g>
		<g>
			<path d="M176.4,401.8c2.1,0,3.7-1.6,3.8-3.6c0-2-1.6-3.7-3.7-3.7c-2.1,0-3.7,1.6-3.8,3.6C172.8,400.1,174.4,401.8,176.4,401.8z"
				/>
		</g>
	</g>
	<g>
		<g>
			<path d="M202.1,406.5c2.8,0,5.1-2.2,5.2-5c0-2.8-2.2-5-5-5.1c-2.8,0-5.1,2.2-5.2,5C197,404.2,199.3,406.4,202.1,406.5z"/>
		</g>
	</g>
	<g>
		<g>
			<path d="M225.3,401.8c2.1,0,3.7-1.6,3.8-3.6c0-2-1.6-3.7-3.7-3.7c-2.1,0-3.7,1.6-3.8,3.6C221.6,400.1,223.3,401.7,225.3,401.8z"
				/>
		</g>
	</g>
</g>
<g>
	<path d="M362.4,164.3c-5.7-8.4-12.2-16.5-19.2-24c-8.9-9.5-18.8-18.1-29.4-25.6c-7-5-14.5-9.6-22.1-13.6l0.9-1.6
		c7.7,4.1,15.2,8.7,22.3,13.7c10.7,7.6,20.7,16.3,29.6,25.9c7.1,7.5,13.6,15.7,19.3,24.2L362.4,164.3z"/>
</g>
<g>
	<path d="M403.7,272.9h-3.7c0-63.4-30.7-123.5-82.1-160.8c-6.8-5-14-9.5-21.4-13.6l1.8-3.2c7.5,4.1,14.9,8.8,21.8,13.8
		C372.5,147.1,403.7,208.4,403.7,272.9z"/>
</g>
<g>
	<path d="M371.9,159.8c-3.3-4.9-6.8-9.8-10.5-14.4c-11.6-14.5-25.1-27.4-40.1-38.3c-6.6-4.8-13.6-9.2-20.8-13.2l0.9-1.6
		c7.2,4,14.3,8.5,20.9,13.3c15.2,11,28.8,24,40.5,38.6c3.7,4.6,7.3,9.5,10.6,14.5L371.9,159.8z"/>
</g>
<g>
	<path d="M41.4,164.3l-1.5-1c5.8-8.5,12.3-16.7,19.3-24.2c9-9.6,19-18.3,29.6-25.9c7.1-5.1,14.6-9.7,22.3-13.7l0.9,1.6
		c-7.6,4-15.1,8.6-22.1,13.6c-10.6,7.5-20.5,16.1-29.4,25.6C53.5,147.8,47.1,155.8,41.4,164.3z"/>
</g>
<g>
	<path d="M3.7,272.9H0c0-64.6,31.2-125.8,83.6-163.8c7-5,14.3-9.7,21.8-13.8l1.8,3.2c-7.4,4-14.6,8.6-21.4,13.6
		C34.4,149.4,3.7,209.5,3.7,272.9z"/>
</g>
<g>
	<path d="M31.8,159.8l-1.5-1c3.3-5,6.9-9.9,10.6-14.5c11.7-14.6,25.3-27.6,40.5-38.6c6.7-4.8,13.7-9.3,20.9-13.3l0.9,1.6
		c-7.1,4-14.1,8.4-20.7,13.2c-15,10.9-28.5,23.7-40.1,38.3C38.6,150,35.1,154.9,31.8,159.8z"/>
</g>
<g>
	<g>
		<path d="M200.9,539.3c4.6-0.1,8.2-9.3,8.2-16c0-6.7-3.7-15.7-8.2-15.6c-4.5,0.1-8.2,9.3-8.2,16
			C192.7,530.4,196.4,539.4,200.9,539.3z"/>
	</g>
</g>
<g>
	<g>
		<path d="M250.1,486.4c0,0-31-5.2-18.7-26.7c10.8-18.8,79.9,4,46.6,37.8c-41.3,34.1-103.1-26.2-68.9-66.6c28.5-35,84.5,0.5,94,17.9
			c16.6,30.3-72.5-22.5,11.6-44.9c-1.1,0.7-0.4,1.1,1.4,1c-75.2,22.3-2.2,66.8-14.1,45.3c-10.1-18.3-64-50.8-90.5-13.8
			c-26.5,36.9,31.1,83.7,59.6,58.6c27.5-30.2-27.2-48.8-37.2-33C225.4,481.8,250.1,486.5,250.1,486.4L250.1,486.4z"/>
		<path d="M250.9,508.9c-19.7,0-39.7-13.4-48.6-32.6c-7.5-16.2-5.4-33,5.8-46.3c8.3-10.2,19.4-15.4,33.1-15.4
			c11.3,0,24.4,3.8,36.9,10.7c3.8-9.7,16.1-17.4,36.4-22.8l9-2.4l-5.2,3.2l9.7-0.5l-11.3,3.3c-19.1,5.7-30.5,13.4-33,22.5
			c9.6,6.2,17.6,13.5,20.8,19.4c2.3,4.2,2.9,7.2,1.7,9.2c-0.5,0.9-1.6,2-4,2l0,0c-5.1,0-13.3-5-18.7-11.5
			c-3.5-4.1-7.3-10.5-6.5-17.8c-10.9-5.9-22.3-9.2-32.3-9.2c-13.3,0-24,5.5-31.8,16.3c-7.9,11-8.7,23.9-2.2,36.4
			c8.1,15.7,25.5,27.1,41.4,27.1c7.1,0,13.3-2.3,18.4-6.8c6.7-7.4,8.8-14.8,5.9-21.2c-4.2-9.5-17.6-15.1-28.2-15.1
			c-6.1,0-10.7,1.8-12.8,5.1c-2,4.6-2.2,8.8-0.5,12.3c2.9,6.1,10.7,8.9,14,9.8c1,0.2,1.6,0.3,1.6,0.3l1.2,0.2v2.8l-1.6-0.2
			c0,0-0.7-0.1-1.8-0.4c-4.8-1.1-16.2-4.6-19.8-12.9c-2-4.5-1.3-9.7,2-15.5c2.8-4.8,9-7.5,17.6-7.5c14.6,0,33.8,8,39.1,20.8
			c2.4,5.8,3,15-7.9,26.1C270.8,505.4,261.1,508.9,250.9,508.9z M241.2,417.5c-12.8,0-23.2,4.8-30.9,14.4
			c-10.5,12.4-12.5,28.2-5.5,43.3c8.5,18.3,27.4,31,46.1,31c9.6,0,18.5-3.3,26.3-9.7c7.8-7.9,10.3-15.7,7.2-23
			c-4.8-11.4-22.8-19.1-36.6-19.1c-7.5,0-12.9,2.2-15.2,6.1c-2.8,4.9-3.5,9.3-1.9,13c0.3,0.7,0.7,1.3,1.1,1.9
			c-1.6-4.1-1.3-8.8,0.9-14c2.7-4.3,8.1-6.6,15.2-6.6c11.5,0,26.1,6.3,30.8,16.8c2.3,5.3,3.1,13.8-6.5,24.3
			c-5.6,5-12.6,7.6-20.4,7.6c-16.9,0-35.3-12-43.8-28.6c-6.9-13.5-6-27.4,2.5-39.2c9.9-13.8,24.5-19.6,42.5-16.8
			C249,417.9,245,417.5,241.2,417.5z M283.2,433.8c0.4,5.8,4,10.6,6.4,13.2c4.3,4.7,9.5,7.6,11.9,7.6c0.4,0,0.6-0.1,0.6-0.1
			c0.1-0.2,0.2-1.2-1.1-3.6C298,445.6,291.3,439.2,283.2,433.8z M279.6,431.5c-0.2,4.6,1.8,8.8,4,12c-2.2-3.8-3.3-7.7-3.2-11.5
			C280.1,431.9,279.9,431.7,279.6,431.5z M281.2,427.2L281.2,427.2c1.3-3.8,3.9-7.3,7.6-10.6c-4.2,3.1-7,6.5-8.3,10.2
			C280.7,426.9,281,427.1,281.2,427.2L281.2,427.2z"/>
	</g>
</g>
<g>
	<g>
		<path d="M154,486.4c0,0,31-5.2,18.7-26.7c-10.8-18.8-79.9,4-46.6,37.8c41.3,34.1,103.1-26.2,68.9-66.6c-28.5-35-84.5,0.5-94,17.9
			c-16.6,30.3,72.5-22.5-11.6-44.9c1.1,0.7,0.4,1.1-1.4,1c75.2,22.3,2.2,66.8,14.1,45.3c10.1-18.3,64-50.8,90.5-13.8
			c26.5,36.9-31.1,83.7-59.6,58.6c-27.5-30.2,27.2-48.8,37.2-33C178.8,481.8,154,486.5,154,486.4L154,486.4z"/>
		<path d="M153.2,508.9c-10.1,0-19.8-3.6-28-10.4c-11-11.2-10.4-20.4-8-26.2c5.4-12.9,24.5-20.8,39.1-20.8c8.6,0,14.8,2.6,17.6,7.5
			c3.3,5.7,4,10.9,2,15.5c-3.6,8.3-15,11.8-19.8,12.9c-1.1,0.3-1.8,0.4-1.8,0.4l-1.6,0.3l0-2.9l1.1-0.2c0,0,0.6-0.1,1.6-0.3
			c3.3-0.9,11.1-3.7,14-9.8c1.7-3.5,1.5-7.7-0.6-12.5c-2-3.1-6.5-4.9-12.7-4.9c-10.6,0-24,5.7-28.2,15.1c-2.9,6.5-0.8,13.9,6,21.4
			c5,4.4,11.2,6.6,18.3,6.6c15.9,0,33.3-11.4,41.4-27.1c6.4-12.5,5.6-25.4-2.2-36.4c-7.8-10.8-18.5-16.3-31.8-16.3
			c-10,0-21.4,3.3-32.3,9.2c0.8,7.4-3,13.7-6.5,17.8c-5.4,6.4-13.7,11.5-18.8,11.5c-2.3,0-3.5-1.1-4-1.9c-1.2-2-0.6-5,1.7-9.2
			c3.2-5.9,11.1-13.2,20.8-19.4c-2.5-9.1-13.9-16.8-33-22.5l-11.3-3.3l9.7,0.5l-5.1-3.1l8.8,2.3c20.4,5.4,32.6,13.1,36.4,22.8
			c12.5-6.9,25.5-10.7,36.9-10.7c13.6,0,24.7,5.2,33.1,15.4c11.2,13.2,13.3,30.1,5.8,46.2C192.9,495.5,172.9,508.9,153.2,508.9z
			 M156.3,454.4c-13.8,0-31.8,7.7-36.6,19.1c-3,7.3-0.6,15.1,7.3,23.1c7.7,6.4,16.6,9.6,26.2,9.6c18.7,0,37.6-12.8,46.1-31
			c7-15.1,5-30.9-5.4-43.3c-7.8-9.5-18.2-14.4-31-14.4c-3.8,0-7.8,0.4-11.8,1.3c18-2.8,32.6,3,42.5,16.8c8.5,11.8,9.4,25.8,2.5,39.2
			c-8.5,16.6-26.9,28.6-43.8,28.6c-7.7,0-14.7-2.6-20.3-7.4c-9.7-10.7-9-19.2-6.6-24.4c4.6-10.5,19.3-16.8,30.8-16.8
			c7.1,0,12.5,2.3,15.1,6.4c2.4,5.4,2.7,10.1,1,14.2c0.4-0.6,0.8-1.3,1.1-1.9c1.6-3.7,1-8.1-1.9-13
			C169.2,456.5,163.8,454.4,156.3,454.4z M120.9,433.8c-8.1,5.4-14.8,11.8-17.7,17c-1.3,2.3-1.2,3.4-1.1,3.6c0,0,0.2,0.1,0.6,0.1h0
			c2.4,0,7.6-2.9,11.9-7.6C116.9,444.4,120.5,439.6,120.9,433.8z M123.7,432.1c0.1,3.8-1,7.7-3.2,11.5c2.2-3.2,4.2-7.4,4-12
			C124.3,431.7,124,431.9,123.7,432.1z M115.3,416.6c3.8,3.2,6.3,6.8,7.6,10.6l0.1-0.1l0,0c0.2-0.1,0.5-0.3,0.7-0.4
			C122.3,423.1,119.5,419.7,115.3,416.6z"/>
	</g>
</g>
<g>
	<path d="M292.6,439.8l-0.9-1.6c7.6-4,15.1-8.6,22.1-13.6c10.6-7.5,20.5-16.1,29.4-25.6c7-7.5,13.5-15.5,19.2-24l1.5,1
		c-5.8,8.5-12.3,16.7-19.3,24.2c-9,9.6-19,18.3-29.6,25.9C307.8,431.2,300.3,435.8,292.6,439.8z"/>
</g>
<g>
	<path d="M298.3,443.9l-1.8-3.2c7.4-4,14.6-8.6,21.4-13.6c51.4-37.3,82.1-97.4,82.1-160.8h3.7c0,64.6-31.2,125.8-83.6,163.8
		C313.2,435.1,305.8,439.8,298.3,443.9z"/>
</g>
<g>
	<path d="M301.4,446.9l-0.9-1.6c7.1-4,14.1-8.4,20.8-13.2c15-10.9,28.5-23.8,40.1-38.3c3.7-4.6,7.2-9.4,10.5-14.4l1.5,1
		c-3.3,5-6.9,9.9-10.6,14.5c-11.7,14.6-25.3,27.6-40.5,38.6C315.7,438.5,308.6,442.9,301.4,446.9z"/>
</g>
<g>
	<path d="M111.2,439.8c-7.7-4-15.2-8.7-22.3-13.7c-10.7-7.6-20.7-16.3-29.6-25.9c-7.1-7.5-13.6-15.7-19.3-24.2l1.5-1
		c5.7,8.4,12.2,16.5,19.2,24c8.9,9.5,18.8,18.1,29.4,25.6c7,5,14.5,9.6,22.1,13.6L111.2,439.8z"/>
</g>
<g>
	<path d="M105.4,443.9c-7.5-4.1-14.9-8.8-21.8-13.8C31.2,392.1,0,330.9,0,266.3h3.7c0,63.4,30.7,123.5,82.1,160.8
		c6.8,5,14,9.5,21.4,13.6L105.4,443.9z"/>
</g>
<g>
	<path d="M102.3,446.9c-7.2-4-14.2-8.5-20.9-13.3c-15.2-11-28.8-24-40.5-38.6c-3.7-4.7-7.3-9.5-10.6-14.5l1.5-1
		c3.3,4.9,6.8,9.8,10.5,14.4c11.6,14.5,25.1,27.4,40.1,38.3c6.6,4.8,13.6,9.2,20.7,13.2L102.3,446.9z"/>
</g>
<g>
	<g>
		<g>
			<path d="M111.2,194.8c0,5.3-6.7,14.9-20.2,28.7c-11.6,12.1-21.3,20.7-28.9,25.8c-6.9,13.1-10.4,21.9-10.4,26.4c0,2.7,1.3,4,3.9,4
				c3,0,7-2.8,12-8.4c4.4-4.9,7.4-9.1,9-12.7c-0.2-0.6-0.3-1.4-0.3-2.5c0-3.4,0.7-7.1,2.2-11.3c1.9-5.1,4.2-7.7,6.9-7.7
				c1.3,0,2,1,2,3c0,5.9-2.6,12.2-7.7,19.1c2.8,2.2,5.2,3.3,7.4,3.3c5,0,8.9-2.1,11.5-6.4h2.6c-3.9,5.7-8.7,8.5-14.6,8.5
				c-2.1,0-4.9-1.2-8.4-3.6c-2.6,4.5-6,8.9-10.1,13c-5.3,5.4-9.8,8.1-13.6,8.1c-1.8,0-3.4-0.9-4.6-2.7c-1.3-1.8-1.9-3.7-1.9-5.6
				c0-7.1,3.5-17.5,10.4-31c6.9-13.6,14.8-25.3,23.7-35.2c9.9-11.2,18.4-16.7,25.6-16.7C110,191.1,111.2,192.3,111.2,194.8z
				 M108.9,195.8c0-1.5-0.8-2.3-2.3-2.3c-3.6,0-11,7.3-22.2,21.8c-9,11.7-15.6,21.2-19.6,28.3c6.6-3.8,13.8-9.8,21.4-17.9
				c3.6-3.8,7.8-8.8,12.8-15C105.6,202.4,108.9,197.5,108.9,195.8z"/>
		</g>
		<g>
			<path d="M141.6,256.4c-4.3,6-9.5,11.4-15.4,16.2c-7.5,6.2-14,9.2-19.5,9.2c-3.4,0-6.2-1.1-8.5-3.4c-2.3-2.3-3.5-5.1-3.5-8.6
				c0-8.5,3.3-17.3,10-26.4c7.1-9.7,14.7-14.6,22.8-14.6c5.5,0,8.2,2,8.2,6.1c0,6.5-3.9,12.5-11.8,17.8c-6.9,4.7-13.9,7.3-20.9,7.8
				c-2.1,4.4-3.2,8.6-3.2,12.4c0,1.9,0.6,3.6,1.8,5c1.2,1.4,2.8,2.1,4.7,2.1c5.3,0,11.4-2.8,18.3-8.4c5.3-4.3,10.1-9.4,14.3-15.2
				H141.6z M132.3,234.2c0-2.1-1.1-3.2-3.3-3.2c-4.5,0-9.5,3.4-15,10.3c-3.7,4.7-7.1,10.3-10.3,16.7c6.3-0.2,12.6-2.8,19-7.7
				C129.1,245.4,132.3,240,132.3,234.2z"/>
		</g>
		<g>
			<path d="M196.3,257c-3.8,6.1-7.8,11.4-12.1,15.9c-6.2,6.3-11.5,9.5-16.2,9.5c-1.9,0-3.6-0.9-4.9-2.7c-1.4-1.8-2-3.7-2-5.7
				c0-2.1,0.2-4.5,0.7-7.2c-4.5,5.7-7.3,9-8.4,10c-3.8,3.8-7.6,5.6-11.1,5.6c-2.6,0-4.8-1.2-6.5-3.8c-1.4-2.2-2.2-4.7-2.2-7.4
				c0-8.1,3.5-16.9,10.4-26.4c7.3-10,14.9-15,22.7-15c6.6,0,9.9,2.9,9.8,8.7c2.3-3.1,4-4.9,5.1-5.5c1.4-0.9,3.9-1.3,7.5-1.4
				c-9.3,13.9-14.1,21.1-14.4,21.6c-6.7,10.7-10.1,18-10.1,21.8c0,1.2,0.4,2.3,1.3,3.3c0.9,1.1,1.8,1.6,2.9,1.6
				c3.3,0,7.8-3.1,13.7-9.2c4.3-4.4,8-9,11.1-13.7H196.3z M174,237.8c0-1.4-0.5-2.6-1.6-3.6c-1.1-1.1-2.2-1.6-3.5-1.6
				c-6,0-12.7,5.4-20.1,16.3c-7,10.3-10.5,18.7-10.5,25.1c0,3.9,1.9,5.8,5.6,5.8c4,0,10-6,18.2-17.9C170,250.3,174,242.2,174,237.8z
				"/>
		</g>
		<g>
			<path d="M249.3,256.4c-3.1,5.5-7.1,10.7-12,15.7c-6.3,6.5-11.6,9.7-16,9.7c-1.9,0-3.5-0.8-4.8-2.2c-1.3-1.5-1.9-3.2-1.9-5.3
				c0-2.9,0.5-6.1,1.4-9.7c-5.2,6.8-7.9,10.4-8.2,10.8c-3.9,4.1-7.7,6.2-11.4,6.2c-2,0-3.6-1-4.8-3c-1.2-2-1.8-4.1-1.8-6.2
				c0-5.1,1.9-11.3,5.6-18.5c1.9-3.7,5.4-9.2,10.4-16.7c1.9-2.9,3-4.5,3.3-4.8c1.2-1,2.9-1.4,5.3-1.4h3.3
				c-4.9,7.1-9.8,14.3-14.7,21.4c-6.6,10.5-10,17.9-10,22.2c0,3.4,1.5,5.1,4.5,5.1c5.2,0,15.7-13.7,31.5-41c1.6-2.8,2.7-4.5,3.2-5.1
				c1.4-1.7,3.1-2.6,4.9-2.6h4.5c-4.7,7.1-9.5,14.3-14.3,21.5c-6.6,10.7-10,17.9-10,21.8c0,1.4,0.4,2.6,1.3,3.6
				c0.9,1.1,2,1.6,3.3,1.6c3.5,0,8.1-3,13.9-9.1c4.2-4.5,7.8-9.2,10.8-14H249.3z"/>
		</g>
		<g>
			<path d="M281.6,209.8l-12.3,19.8c2,0,2,1.6,3.6,0.4l-0.8,1.7l-4.8,0.5c-8.7,14.1-13.1,21.3-13.4,21.8
				c-6.3,11.1-9.5,18.2-9.5,21.5c0,1.2,0.5,2.2,1.4,3.2c0.9,1,1.9,1.4,3.1,1.4c3.3,0,7.8-3.1,13.7-9.4c4.2-4.4,8-9.1,11.3-14h2.6
				c-11.9,17.1-21.4,25.7-28.3,25.7c-2,0-3.7-1-5-3c-1.4-2-2-4.1-2-6.2c0-5.1,2.5-12.1,7.4-21.1c3.9-6.6,7.9-13.3,12-19.9h-4.8
				l1.2-2.2l4.9-0.3l12.9-19.9H281.6z"/>
		</g>
		<g>
			<path d="M315.6,295.4c1.2,5.2-12,15.1-18.8,16.7c-10.4,3.7-20.7,2.9-27.8,5.9c-33.9,12.7-37.7,18.9-37.7,25.5c0,1,0.4,2,1.2,3
				c0.8,1.1,1.8,1.6,2.8,1.6c14.3,0.5,30.7-31.7,43.6-57l2.2-3.9c1.7-3,4.3-7.5,7.8-13.6c-5.6,5.9-10,8.8-13.4,8.8
				c-2.2,0-4-1.1-5.5-3.3c-1.3-1.9-2-4.1-2-6.5c0-8.5,7.3-22.5,21.9-42h7.2c-8.5,12.6-13.4,20-14.9,22.2
				c-7,11.4-10.5,18.9-10.5,22.7c0,1.2,0.4,2.3,1.3,3.3c0.9,1.1,1.9,1.6,3,1.6c4.3,0,10.7-6.7,19.2-20.1l18.9-29.7h7.1l-31.8,51.8
				l-1.8,3c-5.9,9.1-11.5,24.3-30.1,50.4c-8.6,12.1-16.9,17.8-24,17.8c-1.7,0-3.2-0.7-4.4-2c-1.2-1.4-1.8-2.9-1.8-4.6
				c0-5.9,3.2-10.8,9.3-15.8c7.8-6.2,30.3-15.8,33.7-16.4c10.6-3,14-1.9,24.9-5.3c4.1-1,20.1-8.9,18-16.4"/>
		</g>
	</g>
	<g>
		<path d="M33.7,246c0.1,3.4,0.3,4.6,2.6,5.9c2.6,1.4,7.6,1.4,14.5-1.6c6.1-2.6,10.9-4.4,14-6.8l-2.7,5.8c-4.5,2.5-6.9,3-12.7,4.7
			c-7.3,2.1-12,1.5-15.3-0.4c-1.6-0.9-2.5-2.4-2.7-4.6c-0.2-2.2,1.7-8.8,1.8-6.8L33.7,246z"/>
	</g>
	<g>
		<path d="M294.6,220.5c0.6-1.2,0.7,2.3,0,3.7c-0.7,1.4-1.9,2.5-3.6,3.5c-3.4,1.9-7.9,3.5-13.9,3.9c-4.8,0.4-6.8,0.7-10.3,0.2
			l-1-2.9c2.2,0.7,6.1,0.7,11,0.8c5.5,0.1,10-1.1,12.7-2.6c2.4-1.3,2.9-2.1,3.8-4.2L294.6,220.5z"/>
	</g>
</g>
<g>
	<path d="M200.9,290.5h21v2.3h-3.6c-1.6,0-2.6,0.2-3,0.6c-0.4,0.4-0.6,1.2-0.6,2.5v34.4c0,1.4,0.2,2.2,0.6,2.6
		c0.5,0.5,1.4,0.7,2.7,0.7h4v2.3h-21v-2.3h4c1.4,0,2.3-0.2,2.7-0.6c0.4-0.4,0.6-1.3,0.6-2.7V296c0-1.3-0.2-2.1-0.6-2.4
		c-0.6-0.5-1.6-0.7-3.2-0.7h-3.6V290.5z"/>
</g>
<g>
	<path d="M281.6,289.6h2.1l16.3,41.6c0.7,1.7,2,2.5,4,2.5h1.4v2.3h-18.1v-2.3h1.4c1.9,0,3.2-0.2,4-0.6c0.5-0.3,0.8-0.7,0.8-1.3
		c0-0.3-0.1-0.7-0.2-1.1l-3.8-9.7l-0.9-2.4l-0.3-0.9l-7.6-19.4"/>
</g>
<g>
	<path d="M306.1,290.5h15.1l13.6,35.9l12.5-35.9h15.5v2.3h-3.8c-1.3,0-2.2,0.2-2.7,0.6c-0.5,0.4-0.7,1.1-0.7,2v36
		c0,0.7,0.3,1.3,0.8,1.7c0.6,0.4,1.5,0.6,2.9,0.6h3.5v2.3H342v-2.3h3.9c1.1,0,1.9-0.2,2.5-0.6c0.5-0.4,0.8-1,0.8-1.6v-38.6l-15,43.2
		h-2.1l-16.2-43v33.1c0,2,0.2,3.4,0.7,4.4c0.5,1,1.2,1.7,2.1,2.2c0.9,0.5,2.4,0.8,4.5,1v2.3h-17.2v-2.3c2.8-0.2,4.7-0.8,5.7-1.8
		c1-1,1.5-2.8,1.5-5.4v-31.4c0-0.8-0.2-1.3-0.7-1.7c-0.5-0.4-1.4-0.5-2.6-0.5h-3.9V290.5z"/>
</g>
</svg>
