<?xml version="1.0" encoding="utf-8"?>
<!-- Generator: Adobe Illustrator 16.0.0, SVG Export Plug-In . SVG Version: 6.00 Build 0)  -->
<!DOCTYPE svg PUBLIC "-//W3C//DTD SVG 1.1//EN" "http://www.w3.org/Graphics/SVG/1.1/DTD/svg11.dtd">
<svg version="1.1" id="Layer_1" xmlns="http://www.w3.org/2000/svg" xmlns:xlink="http://www.w3.org/1999/xlink" x="0px" y="0px" viewBox="0 0 76.3 37.4" style="enable-background:new 0 0 76.3 37.4;" xml:space="preserve">
<g>
	<g>
		<g>
			<path d="M18.4,0.9c0,1.2-1.6,3.4-4.7,6.6c-2.7,2.8-4.9,4.8-6.6,5.9c-1.6,3-2.4,5-2.4,6.1c0,0.6,0.3,0.9,0.9,0.9
				c0.7,0,1.6-0.6,2.8-1.9c1-1.1,1.7-2.1,2.1-2.9c0-0.1-0.1-0.3-0.1-0.6c0-0.8,0.2-1.6,0.5-2.6c0.4-1.2,1-1.8,1.6-1.8
				c0.3,0,0.5,0.2,0.5,0.7c0,1.4-0.6,2.8-1.8,4.4c0.6,0.5,1.2,0.8,1.7,0.8c1.2,0,2-0.5,2.7-1.5h0.6c-0.9,1.3-2,2-3.4,2
				c-0.5,0-1.1-0.3-1.9-0.8c-0.6,1-1.4,2-2.3,3C7.2,20.4,6.2,21,5.3,21c-0.4,0-0.8-0.2-1.1-0.6C4,20,3.8,19.6,3.8,19.1
				c0-1.6,0.8-4,2.4-7.1c1.6-3.1,3.4-5.8,5.5-8.1C14,1.3,15.9,0,17.6,0C18.1,0,18.4,0.3,18.4,0.9z M17.8,1.1c0-0.4-0.2-0.5-0.5-0.5
				c-0.8,0-2.5,1.7-5.1,5c-2.1,2.7-3.6,4.9-4.5,6.5c1.5-0.9,3.2-2.3,4.9-4.1c0.8-0.9,1.8-2,3-3.5C17.1,2.6,17.8,1.5,17.8,1.1z"/>
		</g>
		<g>
			<path d="M25.4,15.1c-1,1.4-2.2,2.6-3.6,3.7c-1.7,1.4-3.2,2.1-4.5,2.1c-0.8,0-1.4-0.3-2-0.8c-0.5-0.5-0.8-1.2-0.8-2
				c0-2,0.8-4,2.3-6.1c1.6-2.2,3.4-3.4,5.3-3.4c1.3,0,1.9,0.5,1.9,1.4c0,1.5-0.9,2.9-2.7,4.1c-1.6,1.1-3.2,1.7-4.8,1.8
				c-0.5,1-0.7,2-0.7,2.9c0,0.4,0.1,0.8,0.4,1.1c0.3,0.3,0.6,0.5,1.1,0.5c1.2,0,2.6-0.6,4.2-1.9c1.2-1,2.3-2.2,3.3-3.5h0.6V15.1z
				 M23.2,9.9c0-0.5-0.3-0.7-0.8-0.7c-1,0-2.2,0.8-3.5,2.4c-0.8,1.1-1.6,2.4-2.4,3.9c1.4,0,2.9-0.6,4.4-1.8
				C22.5,12.5,23.2,11.3,23.2,9.9z"/>
		</g>
		<g>
			<path d="M38,15.2c-0.9,1.4-1.8,2.6-2.8,3.7c-1.4,1.5-2.7,2.2-3.7,2.2c-0.4,0-0.8-0.2-1.1-0.6c-0.3-0.4-0.5-0.8-0.5-1.3
				s0.1-1,0.2-1.7c-1,1.3-1.7,2.1-1.9,2.3c-0.9,0.9-1.7,1.3-2.6,1.3c-0.6,0-1.1-0.3-1.5-0.9c-0.3-0.5-0.5-1.1-0.5-1.7
				c0-1.9,0.8-3.9,2.4-6.1c1.7-2.3,3.4-3.5,5.2-3.5c1.5,0,2.3,0.7,2.3,2c0.5-0.7,0.9-1.1,1.2-1.3c0.3-0.2,0.9-0.3,1.7-0.3
				c-2.2,3.2-3.3,4.9-3.3,5c-1.6,2.5-2.3,4.1-2.3,5c0,0.3,0.1,0.5,0.3,0.8c0.2,0.2,0.4,0.4,0.7,0.4c0.8,0,1.8-0.7,3.2-2.1
				c1-1,1.9-2.1,2.6-3.2H38L38,15.2z M32.8,10.8c0-0.3-0.1-0.6-0.4-0.8c-0.2-0.2-0.5-0.4-0.8-0.4c-1.4,0-2.9,1.3-4.6,3.8
				c-1.6,2.4-2.4,4.3-2.4,5.8c0,0.9,0.4,1.3,1.3,1.3s2.3-1.4,4.2-4.1C31.9,13.6,32.8,11.8,32.8,10.8z"/>
		</g>
		<g>
			<path d="M50.2,15.1c-0.7,1.3-1.6,2.5-2.8,3.6c-1.4,1.5-2.7,2.2-3.7,2.2c-0.4,0-0.8-0.2-1.1-0.5s-0.4-0.7-0.4-1.2
				c0-0.7,0.1-1.4,0.3-2.2c-1.2,1.6-1.8,2.4-1.9,2.5c-0.9,1-1.8,1.4-2.6,1.4c-0.5,0-0.8-0.2-1.1-0.7c-0.3-0.5-0.4-0.9-0.4-1.4
				c0-1.2,0.4-2.6,1.3-4.3c0.4-0.8,1.2-2.1,2.4-3.9c0.4-0.7,0.7-1,0.8-1.1c0.3-0.2,0.7-0.3,1.2-0.3H43c-1.1,1.6-2.3,3.3-3.4,4.9
				c-1.5,2.4-2.3,4.1-2.3,5.1c0,0.8,0.3,1.2,1,1.2c1.2,0,3.6-3.1,7.2-9.4c0.4-0.6,0.6-1,0.7-1.2c0.3-0.4,0.7-0.6,1.1-0.6h1
				c-1.1,1.6-2.2,3.3-3.3,5c-1.5,2.5-2.3,4.1-2.3,5c0,0.3,0.1,0.6,0.3,0.8c0.2,0.2,0.5,0.4,0.8,0.4c0.8,0,1.9-0.7,3.2-2.1
				c1-1,1.8-2.1,2.5-3.2H50.2z"/>
		</g>
		<g>
			<path d="M57.6,4.3l-2.8,4.6c0.5,0,0.5,0.4,0.8,0.1l-0.2,0.4l-1.1,0.1c-2,3.2-3,4.9-3.1,5c-1.5,2.5-2.2,4.2-2.2,5
				c0,0.3,0.1,0.5,0.3,0.7c0.2,0.2,0.4,0.3,0.7,0.3c0.8,0,1.8-0.7,3.2-2.2c1-1,1.8-2.1,2.6-3.2h0.6C53.7,19,51.5,21,49.9,21
				c-0.5,0-0.9-0.2-1.2-0.7c-0.3-0.5-0.5-0.9-0.5-1.4c0-1.2,0.6-2.8,1.7-4.9c0.9-1.5,1.8-3.1,2.8-4.6h-1.1L51.9,9L53,8.9l3-4.6H57.6
				z"/>
		</g>
		<g>
			<path d="M65.4,24c0.3,1.2-2.8,3.5-4.3,3.8c-2.4,0.8-4.8,0.7-6.4,1.4c-7.8,2.9-8.7,4.3-8.7,5.9c0,0.2,0.1,0.5,0.3,0.7
				c0.2,0.2,0.4,0.4,0.6,0.4C50.3,36.3,54,28.9,57,23l0.5-0.9c0.4-0.7,1-1.7,1.8-3.1c-1.3,1.4-2.3,2-3.1,2c-0.5,0-0.9-0.3-1.3-0.8
				c-0.3-0.4-0.5-0.9-0.5-1.5c0-1.9,1.7-5.2,5-9.7h1.7c-2,2.9-3.1,4.6-3.4,5.1c-1.6,2.6-2.4,4.4-2.4,5.2c0,0.3,0.1,0.5,0.3,0.8
				c0.2,0.2,0.4,0.4,0.7,0.4c1,0,2.5-1.5,4.4-4.6l4.4-6.8h1.6L59.5,21L59,21.7c-1.4,2.1-2.6,5.6-6.9,11.6c-2,2.8-3.9,4.1-5.5,4.1
				c-0.4,0-0.7-0.2-1-0.5s-0.4-0.7-0.4-1.1c0-1.4,0.7-2.5,2.1-3.6c1.8-1.4,7-3.6,7.8-3.8c2.4-0.7,3.2-0.4,5.7-1.2
				c1-0.2,4.6-2.1,4.1-3.8"/>
		</g>
	</g>
	<g>
		<path d="M0.5,12.7c0,0.8,0.1,1.1,0.6,1.4c0.6,0.3,1.8,0.3,3.3-0.4c1.4-0.6,2.5-1,3.2-1.6L7,13.4c-1,0.6-1.6,0.7-2.9,1.1
			c-1.7,0.5-2.8,0.3-3.5-0.1C0.2,14.2,0,13.8,0,13.3c-0.1-0.5,0.4-2,0.4-1.6L0.5,12.7z"/>
	</g>
	<g>
		<path d="M60.6,6.8c0.1-0.3,0.2,0.5,0,0.9c-0.2,0.3-0.4,0.6-0.8,0.8C59,8.9,58,9.2,56.6,9.3c-1.1,0.1-1.6,0.2-2.4,0.1L54,8.7
			c0.5,0.2,1.4,0.1,2.5,0.2c1.3,0,2.3-0.2,2.9-0.6c0.5-0.3,0.7-0.5,0.9-1L60.6,6.8z"/>
	</g>
</g>
<g>
	<path d="M39,22.9h4.8v0.5H43c-0.4,0-0.6,0-0.7,0.1c-0.1,0.1-0.1,0.3-0.1,0.6V32c0,0.3,0,0.5,0.1,0.6c0.1,0.1,0.3,0.2,0.6,0.2h0.9
		v0.5H39v-0.5h0.9c0.3,0,0.5,0,0.6-0.1c0.1-0.1,0.1-0.3,0.1-0.6v-7.9c0-0.3,0-0.5-0.1-0.6c-0.1-0.1-0.4-0.2-0.7-0.2H39V22.9z"/>
</g>
<g>
	<path d="M57.6,22.7h0.5l3.8,9.6c0.2,0.4,0.5,0.6,0.9,0.6h0.3v0.5h-4.2v-0.5h0.3c0.4,0,0.7,0,0.9-0.1c0.1-0.1,0.2-0.2,0.2-0.3
		c0-0.1,0-0.2-0.1-0.3L59.3,30l-0.2-0.6L59,29.2l-1.7-4.5"/>
</g>
<g>
	<path d="M63.3,22.9h3.5l3.1,8.3l2.9-8.3h3.6v0.5h-0.9c-0.3,0-0.5,0-0.6,0.1c-0.1,0.1-0.2,0.2-0.2,0.5v8.3c0,0.2,0.1,0.3,0.2,0.4
		s0.3,0.1,0.7,0.1h0.8v0.5h-4.8v-0.5h0.9c0.3,0,0.4,0,0.6-0.1c0.1-0.1,0.2-0.2,0.2-0.4v-8.9l-3.5,9.9h-0.5l-3.7-9.9V31
		c0,0.5,0.1,0.8,0.2,1s0.3,0.4,0.5,0.5c0.2,0.1,0.6,0.2,1,0.2v0.5h-4v-0.5c0.6,0,1.1-0.2,1.3-0.4c0.2-0.2,0.3-0.7,0.3-1.3v-7
		c0-0.2-0.1-0.3-0.2-0.4c-0.1-0.1-0.3-0.1-0.6-0.1h-0.9L63.3,22.9L63.3,22.9z"/>
</g>
</svg>
