<?xml version="1.0" encoding="utf-8"?>
<!-- Generator: Adobe Illustrator 16.0.4, SVG Export Plug-In . SVG Version: 6.00 Build 0)  -->
<!DOCTYPE svg PUBLIC "-//W3C//DTD SVG 1.1//EN" "http://www.w3.org/Graphics/SVG/1.1/DTD/svg11.dtd">
<svg version="1.1" id="Layer_1" xmlns="http://www.w3.org/2000/svg" xmlns:xlink="http://www.w3.org/1999/xlink" x="0px" y="0px" viewBox="0 89.5 612 612" enable-background="new 0 89.5 612 612" xml:space="preserve">
<rect y="90" fill="#DCDBC7" width="612" height="612"/>
<g enable-background="new    ">
	<path fill="#231F20" d="M72.498,171.346h19.586v3.061h-3.443c-2.524,0-3.29,0.153-3.29,2.831v38.637
		c0,2.678,0.536,2.983,2.524,2.983c11.859-0.076,17.138-0.382,19.28-0.765c1.53-0.229,1.683-0.229,3.137-8.646l2.678,0.153
		l-2.525,12.777H73.492l-0.076-2.984h2.142c3.519,0,3.596-0.229,3.596-2.907v-39.554c0-2.295-1.071-2.525-4.055-2.525h-2.678
		L72.498,171.346z"/>
	<path fill="#231F20" d="M127.885,191.315v26.548c0,1.836,0.229,2.066,4.743,2.066h1.377v2.448h-16.602v-2.448h0.689
		c3.825,0,4.437-0.153,4.437-1.76v-20.427c0-1.989-0.306-2.448-1.147-2.448c-0.382,0-1.836,0.153-4.208,0.612l-0.076-2.295
		C120.463,193.075,123.677,192.462,127.885,191.315z M126.048,173.718c0.842,0,3.29,2.065,3.29,3.29c0,1.071-2.448,3.367-3.29,3.367
		c-1.377,0-3.213-2.525-3.213-3.443C122.835,175.708,125.054,173.718,126.048,173.718z"/>
	<path fill="#231F20" d="M137.37,219.929c3.443,0,3.443-0.153,3.443-2.601v-18.209c0-3.137-0.077-3.825-1.148-3.825
		c-0.612,0-0.841,0.153-2.907,0.612v-2.372l9.411-1.913c-0.153,1.836-0.229,2.601-0.229,5.432c1.224-0.535,5.432-4.896,11.552-4.896
		c7.192,0,7.269,6.274,7.269,12.318v13.159c0,2.295,1.071,2.295,4.667,2.295l-0.077,2.448h-14.23l-0.077-2.448h1.76
		c2.142,0,2.602-0.153,2.602-2.295v-15.378c0-4.361-1.53-5.814-4.973-5.814c-3.672,0-8.263,2.448-8.263,2.448v18.438
		c0,2.372,0,2.601,4.59,2.601h0.995l-0.153,2.448h-14.919l-0.076-2.448H137.37z"/>
	<path fill="#231F20" d="M186.79,192.156c5.814,0,9.87,3.367,9.87,3.367v-22.799c0-1.607-0.306-2.142-1.071-2.142
		c-0.536,0-1.989,0.306-5.049,0.995l-0.153-2.372c3.749-0.688,4.667-0.918,11.629-2.754v50.572c0,2.448,0.077,3.29,0.995,3.29
		c0.765,0,2.219-0.688,4.82-1.377V221c-2.448,0.688-4.514,1.377-11.017,3.366c0-2.678,0.077-4.438,0.077-5.585
		c0-0.612,0-0.995-0.077-1.224c-0.076,0.076-4.208,5.738-11.399,5.738c-7.421,0-13.618-6.044-13.618-15.072
		C171.795,199.042,179.445,192.156,186.79,192.156z M189.392,218.934c4.59,0,7.268-3.06,7.268-3.06v-16.449
		c0,0-3.596-4.896-9.87-4.896c-5.202,0-9.41,4.59-9.41,11.017C177.38,212.507,181.894,218.934,189.392,218.934z"/>
	<path fill="#231F20" d="M223.356,191.851c8.339,0,12.7,7.115,12.7,9.793c0,0.841-0.918,1.147-1.224,1.147l-19.203,2.295
		c0,0.229-0.077,0.688-0.077,1.071c0,7.728,4.896,12.012,11.323,12.012c6.044,0,8.875-3.596,10.175-3.596
		c0.383,0,0.688,0.229,0.688,0.918c0,1.454-5.661,7.88-13.924,7.88c-10.788,0-14.001-9.104-14.001-14.996
		C209.814,198.43,215.782,191.851,223.356,191.851z M228.941,200.725c0,0-2.142-6.273-6.35-6.273c-3.06,0-5.967,2.907-6.809,7.957
		L228.941,200.725z"/>
	<path fill="#231F20" d="M241.639,219.929c3.442,0,3.442-0.153,3.442-2.601v-18.209c0-3.137-0.076-3.825-1.147-3.825
		c-0.612,0-0.841,0.153-2.907,0.612v-2.372l9.411-1.913c-0.153,1.836-0.229,2.601-0.229,5.432c1.224-0.535,5.432-4.896,11.552-4.896
		c7.192,0,7.269,6.274,7.269,12.318v13.159c0,2.295,1.071,2.295,4.667,2.295l-0.077,2.448h-14.23l-0.077-2.448h1.76
		c2.142,0,2.602-0.153,2.602-2.295v-15.378c0-4.361-1.53-5.814-4.973-5.814c-3.672,0-8.263,2.448-8.263,2.448v18.438
		c0,2.372,0,2.601,4.59,2.601h0.995l-0.153,2.448H240.95l-0.076-2.448H241.639z"/>
	<path fill="#231F20" d="M291.21,171.346h19.05v3.061h-1.989c-3.596,0-4.36,0.306-4.36,3.366v14.537h24.865v-15.148
		c0-2.602-0.076-2.754-3.979-2.754h-3.213l-0.077-3.061h19.434v3.061h-2.143c-3.29,0-3.825,0.306-3.825,3.213v38.636
		c0,2.907,0.383,3.137,4.591,3.137h2.602l-0.076,2.984h-19.051l-0.076-2.984h2.219c3.366,0,3.597-0.306,3.597-3.366v-20.045h-24.865
		v20.045c0,3.137,0.536,3.366,5.508,3.366h2.219l-0.152,2.984H291.9l-0.077-2.984h1.989c3.902,0,3.902-0.077,3.902-3.366v-39.095
		c0-2.372-0.688-2.525-4.514-2.525h-1.989L291.21,171.346L291.21,171.346z"/>
	<path fill="#231F20" d="M357.077,191.315v26.548c0,1.836,0.229,2.066,4.743,2.066h1.377v2.448h-16.603v-2.448h0.688
		c3.825,0,4.438-0.153,4.438-1.76v-20.427c0-1.989-0.307-2.448-1.146-2.448c-0.383,0-1.837,0.153-4.208,0.612l-0.077-2.295
		C349.655,193.075,352.869,192.462,357.077,191.315z M355.24,173.718c0.842,0,3.29,2.065,3.29,3.29c0,1.071-2.448,3.367-3.29,3.367
		c-1.377,0-3.213-2.525-3.213-3.443C352.027,175.708,354.246,173.718,355.24,173.718z"/>
	<path fill="#231F20" d="M377.043,166.833v51.03c0,1.913,0.842,2.066,4.896,2.066h1.301v2.448h-16.68v-2.448h1.685
		c2.523,0,3.441-0.153,3.441-2.066v-43.609c0-3.213-0.151-3.826-1.377-3.826c-0.229,0-2.906,0.459-4.359,0.765l-0.153-2.601
		C369.698,168.057,373.295,167.521,377.043,166.833z"/>
	<path fill="#231F20" d="M397.085,166.833v51.03c0,1.913,0.842,2.066,4.896,2.066h1.301v2.448h-16.68v-2.448h1.685
		c2.523,0,3.441-0.153,3.441-2.066v-43.609c0-3.213-0.151-3.826-1.377-3.826c-0.229,0-2.906,0.459-4.359,0.765l-0.153-2.601
		C389.74,168.057,393.337,167.521,397.085,166.833z"/>
</g>
<g enable-background="new    ">
	<path fill="#231F20" d="M74.32,299.824c2.114,0,2.169-0.278,3.894-4.117c7.399-16.523,7.455-16.523,8.234-18.359l5.675-13.797
		h1.168c2.17,5.675,7.511,18.804,12.073,29.82c2.448,6.008,2.559,6.453,4.84,6.453h0.834l-0.056,2.17H98.298l0.056-2.17h1.669
		c1.669,0,2.448-0.056,2.448-0.667c0-0.333-0.223-0.834-0.556-1.725l-4.117-10.125H84.891l-4.395,9.792
		c-0.278,0.667-0.557,1.391-0.557,1.78c0,0.89,0.501,0.945,2.281,0.945h2.281v2.17H73.708l-0.056-2.17H74.32z M96.852,284.859
		l-5.285-13.185l-5.619,13.185H96.852z"/>
	<path fill="#231F20" d="M125.227,289.866v-3.338c0-2.169-0.334-3.95-3.728-3.95c-3.895,0-4.506,1.725-4.506,1.725
		c0.223,1.001,0.556,1.836,0.556,2.448c0,0.89-1.335,1.447-1.78,1.447c-1.112,0-1.279-1.335-1.279-2.003
		c0-1.224,1.725-6.231,9.736-6.231c1.279,0,4.896,0.389,4.896,4.451v10.403c0,2.392,0.39,4.172,3.616,5.062
		c0.39,0.111,0.501,0.278,0.501,0.445s-0.111,0.389-0.501,0.612c-1.279,0.834-3.171,1.947-3.338,2.003
		c-1.947-1.391-2.559-2.448-3.728-3.895c-1.446,1.947-4.061,3.561-6.509,3.561c-2.337,0-5.119-1.224-5.119-4.228
		C114.044,293.816,118.94,289.866,125.227,289.866z M121.276,299.602c3.282,0,3.95-1.836,3.95-3.06v-5.174
		c-4.618,0-7.288,2.949-7.288,5.396C117.938,298.267,118.829,299.602,121.276,299.602z"/>
	<path fill="#231F20" d="M176.578,264.108c9.569,0,19.083,6.453,19.083,19.36c0,7.956-4.229,14.409-10.014,17.302
		c-0.946,0.501-3.505,1.28-3.505,1.28c5.452,2.281,12.017,9.847,16.134,9.847c1.669,0,2.114-0.611,2.67-0.611
		c0.333,0,0.5,0.277,0.5,0.611c0,0.668-0.779,3.338-5.897,3.338c-6.231,0-10.737-5.34-14.688-8.566
		c-6.12-4.952-5.174-3.394-9.736-4.339c-6.454-1.391-13.853-7.455-13.853-18.526C157.273,270.672,166.953,264.108,176.578,264.108z
		 M177.635,300.492c6.676,0,12.962-5.119,12.962-15.633c0-11.794-7.677-18.47-15.188-18.47c-5.062,0-13.129,3.449-13.129,15.577
		C162.28,290.979,167.621,300.492,177.635,300.492z"/>
	<path fill="#231F20" d="M211.74,279.796c3.894,0,6.843,2.003,7.455,2.003c1.168,0,1.28-1.836,1.28-1.836h1.113
		c-0.167,3.561-0.501,6.342-0.501,14.687v17.691c0,2.171,0.056,2.281,3.06,2.281h1.001v1.78h-14.02l-0.167-1.78h1.947
		c3.338,0,4.284-0.224,4.284-1.892v-13.964c-2.226,1.613-4.396,3.616-7.845,3.616c-6.453,0-9.902-5.23-9.902-10.626
		C199.445,284.247,205.787,279.796,211.74,279.796z M211.796,298.99c3.449,0,5.118-2.726,5.396-3.004v-12.073
		c0,0-2.837-2.058-5.897-2.058c-5.674,0-8.011,4.729-8.011,7.789C203.284,294.65,207.567,298.99,211.796,298.99z"/>
	<path fill="#231F20" d="M246.79,264.887h12.796c5.73,0,8.679,0.556,11.293,2.67c2.67,2.169,4.006,5.062,4.006,7.789
		c0,3.449-2.003,7.232-7.956,8.79l10.682,14.187c1.113,1.391,1.669,1.502,2.392,1.502h2.392l0.111,2.17h-8.067l-11.905-17.135
		c-0.445,0-0.89,0.056-1.335,0.056c-3.505,0-4.284-0.167-5.062-0.333v13.63c0,1.447,0.111,1.613,3.839,1.613h2.837l-0.111,2.17
		h-14.799v-2.17h1.28c2.392,0,2.448-0.056,2.448-1.613v-29.096c0-1.892-1.224-2.003-3.338-2.003h-1.558L246.79,264.887z
		 M259.697,283.301c6.787,0,9.68-2.281,9.68-7.121c0-5.285-4.061-9.068-11.572-9.068c-1.279,0-1.669,0.223-1.669,2.559v13.074
		C256.137,282.745,256.86,283.301,259.697,283.301z"/>
	<path fill="#231F20" d="M293.134,279.407v6.287c0.167-0.222,2.726-5.674,5.953-5.674c2.337,0,3.06,1.391,3.06,1.391l-2.114,5.508
		l-0.89-0.334v-0.723c0-0.89-0.556-1.279-1.335-1.279c-1.78,0-4.562,1.78-4.562,3.95v9.402c0,2.058,0.278,2.281,3.505,2.281h2.392
		v1.78h-13.296v-1.78h1.057c2.281,0,2.448-0.111,2.448-2.281V284.36c0-1.502-0.111-2.003-0.779-2.003
		c-0.501,0-2.226,0.39-3.394,0.612l-0.167-1.725C287.348,280.798,286.125,281.131,293.134,279.407z"/>
</g>
<g enable-background="new    ">
	<path fill="#FFFFFF" d="M410.519,323.775v-12.412c0-8.068-1.24-14.688-13.859-14.688c-14.48,0-16.756,6.413-16.756,6.413
		c0.828,3.725,2.068,6.827,2.068,9.102c0,3.311-4.965,5.379-6.62,5.379c-4.138,0-4.758-4.965-4.758-7.447
		c0-4.551,6.413-23.169,36.201-23.169c4.758,0,18.204,1.448,18.204,16.549v38.683c0,8.896,1.448,15.516,13.446,18.825
		c1.446,0.414,1.86,1.034,1.86,1.655s-0.414,1.447-1.86,2.275c-4.758,3.104-11.792,7.24-12.412,7.447
		c-7.24-5.171-9.517-9.102-13.86-14.479c-5.378,7.239-15.101,13.239-24.202,13.239c-8.688,0-19.031-4.551-19.031-15.723
		C368.938,338.462,387.143,323.775,410.519,323.775z M395.831,359.977c12.205,0,14.688-6.828,14.688-11.377v-19.24
		c-17.17,0-27.1,10.964-27.1,20.065C383.419,355.011,386.729,359.977,395.831,359.977z"/>
</g>
<g enable-background="new    ">
	<path fill="#231F20" d="M72.044,366.503h0.89c1.502,0,2.114-0.167,3.394-2.948l15.633-33.27h1.001l7.844,31.6
		c1.113,4.506,1.28,4.618,3.283,4.618h1.613v1.78H92.74v-1.78h1.613c2.058,0,2.837-0.056,2.837-1.058
		c0-0.277-0.055-0.611-0.167-1.057l-2.448-10.402h-11.07l-4.339,9.402c-0.445,1-0.779,1.725-0.779,2.168
		c0,0.834,0.779,0.946,3.505,0.946h1.057l-0.111,1.78H72.044V366.503z M94.075,351.814l-3.505-14.02l-6.175,14.02H94.075z"/>
	<path fill="#231F20" d="M112.27,351.982c0.89-1.446,4.84-5.953,6.62-5.953c2.003,0,2.837,3.394,2.837,3.394l0.556-3.114
		c0.167-0.947,0.946-0.947,1.28-0.947h0.556c0.834,0,1.001,0.057,1.001,0.668c0,0.5-1.947,11.738-1.947,15.521
		c0,1.725,0.223,2.727,0.667,2.727c0.501,0,0.946-0.668,2.059-1.947l1.001,0.779c0,0-3.95,5.785-6.175,5.785
		c-0.612,0-1.224-0.611-1.224-4.004c0-1.225,0.111-2.783,0.278-4.896c-0.667,1.279-2.059,3.783-3.728,5.842
		c-1.391,1.669-3.672,3.061-4.562,3.061c-1.112,0-2.726-1.002-2.726-6.121C108.764,357.991,109.821,355.934,112.27,351.982z
		 M113.66,365.001c2.17,0,7.344-9.515,7.344-12.853c0-1.725-2.281-3.615-3.394-3.615c-1.947,0-6.009,6.676-6.009,12.462
		C111.602,363.499,112.826,365.001,113.66,365.001z"/>
	<path fill="#231F20" d="M150.657,365.668c0.834,0,2.281,1.78,7.622,1.78c15.355,0,22.643-11.294,22.643-21.085
		c0-11.405-8.457-14.242-12.518-14.242c-5.73,0-10.96,4.729-10.96,11.516c0,4.34,2.114,9.014,7.844,9.014
		c3.561,0,3.672-2.394,4.562-2.394c0.111,0,0.612,0.056,0.612,0.668c0,1.558-2.893,4.284-7.121,4.284
		c-4.84,0-10.069-3.449-10.069-9.792c0-6.843,5.341-15.299,16.022-15.299c7.956,0,16.134,5.007,16.134,15.854
		c0,17.358-17.414,22.198-17.414,22.198s12.907,8.29,18.693,8.29c2.67,0,2.893-1.168,3.839-1.168c0.445,0,0.556,0.501,0.556,0.723
		c0,0.334-0.167,0.779-0.556,1.336c-1.001,1.334-3.449,2.614-5.842,2.614c-3.338,0-7.622-1.502-11.293-3.782
		c-5.786-3.617-10.793-7.121-10.793-7.121s-2.114,0.39-4.339,0.39c-3.561,0-8.567-0.834-8.567-2.726
		C149.711,366.225,150.101,365.668,150.657,365.668z"/>
	<path fill="#231F20" d="M189.825,354.098c2.336-5.563,6.342-7.845,8.123-7.845c2.392,0,4.228,3.06,4.228,3.06
		s0.501-2.836,0.779-3.949l1.391,0.223c-0.779,4.45-0.89,5.562-1.502,11.182c-0.667,5.953-1.335,21.53-1.335,22.754
		c0,1.28,0.333,1.392,1.613,1.392c0.556,0,1.391-0.056,2.225-0.056v1.334l-13.519,1.113l0.056-1.836
		c5.285-0.389,5.786,0.111,6.064-2.726l1.78-18.582c0,0-4.339,8.29-8.123,8.29c-2.226,0-3.394-3.172-3.394-6.231
		C188.212,360.328,188.824,356.489,189.825,354.098z M194.165,365.001c1.28,0,2.559-1.78,3.672-3.562
		c1.28-2.002,2.114-4.84,2.114-7.565c0-3.783-2.059-5.619-3.394-5.619c-2.67,0-5.229,6.731-5.229,10.515
		C191.327,363.609,193.107,365.001,194.165,365.001z"/>
	<path fill="#231F20" d="M227.88,366.503h1.613c1.892,0,2.17-0.11,2.281-1.669c2.114-30.376,2.17-30.71,2.17-30.932
		c0-0.891-0.39-0.946-2.893-0.946h-1.669v-1.78h13.686c9.736,0,12.74,5.508,12.74,10.014c0,3.004-1.279,8.067-9.902,9.402
		l9.791,13.575c0.835,1.168,1.725,2.336,3.505,2.336h2.503l-0.111,1.78h-9.124c-3.783-4.785-7.177-11.405-10.626-17.357h-0.779
		c-2.17,0-4.395-0.39-4.395-0.39l-0.946,13.907c0,0.334-0.056,0.725-0.056,1.058c0,0.556,0.167,1.001,1.224,1.001h4.673l-0.111,1.78
		h-13.63L227.88,366.503z M240.286,349.368c3.338,0,6.008-0.278,8.011-1.836c1.78-1.392,2.837-3.783,2.837-6.064
		c0-4.673-4.006-8.512-11.461-8.512c-1.168,0-1.78,0.056-1.835,0.778l-1.057,15.412
		C236.781,349.146,238.283,349.368,240.286,349.368z"/>
	<path fill="#231F20" d="M270.663,345.918c0.5,0,0.667,0.334,0.667,0.723c0,1.613-1.168,9.18-1.168,9.18s4.729-9.68,7.678-9.68
		c0.89,0,2.448,2.838,2.448,4.562c0,0.779-0.223,1.391-0.723,1.391c-0.835,0-1.391-1.391-2.504-1.391
		c-2.948,0-5.062,4.673-6.175,8.011c-1.112,3.394-1.057,5.285-1.335,8.734c-0.056,0.612-0.612,0.89-1.168,0.89h-1.279
		c-0.724,0-1.113-0.277-1.113-0.723c0.556-6.064,1.279-14.188,1.391-17.747c0-0.834-0.278-1.224-0.779-1.224
		c-0.612,0-2.726,0.945-3.394,1.224l-0.39-1.28C262.818,348.589,269.049,345.918,270.663,345.918z"/>
</g>
<g enable-background="new    ">
	<path fill="#9F392A" d="M247.66,412.115h14.214c11.77,0,15.114,5.659,15.114,10.548c0,4.565-4.245,7.91-8.232,9.068
		c7.203,1.606,9.776,7.331,9.776,12.22c0,2.701-0.836,5.401-2.894,7.268c-3.988,3.603-11.32,3.795-18.459,3.795h-9.133v-2.509h1.93
		c2.122,0,2.701-0.191,2.701-1.864v-33.638c0-2.187-1.029-2.315-3.344-2.315h-1.801L247.66,412.115z M257.886,450.126
		c0,1.801,0.9,2.058,4.181,2.058c9.068,0,10.355-5.209,10.355-8.683c0-9.004-9.197-10.612-14.664-10.612L257.886,450.126z
		 M264.189,431.023c4.373,0,6.817-4.373,6.817-7.59c0-3.408-2.766-8.488-11.191-8.488c-1.479,0-1.93,0.514-1.93,1.479v14.601
		L264.189,431.023L264.189,431.023z"/>
	<path fill="#9F392A" d="M294.609,429.352c7.011,0,10.677,5.981,10.677,8.232c0,0.708-0.772,0.965-1.029,0.965l-16.143,1.93
		c0,0.192-0.064,0.579-0.064,0.9c0,6.496,4.116,10.098,9.519,10.098c5.081,0,7.46-3.022,8.554-3.022
		c0.321,0,0.579,0.192,0.579,0.771c0,1.223-4.76,6.624-11.706,6.624c-9.069,0-11.77-7.652-11.77-12.604
		C283.226,434.883,288.242,429.352,294.609,429.352z M299.305,436.812c0,0-1.801-5.274-5.338-5.274
		c-2.572,0-5.017,2.444-5.724,6.688L299.305,436.812z"/>
	<path fill="#9F392A" d="M322.907,440.993v-3.859c0-2.508-0.386-4.565-4.311-4.565c-4.502,0-5.209,1.993-5.209,1.993
		c0.257,1.157,0.644,2.122,0.644,2.83c0,1.028-1.543,1.673-2.059,1.673c-1.286,0-1.479-1.545-1.479-2.315
		c0-1.415,1.994-7.203,11.255-7.203c1.479,0,5.66,0.45,5.66,5.146v12.026c0,2.767,0.45,4.824,4.181,5.854
		c0.45,0.129,0.579,0.321,0.579,0.515s-0.129,0.45-0.579,0.708c-1.479,0.965-3.666,2.251-3.858,2.315
		c-2.251-1.608-2.958-2.83-4.31-4.503c-1.673,2.252-4.695,4.115-7.524,4.115c-2.701,0-5.917-1.414-5.917-4.888
		C309.979,445.56,315.64,440.993,322.907,440.993z M318.341,452.248c3.795,0,4.566-2.122,4.566-3.537v-5.98
		c-5.338,0-8.426,3.407-8.426,6.237C314.481,450.704,315.511,452.248,318.341,452.248z"/>
	<path fill="#9F392A" d="M333.455,430.123c2.058-0.192,4.63-0.386,7.846-0.964v16.078c0,3.795,0.516,6.754,5.339,6.754
		c4.31,0,5.788-2.444,5.788-2.444v-15.693c0-1.735-0.45-1.93-1.286-1.93c-0.899,0-2.766,0.258-2.83,0.322l-0.191-1.994
		c2.829-0.192,5.272-0.515,8.811-1.093v18.716c0,4.759,0.193,5.08,1.158,5.08c0.578,0,1.543-0.321,2.895-0.707v2.059
		c-2.829,0.578-5.08,1.286-7.91,2.059c-0.064-1.479-0.193-2.958-0.45-4.566c0,0-3.859,4.182-8.232,4.182
		c-6.432,0-7.59-4.952-7.59-9.842v-12.67c0-1.351-0.32-1.606-1.222-1.606c-0.515,0-1.222,0.128-2.122,0.191v-1.931H333.455z"/>
	<path fill="#9F392A" d="M367.154,428.516c1.864-2.122,3.923-5.081,4.309-5.081c0.258,0,0.387,0.193,0.387,0.45v6.367h8.684
		l-0.387,3.087h-8.297v14.986c0,2.958,2.251,3.794,4.31,3.794c2.573,0,4.374-1.222,4.694-1.222c0.387,0,0.45,0.449,0.45,0.644
		c0,1.736-4.31,4.18-7.652,4.18c-4.566,0-6.305-3.087-6.305-6.881v-15.501h-3.087c-0.579,0-0.771-0.128-0.771-0.514
		C363.488,432.375,365.675,430.188,367.154,428.516z"/>
	<path fill="#9F392A" d="M395.324,429.352c7.01,0,10.676,5.981,10.676,8.232c0,0.708-0.771,0.965-1.028,0.965l-16.144,1.93
		c0,0.192-0.064,0.579-0.064,0.9c0,6.496,4.116,10.098,9.52,10.098c5.081,0,7.461-3.022,8.555-3.022
		c0.321,0,0.578,0.192,0.578,0.771c0,1.223-4.759,6.624-11.705,6.624c-9.068,0-11.77-7.652-11.77-12.604
		C383.94,434.883,388.957,429.352,395.324,429.352z M400.019,436.812c0,0-1.801-5.274-5.338-5.274c-2.571,0-5.017,2.444-5.724,6.688
		L400.019,436.812z M397.189,414.495h4.502l-5.531,10.419h-2.315L397.189,414.495z"/>
</g>
<g enable-background="new    ">
	<path fill="#231F20" d="M163.888,512.362v-2.296c0-1.491-0.229-2.717-2.563-2.717c-2.678,0-3.098,1.187-3.098,1.187
		c0.153,0.688,0.382,1.263,0.382,1.684c0,0.612-0.918,0.994-1.224,0.994c-0.765,0-0.88-0.918-0.88-1.377
		c0-0.842,1.186-4.284,6.694-4.284c0.88,0,3.366,0.269,3.366,3.062v7.152c0,1.646,0.268,2.869,2.487,3.48
		c0.268,0.077,0.344,0.19,0.344,0.307c0,0.114-0.077,0.269-0.344,0.421c-0.88,0.573-2.181,1.34-2.295,1.377
		c-1.339-0.955-1.76-1.684-2.563-2.678c-0.995,1.339-2.792,2.448-4.476,2.448c-1.607,0-3.52-0.842-3.52-2.907
		C156.199,515.078,159.565,512.362,163.888,512.362z M161.172,519.057c2.257,0,2.716-1.263,2.716-2.104v-3.559
		c-3.175,0-5.011,2.027-5.011,3.712C158.876,518.138,159.489,519.057,161.172,519.057z"/>
	<path fill="#231F20" d="M176.816,493.044v14.804c0.574-0.421,2.524-2.41,5.394-2.41c4.782,0,7,3.481,7,7.154
		c0,4.131-2.792,8.454-7.88,8.454c-2.64,0-4.552-1.147-5.126-1.147c-0.574,0-1.186,0.88-1.76,0.88c-0.191,0-0.42-0.191-0.42-0.88
		c0-0.535,0.115-2.065,0.115-5.127v-18.743c0-0.843-0.191-1.147-0.536-1.147c-0.229,0-0.459,0.038-2.181,0.421l-0.115-1.186
		C173.105,493.809,174.903,493.426,176.816,493.044z M180.909,519.668c2.104,0,5.547-0.841,5.547-5.699
		c0-6.006-4.246-6.465-5.241-6.465c-2.831,0-4.399,1.415-4.399,1.415v8.033C176.816,518.788,179.035,519.668,180.909,519.668z"/>
</g>
<g enable-background="new    ">
	<path fill="#231F20" d="M204.547,505.361c3.596,0,5.853,1.95,5.853,2.523c0,0.805-2.027,1.148-2.333,1.148
		c-1.224,0-2.525-2.144-4.208-2.144c-2.907,0-3.634,3.825-3.634,5.931c0,4.667,3.251,6.082,5.585,6.082
		c3.481,0,4.361-0.918,4.935-0.918c0.229,0,0.306,0.19,0.306,0.344c0,0.804-3.175,2.869-6.35,2.869
		c-5.738,0-7.192-3.901-7.192-7.459C197.508,509.607,199.918,505.361,204.547,505.361z"/>
</g>
<g enable-background="new    ">
	<path fill="#231F20" d="M224.246,505.591c2.907,0,4.935,1.685,4.935,1.685v-11.4c0-0.803-0.153-1.07-0.536-1.07
		c-0.268,0-0.995,0.152-2.525,0.497l-0.076-1.186c1.875-0.345,2.333-0.46,5.814-1.378v25.286c0,1.224,0.038,1.645,0.497,1.645
		c0.383,0,1.109-0.344,2.41-0.688v1.032c-1.224,0.345-2.257,0.688-5.508,1.684c0-1.339,0.038-2.219,0.038-2.792
		c0-0.307,0-0.497-0.038-0.612c-0.039,0.038-2.104,2.869-5.7,2.869c-3.71,0-6.809-3.022-6.809-7.536
		C216.748,509.034,220.574,505.591,224.246,505.591z M225.546,518.979c2.295,0,3.634-1.529,3.634-1.529v-8.226
		c0,0-1.798-2.447-4.935-2.447c-2.602,0-4.706,2.296-4.706,5.509C219.541,515.767,221.798,518.979,225.546,518.979z"/>
	<path fill="#231F20" d="M244.633,505.438c4.17,0,6.35,3.559,6.35,4.896c0,0.421-0.459,0.574-0.612,0.574l-9.602,1.146
		c0,0.115-0.038,0.346-0.038,0.536c0,3.863,2.448,6.006,5.662,6.006c3.022,0,4.438-1.799,5.088-1.799
		c0.191,0,0.344,0.115,0.344,0.46c0,0.728-2.831,3.939-6.962,3.939c-5.394,0-7-4.553-7-7.497
		C237.862,508.728,240.846,505.438,244.633,505.438z M247.425,509.875c0,0-1.071-3.137-3.175-3.137c-1.53,0-2.984,1.454-3.405,3.979
		L247.425,509.875z"/>
</g>
<g enable-background="new    ">
	<path fill="#231F20" d="M259.893,505.706h2.333v-4.132c0-2.104,0.115-5.509,3.749-7.767c0.918-0.572,2.104-0.803,3.175-0.803
		c1.607,0,2.946,0.497,2.946,1.377c0,0.611-1.224,2.486-1.989,2.486c-0.65,0-0.918-2.295-2.333-2.295
		c-2.716,0-2.869,5.011-2.869,6.082v5.05h4.285l-0.421,1.836h-3.864v10.787c0,1.033,0.077,1.146,2.41,1.146h0.535l-0.038,1.226
		h-7.957l-0.039-1.226h0.803c1.377,0,1.607-0.113,1.607-1.031v-10.902h-2.792L259.893,505.706z"/>
</g>
<g enable-background="new    ">
	<path fill="#231F20" d="M278.519,521.466c0,0-3.71-0.459-3.71-2.371c0-1.988,3.558-2.716,3.558-2.716s-3.596-1.071-3.596-5.203
		c0-3.137,2.907-5.775,6.044-5.775c3.213,0,3.099,1.567,5.585,1.567c1.875,0,1.836-0.727,2.18-1.301h0.804v0.957
		c0,1.798-0.077,2.065-1.53,2.065h-0.612c-0.803,0-1.033,0-1.033,0.114c0,0.307,0.88,0.841,0.88,2.64
		c0,2.793-2.525,5.316-6.273,5.316c-2.028,0-3.29,0.536-3.29,1.377c0,0.957,1.262,0.957,2.486,0.957h0.153
		c0.803,0,1.683-0.038,2.601-0.038c5.011,0,6.962,1.646,6.962,4.284c0,3.596-4.131,7.421-10.291,7.421
		c-2.869,0-6.235-1.301-6.235-4.208C273.202,522.69,278.519,521.466,278.519,521.466z M280.585,529.002
		c3.022,0,6.465-1.53,6.465-4.629c0-2.409-2.41-2.83-4.782-2.83c-3.711,0-6.121,2.448-6.121,4.552
		C276.147,527.663,277.448,529.002,280.585,529.002z M281.12,515.575c1.377,0,2.716-1.301,2.716-4.018
		c0-3.137-1.607-4.742-3.137-4.742c-1.416,0-2.754,1.377-2.754,4.093C277.945,514.007,279.59,515.575,281.12,515.575z"/>
	<path fill="#231F20" d="M293.78,519.477c1.301,0,1.76-0.037,1.76-0.879v-22.724c0-0.918-0.191-1.147-0.612-1.147
		c-0.229,0-1.109,0.153-1.568,0.229v-1.339c1.186-0.114,2.64-0.344,4.858-0.688v15.493c0.995-0.804,3.175-2.831,5.623-2.831
		c3.597,0,3.673,3.137,3.673,6.159v6.618c0,1.032,0.076,1.107,1.646,1.107h0.612v1.226h-7.346l-0.039-1.226H303
		c1.454,0,1.836-0.075,1.836-1.069v-7.767c0-2.257-1.454-2.906-2.601-2.906c-1.951,0-4.017,1.836-4.017,1.836v9.027
		c0,0.804,0.382,0.879,1.951,0.879h0.689l-0.039,1.226h-7.421l-0.039-1.226L293.78,519.477L293.78,519.477z"/>
	<path fill="#231F20" d="M318.949,505.17v13.274c0,0.918,0.114,1.031,2.372,1.031h0.688v1.226h-8.302v-1.226h0.345
		c1.912,0,2.22-0.075,2.22-0.879v-10.214c0-0.995-0.153-1.225-0.574-1.225c-0.191,0-0.918,0.077-2.104,0.307l-0.038-1.147
		C315.238,506.05,316.845,505.744,318.949,505.17z M318.031,496.372c0.421,0,1.645,1.032,1.645,1.645
		c0,0.535-1.224,1.685-1.645,1.685c-0.688,0-1.606-1.264-1.606-1.723C316.425,497.366,317.534,496.372,318.031,496.372z"/>
	<path fill="#231F20" d="M324.304,527.319c0.574,0,1.453,1.645,2.065,1.645c1.301,0,1.76-1.951,1.76-5.202v-14.957
		c0-0.995-0.038-1.567-0.842-1.567c-0.269,0-0.803,0.151-1.684,0.344l-0.19-1.147c1.683-0.268,2.907-0.611,5.394-1.186v17.29
		c0,4.246-0.842,5.7-2.142,6.656c0,0-1.837,1.491-3.443,1.491c-1.301,0-2.982-0.918-2.982-1.491
		C322.238,528.391,323.462,527.319,324.304,527.319z M329.276,496.372c0.421,0,1.646,1.032,1.646,1.645
		c0,0.535-1.225,1.685-1.646,1.685c-0.688,0-1.606-1.264-1.606-1.723C327.67,497.366,328.779,496.372,329.276,496.372z"/>
</g>
<g enable-background="new    ">
	<path fill="#231F20" d="M348.746,492.967v20.084l7.001-5.7c0.191-0.152,0.268-0.268,0.268-0.345c0-0.229-0.497-0.268-0.804-0.268
		h-1.146v-1.032h6.158l-0.038,1.032h-0.573c-0.728,0-1.147,0.077-2.104,0.842l-5.433,4.322l5.7,6.655
		c0.727,0.843,0.572,0.918,1.722,0.918h1.032l-0.038,1.226h-4.515l-5.968-7.345l-1.339,1.032v4.131c0,0.881,0.229,0.956,1.989,0.956
		h1.032l0.039,1.226h-7.844v-1.226h0.421c1.761,0,1.761-0.038,1.761-0.841V496.64c0-1.301-0.038-1.798-0.573-1.798
		c-0.153,0-0.918,0.152-1.646,0.344l-0.075-1.224C345.15,493.694,346.604,493.426,348.746,492.967z"/>
</g>
<g enable-background="new    ">
	<path fill="#231F20" d="M371.275,492.929v25.517c0,0.956,0.421,1.031,2.447,1.031h0.65v1.226h-8.339v-1.226h0.841
		c1.263,0,1.722-0.075,1.722-1.031V496.64c0-1.605-0.075-1.913-0.688-1.913c-0.114,0-1.453,0.229-2.182,0.384l-0.075-1.302
		C367.604,493.541,369.401,493.273,371.275,492.929z"/>
</g>
<g enable-background="new    ">
	<path fill="#231F20" d="M379.461,506.356c1.646-0.229,5.355-1.071,5.355-1.071s-0.076,1.301-0.076,2.792
		c0.61-0.344,2.869-2.486,5.394-2.486c2.295,0,2.907,2.181,2.983,2.448c1.225-0.918,3.328-2.448,5.316-2.448
		c3.443,0,3.674,2.945,3.674,5.05v7.88c0,0.919,0.19,0.956,2.104,0.956h0.383v1.226h-7.422v-1.226c1.989,0,2.258,0,2.258-0.918
		v-7.918c0-2.41-0.766-2.906-2.334-2.906c-2.333,0-3.787,1.262-3.787,1.262s0.153,1.187,0.153,2.755v7.077
		c0,0.61,0.153,0.648,1.912,0.648h0.345v1.226h-7.269l-0.038-1.226h0.459c1.492,0,1.913-0.038,1.913-0.61v-8.226
		c0-1.913-0.688-2.907-2.41-2.907c-1.836,0-3.558,1.225-3.558,1.225v9.679c0,0.766,0.037,0.841,2.026,0.841h0.191v1.226h-7.46
		l-0.038-1.226h1.071c1.225,0,1.529-0.075,1.529-0.841v-9.449c0-1.567,0-2.026-0.611-2.026c-0.384,0-1.032,0.19-2.065,0.383
		L379.461,506.356L379.461,506.356z"/>
</g>
<g enable-background="new    ">
	<path fill="#231F20" d="M156.199,565.375c1.722,0,1.722-0.076,1.722-1.3v-9.104c0-1.567-0.039-1.913-0.574-1.913
		c-0.306,0-0.421,0.077-1.454,0.308v-1.188l4.705-0.956c-0.077,0.918-0.115,1.302-0.115,2.716c0.612-0.268,2.716-2.447,5.776-2.447
		c3.596,0,3.634,3.137,3.634,6.159v6.578c0,1.147,0.536,1.147,2.333,1.147l-0.038,1.225h-7.115l-0.038-1.225h0.88
		c1.071,0,1.3-0.076,1.3-1.147v-7.688c0-2.181-0.765-2.907-2.486-2.907c-1.836,0-4.131,1.225-4.131,1.225v9.22
		c0,1.186,0,1.3,2.295,1.3h0.498l-0.077,1.225h-7.459l-0.038-1.225h0.382V565.375z"/>
	<path fill="#231F20" d="M183.128,551.26c6.426,0,8.033,4.936,8.033,8.301c0,4.285-3.061,7.613-7.957,7.613
		c-5.164,0-7.65-4.17-7.65-8.034C175.554,555.162,177.887,551.26,183.128,551.26z M183.702,565.682c3.137,0,4.246-3.061,4.246-6.234
		c0-4.629-2.41-6.887-5.164-6.887c-2.219,0-4.17,1.913-4.17,5.661C178.614,561.741,180.565,565.682,183.702,565.682z"/>
	<path fill="#231F20" d="M196.782,574.365v-19.969c0-0.804-0.229-1.071-0.612-1.071c-0.344,0-0.918,0.229-1.722,0.383l-0.038-1.224
		c1.416-0.27,3.06-0.729,5.049-1.264v3.138c0,0,2.792-2.831,5.7-2.831c3.634,0,6.351,3.404,6.351,7.383
		c0,4.667-2.908,8.147-7.307,8.147c-2.678,0-4.744-0.649-4.744-0.649v7.919c0,0.918,0.612,0.956,3.022,0.956h0.574l-0.039,1.225
		h-8.798l-0.038-1.225C196.515,575.283,196.782,575.207,196.782,574.365z M204.089,565.796c3.787,0,4.705-3.634,4.705-5.661
		c0-3.52-2.372-6.351-5.355-6.351c-2.142,0-3.596,1.454-3.979,1.76v8.952C199.46,564.496,201.411,565.796,204.089,565.796z"/>
	<path fill="#231F20" d="M223.902,551.336c2.678,0,4.706,1.378,5.126,1.378c0.803,0,0.88-1.263,0.88-1.263h0.765
		c-0.115,2.448-0.344,4.361-0.344,10.099v12.165c0,1.492,0.038,1.568,2.104,1.568h0.688v1.225h-9.64l-0.115-1.225h1.339
		c2.295,0,2.946-0.153,2.946-1.301v-9.603c-1.53,1.109-3.022,2.486-5.394,2.486c-4.437,0-6.809-3.597-6.809-7.308
		C215.448,554.396,219.809,551.336,223.902,551.336z M223.94,564.534c2.372,0,3.519-1.875,3.71-2.066v-8.301
		c0,0-1.951-1.415-4.055-1.415c-3.902,0-5.508,3.251-5.508,5.355C218.087,561.55,221.033,564.534,223.94,564.534z"/>
	<path fill="#231F20" d="M241.267,551.068v4.322c0.115-0.152,1.875-3.901,4.093-3.901c1.606,0,2.104,0.956,2.104,0.956l-1.454,3.787
		l-0.612-0.229v-0.497c0-0.612-0.382-0.88-0.918-0.88c-1.224,0-3.137,1.225-3.137,2.716v6.465c0,1.416,0.191,1.568,2.41,1.568h1.645
		v1.225h-9.143v-1.225h0.727c1.568,0,1.683-0.076,1.683-1.568v-9.333c0-1.032-0.077-1.378-0.536-1.378
		c-0.344,0-1.53,0.27-2.333,0.421l-0.115-1.186C237.288,552.025,236.447,552.255,241.267,551.068z"/>
</g>
<g enable-background="new    ">
	<path fill="#231F20" d="M261.615,561.129l0.383,3.176c0,0,2.027,1.491,4.208,1.491c1.53,0,2.219-1.186,2.219-2.18
		c0-1.416-1.224-2.258-2.639-3.176l-1.377-0.918c-1.568-1.032-2.869-2.296-2.869-4.246c0-2.065,2.027-3.825,4.667-3.825
		c1.913,0,2.946,0.688,3.328,0.688c0.306,0,0.344-0.345,0.344-1.146l1.224,0.038v5.775h-1.224l-0.038-2.716
		c0,0-1.224-1.263-3.596-1.263c-1.071,0-2.181,0.804-2.181,1.836c0,1.187,0.957,1.76,2.104,2.563l1.722,1.146
		c1.798,1.225,3.366,2.372,3.366,4.399c0,2.257-1.645,4.321-4.973,4.321c-1.76,0-3.481-0.497-3.749-0.497
		c-0.268,0-0.344,0.229-0.344,0.497c0,0.115,0.039,0.229,0.039,0.383l-1.109,0.076l-0.688-6.35L261.615,561.129z"/>
	<path fill="#231F20" d="M277.986,550.839c1.109-1.262,2.333-3.021,2.563-3.021c0.153,0,0.229,0.113,0.229,0.268v3.787h5.165
		l-0.229,1.836h-4.935v8.913c0,1.76,1.339,2.257,2.563,2.257c1.53,0,2.602-0.727,2.792-0.727c0.229,0,0.268,0.268,0.268,0.383
		c0,1.032-2.563,2.486-4.552,2.486c-2.716,0-3.749-1.836-3.749-4.094v-9.22h-1.836c-0.344,0-0.459-0.076-0.459-0.306
		C275.806,553.135,277.106,551.834,277.986,550.839z"/>
</g>
<g enable-background="new    ">
	<path fill="#231F20" d="M293.246,551.795c1.224-0.114,2.754-0.229,4.667-0.573v9.563c0,2.257,0.306,4.017,3.175,4.017
		c2.563,0,3.443-1.454,3.443-1.454v-9.334c0-1.031-0.268-1.146-0.765-1.146c-0.535,0-1.645,0.153-1.683,0.19l-0.115-1.186
		c1.683-0.115,3.137-0.307,5.241-0.65v11.133c0,2.831,0.114,3.021,0.688,3.021c0.345,0,0.918-0.189,1.722-0.42v1.224
		c-1.684,0.346-3.021,0.767-4.705,1.226c-0.039-0.88-0.115-1.76-0.268-2.717c0,0-2.295,2.486-4.896,2.486
		c-3.825,0-4.514-2.945-4.514-5.854v-7.536c0-0.803-0.191-0.956-0.727-0.956c-0.306,0-0.727,0.076-1.262,0.115V551.795
		L293.246,551.795z"/>
</g>
<g enable-background="new    ">
	<path fill="#231F20" d="M314.705,551.604h6.886l-0.038,1.225h-0.536c-0.841,0-1.301,0.038-1.301,0.536
		c0,0.268,0.153,0.648,0.421,1.339l3.405,8.109c1.453-3.481,2.562-5.738,3.251-7.23c0.497-1.07,0.766-1.721,0.766-2.18
		c0-0.574-0.535-0.574-1.684-0.574h-0.114v-1.224h5.278v1.224h-0.229c-1.301,0-1.377,0.421-3.213,4.514l-4.476,9.946l-0.536-0.038
		l-5.395-12.356c-0.88-1.988-0.993-2.064-2.485-2.064V551.604L314.705,551.604z"/>
</g>
<g enable-background="new    ">
	<path fill="#231F20" d="M336.162,551.604h8.033l-0.038,1.225h-1.147c-0.611,0-1.146,0.076-1.146,0.65
		c0,0.345,0.189,0.765,0.382,1.225l3.558,8.301l4.056-8.837c-0.497-1.186-0.956-1.339-1.988-1.339h-1.416l-0.076-1.224h8.263v1.224
		c-1.491,0-2.026,0.038-2.026,0.574c0,0.229,0.152,0.61,0.344,1.108l3.558,8.454l4.095-8.646c0.19-0.421,0.306-0.728,0.306-0.956
		c0-0.421-0.421-0.536-1.683-0.536h-0.995v-1.224h6.771l0.038,1.224c-1.146,0-2.027,0-2.64,1.263l-6.352,13.159l-0.841-0.038
		l-4.629-11.398l-5.164,11.476l-0.804-0.038l-5.317-12.356c-0.88-2.064-0.727-2.064-3.137-2.064v-1.226H336.162z"/>
</g>
<g enable-background="new    ">
	<path fill="#231F20" d="M370.167,565.375h0.306c1.148,0,1.569-0.076,2.831-1.3l4.82-4.82l-4.935-5.241
		c-0.805-0.841-1.071-1.186-2.563-1.186v-1.225h8.301v1.225h-0.765c-1.109,0-1.798,0.038-1.798,0.421
		c0,0.153,0.152,0.421,0.421,0.765l2.982,3.443l3.062-3.214c0.459-0.497,0.727-0.841,0.727-1.032c0-0.268-0.611-0.383-1.721-0.383
		v-1.224h6.732v1.224c-2.334,0-2.297,0-3.559,1.263l-4.323,4.284l5.317,5.623c1.301,1.339,1.225,1.377,2.602,1.377h0.114v1.225
		h-7.727v-1.225c1.491,0,1.95-0.152,1.95-0.459c0-0.268-0.421-0.648-0.766-1.032l-3.175-3.711l-3.825,4.056
		c-0.345,0.383-0.498,0.611-0.498,0.766c0,0.344,0.688,0.382,1.798,0.382h0.919v1.226h-7.269L370.167,565.375z"/>
	<path fill="#231F20" d="M393.232,573.18c0.19,0,0.803,0.076,1.108,0.076c0.766,0,1.874-1.339,4.208-5.853l1.147-2.22l-4.782-10.291
		c-0.918-1.988-0.688-2.064-2.678-2.064l-0.076-1.225h7.307l-0.077,1.225h-0.649c-0.879,0-1.339,0.038-1.339,0.536
		c0,0.344,0.269,0.879,0.46,1.339l3.251,7.306l2.41-5.432c0.727-1.606,1.263-2.831,1.263-3.213c0-0.498-0.498-0.536-1.685-0.536
		h-0.534v-1.225h6.234v1.225h-0.918c-1.339,0-1.263,0.229-2.065,2.026l-5.814,12.854c-3.939,8.684-5.354,8.799-6.694,8.799
		c-0.955,0-1.529-0.766-1.529-1.722C391.778,573.639,392.429,573.18,393.232,573.18z"/>
</g>
<g enable-background="new    ">
	<path fill="#231F20" d="M416.982,564.802l9.906-10.711h-7.804c-1.3,0-1.3,0.038-1.605,2.41l-0.994-0.039l0.61-5.432h0.957
		c0,0.688-0.038,0.765,0.843,0.765h10.29c1.031,0,1.301,0.077,1.301,0.27c0,0.268-0.612,0.688-1.454,1.645l-9.678,10.559h8.186
		c1.339,0,1.454-0.114,1.722-3.442h1.264c-0.077,1.377-0.269,3.137-0.421,5.775h-13.083c-0.688,0-1.109,0-1.109-0.383
		C415.911,565.873,416.447,565.375,416.982,564.802z"/>
</g>
<g enable-background="new    ">
	<path fill="#FFFFFF" d="M209.802,611.312c3.602,0,6.598,2.551,6.598,6.375c0,3.697-2.709,6.918-6.694,6.918
		c-3.57,0-6.694-2.551-6.694-6.407C203.012,614.692,205.562,611.312,209.802,611.312z M209.833,623.203
		c2.55,0,5.037-2.104,5.037-5.164c0-2.646-2.104-5.292-5.228-5.292c-2.614,0-5.068,2.104-5.068,5.164
		C204.574,620.621,206.742,623.203,209.833,623.203z"/>
	<path fill="#FFFFFF" d="M223.54,623.298h1.211c1.785,0,1.817-0.095,1.817-0.987v-8.287c0-0.446,0-0.988-1.083-0.988h-1.881v-0.988
		h3.315c1.18,0,1.116-0.318,1.307-0.924h0.701c0,0-0.127,3.314-0.127,6.343v4.877c0,0.861,0.319,0.956,1.434,0.956h1.722v1.021
		h-8.416V623.298L223.54,623.298z"/>
	<path fill="#FFFFFF" d="M247.096,615.616c0-1.466-1.339-2.806-3.188-2.806c-2.742,0-2.837,1.689-3.411,1.689
		c-0.255,0-0.319-0.128-0.319-0.319c0-1.273,1.785-2.867,5.004-2.867c3.347,0,4.622,2.454,4.622,3.568
		c0,2.296-1.658,4.049-3.379,5.292c-2.136,1.562-3.984,2.55-3.984,2.709c0,0.063,0.191,0.097,0.382,0.097
		c5.355,0,7.841-1.626,8.511-1.626c0.16,0,0.255,0.063,0.255,0.286c0,0.191-0.51,2.296-0.701,2.486
		c-0.096,0.096-0.063,0.191-1.434,0.191h-10.456c-0.223,0-0.446-0.032-0.446-0.255C238.553,623.489,247.096,619.346,247.096,615.616
		z"/>
	<path fill="#FFFFFF" d="M257.646,630.917c0.382,0,1.371,0.478,3.347,0.478c2.614,0,5.833-1.721,5.833-5.1
		c0-3.314-2.455-4.017-3.347-4.176s-1.594,0.031-1.594-0.51c0-0.829,1.625-0.384,2.837-2.072c0.797-1.116,0.861-2.614,0.861-2.773
		c0-1.242-0.861-3.441-3.06-3.441c-2.805,0-3.22,1.435-3.953,1.435c-0.255,0-0.383-0.19-0.383-0.479c0-0.573,1.562-2.9,5.196-2.9
		c2.614,0,4.526,1.657,4.526,4.367c0,3.729-3.219,5.067-3.219,5.067s4.877,0.479,4.877,5.26c0,4.653-4.813,6.63-8.383,6.63
		c-1.435,0-3.984-0.255-3.984-1.338C257.199,631.013,257.422,630.917,257.646,630.917z"/>
	<path fill="#FFFFFF" d="M278.778,621.386l9.722-9.658c0.223-0.224,0.351-0.351,0.446-0.351c0.191,0,0.255,0.351,0.255,0.765v10.2
		h3.729l-0.669,1.978h-3.06v7.459l-2.263,0.956v-8.415H276.61c-0.223,0-0.446,0-0.446-0.224
		C276.165,624.031,276.961,623.203,278.778,621.386z M286.938,622.342v-7.427l-7.458,7.427H286.938z"/>
	<path fill="#FFFFFF" d="M298.892,630.471c0.287,0,0.414,0.159,0.701,0.318c0.797,0.542,2.231,0.574,3.634,0.574
		c3.124,0,5.578-2.997,5.578-5.961c0-5.261-4.526-6.152-7.076-6.152c-0.446,0-0.893,0.062-1.371,0.096
		c0-3.824-0.415-6.979-0.415-7.045c0-0.286,0.159-0.382,0.478-0.382c0.829,0,3.188,0.127,4.686,0.127
		c1.02,0,2.072-0.062,3.347-0.255c0.51-0.062,0.542-1.243,0.542-1.243l0.765,0.097l-0.382,2.71c-0.096,0.669-0.256,0.924-0.67,0.924
		c-1.275,0-5.865-0.766-6.279-0.766c-0.765,0-1.147,0.925-1.147,3.635c0,1.02,0.191,1.02,0.797,1.02c0.637,0,1.498-0.19,2.263-0.19
		c4.017,0,7.077,1.754,7.077,7.045c0,2.391-1.562,7.555-8.097,7.555c-3.698,0-4.75-1.402-4.75-1.722
		C298.573,630.566,298.732,630.471,298.892,630.471z"/>
	<path fill="#FFFFFF" d="M327.802,603.472c0.511,0,2.773,0.384,2.773,1.053c0,0.255-0.255,0.383-0.446,0.383
		c-0.255,0-0.797-0.225-1.594-0.225c-1.115,0-2.199,0.352-3.124,0.894c-4.367,2.486-4.303,8.288-4.559,8.894
		c1.308-2.295,3.442-2.899,4.749-2.899c4.526,0,5.643,3.696,5.643,5.864c0,4.653-2.677,7.235-5.929,7.235
		c-4.463,0-6.854-4.176-6.854-9.371C318.463,608.763,322.925,603.472,327.802,603.472z M325.794,623.521
		c1.657,0,2.965-1.627,2.965-4.719c0-3.569-1.85-5.609-4.271-5.609c-2.01,0-3.411,1.722-3.411,3.603
		C321.076,620.557,323.595,623.521,325.794,623.521z"/>
	<path fill="#FFFFFF" d="M338.417,612.078c0.031-0.191,0.318-0.191,0.638-0.191h9.978c0.445,0,0.542,0,0.542,0.383
		c0,4.049-3.57,17.596-4.877,19.986c-0.159,0.255-0.225,0.352-0.352,0.352c-0.255,0-1.626-0.319-1.881-0.415
		c-0.255-0.063-0.383-0.159-0.383-0.318c0-0.893,1.594-1.849,4.24-9.817c1.211-3.569,1.815-7.173,1.815-7.938
		c0-0.383-0.317-0.446-0.765-0.446c-1.084,0-4.239,0.287-5.993,0.574c-2.008,0.318-2.678,0.765-2.933,0.765
		c-0.256,0-0.352-0.128-0.352-0.638S338.226,612.971,338.417,612.078z"/>
	<path fill="#FFFFFF" d="M361.939,613.735c-2.137-1.243-3.763-3.22-3.763-5.323c0-3.123,2.455-5.068,5.865-5.068
		c2.741,0,5.387,2.04,5.387,4.495c0,3.57-3.952,5.323-3.952,5.323c0.766,0.446,4.749,2.199,4.749,5.515
		c0,3.188-2.646,5.96-6.438,5.96c-3.506,0-6.438-2.008-6.438-5.291C357.35,615.808,361.525,614.021,361.939,613.735z
		 M364.075,623.426c2.295,0,4.11-1.785,4.11-3.983c0-2.392-2.07-3.315-5.387-5.261c0,0-3.538,2.04-3.538,5.006
		C359.262,621.832,361.876,623.426,364.075,623.426z M364.298,612.588c0,0,3.315-1.435,3.315-4.271c0-2.009-2.008-3.729-3.984-3.729
		c-2.741,0-3.411,1.689-3.411,3.188C360.218,610.517,364.298,612.588,364.298,612.588z"/>
</g>
<g enable-background="new    ">
	<path fill="#FFFFFF" d="M389.128,611.568c4.208,0,6.98,3.124,6.98,8.957c0,6.246-4.08,12.049-9.596,12.049
		c-1.912,0-2.677-0.51-2.677-0.733c0-0.446,0.318-0.542,0.828-0.542c0.446,0,0.861,0.159,1.467,0.159c4.877,0,7.3-5.674,7.3-9.275
		c0,0-1.371,2.358-4.495,2.358c-4.907,0-5.801-4.398-5.801-6.727C383.136,613.99,385.781,611.568,389.128,611.568z M390.18,622.788
		c2.168,0,3.252-1.689,3.252-3.475c0-3.314-2.104-6.727-4.653-6.727c-1.084,0-3.283,1.243-3.283,4.431
		C385.494,618.421,386.195,622.788,390.18,622.788z"/>
</g>
</svg>
