<?xml version="1.0" encoding="utf-8"?>
<!-- Generator: Adobe Illustrator 16.0.4, SVG Export Plug-In . SVG Version: 6.00 Build 0)  -->
<!DOCTYPE svg PUBLIC "-//W3C//DTD SVG 1.1//EN" "http://www.w3.org/Graphics/SVG/1.1/DTD/svg11.dtd">
<svg version="1.1" id="Layer_1" xmlns="http://www.w3.org/2000/svg" xmlns:xlink="http://www.w3.org/1999/xlink" x="0px" y="0px" viewBox="0 89.5 612 612" enable-background="new 0 89.5 612 612" xml:space="preserve">
<rect y="90" fill="#DCDBC7" width="612" height="612"/>
<g enable-background="new    ">
	<path fill="#231F20" d="M76.808,212.349c3.296,3.436,7.924,5.75,12.693,5.75c6.031,0,9.607-3.016,9.607-7.504
		c0-4.699-3.296-6.171-7.644-8.135l-6.592-2.875c-4.348-1.823-9.327-5.12-9.327-11.852c0-7.013,6.102-12.203,14.447-12.203
		c5.47,0,10.309,2.314,13.605,5.681l-3.156,3.787c-2.805-2.665-6.171-4.348-10.449-4.348c-5.12,0-8.556,2.595-8.556,6.732
		c0,4.418,3.997,6.101,7.644,7.644l6.522,2.805c5.33,2.314,9.467,5.47,9.467,12.273c0,7.293-5.961,13.114-15.639,13.114
		c-6.452,0-12.132-2.665-16.13-6.803L76.808,212.349z"/>
	<path fill="#231F20" d="M126.807,187.453c8.346,0,15.779,6.522,15.779,17.953c0,11.291-7.434,17.813-15.779,17.813
		c-8.345,0-15.779-6.522-15.779-17.813C111.028,193.975,118.461,187.453,126.807,187.453z M126.807,218.45
		c5.891,0,9.818-5.26,9.818-13.044c0-7.854-3.927-13.185-9.818-13.185c-5.82,0-9.818,5.33-9.818,13.185
		C116.989,213.19,120.986,218.45,126.807,218.45z"/>
	<path fill="#231F20" d="M151.069,188.294h5.821v20.829c0,6.382,1.894,9.117,6.382,9.117c3.506,0,5.961-1.753,9.187-5.75v-24.195
		h5.751v34.083h-4.769l-0.491-5.33h-0.21c-3.156,3.717-6.522,6.172-11.221,6.172c-7.223,0-10.449-4.629-10.449-13.325V188.294z"/>
	<path fill="#231F20" d="M189.707,188.294h4.769l0.491,6.171h0.21c2.314-4.278,5.821-7.013,9.678-7.013
		c1.473,0,2.525,0.21,3.647,0.701l-1.122,5.049c-1.122-0.351-1.894-0.561-3.296-0.561c-2.875,0-6.312,2.104-8.625,7.854v21.88
		h-5.751V188.294z"/>
	<path fill="#231F20" d="M227.224,187.453c4.488,0,7.644,1.894,9.958,4.067l-2.875,3.717c-2.034-1.753-4.138-3.016-6.873-3.016
		c-6.171,0-10.66,5.33-10.66,13.185c0,7.784,4.278,13.044,10.52,13.044c3.226,0,5.961-1.613,7.995-3.437l2.595,3.787
		c-3.086,2.735-7.013,4.418-11.081,4.418c-9.046,0-15.989-6.522-15.989-17.813C210.814,193.975,218.458,187.453,227.224,187.453z"/>
	<path fill="#231F20" d="M256.606,187.453c8.696,0,13.605,6.241,13.605,15.989c0,1.192-0.07,2.314-0.21,3.156h-23.002
		c0.421,7.364,4.839,11.992,11.361,11.992c3.226,0,5.961-1.052,8.485-2.665l2.034,3.787c-2.945,1.894-6.592,3.507-11.221,3.507
		c-9.117,0-16.34-6.663-16.34-17.813C241.318,194.255,248.822,187.453,256.606,187.453z M265.162,202.811
		c0-6.943-3.085-10.8-8.416-10.8c-4.769,0-9.117,3.927-9.818,10.8H265.162z"/>
	<path fill="#231F20" d="M293.49,212.349c3.296,3.436,7.924,5.75,12.693,5.75c6.031,0,9.607-3.016,9.607-7.504
		c0-4.699-3.296-6.171-7.644-8.135l-6.593-2.875c-4.348-1.823-9.327-5.12-9.327-11.852c0-7.013,6.102-12.203,14.446-12.203
		c5.471,0,10.31,2.314,13.605,5.681l-3.155,3.787c-2.806-2.665-6.172-4.348-10.45-4.348c-5.119,0-8.555,2.595-8.555,6.732
		c0,4.418,3.997,6.101,7.644,7.644l6.522,2.805c5.329,2.314,9.467,5.47,9.467,12.273c0,7.293-5.961,13.114-15.639,13.114
		c-6.452,0-12.132-2.665-16.13-6.803L293.49,212.349z"/>
	<path fill="#231F20" d="M349.521,200.777c0-4.348-1.473-8.556-7.013-8.556c-3.998,0-7.504,1.824-10.169,3.647l-2.314-3.998
		c3.156-2.034,7.925-4.418,13.395-4.418c8.346,0,11.853,5.54,11.853,14.026v20.898h-4.77l-0.49-4.067h-0.141
		c-3.296,2.665-7.083,4.909-11.291,4.909c-5.75,0-10.028-3.577-10.028-9.678C328.552,206.107,335.004,202.39,349.521,200.777z
		 M340.193,218.59c3.296,0,6.031-1.613,9.327-4.558v-9.468c-11.431,1.403-15.288,4.208-15.288,8.556
		C334.232,216.977,336.827,218.59,340.193,218.59z"/>
	<path fill="#231F20" d="M366.14,188.294h4.769l0.491,4.909h0.21c3.226-3.226,6.732-5.75,11.431-5.75
		c7.153,0,10.38,4.628,10.38,13.325v21.6h-5.751v-20.829c0-6.381-1.964-9.117-6.452-9.117c-3.506,0-5.891,1.823-9.327,5.26v24.686
		h-5.75V188.294z"/>
	<path fill="#231F20" d="M403.585,214.663c2.945,2.384,5.961,4.068,10.028,4.068c4.488,0,6.732-2.385,6.732-5.33
		c0-3.506-4.067-5.049-7.784-6.452c-4.839-1.753-10.169-4.067-10.169-9.818c0-5.47,4.349-9.678,11.712-9.678
		c4.278,0,7.995,1.753,10.59,3.857l-2.735,3.647c-2.314-1.753-4.769-3.016-7.784-3.016c-4.278,0-6.242,2.314-6.242,4.909
		c0,3.226,3.718,4.418,7.574,5.891c4.909,1.823,10.379,3.857,10.379,10.309c0,5.54-4.418,10.169-12.482,10.169
		c-4.839,0-9.468-2.034-12.693-4.699L403.585,214.663z"/>
	<path fill="#231F20" d="M448.604,176.372H462.7c10.169,0,16.972,3.437,16.972,13.535c0,9.678-6.873,14.236-16.972,14.236h-8.274
		v18.233h-5.821V176.372z M461.999,199.375c7.995,0,11.853-2.945,11.853-9.467c0-6.663-3.928-8.836-11.853-8.836h-7.573v18.304
		H461.999z"/>
	<path fill="#231F20" d="M488.436,188.294h4.769l0.491,6.171h0.21c2.314-4.278,5.82-7.013,9.678-7.013
		c1.473,0,2.524,0.21,3.646,0.701l-1.122,5.049c-1.122-0.351-1.894-0.561-3.296-0.561c-2.875,0-6.312,2.104-8.626,7.854v21.88h-5.75
		V188.294z"/>
	<path fill="#231F20" d="M525.32,187.453c8.346,0,15.779,6.522,15.779,17.953c0,11.291-7.434,17.813-15.779,17.813
		s-15.779-6.522-15.779-17.813C509.541,193.975,516.975,187.453,525.32,187.453z M525.32,218.45c5.891,0,9.818-5.26,9.818-13.044
		c0-7.854-3.928-13.185-9.818-13.185c-5.82,0-9.818,5.33-9.818,13.185C515.502,213.19,519.5,218.45,525.32,218.45z"/>
</g>
<g enable-background="new    ">
	<path fill="#231F20" d="M94.014,289.421h-14.52l-4.339,12.573h-2.559l12.907-36.663h2.559l12.907,36.663h-2.67L94.014,289.421z
		 M93.291,287.251l-2.336-6.843c-1.502-4.339-2.782-8.178-4.062-12.685h-0.222c-1.28,4.506-2.559,8.345-4.062,12.685l-2.336,6.843
		H93.291z"/>
	<path fill="#231F20" d="M122.277,285.249c0.111-4.062-1.057-8.457-6.287-8.457c-3.616,0-6.732,1.78-8.512,3.116l-1.113-1.836
		c1.892-1.335,5.563-3.449,9.903-3.449c6.342,0,8.457,4.562,8.457,10.292v17.08h-2.059l-0.278-3.449h-0.111
		c-2.726,2.169-5.953,4.117-9.458,4.117c-4.228,0-7.789-2.281-7.789-7.343C105.03,289.421,110.427,286.583,122.277,285.249z
		 M113.208,300.548c3.06,0,5.786-1.502,9.068-4.34v-9.068c-10.96,1.279-14.688,3.838-14.688,8.067
		C107.589,299.045,110.148,300.548,113.208,300.548z"/>
	<path fill="#231F20" d="M184.698,310.005c-0.945,0.278-2.67,0.612-4.506,0.612c-6.176,0-10.348-3.394-12.184-8.011
		c-8.011-0.779-13.63-8.123-13.63-19.082c0-11.572,6.287-18.86,15.077-18.86c8.846,0,15.132,7.288,15.132,18.86
		c0,11.015-5.619,18.303-13.742,19.082c1.669,3.672,5.007,5.675,9.569,5.675c1.669,0,2.782-0.223,3.728-0.5L184.698,310.005z
		 M169.455,300.492c7.455,0,12.406-6.732,12.406-16.968c0-10.125-4.952-16.523-12.406-16.523c-7.455,0-12.406,6.398-12.406,16.523
		C157.049,293.76,162,300.492,169.455,300.492z"/>
	<path fill="#231F20" d="M202.335,274.623c3.227,0,5.452,1.168,7.956,3.115h0.111l0.278-2.448h2.059v38.776h-2.448v-10.292
		l0.111-5.174c-2.392,2.169-5.341,4.061-8.846,4.061c-6.731,0-11.071-4.951-11.071-13.964
		C190.486,280.075,195.994,274.623,202.335,274.623z M201.891,300.492c2.949,0,5.563-1.558,8.4-4.395v-15.856
		c-2.837-2.503-5.174-3.449-7.789-3.449c-5.341,0-9.402,5.174-9.402,11.906C193.101,295.763,196.216,300.492,201.891,300.492z"/>
	<path fill="#231F20" d="M265.314,301.994l-9.958-16.857h-7.789v16.857h-2.559v-36.663h10.515c7.288,0,12.017,2.67,12.017,9.68
		c0,5.842-3.616,9.235-9.402,9.958l10.125,17.024H265.314z M254.855,283.023c6.454,0,10.07-2.615,10.07-8.011
		c0-5.508-3.616-7.51-10.07-7.51h-7.288v15.521H254.855z"/>
	<path fill="#231F20" d="M275.886,275.29H278l0.223,4.951h0.167c1.78-3.282,4.395-5.619,7.566-5.619c1.001,0,1.78,0.111,2.67,0.556
		l-0.556,2.226c-0.89-0.334-1.391-0.445-2.448-0.445c-2.392,0-5.229,1.836-7.288,6.843v18.192h-2.448V275.29z"/>
</g>
<g enable-background="new    ">
	<path fill="#FFFFFF" d="M437.204,305.157c0-12.826-4.345-25.237-20.687-25.237c-11.791,0-22.135,5.378-29.995,10.757l-6.827-11.791
		c9.31-5.999,23.376-13.033,39.512-13.033c24.616,0,34.96,16.342,34.96,41.373v61.646H440.1l-1.448-11.998h-0.413
		c-9.723,7.861-20.894,14.48-33.306,14.48c-16.962,0-29.581-10.55-29.581-28.547C375.352,320.879,394.383,309.915,437.204,305.157z
		 M409.691,357.701c9.722,0,17.79-4.758,27.513-13.446v-27.927c-33.719,4.137-45.097,12.412-45.097,25.237
		C392.107,352.942,399.762,357.701,409.691,357.701z"/>
</g>
<g enable-background="new    ">
	<path fill="#231F20" d="M92.239,359.66H81.168l-2.225,8.623h-8.345l11.35-36.273h9.847l11.349,36.273h-8.679L92.239,359.66z
		 M90.57,353.262l-0.834-3.338c-1.001-3.616-2.003-7.9-2.949-11.683h-0.223c-0.89,3.838-1.836,8.067-2.837,11.683l-0.89,3.338H90.57
		z"/>
	<path fill="#231F20" d="M120.948,350.536c-0.167-2.448-1.391-4.006-4.339-4.006c-2.337,0-4.673,0.946-7.344,2.504l-2.893-5.396
		c3.505-2.114,7.455-3.616,11.794-3.616c7.065,0,10.959,4.005,10.959,12.462v15.8h-6.676l-0.612-2.837h-0.167
		c-2.337,2.059-4.952,3.505-8.067,3.505c-5.007,0-8.178-3.672-8.178-8.345C105.426,354.82,110.043,351.649,120.948,350.536z
		 M116.386,362.608c1.892,0,3.115-0.89,4.562-2.336v-4.84c-5.842,0.779-7.733,2.448-7.733,4.562
		C113.214,361.774,114.438,362.608,116.386,362.608z"/>
	<path fill="#231F20" d="M193.05,377.018c-1.335,0.667-3.616,1.168-6.398,1.168c-7.677,0-13.129-3.95-15.688-9.625
		c-7.733-1.613-12.74-8.345-12.74-18.582c0-11.85,6.676-18.637,16.468-18.637s16.467,6.843,16.467,18.637
		c0,9.736-4.506,16.3-11.516,18.303c1.669,2.503,4.896,3.394,7.956,3.394c1.558,0,2.949-0.278,4.006-0.667L193.05,377.018z
		 M174.691,362.275c4.951,0,8.067-4.562,8.067-12.295c0-7.232-3.116-11.572-8.067-11.572c-4.952,0-8.067,4.339-8.067,11.572
		C166.625,357.713,169.74,362.275,174.691,362.275z"/>
	<path fill="#231F20" d="M207.35,340.021c3.004,0,5.174,1.057,7.343,3.394h0.223l0.667-2.726h6.398v37.831h-8.178v-8.4l0.334-4.228
		c-1.836,1.78-4.451,3.06-6.954,3.06c-6.843,0-11.293-5.452-11.293-14.464C195.889,345.474,201.508,340.021,207.35,340.021z
		 M209.297,362.275c1.78,0,3.171-0.667,4.506-2.503v-11.294c-1.446-1.335-3.06-1.78-4.562-1.78c-2.615,0-4.952,2.448-4.952,7.678
		C204.29,359.827,206.125,362.275,209.297,362.275z"/>
	<path fill="#231F20" d="M272.609,368.283l-6.954-13.074h-4.506v13.074h-8.178V332.01h13.074c7.678,0,13.964,2.67,13.964,11.293
		c0,5.341-2.559,8.734-6.454,10.459l8.234,14.521H272.609z M261.148,348.7h4.228c4.284,0,6.621-1.836,6.621-5.396
		s-2.337-4.785-6.621-4.785h-4.228V348.7z"/>
	<path fill="#231F20" d="M286.575,340.689h6.676l0.557,4.84h0.223c2.002-3.728,5.007-5.508,7.844-5.508
		c1.558,0,2.503,0.223,3.282,0.556l-1.335,7.065c-1.001-0.278-1.836-0.445-3.004-0.445c-2.059,0-4.618,1.335-6.064,5.062v16.022
		h-8.178V340.689z"/>
</g>
<g enable-background="new    ">
	<path fill="#9F392A" d="M251.583,412.822h12.542c8.554,0,14.471,2.895,14.471,10.291c0,4.181-2.38,7.91-7.332,9.197v0.257
		c6.174,0.965,9.776,4.31,9.776,10.098c0,8.297-6.56,12.349-16.015,12.349h-13.442V412.822z M263.16,430.831
		c7.204,0,10.162-2.573,10.162-7.268c0-4.566-3.345-6.496-9.905-6.496h-6.496v13.764H263.16z M264.253,450.769
		c7.268,0,11.513-2.637,11.513-8.36c0-5.21-4.116-7.59-11.513-7.59h-7.332v15.95H264.253z"/>
	<path fill="#9F392A" d="M300.591,422.984c7.975,0,12.478,5.725,12.478,14.664c0,1.094-0.064,2.122-0.193,2.895h-21.096
		c0.386,6.753,4.438,10.998,10.419,10.998c2.958,0,5.466-0.965,7.782-2.444l1.865,3.473c-2.701,1.737-6.045,3.216-10.29,3.216
		c-8.361,0-14.986-6.109-14.986-16.336S293.452,422.984,300.591,422.984z M308.438,437.069c0-6.367-2.83-9.904-7.718-9.904
		c-4.374,0-8.361,3.602-9.004,9.904H308.438z"/>
	<path fill="#9F392A" d="M337.571,435.204c0-3.987-1.351-7.847-6.432-7.847c-3.666,0-6.882,1.673-9.326,3.345l-2.122-3.666
		c2.895-1.865,7.268-4.052,12.284-4.052c7.653,0,10.869,5.081,10.869,12.863v19.166h-4.373l-0.45-3.73h-0.129
		c-3.022,2.444-6.496,4.502-10.354,4.502c-5.274,0-9.197-3.28-9.197-8.875C318.341,440.093,324.258,436.684,337.571,435.204z
		 M329.018,451.541c3.022,0,5.53-1.479,8.554-4.181v-8.683c-10.483,1.286-14.021,3.858-14.021,7.847
		C323.55,450.062,325.93,451.541,329.018,451.541z"/>
	<path fill="#9F392A" d="M352.362,423.756h5.339v19.103c0,5.853,1.736,8.36,5.853,8.36c3.216,0,5.467-1.607,8.426-5.273v-22.189
		h5.273v31.258h-4.373l-0.45-4.888h-0.193c-2.895,3.408-5.981,5.659-10.291,5.659c-6.624,0-9.583-4.244-9.583-12.22V423.756z"/>
	<path fill="#9F392A" d="M388.699,428.065h-4.63v-3.987l4.888-0.322l0.644-8.747h4.438v8.747h8.425v4.31h-8.425v17.365
		c0,3.859,1.222,6.046,4.823,6.046c1.094,0,2.509-0.45,3.538-0.836l1.028,3.987c-1.736,0.579-3.858,1.157-5.788,1.157
		c-6.688,0-8.94-4.244-8.94-10.419V428.065z"/>
	<path fill="#9F392A" d="M420.6,422.984c7.975,0,12.478,5.725,12.478,14.664c0,1.094-0.064,2.122-0.193,2.895h-21.096
		c0.386,6.753,4.438,10.998,10.419,10.998c2.959,0,5.467-0.965,7.782-2.444l1.865,3.473c-2.701,1.737-6.046,3.216-10.29,3.216
		c-8.361,0-14.985-6.109-14.985-16.336S413.46,422.984,420.6,422.984z M428.446,437.069c0-6.367-2.83-9.904-7.718-9.904
		c-4.374,0-8.361,3.602-9.005,9.904H428.446z M420.471,418.161h-4.052l5.853-9.069h5.467L420.471,418.161z"/>
</g>
<g enable-background="new    ">
	<path fill="#231F20" d="M168.823,508.919c0-2.372-0.803-4.667-3.826-4.667c-2.18,0-4.093,0.995-5.547,1.989l-1.262-2.181
		c1.722-1.109,4.323-2.41,7.307-2.41c4.552,0,6.465,3.022,6.465,7.651v11.399h-2.601l-0.268-2.219h-0.077
		c-1.798,1.454-3.863,2.678-6.159,2.678c-3.137,0-5.47-1.951-5.47-5.279C157.385,511.826,160.904,509.799,168.823,508.919z
		 M163.735,518.636c1.798,0,3.29-0.88,5.088-2.486v-5.165c-6.235,0.766-8.339,2.296-8.339,4.667
		C160.483,517.756,161.898,518.636,163.735,518.636z"/>
	<path fill="#231F20" d="M179.99,493.465h3.137v7.421l-0.076,3.366c1.683-1.492,3.749-2.602,5.814-2.602
		c4.82,0,7.383,3.711,7.383,9.449c0,6.35-3.787,10.061-8.033,10.061c-1.721,0-3.672-0.842-5.317-2.295h-0.115l-0.268,1.836h-2.525
		V493.465z M187.679,518.521c3.061,0,5.317-2.792,5.317-7.383c0-4.093-1.377-6.848-4.896-6.848c-1.568,0-3.213,0.88-4.973,2.525
		v9.754C184.772,517.985,186.455,518.521,187.679,518.521z"/>
</g>
<g enable-background="new    ">
	<path fill="#231F20" d="M214.262,501.65c2.448,0,4.17,1.033,5.432,2.219l-1.568,2.027c-1.109-0.956-2.257-1.645-3.749-1.645
		c-3.366,0-5.814,2.907-5.814,7.191c0,4.246,2.333,7.115,5.738,7.115c1.759,0,3.251-0.88,4.361-1.874l1.415,2.065
		c-1.683,1.492-3.825,2.41-6.044,2.41c-4.935,0-8.722-3.558-8.722-9.717C205.311,505.208,209.48,501.65,214.262,501.65z"/>
</g>
<g enable-background="new    ">
	<path fill="#231F20" d="M234.688,501.65c2.142,0,3.558,0.804,5.202,2.143l-0.153-3.175v-7.153h3.175v27.236h-2.602l-0.268-2.181
		h-0.115c-1.454,1.416-3.443,2.64-5.624,2.64c-4.667,0-7.689-3.52-7.689-9.717C226.616,505.399,230.442,501.65,234.688,501.65z
		 M234.994,518.521c1.722,0,3.213-0.842,4.744-2.562v-9.717c-1.568-1.415-2.984-1.951-4.514-1.951c-2.984,0-5.356,2.869-5.356,7.115
		C229.868,515.843,231.742,518.521,234.994,518.521z"/>
	<path fill="#231F20" d="M258.25,501.65c4.743,0,7.421,3.405,7.421,8.723c0,0.65-0.038,1.262-0.115,1.721h-12.547
		c0.229,4.017,2.639,6.542,6.197,6.542c1.76,0,3.252-0.574,4.629-1.454l1.109,2.065c-1.607,1.033-3.596,1.913-6.121,1.913
		c-4.973,0-8.913-3.634-8.913-9.717C249.91,505.361,254.003,501.65,258.25,501.65z M262.917,510.028
		c0-3.787-1.683-5.891-4.591-5.891c-2.601,0-4.973,2.142-5.355,5.891H262.917z"/>
</g>
<g enable-background="new    ">
	<path fill="#231F20" d="M284.104,496.027c-0.688-0.306-1.415-0.459-2.104-0.459c-1.76,0-2.602,1.225-2.602,3.596v2.945h3.94v2.563
		h-3.94v16.028h-3.137v-16.028h-2.525v-2.372l2.525-0.191v-2.945c0-3.787,1.721-6.158,5.432-6.158c1.147,0,2.257,0.268,3.099,0.611
		L284.104,496.027z"/>
</g>
<g enable-background="new    ">
	<path fill="#231F20" d="M292.021,520.051v-0.153c-0.918-0.573-1.645-1.568-1.645-3.021c0-1.568,1.071-2.793,2.027-3.443v-0.152
		c-1.224-0.995-2.41-2.793-2.41-5.012c0-4.055,3.213-6.618,7-6.618c1.033,0,1.951,0.191,2.639,0.459h6.465v2.41h-3.825
		c0.88,0.842,1.53,2.257,1.53,3.825c0,3.979-3.022,6.466-6.809,6.466c-0.918,0-1.951-0.23-2.793-0.65
		c-0.65,0.573-1.186,1.186-1.186,2.219c0,1.186,0.765,2.027,3.29,2.027h3.596c4.323,0,6.503,1.339,6.503,4.438
		c0,3.442-3.635,6.426-9.411,6.426c-4.552,0-7.689-1.798-7.689-5.011C289.305,522.69,290.338,521.198,292.021,520.051z
		 M297.454,527.09c3.558,0,5.891-1.837,5.891-3.787c0-1.722-1.339-2.296-3.749-2.296h-3.213c-0.727,0-1.606-0.076-2.41-0.306
		c-1.339,0.956-1.913,2.065-1.913,3.137C292.06,525.827,294.087,527.09,297.454,527.09z M300.935,508.269
		c0-2.716-1.76-4.322-3.94-4.322c-2.181,0-3.94,1.606-3.94,4.322s1.798,4.438,3.94,4.438
		C299.137,512.706,300.935,510.984,300.935,508.269z"/>
	<path fill="#231F20" d="M312.103,493.465h3.137v7.421l-0.114,3.825c1.76-1.683,3.634-3.061,6.197-3.061
		c3.901,0,5.661,2.525,5.661,7.269v11.782h-3.137V509.34c0-3.481-1.071-4.973-3.52-4.973c-1.913,0-3.213,0.994-5.088,2.869v13.465
		h-3.137V493.465z"/>
	<path fill="#231F20" d="M334.44,496.257c0-1.224,0.956-2.027,2.18-2.027c1.225,0,2.181,0.804,2.181,2.027
		c0,1.187-0.956,2.027-2.181,2.027C335.396,498.284,334.44,497.443,334.44,496.257z M335.014,502.109h3.137v18.592h-3.137V502.109z"
		/>
	<path fill="#231F20" d="M346.564,502.109h3.137v20.695c0,3.787-1.377,6.197-5.088,6.197c-1.147,0-2.104-0.229-2.754-0.497
		l0.65-2.372c0.459,0.153,1.109,0.307,1.76,0.307c1.836,0,2.295-1.377,2.295-3.635V502.109z M345.991,496.257
		c0-1.224,0.956-2.027,2.18-2.027c1.187,0,2.143,0.804,2.143,2.027c0,1.187-0.956,2.027-2.143,2.027
		C346.947,498.284,345.991,497.443,345.991,496.257z"/>
</g>
<g enable-background="new    ">
	<path fill="#231F20" d="M364.811,493.465h3.099v18.438h0.115l7.918-9.793h3.481l-6.235,7.46l7.077,11.132h-3.443l-5.432-8.951
		l-3.481,4.055v4.896h-3.099V493.465z"/>
</g>
<g enable-background="new    ">
	<path fill="#231F20" d="M387.568,493.465h3.137v23.717c0,0.995,0.421,1.377,0.88,1.377c0.191,0,0.345,0,0.688-0.076l0.421,2.372
		c-0.421,0.191-0.956,0.306-1.798,0.306c-2.372,0-3.328-1.492-3.328-4.208V493.465z"/>
</g>
<g enable-background="new    ">
	<path fill="#231F20" d="M401.108,502.109h2.602l0.268,2.678h0.114c1.607-1.759,3.558-3.137,5.776-3.137
		c2.831,0,4.361,1.339,5.126,3.558c1.951-2.104,3.864-3.558,6.121-3.558c3.825,0,5.661,2.525,5.661,7.269v11.782h-3.137V509.34
		c0-3.481-1.109-4.973-3.442-4.973c-1.454,0-2.945,0.956-4.667,2.869v13.465h-3.137V509.34c0-3.481-1.109-4.973-3.481-4.973
		c-1.377,0-2.945,0.956-4.667,2.869v13.465h-3.137V502.109z"/>
</g>
<g enable-background="new    ">
	<path fill="#231F20" d="M158.303,548.008h2.602l0.268,2.678h0.115c1.76-1.759,3.672-3.137,6.235-3.137
		c3.902,0,5.662,2.525,5.662,7.269V566.6h-3.137v-11.361c0-3.481-1.071-4.973-3.52-4.973c-1.913,0-3.213,0.994-5.088,2.869V566.6
		h-3.137V548.008z"/>
	<path fill="#231F20" d="M188.559,547.549c4.552,0,8.607,3.558,8.607,9.793c0,6.159-4.055,9.717-8.607,9.717
		s-8.607-3.558-8.607-9.717C179.952,551.106,184.007,547.549,188.559,547.549z M188.559,564.457c3.213,0,5.355-2.869,5.355-7.115
		c0-4.284-2.142-7.191-5.355-7.191c-3.175,0-5.355,2.907-5.355,7.191C183.204,561.588,185.384,564.457,188.559,564.457z"/>
	<path fill="#231F20" d="M207.301,568.168v6.273h-3.137v-26.434h2.602l0.268,2.143h0.115c1.683-1.415,3.749-2.602,5.929-2.602
		c4.782,0,7.345,3.711,7.345,9.487c0,6.312-3.787,10.022-8.033,10.022c-1.721,0-3.443-0.804-5.164-2.143L207.301,568.168z
		 M211.853,564.419c3.061,0,5.317-2.792,5.317-7.383c0-4.093-1.377-6.848-4.896-6.848c-1.568,0-3.137,0.88-4.973,2.525v9.754
		C208.984,563.884,210.629,564.419,211.853,564.419z"/>
	<path fill="#231F20" d="M234.229,547.549c2.142,0,3.634,0.766,5.317,2.219h0.077l0.306-1.76h2.525v26.434h-3.175v-6.617l0.153-3.29
		c-1.492,1.377-3.443,2.524-5.585,2.524c-4.667,0-7.689-3.52-7.689-9.717C226.157,551.298,229.983,547.549,234.229,547.549z
		 M234.535,564.419c1.722,0,3.213-0.842,4.744-2.562v-9.717c-1.568-1.415-2.984-1.951-4.514-1.951c-2.984,0-5.356,2.869-5.356,7.115
		C229.409,561.741,231.283,564.419,234.535,564.419z"/>
	<path fill="#231F20" d="M250.637,548.008h2.602l0.268,3.367h0.115c1.262-2.334,3.175-3.826,5.279-3.826
		c0.804,0,1.377,0.115,1.989,0.383l-0.612,2.754c-0.612-0.19-1.033-0.306-1.798-0.306c-1.568,0-3.443,1.147-4.706,4.284V566.6
		h-3.137V548.008z"/>
</g>
<g enable-background="new    ">
	<path fill="#231F20" d="M273.931,562.392c1.606,1.301,3.251,2.219,5.47,2.219c2.448,0,3.672-1.301,3.672-2.907
		c0-1.913-2.219-2.754-4.246-3.52c-2.64-0.956-5.547-2.219-5.547-5.355c0-2.983,2.372-5.279,6.388-5.279
		c2.333,0,4.361,0.957,5.776,2.104l-1.492,1.989c-1.263-0.957-2.602-1.646-4.246-1.646c-2.333,0-3.405,1.263-3.405,2.678
		c0,1.76,2.027,2.41,4.131,3.214c2.678,0.994,5.662,2.104,5.662,5.623c0,3.022-2.41,5.547-6.809,5.547
		c-2.64,0-5.165-1.109-6.924-2.562L273.931,562.392z"/>
	<path fill="#231F20" d="M293.094,550.571h-2.754v-2.372l2.907-0.191l0.383-5.202h2.64v5.202h5.011v2.563h-5.011v10.328
		c0,2.296,0.727,3.597,2.869,3.597c0.65,0,1.492-0.269,2.104-0.498l0.612,2.372c-1.033,0.345-2.295,0.688-3.443,0.688
		c-3.979,0-5.317-2.524-5.317-6.197V550.571z"/>
</g>
<g enable-background="new    ">
	<path fill="#231F20" d="M310.764,548.008h3.175v11.362c0,3.48,1.033,4.973,3.481,4.973c1.912,0,3.251-0.956,5.011-3.137v-13.198
		h3.137V566.6h-2.601l-0.268-2.907h-0.115c-1.722,2.027-3.558,3.366-6.121,3.366c-3.939,0-5.699-2.524-5.699-7.269V548.008z"/>
</g>
<g enable-background="new    ">
	<path fill="#231F20" d="M332.949,548.008h3.252l3.519,10.559c0.536,1.836,1.148,3.711,1.722,5.47h0.153
		c0.535-1.759,1.147-3.634,1.683-5.47l3.52-10.559h3.099l-6.579,18.592h-3.673L332.949,548.008z"/>
</g>
<g enable-background="new    ">
	<path fill="#231F20" d="M355.096,548.008h3.214l2.754,10.75c0.421,1.76,0.765,3.442,1.109,5.164h0.153
		c0.42-1.722,0.803-3.443,1.262-5.164l2.869-10.75h3.061l2.907,10.75c0.459,1.76,0.88,3.442,1.301,5.164h0.153
		c0.42-1.722,0.765-3.404,1.147-5.164l2.716-10.75h2.983l-4.973,18.592h-3.825l-2.678-9.984c-0.459-1.76-0.804-3.48-1.263-5.355
		h-0.153c-0.421,1.875-0.803,3.634-1.3,5.394l-2.602,9.946h-3.673L355.096,548.008z"/>
</g>
<g enable-background="new    ">
	<path fill="#231F20" d="M392.047,556.883l-5.624-8.875h3.405l2.486,4.094c0.574,0.994,1.186,2.065,1.836,3.099h0.153
		c0.535-1.033,1.109-2.104,1.683-3.099l2.258-4.094h3.289l-5.623,9.22l6.044,9.372h-3.404l-2.716-4.322
		c-0.65-1.109-1.339-2.258-2.027-3.328h-0.153c-0.65,1.07-1.263,2.18-1.874,3.328l-2.525,4.322h-3.29L392.047,556.883z"/>
	<path fill="#231F20" d="M407.347,571.993c2.104,0,3.442-1.683,4.208-3.979l0.421-1.377l-7.46-18.63h3.252l3.787,10.291
		c0.573,1.606,1.224,3.52,1.798,5.24h0.152c0.536-1.683,1.071-3.596,1.568-5.24l3.328-10.291h3.061l-7,20.122
		c-1.301,3.672-3.214,6.465-6.963,6.465c-0.841,0-1.568-0.153-2.18-0.383l0.611-2.486
		C406.313,571.841,406.888,571.993,407.347,571.993z"/>
</g>
<g enable-background="new    ">
	<path fill="#231F20" d="M429.184,564.916l9.793-14.345h-8.722v-2.563h12.7v1.684l-9.793,14.345h10.1v2.563h-14.078V564.916z"/>
</g>
<g enable-background="new    ">
	<path fill="#FFFFFF" d="M202.693,614.086c0-6.821,2.455-10.486,6.535-10.486c4.048,0,6.502,3.665,6.502,10.486
		s-2.454,10.615-6.502,10.615C205.148,624.701,202.693,620.907,202.693,614.086z M213.181,614.086c0-5.96-1.594-8.383-3.953-8.383
		c-2.391,0-3.984,2.423-3.984,8.383c0,5.961,1.594,8.511,3.984,8.511C211.587,622.597,213.181,620.047,213.181,614.086z"/>
	<path fill="#FFFFFF" d="M223.89,622.15h4.654v-14.981h-3.697v-1.689c1.849-0.318,3.188-0.828,4.303-1.498h2.008v18.169h4.208v2.168
		H223.89V622.15z"/>
	<path fill="#FFFFFF" d="M242.728,622.757c6.12-6.089,9.563-9.754,9.563-13.037c0-2.327-1.275-3.984-3.857-3.984
		c-1.689,0-3.156,1.083-4.335,2.454l-1.498-1.498c1.689-1.849,3.506-3.092,6.152-3.092c3.762,0,6.088,2.391,6.088,5.992
		c0,3.825-3.475,7.618-8.288,12.654c1.116-0.096,2.359-0.19,3.411-0.19h5.897v2.263h-13.133V622.757z"/>
	<path fill="#FFFFFF" d="M263.702,620.11c1.211,1.275,2.805,2.423,5.196,2.423c2.455,0,4.208-1.466,4.208-3.729
		c0-2.423-1.658-4.048-6.502-4.048v-2.009c4.335,0,5.77-1.657,5.77-3.793c0-1.977-1.339-3.219-3.506-3.219
		c-1.689,0-3.124,0.86-4.335,2.071l-1.402-1.657c1.562-1.467,3.442-2.55,5.833-2.55c3.538,0,6.088,1.88,6.088,5.163
		c0,2.455-1.498,4.017-3.697,4.846v0.127c2.454,0.574,4.398,2.359,4.398,5.164c0,3.602-2.964,5.802-6.694,5.802
		c-3.251,0-5.323-1.371-6.694-2.869L263.702,620.11z"/>
	<path fill="#FFFFFF" d="M296.565,618.708h-2.773v5.61h-2.486v-5.61h-9.148v-1.721l8.702-13.006h2.932v12.623h2.773V618.708z
		 M291.306,616.604v-5.897c0-1.083,0.095-2.837,0.159-3.92h-0.127c-0.51,0.988-1.084,1.88-1.658,2.868l-4.75,6.949H291.306z"/>
	<path fill="#FFFFFF" d="M303.768,620.206c1.211,1.212,2.742,2.327,5.132,2.327c2.486,0,4.462-1.816,4.462-4.653
		c0-2.806-1.721-4.463-4.335-4.463c-1.402,0-2.263,0.446-3.474,1.243l-1.402-0.893l0.669-9.786h10.168v2.264h-7.873l-0.542,6.024
		c0.956-0.51,1.881-0.829,3.124-0.829c3.475,0,6.312,1.977,6.312,6.375c0,4.399-3.315,6.886-6.854,6.886
		c-3.251,0-5.26-1.371-6.662-2.773L303.768,620.206z"/>
	<path fill="#FFFFFF" d="M334.496,607.393c-0.829-0.988-2.072-1.594-3.348-1.594c-2.837,0-5.228,2.199-5.354,8.638
		c1.274-1.562,3.092-2.55,4.749-2.55c3.507,0,5.802,2.104,5.802,6.279c0,3.89-2.741,6.535-6.024,6.535
		c-3.984,0-7.013-3.252-7.013-9.786c0-8.16,3.697-11.315,7.745-11.315c2.2,0,3.762,0.924,4.909,2.167L334.496,607.393z
		 M333.858,618.166c0-2.646-1.243-4.303-3.762-4.303c-1.274,0-2.868,0.765-4.239,2.678c0.318,3.952,1.881,6.088,4.463,6.088
		C332.328,622.629,333.858,620.844,333.858,618.166z"/>
	<path fill="#FFFFFF" d="M353.397,606.245h-10.137v-2.264h13.101v1.626c-4.812,6.152-5.801,10.773-6.151,18.711h-2.71
		C347.851,616.668,349.381,611.823,353.397,606.245z"/>
	<path fill="#FFFFFF" d="M367.071,613.64v-0.127c-1.498-1.052-2.837-2.55-2.837-4.686c0-3.124,2.486-5.228,5.77-5.228
		c3.538,0,5.737,2.263,5.737,5.419c0,2.135-1.562,3.952-2.805,4.908v0.128c1.817,1.052,3.538,2.486,3.538,5.228
		c0,3.028-2.613,5.419-6.566,5.419c-3.825,0-6.662-2.359-6.662-5.578C363.246,616.477,365.159,614.66,367.071,613.64z
		 M369.972,622.757c2.359,0,3.985-1.467,3.985-3.57c0-2.614-2.582-3.57-5.515-4.75c-1.626,1.084-2.837,2.582-2.837,4.431
		C365.605,621.131,367.485,622.757,369.972,622.757z M373.479,609.146c0-2.008-1.307-3.602-3.538-3.602
		c-1.881,0-3.283,1.307-3.283,3.283c0,2.422,2.231,3.442,4.686,4.398C372.714,612.015,373.479,610.644,373.479,609.146z"/>
</g>
<g enable-background="new    ">
	<path fill="#FFFFFF" d="M389.702,620.907c0.829,0.988,2.072,1.626,3.347,1.626c2.869,0,5.292-2.231,5.388-8.733
		c-1.275,1.625-3.092,2.613-4.781,2.613c-3.507,0-5.77-2.104-5.77-6.279c0-3.889,2.741-6.534,5.992-6.534
		c4.017,0,7.013,3.251,7.013,9.785c0,8.16-3.697,11.316-7.746,11.316c-2.167,0-3.793-0.925-4.908-2.136L389.702,620.907z
		 M398.372,611.728c-0.351-3.952-1.912-6.057-4.494-6.057c-1.977,0-3.538,1.785-3.538,4.463c0,2.646,1.243,4.303,3.762,4.303
		C395.408,614.437,397.002,613.672,398.372,611.728z"/>
</g>
</svg>
