<?xml version="1.0" encoding="utf-8"?>
<!-- Generator: Adobe Illustrator 18.0.0, SVG Export Plug-In . SVG Version: 6.00 Build 0)  -->
<!DOCTYPE svg PUBLIC "-//W3C//DTD SVG 1.1//EN" "http://www.w3.org/Graphics/SVG/1.1/DTD/svg11.dtd">
<svg version="1.1" xmlns="http://www.w3.org/2000/svg" xmlns:xlink="http://www.w3.org/1999/xlink" x="0px" y="0px"
	 viewBox="0 0 288 288" enable-background="new 0 0 288 288" xml:space="preserve">
<g id="Background">
	<rect fill="#DCDBC7" width="288" height="288"/>
</g>
<g id="Layer_2">
	<g>
		<path fill="#231F20" d="M44.3,39.8c-2.7,0-4.5,1.3-4.5,3.5c0,2.2,2.5,3,5.3,4c3.6,1.3,7.6,2.9,7.6,7.6c0,5.7-5,7.8-8.9,7.8
			c-3.7,0-6.4-1.2-9.1-3.8l2.4-2.3c2.4,2.3,4.2,3,6.7,3c2.6,0,5.1-1.3,5.1-4.4c0-2.8-2.7-3.7-5.6-4.8c-3.4-1.2-7.1-2.9-7.1-6.9
			c0-4.8,3.5-6.9,7.6-6.9c3,0,5.5,0.9,7.8,2.6l-2.1,2.5C48.4,40.7,46.3,39.8,44.3,39.8z"/>
		<path fill="#231F20" d="M74.9,53.3c0,5.3-3.9,9.4-9.2,9.4c-5.3,0-9.2-4.2-9.2-9.4s3.9-9.4,9.2-9.4C71,43.9,74.9,48,74.9,53.3z
			 M65.7,46.9c-3.4,0-5.8,2.9-5.8,6.4c0,3.5,2.4,6.4,5.8,6.4c3.4,0,5.8-2.9,5.8-6.4C71.6,49.8,69.1,46.9,65.7,46.9z"/>
		<path fill="#231F20" d="M82.7,62.3h-3.3v-27h3.3V62.3z"/>
		<path fill="#231F20" d="M90.5,54.1c0.2,3.1,2.3,5.8,5.8,5.8c2.4,0,4.3-0.9,5.4-2.9l2.4,1.5c-1.8,2.9-4.2,4.2-7.9,4.2
			c-5.7,0-8.9-4.2-8.9-9.4c0-5.4,3.9-9.4,8.9-9.4c4.8,0,8.2,3.6,8.2,8.4c0,0.6-0.1,1.4-0.1,1.9H90.5z M90.8,51.5H101
			c-0.1-2.6-2.1-4.8-4.8-4.8C93.3,46.7,91.4,48.8,90.8,51.5z"/>
		<path fill="#231F20" d="M108.9,40.8v-3.7h3.3v3.7H108.9z M108.9,62.3v-18h3.3v18H108.9z"/>
		<path fill="#231F20" d="M121.5,62.3h-3.3v-27h3.3V62.3z"/>
	</g>
	<g>
		<path fill="#231F20" d="M41.4,81.4h1.8l6.4,18.3h-2.2L46,95.6h-8.1l-1.6,4.2h-2L41.4,81.4z M38.6,93.8h6.8l-3.2-9.7h0L38.6,93.8z"
			/>
		<path fill="#231F20" d="M60,98.3c-1.2,1.3-2.7,1.8-4.2,1.8c-2.4,0-4.4-1.4-4.4-3.8c0-3.1,2.9-4.4,5.7-4.4c0.9,0,1.8,0.1,2.9,0.4
			v-0.7c0-2.1-1-3.3-3.3-3.3c-1.5,0-3.2,0.5-4.2,1.1l-0.6-1.6c1.2-0.5,3.2-1.1,4.8-1.1c3.8,0,5,2,5,5.3v7.8h-1.6L60,98.3z M57,93.4
			c-1.8,0-3.8,0.7-3.8,2.7c0,1.5,1.2,2.5,2.7,2.5c1.5,0,2.9-0.8,4.1-1.9v-3C58.9,93.5,57.9,93.4,57,93.4z"/>
		<path fill="#231F20" d="M89.2,101.4l-2.7-2.7c-1.4,0.9-3.1,1.4-5,1.4c-5.3,0-9.3-4.2-9.3-9.5s4.1-9.5,9.3-9.5s9.3,4.2,9.3,9.5
			c0,2.7-1.1,5.2-2.9,6.9l2.5,2.5L89.2,101.4z M86.6,96.2c1.4-1.4,2.2-3.4,2.2-5.6c0-4.3-3.1-7.7-7.3-7.7s-7.3,3.4-7.3,7.7
			s3.1,7.7,7.3,7.7c1.3,0,2.6-0.3,3.6-1l-2.7-2.7l1.3-1.3L86.6,96.2z"/>
		<path fill="#231F20" d="M104.4,98.1c-1,1.3-2.5,2-4.1,2c-3.7,0-6.5-3-6.5-6.7s2.8-6.8,6.6-6.8c1.4,0,3,0.6,4.1,1.6V87h1.8v19.3
			h-1.8V98.1z M104.4,90.3c-0.9-1.2-2.6-2-4.1-2c-2.8,0-4.8,2.3-4.8,5c0,2.7,2,5.1,4.8,5.1c1.6,0,3.3-0.9,4.1-2.4V90.3z"/>
		<path fill="#231F20" d="M119.8,99.8h-1.9V81.4h5.3c2.7,0,6.1,1.4,6.1,5.2c0,2.7-1.7,4.6-4.8,5.1c2,2.7,4.9,6.7,5.9,8h-2.4l-5.8-8
			h-2.4V99.8z M119.8,90h2.7c2.9,0,4.7-1,4.7-3.4c0-2.1-1.7-3.4-4.1-3.4h-3.2V90z"/>
		<path fill="#231F20" d="M135.1,89.4c0.7-1.4,1.9-2.7,3.7-2.7c0.3,0,0.7,0,1.1,0.1l-0.2,2c-0.4-0.2-0.7-0.2-1.2-0.2
			c-1.5,0-2.4,1.1-3.4,2.7v8.5h-1.8V87h1.8V89.4z"/>
	</g>
	<g>
		<path fill="#FFFFFF" d="M208.1,131.2v-5.2c-4,4.5-8.4,6.3-14.6,6.3c-9,0-17.2-4.4-17.2-14.8c0-12.4,11-16.2,21.7-16.2
			c2.4,0,5.5,0.2,9.7,1.1v-1.8c0-7.4-3.5-11.7-11.5-11.7c-5.6,0-11.6,2.1-15.5,4.3l-2.6-7.4c5.1-2.4,12.5-4.6,19.2-4.6
			c14.1,0,19.3,7.7,19.3,20.2v29.6H208.1z M207.7,109.1c-3.6-0.8-6.3-1-8.8-1c-6,0-14,1.5-14,8.8c0,5.9,4.5,8.1,9.6,8.1
			c5,0,9.2-2.5,13.1-5.8V109.1z"/>
	</g>
	<g>
		<g>
			<path fill="#231F20" d="M46.8,131l-1.2-3.4h-6.5l-1.2,3.4h-4.2l7.5-18.3h3l6.9,18.3H46.8z M40.2,124.5h4.4l-2.1-6.2h0L40.2,124.5
				z"/>
			<path fill="#231F20" d="M61.6,131l-0.3-1.2c-0.9,1.1-2.3,1.5-3.7,1.5c-2.6,0-4.9-1.5-4.9-4.4c0-3.4,3.1-4.5,6-4.5
				c0.8,0,1.6,0.1,2.5,0.3v-0.2c0-1.7-0.7-2.8-2.7-2.8c-1.6,0-3,0.6-4.2,1.2l-1-2.7c1.8-0.9,3.9-1.4,5.9-1.4c3.8,0,5.7,2.2,5.7,5.8
				v8.3H61.6z M61.1,125c-0.7-0.2-1.3-0.2-1.9-0.2c-1.4,0-3,0.5-3,2.1c0,1.2,1,1.8,2.1,1.8c1.1,0,2-0.5,2.7-1.2V125z"/>
			<path fill="#231F20" d="M91.1,132.8l-2.6-2.6c-1.3,0.7-2.9,1.1-4.5,1.1c-5.4,0-9.6-4.2-9.6-9.5c0-5.2,4.2-9.5,9.6-9.5
				c5.4,0,9.6,4.2,9.6,9.5c0,2.5-0.9,4.8-2.5,6.4l2.3,2.3L91.1,132.8z M88.3,125.6c0.7-1,1.2-2.4,1.2-3.8c0-3.5-2.4-6.2-5.6-6.2
				c-3.2,0-5.6,2.7-5.6,6.2s2.4,6.2,5.6,6.2c0.7,0,1.4-0.1,1.9-0.4l-2.3-2.2l2.3-2.2L88.3,125.6z"/>
			<path fill="#231F20" d="M106.1,137.5v-8c-1,1.3-2.7,1.8-4.1,1.8c-3.6,0-6.4-3.2-6.4-7.3c0-3.9,2.7-7.1,6.5-7.1
				c1.4,0,3.2,0.5,4.2,1.9l0.3-1.6h3.2v20.3H106.1z M102.9,120.1c-2.4,0-3.5,2.1-3.5,4.1c0,2,1.3,4,3.4,4c1.2,0,2.4-0.4,3.2-1.8
				v-4.7C105.2,120.5,104.1,120.1,102.9,120.1z"/>
			<path fill="#231F20" d="M126,112.6c3,0,6.7,1.5,6.7,5.5c0,2.9-1.9,4.4-4,5.1c1.6,2.3,4.3,6,5.6,7.7h-4.7l-5-7.3H124v7.3h-3.7
				v-18.3H126z M124,120.5h1.5c1.9,0,3.3-0.7,3.3-2.3c0-1.4-1.1-2.4-2.8-2.4h-2V120.5z"/>
			<path fill="#231F20" d="M140.1,119c0.8-1.3,1.9-2.1,3.2-2.1c0.7,0,1.3,0.1,1.8,0.3l-0.9,3.2c-0.4-0.2-0.8-0.3-1.3-0.3
				c-1.1,0-2,0.6-2.6,1.5v9.3h-3.7v-13.8h3.2L140.1,119z"/>
		</g>
	</g>
	<g>
		<path fill="#9F392A" d="M121,171.8h-2.8v-22.7h2.8V171.8z"/>
		<path fill="#9F392A" d="M135,171.8v-1.6c-1.2,1.4-2.6,2-4.5,2c-2.8,0-5.4-1.4-5.4-4.6c0-3.8,3.4-5,6.7-5c0.8,0,1.7,0.1,3,0.3v-0.5
			c0-2.3-1.1-3.6-3.6-3.6c-1.8,0-3.6,0.7-4.8,1.3l-0.8-2.3c1.6-0.8,3.9-1.4,6-1.4c4.4,0,6,2.4,6,6.3v9.2H135z M134.9,164.9
			c-1.1-0.2-2-0.3-2.7-0.3c-1.9,0-4.4,0.5-4.4,2.7c0,1.8,1.4,2.5,3,2.5c1.5,0,2.9-0.8,4.1-1.8V164.9z"/>
		<path fill="#9F392A" d="M145.3,156.6v2.5c1.1-1.8,2.9-2.8,4.9-2.8c2.1,0,3.5,0.7,4.4,1.9c1,1.4,1.4,3.4,1.4,5.7v7.9h-2.8v-7.6
			c0-1.5-0.1-3.1-0.8-4.2c-0.5-0.7-1.3-1.2-2.6-1.2c-1.8,0-3.4,1.2-4.5,2.9v10h-2.8v-15.1H145.3z"/>
		<path fill="#9F392A" d="M172,170.7c-1.1,0.9-2.8,1.5-4.6,1.5c-4.3,0-7.7-3.1-7.7-7.9c0-4.4,3.5-7.9,7.9-7.9c1.6,0,3.1,0.5,4.3,1.3
			l-1.3,2.3c-0.8-0.6-2-1-3.1-1c-2.7,0-5,2.4-5,5.4c0,3.3,2.4,5.4,5,5.4c1,0,2.4-0.5,3.2-1.1L172,170.7z"/>
		<path fill="#9F392A" d="M175.3,153.7v-3.1h2.8v3.1H175.3z M175.3,171.8v-15.1h2.8v15.1H175.3z"/>
		<path fill="#9F392A" d="M197.3,164.2c0,4.4-3.3,7.9-7.7,7.9c-4.4,0-7.7-3.5-7.7-7.9s3.3-7.9,7.7-7.9
			C194,156.3,197.3,159.8,197.3,164.2z M189.6,158.8c-2.8,0-4.9,2.5-4.9,5.4c0,2.9,2.1,5.4,4.9,5.4c2.8,0,4.9-2.5,4.9-5.4
			C194.5,161.3,192.4,158.8,189.6,158.8z"/>
	</g>
	<g>
		<g>
			<path fill="#231F20" d="M79.9,202.7v-1c-0.7,0.8-1.5,1.2-2.7,1.2c-1.7,0-3.2-0.8-3.2-2.7c0-2.3,2-3,4-3c0.5,0,1,0,1.8,0.2V197
				c0-1.4-0.6-2.2-2.1-2.2c-1,0-2.1,0.4-2.9,0.8l-0.5-1.4c0.9-0.5,2.3-0.8,3.5-0.8c2.6,0,3.6,1.4,3.6,3.7v5.5H79.9z M79.8,198.6
				c-0.7-0.1-1.2-0.2-1.6-0.2c-1.1,0-2.6,0.3-2.6,1.6c0,1.1,0.8,1.5,1.8,1.5c0.9,0,1.7-0.5,2.4-1.1V198.6z"/>
			<path fill="#231F20" d="M87.8,189.2v5.7c0.6-0.9,1.8-1.4,2.9-1.4c2.6,0,4.5,2.1,4.5,4.7c0,2.4-1.8,4.7-4.5,4.7
				c-1.1,0-2.1-0.5-2.8-1.2v1h-1.6v-13.5H87.8z M87.8,200c0.6,0.9,1.7,1.4,2.6,1.4c2.1,0,3.1-1.7,3.1-3.2c0-1.7-1.2-3.2-3-3.2
				c-1,0-2.2,0.6-2.6,1.7V200z"/>
			<path fill="#231F20" d="M105.8,202c-0.7,0.5-1.7,0.9-2.8,0.9c-2.6,0-4.6-1.9-4.6-4.7c0-2.6,2.1-4.7,4.7-4.7c1,0,1.8,0.3,2.5,0.8
				l-0.8,1.4c-0.5-0.4-1.2-0.6-1.8-0.6c-1.6,0-3,1.4-3,3.2c0,1.9,1.4,3.2,3,3.2c0.6,0,1.4-0.3,1.9-0.6L105.8,202z"/>
			<path fill="#231F20" d="M108.8,198.2c0-2.4,1.8-4.7,4.5-4.7c1,0,2.1,0.5,2.8,1.2v-5.5h1.6v13.5h-1.6v-1.2c-0.6,1-1.8,1.4-2.9,1.4
				C110.7,202.9,108.8,200.8,108.8,198.2z M116.2,199.7v-3.3c-0.6-0.9-1.7-1.4-2.6-1.4c-2.1,0-3.1,1.7-3.1,3.2c0,1.7,1.2,3.2,3,3.2
				C114.5,201.4,115.7,200.8,116.2,199.7z"/>
			<path fill="#231F20" d="M123.5,198.6c0.1,1.5,1.2,2.9,2.9,2.9c1.2,0,2.1-0.4,2.7-1.5l1.2,0.8c-0.9,1.4-2.1,2.1-3.9,2.1
				c-2.9,0-4.5-2.1-4.5-4.7c0-2.7,2-4.7,4.5-4.7c2.4,0,4.1,1.8,4.1,4.2c0,0.3,0,0.7-0.1,0.9H123.5z M123.7,197.3h5.1
				c-0.1-1.3-1-2.4-2.4-2.4C124.9,194.9,124,195.9,123.7,197.3z"/>
			<path fill="#231F20" d="M139.1,190.7c-0.3-0.2-0.7-0.3-1.1-0.3c-0.5,0-0.8,0.1-1,0.3c-0.4,0.3-0.5,1-0.5,1.8v1.1h2.4v1.4h-2.4
				v7.6h-1.6v-7.6h-1v-1.4h1v-1.3c0-0.9,0.2-1.8,0.6-2.4c0.5-0.7,1.2-1.1,2.4-1.1c0.6,0,1.3,0.2,1.8,0.4L139.1,190.7z"/>
			<path fill="#231F20" d="M150.6,202.2c0,0.9-0.1,1.7-0.5,2.4c-0.8,1.6-2.4,2.1-4.1,2.1c-1.4,0-2.9-0.4-4-1.2l0.6-1.4
				c0.8,0.6,2.2,1.1,3.3,1.1c1.5,0,2.9-0.7,2.9-2.7v-1.2c-0.6,1-1.8,1.4-2.9,1.4c-2.6,0-4.5-2-4.5-4.6c0-2.4,1.8-4.6,4.5-4.6
				c1,0,2.1,0.5,2.8,1.2v-1h1.6V202.2z M149,196.3c-0.6-0.9-1.7-1.4-2.6-1.4c-2.1,0-3.1,1.6-3.1,3.1c0,1.6,1.2,3.1,3,3.1
				c1,0,2.2-0.6,2.7-1.7V196.3z"/>
			<path fill="#231F20" d="M157,195.2c0.7-1.1,1.7-1.7,2.9-1.7c1.3,0,2.1,0.4,2.6,1.1c0.6,0.8,0.8,2,0.8,3.4v4.7h-1.6v-4.5
				c0-0.9,0-1.8-0.5-2.5c-0.3-0.4-0.8-0.7-1.6-0.7c-1,0-2,0.7-2.7,1.7v6h-1.6v-13.5h1.6V195.2z"/>
			<path fill="#231F20" d="M168.1,191.9v-1.8h1.6v1.8H168.1z M168.1,202.7v-9h1.6v9H168.1z"/>
			<path fill="#231F20" d="M176.3,203.5c0,0.6-0.1,1.2-0.3,1.7c-0.3,0.9-1.1,1.5-2.4,1.5c-0.6,0-1.2-0.1-1.7-0.4l0.5-1.3
				c0.3,0.1,0.6,0.3,1,0.3c1.2,0,1.3-0.9,1.3-2.1v-9.5h1.6V203.5z M174.7,191.9v-1.8h1.6v1.8H174.7z"/>
			<path fill="#231F20" d="M186.8,202.7l-2.6-4l-1.4,1.7v2.4h-1.6v-13.5h1.6v9l0,0l3.6-4.5h2l-3.2,3.7l3.5,5.3H186.8z"/>
			<path fill="#231F20" d="M193.8,202.7h-1.6v-13.5h1.6V202.7z"/>
			<path fill="#231F20" d="M210.6,202.7v-4.5c0-0.9,0-1.8-0.4-2.5c-0.3-0.4-0.8-0.7-1.5-0.7c-0.9,0-1.8,0.6-2.5,1.5
				c0.1,0.5,0.1,1,0.1,1.5v4.7h-1.6v-4.5c0-0.9,0-1.9-0.5-2.6c-0.3-0.4-0.7-0.6-1.4-0.6c-0.9,0-1.9,0.8-2.5,1.7v6h-1.6v-9h1.6v1.4
				c0.7-1,1.8-1.6,2.8-1.6c1,0,1.9,0.4,2.5,1.2c0.1,0.1,0.2,0.3,0.2,0.4c0.8-1.1,1.9-1.7,3.1-1.7c1.2,0,2,0.4,2.5,1.1
				c0.6,0.8,0.8,2.1,0.8,3.5v4.7H210.6z"/>
			<path fill="#231F20" d="M76.2,215.3v1.5c0.7-1.1,1.7-1.7,2.9-1.7c1.3,0,2.1,0.4,2.6,1.1c0.6,0.8,0.8,2,0.8,3.4v4.7h-1.6v-4.5
				c0-0.9,0-1.8-0.5-2.5c-0.3-0.4-0.8-0.7-1.6-0.7c-1,0-2,0.7-2.7,1.7v6h-1.6v-9H76.2z"/>
			<path fill="#231F20" d="M95.7,219.8c0,2.6-2,4.7-4.6,4.7s-4.6-2.1-4.6-4.7s2-4.7,4.6-4.7S95.7,217.2,95.7,219.8z M91.1,216.6
				c-1.7,0-2.9,1.5-2.9,3.2c0,1.7,1.2,3.2,2.9,3.2s2.9-1.5,2.9-3.2C94,218,92.8,216.6,91.1,216.6z"/>
			<path fill="#231F20" d="M101.4,215.3v1.2c0.6-0.9,1.8-1.4,2.9-1.4c2.6,0,4.5,2.1,4.5,4.7c0,2.4-1.8,4.7-4.5,4.7
				c-1.1,0-2.1-0.5-2.8-1.2v5.5h-1.6v-13.5H101.4z M101.4,221.6c0.6,0.9,1.7,1.4,2.6,1.4c2.1,0,3.1-1.7,3.1-3.2c0-1.7-1.2-3.2-3-3.2
				c-1,0-2.2,0.6-2.6,1.7V221.6z"/>
			<path fill="#231F20" d="M121,228.8h-1.6v-5.7c-0.6,1-1.8,1.4-2.9,1.4c-2.6,0-4.5-2.1-4.5-4.7c0-2.4,1.8-4.7,4.5-4.7
				c1,0,2.1,0.5,2.8,1.2v-1h1.6V228.8z M119.4,217.9c-0.6-0.9-1.7-1.4-2.6-1.4c-2.1,0-3.1,1.7-3.1,3.2c0,1.7,1.2,3.2,3,3.2
				c1,0,2.2-0.6,2.6-1.7V217.9z"/>
			<path fill="#231F20" d="M127.5,216.8c0.5-1,1.4-1.7,2.3-1.7c0.4,0,0.6,0,1,0.1l-0.3,1.7c-0.3-0.1-0.5-0.2-0.8-0.2
				c-0.9,0-1.6,0.5-2.1,1.5v6h-1.6v-9h1.6V216.8z"/>
			<path fill="#231F20" d="M138.5,217.1c-0.4-0.4-1.2-0.7-1.8-0.7c-0.8,0-1.4,0.5-1.4,1.2c0,0.7,0.9,1,1.7,1.4
				c1.2,0.5,2.6,1.1,2.6,2.7c0,2-1.6,2.8-3.3,2.8c-1.2,0-2.4-0.5-3.1-1.4l1.2-0.9c0.6,0.6,1.2,1,2,1c0.9,0,1.6-0.5,1.6-1.4
				c0-0.7-0.8-1-1.7-1.4c-1.2-0.5-2.6-1-2.6-2.6c0-1.8,1.4-2.7,2.9-2.7c1,0,2.1,0.3,2.8,1L138.5,217.1z"/>
			<path fill="#231F20" d="M145.7,216.7v4.1c0,0.2,0,0.4,0,0.7c0.1,1,0.4,1.5,1.3,1.5c0.4,0,0.7-0.1,1-0.3l0.5,1.3
				c-0.5,0.2-1.1,0.4-1.7,0.4c-1.3,0-2-0.6-2.4-1.4c-0.2-0.5-0.3-1.2-0.3-1.9v-4.5h-1.2v-1.4h1.2v-2.2h1.6v2.2h2.5v1.4H145.7z"/>
			<path fill="#231F20" d="M158.3,222.8c-0.7,1.1-1.7,1.7-2.9,1.7c-1.3,0-2.1-0.4-2.6-1.1c-0.6-0.8-0.8-2-0.8-3.4v-4.7h1.6v4.5
				c0,0.9,0,1.8,0.5,2.5c0.3,0.4,0.8,0.7,1.6,0.7c1,0,2-0.7,2.7-1.7v-6h1.6v9h-1.6V222.8z"/>
			<path fill="#231F20" d="M171.8,215.3l-3.5,9h-1.5l-3.4-9h1.8l2.4,7h0l2.4-7H171.8z"/>
			<path fill="#231F20" d="M183.3,222.2L183.3,222.2l1.9-6.9h1.7l-2.6,9h-1.8l-1.9-7h0l-2,7h-1.8l-2.5-9h1.8l1.7,6.9h0l2-6.9h1.8
				L183.3,222.2z"/>
			<path fill="#231F20" d="M194.6,219.7l3.3,4.6h-2.1l-2.3-3.3l-2.2,3.3h-2l3.3-4.5l-3.1-4.5h2.1l2.2,3.2l2.1-3.2h2L194.6,219.7z"/>
			<path fill="#231F20" d="M202,215.3l2.3,6.8h0l2.4-6.8h1.8l-5.1,13.1l-1.4-0.6l1.4-3.8l-3.3-8.7H202z"/>
			<path fill="#231F20" d="M215.5,216.7h-4.2v-1.4h6.4v0.7l-4,6.8h4.3v1.4h-6.5v-0.7L215.5,216.7z"/>
		</g>
	</g>
	<g>
		<g>
			<path fill="#FFFFFF" d="M102.4,246.5c0,3.2-1.3,5.2-3.5,5.2c-2.2,0-3.5-2-3.5-5.2c0-3.2,1.3-5.2,3.5-5.2
				C101.1,241.3,102.4,243.3,102.4,246.5z M96.8,246.5c0,2.6,0.8,3.9,2.1,3.9c1.3,0,2.1-1.3,2.1-3.9s-0.8-3.9-2.1-3.9
				C97.5,242.6,96.8,243.9,96.8,246.5z"/>
			<path fill="#FFFFFF" d="M107.5,251.4v-8.2c-0.5,0.2-1.1,0.5-1.5,0.7v-1.3c0.6-0.3,1.3-0.7,2-1.1h0.9v10H107.5z"/>
			<path fill="#FFFFFF" d="M113.5,251.4v-1.3c1.2-1.2,2.6-2.7,3.5-4.1c0.4-0.6,0.9-1.4,0.9-2.1c0-0.9-0.8-1.4-1.6-1.4
				c-0.8,0-1.6,0.6-1.6,1.5l-1.4-0.3c0.1-1.5,1.6-2.5,3-2.5c1.6,0,3,1,3,2.6c0,0.9-0.5,1.9-1.1,2.7c-0.9,1.2-1.9,2.4-2.9,3.5h4.4
				v1.3H113.5z"/>
			<path fill="#FFFFFF" d="M125.1,245.6c0.6,0,1,0,1.4-0.2c0.8-0.2,1.3-0.8,1.3-1.5c0-0.8-0.7-1.4-1.7-1.4c-0.7,0-1.4,0.4-1.6,1.1
				l-1.2-0.5c0.4-1.1,1.5-1.8,2.9-1.8c1.8,0,3.1,1,3.1,2.7c0,0.9-0.5,1.7-1.2,2.1c1,0.3,1.8,1.3,1.8,2.5c0,1.9-1.5,3.1-3.3,3.1
				c-1.2,0-2.6-0.5-3.2-1.7l1.1-0.6c0.4,0.7,1.2,1,2,1c1,0,2-0.5,2-1.7c0-1-0.9-1.7-2.1-1.7c-0.3,0-0.7,0-1.2,0.1V245.6z"/>
			<path fill="#FFFFFF" d="M137.7,251.4v-2.5h-4.5v-1.5c1.3-1.6,3.1-4.1,4.4-5.9h1.5v6.2h1.5v1.3h-1.5v2.5H137.7z M137.7,247.7v-4.2
				c-0.9,1.3-2.3,3.2-3,4.2H137.7z"/>
			<path fill="#FFFFFF" d="M149.8,242.7H146c0,0.9-0.1,2-0.2,2.8c0.5-0.2,1-0.3,1.5-0.3c1.6,0,3,1.3,3,3.1c0,1.9-1.4,3.3-3.3,3.3
				c-1.2,0-2.6-0.6-3.2-1.7l1.1-0.6c0.4,0.7,1.1,1,1.9,1c1.3,0,2.1-0.9,2.1-2s-0.9-1.8-2-1.8c-0.6,0-1.1,0.2-1.5,0.6l-1-0.6
				c0.1-1.5,0.3-3.7,0.3-5.1h5.1V242.7z"/>
			<path fill="#FFFFFF" d="M159.4,242.2c-1.8,0.8-3.3,1.9-3.8,3.9c0.6-0.6,1.3-0.9,2.2-0.9c1.8,0,2.9,1.4,2.9,3.2
				c0,1.8-1.3,3.3-3.2,3.3c-2.3,0-3.6-1.9-3.6-4c0-3.2,2.2-5.6,4.9-6.7L159.4,242.2z M155.3,247.7c0,1.4,0.6,2.7,2.1,2.7
				c1.1,0,1.8-0.9,1.8-2c0-1.1-0.7-1.9-1.8-1.9C156.6,246.4,155.7,246.9,155.3,247.7z"/>
			<path fill="#FFFFFF" d="M170,242.5c-1.2,2.6-3.1,6.7-4.1,9.3l-1.3-0.6c1.3-3.2,3.1-6.7,3.9-8.4h-4.8v-1.3h6.3V242.5z"/>
			<path fill="#FFFFFF" d="M173.4,248.7c0-1.2,0.6-2,1.5-2.5c-0.8-0.5-1.2-1.1-1.2-2.2c0-1.5,1.2-2.7,3.1-2.7s3.1,1.2,3.1,2.7
				c0,1.1-0.5,1.7-1.2,2.2c0.9,0.5,1.5,1.3,1.5,2.5c0,1.6-1.4,2.9-3.4,2.9S173.4,250.3,173.4,248.7z M174.9,248.6
				c0,1,0.9,1.7,1.9,1.7c1.1,0,1.9-0.7,1.9-1.7c0-1-0.9-1.7-1.9-1.7C175.7,246.9,174.9,247.7,174.9,248.6z M175.1,244.1
				c0,0.9,0.8,1.5,1.7,1.5s1.7-0.7,1.7-1.5c0-0.9-0.8-1.5-1.7-1.5S175.1,243.2,175.1,244.1z"/>
			<path fill="#FFFFFF" d="M185,250.7c1.8-0.8,3.3-1.9,3.8-3.9c-0.6,0.6-1.3,0.9-2.2,0.9c-1.8,0-2.9-1.4-2.9-3.2
				c0-1.8,1.3-3.3,3.2-3.3c2.3,0,3.6,1.9,3.6,4c0,3.2-2.2,5.6-4.9,6.7L185,250.7z M189.1,245.3c0-1.4-0.6-2.7-2.1-2.7
				c-1.1,0-1.8,0.9-1.8,2c0,1.1,0.7,1.9,1.8,1.9C187.8,246.5,188.7,246,189.1,245.3z"/>
		</g>
	</g>
</g>
</svg>
