<?xml version="1.0" encoding="utf-8"?>
<!-- Generator: Adobe Illustrator 18.0.0, SVG Export Plug-In . SVG Version: 6.00 Build 0)  -->
<!DOCTYPE svg PUBLIC "-//W3C//DTD SVG 1.1//EN" "http://www.w3.org/Graphics/SVG/1.1/DTD/svg11.dtd">
<svg version="1.1" id="Layer_1" xmlns="http://www.w3.org/2000/svg" xmlns:xlink="http://www.w3.org/1999/xlink" x="0px" y="0px"
	 viewBox="0 323.2 612 142.4" enable-background="new 0 323.2 612 142.4" xml:space="preserve">
<g>
	<path d="M611.2,382.9c-2-4.7-7.4,0-5.1,2.3c1.2,1.6,2.3,2.7,0.8,5.1c-2,4.3-7.8,7.4-11.3,9c-19.9,9-39.5,12.5-61.4,10.6
		c-9-0.8-18-2-23.1-10.9c-2.7-4.7-4.3-4.7-8.6-1.2c-5.9,5.1-11.3,10.6-17.2,15.6c-1.6-3.5,2.3-9.4,0.8-12.5c-0.8-2-2-0.4-3.9,0.8
		c-3.9,3.5-5.9-2-8.6-2c-1.2,0-2.3,0.4-4.7,2.3s-3.9,2.7-6.6,3.1c-6.3,1.2-12.9,2.7-19.1,3.9c-1.2,0.4-2.3,0.4-3.5-0.4
		c-3.9-2.7-15.2-5.9-11.7-8.2c6.6-3.9,11.3-5.1,16.8-7c2-0.8,3.9-0.4,5.5,2c1.6,2.3,3.5,1.2,4.7-0.8c1.6-2.7,1.2-5.9-1.2-7.8
		c-2-2-4.7-1.2-7,0c-2.3,1.6-5.9,2.3-8.6,3.1c-4.3,1.2-7.8,2.3-12.1,4.3c-3.1,1.2-6.3,3.5-6.3,7s3.1,4.3,6.3,5.9
		c2,0.8,4.3,2,6.6,3.5c-7,0.8-19.1,5.5-19.5,12.1c-3.5,2.7-5.1-7.8-3.1-15.6c1.2-3.5,0.4-7-0.4-10.6c-1.2-3.5-3.9-3.9-7-2.3
		c-5.9,3.5-11.7,12.5-12.5,11.7c-0.8-1.2,3.1-5.1,0.4-5.9c-0.4,0-2.7,0.4-4.3,2.3c-6.3,7.8-16.4,10.9-18.4,11.7
		c-7,2.3-11.7-1.6-12.9-10.2c-0.4-1.6,0-3.5-2-3.9s-3.9,0.4-5.1,2c-1.6,2.3-4.3,4.7-6.3,6.3c2-5.9,3.5-8.6,4.7-10.6
		c8.6-5.1,19.1-11.7,24.2-18.4c2-2.3,6.3-7.8,7-15.2c0.4-4.3-7-7-10.9-3.5c-9.4,8.6-17.6,18-23.1,29.7c-0.8,1.2-1.6,3.9-1.6,3.9
		s-20.3,4.7-20.3,3.9c-1.6-3.9-5.9-5.1-8.6-4.3c-2,0.4-2.7,0.8-4.7,1.2c0.8-3.1,1.6-5.9,2-7.8c3.5-10.9,6.3-21.9,8.6-33.2
		c1.6-7.4,2.3-14.9-0.4-22.3c-2.3-7-7.8-9.4-14.9-8.2c-11.7,2.3-24.6,10.9-38.3,25c-35.2,35.6-42.2,73.9-36.7,79.3
		c4.7,4.3,24.6-5.5,34-14.5c3.5-3.1,6.6-7,7-12.5c0-2,0-3.9-2-4.3c-2-0.4-3.5,1.2-3.9,3.1c-0.8,2.3-0.4,4.7-1.6,6.6
		c-6.3,9.8-20.3,16-26.2,16.8c-10.6,1.2,1.2-45.7,44.2-82.5c13.3-11.3,31.3-14.9,33.6-7.4c1.2,3.1,5.1,14.9-10.2,61.7
		c-4.7,2.3-9,4.7-10.9,6.3c-7,5.1-11.7,10.9-16.8,17.6c-8.6,11.7-14.9,24.2-18.8,38.7c-0.8,2.7-1.2,5.9,1.6,7.8
		c2.3,1.6,8.6-3.5,10.6-5.1c5.1-4.7,9.8-10.2,15.2-17.6c6.3-8.2,10.9-18,16-27.4c2,6.6,7.4,7.4,10.9,5.1c9-5.1,10.6-13.3,10.9-18
		c13.7-2.7,17.6-3.9,17.6-3.1c-0.8,1.6-2,4.3-2.3,4.7c-2,4.3-3.9,7-5.9,10.9c-1.2,2-3.1,4.3-0.8,6.3c2.3,2,5.1,0,6.6-1.6
		c0.8-1.2,3.5-5.9,7.8-9.4c2.3-1.6,6.6-4.3,6.6,2c0,5.5,5.1,6.3,10.2,5.9c4.3-0.4,9.4-2,12.9-3.9c7.4-3.9,9-1.2,5.5,2.3
		c-2.3,2.3,4.7,4.7,6.6,1.6c3.5-5.9,5.5-10.2,10.9-14.9c2-1.6,3.5-3.1,6.6-4.3c2.7-0.4,0.4,8.6-0.4,12.5c-0.8,4.7-0.8,9,1.2,12.1
		c1.2,1.6,9.8,3.5,13.7,3.5c8.2,0.4,15.2,0.8,20.3-3.9c2.7-2.3,5.1-7.4,3.9-10.6c7-1.2,12.1-2.7,18.4-3.5c-2.3,3.9-5.1,7.8-5.5,11.7
		c0,2,0.4,4.3,2.3,5.5c2,1.2,4.3,0.4,6.3-0.4c4.7-2,8.6-4.7,10.9-11.3c0.4-1.2,3.5-9.8,3.5-5.9c-0.4,2.7-2.3,7.8-2.3,10.2
		c-0.4,2,0.4,3.9,2.7,4.3c2,0.4,3.9,0.4,5.1-2c4.3-6.6,9-12.1,14.5-17.6c3.5-3.5,7.4-3.5,9.8,0.4c5.5,8.6,27,10.9,43,8.6
		C563.1,413.8,619.4,404.4,611.2,382.9z M368.9,368.1c1.6-1.2,5.9-2.3,4.3,3.5c-2,6.3-14.9,19.5-23.4,22.3
		C353.7,385.3,361.9,373.9,368.9,368.1z M285.3,437.6c-9.4,14.5-21.5,24.2-23.1,23.1c-1.6-0.8,3.9-19.1,9.8-27.7
		c7.4-11.3,14.1-21.1,27-28.5c0.4-0.4,1.2-0.4,2.7-1.2C297.4,416.1,292.3,427.1,285.3,437.6z M309.5,417.3c-2.3,0-2-2.3-2-3.9
		c0-4.3,3.9-12.5,8.6-10.9c2.3,0.8,2.3,4.3,2,6.3C316.6,413,311.9,416.9,309.5,417.3z M420.1,422.4c1.2-4.3,9.4-6.3,13.7-6.6
		c1.6,0,3.9-0.4,3.9,2C436.9,424.7,418.6,427.5,420.1,422.4z M461.9,421.6c0.8-4.3,7.8-12.9,10.2-10.6
		C475.6,415.3,461.5,427.1,461.9,421.6z"/>
</g>
<g>
	<path fill="#231F20" d="M221.6,343c0.4-2.7-0.4-5.5-3.5-5.5c-3.1,0-3.1,2.3-3.5,4.7c-0.4,3.9-0.4,8.2-1.2,12.1
		c-3.5,23.1-7.4,45.7-10.9,68.8c-0.4,2.7-0.8,6.3,2.3,6.6c3.9,0.8,3.9-2.7,4.3-5.5c1.6-11.7,3.1-23.8,5.1-35.6
		C216.1,373.5,218.9,358.3,221.6,343z M208.3,349.3c0.4-2.3-0.4-5.1-3.5-5.1c-3.1-0.4-2.7,2.7-3.1,4.7c-3.5,24.6-9.8,48.5-19.1,71.5
		c-1.2,2.7-3.9,5.5,0.4,7.4c3.5,1.6,4.3-2.3,5.5-4.7C197.7,399.7,202.4,374.7,208.3,349.3z"/>
	<path d="M140.3,381c8.2,2,18.4,2,19.9,10.9c0,0.8,0,2,0.4,2c1.6,0,3.5-0.8,5.1-0.8c9.4-0.4,12.5,3.9,9.4,12.5
		c-2.7,6.6-5.9,12.5-9,18.8c-0.8,1.6-2,3.1-3.5,2c-2.3-1.2-2.7-3.5-1.6-5.9c2.3-4.7,4.7-7.4,7-12.1c1.2-2.3,4.7-7.4,1.2-9.4
		c-2-0.8-7-0.8-9.4,0c-0.4,0.8-1.6,2.7-2.7,3.9c-10.9,12.5-38.3,23.4-58.6,26.6c-2.3,0.4-5.1,1.6-6.6-1.6c-1.6-3.1,0.8-5.1,2.7-7
		c7.8-7,17.6-10.6,27-14.9c9.8-4.3,18.8-7,28.9-10.2c0.8-0.4,3.1-0.8,4.3-1.6c0.4-1.6,0-3.5-3.1-4.7c-9.4-3.9-19.1-5.1-28.9-1.2
		c-7,2.7-21.9,8.6-27,9.8c-0.4,3.9-2,12.9-2.7,16.4c-0.4,1.6-0.8,3.5-2.7,3.1c-2-0.4-2.7-2-2.7-3.9c0.4-3.5,1.2-10.9,1.6-14.1
		c-2,0.4-0.8,0-6.6,0.4c-4.7,0.4-6.6,0.4-7.4-0.8c-2.3-3.1,3.5-5.9,6.6-7.4c11.3-5.9,23.8-9.4,36.7-10.6c10.2-0.8,18.4-5.9,25-13.3
		c3.5-3.9,2.3-6.3-2.3-7c-8.6-1.6-17.6-0.8-26.2,0.4c-76.2,10.9-100.8,31.7-106.3,36c-2.7,2.3-3.1,4.7,0.4,6.3
		c1.6,0.8,3.9,1.6,2.7,3.9c-0.8,1.6-3.1,1.2-5.1,0.8c-4.3-1.2-9.4-9-3.1-14.1c12.1-9.8,25.8-15.2,40.3-19.9
		c26.2-8.6,53.1-15.2,80.9-18c6.3-0.4,12.5-1.2,18.8,0.8c9,2.7,10.9,9,5.1,16.4C146.2,375.9,143.4,377.8,140.3,381z M148.5,404
		c0.8-0.8,4.7-3.5,4.3-3.9c-1.6-1.6-51.2,19.1-49.2,22.7C119.6,419.3,134,414.2,148.5,404z"/>
	<path d="M221.6,343c-2.3,15.2-5.1,30.5-7.4,46.1c-2,11.7-3.5,23.4-5.1,35.6c-0.4,2.7-0.4,6.3-4.3,5.5c-3.5-0.8-2.7-3.9-2.3-6.6
		c3.5-23.1,7-38.7,10.9-61.4c0.8-3.9,0.8-15.2,1.2-19.1c0-2.3,0.4-5.1,3.5-4.7C221.2,337.6,221.6,340.3,221.6,343z"/>
	<path d="M208.3,349.3c-5.9,25-11.3,44.6-19.9,73.9c-0.8,2.3-2,6.3-5.5,4.7c-4.3-1.6-1.2-4.7-0.4-7.4c9.4-23.1,15.2-46.9,19.1-71.5
		c0.4-2.3,0-5.1,3.1-4.7S208.3,347,208.3,349.3z"/>
</g>
</svg>
