<?xml version="1.0" encoding="utf-8"?>
<!-- Generator: Adobe Illustrator 17.1.0, SVG Export Plug-In . SVG Version: 6.00 Build 0)  -->
<!DOCTYPE svg PUBLIC "-//W3C//DTD SVG 1.1//EN" "http://www.w3.org/Graphics/SVG/1.1/DTD/svg11.dtd">
<svg version="1.1" id="Layer_1" xmlns="http://www.w3.org/2000/svg" xmlns:xlink="http://www.w3.org/1999/xlink" x="0px" y="0px" viewBox="0 0 137.2 140.5" style="enable-background:new 0 0 137.2 140.5;" xml:space="preserve"
	>
<style type="text/css">
	.st0{fill:#ffffff;}
</style>
<g>
	<path class="st0" d="M75.4,18.8c0-0.2,0-4.5,2.2-9c3-6.3,8.5-9.7,15.7-9.7c7,0,12.5,3.2,15.5,9c2.2,4.3,2.3,8.7,2.3,8.7v7.8l-9.2,0
		v-7.7c0-0.4-0.2-2.5-1.2-4.6c-1.4-2.8-3.7-4-7.4-4c-3.6,0-5.9,1.4-7.4,4.4c-1.1,2.4-1.3,4.9-1.3,5.2V52l-9.2,0V18.8z"/>
	<rect x="61.6" y="55.5" class="st0" width="36.6" height="9.2"/>
	<polygon class="st0" points="84.6,104.5 75.4,104.5 75.4,68.4 84.6,68.3 	"/>
	<polygon class="st0" points="71.7,82.1 71.7,91.2 34.9,91.2 34.9,82.1 	"/>
	<polygon class="st0" points="48.8,78.5 48.8,41.9 58,41.9 58,78.5 	"/>
	<rect x="35" y="29.2" class="st0" width="37" height="9.2"/>
	<path class="st0" d="M22.4,18.7c0-0.8,0.2-4.8,2.2-9c3-6.3,8.5-9.7,15.7-9.7c7,0,12.5,3.2,15.5,9c2.2,4.4,2.3,8.7,2.3,8.7v7.7
		l-9.2,0v-7.6c0-0.4-0.2-2.5-1.2-4.6c-1.4-2.8-3.7-4-7.4-4c-3.6,0-5.9,1.4-7.4,4.4c-1.1,2.4-1.3,4.9-1.3,5.2l0,33.2l-9.2,0
		L22.4,18.7z"/>
	<polygon class="st0" points="0,27.2 9.2,27.2 9.2,29.2 19,29.2 19,38.4 9.2,38.4 9.2,40.5 0,40.5 	"/>
	<polygon class="st0" points="9.2,53.6 9.2,55.6 45.2,55.6 45.2,64.7 9.2,64.7 9.2,66.9 0,66.9 0,53.6 	"/>
	<polygon class="st0" points="31.6,68.3 31.6,104.5 22.4,104.5 22.4,68.3 	"/>
	<polygon class="st0" points="0,80 9.2,80 9.2,82.1 19,82.1 19,91.3 9.2,91.3 9.2,93.4 0,93.4 	"/>
	<polygon class="st0" points="9.2,119.5 0,119.5 0,106.2 9.2,106.2 9.2,108.4 45.4,108.4 45.4,117.5 9.2,117.5 	"/>
	<polygon class="st0" points="20.4,140.5 20.4,131.3 22.4,131.3 22.4,121 31.6,121 31.6,131.3 33.7,131.3 33.7,140.5 	"/>
	<polygon class="st0" points="60.1,140.5 46.8,140.5 46.8,131.3 48.8,131.3 48.8,94.8 58,94.8 58,131.3 60.1,131.3 	"/>
	<rect x="61.5" y="108.4" class="st0" width="36.6" height="9.2"/>
	<polygon class="st0" points="86.7,140.5 73.4,140.5 73.4,131.3 75.4,131.3 75.4,121 84.6,121 84.6,131.3 86.7,131.3 	"/>
	<polygon class="st0" points="99.8,140.5 99.8,131.3 101.8,131.3 101.8,94.7 111,94.8 111,131.3 113.1,131.3 113.1,140.5 	"/>
	<path class="st0" d="M129.7,114.8c-3.5,2.3-6.9,2.7-7.6,2.7l-0.3,0h-7.4v-9.2l7.1,0c1.7-0.2,6.4-1.3,6.4-8.5c0-7.2-4.8-8.4-6.4-8.6
		l-33.4,0v-9.2h33.8l0.3,0c0.2,0,3.9,0.3,7.6,2.8c3.4,2.2,7.4,6.6,7.4,15C137.2,108.3,133.1,112.6,129.7,114.8z"/>
	<rect x="101.9" y="42" class="st0" width="9.2" height="36.6"/>
	<path class="st0" d="M129.7,62c-3.7,2.4-7.4,2.7-7.6,2.7l-0.2,0h-7.4v-9.2h7.1c1.7-0.2,6.4-1.3,6.4-8.5c0-7.1-4.8-8.4-6.5-8.6H88.1
		v-9.2h33.8l0.2,0c0.2,0,3.9,0.4,7.6,2.8c3.4,2.2,7.4,6.6,7.4,15C137.2,55.5,133.1,59.8,129.7,62z"/>
</g>
</svg>
