<?xml version="1.0" encoding="utf-8"?>
<!-- Generator: Adobe Illustrator 17.1.0, SVG Export Plug-In . SVG Version: 6.00 Build 0)  -->
<!DOCTYPE svg PUBLIC "-//W3C//DTD SVG 1.1//EN" "http://www.w3.org/Graphics/SVG/1.1/DTD/svg11.dtd">
<svg version="1.1" id="Layer_1" xmlns="http://www.w3.org/2000/svg" xmlns:xlink="http://www.w3.org/1999/xlink" x="0px" y="0px" viewBox="0 0 185 200.6" style="enable-background:new 0 0 185 200.6;" xml:space="preserve">
<style type="text/css">
	.st0{fill:#212221;}
</style>
<g>
	<path class="st0" d="M136.5,11.4c-15.3-15.3-71-15.3-86.3,0c-15.3,15.3-15.3,71,0,86.3c15.3,15.3,71,15.3,86.3,0
		C151.7,82.5,151.7,26.7,136.5,11.4z M97.3,31c0-0.1,0-2,1-4c1.3-2.7,3.7-4.3,6.9-4.3c3.1,0,5.5,1.4,6.8,3.9c1,1.9,1,3.8,1,3.8V34
		l-4,0v-3.4c0-0.2-0.1-1.1-0.5-2c-0.6-1.2-1.6-1.8-3.2-1.8c-1.6,0-2.6,0.6-3.2,1.9c-0.5,1-0.6,2.2-0.6,2.3v14.5l-4,0V31z M91.2,51.2
		v-4h16v4H91.2z M101.3,68.6l-4,0V52.8l4,0L101.3,68.6z M95.7,58.8l0,4H79.5v-4H95.7z M85.7,57.2v-16l4,0v16L85.7,57.2z M95.8,35.6
		v4l-16.2,0v-4H95.8z M74.1,31c0-0.3,0.1-2.1,1-3.9c1.3-2.7,3.7-4.3,6.9-4.3c3.1,0,5.5,1.4,6.8,3.9c1,1.9,1,3.8,1,3.8v3.4l-4,0v-3.3
		c0-0.2-0.1-1.1-0.5-2c-0.6-1.2-1.6-1.8-3.2-1.8c-1.6,0-2.6,0.6-3.2,1.9c-0.5,1-0.6,2.2-0.6,2.3l0,14.5l-4,0L74.1,31z M64.3,34.7h4
		v0.9h4.3l0,4h-4.3v0.9l-4,0L64.3,34.7z M68.3,46.3v0.8h15.8l0,4H68.3v1h-4l0-5.8L68.3,46.3z M78.1,52.8v15.8l-4,0l0-15.8H78.1z
		 M64.3,57.9h4v0.9h4.3v4h-4.3l0,0.9h-4L64.3,57.9z M68.3,75.2h-4l0-5.8l4,0l0,0.9h15.9v4H68.3V75.2z M73.2,84.4v-4h0.9v-4.5l4,0
		v4.5H79l0,4L73.2,84.4z M90.6,84.4l-5.8,0v-4h0.9v-16l4,0v16h0.9V84.4z M91.2,74.3v-4l16,0v4L91.2,74.3z M102.2,84.4h-5.8l0-4h0.9
		v-4.5h4v4.5h0.9V84.4z M108,84.4v-4h0.9v-16l4,0v16h0.9l0,4H108z M121.1,73.1c-1.5,1-3,1.2-3.3,1.2l-0.1,0h-3.2v-4l3.1,0
		c0.7-0.1,2.8-0.6,2.8-3.7c0-3.1-2.1-3.7-2.8-3.8l-14.6,0v-4h14.8l0.1,0c0.1,0,1.7,0.2,3.3,1.2c1.5,1,3.3,2.9,3.3,6.6
		C124.3,70.2,122.6,72.1,121.1,73.1z M108.9,57.2v-16h4v16H108.9z M121.1,50c-1.6,1-3.3,1.2-3.3,1.2l-0.1,0h-3.2v-4h3.1
		c0.7-0.1,2.8-0.6,2.8-3.7c0-3.1-2.1-3.7-2.8-3.8h-14.6v-4h14.8l0.1,0c0.1,0,1.7,0.2,3.3,1.2c1.5,1,3.3,2.9,3.3,6.6
		C124.3,47.1,122.6,49,121.1,50z"/>
	<g>
		<g>
			<path class="st0" d="M56.2,136.3h-4v24.3h-3.6v-24.3h-4v-3.6h11.7V136.3z"/>
			<path class="st0" d="M74.3,132.8v27.7h-3.6v-12.1h-5.8v12.1h-3.6v-27.7h3.6v12h5.8v-12H74.3z"/>
			<path class="st0" d="M84.3,136.3v8.6h5.7v3.6h-5.7v8.6h5.7v3.6h-9.4v-28h9.4v3.6H84.3z"/>
		</g>
		<g>
			<path class="st0" d="M118.9,141.9c0,1.9-0.7,3.5-2,4.7c1.3,1.2,2,2.9,2,4.8v2.7c0,3.6-2.9,6.6-6.5,6.6h-6.3v-28h6.3
				c3.6,0,6.5,2.9,6.5,6.6V141.9z M115.3,139.2c0-1.6-1.3-2.9-2.9-2.9h-2.9v8.6h2.9c1.6,0,2.9-1.3,2.9-2.9V139.2z M112.4,148.4h-2.9
				v8.6h2.9c1.6,0,2.9-1.3,2.9-2.9v-2.7C115.3,149.8,114,148.4,112.4,148.4z"/>
			<path class="st0" d="M129.5,136.3v8.6h5.7v3.6h-5.7v8.6h5.7v3.6h-9.4v-28h9.4v3.6H129.5z"/>
			<path class="st0" d="M155.3,139.2v21.3h-3.6v-12h-5.8v12h-3.6v-21.3c0-3.6,2.9-6.5,6.6-6.5C152.4,132.7,155.3,135.6,155.3,139.2z
				 M151.7,139.2c0-1.6-1.3-2.9-2.9-2.9c-1.6,0-2.9,1.3-2.9,2.9v5.7h5.8V139.2z"/>
			<path class="st0" d="M185,139.2v21.4h-3.6v-21.4c0-1.6-1.3-2.9-2.9-2.9c-1.6,0-2.9,1.3-2.9,2.9v21.4h-3.6v-21.4
				c0-1.6-1.3-2.9-2.9-2.9c-1.6,0-2.9,1.3-2.9,2.9v21.4h-3.6v-21.4c0-3.6,2.9-6.5,6.6-6.5c1.8,0,3.5,0.8,4.7,2c1.2-1.2,2.9-2,4.7-2
				C182,132.6,185,135.6,185,139.2z"/>
		</g>
		<g>
			<path class="st0" d="M6.6,160.6c4.5,0,6.5-3.7,6.5-6.9v-14.9c0-2.8-2.9-6.1-6.5-6.1c-3.6,0-6.5,3.3-6.5,6.1v14.9
				C0.1,158.4,3.5,160.6,6.6,160.6z M9.6,153.4c0,0,0.1,3.5-3,3.5c-3,0-2.9-3.5-2.9-3.5v-13.7c0-1.5,0.4-3.5,2.9-3.5
				c2.4,0,2.9,2,2.9,3.5V153.4z"/>
			<path class="st0" d="M23.5,132.6c-4.1,0-6.5,3.5-6.5,6.4v21.5h1h1.3h1.2v-21.7c0-1,1.1-2.6,3-2.6c1.8,0,2.9,1.6,2.9,2.6l0,21.7h1
				h1.3H30l0-21.5C30,136.2,27.4,132.6,23.5,132.6z"/>
		</g>
	</g>
	<g>
		<path class="st0" d="M78.7,173.8c0.2,0,0.6,0,1.2,0c0.6,0,1,0,1.3,0c0,0.1,0.1,0.4,0.1,0.6c0.1,0.3,0.1,0.4,0.1,0.4
			c0,0-0.1,0-0.2,0c-0.1,0-0.1,0-0.1-0.1c-0.2-0.4-0.5-0.7-1-0.7h-0.4c-0.4,0-0.6,0-0.6,0.1c0,0.1,0,0.3,0,0.6v1.2c0,0,0.1,0,0.3,0
			h0.4c0,0,0,0,0,0c0.3,0,0.5,0,0.5,0c0.1,0,0.1-0.1,0.1-0.3c0-0.1,0-0.1,0-0.2c0,0,0-0.1,0.1-0.1c0.1,0,0.1,0,0.1,0v1.4
			c0,0-0.1,0-0.1,0c-0.1,0-0.1,0-0.1-0.1c0-0.1-0.1-0.2-0.1-0.3c0-0.1,0-0.1-0.1-0.1c0,0,0,0-0.1,0c-0.1,0-0.3-0.1-0.7-0.1
			c-0.4,0-0.5,0-0.5,0.1v1.2c0,0.3,0,0.5,0.1,0.6c0,0.1,0.2,0.1,0.5,0.1H80c0.4,0,0.7-0.1,0.9-0.2c0.1,0,0.2-0.1,0.3-0.3
			c0.1-0.1,0.2-0.3,0.2-0.5c0,0,0,0,0.1,0c0.1,0,0.2,0,0.2,0c0,0-0.1,0.1-0.1,0.3c-0.1,0.2-0.1,0.3-0.1,0.4c0,0.1-0.1,0.2-0.1,0.3
			c0,0.1-0.1,0.2-0.1,0.3c-0.2,0-0.6,0-1.2,0c-0.6,0-1.1,0-1.3,0l-1,0c0,0,0-0.1,0-0.1c0-0.1,0-0.1,0-0.1c0.1,0,0.2,0,0.3,0
			c0.1,0,0.2-0.1,0.2-0.1c0-0.1,0.1-0.3,0.1-0.7v-2.8c0-0.3,0-0.5-0.1-0.6c0-0.1-0.1-0.1-0.2-0.1c-0.1,0-0.2-0.1-0.3-0.1
			c0,0,0,0,0-0.1c0-0.1,0-0.1,0-0.1C78,173.8,78.4,173.8,78.7,173.8z"/>
		<path class="st0" d="M82.1,175c0-0.4,0.2-0.7,0.5-0.9c0.3-0.3,0.7-0.4,1.1-0.4c0.1,0,0.3,0,0.4,0c0.1,0,0.3,0,0.4,0.1
			c0.2,0,0.3,0.1,0.4,0.1c0.1,0.3,0.1,0.7,0.1,1.2c0,0,0,0.1-0.1,0.1c-0.1,0-0.2,0-0.2-0.1c0-0.2-0.1-0.5-0.3-0.7
			c-0.2-0.2-0.4-0.3-0.7-0.3c-0.2,0-0.4,0.1-0.5,0.2c-0.1,0.1-0.2,0.3-0.2,0.5c0,0.1,0,0.1,0,0.2c0,0.1,0.1,0.1,0.1,0.2
			c0.1,0.1,0.1,0.1,0.1,0.2c0,0,0.1,0.1,0.2,0.2c0.1,0.1,0.2,0.1,0.2,0.1c0,0,0.1,0.1,0.2,0.1c0.1,0.1,0.2,0.1,0.2,0.1
			c0,0,0.1,0.1,0.3,0.2c0.1,0.1,0.2,0.1,0.3,0.2c0.1,0,0.1,0.1,0.2,0.2c0.1,0.1,0.2,0.2,0.2,0.3c0,0.1,0.1,0.2,0.1,0.3
			c0,0.1,0.1,0.3,0.1,0.4c0,0.4-0.2,0.7-0.5,1c-0.3,0.3-0.7,0.4-1.1,0.4c-0.3,0-0.8-0.1-1.4-0.2c0-0.2-0.1-0.4-0.1-0.7
			c0-0.3-0.1-0.5-0.1-0.5c0,0,0-0.1,0.1-0.1c0.1,0,0.2,0,0.2,0.1c0,0.1,0.1,0.2,0.1,0.3c0,0.1,0.1,0.2,0.2,0.3
			c0.1,0.1,0.2,0.2,0.4,0.3c0.1,0.1,0.3,0.1,0.5,0.1c0.2,0,0.4-0.1,0.6-0.2c0.2-0.1,0.2-0.3,0.2-0.6c0-0.1,0-0.2,0-0.2
			c0-0.1-0.1-0.1-0.1-0.2c0-0.1-0.1-0.1-0.2-0.2c-0.1-0.1-0.2-0.1-0.2-0.1c-0.1,0-0.1-0.1-0.2-0.1c-0.1-0.1-0.2-0.1-0.2-0.1
			c0,0,0,0-0.1-0.1c-0.1-0.1-0.3-0.2-0.3-0.2c-0.1-0.1-0.2-0.1-0.3-0.2c-0.1-0.1-0.2-0.2-0.3-0.3c-0.1-0.1-0.1-0.2-0.2-0.3
			C82.2,175.3,82.1,175.2,82.1,175z"/>
		<path class="st0" d="M87.1,173.8c0.3,0,0.6,0,0.8,0c0.2,0,0.5,0,0.8,0c0.3,0,0.6,0,0.8,0c0.1,0,0.3,0,0.5-0.1l0.1,1.1
			c0,0-0.1,0.1-0.2,0.1c0,0-0.1,0-0.1,0c-0.1-0.3-0.2-0.5-0.3-0.6c-0.1-0.1-0.3-0.1-0.5-0.1c-0.5,0-0.7,0-0.7,0.1
			c0,0.1-0.1,0.4-0.1,0.7v2.7c0,0.3,0,0.5,0.1,0.7c0,0,0.1,0.1,0.2,0.1c0.1,0,0.2,0.1,0.3,0.1c0,0,0,0,0,0.1c0,0.1,0,0.1,0,0.1
			c-0.1,0-0.2,0-0.3,0c-0.1,0-0.2,0-0.4,0c-0.1,0-0.2,0-0.3,0c-0.1,0-0.3,0-0.6,0c-0.2,0-0.4,0-0.4,0c0,0,0-0.1,0-0.1
			c0-0.1,0-0.1,0-0.1c0.1,0,0.2,0,0.3-0.1c0.1,0,0.2-0.1,0.2-0.1c0-0.1,0.1-0.3,0.1-0.6V175c0-0.4,0-0.7-0.1-0.7
			c0-0.1-0.3-0.1-0.7-0.1c-0.2,0-0.4,0-0.5,0.1c-0.1,0.1-0.2,0.3-0.3,0.6c0,0,0,0-0.1,0c-0.1,0-0.2,0-0.2-0.1l0.1-1.1
			c0.2,0,0.4,0.1,0.5,0.1C86.5,173.8,86.7,173.8,87.1,173.8z"/>
		<path class="st0" d="M91.5,177.9c0.1,0.1,0.1,0.2,0.1,0.4c0,0.1,0,0.3-0.1,0.4c-0.1,0.1-0.2,0.2-0.3,0.2c-0.1,0-0.3-0.1-0.4-0.2
			c-0.1-0.1-0.1-0.2-0.1-0.4c0-0.1,0.1-0.3,0.1-0.4c0.1-0.1,0.2-0.1,0.4-0.1C91.2,177.8,91.4,177.8,91.5,177.9z"/>
		<path class="st0" d="M95.2,173.9c0.4,0,0.6,0.1,0.9,0.4c0.2,0.2,0.3,0.5,0.3,0.9c0,0.1,0,0.3-0.1,0.5c0,0.2-0.1,0.3-0.2,0.4
			c-0.1,0.1-0.2,0.3-0.3,0.4c-0.1,0.2-0.2,0.3-0.3,0.4c-0.1,0.1-0.2,0.2-0.4,0.4c-0.2,0.2-0.3,0.3-0.3,0.3c-0.1,0.1-0.2,0.2-0.3,0.3
			c0,0,0,0,0,0c0,0,0,0,0,0h1.4c0.1,0,0.2,0,0.3-0.1c0.1-0.1,0.1-0.1,0.2-0.2c0-0.1,0.1-0.2,0.1-0.3c0,0,0.1-0.1,0.1-0.1
			c0.1,0,0.1,0,0.2,0c-0.1,0.7-0.2,1.1-0.2,1.2c0,0.1,0,0.1-0.1,0.1h-2.6c-0.1,0-0.1-0.1-0.1-0.2c0.5-0.5,1-1.1,1.3-1.7
			c0.4-0.6,0.6-1.1,0.6-1.5c0-0.2-0.1-0.4-0.2-0.6c-0.1-0.2-0.3-0.2-0.5-0.2c-0.1,0-0.1,0-0.2,0c-0.1,0-0.1,0-0.2,0.1
			c0,0-0.1,0.1-0.1,0.1c0,0-0.1,0.1-0.1,0.1c0,0-0.1,0.1-0.1,0.1c0,0-0.1,0.1-0.1,0.1c0,0,0,0-0.1,0.1s0,0.1,0,0.1
			c0,0-0.1,0-0.1-0.1c0,0-0.1-0.1-0.1-0.1c0-0.1,0.1-0.2,0.1-0.3c0.1-0.1,0.2-0.2,0.3-0.3c0.1-0.1,0.3-0.2,0.4-0.3
			C94.8,173.9,94.9,173.9,95.2,173.9z"/>
		<path class="st0" d="M97.6,178c-0.3-0.5-0.5-1-0.5-1.7c0-0.6,0.2-1.2,0.5-1.7c0.3-0.5,0.7-0.7,1.2-0.7c0.5,0,0.8,0.2,1.2,0.7
			c0.3,0.5,0.5,1,0.5,1.7c0,0.6-0.2,1.2-0.5,1.7c-0.3,0.5-0.7,0.7-1.2,0.7C98.3,178.7,97.9,178.5,97.6,178z M97.9,176.3
			c0,0.6,0.1,1.1,0.2,1.5c0.2,0.4,0.4,0.6,0.6,0.6c0.3,0,0.4-0.2,0.6-0.6c0.1-0.4,0.2-0.9,0.2-1.5c0-0.6-0.1-1.1-0.2-1.4
			c-0.1-0.4-0.3-0.6-0.6-0.6c-0.2,0-0.4,0.2-0.6,0.6C98,175.3,97.9,175.7,97.9,176.3z"/>
		<path class="st0" d="M101.2,175.1C101.2,175.1,101.1,175.1,101.2,175.1c-0.1-0.1-0.1-0.2-0.1-0.2c0,0,0-0.1,0-0.1
			c0.2-0.2,0.5-0.3,0.7-0.5c0.2-0.2,0.4-0.3,0.6-0.3c0.1-0.1,0.2-0.1,0.2-0.1h0c0,0,0.1,0,0.1,0.1c0,0.2-0.1,0.4-0.1,0.7v3
			c0,0.2,0,0.4,0.1,0.6c0,0,0.1,0.1,0.2,0.1c0.1,0,0.2,0.1,0.3,0.1c0,0,0,0.1,0,0.1c0,0.1,0,0.1,0,0.1c0,0-0.1,0-0.4,0
			c-0.2,0-0.4,0-0.6,0s-0.3,0-0.5,0c-0.2,0-0.4,0-0.4,0c0,0,0-0.1,0-0.1c0-0.1,0-0.1,0-0.1c0.1,0,0.1,0,0.3-0.1
			c0.1,0,0.2-0.1,0.2-0.1c0-0.1,0-0.3,0-0.4v-2.6c0-0.1,0-0.2,0-0.3c0-0.1,0-0.1,0-0.1c0,0,0,0-0.1,0c0,0,0,0-0.1,0
			c0,0-0.1,0-0.1,0.1c0,0-0.1,0-0.1,0.1C101.4,175,101.3,175,101.2,175.1C101.3,175.1,101.2,175.1,101.2,175.1z"/>
		<path class="st0" d="M105.5,173.9c0.2,0,0.4,0.1,0.6,0.2c0.2,0.2,0.3,0.4,0.3,0.7c0,0.4-0.2,0.8-0.6,1.1c0.1,0,0.2,0.1,0.3,0.1
			c0.1,0.1,0.2,0.1,0.3,0.2c0.1,0.1,0.2,0.2,0.3,0.4c0.1,0.2,0.1,0.3,0.1,0.5c0,0.3-0.1,0.6-0.3,0.9c-0.2,0.2-0.4,0.4-0.7,0.6
			c-0.3,0.1-0.6,0.2-0.9,0.2c-0.4,0-0.7-0.1-0.9-0.2c0-0.1-0.1-0.1-0.1-0.2c0-0.1,0-0.2,0.1-0.3c0-0.1,0.1-0.1,0.2-0.1
			c0,0,0.1,0,0.1,0c0,0,0.1,0,0.1,0.1c0,0,0.1,0.1,0.1,0.1c0,0.1,0.1,0.1,0.1,0.1c0.1,0.1,0.3,0.2,0.6,0.2c0.2,0,0.4-0.1,0.6-0.3
			c0.2-0.2,0.2-0.4,0.2-0.8c0-0.3-0.1-0.5-0.3-0.7c-0.2-0.2-0.4-0.3-0.6-0.3c-0.1,0-0.3,0-0.4,0c0,0-0.1-0.1-0.1-0.2
			c0,0,0-0.1,0-0.1c0.3-0.1,0.6-0.2,0.7-0.4c0.2-0.2,0.3-0.4,0.3-0.7c0-0.2-0.1-0.3-0.2-0.5c-0.1-0.1-0.2-0.2-0.4-0.2
			c-0.1,0-0.1,0-0.2,0c-0.1,0-0.1,0-0.2,0.1c0,0-0.1,0-0.1,0.1c0,0-0.1,0.1-0.1,0.1c0,0-0.1,0.1-0.1,0.1c0,0-0.1,0-0.1-0.1
			c0,0,0-0.1,0-0.1C104.5,174.1,104.9,173.9,105.5,173.9z"/>
	</g>
	<g>
		<path class="st0" d="M3.7,192.6c0.7,0,1.4,0.3,1.9,0.8c0.5,0.5,0.8,1.2,0.8,1.9c0,0.8-0.3,1.5-0.8,2c-0.6,0.5-1.2,0.8-2,0.8
			c-0.4,0-0.7,0-0.9-0.1c-0.2-0.1-0.4-0.1-0.7-0.1c-0.1,0-0.2,0-0.4,0.1c-0.2,0.1-0.3,0.1-0.3,0.1c0,0-0.1,0-0.2-0.1
			c-0.1-0.1-0.2-0.1-0.2-0.2c0,0,0-0.1,0-0.2c0-0.1,0-0.3,0-0.5c0-0.2,0-0.4,0-0.7v-4.9c0-0.3,0-0.6-0.1-0.9c0-0.1-0.2-0.2-0.6-0.2
			H0.2c0,0-0.1-0.1-0.1-0.2c0-0.1,0-0.2,0.1-0.2c0.2,0,0.5-0.1,0.8-0.1c0.3,0,0.5-0.1,0.6-0.1c0.2,0,0.3-0.1,0.5-0.1
			c0.1,0,0.3-0.1,0.3-0.1l0.1,0h0c0,0,0.1,0,0.1,0.1c0,0,0.1,0.1,0.1,0.1c-0.1,0.4-0.1,0.8-0.1,1.2v1.8c0,0,0,0,0,0.1c0,0,0,0,0,0.1
			c0,0,0,0,0,0c0,0,0,0,0,0C2.9,192.7,3.3,192.6,3.7,192.6z M3.5,193.3c-0.3,0-0.6,0.1-0.7,0.3c-0.2,0.2-0.3,0.4-0.3,0.6v2.3
			c0,0.3,0.1,0.6,0.3,0.7c0.2,0.2,0.4,0.3,0.7,0.3c0.4,0,0.6-0.2,0.8-0.5c0.2-0.3,0.3-0.8,0.3-1.3C4.6,194.1,4.2,193.3,3.5,193.3z"
			/>
		<path class="st0" d="M14.5,194v2.4c0,0.4,0,0.7,0.1,0.8c0,0,0.1,0.1,0.2,0.1c0.1,0,0.2,0,0.3,0h0.1c0,0,0,0,0,0.1
			c0,0.2,0,0.4-0.1,0.4c-0.1,0-0.3,0-0.5,0c-0.2,0-0.4,0.1-0.6,0.1c-0.2,0-0.4,0.1-0.5,0.1c-0.2,0-0.3,0.1-0.4,0.1l-0.2,0
			c0,0-0.1-0.1-0.1-0.2v-0.4c0,0,0-0.1,0-0.1c0,0,0,0,0,0c-0.2,0.2-0.4,0.3-0.7,0.5c-0.3,0.1-0.7,0.2-1.1,0.2
			c-0.5,0-0.9-0.2-1.1-0.6c-0.3-0.4-0.4-0.9-0.4-1.5v-1.2c0-0.5-0.1-0.8-0.2-0.9c-0.1-0.1-0.1-0.1-0.3-0.2c-0.1,0-0.2-0.1-0.3-0.1
			c-0.1,0-0.1,0-0.1,0c0-0.3,0-0.4,0.1-0.4c0.2,0,0.5-0.1,1.1-0.2c0.5-0.1,0.9-0.2,1.2-0.3l0.1,0c0,0,0.1,0,0.1,0c0,0,0.1,0,0.1,0.1
			c0,0.1,0.1,0.1,0.1,0.1c-0.1,0.7-0.1,1.1-0.1,1.2v1.3c0,0.6,0.1,1.1,0.2,1.3c0.2,0.3,0.4,0.4,0.8,0.4c0.3,0,0.5-0.1,0.6-0.2
			c0.1-0.1,0.2-0.3,0.2-0.4v-1.7c0-0.5-0.1-0.8-0.2-0.9c-0.1-0.1-0.1-0.1-0.3-0.2c-0.1,0-0.2-0.1-0.3-0.1c-0.1,0-0.1,0-0.1,0
			c0-0.3,0-0.4,0.1-0.4c0.2,0,0.5-0.1,1.1-0.2c0.5-0.1,0.9-0.2,1.2-0.3c0,0,0,0,0.1,0l0.1,0c0,0,0.1,0,0.1,0.1
			c0,0.1,0.1,0.1,0.1,0.1C14.5,193.5,14.5,193.9,14.5,194z"/>
		<path class="st0" d="M20.2,196.2c0,0.5,0,0.9,0.1,1.1c0,0.1,0.1,0.1,0.3,0.2c0.2,0.1,0.4,0.1,0.4,0.1c0,0,0,0.1,0,0.2
			c0,0.1,0,0.2,0,0.2c-0.1,0-0.3,0-0.7-0.1c-0.4,0-0.7,0-0.9,0c-0.2,0-0.5,0-0.9,0c-0.4,0-0.7,0-0.8,0.1c0,0,0-0.1,0-0.2
			c0-0.1,0-0.2,0-0.2c0.1,0,0.2,0,0.5-0.1c0.2-0.1,0.3-0.1,0.3-0.2c0.1-0.2,0.1-0.5,0.1-0.9v-1.7c0-0.5-0.1-0.8-0.2-0.9
			c-0.1-0.1-0.1-0.1-0.2-0.2c-0.1,0-0.2-0.1-0.3-0.1c-0.1,0-0.1,0-0.1,0c0-0.3,0-0.4,0.1-0.4c0.2,0,0.5-0.1,1.1-0.2
			c0.5-0.1,0.9-0.2,1.2-0.3c0,0,0.1,0,0.1,0c0,0,0.1,0,0.1,0.1c0,0.1,0.1,0.1,0.1,0.1c0,0.1,0,0.2,0,0.4c0,0.2,0,0.3-0.1,0.5
			c0,0.1,0,0.3,0,0.4V196.2z M18.7,191.2c-0.2-0.2-0.3-0.4-0.3-0.6c0-0.2,0.1-0.5,0.3-0.6c0.2-0.2,0.4-0.3,0.6-0.3
			c0.2,0,0.5,0.1,0.6,0.3c0.2,0.2,0.3,0.4,0.3,0.6c0,0.2-0.1,0.5-0.3,0.6c-0.2,0.2-0.4,0.3-0.6,0.3
			C19.1,191.4,18.8,191.3,18.7,191.2z"/>
		<path class="st0" d="M24.5,191.5c0-0.4,0-0.7-0.1-0.9c0-0.1-0.3-0.2-0.6-0.2h-0.1c0,0-0.1-0.1-0.1-0.2c0-0.1,0-0.2,0.1-0.2
			c0.2,0,0.5-0.1,0.8-0.1c0.3,0,0.5-0.1,0.6-0.1c0.2,0,0.3-0.1,0.5-0.1c0.1,0,0.3-0.1,0.3-0.1l0.1,0h0c0,0,0.1,0,0.1,0.1
			c0,0,0.1,0.1,0.1,0.1c-0.1,0.4-0.1,0.8-0.1,1.2l0,5.2c0,0.5,0,0.9,0.1,1.1c0,0.1,0.1,0.1,0.3,0.2c0.2,0.1,0.3,0.1,0.4,0.1
			c0,0,0,0.1,0,0.2c0,0.1,0,0.2,0,0.2c-0.1,0-0.3,0-0.8-0.1c-0.4,0-0.7,0-0.9,0c-0.2,0-0.5,0-0.9,0c-0.4,0-0.7,0-0.7,0.1
			c0,0,0-0.1,0-0.2c0-0.1,0-0.2,0-0.2c0.1,0,0.2,0,0.4-0.1c0.2-0.1,0.3-0.1,0.3-0.2c0.1-0.2,0.1-0.5,0.1-0.9V191.5z"/>
		<path class="st0" d="M32,192.6c0.3,0,0.6,0,0.8,0.1c0,0,0-0.1,0-0.2v-1c0-0.3,0-0.6-0.1-0.9c0-0.1-0.2-0.2-0.6-0.2h-0.1
			c0,0-0.1-0.1-0.1-0.2c0-0.1,0-0.2,0.1-0.2c0.2,0,0.5-0.1,0.8-0.1c0.3,0,0.5-0.1,0.6-0.1c0.2,0,0.3-0.1,0.5-0.1
			c0.1,0,0.3-0.1,0.3-0.1l0.1,0h0c0,0,0.1,0,0.1,0.1c0,0,0.1,0.1,0.1,0.1c-0.1,0.4-0.1,0.8-0.1,1.2v5.2c0,0.3,0,0.6,0.1,0.9
			c0,0.1,0.1,0.1,0.1,0.1c0.1,0,0.1,0.1,0.2,0.1c0.1,0,0.2,0,0.2,0l0.1,0c0,0,0,0.1,0,0.1c0,0.2,0,0.3-0.1,0.3c-0.1,0-0.3,0-0.5,0
			c-0.2,0-0.4,0.1-0.6,0.1c-0.2,0-0.4,0.1-0.6,0.1c-0.2,0-0.3,0.1-0.4,0.1l-0.2,0c0,0-0.1-0.1-0.1-0.2v-0.3c0,0,0-0.1,0-0.1
			c0,0,0,0,0,0c-0.3,0.3-0.7,0.5-1.2,0.5c-0.7,0-1.2-0.2-1.7-0.7c-0.5-0.5-0.8-1.1-0.8-1.9c0-0.8,0.3-1.5,0.8-2
			C30.5,192.8,31.2,192.6,32,192.6z M31.9,193.2c-0.4,0-0.7,0.2-0.8,0.5c-0.2,0.3-0.3,0.8-0.3,1.4c0,1.5,0.4,2.2,1.1,2.2
			c0.3,0,0.5-0.1,0.7-0.2c0.2-0.2,0.3-0.3,0.3-0.6v-2.2c0-0.1,0-0.2,0-0.3c0-0.1-0.1-0.2-0.1-0.3c-0.1-0.1-0.2-0.2-0.3-0.3
			C32.3,193.3,32.2,193.2,31.9,193.2z"/>
		<path class="st0" d="M50.2,193.6c0-0.2-0.1-0.3-0.3-0.4c-0.2-0.1-0.4-0.1-0.6-0.1h0c0,0-0.1-0.1-0.1-0.2c0-0.1,0-0.2,0-0.3
			c0.1,0,0.4,0,0.7,0.1c0.4,0,0.7,0,0.9,0c0.2,0,0.4,0,0.7,0c0.3,0,0.5-0.1,0.7-0.1c0,0.1,0,0.2,0,0.2c0,0.1,0,0.2,0,0.2
			c-0.1,0-0.3,0.1-0.5,0.2c-0.3,0.1-0.4,0.3-0.5,0.4l-2,4.2c0,0.1-0.1,0.1-0.2,0.2c-0.1,0.1-0.2,0.1-0.3,0.1c-0.1,0-0.1,0-0.2-0.1
			l-1.4-3.1l-1.4,3c0,0.1-0.1,0.1-0.2,0.2c-0.1,0.1-0.2,0.1-0.3,0.1c-0.1,0-0.1,0-0.2-0.1l-2-4.5c-0.1-0.1-0.2-0.2-0.4-0.3
			c-0.2-0.1-0.3-0.1-0.4-0.1c0,0,0-0.1,0-0.2c0-0.1,0-0.2,0-0.2c0.1,0,0.3,0,0.7,0.1c0.4,0,0.7,0,0.9,0c0.2,0,0.5,0,0.9,0
			c0.4,0,0.7,0,0.8,0c0,0,0,0.1,0,0.2c0,0.1,0,0.2,0,0.2c-0.1,0-0.2,0-0.4,0.1c-0.2,0.1-0.3,0.2-0.3,0.3c0,0.1,0.3,0.9,1,2.4
			c0.1-0.2,0.2-0.4,0.3-0.7c0.1-0.3,0.2-0.5,0.3-0.6c0.1-0.1,0.1-0.2,0.2-0.4c0.1-0.1,0.1-0.2,0.1-0.3c0-0.1,0-0.1,0-0.1
			c0-0.2,0-0.3-0.1-0.4c-0.1-0.1-0.2-0.2-0.3-0.2c-0.1,0-0.3-0.1-0.5-0.1c0,0-0.1-0.1-0.1-0.2c0-0.1,0-0.2,0-0.2
			c0.1,0,0.3,0,0.7,0.1c0.4,0,0.6,0,0.8,0c0.2,0,0.5,0,0.9,0c0.4,0,0.7,0,0.7,0c0,0,0,0.1,0,0.3c0,0.1,0,0.2-0.1,0.2
			c-0.1,0-0.3,0-0.4,0.1c-0.1,0.1-0.2,0.1-0.2,0.3c0,0.1,0.3,0.9,0.9,2.4c0.1-0.3,0.3-0.7,0.5-1.1c0.2-0.4,0.3-0.7,0.4-0.9
			C50.1,193.7,50.2,193.6,50.2,193.6z"/>
		<path class="st0" d="M56.8,192.6c0.7,0,1.3,0.3,1.7,0.8c0.4,0.5,0.7,1,0.7,1.5c0,0.2,0,0.3-0.1,0.4c-0.1,0.1-0.2,0.1-0.5,0.1H56
			c0,0-0.1,0-0.1,0.1c0,0.4,0.1,0.8,0.4,1.2c0.2,0.3,0.6,0.5,1.1,0.5c0.3,0,0.5,0,0.8-0.1c0.2-0.1,0.4-0.1,0.5-0.2
			c0.1-0.1,0.2-0.2,0.4-0.3c0.1,0,0.1,0.1,0.1,0.2c0,0.1,0,0.2,0,0.2c-0.1,0.2-0.3,0.4-0.7,0.7c-0.4,0.3-0.9,0.4-1.4,0.4
			c-0.7,0-1.4-0.3-1.9-0.8c-0.5-0.5-0.8-1.2-0.8-1.9c0-0.8,0.2-1.4,0.7-1.9C55.4,192.8,56.1,192.6,56.8,192.6z M56.8,193.2
			c-0.3,0-0.5,0.2-0.7,0.5c-0.1,0.3-0.2,0.6-0.2,0.9c0,0,0,0.1,0.1,0.1h1.5c0.1,0,0.2-0.1,0.2-0.2c0-0.3-0.1-0.6-0.2-0.8
			C57.3,193.3,57,193.2,56.8,193.2z"/>
		<path class="st0" d="M64.4,192.5c0.6,0,1,0.2,1.3,0.5c0.3,0.3,0.5,0.9,0.5,1.7v2c0,0.3,0.1,0.4,0.3,0.4c0.1,0,0.3-0.1,0.4-0.2
			c0.1,0,0.1,0.1,0.1,0.2c0,0.2,0,0.4-0.1,0.4c-0.1,0.1-0.3,0.2-0.5,0.3c-0.3,0.1-0.5,0.2-0.7,0.2c-0.2,0-0.4-0.1-0.6-0.2
			c-0.2-0.1-0.3-0.3-0.4-0.4c0,0,0,0-0.1,0.1c-0.1,0-0.1,0.1-0.2,0.2c-0.1,0.1-0.2,0.1-0.3,0.2c-0.1,0.1-0.3,0.1-0.4,0.1
			c-0.2,0-0.3,0.1-0.5,0.1c-0.4,0-0.8-0.1-1.1-0.4c-0.3-0.2-0.4-0.6-0.4-0.9c0-0.2,0.1-0.4,0.2-0.6c0.1-0.2,0.2-0.3,0.4-0.4
			c0.1-0.1,0.3-0.2,0.5-0.3c0.2-0.1,0.4-0.2,0.6-0.2c0.2-0.1,0.4-0.1,0.6-0.2c0.3-0.1,0.4-0.1,0.5-0.2c0.1,0,0.1-0.1,0.1-0.2v-0.4
			c0-0.7-0.2-1-0.6-1c-0.5,0-0.7,0.3-0.7,0.8c0,0.2-0.1,0.3-0.2,0.4c-0.1,0.1-0.3,0.1-0.5,0.1c-0.4,0-0.6-0.1-0.8-0.4
			c0-0.4,0.3-0.8,0.8-1.1C63.2,192.7,63.8,192.5,64.4,192.5z M63.9,197.2c0.2,0,0.4-0.1,0.5-0.2c0.1-0.1,0.2-0.2,0.2-0.4v-1.2
			c0,0-0.1,0-0.2,0.1c-0.1,0-0.2,0.1-0.3,0.1c0,0-0.1,0-0.2,0.1c-0.1,0-0.2,0.1-0.2,0.1c0,0-0.1,0.1-0.2,0.1
			c-0.1,0.1-0.1,0.1-0.1,0.2c0,0.1,0,0.1,0,0.2c0,0.3,0.1,0.5,0.2,0.6C63.6,197.1,63.8,197.2,63.9,197.2z"/>
		<path class="st0" d="M70.3,191.5c0-0.4,0-0.7-0.1-0.9c0-0.1-0.3-0.2-0.6-0.2h-0.1c0,0-0.1-0.1-0.1-0.2c0-0.1,0-0.2,0.1-0.2
			c0.3,0,0.5-0.1,0.8-0.1c0.3,0,0.5-0.1,0.6-0.1c0.2,0,0.3-0.1,0.5-0.1c0.1,0,0.3-0.1,0.3-0.1l0.1,0h0c0,0,0.1,0,0.1,0.1
			c0,0,0.1,0.1,0.1,0.1c-0.1,0.4-0.1,0.8-0.1,1.2l0,5.2c0,0.5,0,0.9,0.1,1.1c0,0.1,0.1,0.1,0.3,0.2c0.2,0.1,0.4,0.1,0.4,0.1
			c0,0,0,0.1,0,0.2c0,0.1,0,0.2,0,0.2c-0.1,0-0.3,0-0.8-0.1c-0.4,0-0.7,0-0.9,0c-0.2,0-0.5,0-0.9,0c-0.4,0-0.7,0-0.7,0.1
			c0,0,0-0.1,0-0.2c0-0.1,0-0.2,0-0.2c0.1,0,0.2,0,0.4-0.1c0.2-0.1,0.3-0.1,0.3-0.2c0.1-0.2,0.1-0.5,0.1-0.9V191.5z"/>
		<path class="st0" d="M75.8,193.5H75c-0.1,0-0.1-0.1-0.1-0.4c0-0.1,0-0.1,0-0.1c0.5-0.2,0.8-0.4,1.1-0.7c0.1-0.1,0.3-0.2,0.4-0.3
			c0.2-0.1,0.3-0.3,0.4-0.4c0.1-0.1,0.2-0.2,0.2-0.2c0.1,0,0.1,0,0.2,0c0.1,0,0.1,0.1,0.1,0.1v1.2h1.3c0.1,0,0.1,0,0.1,0.1
			c0,0.2,0,0.4-0.1,0.6h-1.3v2.9c0,0.6,0.2,0.9,0.7,0.9c0.1,0,0.2,0,0.3,0c0.1,0,0.2-0.1,0.2-0.1c0.1,0,0.1,0,0.1,0
			c0,0,0.1,0,0.1,0.1c0,0.1,0.1,0.1,0.1,0.2c0,0.1-0.2,0.2-0.5,0.4c-0.3,0.2-0.6,0.3-0.9,0.3c-0.4,0-0.8-0.1-1.1-0.4
			c-0.3-0.3-0.5-0.7-0.5-1.3V193.5z"/>
		<path class="st0" d="M85.6,192.6c0.5,0,0.8,0.2,1.1,0.6c0.3,0.4,0.4,1,0.4,1.8v1.2c0,0.5,0,0.9,0.1,1.1c0,0.1,0.1,0.1,0.3,0.2
			c0.2,0.1,0.4,0.1,0.4,0.1c0,0,0,0.1,0,0.2c0,0.1,0,0.2,0,0.2c-0.1,0-0.3,0-0.8-0.1c-0.4,0-0.7,0-0.9,0c-0.2,0-0.5,0-0.9,0
			c-0.4,0-0.6,0-0.7,0.1c0,0,0-0.1,0-0.2c0-0.1,0-0.2,0-0.2c0.1,0,0.2,0,0.4-0.1c0.2-0.1,0.3-0.1,0.3-0.2c0.1-0.2,0.1-0.5,0.1-0.9
			v-1.1c0-0.6-0.1-1-0.2-1.3c-0.2-0.3-0.4-0.4-0.8-0.4c-0.6,0-0.8,0.2-0.8,0.5v2c0,0.5,0,0.9,0.1,1.1c0,0.1,0.1,0.1,0.3,0.2
			c0.2,0.1,0.3,0.1,0.4,0.1c0,0,0,0.1,0,0.2c0,0.1,0,0.2,0,0.2c-0.1,0-0.3,0-0.7-0.1c-0.4,0-0.7,0-0.9,0c-0.2,0-0.5,0-0.9,0
			c-0.4,0-0.7,0-0.7,0.1c0,0,0-0.1,0-0.2c0-0.1,0-0.2,0-0.2c0.1,0,0.2,0,0.4-0.1c0.2-0.1,0.3-0.1,0.3-0.2c0.1-0.2,0.1-0.5,0.1-0.9
			v-4.8c0-0.4,0-0.7-0.1-0.9c0-0.1-0.3-0.2-0.6-0.2h-0.1c0,0-0.1-0.1-0.1-0.2c0-0.1,0-0.2,0.1-0.2c0.2,0,0.5-0.1,0.8-0.1
			c0.3,0,0.5-0.1,0.6-0.1c0.2,0,0.3-0.1,0.5-0.1c0.1,0,0.3-0.1,0.3-0.1l0.1,0h0c0,0,0.1,0,0.1,0.1c0,0,0.1,0.1,0.1,0.1
			c-0.1,0.4-0.1,0.8-0.1,1.2v2.2c0,0.1,0,0.1,0,0.1c0,0,0,0,0.1,0c0.2-0.2,0.4-0.4,0.7-0.5C84.9,192.6,85.3,192.6,85.6,192.6z"/>
		<path class="st0" d="M103,193.6c0-0.2-0.1-0.3-0.3-0.4c-0.2-0.1-0.4-0.1-0.6-0.1h0c0,0-0.1-0.1-0.1-0.2c0-0.1,0-0.2,0-0.3
			c0.1,0,0.4,0,0.7,0.1c0.4,0,0.7,0,0.9,0c0.2,0,0.4,0,0.7,0c0.3,0,0.5-0.1,0.7-0.1c0,0.1,0,0.2,0,0.2c0,0.1,0,0.2,0,0.2
			c-0.1,0-0.3,0.1-0.5,0.2c-0.3,0.1-0.4,0.3-0.5,0.4l-2,4.2c0,0.1-0.1,0.1-0.2,0.2c-0.1,0.1-0.2,0.1-0.3,0.1c-0.1,0-0.1,0-0.2-0.1
			l-1.4-3.1l-1.4,3c0,0.1-0.1,0.1-0.2,0.2c-0.1,0.1-0.2,0.1-0.3,0.1c-0.1,0-0.1,0-0.2-0.1l-2-4.5c-0.1-0.1-0.2-0.2-0.4-0.3
			c-0.2-0.1-0.3-0.1-0.4-0.1c0,0,0-0.1,0-0.2c0-0.1,0-0.2,0-0.2c0.1,0,0.3,0,0.7,0.1c0.4,0,0.7,0,0.9,0c0.2,0,0.5,0,0.9,0
			c0.4,0,0.7,0,0.8,0c0,0,0,0.1,0,0.2c0,0.1,0,0.2,0,0.2c-0.1,0-0.2,0-0.4,0.1c-0.2,0.1-0.3,0.2-0.3,0.3c0,0.1,0.3,0.9,1,2.4
			c0.1-0.2,0.2-0.4,0.3-0.7c0.1-0.3,0.2-0.5,0.3-0.6c0.1-0.1,0.1-0.2,0.2-0.4c0.1-0.1,0.1-0.2,0.1-0.3c0-0.1,0-0.1,0-0.1
			c0-0.2,0-0.3-0.1-0.4c-0.1-0.1-0.2-0.2-0.3-0.2c-0.1,0-0.3-0.1-0.5-0.1c0,0-0.1-0.1-0.1-0.2c0-0.1,0-0.2,0-0.2
			c0.1,0,0.3,0,0.7,0.1c0.4,0,0.6,0,0.8,0c0.2,0,0.5,0,0.9,0c0.4,0,0.7,0,0.7,0c0,0,0,0.1,0,0.3c0,0.1,0,0.2-0.1,0.2
			c-0.1,0-0.3,0-0.4,0.1c-0.1,0.1-0.2,0.1-0.2,0.3c0,0.1,0.3,0.9,0.9,2.4c0.1-0.3,0.3-0.7,0.5-1.1c0.2-0.4,0.3-0.7,0.4-0.9
			C103,193.7,103,193.6,103,193.6z"/>
		<path class="st0" d="M110,196.2c0,0.5,0,0.9,0.1,1.1c0,0.1,0.1,0.1,0.3,0.2c0.2,0.1,0.4,0.1,0.4,0.1c0,0,0,0.1,0,0.2
			c0,0.1,0,0.2,0,0.2c-0.1,0-0.3,0-0.8-0.1c-0.4,0-0.7,0-0.9,0c-0.2,0-0.5,0-0.9,0c-0.4,0-0.7,0-0.8,0.1c0,0,0-0.1,0-0.2
			c0-0.1,0-0.2,0-0.2c0.1,0,0.2,0,0.5-0.1c0.2-0.1,0.3-0.1,0.3-0.2c0.1-0.2,0.1-0.5,0.1-0.9v-1.7c0-0.5-0.1-0.8-0.2-0.9
			c-0.1-0.1-0.1-0.1-0.2-0.2c-0.1,0-0.2-0.1-0.3-0.1c-0.1,0-0.1,0-0.1,0c0-0.3,0-0.4,0.1-0.4c0.2,0,0.5-0.1,1.1-0.2
			c0.5-0.1,0.9-0.2,1.2-0.3c0,0,0.1,0,0.1,0c0,0,0.1,0,0.1,0.1c0,0.1,0.1,0.1,0.1,0.1c0,0.1,0,0.2,0,0.4c0,0.2,0,0.3-0.1,0.5
			c0,0.1,0,0.3,0,0.4V196.2z M108.5,191.2c-0.2-0.2-0.3-0.4-0.3-0.6c0-0.2,0.1-0.5,0.3-0.6c0.2-0.2,0.4-0.3,0.6-0.3
			c0.2,0,0.5,0.1,0.6,0.3c0.2,0.2,0.3,0.4,0.3,0.6c0,0.2-0.1,0.5-0.3,0.6c-0.2,0.2-0.4,0.3-0.6,0.3
			C108.9,191.4,108.6,191.3,108.5,191.2z"/>
		<path class="st0" d="M113.8,193.5H113c-0.1,0-0.1-0.1-0.1-0.4c0-0.1,0-0.1,0-0.1c0.4-0.2,0.8-0.4,1.1-0.7c0.1-0.1,0.3-0.2,0.4-0.3
			c0.2-0.1,0.3-0.3,0.4-0.4c0.1-0.1,0.2-0.2,0.2-0.2c0.1,0,0.1,0,0.2,0c0.1,0,0.1,0.1,0.1,0.1v1.2h1.3c0.1,0,0.1,0,0.1,0.1
			c0,0.2,0,0.4-0.1,0.6h-1.3v2.9c0,0.6,0.2,0.9,0.7,0.9c0.1,0,0.2,0,0.3,0c0.1,0,0.2-0.1,0.2-0.1c0.1,0,0.1,0,0.1,0
			c0,0,0.1,0,0.1,0.1c0,0.1,0.1,0.1,0.1,0.2c0,0.1-0.2,0.2-0.5,0.4c-0.3,0.2-0.6,0.3-0.9,0.3c-0.4,0-0.8-0.1-1.1-0.4
			c-0.3-0.3-0.5-0.7-0.5-1.3V193.5z"/>
		<path class="st0" d="M123.7,192.6c0.5,0,0.8,0.2,1.1,0.6c0.3,0.4,0.4,1,0.4,1.8v1.2c0,0.5,0,0.9,0.1,1.1c0,0.1,0.1,0.1,0.3,0.2
			c0.2,0.1,0.4,0.1,0.4,0.1c0,0,0,0.1,0,0.2c0,0.1,0,0.2,0,0.2c-0.1,0-0.3,0-0.8-0.1c-0.4,0-0.7,0-0.9,0c-0.2,0-0.5,0-0.9,0
			c-0.4,0-0.6,0-0.7,0.1c0,0,0-0.1,0-0.2c0-0.1,0-0.2,0-0.2c0.1,0,0.2,0,0.4-0.1c0.2-0.1,0.3-0.1,0.3-0.2c0.1-0.2,0.1-0.5,0.1-0.9
			v-1.1c0-0.6-0.1-1-0.2-1.3c-0.2-0.3-0.4-0.4-0.8-0.4c-0.6,0-0.8,0.2-0.8,0.5v2c0,0.5,0,0.9,0.1,1.1c0,0.1,0.1,0.1,0.3,0.2
			c0.2,0.1,0.3,0.1,0.4,0.1c0,0,0,0.1,0,0.2c0,0.1,0,0.2,0,0.2c-0.1,0-0.3,0-0.7-0.1c-0.4,0-0.7,0-0.9,0c-0.2,0-0.5,0-0.9,0
			c-0.4,0-0.7,0-0.8,0.1c0,0,0-0.1,0-0.2c0-0.1,0-0.2,0-0.2c0.1,0,0.2,0,0.4-0.1c0.2-0.1,0.3-0.1,0.3-0.2c0.1-0.2,0.1-0.5,0.1-0.9
			v-4.8c0-0.4,0-0.7-0.1-0.9c0-0.1-0.2-0.2-0.6-0.2h-0.1c0,0-0.1-0.1-0.1-0.2c0-0.1,0-0.2,0.1-0.2c0.3,0,0.5-0.1,0.8-0.1
			c0.3,0,0.5-0.1,0.6-0.1c0.2,0,0.3-0.1,0.5-0.1c0.1,0,0.3-0.1,0.3-0.1l0.1,0h0c0,0,0.1,0,0.1,0.1c0,0,0.1,0.1,0.1,0.1
			c-0.1,0.4-0.1,0.8-0.1,1.2v2.2c0,0.1,0,0.1,0,0.1c0,0,0,0,0.1,0c0.2-0.2,0.4-0.4,0.8-0.5C123,192.6,123.4,192.6,123.7,192.6z"/>
		<path class="st0" d="M135.2,192.5c0.7,0,1.2,0.1,1.6,0.2c0.1,0.4,0.1,0.9,0.1,1.5c0,0.1-0.1,0.1-0.2,0.1c-0.3,0-0.4,0-0.4-0.1
			c-0.1-0.3-0.2-0.6-0.4-0.8c-0.2-0.2-0.4-0.3-0.8-0.3c-0.2,0-0.3,0-0.4,0.1c-0.1,0.1-0.2,0.2-0.2,0.4c0,0.2,0.1,0.3,0.2,0.5
			c0.2,0.1,0.4,0.3,0.7,0.4c0.2,0.1,0.4,0.2,0.5,0.3c0.1,0.1,0.3,0.2,0.5,0.3c0.2,0.2,0.4,0.3,0.5,0.5c0.1,0.2,0.2,0.4,0.2,0.7
			c0,0.5-0.2,0.9-0.6,1.2c-0.4,0.3-0.9,0.4-1.6,0.4c-0.3,0-0.6,0-0.9-0.1c-0.3-0.1-0.6-0.2-0.7-0.3c-0.1-0.6-0.1-1-0.1-1.5
			c0,0,0.1,0,0.2,0c0.3,0,0.4,0,0.4,0.1c0.1,0.8,0.6,1.2,1.3,1.2c0.2,0,0.4,0,0.5-0.1c0.1-0.1,0.2-0.2,0.2-0.4
			c0-0.2-0.1-0.4-0.3-0.5c-0.2-0.1-0.5-0.3-0.9-0.5c-0.5-0.2-0.8-0.5-1-0.7c-0.2-0.3-0.3-0.6-0.3-1c0-0.5,0.2-0.9,0.6-1.2
			C134.1,192.7,134.6,192.5,135.2,192.5z"/>
		<path class="st0" d="M145.4,194v2.4c0,0.4,0,0.7,0.1,0.8c0,0,0.1,0.1,0.2,0.1c0.1,0,0.2,0,0.3,0h0.1c0,0,0,0,0,0.1
			c0,0.2,0,0.4-0.1,0.4c-0.1,0-0.3,0-0.5,0c-0.2,0-0.4,0.1-0.6,0.1c-0.2,0-0.4,0.1-0.5,0.1c-0.2,0-0.3,0.1-0.4,0.1l-0.2,0
			c0,0-0.1-0.1-0.1-0.2v-0.4c0,0,0-0.1,0-0.1c0,0,0,0,0,0c-0.2,0.2-0.4,0.3-0.7,0.5c-0.3,0.1-0.7,0.2-1.1,0.2
			c-0.5,0-0.9-0.2-1.1-0.6c-0.3-0.4-0.4-0.9-0.4-1.5v-1.2c0-0.5-0.1-0.8-0.2-0.9c-0.1-0.1-0.1-0.1-0.3-0.2c-0.1,0-0.2-0.1-0.3-0.1
			c-0.1,0-0.1,0-0.1,0c0-0.3,0-0.4,0.1-0.4c0.2,0,0.5-0.1,1.1-0.2c0.5-0.1,0.9-0.2,1.2-0.3l0.1,0c0,0,0.1,0,0.1,0c0,0,0.1,0,0.1,0.1
			c0,0.1,0.1,0.1,0.1,0.1c-0.1,0.7-0.1,1.1-0.1,1.2v1.3c0,0.6,0.1,1.1,0.2,1.3c0.2,0.3,0.4,0.4,0.8,0.4c0.3,0,0.5-0.1,0.6-0.2
			c0.1-0.1,0.2-0.3,0.2-0.4v-1.7c0-0.5-0.1-0.8-0.2-0.9c-0.1-0.1-0.1-0.1-0.3-0.2c-0.1,0-0.2-0.1-0.3-0.1c-0.1,0-0.1,0-0.1,0
			c0-0.3,0-0.4,0.1-0.4c0.2,0,0.5-0.1,1.1-0.2c0.5-0.1,0.9-0.2,1.2-0.3c0,0,0,0,0.1,0l0.1,0c0,0,0.1,0,0.1,0.1
			c0,0.1,0.1,0.1,0.1,0.1C145.4,193.5,145.4,193.9,145.4,194z"/>
		<path class="st0" d="M151.9,192.6c0.8,0,1.4,0.3,1.9,0.8c0.5,0.5,0.8,1.1,0.8,1.8c0,0.9-0.3,1.6-0.9,2.1c-0.6,0.5-1.3,0.7-2.2,0.7
			c-0.1,0-0.2,0-0.3,0c-0.1,0-0.2,0-0.3-0.1c-0.1,0-0.1,0-0.1,0c0,0,0,0.1,0,0.2v0.6c0,0.5,0,0.9,0.1,1.1c0,0.1,0.1,0.1,0.3,0.2
			c0.2,0.1,0.3,0.1,0.4,0.1c0,0,0,0.1,0,0.2c0,0.1,0,0.2,0,0.2c-0.1,0-0.3,0-0.8-0.1c-0.4,0-0.7,0-0.9,0c-0.2,0-0.5,0-0.9,0
			c-0.4,0-0.7,0-0.7,0.1c0,0,0-0.1,0-0.2c0-0.1,0-0.2,0-0.2c0.1,0,0.2,0,0.4-0.1c0.2-0.1,0.3-0.1,0.3-0.2c0.1-0.2,0.1-0.5,0.1-0.9
			v-4.2c0-0.5-0.1-0.8-0.2-0.9c-0.1-0.1-0.1-0.1-0.3-0.2c-0.1,0-0.2-0.1-0.3-0.1c-0.1,0-0.1,0-0.1,0c0-0.3,0-0.4,0.1-0.4
			c0.5,0,1.1-0.1,1.9-0.4c0.2-0.1,0.4-0.1,0.4-0.1c0,0,0.1,0.1,0.1,0.2c0,0,0,0.1,0,0.2C151.1,192.7,151.5,192.6,151.9,192.6z
			 M151.7,193.3c-0.3,0-0.5,0.1-0.7,0.3c-0.2,0.2-0.3,0.4-0.3,0.6v2.3c0,0.3,0.1,0.5,0.3,0.7c0.2,0.2,0.4,0.2,0.6,0.2
			c0.7,0,1.1-0.6,1.1-1.8C152.8,194.1,152.5,193.3,151.7,193.3z"/>
		<path class="st0" d="M160.4,192.6c0.8,0,1.4,0.3,1.9,0.8c0.5,0.5,0.8,1.1,0.8,1.8c0,0.9-0.3,1.6-0.9,2.1c-0.6,0.5-1.3,0.7-2.2,0.7
			c-0.1,0-0.2,0-0.3,0c-0.1,0-0.2,0-0.3-0.1c-0.1,0-0.1,0-0.1,0c0,0,0,0.1,0,0.2v0.6c0,0.5,0,0.9,0.1,1.1c0,0.1,0.1,0.1,0.3,0.2
			c0.2,0.1,0.4,0.1,0.4,0.1c0,0,0,0.1,0,0.2c0,0.1,0,0.2,0,0.2c-0.1,0-0.3,0-0.8-0.1c-0.4,0-0.7,0-0.9,0c-0.2,0-0.5,0-0.9,0
			c-0.4,0-0.7,0-0.7,0.1c0,0,0-0.1,0-0.2c0-0.1,0-0.2,0-0.2c0.1,0,0.2,0,0.4-0.1c0.2-0.1,0.3-0.1,0.3-0.2c0.1-0.2,0.1-0.5,0.1-0.9
			v-4.2c0-0.5-0.1-0.8-0.2-0.9c-0.1-0.1-0.1-0.1-0.3-0.2c-0.1,0-0.2-0.1-0.3-0.1c-0.1,0-0.1,0-0.1,0c0-0.3,0-0.4,0.1-0.4
			c0.5,0,1.1-0.1,1.9-0.4c0.3-0.1,0.4-0.1,0.4-0.1c0,0,0.1,0.1,0.1,0.2c0,0,0,0.1,0,0.2C159.7,192.7,160,192.6,160.4,192.6z
			 M160.2,193.3c-0.3,0-0.5,0.1-0.7,0.3c-0.2,0.2-0.3,0.4-0.3,0.6v2.3c0,0.3,0.1,0.5,0.3,0.7c0.2,0.2,0.4,0.2,0.6,0.2
			c0.7,0,1.1-0.6,1.1-1.8C161.3,194.1,161,193.3,160.2,193.3z"/>
		<path class="st0" d="M166.4,193.4c0.6-0.5,1.2-0.8,2-0.8c0.8,0,1.5,0.3,2,0.8c0.5,0.5,0.8,1.2,0.8,1.9c0,0.8-0.3,1.4-0.8,1.9
			c-0.5,0.5-1.2,0.8-2,0.8c-0.8,0-1.5-0.3-2-0.8c-0.6-0.5-0.8-1.2-0.8-1.9C165.6,194.5,165.8,193.9,166.4,193.4z M168.2,193.2
			c-0.2,0-0.4,0.1-0.6,0.3c-0.2,0.2-0.3,0.4-0.3,0.6c0,0.2-0.1,0.5-0.1,0.8c0,1.6,0.4,2.5,1.2,2.5c0.3,0,0.6-0.2,0.7-0.5
			c0.2-0.3,0.2-0.7,0.2-1.2C169.5,194.1,169.1,193.2,168.2,193.2z"/>
		<path class="st0" d="M177.5,192.6c0.4,0,0.7,0.2,1,0.4c0,0.4-0.1,0.7-0.2,0.9c-0.1,0.2-0.3,0.3-0.5,0.3c-0.2,0-0.3-0.1-0.6-0.3
			c-0.2-0.2-0.4-0.3-0.6-0.3c-0.2,0-0.4,0.1-0.5,0.4c-0.1,0.3-0.2,0.6-0.2,0.9v1.2c0,0.5,0,0.9,0.1,1.1c0,0.1,0.1,0.1,0.3,0.2
			c0.2,0.1,0.3,0.1,0.4,0.1c0,0,0,0.1,0,0.2c0,0.1,0,0.2,0,0.2c-0.1,0-0.3,0-0.7-0.1c-0.4,0-0.7,0-0.9,0c-0.2,0-0.5,0-0.9,0
			c-0.4,0-0.7,0-0.8,0.1c0,0,0-0.1,0-0.2c0-0.1,0-0.2,0-0.2c0.1,0,0.2,0,0.4-0.1c0.2-0.1,0.3-0.1,0.3-0.2c0.1-0.2,0.1-0.5,0.1-0.9
			v-1.7c0-0.5-0.1-0.8-0.2-0.9c-0.1-0.1-0.1-0.1-0.3-0.2c-0.1,0-0.2-0.1-0.3-0.1c-0.1,0-0.1,0-0.1,0c0-0.3,0-0.4,0.1-0.4
			c0.1,0,0.3,0,0.5-0.1c0.2,0,0.5-0.1,0.9-0.2c0.4-0.1,0.6-0.1,0.8-0.2c0.1,0,0.1,0,0.1,0c0,0,0.1,0,0.1,0.1c0,0.1,0.1,0.1,0.1,0.1
			c0,0.1,0,0.2,0,0.3c0,0.1,0,0.2,0,0.2C176.5,192.8,177,192.6,177.5,192.6z"/>
		<path class="st0" d="M181.9,193.5h-0.8c-0.1,0-0.1-0.1-0.1-0.4c0-0.1,0-0.1,0-0.1c0.5-0.2,0.8-0.4,1.1-0.7
			c0.1-0.1,0.3-0.2,0.4-0.3c0.2-0.1,0.3-0.3,0.4-0.4c0.1-0.1,0.2-0.2,0.2-0.2c0.1,0,0.1,0,0.2,0c0.1,0,0.1,0.1,0.1,0.1v1.2h1.3
			c0.1,0,0.1,0,0.1,0.1c0,0.2,0,0.4-0.1,0.6h-1.3v2.9c0,0.6,0.2,0.9,0.7,0.9c0.1,0,0.2,0,0.3,0c0.1,0,0.2-0.1,0.2-0.1
			c0.1,0,0.1,0,0.1,0c0,0,0.1,0,0.1,0.1c0,0.1,0.1,0.1,0.1,0.2c0,0.1-0.2,0.2-0.5,0.4c-0.3,0.2-0.6,0.3-0.9,0.3
			c-0.4,0-0.8-0.1-1.1-0.4c-0.3-0.3-0.5-0.7-0.5-1.3V193.5z"/>
	</g>
	<g>
		<rect x="0" y="175.6" class="st0" width="73" height="1"/>
	</g>
	<g>
		<rect x="113.8" y="175.6" class="st0" width="70.9" height="1"/>
	</g>
</g>
</svg>
