<?xml version="1.0" encoding="utf-8"?>
<!-- Generator: Adobe Illustrator 17.1.0, SVG Export Plug-In . SVG Version: 6.00 Build 0)  -->
<!DOCTYPE svg PUBLIC "-//W3C//DTD SVG 1.1//EN" "http://www.w3.org/Graphics/SVG/1.1/DTD/svg11.dtd">
<svg version="1.1" id="Layer_1" xmlns="http://www.w3.org/2000/svg" xmlns:xlink="http://www.w3.org/1999/xlink" x="0px" y="0px" viewBox="0 0 143.1 143.4" style="enable-background:new 0 0 143.1 143.4;" xml:space="preserve"
	>
<style type="text/css">
	.st0{fill:#231F20;}
</style>
<g>
	<g>
		<path class="st0" d="M71.6,143.4c-20,0-45.3-4-56.5-15.2c-20.1-20.1-20.1-93,0-113C26.2,4,51.6,0,71.6,0c20,0,45.3,4,56.5,15.2
			c20.1,20.1,20.1,93,0,113C116.9,139.4,91.6,143.4,71.6,143.4z M71.6,3.6c-24.2,0-45.4,5.5-54,14.1c-18.7,18.7-18.7,89.3,0,108
			c8.6,8.6,29.8,14.1,54,14.1s45.4-5.5,54-14.1c18.7-18.7,18.7-89.3,0-108C117,9.1,95.8,3.6,71.6,3.6z"/>
	</g>
	<g>
		<path class="st0" d="M77,40.4c0-0.1,0-2.6,1.3-5.2c1.7-3.6,4.9-5.6,9-5.6c4,0,7.2,1.8,8.9,5.2c1.3,2.5,1.3,5,1.3,5v4.5l-5.3,0
			v-4.4c0-0.2-0.1-1.5-0.7-2.6c-0.8-1.6-2.1-2.3-4.2-2.3c-2.1,0-3.4,0.8-4.2,2.6c-0.7,1.4-0.7,2.8-0.7,3v19.1l-5.3,0V40.4z"/>
		<rect x="69" y="61.5" class="st0" width="21" height="5.3"/>
		<polygon class="st0" points="82.3,89.7 77,89.7 77,68.9 82.3,68.9 		"/>
		<polygon class="st0" points="74.9,76.8 74.9,82.1 53.7,82.1 53.7,76.8 		"/>
		<polygon class="st0" points="61.7,74.8 61.7,53.7 67,53.7 67,74.8 		"/>
		<rect x="53.8" y="46.4" class="st0" width="21.3" height="5.3"/>
		<path class="st0" d="M46.5,40.3c0-0.4,0.1-2.8,1.2-5.2c1.7-3.6,4.9-5.6,9-5.6c4,0,7.2,1.8,8.9,5.2c1.3,2.5,1.3,5,1.3,5v4.4l-5.3,0
			v-4.4c0-0.2-0.1-1.4-0.7-2.6c-0.8-1.6-2.1-2.3-4.2-2.3c-2.1,0-3.4,0.8-4.2,2.6c-0.7,1.4-0.7,2.8-0.7,3l0,19.1l-5.3,0L46.5,40.3z"
			/>
		<polygon class="st0" points="33.6,45.2 38.9,45.2 38.9,46.4 44.5,46.4 44.5,51.7 38.9,51.7 38.9,52.9 33.6,52.9 		"/>
		<polygon class="st0" points="38.9,60.4 38.9,61.5 59.6,61.5 59.6,66.8 38.9,66.8 38.9,68.1 33.6,68.1 33.6,60.4 		"/>
		<polygon class="st0" points="51.8,68.9 51.8,89.7 46.5,89.7 46.5,68.9 		"/>
		<polygon class="st0" points="33.6,75.6 38.9,75.6 38.9,76.8 44.5,76.8 44.5,82.1 38.9,82.1 38.9,83.3 33.6,83.3 		"/>
		<polygon class="st0" points="38.9,98.3 33.6,98.3 33.6,90.7 38.9,90.7 38.9,91.9 59.7,91.9 59.7,97.2 38.9,97.2 		"/>
		<polygon class="st0" points="45.4,110.4 45.4,105.1 46.5,105.1 46.5,99.2 51.8,99.2 51.8,105.1 53,105.1 53,110.4 		"/>
		<polygon class="st0" points="68.2,110.4 60.5,110.4 60.5,105.1 61.7,105.1 61.7,84.1 67,84.1 67,105.1 68.2,105.1 		"/>
		<polygon class="st0" points="69,97.2 69,91.9 90,91.9 90,97.2 		"/>
		<polygon class="st0" points="83.5,110.4 75.8,110.4 75.8,105.1 77,105.1 77,99.2 82.3,99.2 82.3,105.1 83.5,105.1 		"/>
		<polygon class="st0" points="91,110.4 91,105.1 92.2,105.1 92.2,84.1 97.5,84.1 97.5,105.1 98.6,105.1 98.7,110.4 		"/>
		<path class="st0" d="M108.2,95.6c-2,1.3-4,1.5-4.4,1.6l-0.2,0h-4.2v-5.3l4.1,0c1-0.1,3.7-0.8,3.7-4.9c0-4.1-2.7-4.8-3.7-4.9
			l-19.2,0v-5.3h19.4l0.2,0c0.1,0,2.2,0.2,4.4,1.6c2,1.3,4.3,3.8,4.3,8.6C112.5,91.8,110.2,94.3,108.2,95.6z"/>
		<rect x="92.2" y="53.7" class="st0" width="5.3" height="21"/>
		<path class="st0" d="M108.2,65.2c-2.1,1.4-4.3,1.5-4.4,1.5l-0.1,0h-4.2v-5.3h4.1c1-0.1,3.7-0.8,3.7-4.9c0-4.1-2.7-4.8-3.7-4.9
			H84.3v-5.3h19.5l0.1,0c0.1,0,2.2,0.2,4.4,1.6c2,1.3,4.3,3.8,4.3,8.6C112.5,61.5,110.2,64,108.2,65.2z"/>
	</g>
</g>
</svg>
