<?xml version="1.0" encoding="utf-8"?>
<!-- Generator: Adobe Illustrator 17.1.0, SVG Export Plug-In . SVG Version: 6.00 Build 0)  -->
<!DOCTYPE svg PUBLIC "-//W3C//DTD SVG 1.1//EN" "http://www.w3.org/Graphics/SVG/1.1/DTD/svg11.dtd">
<svg version="1.1" id="Layer_1" xmlns="http://www.w3.org/2000/svg" xmlns:xlink="http://www.w3.org/1999/xlink" x="0px" y="0px" viewBox="0 0 234.5 75.1" style="enable-background:new 0 0 234.5 75.1;" xml:space="preserve">
<style type="text/css">
	.st0{fill:#ffffff;}
</style>
<g>
	<path class="st0" d="M67.2,7.9C56.7-2.6,18.4-2.6,7.9,7.9c-10.5,10.5-10.5,48.8,0,59.3c10.5,10.5,48.8,10.5,59.3,0
		C77.7,56.7,77.7,18.4,67.2,7.9z M40.3,21.3c0-0.1,0-1.4,0.7-2.7c0.9-1.9,2.6-2.9,4.7-2.9c2.1,0,3.8,1,4.7,2.7C51,19.7,51,21,51,21
		v2.3l-2.8,0v-2.3c0-0.1,0-0.8-0.4-1.4c-0.4-0.8-1.1-1.2-2.2-1.2c-1.1,0-1.8,0.4-2.2,1.3c-0.3,0.7-0.4,1.5-0.4,1.6v10l-2.8,0V21.3z
		 M36.1,35.2v-2.8h11v2.8H36.1z M43,47.2l-2.8,0V36.3l2.8,0L43,47.2z M39.2,40.4l0,2.8H28.1v-2.8H39.2z M32.3,39.3v-11l2.8,0v11
		L32.3,39.3z M39.2,24.5v2.8l-11.1,0v-2.8H39.2z M24.3,21.3c0-0.2,0.1-1.4,0.7-2.7c0.9-1.9,2.6-2.9,4.7-2.9c2.1,0,3.8,1,4.7,2.7
		C35,19.7,35,21,35,21v2.3l-2.8,0v-2.3c0-0.1,0-0.8-0.4-1.4c-0.4-0.8-1.1-1.2-2.2-1.2c-1.1,0-1.8,0.4-2.2,1.3
		c-0.3,0.7-0.4,1.5-0.4,1.6l0,10l-2.8,0L24.3,21.3z M17.6,23.9h2.8v0.6h2.9l0,2.8h-2.9v0.6l-2.8,0L17.6,23.9z M20.3,31.8v0.6h10.8
		l0,2.8H20.3v0.7h-2.8l0-4L20.3,31.8z M27.1,36.3v10.9l-2.8,0l0-10.9H27.1z M17.6,39.8h2.8v0.6h2.9v2.8h-2.9l0,0.6h-2.8L17.6,39.8z
		 M20.3,51.7h-2.8l0-4l2.8,0l0,0.6h10.9v2.8H20.3V51.7z M23.7,58v-2.8h0.6v-3.1l2.8,0v3.1h0.6l0,2.8L23.7,58z M35.7,58l-4,0v-2.8
		h0.6v-11l2.8,0v11h0.6V58z M36.1,51.1v-2.8l11,0v2.8L36.1,51.1z M43.7,58h-4l0-2.8h0.6v-3.1H43v3.1h0.6V58z M47.6,58v-2.8h0.6v-11
		l2.8,0v11h0.6l0,2.8H47.6z M56.6,50.3c-1,0.7-2.1,0.8-2.3,0.8l-0.1,0H52v-2.8l2.1,0c0.5-0.1,1.9-0.4,1.9-2.5c0-2.2-1.4-2.5-1.9-2.6
		l-10.1,0v-2.8h10.2l0.1,0c0,0,1.2,0.1,2.3,0.8c1,0.7,2.2,2,2.2,4.5C58.9,48.3,57.6,49.6,56.6,50.3z M48.2,39.3v-11H51v11H48.2z
		 M56.6,34.4c-1.1,0.7-2.2,0.8-2.3,0.8l-0.1,0H52v-2.8h2.1c0.5-0.1,1.9-0.4,1.9-2.5c0-2.2-1.4-2.5-1.9-2.6H44.1v-2.8h10.2l0.1,0
		c0.1,0,1.2,0.1,2.3,0.8c1,0.7,2.2,2,2.2,4.5C58.9,32.4,57.6,33.7,56.6,34.4z"/>
	<g>
		<g>
			<path class="st0" d="M129.6,22.5h-3.3v19.7h-3V22.5h-3.3v-3h9.5V22.5z"/>
			<path class="st0" d="M144.4,19.7v22.6h-3v-9.8h-4.7v9.8h-3V19.7h3v9.8h4.7v-9.8H144.4z"/>
			<path class="st0" d="M152.5,22.5v7h4.6v3h-4.6v7h4.6v3h-7.7V19.5h7.7v3H152.5z"/>
		</g>
		<g>
			<path class="st0" d="M180.7,27.1c0,1.5-0.6,2.9-1.7,3.8c1.1,1,1.7,2.4,1.7,3.9V37c0,2.9-2.4,5.3-5.3,5.3h-5.1V19.5h5.1
				c2.9,0,5.3,2.4,5.3,5.3V27.1z M177.7,24.9c0-1.3-1.1-2.4-2.4-2.4H173v7h2.4c1.3,0,2.4-1.1,2.4-2.4V24.9z M175.4,32.4H173v7h2.4
				c1.3,0,2.4-1.1,2.4-2.4v-2.2C177.7,33.5,176.7,32.4,175.4,32.4z"/>
			<path class="st0" d="M189.3,22.5v7h4.6v3h-4.6v7h4.6v3h-7.7V19.5h7.7v3H189.3z"/>
			<path class="st0" d="M210.3,24.9v17.3h-3v-9.8h-4.8v9.8h-3V24.9c0-2.9,2.4-5.3,5.4-5.3C207.9,19.6,210.3,22,210.3,24.9z
				 M207.4,24.9c0-1.3-1.1-2.4-2.4-2.4c-1.3,0-2.4,1.1-2.4,2.4v4.6h4.8V24.9z"/>
			<path class="st0" d="M234.5,24.9v17.4h-3V24.9c0-1.3-1.1-2.4-2.4-2.4c-1.3,0-2.4,1.1-2.4,2.4v17.4h-3V24.9c0-1.3-1.1-2.4-2.4-2.4
				c-1.3,0-2.4,1.1-2.4,2.4v17.4h-3V24.9c0-2.9,2.4-5.3,5.3-5.3c1.5,0,2.9,0.6,3.8,1.7c1-1,2.4-1.7,3.8-1.7
				C232.1,19.5,234.5,21.9,234.5,24.9z"/>
		</g>
		<g>
			<path class="st0" d="M89.3,42.3c3.6,0,5.3-3,5.3-5.6V24.5c0-2.3-2.4-4.9-5.3-4.9c-2.9,0-5.3,2.7-5.3,4.9v12.1
				C84,40.5,86.7,42.3,89.3,42.3z M91.7,36.5c0,0,0.1,2.8-2.4,2.8c-2.5,0-2.4-2.8-2.4-2.8V25.3c0-1.2,0.3-2.8,2.4-2.8
				c2,0,2.4,1.7,2.4,2.8V36.5z"/>
			<path class="st0" d="M103,19.5c-3.4,0-5.3,2.9-5.3,5.2v17.5h0.8h1.1h1V24.6c0-0.8,0.9-2.1,2.4-2.1c1.4,0,2.4,1.3,2.4,2.1l0,17.6
				h0.8h1.1h1.1l0-17.5C108.3,22.4,106.2,19.5,103,19.5z"/>
		</g>
	</g>
	<g>
		<path class="st0" d="M86.9,52.9c0.6,0,1.1,0.2,1.5,0.6c0.4,0.4,0.6,0.9,0.6,1.5c0,0.7-0.2,1.2-0.7,1.6c-0.4,0.4-1,0.7-1.6,0.7
			c-0.3,0-0.6,0-0.7-0.1c-0.2-0.1-0.4-0.1-0.5-0.1c-0.1,0-0.2,0-0.3,0.1c-0.1,0.1-0.2,0.1-0.2,0.1c0,0-0.1,0-0.2-0.1
			c-0.1-0.1-0.1-0.1-0.1-0.1c0,0,0-0.1,0-0.2c0-0.1,0-0.2,0-0.4c0-0.2,0-0.3,0-0.5v-4c0-0.3,0-0.5-0.1-0.7c0-0.1-0.2-0.2-0.5-0.2H84
			c0,0-0.1-0.1-0.1-0.2c0-0.1,0-0.2,0.1-0.2c0.2,0,0.4,0,0.6-0.1c0.2,0,0.4-0.1,0.5-0.1c0.1,0,0.3-0.1,0.4-0.1
			c0.1,0,0.2-0.1,0.3-0.1l0.1,0h0c0,0,0.1,0,0.1,0.1c0,0,0,0.1,0,0.1c-0.1,0.3-0.1,0.6-0.1,1V53c0,0,0,0,0,0c0,0,0,0,0,0.1
			c0,0,0,0,0,0c0,0,0,0,0,0C86.3,52.9,86.6,52.9,86.9,52.9z M86.8,53.5c-0.3,0-0.5,0.1-0.6,0.2C86.1,53.8,86,54,86,54.1V56
			c0,0.3,0.1,0.5,0.2,0.6c0.2,0.1,0.3,0.2,0.6,0.2c0.3,0,0.5-0.1,0.7-0.4c0.1-0.3,0.2-0.6,0.2-1C87.6,54.1,87.4,53.5,86.8,53.5z"/>
		<path class="st0" d="M95.7,54V56c0,0.3,0,0.5,0.1,0.6c0,0,0.1,0.1,0.2,0.1c0.1,0,0.1,0,0.2,0h0.1c0,0,0,0,0,0.1
			c0,0.2,0,0.3-0.1,0.3c-0.1,0-0.2,0-0.4,0c-0.2,0-0.3,0-0.5,0.1c-0.2,0-0.3,0-0.4,0.1c-0.1,0-0.3,0-0.3,0.1l-0.1,0
			c0,0-0.1-0.1-0.1-0.2v-0.4c0,0,0,0,0,0c0,0,0,0,0,0c-0.1,0.1-0.3,0.3-0.6,0.4c-0.3,0.1-0.6,0.2-0.9,0.2c-0.4,0-0.7-0.2-0.9-0.5
			c-0.2-0.3-0.3-0.8-0.3-1.2v-1c0-0.4-0.1-0.6-0.2-0.7c0-0.1-0.1-0.1-0.2-0.1c-0.1,0-0.2-0.1-0.2-0.1c-0.1,0-0.1,0-0.1,0
			c0-0.2,0-0.3,0-0.3c0.1,0,0.4,0,0.9-0.1c0.4-0.1,0.8-0.2,0.9-0.2l0,0c0,0,0.1,0,0.1,0c0,0,0.1,0,0.1,0.1c0,0,0.1,0.1,0.1,0.1
			c-0.1,0.6-0.1,0.9-0.1,1v1.1c0,0.5,0.1,0.9,0.2,1.1c0.1,0.2,0.4,0.3,0.7,0.3c0.2,0,0.4-0.1,0.5-0.2c0.1-0.1,0.2-0.2,0.2-0.3v-1.4
			c0-0.4-0.1-0.6-0.2-0.7c0-0.1-0.1-0.1-0.2-0.1c-0.1,0-0.2-0.1-0.2-0.1c-0.1,0-0.1,0-0.1,0c0-0.2,0-0.3,0-0.3c0.1,0,0.4,0,0.9-0.1
			c0.4-0.1,0.8-0.2,0.9-0.2c0,0,0,0,0.1,0l0,0c0,0,0.1,0,0.1,0.1c0,0,0,0.1,0,0.1C95.7,53.6,95.7,54,95.7,54z"/>
		<path class="st0" d="M100.3,55.8c0,0.4,0,0.7,0.1,0.9c0,0,0.1,0.1,0.3,0.2c0.2,0.1,0.3,0.1,0.3,0.1c0,0,0,0.1,0,0.2
			c0,0.1,0,0.2,0,0.2c-0.1,0-0.3,0-0.6,0c-0.3,0-0.6,0-0.7,0c-0.2,0-0.4,0-0.7,0c-0.3,0-0.5,0-0.6,0c0,0,0-0.1,0-0.2
			c0-0.1,0-0.2,0-0.2c0.1,0,0.2,0,0.4-0.1c0.2-0.1,0.3-0.1,0.3-0.2c0-0.2,0.1-0.4,0.1-0.7v-1.3c0-0.4-0.1-0.6-0.2-0.7
			c0-0.1-0.1-0.1-0.2-0.1c-0.1,0-0.2-0.1-0.2-0.1c-0.1,0-0.1,0-0.1,0c0-0.2,0-0.3,0-0.3c0.1,0,0.4,0,0.9-0.1
			c0.4-0.1,0.8-0.2,0.9-0.2c0,0,0,0,0.1,0c0,0,0.1,0,0.1,0.1c0,0,0,0.1,0,0.1c0,0.1,0,0.1,0,0.3c0,0.1,0,0.3,0,0.4
			c0,0.1,0,0.2,0,0.3V55.8z M99.1,51.7c-0.1-0.1-0.2-0.3-0.2-0.5c0-0.2,0.1-0.4,0.2-0.5c0.1-0.1,0.3-0.2,0.5-0.2
			c0.2,0,0.4,0.1,0.5,0.2c0.1,0.1,0.2,0.3,0.2,0.5c0,0.2-0.1,0.4-0.2,0.5c-0.1,0.1-0.3,0.2-0.5,0.2C99.4,51.9,99.3,51.9,99.1,51.7z"
			/>
		<path class="st0" d="M103.8,52c0-0.3,0-0.5,0-0.7c0-0.1-0.2-0.2-0.5-0.2h-0.1c0,0-0.1-0.1-0.1-0.2c0-0.1,0-0.2,0.1-0.2
			c0.2,0,0.4,0,0.6-0.1c0.2,0,0.4-0.1,0.5-0.1c0.1,0,0.3-0.1,0.4-0.1c0.1,0,0.2-0.1,0.3-0.1l0.1,0h0c0,0,0.1,0,0.1,0.1
			c0,0,0,0.1,0,0.1c-0.1,0.3-0.1,0.6-0.1,1l0,4.2c0,0.4,0,0.7,0.1,0.9c0,0,0.1,0.1,0.3,0.2c0.2,0.1,0.3,0.1,0.3,0.1c0,0,0,0.1,0,0.2
			c0,0.1,0,0.2,0,0.2c-0.1,0-0.3,0-0.6,0c-0.3,0-0.6,0-0.7,0c-0.2,0-0.4,0-0.7,0c-0.3,0-0.5,0-0.6,0c0,0,0-0.1,0-0.2
			c0-0.1,0-0.2,0-0.2c0.1,0,0.2,0,0.4-0.1c0.2-0.1,0.3-0.1,0.3-0.2c0-0.2,0.1-0.4,0.1-0.7V52z"/>
		<path class="st0" d="M110,52.9c0.3,0,0.5,0,0.7,0.1c0,0,0,0,0-0.1V52c0-0.3,0-0.5-0.1-0.7c0-0.1-0.2-0.2-0.5-0.2H110
			c0,0-0.1-0.1-0.1-0.2c0-0.1,0-0.2,0.1-0.2c0.2,0,0.4,0,0.6-0.1c0.2,0,0.4-0.1,0.5-0.1c0.1,0,0.3-0.1,0.4-0.1
			c0.1,0,0.2-0.1,0.3-0.1l0.1,0h0c0,0,0.1,0,0.1,0.1c0,0,0,0.1,0.1,0.1c-0.1,0.3-0.1,0.6-0.1,1v4.2c0,0.3,0,0.5,0.1,0.7
			c0,0,0.1,0.1,0.1,0.1c0.1,0,0.1,0,0.2,0c0.1,0,0.1,0,0.2,0l0.1,0c0,0,0,0,0,0.1c0,0.2,0,0.2-0.1,0.2c-0.1,0-0.2,0-0.4,0
			c-0.2,0-0.3,0-0.5,0.1c-0.2,0-0.3,0-0.5,0.1c-0.1,0-0.3,0-0.4,0.1l-0.1,0c0,0-0.1-0.1-0.1-0.2v-0.2c0,0,0,0,0,0c0,0,0,0,0,0
			c-0.3,0.3-0.6,0.4-1,0.4c-0.5,0-1-0.2-1.4-0.6c-0.4-0.4-0.6-0.9-0.6-1.5c0-0.7,0.2-1.2,0.7-1.6C108.7,53.1,109.3,52.9,110,52.9z
			 M109.9,53.4c-0.3,0-0.5,0.1-0.7,0.4c-0.1,0.2-0.2,0.6-0.2,1.2c0,1.2,0.3,1.8,0.9,1.8c0.2,0,0.4-0.1,0.6-0.2
			c0.1-0.1,0.2-0.3,0.2-0.5v-1.8c0-0.1,0-0.2,0-0.2c0-0.1,0-0.2-0.1-0.3c0-0.1-0.1-0.2-0.2-0.3C110.2,53.4,110.1,53.4,109.9,53.4z"
			/>
		<path class="st0" d="M124.7,53.7c0-0.1-0.1-0.2-0.3-0.3c-0.2-0.1-0.3-0.1-0.5-0.1h0c0,0,0-0.1,0-0.2c0-0.1,0-0.2,0-0.2
			c0.1,0,0.3,0,0.6,0c0.3,0,0.5,0,0.7,0c0.1,0,0.3,0,0.6,0c0.2,0,0.4,0,0.5,0c0,0.1,0,0.1,0,0.2c0,0.1,0,0.2,0,0.2
			c-0.1,0-0.2,0.1-0.4,0.2c-0.2,0.1-0.4,0.2-0.4,0.3l-1.6,3.4c0,0-0.1,0.1-0.1,0.1c-0.1,0-0.1,0.1-0.2,0.1c-0.1,0-0.1,0-0.1-0.1
			l-1.2-2.5l-1.1,2.4c0,0-0.1,0.1-0.1,0.1c-0.1,0-0.1,0.1-0.2,0.1c-0.1,0-0.1,0-0.2-0.1l-1.7-3.7c0-0.1-0.1-0.2-0.3-0.2
			c-0.1-0.1-0.3-0.1-0.3-0.1c0,0,0-0.1,0-0.2c0-0.1,0-0.2,0-0.2c0.1,0,0.3,0,0.6,0c0.3,0,0.5,0,0.7,0c0.1,0,0.4,0,0.8,0
			c0.4,0,0.6,0,0.6,0c0,0,0,0.1,0,0.2c0,0.1,0,0.1,0,0.2c-0.1,0-0.2,0-0.4,0.1c-0.2,0.1-0.2,0.1-0.2,0.2c0,0.1,0.3,0.7,0.8,1.9
			c0.1-0.2,0.2-0.3,0.3-0.6c0.1-0.2,0.2-0.4,0.2-0.5c0-0.1,0.1-0.2,0.1-0.3c0-0.1,0.1-0.2,0.1-0.2c0-0.1,0-0.1,0-0.1
			c0-0.2,0-0.3-0.1-0.3c0-0.1-0.1-0.1-0.2-0.2c-0.1,0-0.2,0-0.4,0c0,0,0-0.1,0-0.2c0-0.1,0-0.2,0-0.2c0.1,0,0.3,0,0.6,0
			c0.3,0,0.5,0,0.7,0c0.1,0,0.4,0,0.7,0c0.3,0,0.5,0,0.6,0c0,0,0,0.1,0,0.2c0,0.1,0,0.2,0,0.2c-0.1,0-0.2,0-0.3,0.1
			c-0.1,0-0.2,0.1-0.2,0.2c0,0.1,0.3,0.8,0.8,2c0.1-0.3,0.3-0.5,0.4-0.9c0.2-0.3,0.3-0.5,0.3-0.7C124.7,53.8,124.7,53.7,124.7,53.7z
			"/>
		<path class="st0" d="M130.2,52.9c0.6,0,1.1,0.2,1.4,0.6c0.4,0.4,0.5,0.8,0.5,1.3c0,0.2,0,0.2-0.1,0.3c-0.1,0-0.2,0.1-0.4,0.1h-2.2
			c0,0-0.1,0-0.1,0.1c0,0.4,0.1,0.7,0.3,1c0.2,0.3,0.5,0.4,0.9,0.4c0.2,0,0.4,0,0.6-0.1c0.2-0.1,0.3-0.1,0.4-0.2
			c0.1,0,0.2-0.1,0.3-0.2c0.1,0,0.1,0.1,0.1,0.2c0,0.1,0,0.1,0,0.2c-0.1,0.2-0.3,0.3-0.6,0.6c-0.3,0.2-0.7,0.3-1.1,0.3
			c-0.6,0-1.1-0.2-1.6-0.7c-0.4-0.4-0.7-1-0.7-1.6c0-0.6,0.2-1.2,0.6-1.6C129,53.1,129.5,52.9,130.2,52.9z M130.1,53.4
			c-0.3,0-0.4,0.1-0.6,0.4c-0.1,0.2-0.2,0.5-0.2,0.7c0,0,0,0.1,0.1,0.1h1.2c0.1,0,0.1-0.1,0.1-0.2c0-0.2-0.1-0.5-0.2-0.7
			C130.5,53.5,130.3,53.4,130.1,53.4z"/>
		<path class="st0" d="M136.3,52.8c0.5,0,0.8,0.1,1.1,0.4c0.2,0.3,0.4,0.7,0.4,1.4v1.6c0,0.2,0.1,0.3,0.2,0.3c0.1,0,0.2,0,0.3-0.1
			c0,0,0.1,0.1,0.1,0.1c0,0.2,0,0.3-0.1,0.4c-0.1,0.1-0.2,0.2-0.4,0.3c-0.2,0.1-0.4,0.1-0.6,0.1c-0.2,0-0.3,0-0.5-0.1
			c-0.1-0.1-0.2-0.2-0.3-0.3c0,0,0,0-0.1,0.1c0,0-0.1,0.1-0.2,0.1c-0.1,0-0.2,0.1-0.3,0.1c-0.1,0-0.2,0.1-0.3,0.1
			c-0.1,0-0.3,0-0.4,0c-0.4,0-0.6-0.1-0.9-0.3c-0.2-0.2-0.3-0.5-0.3-0.8c0-0.2,0-0.3,0.1-0.5c0.1-0.1,0.2-0.3,0.3-0.4
			c0.1-0.1,0.3-0.2,0.4-0.3c0.2-0.1,0.3-0.1,0.5-0.2c0.1,0,0.3-0.1,0.5-0.1c0.2-0.1,0.3-0.1,0.4-0.1c0.1,0,0.1-0.1,0.1-0.1v-0.4
			c0-0.5-0.2-0.8-0.5-0.8c-0.4,0-0.6,0.2-0.6,0.7c0,0.1-0.1,0.3-0.2,0.3c-0.1,0.1-0.3,0.1-0.4,0.1c-0.3,0-0.5-0.1-0.6-0.3
			c0-0.3,0.2-0.6,0.7-0.9C135.3,53,135.8,52.8,136.3,52.8z M135.9,56.6c0.2,0,0.3,0,0.4-0.1c0.1-0.1,0.1-0.2,0.1-0.3v-1
			c0,0-0.1,0-0.2,0.1c-0.1,0-0.2,0.1-0.2,0.1c0,0-0.1,0-0.2,0.1c-0.1,0-0.2,0.1-0.2,0.1c0,0-0.1,0.1-0.1,0.1c-0.1,0-0.1,0.1-0.1,0.1
			c0,0.1,0,0.1,0,0.2c0,0.2,0.1,0.4,0.2,0.5C135.7,56.6,135.8,56.6,135.9,56.6z"/>
		<path class="st0" d="M141.2,52c0-0.3,0-0.5,0-0.7c0-0.1-0.2-0.2-0.5-0.2h-0.1c0,0-0.1-0.1-0.1-0.2c0-0.1,0-0.2,0.1-0.2
			c0.2,0,0.4,0,0.6-0.1c0.2,0,0.4-0.1,0.5-0.1c0.1,0,0.3-0.1,0.4-0.1c0.1,0,0.2-0.1,0.3-0.1l0.1,0h0c0,0,0.1,0,0.1,0.1
			c0,0,0,0.1,0,0.1c-0.1,0.3-0.1,0.6-0.1,1l0,4.2c0,0.4,0,0.7,0.1,0.9c0,0,0.1,0.1,0.3,0.2c0.2,0.1,0.3,0.1,0.3,0.1c0,0,0,0.1,0,0.2
			c0,0.1,0,0.2,0,0.2c-0.1,0-0.3,0-0.6,0c-0.3,0-0.6,0-0.7,0c-0.2,0-0.4,0-0.7,0c-0.3,0-0.5,0-0.6,0c0,0,0-0.1,0-0.2
			c0-0.1,0-0.2,0-0.2c0.1,0,0.2,0,0.4-0.1c0.2-0.1,0.3-0.1,0.3-0.2c0-0.2,0.1-0.4,0.1-0.7V52z"/>
		<path class="st0" d="M145.6,53.6h-0.6c-0.1,0-0.1-0.1-0.1-0.3c0-0.1,0-0.1,0-0.1c0.4-0.2,0.7-0.4,0.9-0.5c0.1-0.1,0.2-0.2,0.3-0.3
			c0.1-0.1,0.2-0.2,0.3-0.3c0.1-0.1,0.1-0.1,0.2-0.1c0.1,0,0.1,0,0.2,0c0.1,0,0.1,0,0.1,0.1v1h1.1c0.1,0,0.1,0,0.1,0.1
			c0,0.2,0,0.4-0.1,0.5h-1v2.3c0,0.5,0.2,0.7,0.5,0.7c0.1,0,0.2,0,0.3,0c0.1,0,0.1,0,0.2-0.1c0,0,0.1,0,0.1,0c0,0,0.1,0,0.1,0.1
			c0,0.1,0,0.1,0,0.1c0,0.1-0.1,0.2-0.4,0.3c-0.3,0.1-0.5,0.2-0.8,0.2c-0.4,0-0.7-0.1-0.9-0.3c-0.3-0.2-0.4-0.6-0.4-1.1V53.6z"/>
		<path class="st0" d="M153.6,52.9c0.4,0,0.7,0.2,0.9,0.5c0.2,0.3,0.4,0.8,0.4,1.5v1c0,0.4,0,0.7,0.1,0.9c0,0,0.1,0.1,0.3,0.2
			c0.2,0.1,0.3,0.1,0.3,0.1c0,0,0,0.1,0,0.2c0,0.1,0,0.2,0,0.2c-0.1,0-0.3,0-0.6,0c-0.3,0-0.6,0-0.7,0c-0.2,0-0.4,0-0.7,0
			c-0.3,0-0.5,0-0.6,0c0,0,0-0.1,0-0.2c0-0.1,0-0.2,0-0.2c0.1,0,0.2,0,0.3-0.1c0.2-0.1,0.2-0.1,0.3-0.2c0-0.2,0.1-0.4,0.1-0.7V55
			c0-0.5-0.1-0.8-0.2-1c-0.1-0.2-0.3-0.3-0.6-0.3c-0.5,0-0.7,0.1-0.7,0.4v1.7c0,0.4,0,0.7,0.1,0.9c0,0,0.1,0.1,0.3,0.2
			c0.2,0.1,0.3,0.1,0.3,0.1c0,0,0,0.1,0,0.2c0,0.1,0,0.2,0,0.2c-0.1,0-0.3,0-0.6,0c-0.3,0-0.6,0-0.7,0c-0.2,0-0.4,0-0.7,0
			c-0.3,0-0.5,0-0.6,0c0,0,0-0.1,0-0.2c0-0.1,0-0.2,0-0.2c0.1,0,0.2,0,0.4-0.1c0.2-0.1,0.3-0.1,0.3-0.2c0-0.2,0.1-0.4,0.1-0.7V52
			c0-0.3,0-0.5,0-0.7c0-0.1-0.2-0.2-0.5-0.2h-0.1c0,0-0.1-0.1-0.1-0.2c0-0.1,0-0.2,0.1-0.2c0.2,0,0.4,0,0.6-0.1
			c0.2,0,0.4-0.1,0.5-0.1c0.1,0,0.3-0.1,0.4-0.1c0.1,0,0.2-0.1,0.3-0.1l0.1,0h0c0,0,0.1,0,0.1,0.1c0,0,0,0.1,0,0.1
			c-0.1,0.3-0.1,0.6-0.1,1v1.8c0,0,0,0.1,0,0.1c0,0,0,0,0,0c0.1-0.2,0.3-0.3,0.6-0.4C153.1,52.9,153.3,52.9,153.6,52.9z"/>
		<path class="st0" d="M167.8,53.7c0-0.1-0.1-0.2-0.3-0.3c-0.2-0.1-0.3-0.1-0.5-0.1h0c0,0,0-0.1-0.1-0.2c0-0.1,0-0.2,0-0.2
			c0.1,0,0.3,0,0.6,0c0.3,0,0.5,0,0.7,0c0.1,0,0.3,0,0.6,0c0.2,0,0.4,0,0.5,0c0,0.1,0,0.1,0,0.2c0,0.1,0,0.2,0,0.2
			c-0.1,0-0.2,0.1-0.4,0.2c-0.2,0.1-0.4,0.2-0.4,0.3l-1.6,3.4c0,0-0.1,0.1-0.1,0.1c-0.1,0-0.2,0.1-0.2,0.1c-0.1,0-0.1,0-0.1-0.1
			l-1.2-2.5l-1.1,2.4c0,0-0.1,0.1-0.1,0.1c-0.1,0-0.1,0.1-0.2,0.1c-0.1,0-0.1,0-0.2-0.1l-1.7-3.7c0-0.1-0.1-0.2-0.3-0.2
			c-0.1-0.1-0.3-0.1-0.3-0.1c0,0,0-0.1,0-0.2c0-0.1,0-0.2,0-0.2c0.1,0,0.3,0,0.6,0c0.3,0,0.5,0,0.7,0c0.1,0,0.4,0,0.8,0
			c0.4,0,0.6,0,0.6,0c0,0,0,0.1,0,0.2c0,0.1,0,0.1,0,0.2c-0.1,0-0.2,0-0.4,0.1c-0.2,0.1-0.2,0.1-0.2,0.2c0,0.1,0.3,0.7,0.8,1.9
			c0.1-0.2,0.2-0.3,0.3-0.6c0.1-0.2,0.2-0.4,0.2-0.5c0-0.1,0.1-0.2,0.1-0.3c0-0.1,0.1-0.2,0.1-0.2c0-0.1,0-0.1,0-0.1
			c0-0.2,0-0.3-0.1-0.3c0-0.1-0.1-0.1-0.2-0.2c-0.1,0-0.2,0-0.4,0c0,0,0-0.1,0-0.2c0-0.1,0-0.2,0-0.2c0.1,0,0.3,0,0.6,0s0.5,0,0.7,0
			c0.1,0,0.4,0,0.7,0c0.3,0,0.5,0,0.6,0c0,0,0,0.1,0,0.2c0,0.1,0,0.2,0,0.2c-0.1,0-0.2,0-0.3,0.1c-0.1,0-0.2,0.1-0.2,0.2
			c0,0.1,0.3,0.8,0.8,2c0.1-0.3,0.3-0.5,0.4-0.9c0.2-0.3,0.3-0.5,0.3-0.7C167.7,53.8,167.8,53.7,167.8,53.7z"/>
		<path class="st0" d="M173.4,55.8c0,0.4,0,0.7,0.1,0.9c0,0,0.1,0.1,0.3,0.2c0.2,0.1,0.3,0.1,0.3,0.1c0,0,0,0.1,0,0.2
			c0,0.1,0,0.2,0,0.2c-0.1,0-0.3,0-0.6,0c-0.3,0-0.6,0-0.7,0c-0.2,0-0.4,0-0.7,0c-0.3,0-0.5,0-0.6,0c0,0,0-0.1,0-0.2
			c0-0.1,0-0.2,0-0.2c0.1,0,0.2,0,0.4-0.1c0.2-0.1,0.3-0.1,0.3-0.2c0-0.2,0.1-0.4,0.1-0.7v-1.3c0-0.4-0.1-0.6-0.2-0.7
			c0-0.1-0.1-0.1-0.2-0.1c-0.1,0-0.2-0.1-0.2-0.1c-0.1,0-0.1,0-0.1,0c0-0.2,0-0.3,0.1-0.3c0.1,0,0.4,0,0.9-0.1
			c0.4-0.1,0.8-0.2,0.9-0.2c0,0,0,0,0.1,0c0,0,0.1,0,0.1,0.1c0,0,0,0.1,0,0.1c0,0.1,0,0.1,0,0.3c0,0.1,0,0.3,0,0.4
			c0,0.1,0,0.2,0,0.3V55.8z M172.2,51.7c-0.1-0.1-0.2-0.3-0.2-0.5c0-0.2,0.1-0.4,0.2-0.5c0.1-0.1,0.3-0.2,0.5-0.2
			c0.2,0,0.4,0.1,0.5,0.2c0.1,0.1,0.2,0.3,0.2,0.5c0,0.2-0.1,0.4-0.2,0.5c-0.1,0.1-0.3,0.2-0.5,0.2
			C172.5,51.9,172.3,51.9,172.2,51.7z"/>
		<path class="st0" d="M176.6,53.6h-0.6c-0.1,0-0.1-0.1-0.1-0.3c0-0.1,0-0.1,0-0.1c0.4-0.2,0.7-0.4,0.9-0.5c0.1-0.1,0.2-0.2,0.3-0.3
			c0.1-0.1,0.2-0.2,0.3-0.3c0.1-0.1,0.1-0.1,0.2-0.1c0.1,0,0.1,0,0.2,0c0.1,0,0.1,0,0.1,0.1v1h1.1c0.1,0,0.1,0,0.1,0.1
			c0,0.2,0,0.4-0.1,0.5h-1v2.3c0,0.5,0.2,0.7,0.5,0.7c0.1,0,0.2,0,0.3,0c0.1,0,0.1,0,0.2-0.1c0,0,0.1,0,0.1,0c0,0,0.1,0,0.1,0.1
			c0,0.1,0,0.1,0,0.1c0,0.1-0.1,0.2-0.4,0.3c-0.3,0.1-0.5,0.2-0.8,0.2c-0.4,0-0.7-0.1-0.9-0.3c-0.3-0.2-0.4-0.6-0.4-1.1V53.6z"/>
		<path class="st0" d="M184.6,52.9c0.4,0,0.7,0.2,0.9,0.5c0.2,0.3,0.4,0.8,0.4,1.5v1c0,0.4,0,0.7,0.1,0.9c0,0,0.1,0.1,0.3,0.2
			c0.2,0.1,0.3,0.1,0.3,0.1c0,0,0,0.1,0,0.2c0,0.1,0,0.2,0,0.2c-0.1,0-0.3,0-0.6,0c-0.3,0-0.6,0-0.7,0c-0.2,0-0.4,0-0.7,0
			c-0.3,0-0.5,0-0.6,0c0,0,0-0.1,0-0.2c0-0.1,0-0.2,0-0.2c0.1,0,0.2,0,0.3-0.1c0.2-0.1,0.2-0.1,0.3-0.2c0-0.2,0.1-0.4,0.1-0.7V55
			c0-0.5-0.1-0.8-0.2-1c-0.1-0.2-0.3-0.3-0.6-0.3c-0.5,0-0.7,0.1-0.7,0.4v1.7c0,0.4,0,0.7,0.1,0.9c0,0,0.1,0.1,0.3,0.2
			c0.2,0.1,0.3,0.1,0.3,0.1c0,0,0,0.1,0,0.2c0,0.1,0,0.2,0,0.2c-0.1,0-0.3,0-0.6,0c-0.3,0-0.6,0-0.7,0c-0.2,0-0.4,0-0.7,0
			c-0.3,0-0.5,0-0.6,0c0,0,0-0.1,0-0.2c0-0.1,0-0.2,0-0.2c0.1,0,0.2,0,0.4-0.1c0.2-0.1,0.3-0.1,0.3-0.2c0-0.2,0.1-0.4,0.1-0.7V52
			c0-0.3,0-0.5,0-0.7c0-0.1-0.2-0.2-0.5-0.2h-0.1c0,0-0.1-0.1-0.1-0.2c0-0.1,0-0.2,0.1-0.2c0.2,0,0.4,0,0.6-0.1
			c0.2,0,0.4-0.1,0.5-0.1c0.1,0,0.3-0.1,0.4-0.1c0.1,0,0.2-0.1,0.3-0.1l0.1,0h0c0,0,0.1,0,0.1,0.1c0,0,0,0.1,0,0.1
			c-0.1,0.3-0.1,0.6-0.1,1v1.8c0,0,0,0.1,0,0.1c0,0,0,0,0,0c0.1-0.2,0.3-0.3,0.6-0.4C184,52.9,184.3,52.9,184.6,52.9z"/>
		<path class="st0" d="M194,52.8c0.6,0,1,0.1,1.3,0.2c0.1,0.3,0.1,0.7,0.1,1.2c0,0.1,0,0.1-0.1,0.1c-0.2,0-0.3,0-0.3-0.1
			c-0.1-0.3-0.2-0.5-0.3-0.6c-0.1-0.2-0.4-0.2-0.7-0.2c-0.1,0-0.3,0-0.4,0.1c-0.1,0.1-0.1,0.2-0.1,0.3c0,0.2,0.1,0.3,0.2,0.4
			c0.1,0.1,0.3,0.2,0.6,0.4c0.2,0.1,0.3,0.2,0.4,0.2c0.1,0.1,0.2,0.2,0.4,0.3c0.2,0.1,0.3,0.3,0.4,0.4c0.1,0.2,0.1,0.4,0.1,0.6
			c0,0.4-0.2,0.8-0.5,1c-0.3,0.2-0.8,0.3-1.3,0.3c-0.2,0-0.5,0-0.8-0.1c-0.3-0.1-0.5-0.2-0.6-0.3c-0.1-0.5-0.1-0.9-0.1-1.2
			c0,0,0.1,0,0.1,0c0.2,0,0.3,0,0.3,0.1c0.1,0.6,0.5,1,1.1,1c0.2,0,0.3,0,0.4-0.1c0.1-0.1,0.2-0.2,0.2-0.3c0-0.2-0.1-0.3-0.2-0.4
			c-0.1-0.1-0.4-0.3-0.8-0.4c-0.4-0.2-0.7-0.4-0.8-0.6c-0.2-0.2-0.3-0.5-0.3-0.8c0-0.4,0.2-0.8,0.5-1
			C193.1,52.9,193.5,52.8,194,52.8z"/>
		<path class="st0" d="M202.2,54V56c0,0.3,0,0.5,0.1,0.6c0,0,0.1,0.1,0.2,0.1c0.1,0,0.1,0,0.2,0h0.1c0,0,0,0,0,0.1
			c0,0.2,0,0.3-0.1,0.3c-0.1,0-0.2,0-0.4,0c-0.2,0-0.3,0-0.5,0.1c-0.2,0-0.3,0-0.4,0.1c-0.1,0-0.3,0-0.3,0.1l-0.1,0
			c0,0-0.1-0.1-0.1-0.2v-0.4c0,0,0,0,0,0c0,0,0,0,0,0c-0.1,0.1-0.3,0.3-0.6,0.4c-0.3,0.1-0.6,0.2-0.9,0.2c-0.4,0-0.7-0.2-0.9-0.5
			c-0.2-0.3-0.3-0.8-0.3-1.2v-1c0-0.4-0.1-0.6-0.2-0.7c0-0.1-0.1-0.1-0.2-0.1c-0.1,0-0.2-0.1-0.2-0.1c-0.1,0-0.1,0-0.1,0
			c0-0.2,0-0.3,0-0.3c0.1,0,0.4,0,0.9-0.1c0.4-0.1,0.8-0.2,0.9-0.2l0,0c0,0,0.1,0,0.1,0c0,0,0.1,0,0.1,0.1c0,0,0,0.1,0,0.1
			c-0.1,0.6-0.1,0.9-0.1,1v1.1c0,0.5,0.1,0.9,0.2,1.1c0.1,0.2,0.3,0.3,0.7,0.3c0.2,0,0.4-0.1,0.5-0.2c0.1-0.1,0.2-0.2,0.2-0.3v-1.4
			c0-0.4-0.1-0.6-0.2-0.7c0-0.1-0.1-0.1-0.2-0.1c-0.1,0-0.2-0.1-0.2-0.1c-0.1,0-0.1,0-0.1,0c0-0.2,0-0.3,0-0.3c0.1,0,0.4,0,0.9-0.1
			c0.4-0.1,0.8-0.2,0.9-0.2c0,0,0,0,0.1,0l0,0c0,0,0.1,0,0.1,0.1c0,0,0,0.1,0,0.1C202.3,53.6,202.2,54,202.2,54z"/>
		<path class="st0" d="M207.5,52.9c0.6,0,1.1,0.2,1.5,0.6c0.4,0.4,0.6,0.9,0.6,1.5c0,0.7-0.2,1.3-0.7,1.7c-0.5,0.4-1.1,0.6-1.8,0.6
			c-0.1,0-0.2,0-0.3,0c-0.1,0-0.2,0-0.2,0c-0.1,0-0.1,0-0.1,0c0,0,0,0.1,0,0.2v0.5c0,0.4,0,0.7,0.1,0.9c0,0,0.1,0.1,0.3,0.2
			c0.2,0.1,0.3,0.1,0.3,0.1c0,0,0,0.1,0,0.2c0,0.1,0,0.2,0,0.2c-0.1,0-0.3,0-0.6,0c-0.3,0-0.6,0-0.7,0c-0.2,0-0.4,0-0.7,0
			c-0.3,0-0.5,0-0.6,0c0,0,0-0.1,0-0.2c0-0.1,0-0.2,0-0.2c0.1,0,0.2,0,0.4-0.1c0.2-0.1,0.3-0.1,0.3-0.2c0-0.2,0.1-0.4,0.1-0.7v-3.5
			c0-0.4-0.1-0.6-0.2-0.7c0-0.1-0.1-0.1-0.2-0.1c-0.1,0-0.2-0.1-0.2-0.1c-0.1,0-0.1,0-0.1,0c0-0.2,0-0.3,0-0.3
			c0.4,0,0.9-0.1,1.6-0.3c0.2-0.1,0.3-0.1,0.3-0.1c0,0,0.1,0,0.1,0.1c0,0,0,0.1,0,0.2C206.9,53,207.2,52.9,207.5,52.9z M207.4,53.4
			c-0.2,0-0.4,0.1-0.5,0.2c-0.1,0.1-0.2,0.3-0.2,0.5V56c0,0.3,0.1,0.4,0.2,0.6c0.2,0.1,0.3,0.2,0.5,0.2c0.6,0,0.9-0.5,0.9-1.5
			C208.3,54.1,208,53.4,207.4,53.4z"/>
		<path class="st0" d="M214.5,52.9c0.6,0,1.1,0.2,1.5,0.6c0.4,0.4,0.6,0.9,0.6,1.5c0,0.7-0.2,1.3-0.7,1.7c-0.5,0.4-1.1,0.6-1.8,0.6
			c-0.1,0-0.2,0-0.3,0c-0.1,0-0.2,0-0.2,0c-0.1,0-0.1,0-0.1,0c0,0,0,0.1,0,0.2v0.5c0,0.4,0,0.7,0.1,0.9c0,0,0.1,0.1,0.3,0.2
			c0.2,0.1,0.3,0.1,0.3,0.1c0,0,0,0.1,0,0.2c0,0.1,0,0.2,0,0.2c-0.1,0-0.3,0-0.6,0c-0.3,0-0.6,0-0.7,0c-0.2,0-0.4,0-0.7,0
			c-0.3,0-0.5,0-0.6,0c0,0,0-0.1,0-0.2c0-0.1,0-0.2,0-0.2c0.1,0,0.2,0,0.4-0.1c0.2-0.1,0.3-0.1,0.3-0.2c0-0.2,0.1-0.4,0.1-0.7v-3.5
			c0-0.4-0.1-0.6-0.2-0.7c0-0.1-0.1-0.1-0.2-0.1c-0.1,0-0.2-0.1-0.2-0.1c-0.1,0-0.1,0-0.1,0c0-0.2,0-0.3,0-0.3
			c0.4,0,0.9-0.1,1.6-0.3c0.2-0.1,0.3-0.1,0.3-0.1c0,0,0.1,0,0.1,0.1c0,0,0,0.1,0,0.2C213.9,53,214.2,52.9,214.5,52.9z M214.3,53.4
			c-0.2,0-0.4,0.1-0.6,0.2c-0.1,0.1-0.2,0.3-0.2,0.5V56c0,0.3,0.1,0.4,0.2,0.6c0.2,0.1,0.3,0.2,0.5,0.2c0.6,0,0.9-0.5,0.9-1.5
			C215.2,54.1,214.9,53.4,214.3,53.4z"/>
		<path class="st0" d="M219.3,53.5c0.4-0.4,1-0.7,1.6-0.7c0.6,0,1.2,0.2,1.6,0.7c0.4,0.4,0.7,1,0.7,1.6c0,0.6-0.2,1.2-0.7,1.6
			c-0.4,0.4-1,0.6-1.6,0.6c-0.6,0-1.2-0.2-1.6-0.6c-0.4-0.4-0.7-1-0.7-1.6C218.7,54.5,218.9,53.9,219.3,53.5z M220.8,53.4
			c-0.2,0-0.3,0.1-0.5,0.2c-0.1,0.2-0.2,0.3-0.2,0.5c0,0.2-0.1,0.4-0.1,0.6c0,1.3,0.3,2,1,2c0.3,0,0.5-0.1,0.6-0.4
			c0.1-0.3,0.2-0.6,0.2-0.9C221.9,54.1,221.5,53.4,220.8,53.4z"/>
		<path class="st0" d="M228.4,52.9c0.3,0,0.6,0.1,0.8,0.4c0,0.3,0,0.6-0.1,0.8c-0.1,0.2-0.2,0.2-0.4,0.2c-0.1,0-0.3-0.1-0.5-0.2
			c-0.2-0.2-0.3-0.2-0.5-0.2c-0.2,0-0.3,0.1-0.4,0.3c-0.1,0.2-0.1,0.5-0.1,0.7v1c0,0.4,0,0.7,0.1,0.9c0,0,0.1,0.1,0.3,0.2
			c0.2,0.1,0.3,0.1,0.3,0.1c0,0,0,0.1,0,0.2c0,0.1,0,0.2,0,0.2c-0.1,0-0.3,0-0.6,0c-0.3,0-0.6,0-0.7,0c-0.2,0-0.4,0-0.7,0
			c-0.3,0-0.5,0-0.6,0c0,0,0-0.1,0-0.2c0-0.1,0-0.2,0-0.2c0.1,0,0.2,0,0.4-0.1c0.2-0.1,0.3-0.1,0.3-0.2c0-0.2,0.1-0.4,0.1-0.7v-1.3
			c0-0.4-0.1-0.6-0.2-0.7c0-0.1-0.1-0.1-0.2-0.1c-0.1,0-0.2-0.1-0.2-0.1c-0.1,0-0.1,0-0.1,0c0-0.2,0-0.3,0.1-0.3
			c0.1,0,0.2,0,0.4-0.1c0.2,0,0.4-0.1,0.7-0.2c0.3-0.1,0.5-0.1,0.7-0.1c0.1,0,0.1,0,0.1,0c0,0,0.1,0,0.1,0.1c0,0,0,0.1,0,0.1
			c0,0.1,0,0.2,0,0.3c0,0.1,0,0.2,0,0.2C227.6,53.1,227.9,52.9,228.4,52.9z"/>
		<path class="st0" d="M231.9,53.6h-0.6c-0.1,0-0.1-0.1-0.1-0.3c0-0.1,0-0.1,0-0.1c0.4-0.2,0.7-0.4,0.9-0.5c0.1-0.1,0.2-0.2,0.3-0.3
			c0.1-0.1,0.2-0.2,0.3-0.3C232.9,52,233,52,233,52c0.1,0,0.1,0,0.2,0c0.1,0,0.1,0,0.1,0.1v1h1.1c0.1,0,0.1,0,0.1,0.1
			c0,0.2,0,0.4-0.1,0.5h-1v2.3c0,0.5,0.2,0.7,0.5,0.7c0.1,0,0.2,0,0.3,0c0.1,0,0.1,0,0.2-0.1c0,0,0.1,0,0.1,0c0,0,0.1,0,0.1,0.1
			c0,0.1,0,0.1,0,0.1c0,0.1-0.1,0.2-0.4,0.3c-0.3,0.1-0.5,0.2-0.8,0.2c-0.4,0-0.7-0.1-0.9-0.3c-0.3-0.2-0.4-0.6-0.4-1.1V53.6z"/>
	</g>
</g>
</svg>
