<?xml version="1.0" encoding="utf-8"?>
<!-- Generator: Adobe Illustrator 17.1.0, SVG Export Plug-In . SVG Version: 6.00 Build 0)  -->
<!DOCTYPE svg PUBLIC "-//W3C//DTD SVG 1.1//EN" "http://www.w3.org/Graphics/SVG/1.1/DTD/svg11.dtd">
<svg version="1.1" id="Layer_1" xmlns="http://www.w3.org/2000/svg" xmlns:xlink="http://www.w3.org/1999/xlink" x="0px" y="0px" viewBox="0 0 156.6 36.7" style="enable-background:new 0 0 156.6 36.7;" xml:space="preserve">
<style type="text/css">
	.st0{fill:#231F20;}
	.st1{fill-rule:evenodd;clip-rule:evenodd;}
</style>
<g>
	<path d="M156.4,15c-0.5-1.2-1.9,0-1.3,0.6c0.3,0.4,0.6,0.7,0.2,1.3c-0.5,1.1-2,1.9-2.9,2.3c-5.1,2.3-10.1,3.2-15.7,2.7
		c-2.3-0.2-4.6-0.5-5.9-2.8c-0.7-1.2-1.1-1.2-2.2-0.3c-1.5,1.3-2.9,2.7-4.4,4c-0.4-0.9,0.6-2.4,0.2-3.2c-0.2-0.5-0.5-0.1-1,0.2
		c-1,0.9-1.5-0.5-2.2-0.5c-0.3,0-0.6,0.1-1.2,0.6c-0.6,0.5-1,0.7-1.7,0.8c-1.6,0.3-3.3,0.7-4.9,1c-0.3,0.1-0.6,0.1-0.9-0.1
		c-1-0.7-3.9-1.5-3-2.1c1.7-1,2.9-1.3,4.3-1.8c0.5-0.2,1-0.1,1.4,0.5c0.4,0.6,0.9,0.3,1.2-0.2c0.4-0.7,0.3-1.5-0.3-2
		c-0.5-0.5-1.2-0.3-1.8,0c-0.6,0.4-1.5,0.6-2.2,0.8c-1.1,0.3-2,0.6-3.1,1.1c-0.8,0.3-1.6,0.9-1.6,1.8c0,0.9,0.8,1.1,1.6,1.5
		c0.5,0.2,1.1,0.5,1.7,0.9c-1.8,0.2-4.9,1.4-5,3.1c-0.9,0.7-1.3-2-0.8-4c0.3-0.9,0.1-1.8-0.1-2.7c-0.3-0.9-1-1-1.8-0.6
		c-1.5,0.9-3,3.2-3.2,3c-0.2-0.3,0.8-1.3,0.1-1.5c-0.1,0-0.7,0.1-1.1,0.6c-1.6,2-4.2,2.8-4.7,3c-1.8,0.6-3-0.4-3.3-2.6
		c-0.1-0.4,0-0.9-0.5-1c-0.5-0.1-1,0.1-1.3,0.5c-0.4,0.6-1.1,1.2-1.6,1.6c0.5-1.5,0.9-2.2,1.2-2.7c2.2-1.3,4.9-3,6.2-4.7
		c0.5-0.6,1.6-2,1.8-3.9c0.1-1.1-1.8-1.8-2.8-0.9c-2.4,2.2-4.5,4.6-5.9,7.6c-0.2,0.3-0.4,1-0.4,1s-5.2,1.2-5.2,1
		c-0.4-1-1.5-1.3-2.2-1.1c-0.5,0.1-0.7,0.2-1.2,0.3c0.2-0.8,0.4-1.5,0.5-2c0.9-2.8,1.6-5.6,2.2-8.5c0.4-1.9,0.6-3.8-0.1-5.7
		c-0.6-1.8-2-2.4-3.8-2.1c-3,0.6-6.3,2.8-9.8,6.4c-9,9.1-10.8,18.9-9.4,20.3c1.2,1.1,6.3-1.4,8.7-3.7c0.9-0.8,1.7-1.8,1.8-3.2
		c0-0.5,0-1-0.5-1.1c-0.5-0.1-0.9,0.3-1,0.8c-0.2,0.6-0.1,1.2-0.4,1.7c-1.6,2.5-5.2,4.1-6.7,4.3c-2.7,0.3,0.3-11.7,11.3-21.1
		c3.4-2.9,8-3.8,8.6-1.9c0.3,0.8,1.3,3.8-2.6,15.8c-1.2,0.6-2.3,1.2-2.8,1.6c-1.8,1.3-3,2.8-4.3,4.5c-2.2,3-3.8,6.2-4.8,9.9
		c-0.2,0.7-0.3,1.5,0.4,2c0.6,0.4,2.2-0.9,2.7-1.3c1.3-1.2,2.5-2.6,3.9-4.5c1.6-2.1,2.8-4.6,4.1-7c0.5,1.7,1.9,1.9,2.8,1.3
		c2.3-1.3,2.7-3.4,2.8-4.6c3.5-0.7,4.5-1,4.5-0.8c-0.2,0.4-0.5,1.1-0.6,1.2c-0.5,1.1-1,1.8-1.5,2.8c-0.3,0.5-0.8,1.1-0.2,1.6
		c0.6,0.5,1.3,0,1.7-0.4c0.2-0.3,0.9-1.5,2-2.4c0.6-0.4,1.7-1.1,1.7,0.5c0,1.4,1.3,1.6,2.6,1.5c1.1-0.1,2.4-0.5,3.3-1
		c1.9-1,2.3-0.3,1.4,0.6c-0.6,0.6,1.2,1.2,1.7,0.4c0.9-1.5,1.4-2.6,2.8-3.8c0.5-0.4,0.9-0.8,1.7-1.1c0.7-0.1,0.1,2.2-0.1,3.2
		c-0.2,1.2-0.2,2.3,0.3,3.1c0.3,0.4,2.5,0.9,3.5,0.9c2.1,0.1,3.9,0.2,5.2-1c0.7-0.6,1.3-1.9,1-2.7c1.8-0.3,3.1-0.7,4.7-0.9
		c-0.6,1-1.3,2-1.4,3c0,0.5,0.1,1.1,0.6,1.4c0.5,0.3,1.1,0.1,1.6-0.1c1.2-0.5,2.2-1.2,2.8-2.9c0.1-0.3,0.9-2.5,0.9-1.5
		c-0.1,0.7-0.6,2-0.6,2.6c-0.1,0.5,0.1,1,0.7,1.1c0.5,0.1,1,0.1,1.3-0.5c1.1-1.7,2.3-3.1,3.7-4.5c0.9-0.9,1.9-0.9,2.5,0.1
		c1.4,2.2,6.9,2.8,11,2.2C144.1,22.9,158.5,20.5,156.4,15z M94.4,11.2c0.4-0.3,1.5-0.6,1.1,0.9c-0.5,1.6-3.8,5-6,5.7
		C90.5,15.6,92.6,12.7,94.4,11.2z M73,29c-2.4,3.7-5.5,6.2-5.9,5.9c-0.4-0.2,1-4.9,2.5-7.1c1.9-2.9,3.6-5.4,6.9-7.3
		c0.1-0.1,0.3-0.1,0.7-0.3C76.1,23.5,74.8,26.3,73,29z M79.2,23.8c-0.6,0-0.5-0.6-0.5-1c0-1.1,1-3.2,2.2-2.8
		c0.6,0.2,0.6,1.1,0.5,1.6C81,22.7,79.8,23.7,79.2,23.8z M107.5,25.1c0.3-1.1,2.4-1.6,3.5-1.7c0.4,0,1-0.1,1,0.5
		C111.8,25.7,107.1,26.4,107.5,25.1z M118.2,24.9c0.2-1.1,2-3.3,2.6-2.7C121.7,23.3,118.1,26.3,118.2,24.9z"/>
</g>
<g>
	<path class="st0" d="M56.7,4.8c0.1-0.7-0.1-1.4-0.9-1.4c-0.8,0-0.8,0.6-0.9,1.2c-0.1,1-0.1,2.1-0.3,3.1c-0.9,5.9-1.9,11.7-2.8,17.6
		c-0.1,0.7-0.2,1.6,0.6,1.7c1,0.2,1-0.7,1.1-1.4c0.4-3,0.8-6.1,1.3-9.1C55.3,12.6,56,8.7,56.7,4.8z M53.3,6.4
		c0.1-0.6-0.1-1.3-0.9-1.3c-0.8-0.1-0.7,0.7-0.8,1.2c-0.9,6.3-2.5,12.4-4.9,18.3c-0.3,0.7-1,1.4,0.1,1.9c0.9,0.4,1.1-0.6,1.4-1.2
		C50.6,19.3,51.8,12.9,53.3,6.4z"/>
	<path class="st1" d="M35.9,14.5c2.1,0.5,4.7,0.5,5.1,2.8c0,0.2,0,0.5,0.1,0.5c0.4,0,0.9-0.2,1.3-0.2c2.4-0.1,3.2,1,2.4,3.2
		c-0.7,1.7-1.5,3.2-2.3,4.8c-0.2,0.4-0.5,0.8-0.9,0.5c-0.6-0.3-0.7-0.9-0.4-1.5c0.6-1.2,1.2-1.9,1.8-3.1c0.3-0.6,1.2-1.9,0.3-2.4
		c-0.5-0.2-1.8-0.2-2.4,0c-0.1,0.2-0.4,0.7-0.7,1c-2.8,3.2-9.8,6-15,6.8c-0.6,0.1-1.3,0.4-1.7-0.4c-0.4-0.8,0.2-1.3,0.7-1.8
		c2-1.8,4.5-2.7,6.9-3.8c2.5-1.1,4.8-1.8,7.4-2.6c0.2-0.1,0.8-0.2,1.1-0.4c0.1-0.4,0-0.9-0.8-1.2c-2.4-1-4.9-1.3-7.4-0.3
		c-1.8,0.7-5.6,2.2-6.9,2.5c-0.1,1-0.5,3.3-0.7,4.2c-0.1,0.4-0.2,0.9-0.7,0.8c-0.5-0.1-0.7-0.5-0.7-1c0.1-0.9,0.3-2.8,0.4-3.6
		c-0.5,0.1-0.2,0-1.7,0.1c-1.2,0.1-1.7,0.1-1.9-0.2c-0.6-0.8,0.9-1.5,1.7-1.9c2.9-1.5,6.1-2.4,9.4-2.7c2.6-0.2,4.7-1.5,6.4-3.4
		c0.9-1,0.6-1.6-0.6-1.8c-2.2-0.4-4.5-0.2-6.7,0.1C9.9,12.3,3.6,17.6,2.2,18.7c-0.7,0.6-0.8,1.2,0.1,1.6c0.4,0.2,1,0.4,0.7,1
		c-0.2,0.4-0.8,0.3-1.3,0.2c-1.1-0.3-2.4-2.3-0.8-3.6c3.1-2.5,6.6-3.9,10.3-5.1c6.7-2.2,13.6-3.9,20.7-4.6c1.6-0.1,3.2-0.3,4.8,0.2
		c2.3,0.7,2.8,2.3,1.3,4.2C37.4,13.2,36.7,13.7,35.9,14.5z M38,20.4c0.2-0.2,1.2-0.9,1.1-1C38.7,19,26,24.3,26.5,25.2
		C30.6,24.3,34.3,23,38,20.4z"/>
	<path class="st1" d="M56.7,4.8c-0.6,3.9-1.3,7.8-1.9,11.8c-0.5,3-0.9,6-1.3,9.1c-0.1,0.7-0.1,1.6-1.1,1.4c-0.9-0.2-0.7-1-0.6-1.7
		c0.9-5.9,1.8-9.9,2.8-15.7c0.2-1,0.2-3.9,0.3-4.9c0-0.6,0.1-1.3,0.9-1.2C56.6,3.4,56.7,4.1,56.7,4.8z"/>
	<path class="st1" d="M53.3,6.4c-1.5,6.4-2.9,11.4-5.1,18.9c-0.2,0.6-0.5,1.6-1.4,1.2c-1.1-0.4-0.3-1.2-0.1-1.9
		c2.4-5.9,3.9-12,4.9-18.3c0.1-0.6,0-1.3,0.8-1.2C53.2,5.2,53.3,5.8,53.3,6.4z"/>
</g>
</svg>
