<?xml version="1.0" encoding="utf-8"?>
<!-- Generator: Adobe Illustrator 17.1.0, SVG Export Plug-In . SVG Version: 6.00 Build 0)  -->
<!DOCTYPE svg PUBLIC "-//W3C//DTD SVG 1.1//EN" "http://www.w3.org/Graphics/SVG/1.1/DTD/svg11.dtd">
<svg version="1.1" id="Layer_1" xmlns="http://www.w3.org/2000/svg" xmlns:xlink="http://www.w3.org/1999/xlink" x="0px" y="0px"
	 width="100px" height="100px" viewBox="0 0 100 100" style="enable-background:new 0 0 100 100;" xml:space="preserve">
<style type="text/css">
	.st0{fill:none;stroke:#F1F1EB;stroke-miterlimit:10;}
	.st1{fill:#F1F1EB;}
	.st2{fill-rule:evenodd;clip-rule:evenodd;fill:#F1F1EB;}
</style>
<g id="bg_copy_8_">
	<ellipse class="st0" cx="50" cy="50" rx="36.1" ry="36.3"/>
</g>
<g>
	<path class="st1" d="M51.1,99.9l-7.8-0.5L37.6,90l-8.4-3.7l-10.7,2.2l-5.7-5.4l1.7-10.8l-4.1-8.2l-9.6-5.2L0,51.1l8.2-7.2l2.2-8.9
		l-4-10.2l4.3-6.6l10.9-0.2l7.4-5.5l3.4-10.4L39.9,0l8.5,6.9l9.1,0.6l9.3-5.7L74,4.9l2.1,10.7l6.6,6.3l10.8,1.6l3.5,7.1l-5.3,9.6
		l1,9.1l7.2,8.2l-1.8,7.7L87.9,69l-5.1,7.7l0.3,10.9l-6.3,4.7l-10.3-3.6l-8.8,2.6L51.1,99.9z M44.4,97.5l5.8,0.4l6.5-8.3l10-2.9
		l9.9,3.4l4.7-3.5l-0.3-10.5l5.8-8.7l9.8-3.8l1.4-5.6l-7-7.8l-1.2-10.4l5.1-9.2l-2.6-5.2l-10.4-1.5l-7.5-7.2l-2-10.3L67,3.9L58,9.5
		L47.6,8.8l-8.2-6.6l-5.6,1.6l-3.3,10L22.3,20l-10.5,0.2L8.6,25l3.9,9.8L10,45l-7.9,6.9l0.6,5.8l9.2,5l4.6,9.4L15,82.4l4.2,4
		l10.3-2.1l9.5,4.2L44.4,97.5z M50,84.3c-18.8,0-34.2-15.4-34.2-34.3C15.8,31,31.1,15.7,50,15.7C68.8,15.7,84.1,31,84.1,50
		C84.1,68.9,68.8,84.3,50,84.3z M50,17.6c-17.8,0-32.2,14.5-32.2,32.3S32.2,82.3,50,82.3c17.8,0,32.2-14.5,32.2-32.3
		S67.7,17.6,50,17.6z"/>
</g>
<g id="D4D8fP_2_">
	<g>
		<path class="st2" d="M45.8,26.6c0.6,0.6,1.7-0.1,2.4,0.4c-2.7,1.4-7.7,1.2-8.2,4.3c2.3-0.7,4.3-2.3,7.4-2.6
			c1.6-0.1,3.3,0.2,4.8-0.1c0.7-0.1,1.3-0.5,2-0.5c1.7,0,2.9,1.5,4.3,0.7c-0.7-2.9-4.7-1.6-7.5-2C49.3,26.5,46.8,24.5,45.8,26.6z
			 M42.3,28.1c1,0.3,2.1-0.3,2.7-0.8C44.7,25.9,42.1,26.8,42.3,28.1z M34.6,43.4c1.1-0.9,1.4-2.2,2.2-3.4c0.7-1.1,2-2,2.4-3
			c0.3-0.8,0.2-1.7,0.5-2.3c1.1-2.1,5.4-3.7,8.6-3.9c2.5-0.2,4.4-0.2,6.5-0.7c-0.9,1.6-3.9,1.2-6.3,1.4c-3.5,0.2-7.8,1.6-8.2,4.6
			c2.6-1.1,5.1-3.1,8.6-3.4c1.5-0.1,3.3,0.2,4.6-0.1c0.7-0.2,1.4-0.8,2.2-0.8c3.9-0.1,5.5,4.5,8.9,4.2c0.2-1.7-1.8-2.1-3.1-2.8
			c-1-0.6-1.9-1.3-2.8-1.9c-1.4-0.9-2.3-2.5-4.7-2.3c-0.7,0.1-1.5,0.4-2.3,0.5c-1.2,0.2-2.6,0-3.9,0.1c-3.8,0.3-8.5,2.4-9.6,4.7
			c-0.3,0.6-0.1,1.4-0.4,2C37,38.1,33.4,40,34.6,43.4z M58.7,29.7c0.3,1.4,2.3,2.5,3.6,2.4C61.9,30.6,60.6,29.4,58.7,29.7z
			 M54.7,32.8c0.8,1.1,2.2,1.2,3.1,1.8c0.9,0.5,1.9,1.3,2.6,2.2c0.4,0.5,0.5,1.3,0.9,1.8c0.9,1,2.4,1.5,3.4,2.6c1,1,1.2,2.5,2.7,3
			c0.5-2.6-2.6-4.5-4.4-5.7c-1.5-2-3.3-5.1-6.3-5.8C55.9,32.4,55.2,32.3,54.7,32.8z M62.4,36.1c0,1.9,2.2,2.8,3.6,3.4
			C66.1,37.5,64.3,36.4,62.4,36.1z M55.4,41.3c-6.8-2.7-14.9,3.1-15.1,9.6c0,1.5,0.7,3.5,0.8,5.4c0.4,5.6,2,10.5,6.1,12.3
			c1.2,0.5,2.6,0.7,3.8,1.2c1.1,0.5,2,1.5,3.1,1.9c1.2,0.4,2.6,0.2,4,0.5c1,0.2,1.8,1.3,3,0.7c-0.4-2.4-3.4-1.8-5.1-2.3
			c-2.2-0.6-4.4-2.1-5.9-3.4c-2.1-1.8-4.2-5.2-4.8-8.4c-0.2-1.1,0.2-2.6-0.8-3.5c-1.5,0.2-0.8,2.1-0.7,3c0.6,3.3,2,6.6,3.8,8.5
			c-3.9-1.4-4.5-6.5-4.8-11.4c-0.1-1.6-0.7-3.1-0.5-4.7c0.5-5.3,6.2-10.2,12.5-7.8c1.9,0.7,3.5,2.5,5,3.9c0.9,0.9,1.8,1.4,2.4,2.3
			c1.1,1.6,1.7,3.8,2.6,5.7c0.4,0.9,0.9,2,1.3,2.8c0.4,0.7,0.8,1.9,1.9,1.9c0.6-1.9-1.1-3.8-2-5.7c-0.9-1.9-1.5-4-2.6-5.7
			c-1-1.6-2.6-2.9-3.9-4.3c-2.3-2.6-3-5-6.9-5.8c-0.8-0.2-3.3-0.5-3.4,0.5c-0.1,1.1,1.7,0.8,2.8,0.9C53.3,39.8,54.8,40.3,55.4,41.3z
			 M48.6,38.9c-0.3,0-0.1-0.4-0.4-0.4c-2.3,0.1-5.3,2.2-6.6,3.9c-2.5,3.2-5,7.7-4.6,13.3c0,0.4,0.3,3.1,1.2,3c1-0.2-0.1-3.7,0.1-5.1
			c0.1-0.6,0.5-1.1,0.7-1.8c0.6-2.2,1-4.1,2.2-6c1-1.5,2.3-3.2,3.8-4.3C46.3,40.5,47.9,40.7,48.6,38.9z M59.1,41.3
			c-0.6,1.5,0.9,2,1.6,2.6c2.2,1.8,3.5,4.1,4.7,7.2c0.6,1.7,1.3,3.6,2.7,4.5c0.4-1.9-0.8-3.7-1.5-5.4c-0.7-1.7-1.2-3.6-2.2-4.9
			c-1.2-1.5-3.5-3-5.1-3.9C59.3,41.3,59.2,41.3,59.1,41.3z M44.3,54.9c0.3-2.2,0-4.3,0.9-6.1c2.1-4,7.2-4.5,10.9-1.6
			c1.4,1.1,3,2.5,3.6,4.1c-2.9-1.1-4.2-4.6-7.9-5.1c-3.8-0.5-5.9,2.1-6.2,4.9c-0.3,2.8,0.1,6.4,0.8,8.9c1,3.5,3.4,6.5,6.1,8.3
			c0.8,0.5,1.7,0.7,2.6,1.1c0.8,0.4,1.5,1.4,2.4,0.9c-0.7-2.5-3.2-2.6-5-3.9c-2.7-2.2-4.3-5.3-4.8-10.2c-0.3-2.5-1.2-5,0.3-7.2
			c1.2-1.8,4.1-1.9,6.1-0.8c0.9,0.5,1.8,2,2.7,3c0.6,0.6,1.7,1.3,2,1.8c0.7,1.2,0.3,2.5,0.5,4.2c0.3,1.7,1.7,4.2,2.8,5.5
			c0.7,0.8,2,2.1,3.4,1.9c-0.1-1.8-1.6-2.6-2.4-3.8c-1-1.4-2-3.4-1.7-6.1c0.2-2.1,0.7-3.7-0.3-5.1c-0.9-1.4-2.6-2.6-4-3.7
			c-1.7-1.4-3.9-2.6-7-2.3c-3.5,0.4-6.8,4.1-7,8.4C42.9,52.8,42.7,54.7,44.3,54.9z M48.5,50.4c1.1-0.5,1.9-0.5,3-0.9
			C51.4,47.3,47.6,48.8,48.5,50.4z M51.9,48.9c-0.2,0.9,0.6,0.9,1.1,1.1c0.9,0.5,1.2,1.6,1.9,2.3c0.5,0.5,1.2,0.7,1.6,1.2
			c0.7,0.9,0.6,2.2,1.7,2.8c1.2-2.2-1.4-4.2-2.7-5.7C54.6,49.7,53.7,47.6,51.9,48.9z M62.8,70.6c-0.9-1.1-2.2-1.6-3.4-2.6
			c-1.1-0.9-1.8-2.2-3-2.8c-0.6-0.4-1.5-0.4-2.2-0.8c-2.2-1.2-4.3-4.8-4.4-7.7c0-0.6,0.2-1,0.1-1.5c-0.1-1.3-0.6-3.2,1.1-3.4
			c1.3-0.1,1.6,1.3,2.2,2.2c0.4,0.7,1.3,1.3,1.7,2c2.6,4,4.5,10.2,9.4,11c-0.1-1.8-1.6-1.8-2.8-3c-2.4-2.4-3.1-6.6-5.2-9.2
			c-0.4-0.5-1.2-0.9-1.7-1.5c-1.1-1.2-1.7-3.2-4.3-2.7c-1.9,0.4-1.9,2.1-1.7,4.1c0.1,1.7-0.1,3.2,0.3,4.6c0.5,2.1,2.3,5,4.2,6.2
			c0.8,0.5,1.8,0.7,2.6,1.1C57.8,67.8,59.3,71.4,62.8,70.6z M51.2,55c-1,2.4,0.3,6.2,2.2,7.4c0.7,0.5,1.7,0.5,2.4,0.9
			c2.5,1.5,4.3,6,8.2,5.4c-0.2-1.3-1.7-1.4-2.6-2c-0.8-0.5-1.4-1.4-2.2-2.3c-0.7-0.8-1.7-1.5-2.2-2.3c-0.5-0.9-0.7-2-1.3-3
			c-1.1-1.8-1.6-3.6-3.4-4.6c-0.2-0.9-0.4-2.1-1.2-2C50.1,52.7,50.6,54.3,51.2,55z M39.4,53.1c-0.4,1.5-0.3,4.5,1.1,5
			C40.5,56.6,41.1,53.3,39.4,53.1z M62.5,53.8c-1,3.1,1.1,5.2,2.4,7c0.4,0.6,0.8,1.6,1.6,1.6c0.7-3.6-2.9-5.1-3.4-8.4
			c0-0.2-0.2-0.2-0.3-0.4C62.7,53.6,62.7,53.8,62.5,53.8z M40.2,59.3c-1.1,0.6-0.3,2-0.1,2.7c0.7,2.6,1.9,5.2,3.6,6.9
			c2.1,2.1,5.2,2,7.4,3.8c-1.9,0.4-3.7-1.2-5.2-1.2c0,2.4,2.7,2.3,5.1,2.6c2.2,0.3,3.5,2.4,5.5,2c-0.1-1.1-1.4-1.4-2-1.9
			c-1.2-1-2-2.8-3.6-3.5c-3.2-1.4-5-1.2-6.9-3.7c-1.5-2-2.1-3.8-3.4-7.3c-0.1-0.1-0.1-0.2-0.1-0.4C40.3,59.3,40.3,59.3,40.2,59.3z
			 M37.9,59.7c-0.7,1.9,0.9,3.7,1.3,5.4c-1.9-0.5-1.9-4.1-3.4-5.6c-0.9,0.2-0.7,1.2-0.7,1.8c0.1,1.5,1.6,4,2.4,4.7
			c0.7,0.6,1.8,1,2.6,1.6c1.5,1.4,2.5,4.4,5,3.7c0.1-1.2-1.1-1.3-1.7-1.9c-2.6-2.2-3.5-6-4.7-9.6c-0.1-0.1-0.4-0.1-0.4-0.3
			C38.2,59.7,38.1,59.8,37.9,59.7z M36.3,66.1c0.2,1.8,1.8,2.3,2.7,3.4c-0.4,0.4-0.8-0.7-1.2-0.3c-0.1,1,0.7,1.1,0.9,1.8
			c3.5,0.6,5.3,3.7,8.7,3.9c-0.4-1.1-1.9-1.9-3.1-2.6c-1.2-0.7-2.7-1.3-3.6-2.3c-0.4-0.5-0.6-1.2-1.1-1.8c-0.8-0.9-2-1.3-2.8-2.2
			C36.6,66.1,36.4,66.1,36.3,66.1z M54.7,72.9c0.1,1.7,4.4,3,4.6,1.5C59.4,73,56,72.8,54.7,72.9z"/>
		<path class="st2" d="M52,25c-0.5,0-1,0-1.5,0c-1.6,1.1,2.2,2.1,2.4,0.7C52.8,25.2,52.3,25.2,52,25z"/>
		<path class="st2" d="M45.8,26.6c0.6,0.6,1.7-0.1,2.4,0.4c-2.7,1.4-7.7,1.2-8.2,4.3c2.3-0.7,4.3-2.3,7.4-2.6
			c1.6-0.1,3.3,0.2,4.8-0.1c0.7-0.1,1.3-0.5,2-0.5c1.7,0,2.9,1.5,4.3,0.7c-0.7-2.9-4.7-1.6-7.5-2C49.3,26.5,46.8,24.5,45.8,26.6z"/>
		<path class="st2" d="M42.3,28.1c1,0.3,2.1-0.3,2.7-0.8C44.7,25.9,42.1,26.8,42.3,28.1z"/>
		<path class="st2" d="M34.6,43.4c1.1-0.9,1.4-2.2,2.2-3.4c0.7-1.1,2-2,2.4-3c0.3-0.8,0.2-1.7,0.5-2.3c1.1-2.1,5.4-3.7,8.6-3.9
			c2.5-0.2,4.4-0.2,6.5-0.7c-0.9,1.6-3.9,1.2-6.3,1.4c-3.5,0.2-7.8,1.6-8.2,4.6c2.6-1.1,5.1-3.1,8.6-3.4c1.5-0.1,3.3,0.2,4.6-0.1
			c0.7-0.2,1.4-0.8,2.2-0.8c3.9-0.1,5.5,4.5,8.9,4.2c0.2-1.7-1.8-2.1-3.1-2.8c-1-0.6-1.9-1.3-2.8-1.9c-1.4-0.9-2.3-2.5-4.7-2.3
			c-0.7,0.1-1.5,0.4-2.3,0.5c-1.2,0.2-2.6,0-3.9,0.1c-3.8,0.3-8.5,2.4-9.6,4.7c-0.3,0.6-0.1,1.4-0.4,2C37,38.1,33.4,40,34.6,43.4z"
			/>
		<path class="st2" d="M58.7,29.7c0.3,1.4,2.3,2.5,3.6,2.4C61.9,30.6,60.6,29.4,58.7,29.7z"/>
		<path class="st2" d="M54.7,32.8c0.8,1.1,2.2,1.2,3.1,1.8c0.9,0.5,1.9,1.3,2.6,2.2c0.4,0.5,0.5,1.3,0.9,1.8c0.9,1,2.4,1.5,3.4,2.6
			c1,1,1.2,2.5,2.7,3c0.5-2.6-2.6-4.5-4.4-5.7c-1.5-2-3.3-5.1-6.3-5.8C55.9,32.4,55.2,32.3,54.7,32.8z"/>
		<path class="st2" d="M32.5,52.8c0,1.1,0,2.2,0,3.2c0.6,1.3,0.3,3.5,1.9,3.8c0.2-1.5-0.4-2.8-0.5-4.2c-0.5-6.4,3.2-13,6.6-16.6
			c3.2-3.3,10.3-6.1,15.7-3.1c1.3,0.7,2,2.4,3.6,2.2c-0.1-1.5-1.7-2.3-2.8-3c-4.2-2.8-10.2-1.7-14.1,0.5
			C37.1,38.9,33.5,45.6,32.5,52.8z"/>
		<path class="st2" d="M68.8,51.2c0-0.4,0-0.7,0-1.1c-1.2-3.8-3.8-8.5-7.4-10.3c-0.8-0.4-1.7-0.5-2.6-0.9c-1.8-0.9-3.1-2.4-5-3
			c-2.8-0.8-5.8-0.7-7.9,0.1c-5.5,2-11.1,10.4-11.2,17.6c0,1.9-0.2,4.5,1.3,5c0.5-0.9,0.2-1.7,0.1-2.6C36,50,38.6,44.9,41.5,41.5
			c2.6-3,7.6-5.8,12.8-3.8c1.6,0.6,2.5,2,4.3,2.8c0.6,0.3,1.4,0.3,2,0.5c3,1.2,5,4.8,6.3,7.8C67.4,50.1,67.9,52.1,68.8,51.2z"/>
		<path class="st2" d="M62.4,36.1c0,1.9,2.2,2.8,3.6,3.4C66.1,37.5,64.3,36.4,62.4,36.1z"/>
		<path class="st2" d="M55.4,41.3c-6.8-2.7-14.9,3.1-15.1,9.6c0,1.5,0.7,3.5,0.8,5.4c0.4,5.6,2,10.5,6.1,12.3
			c1.2,0.5,2.6,0.7,3.8,1.2c1.1,0.5,2,1.5,3.1,1.9c1.2,0.4,2.6,0.2,4,0.5c1,0.2,1.8,1.3,3,0.7c-0.4-2.4-3.4-1.8-5.1-2.3
			c-2.2-0.6-4.4-2.1-5.9-3.4c-2.1-1.8-4.2-5.2-4.8-8.4c-0.2-1.1,0.2-2.6-0.8-3.5c-1.5,0.2-0.8,2.1-0.7,3c0.6,3.3,2,6.6,3.8,8.5
			c-3.9-1.4-4.5-6.5-4.8-11.4c-0.1-1.6-0.7-3.1-0.5-4.7c0.5-5.3,6.2-10.2,12.5-7.8c1.9,0.7,3.5,2.5,5,3.9c0.9,0.9,1.8,1.4,2.4,2.3
			c1.1,1.6,1.7,3.8,2.6,5.7c0.4,0.9,0.9,2,1.3,2.8c0.4,0.7,0.8,1.9,1.9,1.9c0.6-1.9-1.1-3.8-2-5.7c-0.9-1.9-1.5-4-2.6-5.7
			c-1-1.6-2.6-2.9-3.9-4.3c-2.3-2.6-3-5-6.9-5.8c-0.8-0.2-3.3-0.5-3.4,0.5c-0.1,1.1,1.7,0.8,2.8,0.9C53.3,39.8,54.8,40.3,55.4,41.3z
			"/>
		<path class="st2" d="M48.6,38.9c-0.3,0-0.1-0.4-0.4-0.4c-2.3,0.1-5.3,2.2-6.6,3.9c-2.5,3.2-5,7.7-4.6,13.3c0,0.4,0.3,3.1,1.2,3
			c1-0.2-0.1-3.7,0.1-5.1c0.1-0.6,0.5-1.1,0.7-1.8c0.6-2.2,1-4.1,2.2-6c1-1.5,2.3-3.2,3.8-4.3C46.3,40.5,47.9,40.7,48.6,38.9z"/>
		<path class="st2" d="M59.1,41.3c-0.6,1.5,0.9,2,1.6,2.6c2.2,1.8,3.5,4.1,4.7,7.2c0.6,1.7,1.3,3.6,2.7,4.5c0.4-1.9-0.8-3.7-1.5-5.4
			c-0.7-1.7-1.2-3.6-2.2-4.9c-1.2-1.5-3.5-3-5.1-3.9C59.3,41.3,59.2,41.3,59.1,41.3z"/>
		<path class="st2" d="M44.3,54.9c0.3-2.2,0-4.3,0.9-6.1c2.1-4,7.2-4.5,10.9-1.6c1.4,1.1,3,2.5,3.6,4.1c-2.9-1.1-4.2-4.6-7.9-5.1
			c-3.8-0.5-5.9,2.1-6.2,4.9c-0.3,2.8,0.1,6.4,0.8,8.9c1,3.5,3.4,6.5,6.1,8.3c0.8,0.5,1.7,0.7,2.6,1.1c0.8,0.4,1.5,1.4,2.4,0.9
			c-0.7-2.5-3.2-2.6-5-3.9c-2.7-2.2-4.3-5.3-4.8-10.2c-0.3-2.5-1.2-5,0.3-7.2c1.2-1.8,4.1-1.9,6.1-0.8c0.9,0.5,1.8,2,2.7,3
			c0.6,0.6,1.7,1.3,2,1.8c0.7,1.2,0.3,2.5,0.5,4.2c0.3,1.7,1.7,4.2,2.8,5.5c0.7,0.8,2,2.1,3.4,1.9c-0.1-1.8-1.6-2.6-2.4-3.8
			c-1-1.4-2-3.4-1.7-6.1c0.2-2.1,0.7-3.7-0.3-5.1c-0.9-1.4-2.6-2.6-4-3.7c-1.7-1.4-3.9-2.6-7-2.3c-3.5,0.4-6.8,4.1-7,8.4
			C42.9,52.8,42.7,54.7,44.3,54.9z"/>
		<path class="st2" d="M48.5,50.4c1.1-0.5,1.9-0.5,3-0.9C51.4,47.3,47.6,48.8,48.5,50.4z"/>
		<path class="st2" d="M51.9,48.9c-0.2,0.9,0.6,0.9,1.1,1.1c0.9,0.5,1.2,1.6,1.9,2.3c0.5,0.5,1.2,0.7,1.6,1.2
			c0.7,0.9,0.6,2.2,1.7,2.8c1.2-2.2-1.4-4.2-2.7-5.7C54.6,49.7,53.7,47.6,51.9,48.9z"/>
		<path class="st2" d="M62.8,70.6c-0.9-1.1-2.2-1.6-3.4-2.6c-1.1-0.9-1.8-2.2-3-2.8c-0.6-0.4-1.5-0.4-2.2-0.8
			c-2.2-1.2-4.3-4.8-4.4-7.7c0-0.6,0.2-1,0.1-1.5c-0.1-1.3-0.6-3.2,1.1-3.4c1.3-0.1,1.6,1.3,2.2,2.2c0.4,0.7,1.3,1.3,1.7,2
			c2.6,4,4.5,10.2,9.4,11c-0.1-1.8-1.6-1.8-2.8-3c-2.4-2.4-3.1-6.6-5.2-9.2c-0.4-0.5-1.2-0.9-1.7-1.5c-1.1-1.2-1.7-3.2-4.3-2.7
			c-1.9,0.4-1.9,2.1-1.7,4.1c0.1,1.7-0.1,3.2,0.3,4.6c0.5,2.1,2.3,5,4.2,6.2c0.8,0.5,1.8,0.7,2.6,1.1C57.8,67.8,59.3,71.4,62.8,70.6
			z"/>
		<path class="st2" d="M51.2,52.6c0.8-0.1,1,1.1,1.2,2c1.8,1,2.3,2.8,3.4,4.6c0.6,1,0.8,2.1,1.3,3c0.4,0.8,1.4,1.5,2.2,2.3
			c0.8,0.9,1.4,1.8,2.2,2.3c0.8,0.6,2.3,0.7,2.6,2c-3.9,0.5-5.7-4-8.2-5.4c-0.7-0.4-1.7-0.4-2.4-0.9c-1.8-1.3-3.1-5-2.2-7.4
			C50.6,54.3,50.1,52.7,51.2,52.6z M52.8,56.5c-0.2,0-0.2,0.1-0.4,0.1c-0.1,1.9,0.8,4.5,2.8,4.9C54.5,59.8,53.5,58.3,52.8,56.5z"/>
		<path class="st2" d="M39.4,53.1c-0.4,1.5-0.3,4.5,1.1,5C40.5,56.6,41.1,53.3,39.4,53.1z"/>
		<path class="st2" d="M62.5,53.8c-1,3.1,1.1,5.2,2.4,7c0.4,0.6,0.8,1.6,1.6,1.6c0.7-3.6-2.9-5.1-3.4-8.4c0-0.2-0.2-0.2-0.3-0.4
			C62.7,53.6,62.7,53.8,62.5,53.8z"/>
		<path class="st2" d="M52.8,56.5c-0.2,0-0.2,0.1-0.4,0.1c-0.1,1.9,0.8,4.5,2.8,4.9C54.5,59.8,53.5,58.3,52.8,56.5z"/>
		<path class="st2" d="M40.2,59.3c-1.1,0.6-0.3,2-0.1,2.7c0.7,2.6,1.9,5.2,3.6,6.9c2.1,2.1,5.2,2,7.4,3.8c-1.9,0.4-3.7-1.2-5.2-1.2
			c0,2.4,2.7,2.3,5.1,2.6c2.2,0.3,3.5,2.4,5.5,2c-0.1-1.1-1.4-1.4-2-1.9c-1.2-1-2-2.8-3.6-3.5c-3.2-1.4-5-1.2-6.9-3.7
			c-1.5-2-2.1-3.8-3.4-7.3c-0.1-0.1-0.1-0.2-0.1-0.4C40.3,59.3,40.3,59.3,40.2,59.3z"/>
		<path class="st2" d="M37.9,59.7c-0.7,1.9,0.9,3.7,1.3,5.4c-1.9-0.5-1.9-4.1-3.4-5.6c-0.9,0.2-0.7,1.2-0.7,1.8
			c0.1,1.5,1.6,4,2.4,4.7c0.7,0.6,1.8,1,2.6,1.6c1.5,1.4,2.5,4.4,5,3.7c0.1-1.2-1.1-1.3-1.7-1.9c-2.6-2.2-3.5-6-4.7-9.6
			c-0.1-0.1-0.4-0.1-0.4-0.3C38.2,59.7,38.1,59.8,37.9,59.7z"/>
		<path class="st2" d="M36.3,66.1c0.2,1.8,1.8,2.3,2.7,3.4c-0.4,0.4-0.8-0.7-1.2-0.3c-0.1,1,0.7,1.1,0.9,1.8
			c3.5,0.6,5.3,3.7,8.7,3.9c-0.4-1.1-1.9-1.9-3.1-2.6c-1.2-0.7-2.7-1.3-3.6-2.3c-0.4-0.5-0.6-1.2-1.1-1.8c-0.8-0.9-2-1.3-2.8-2.2
			C36.6,66.1,36.4,66.1,36.3,66.1z"/>
		<path class="st2" d="M54.7,72.9c0.1,1.7,4.4,3,4.6,1.5C59.4,73,56,72.8,54.7,72.9z"/>
		<path class="st2" d="M51.3,76.4c0.5,0,1,0,1.5,0c1.3-1.3-2.7-2.2-3.6-1.4C49.5,75.9,50.5,76,51.3,76.4z"/>
	</g>
</g>
</svg>
