<?xml version="1.0" encoding="utf-8"?>
<!-- Generator: Adobe Illustrator 17.1.0, SVG Export Plug-In . SVG Version: 6.00 Build 0)  -->
<!DOCTYPE svg PUBLIC "-//W3C//DTD SVG 1.1//EN" "http://www.w3.org/Graphics/SVG/1.1/DTD/svg11.dtd">
<svg version="1.1" id="Layer_1" xmlns="http://www.w3.org/2000/svg" xmlns:xlink="http://www.w3.org/1999/xlink" x="0px" y="0px"
	 width="84.3px" height="110.6px" viewBox="0 0 84.3 110.6" style="enable-background:new 0 0 84.3 110.6;" xml:space="preserve">
<style type="text/css">
	.st0{fill:#21409A;}
</style>
<g>
	<rect x="73.8" y="0.3" class="st0" width="6.5" height="77.7"/>
	<g>
		<rect x="81.8" y="0.3" class="st0" width="1.1" height="77.7"/>
	</g>
	<circle class="st0" cx="62.2" cy="35.7" r="6.4"/>
	<g>
		<path class="st0" d="M2.8,97.6V85H1.1v-0.5h6.3V85H5.6v5.7h4.8V85H8.7v-0.5h6.3V85h-1.7v12.6H15v0.5H8.6v-0.5h1.7v-6.2H5.6v6.2
			h1.8v0.5H1.1v-0.5H2.8z"/>
		<path class="st0" d="M25.2,94.5h-4.3l-0.8,2.3c-0.1,0.2-0.1,0.4-0.1,0.5c0,0.2,0.2,0.3,0.7,0.3h1.1v0.5h-4.3v-0.5h0.7
			c0.4,0,0.7-0.1,0.9-0.3c0.1-0.1,0.2-0.4,0.4-0.9l4.4-11.9h0.6l4.7,13.1h1.5v0.5h-6.1v-0.5h1.8L25.2,94.5z M25,94L23,88.6L21.1,94
			H25z"/>
		<path class="st0" d="M34.8,97.6V85h-1.6v-0.5h6c1.4,0,2.4,0.1,2.9,0.2c1,0.2,1.6,0.7,2.1,1.3c0.3,0.5,0.4,1,0.4,1.6
			c0,1.2-0.5,2.1-1.6,2.7c-0.5,0.3-1.3,0.4-2.4,0.5c0.7,0.1,1.4,0.4,2.1,0.8c0.7,0.5,1.2,1,1.4,1.7c0.2,0.5,0.2,1.4,0.2,2.6
			c0,1,0.3,1.5,0.9,1.5c0.3,0,0.7-0.1,1.1-0.3v0.6c-1,0.3-1.8,0.5-2.3,0.5c-1.1,0-1.9-0.5-2.4-1.4c-0.2-0.4-0.3-0.9-0.4-1.4
			c0-0.2-0.1-0.6-0.1-1.2c-0.1-1.5-0.3-2.4-0.8-2.7c-0.3-0.2-0.6-0.3-0.9-0.4c-0.3,0-0.5-0.1-0.6-0.1h-1.1v6.5h1.9v0.5h-6.4v-0.5
			H34.8z M37.7,90.6h1.5c0.7,0,1.2-0.1,1.5-0.2c0.5-0.2,0.8-0.6,0.9-1.2c0.1-0.4,0.1-0.9,0.1-1.6c0-1-0.2-1.7-0.6-2.1
			c-0.2-0.2-0.5-0.3-0.8-0.4c-0.2,0-0.6-0.1-1.1-0.1h-1.5V90.6z"/>
		<path class="st0" d="M51,97.6V85h-1.6v-0.5h6c1.4,0,2.4,0.1,2.9,0.2c1,0.2,1.6,0.7,2.1,1.3c0.3,0.5,0.4,1,0.4,1.6
			c0,1.2-0.5,2.1-1.6,2.7c-0.5,0.3-1.3,0.4-2.4,0.5c0.7,0.1,1.4,0.4,2.1,0.8c0.7,0.5,1.2,1,1.4,1.7c0.2,0.5,0.2,1.4,0.2,2.6
			c0,1,0.3,1.5,0.9,1.5c0.3,0,0.7-0.1,1.1-0.3v0.6c-1,0.3-1.8,0.5-2.3,0.5c-1.1,0-1.9-0.5-2.4-1.4c-0.2-0.4-0.3-0.9-0.4-1.4
			c0-0.2-0.1-0.6-0.1-1.2c-0.1-1.5-0.3-2.4-0.8-2.7c-0.3-0.2-0.6-0.3-0.9-0.4c-0.3,0-0.5-0.1-0.6-0.1h-1.1v6.5h1.9v0.5h-6.4v-0.5H51
			z M53.8,90.6h1.5c0.7,0,1.2-0.1,1.5-0.2c0.5-0.2,0.8-0.6,0.9-1.2c0.1-0.4,0.1-0.9,0.1-1.6c0-1-0.2-1.7-0.6-2.1
			c-0.2-0.2-0.5-0.3-0.8-0.4c-0.2,0-0.6-0.1-1.1-0.1h-1.5V90.6z"/>
		<path class="st0" d="M67.1,97.6V85h-1.6v-0.5h6.1V85H70v12.6h1.6v0.5h-6.1v-0.5H67.1z"/>
		<path class="st0" d="M83.2,84.4v3.7h-0.6c-0.1-0.9-0.4-1.6-0.9-2.1c-0.6-0.8-1.4-1.2-2.5-1.2c-0.6,0-1.2,0.2-1.6,0.5
			c-0.6,0.4-0.9,1-0.9,1.8c0,0.7,0.3,1.3,0.9,1.6c0.3,0.2,0.7,0.4,1.2,0.5l1.1,0.3c1.6,0.5,2.7,0.9,3.2,1.4c0.7,0.7,1.1,1.7,1.1,2.9
			c0,1.4-0.5,2.5-1.4,3.3c-0.8,0.8-1.9,1.2-3.1,1.2c-1.1,0-2.3-0.4-3.4-1.2l-0.7,0.9h-0.5v-3.8h0.6c0.2,0.9,0.6,1.6,1.1,2.2
			c0.8,0.8,1.7,1.2,2.8,1.2c0.8,0,1.5-0.2,2-0.7c0.6-0.5,0.9-1.1,0.9-1.9c0-0.8-0.3-1.4-0.9-1.8c-0.2-0.2-0.6-0.3-1-0.5
			c-0.1,0-0.5-0.2-1.4-0.4c-1.5-0.4-2.4-0.8-2.8-1.1c-0.9-0.6-1.3-1.6-1.3-2.9c0-1.3,0.4-2.3,1.2-3.1c0.4-0.4,0.8-0.6,1.4-0.8
			c0.5-0.2,1-0.3,1.5-0.3c0.9,0,1.8,0.3,2.8,0.9l0.6-0.7H83.2z"/>
	</g>
	<g>
		<path class="st0" d="M4.9,104.3v1.8H4.6c-0.1-0.4-0.2-0.8-0.4-1c-0.3-0.4-0.7-0.6-1.2-0.6c-0.3,0-0.6,0.1-0.8,0.2
			c-0.3,0.2-0.4,0.5-0.4,0.9c0,0.4,0.1,0.6,0.5,0.8c0.2,0.1,0.4,0.2,0.6,0.2l0.5,0.2c0.8,0.2,1.3,0.5,1.5,0.7
			c0.4,0.3,0.5,0.8,0.5,1.4c0,0.7-0.2,1.2-0.7,1.6c-0.4,0.4-0.9,0.6-1.5,0.6c-0.5,0-1.1-0.2-1.6-0.6l-0.3,0.4H1.1v-1.8h0.3
			c0.1,0.4,0.3,0.8,0.5,1c0.4,0.4,0.8,0.6,1.4,0.6c0.4,0,0.7-0.1,1-0.3c0.3-0.2,0.4-0.5,0.4-0.9c0-0.4-0.1-0.6-0.4-0.9
			c-0.1-0.1-0.3-0.2-0.5-0.2c0,0-0.3-0.1-0.7-0.2c-0.7-0.2-1.2-0.4-1.4-0.5c-0.4-0.3-0.6-0.8-0.6-1.4c0-0.6,0.2-1.1,0.6-1.5
			c0.2-0.2,0.4-0.3,0.7-0.4c0.2-0.1,0.5-0.1,0.7-0.1c0.4,0,0.9,0.1,1.3,0.4l0.3-0.3H4.9z"/>
		<path class="st0" d="M15.3,110.6v-6h-0.3c-1.1-0.1-1.6,0.5-1.7,1.8H13l0.1-2h5.7l0.2,2h-0.3c-0.1-0.3-0.1-0.6-0.2-0.8
			c-0.1-0.4-0.4-0.7-0.7-0.8c-0.2-0.1-0.5-0.1-0.9-0.1h-0.3v6h0.9v0.2h-3.1v-0.2H15.3z"/>
		<path class="st0" d="M27.4,104.6h-0.8v-0.2h3v0.2h-0.9v4.2c0,0.4,0,0.7,0,0.9c0.1,0.3,0.2,0.6,0.5,0.8c0.2,0.2,0.5,0.2,0.9,0.2
			c0.6,0,1.1-0.2,1.3-0.6c0.1-0.2,0.2-0.3,0.2-0.5c0-0.2,0-0.4,0-0.8v-3.5c0-0.3,0-0.5-0.1-0.6c-0.1-0.1-0.2-0.1-0.4-0.1H31v-0.2
			h1.8v0.2h-0.2c-0.2,0-0.4,0-0.4,0.1c-0.1,0.1-0.1,0.3-0.1,0.6v3.5c0,0.5,0,0.8-0.1,1c-0.1,0.4-0.4,0.7-0.8,0.9
			c-0.4,0.2-0.8,0.3-1.3,0.3c-0.5,0-0.9-0.1-1.4-0.2c-0.5-0.2-0.8-0.5-0.9-0.8c-0.1-0.2-0.1-0.6-0.1-1.2V104.6z"/>
		<path class="st0" d="M41.2,110.6v-6.1h-0.8v-0.2h3c0.7,0,1.1,0.1,1.5,0.2c0.4,0.1,0.7,0.4,1,0.7c0.5,0.6,0.8,1.4,0.8,2.5
			c0,0.7-0.1,1.3-0.4,1.9c-0.3,0.6-0.8,1-1.4,1.2c-0.2,0.1-0.5,0.1-0.8,0.1c-0.2,0-0.4,0-0.6,0h-3v-0.2H41.2z M42.6,110.6h0.9
			c0.4,0,0.6,0,0.8-0.1c0.4-0.1,0.6-0.5,0.8-0.9c0.1-0.4,0.2-1.1,0.2-2.1c0-1.1-0.1-1.9-0.4-2.3c-0.1-0.2-0.4-0.4-0.7-0.5
			c-0.2,0-0.4-0.1-0.7-0.1h-0.9V110.6z"/>
		<path class="st0" d="M55.4,110.6v-6.1h-0.8v-0.2h2.9v0.2h-0.8v6.1h0.8v0.2h-2.9v-0.2H55.4z"/>
		<path class="st0" d="M68.9,104.2c0.7,0,1.3,0.2,1.8,0.6c0.4,0.3,0.7,0.7,1,1.3c0.2,0.5,0.3,1,0.3,1.5c0,0.9-0.2,1.7-0.7,2.3
			c-0.6,0.8-1.5,1.2-2.5,1.2c-0.8,0-1.5-0.2-2-0.7c-0.8-0.7-1.1-1.6-1.1-2.6c0-0.8,0.2-1.5,0.7-2.1
			C66.9,104.6,67.8,104.2,68.9,104.2z M68.8,104.5c-0.6,0-1,0.2-1.2,0.7c-0.3,0.5-0.4,1.3-0.4,2.5c0,1.2,0.1,2,0.3,2.4
			c0.3,0.5,0.7,0.7,1.3,0.7c0.6,0,1-0.2,1.2-0.6c0.3-0.5,0.4-1.4,0.4-2.6c0-1.2-0.1-2-0.3-2.4c-0.2-0.3-0.4-0.4-0.6-0.5
			C69.2,104.5,69,104.5,68.8,104.5z"/>
		<path class="st0" d="M83.9,104.3v1.8h-0.3c-0.1-0.4-0.2-0.8-0.4-1c-0.3-0.4-0.7-0.6-1.2-0.6c-0.3,0-0.6,0.1-0.8,0.2
			c-0.3,0.2-0.4,0.5-0.4,0.9c0,0.4,0.1,0.6,0.5,0.8c0.2,0.1,0.4,0.2,0.6,0.2l0.5,0.2c0.8,0.2,1.3,0.5,1.5,0.7
			c0.4,0.3,0.5,0.8,0.5,1.4c0,0.7-0.2,1.2-0.7,1.6c-0.4,0.4-0.9,0.6-1.5,0.6c-0.5,0-1.1-0.2-1.6-0.6l-0.3,0.4H80v-1.8h0.3
			c0.1,0.4,0.3,0.8,0.5,1c0.4,0.4,0.8,0.6,1.4,0.6c0.4,0,0.7-0.1,1-0.3c0.3-0.2,0.4-0.5,0.4-0.9c0-0.4-0.1-0.6-0.4-0.9
			c-0.1-0.1-0.3-0.2-0.5-0.2c0,0-0.3-0.1-0.7-0.2c-0.7-0.2-1.2-0.4-1.4-0.5c-0.4-0.3-0.6-0.8-0.6-1.4c0-0.6,0.2-1.1,0.6-1.5
			c0.2-0.2,0.4-0.3,0.7-0.4c0.2-0.1,0.5-0.1,0.7-0.1c0.4,0,0.9,0.1,1.3,0.4l0.3-0.3H83.9z"/>
	</g>
	<path class="st0" d="M48.1,16.5C45.3,9.6,41.1,4.8,35.5,2.3C32.3,0.8,28.4,0,24,0C18.1,0,12.9,1.3,8.5,4c-4.9,2.9-7.3,7-8.4,12
		c-0.5,2.5-0.3,10.6,8,11.1c4.5,0.3,8.1-3.6,8.1-8.1c0-4.5-3.6-8.1-8.1-8.1c-0.2,0-0.3,0-0.5,0c1.8-3.1,5.9-7.4,14.1-7.1
		c17.9,0.8,20.1,18.6,20.1,25.5c0,12.1-4.5,24.3-11.7,32.3c-6,6.6-14.7,12.1-25.8,16.2c7.8-0.5,15.2-2.6,21.9-6.5
		c7-4.1,12.9-10,17.5-17.8c4.6-7.7,7-15.7,7-23.8C50.7,25,49.8,20.6,48.1,16.5z"/>
</g>
</svg>
