<?xml version="1.0" encoding="utf-8"?>
<!-- Generator: Adobe Illustrator 17.1.0, SVG Export Plug-In . SVG Version: 6.00 Build 0)  -->
<!DOCTYPE svg PUBLIC "-//W3C//DTD SVG 1.1//EN" "http://www.w3.org/Graphics/SVG/1.1/DTD/svg11.dtd">
<svg version="1.1" id="Layer_1" xmlns="http://www.w3.org/2000/svg" xmlns:xlink="http://www.w3.org/1999/xlink" x="0px" y="0px"
	 width="100px" height="100px" viewBox="0 0 100 100" style="enable-background:new 0 0 100 100;" xml:space="preserve">
<style type="text/css">
	.st0{fill:none;stroke:#DCDBC7;stroke-miterlimit:10;}
	.st1{fill:#DCDBC7;}
</style>
<g>
	<path class="st0" d="M35.8,42.5h2.8l-1.9,5.1c-0.3,0.8-0.6,1.7-0.9,2.7c-0.3,1-0.6,1.9-0.8,2.8c-0.2,0.9-0.4,1.7-0.5,2.4
		c-0.1,0.7-0.2,1.3-0.2,1.6c0,0.6,0.2,1,0.6,1c0.3,0,0.8-0.3,1.3-1c0.6-0.6,1.2-1.5,2-2.5l0.9,0.7C38,57,37,58.2,36,59.1
		c-1.1,0.9-2.1,1.3-3.1,1.3c-0.5,0-0.9-0.2-1.2-0.6c-0.3-0.4-0.4-1-0.4-1.9c0-0.2,0-0.4,0-0.7c0-0.3,0-0.6,0.1-1.1l-0.1,0
		c-0.3,0.6-0.7,1.2-1.2,1.7c-0.5,0.5-0.9,1-1.5,1.4c-0.5,0.4-1.1,0.7-1.7,0.9c-0.6,0.2-1.1,0.3-1.7,0.3c-1.1,0-2-0.4-2.6-1.3
		c-0.6-0.9-0.9-2-0.9-3.5c0-1.5,0.3-3.1,1-4.7c0.6-1.6,1.5-3,2.5-4.3c1-1.3,2.2-2.4,3.4-3.2c1.2-0.8,2.5-1.2,3.7-1.2
		c0.7,0,1.3,0.2,1.8,0.5c0.5,0.3,0.8,0.9,1.1,1.7L35.8,42.5z M32.3,43.9c-0.8,0-1.7,0.4-2.6,1.2c-0.9,0.8-1.7,1.7-2.4,2.9
		c-0.7,1.2-1.3,2.4-1.8,3.8c-0.5,1.3-0.7,2.6-0.7,3.7c0,0.8,0.2,1.4,0.5,1.9c0.3,0.5,0.8,0.7,1.4,0.7c0.5,0,1-0.2,1.6-0.6
		c0.6-0.4,1.1-1,1.6-1.6c0.5-0.7,1-1.4,1.5-2.3c0.5-0.9,0.9-1.8,1.2-2.7c0.4-0.9,0.6-1.8,0.8-2.7c0.2-0.9,0.3-1.7,0.3-2.4
		c0-0.6-0.1-1-0.4-1.4C33.1,44.1,32.7,43.9,32.3,43.9z"/>
	<path class="st0" d="M47.3,45.4L47.3,45.4c0.7-1,1.5-1.7,2.5-2.3c1-0.6,2-0.8,3.1-0.8c1.4,0,2.4,0.4,3.1,1.3c0.7,0.8,1.1,2,1.1,3.5
		c0,1-0.2,2.1-0.5,3.2c-0.3,1.1-0.7,2.1-1.3,3.1c-0.5,1-1.2,1.9-1.9,2.8c-0.7,0.9-1.5,1.6-2.3,2.3c-0.8,0.7-1.7,1.2-2.6,1.5
		c-0.9,0.4-1.8,0.6-2.7,0.6c-1.3,0-2.3-0.4-3.1-1.1c-0.8-0.8-1.2-1.8-1.2-3c0-0.6,0.1-1.4,0.4-2.4c0.2-1.1,0.6-2.3,1.1-3.8l4-13
		c0.1-0.4,0.2-0.8,0.3-1.2c0.1-0.4,0.2-0.7,0.2-0.9c0-0.8-0.9-1.2-2.6-1.2l0.3-1l6.4-0.3L47.3,45.4z M46.3,58.8
		c0.5,0,1.1-0.2,1.6-0.5c0.6-0.4,1.1-0.9,1.7-1.5c0.6-0.6,1.1-1.3,1.6-2.2s1-1.7,1.3-2.6c0.4-0.9,0.7-1.8,0.9-2.7
		c0.2-0.9,0.3-1.8,0.3-2.6c0-0.8-0.2-1.4-0.5-1.9C52.9,44.2,52.5,44,52,44c-0.5,0-1,0.2-1.6,0.5c-0.6,0.4-1.1,0.9-1.7,1.5
		c-0.5,0.6-1.1,1.4-1.6,2.2c-0.5,0.8-0.9,1.7-1.3,2.6c-0.4,0.9-0.7,1.8-0.9,2.7c-0.2,0.9-0.3,1.8-0.3,2.6
		C44.6,57.9,45.2,58.8,46.3,58.8z"/>
	<path class="st0" d="M71.4,54.8c-0.9,1.8-2,3.2-3.2,4.2c-1.2,1-2.5,1.5-3.9,1.5c-1.4,0-2.6-0.5-3.5-1.5c-0.9-1-1.3-2.3-1.3-3.9
		c0-1,0.1-2,0.4-3c0.3-1,0.7-2,1.2-3c0.5-1,1.1-1.9,1.7-2.7c0.7-0.8,1.4-1.6,2.1-2.2c0.8-0.6,1.5-1.1,2.3-1.5
		c0.8-0.4,1.6-0.5,2.4-0.5c1.1,0,1.9,0.3,2.6,0.9c0.7,0.6,1,1.3,1,2.2c0,0.6-0.2,1-0.5,1.3c-0.3,0.3-0.7,0.5-1.2,0.5
		c-0.5,0-0.9-0.2-1.2-0.5c-0.3-0.3-0.5-0.7-0.5-1.2c0-0.3,0-0.5,0.1-0.7c0.1-0.2,0.1-0.3,0.1-0.5c0-0.3-0.3-0.5-0.8-0.5
		c-0.7,0-1.5,0.3-2.2,1c-0.8,0.7-1.4,1.6-2,2.7c-0.6,1.1-1.1,2.3-1.5,3.6c-0.4,1.3-0.6,2.7-0.6,4c0,1.1,0.2,1.9,0.6,2.5
		c0.4,0.6,1,0.9,1.7,0.9c0.4,0,0.8-0.1,1.2-0.3c0.4-0.2,0.9-0.5,1.3-0.9c0.4-0.4,0.9-0.8,1.3-1.4c0.4-0.5,0.8-1.1,1.1-1.8L71.4,54.8
		z"/>
	<path class="st0" d="M76.3,60.5c-0.6,0-1.2-0.2-1.6-0.6c-0.5-0.4-0.7-1-0.7-1.6s0.2-1.2,0.7-1.7c0.4-0.5,1-0.7,1.6-0.7
		c0.7,0,1.3,0.2,1.7,0.7c0.4,0.5,0.7,1,0.7,1.7c0,0.6-0.2,1.2-0.7,1.6C77.5,60.3,77,60.5,76.3,60.5z"/>
</g>
<g id="bg_copy">
	<g>
		<circle class="st0" cx="50" cy="50.4" r="36.3"/>
	</g>
</g>
<g>
	<path class="st1" d="M51,100l-7.6-0.5l-5.6-9.4l-8.6-3.8l-10.7,2.2L13,83.3l1.7-10.8l-4.2-8.4l-9.6-5.2l-0.8-7.6l8.2-7.2l2.2-9.2
		l-4-10.1l4.2-6.3l10.9-0.2l7.6-5.6l3.4-10.4l7.3-2.2l8.5,6.9l9.4,0.6l9.3-5.7l7,3L76,15.7l6.8,6.5l10.8,1.6l3.4,6.8l-5.3,9.6l1,9.4
		l7.2,8.1l-1.8,7.4L88,69l-5.2,7.9l0.3,10.9L77,92.3l-10.3-3.6l-9,2.7L51,100z M44.2,98.1l6.1,0.4l6.6-8.4l9.9-2.9l10,3.5l4.9-3.7
		l-0.3-10.6l5.7-8.6L97,64l1.4-6l-7.1-7.9l-1.1-10.3l5.1-9.3L92.7,25l-10.5-1.5l-7.4-7.1l-2-10.4l-5.6-2.5l-9,5.6L47.8,8.4l-8.3-6.7
		l-5.9,1.7l-3.3,10.1L22,19.7l-10.6,0.2L8,25l3.9,9.9l-2.4,10l-8,7L2.2,58l9.3,5l4.6,9.2l-1.7,10.5l4.4,4.2l10.4-2.2l9.4,4.1
		L44.2,98.1z M50,84.3c-18.8,0-34.1-15.3-34.1-34.2S31.2,15.9,50,15.9c18.8,0,34.1,15.3,34.1,34.2S68.8,84.3,50,84.3z M50,17.3
		c-18,0-32.7,14.7-32.7,32.8C17.3,68.2,32,82.9,50,82.9c18,0,32.7-14.7,32.7-32.8C82.7,32,68,17.3,50,17.3z"/>
</g>
</svg>
