<?xml version="1.0" encoding="utf-8"?>
<!-- Generator: Adobe Illustrator 17.1.0, SVG Export Plug-In . SVG Version: 6.00 Build 0)  -->
<!DOCTYPE svg PUBLIC "-//W3C//DTD SVG 1.1//EN" "http://www.w3.org/Graphics/SVG/1.1/DTD/svg11.dtd">
<svg version="1.1" id="Layer_1" xmlns="http://www.w3.org/2000/svg" xmlns:xlink="http://www.w3.org/1999/xlink" x="0px" y="0px"
	 width="100px" height="100px" viewBox="0 0 100 100" style="enable-background:new 0 0 100 100;" xml:space="preserve">
<style type="text/css">
	.st0{fill-rule:evenodd;clip-rule:evenodd;fill:none;}
	.st1{fill:#DCDBC7;}
</style>
<g id="Shape_6_4_">
	<g>
		<polygon class="st0" points="57.4,33.4 37.2,38.9 44.1,65 64.4,59.5 		"/>
	</g>
	<g>
		<g>
			<path class="st1" d="M43.8,65.5l-7.2-26.9l21.1-5.7l7.2,26.9L43.8,65.5z M37.7,39.2l6.7,25.2l19.4-5.2L57.1,34L37.7,39.2z"/>
		</g>
	</g>
</g>
<g id="Shape_6_copy_4_">
	<g>
		<polygon class="st0" points="35.7,39.8 29.7,49.3 36.7,75.4 42.6,65.9 		"/>
	</g>
	<g>
		<g>
			<path class="st1" d="M36.5,76.5l-7.2-27.2l6.6-10.5l7.2,27.2L36.5,76.5z M30.2,49.4l6.6,24.9l5.3-8.5l-6.6-24.9L30.2,49.4z"/>
		</g>
	</g>
</g>
<g id="Shape_6_copy_2_4_">
	<g>
		<polygon class="st0" points="64.9,23.6 59,33.1 65.9,59.2 71.8,49.7 		"/>
	</g>
	<g>
		<g>
			<path class="st1" d="M65.7,60.3l-7.2-27.2l6.6-10.5l7.2,27.2L65.7,60.3z M59.4,33.2l6.6,24.9l5.3-8.5l-6.6-24.9L59.4,33.2z"/>
		</g>
	</g>
</g>
<g>
	<path class="st1" d="M46.5,47.8l0.8-0.2l-0.1,1.6c0,0.3,0,0.5,0,0.8c0,0.3,0,0.6,0,0.8c0,0.3,0,0.5,0,0.7c0,0.2,0,0.4,0.1,0.5
		c0,0.2,0.1,0.3,0.2,0.2c0.1,0,0.2-0.1,0.3-0.4c0.1-0.2,0.2-0.5,0.4-0.9l0.3,0.1c-0.1,0.5-0.3,1-0.5,1.3c-0.2,0.3-0.5,0.5-0.8,0.6
		c-0.1,0-0.3,0-0.4-0.1c-0.1-0.1-0.2-0.3-0.3-0.5c0-0.1,0-0.1,0-0.2c0-0.1,0-0.2-0.1-0.3l0,0c0,0.2-0.1,0.4-0.2,0.6
		c-0.1,0.2-0.2,0.3-0.3,0.5c-0.1,0.2-0.2,0.3-0.4,0.4c-0.1,0.1-0.3,0.2-0.4,0.2c-0.3,0.1-0.6,0-0.8-0.2c-0.2-0.2-0.4-0.5-0.5-0.9
		c-0.1-0.4-0.2-0.9-0.1-1.4c0.1-0.5,0.2-1,0.4-1.4c0.2-0.4,0.4-0.8,0.7-1.2c0.3-0.3,0.6-0.5,0.9-0.6c0.2-0.1,0.4-0.1,0.5,0
		c0.2,0.1,0.3,0.2,0.4,0.4L46.5,47.8z M45.7,48.4c-0.2,0.1-0.4,0.2-0.6,0.5c-0.2,0.3-0.3,0.6-0.5,1c-0.1,0.4-0.2,0.8-0.2,1.2
		c0,0.4,0,0.8,0.1,1.1c0.1,0.2,0.2,0.4,0.3,0.5c0.1,0.1,0.3,0.1,0.4,0.1c0.1,0,0.3-0.1,0.4-0.3c0.1-0.2,0.2-0.4,0.3-0.6
		c0.1-0.2,0.2-0.5,0.2-0.8c0.1-0.3,0.1-0.6,0.1-0.8c0-0.3,0-0.6,0-0.8c0-0.3,0-0.5-0.1-0.7c0-0.2-0.1-0.3-0.2-0.4
		C45.9,48.4,45.8,48.4,45.7,48.4z"/>
	<path class="st1" d="M50,47.7L50,47.7c0.1-0.3,0.3-0.6,0.5-0.8c0.2-0.2,0.5-0.4,0.8-0.5c0.4-0.1,0.7-0.1,1,0.1
		c0.3,0.2,0.5,0.5,0.6,0.9c0.1,0.3,0.1,0.6,0.1,0.9c0,0.3,0,0.7-0.1,1c-0.1,0.3-0.2,0.6-0.3,0.9c-0.1,0.3-0.3,0.6-0.5,0.8
		c-0.2,0.2-0.4,0.5-0.6,0.6c-0.2,0.2-0.5,0.3-0.7,0.4c-0.4,0.1-0.7,0.1-1-0.1c-0.3-0.2-0.5-0.4-0.6-0.7c0-0.2-0.1-0.4-0.1-0.7
		c0-0.3,0-0.7,0-1.1l0.1-3.9c0-0.1,0-0.2,0-0.4c0-0.1,0-0.2,0-0.3c-0.1-0.2-0.3-0.3-0.8-0.1l0-0.3l1.7-0.6L50,47.7z M50.7,51.5
		c0.1,0,0.3-0.1,0.4-0.3c0.1-0.1,0.3-0.3,0.4-0.5c0.1-0.2,0.2-0.5,0.3-0.7c0.1-0.3,0.1-0.5,0.2-0.8c0-0.3,0-0.6,0-0.8
		c0-0.3,0-0.5-0.1-0.8c-0.1-0.2-0.2-0.4-0.3-0.5c-0.1-0.1-0.3-0.2-0.4-0.1c-0.1,0-0.3,0.1-0.4,0.3c-0.1,0.1-0.2,0.3-0.3,0.5
		c-0.1,0.2-0.2,0.5-0.3,0.7C50.1,48.7,50,49,50,49.3c0,0.3-0.1,0.6,0,0.8c0,0.3,0,0.5,0.1,0.8C50.2,51.4,50.4,51.6,50.7,51.5z"/>
	<path class="st1" d="M57.6,48.4c-0.1,0.6-0.3,1.1-0.6,1.4c-0.3,0.4-0.6,0.6-1,0.7c-0.4,0.1-0.8,0.1-1.1-0.1c-0.3-0.2-0.5-0.5-0.7-1
		c-0.1-0.3-0.1-0.6-0.1-0.9c0-0.3,0-0.6,0.1-0.9c0.1-0.3,0.2-0.6,0.3-0.9c0.1-0.3,0.3-0.5,0.4-0.8c0.2-0.2,0.3-0.4,0.5-0.6
		c0.2-0.2,0.4-0.3,0.6-0.3c0.3-0.1,0.6-0.1,0.8,0c0.2,0.1,0.4,0.3,0.5,0.5c0,0.2,0,0.3,0,0.4c-0.1,0.1-0.2,0.2-0.3,0.2
		c-0.1,0-0.3,0-0.4,0c-0.1-0.1-0.2-0.2-0.2-0.3c0-0.1,0-0.1,0-0.2c0-0.1,0-0.1,0-0.1c0-0.1-0.1-0.1-0.3-0.1
		c-0.2,0.1-0.4,0.2-0.5,0.5c-0.2,0.2-0.3,0.6-0.4,0.9c-0.1,0.4-0.1,0.7-0.1,1.1s0,0.8,0.1,1.2c0.1,0.3,0.2,0.5,0.4,0.7
		c0.2,0.1,0.3,0.2,0.5,0.1c0.1,0,0.2-0.1,0.3-0.2c0.1-0.1,0.2-0.2,0.3-0.4c0.1-0.1,0.2-0.3,0.2-0.5c0.1-0.2,0.1-0.4,0.2-0.6
		L57.6,48.4z"/>
	<path class="st1" d="M59.7,49.5c-0.2,0-0.3,0-0.5-0.1c-0.2-0.1-0.3-0.2-0.3-0.4c-0.1-0.2,0-0.4,0.1-0.5c0.1-0.2,0.2-0.3,0.4-0.3
		c0.2-0.1,0.4,0,0.5,0.1c0.2,0.1,0.3,0.2,0.3,0.4s0,0.3-0.1,0.5C60,49.3,59.9,49.4,59.7,49.5z"/>
</g>
<g id="bg_copy_6_">
	<g>
		<path class="st1" d="M50,86.8c-20.1,0-36.5-16.5-36.5-36.8S29.9,13.3,50,13.3c20.1,0,36.5,16.5,36.5,36.8S70.1,86.8,50,86.8z
			 M50,14.2c-19.6,0-35.6,16.1-35.6,35.9s16,35.9,35.6,35.9s35.6-16.1,35.6-35.9S69.6,14.2,50,14.2z"/>
	</g>
</g>
<g>
	<path class="st1" d="M51,99.9l-7.7-0.5L37.7,90l-8.5-3.7l-10.7,2.2l-5.6-5.4l1.7-10.8l-4.1-8.3l-9.6-5.2l-0.9-7.7L8.3,44l2.2-9
		l-4-10.2l4.3-6.5l10.9-0.2l7.4-5.5l3.4-10.4L39.9,0l8.5,6.9l9.2,0.6l9.3-5.7L74,4.9L76,15.6l6.7,6.4l10.8,1.6l3.4,7l-5.3,9.6l1,9.2
		l7.2,8.2l-1.8,7.6L87.9,69l-5.1,7.7l0.3,10.9l-6.2,4.6l-10.3-3.6l-8.9,2.6L51,99.9z M44.3,97.7l5.9,0.4l6.5-8.3l9.9-2.9l9.9,3.4
		l4.8-3.5L81,76.2l5.7-8.7l9.8-3.8L98,58l-7-7.9l-1.2-10.4l5.1-9.2l-2.6-5.3l-10.4-1.5l-7.5-7.2l-2-10.4L67,3.8L58,9.3L47.7,8.7
		L39.5,2l-5.7,1.7l-3.3,10l-8.3,6.2l-10.5,0.2L8.4,25l3.9,9.8L9.9,44.9l-7.9,6.9l0.7,5.9l9.3,5l4.6,9.3l-1.7,10.4l4.3,4.1l10.3-2.2
		l9.5,4.2L44.3,97.7z M50,84.3c-18.8,0-34.1-15.4-34.1-34.3c0-18.9,15.3-34.3,34.1-34.3c18.8,0,34.1,15.4,34.1,34.3
		C84.1,68.9,68.8,84.3,50,84.3z M50,17.5c-17.8,0-32.3,14.6-32.3,32.5c0,17.9,14.5,32.5,32.3,32.5c17.8,0,32.3-14.6,32.3-32.5
		C82.3,32.1,67.8,17.5,50,17.5z"/>
</g>
</svg>
