<?xml version="1.0" encoding="utf-8"?>
<!-- Generator: Adobe Illustrator 17.1.0, SVG Export Plug-In . SVG Version: 6.00 Build 0)  -->
<!DOCTYPE svg PUBLIC "-//W3C//DTD SVG 1.1//EN" "http://www.w3.org/Graphics/SVG/1.1/DTD/svg11.dtd">
<svg version="1.1" id="Layer_1" xmlns="http://www.w3.org/2000/svg" xmlns:xlink="http://www.w3.org/1999/xlink" x="0px" y="0px" viewBox="0 0 2032.3 1088.9" style="enable-background:new 0 0 2032.3 1088.9;"
	 xml:space="preserve">
<style type="text/css">
	.st0{fill:#ED1C24;}
	.st1{clip-path:url(#SVGID_2_);fill:#231F20;}
	.st2{fill:#231F20;}
</style>
<polygon class="st0" points="917.3,0 1516.1,538 917.3,1088.9 1433.5,1088.9 2032.3,538 1433.5,0 "/>
<g>
	<defs>
		<rect id="SVGID_1_" x="-709" y="-509.5" width="3458.3" height="2593.7"/>
	</defs>
	<clipPath id="SVGID_2_">
		<use xlink:href="#SVGID_1_"  style="overflow:visible;"/>
	</clipPath>
	<path class="st1" d="M406.3,557.5c0-7.1-1.3-13.8-4-20c-2.7-6.2-6.4-11.7-11.1-16.3c-4.7-4.6-10.2-8.3-16.4-11
		c-6.3-2.7-13.2-4.1-20.5-4.1c-7.6,0-14.4,1.3-20.5,4.1c-6.1,2.7-11.3,6.4-15.6,11c-4.3,4.6-7.6,10-9.9,16.3
		c-2.2,6.2-3.4,12.9-3.4,20c0,7.1,1.1,13.8,3.4,20c2.3,6.2,5.5,11.7,9.9,16.3c4.3,4.6,9.5,8.3,15.6,11c6.1,2.7,12.9,4.1,20.5,4.1
		c7.4,0,14.2-1.4,20.5-4.1c6.3-2.7,11.8-6.4,16.4-11c4.7-4.6,8.4-10,11.1-16.3C404.9,571.2,406.3,564.5,406.3,557.5 M404.6,598.2
		h-0.5c-2.5,4.4-5.7,8.2-9.4,11.3c-3.8,3.2-7.9,5.8-12.3,7.9c-4.4,2.1-9,3.6-13.9,4.6c-4.9,1-9.6,1.5-14.3,1.5
		c-9.6,0-18.3-1.6-26.4-4.9c-8.1-3.3-15-7.8-20.8-13.7c-5.8-5.9-10.3-12.9-13.5-20.9c-3.2-8-4.8-16.9-4.8-26.5
		c0-9.6,1.6-18.4,4.8-26.5c3.2-8.1,7.7-15.1,13.5-21c5.8-5.9,12.7-10.4,20.8-13.8c8.1-3.2,16.9-4.8,26.4-4.8c4.7,0,9.4,0.5,14.3,1.5
		c4.9,1,9.5,2.5,13.9,4.6c4.4,2.1,8.5,4.7,12.3,7.9c3.8,3.2,6.9,7,9.4,11.3h0.5V414.7h16.2v205.5h-16.2V598.2z"/>
	<path class="st1" d="M9.3,530c0-2.3-0.1-5.2-0.3-8.5c-0.2-3.4-0.3-6.8-0.4-10.2c-0.1-3.4-0.3-6.7-0.4-9.7c-0.1-3-0.2-5.3-0.2-6.9
		h16.2c0.2,4.7,0.3,9.2,0.4,13.6c0.1,4.4,0.3,7.1,0.7,8.4c4.1-7.4,9.4-13.5,15.9-18.2c6.5-4.7,14.4-7.1,23.7-7.1
		c1.6,0,3.2,0.1,4.7,0.4c1.5,0.3,3.1,0.6,4.7,0.9l-1.9,16.1c-2.2-0.7-4.2-1.1-6.2-1.1c-7,0-13.1,1.1-18.2,3.4
		c-5.1,2.2-9.3,5.4-12.7,9.4c-3.3,3.9-5.8,8.6-7.4,14c-1.6,5.4-2.5,11.1-2.5,17.3v68.5H9.3V530z"/>
	<path class="st1" d="M232.5,596.6c-6.3,9.6-14.1,16.5-23.3,20.6c-9.3,4.2-19.5,6.3-30.7,6.3c-9.5,0-18.2-1.6-25.9-4.9
		c-7.7-3.2-14.4-7.8-20-13.7c-5.6-5.9-9.8-12.9-12.8-21c-3-8-4.4-17-4.4-26.8c0-9.4,1.5-18.1,4.6-26.1c3.1-8,7.4-14.9,12.9-20.8
		c5.6-5.9,12.1-10.5,19.7-13.9c7.6-3.3,15.9-5,25.1-5c9.5,0,17.9,1.7,25.2,5c7.3,3.4,13.4,7.8,18.3,13.3c5,5.6,8.7,11.8,11.2,18.9
		c2.5,7.1,3.8,14.2,3.8,21.5v11.4H131.5c0,3.4,0.7,7.8,2,13.2c1.3,5.3,3.8,10.5,7.4,15.6c3.6,5.1,8.4,9.4,14.4,13.1
		c6,3.6,13.8,5.4,23.3,5.4c8.3,0,16.3-2,24-6c7.7-4,13.7-9.4,17.8-16.3L232.5,596.6z M220.1,546.8c0-5.6-1.1-10.9-3.4-15.7
		c-2.2-4.9-5.3-9.2-9.2-12.9c-3.9-3.7-8.4-6.7-13.8-8.8c-5.3-2.2-10.9-3.3-16.9-3.3c-8.8,0-16.1,1.8-22,5.4
		c-5.8,3.6-10.5,7.8-13.9,12.5c-3.4,4.7-5.9,9.3-7.3,13.7c-1.5,4.5-2.2,7.5-2.2,9.1H220.1z"/>
	<path class="st1" d="M674,567.5c0,6.2,0,11.7,0.1,16.6c0.1,4.9,0.2,9.4,0.4,13.6c0.2,4.2,0.4,8,0.7,11.7c0.3,3.6,0.7,7.3,1.2,10.9
		h-15.1c-1.1-6.2-1.6-12.9-1.6-20.4h-0.6c-4.7,8.2-10.5,14.1-17.4,17.9c-7,3.8-15.7,5.7-26.3,5.7c-5.4,0-10.7-0.6-15.9-2
		c-5.2-1.3-9.9-3.6-14.1-6.5c-4.1-3-7.5-6.8-10.1-11.5c-2.6-4.7-3.9-10.4-3.9-17.1c0-9.6,2.4-17.2,7.3-22.8
		c4.9-5.6,10.8-9.8,17.9-12.7c7.1-2.8,14.7-4.6,22.7-5.4c8-0.8,15.1-1.2,21.2-1.2h18.9v-7.6c0-10.9-3.3-18.7-10-23.4
		c-6.7-4.7-15-7.1-25.1-7.1c-14.4,0-27.1,4.7-38,14.1l-9.5-11.1c5.9-5.8,13.3-10.2,22.1-13.2c8.8-3,17.3-4.5,25.3-4.5
		c15.1,0,27.2,3.6,36.2,10.7c9,7.2,13.5,18.7,13.5,34.7V567.5z M641.6,557.2c-6.8,0-13.4,0.5-19.8,1.3c-6.4,0.9-12.2,2.5-17.3,4.6
		c-5.1,2.2-9.2,5.1-12.3,8.7c-3.1,3.6-4.6,8.2-4.6,13.6c0,3.8,0.9,7.2,2.5,10.2c1.7,3,3.9,5.4,6.6,7.3c2.7,1.9,5.7,3.4,9.1,4.4
		c3.3,1,6.7,1.5,10.1,1.5c8.6,0,15.7-1.3,21.3-3.8c5.6-2.5,10-5.8,13.4-9.9c3.3-4.1,5.6-8.7,6.9-13.8c1.3-5.2,1.9-10.4,1.9-15.6
		v-8.4H641.6z"/>
	<path class="st1" d="M740.3,530c0-2.3-0.1-5.2-0.3-8.5c-0.2-3.4-0.3-6.8-0.4-10.2c-0.1-3.4-0.2-6.7-0.4-9.7c-0.2-3-0.3-5.3-0.3-6.9
		h16.2c0.2,4.7,0.3,9.2,0.4,13.6c0.1,4.4,0.3,7.1,0.7,8.4c4.1-7.4,9.4-13.5,15.9-18.2c6.5-4.7,14.4-7.1,23.7-7.1
		c1.6,0,3.2,0.1,4.8,0.4c1.5,0.3,3.1,0.6,4.7,0.9l-1.9,16.1c-2.2-0.7-4.2-1.1-6.2-1.1c-7,0-13.1,1.1-18.2,3.4
		c-5.1,2.2-9.3,5.4-12.7,9.4c-3.3,3.9-5.8,8.6-7.4,14c-1.6,5.4-2.4,11.1-2.4,17.3v68.5h-16.2V530z"/>
	<path class="st1" d="M853.4,530c0-2.3-0.1-5.2-0.3-8.5c-0.2-3.4-0.3-6.8-0.4-10.2c-0.1-3.4-0.3-6.7-0.4-9.7c-0.1-3-0.3-5.3-0.3-6.9
		h16.2c0.2,4.7,0.3,9.2,0.4,13.6c0.1,4.4,0.3,7.1,0.7,8.4c4.1-7.4,9.4-13.5,15.9-18.2c6.5-4.7,14.4-7.1,23.7-7.1
		c1.6,0,3.2,0.1,4.7,0.4c1.5,0.3,3.1,0.6,4.7,0.9l-1.9,16.1c-2.2-0.7-4.2-1.1-6.2-1.1c-7,0-13.1,1.1-18.2,3.4
		c-5.1,2.2-9.3,5.4-12.7,9.4c-3.4,3.9-5.8,8.6-7.4,14c-1.6,5.4-2.5,11.1-2.5,17.3v68.5h-16.2V530z"/>
	<path class="st1" d="M959.5,557.5c0-9.6,1.6-18.4,4.9-26.5c3.2-8.1,7.7-15.1,13.5-21c5.8-5.9,12.7-10.4,20.8-13.8
		c8.1-3.2,16.9-4.8,26.4-4.8c9.6,0,18.3,1.6,26.3,4.8c8,3.3,14.9,7.9,20.8,13.8c5.9,5.9,10.4,12.9,13.6,21c3.2,8,4.8,16.9,4.8,26.5
		c0,9.6-1.6,18.5-4.8,26.5c-3.2,8.1-7.8,15.1-13.6,20.9c-5.9,5.9-12.8,10.5-20.8,13.7c-8,3.3-16.8,4.9-26.3,4.9
		c-9.5,0-18.3-1.6-26.4-4.9c-8.1-3.3-15-7.8-20.8-13.7c-5.8-5.9-10.3-12.9-13.5-20.9C961.1,575.9,959.5,567,959.5,557.5
		 M975.6,557.5c0,7.1,1.1,13.8,3.4,20c2.2,6.2,5.5,11.7,9.9,16.3c4.3,4.6,9.5,8.3,15.7,11c6.1,2.7,12.9,4.1,20.5,4.1
		c7.6,0,14.4-1.4,20.5-4.1c6.1-2.7,11.3-6.4,15.6-11c4.3-4.6,7.6-10.1,9.9-16.3c2.2-6.3,3.4-12.9,3.4-20c0-7.1-1.1-13.8-3.4-20
		c-2.3-6.2-5.5-11.7-9.9-16.3c-4.3-4.6-9.5-8.3-15.6-11c-6.1-2.7-12.9-4.1-20.5-4.1c-7.5,0-14.4,1.3-20.5,4.1
		c-6.1,2.7-11.4,6.4-15.7,11c-4.4,4.6-7.6,10-9.9,16.3C976.8,543.7,975.6,550.4,975.6,557.5"/>
</g>
<polygon class="st2" points="1132.5,494.7 1150.2,494.7 1180.5,599.9 1181,599.9 1215.9,494.7 1231.2,494.7 1268.2,599.9 
	1268.7,599.9 1298.1,494.7 1314.4,494.7 1277.6,620.3 1260.9,620.3 1223.7,517.5 1223.1,517.5 1188.3,620.3 1171.6,620.3 "/>
</svg>
