<?xml version="1.0" encoding="utf-8"?>
<!-- Generator: Adobe Illustrator 17.1.0, SVG Export Plug-In . SVG Version: 6.00 Build 0)  -->
<!DOCTYPE svg PUBLIC "-//W3C//DTD SVG 1.1//EN" "http://www.w3.org/Graphics/SVG/1.1/DTD/svg11.dtd">
<svg version="1.1" id="Layer_1" xmlns="http://www.w3.org/2000/svg" xmlns:xlink="http://www.w3.org/1999/xlink" x="0px" y="0px"
	 width="100px" height="100px" viewBox="0 0 100 100" style="enable-background:new 0 0 100 100;" xml:space="preserve">
<style type="text/css">
	.st0{fill:#F1F1EB;}
	.st1{fill:none;stroke:#F1F1EB;stroke-miterlimit:10;}
</style>
<g>
	<g id="bg_copy_2_">
		<g>
			<path class="st0" d="M50,86.7c-20.1,0-36.5-16.5-36.5-36.7c0-20.2,16.4-36.7,36.5-36.7S86.5,29.7,86.5,50
				C86.5,70.2,70.1,86.7,50,86.7z M50,14.1c-19.6,0-35.6,16.1-35.6,35.8c0,19.7,16,35.8,35.6,35.8c19.6,0,35.6-16.1,35.6-35.8
				C85.6,30.2,69.6,14.1,50,14.1z"/>
		</g>
	</g>
	<g>
		<path class="st0" d="M51,99.9l-7.7-0.5L37.7,90l-8.5-3.7l-10.7,2.2l-5.6-5.4l1.7-10.8L10.5,64L1,58.8l-0.9-7.7l8.2-7.2l2.2-9
			l-4-10.2l4.3-6.5l10.9-0.2l7.4-5.5l3.4-10.4L39.9,0l8.5,6.9l9.2,0.6l9.3-5.7L74,4.8L76,15.5l6.7,6.4l10.8,1.6l3.4,7l-5.3,9.6
			l1,9.2l7.2,8.2L98.1,65l-10.1,3.9l-5.1,7.7l0.3,10.9l-6.2,4.6l-10.3-3.6l-8.9,2.6L51,99.9z M44.3,97.7l5.9,0.4l6.5-8.3l9.9-2.9
			l9.9,3.4l4.8-3.5L81,76.2l5.7-8.7l9.8-3.8l1.4-5.8l-7-7.9l-1.2-10.4l5.1-9.2l-2.6-5.3l-10.4-1.5l-7.5-7.2l-2-10.4L67,3.7L58,9.3
			L47.7,8.6l-8.2-6.6l-5.7,1.7l-3.3,10l-8.3,6.2L11.7,20L8.4,25l3.9,9.8L9.9,44.9L2,51.8l0.7,5.9l9.3,5l4.6,9.3l-1.7,10.4l4.3,4.1
			l10.3-2.2l9.5,4.2L44.3,97.7z M50,84.2c-18.8,0-34.1-15.4-34.1-34.3C15.9,31,31.2,15.7,50,15.7c18.8,0,34.1,15.4,34.1,34.3
			C84.1,68.8,68.8,84.2,50,84.2z M50,17.4c-17.8,0-32.3,14.6-32.3,32.5S32.2,82.4,50,82.4c17.8,0,32.3-14.6,32.3-32.5
			S67.8,17.4,50,17.4z"/>
	</g>
</g>
<g>
	<g>
		<path class="st1" d="M34.6,27.2h2.2v2.2h2v-2.2h2.2v6.7h-2.2v-2.2h-2v2.2h-2.2V27.2L34.6,27.2z"/>
		<path class="st1" d="M44,29.4h-2v-2.2h6.2v2.2h-2v4.5H44L44,29.4L44,29.4z"/>
		<path class="st1" d="M49.2,27.2h2.3l1.4,2.3l1.4-2.3h2.3v6.7h-2.2v-3.3L53,32.9h0l-1.5-2.4v3.3h-2.2V27.2z"/>
		<path class="st1" d="M57.8,27.2h2.2v4.5h3.1v2.2h-5.4V27.2z"/>
		<path class="st1" d="M31.3,36.9l3.2,35.8l14.3,4l14.4-4l3.2-35.8H31.3z M59.7,45.4l-0.2,2.2l-0.1,1h0H48.8h0h-6.2l0.4,4.5h5.8h0h9
			h1.2l-0.1,1.2l-1,11.6l-0.1,0.7l-9,2.5l0,0l0,0l-9-2.5l-0.6-6.9h2h2.4l0.3,3.5l4.9,1.3l0,0l0,0l4.9-1.3l0.5-5.7h-5.4h0H39
			l-1.1-12.1l-0.1-1.2h11h0h11L59.7,45.4z"/>
	</g>
</g>
</svg>
