<?xml version="1.0" encoding="utf-8"?>
<!-- Generator: Adobe Illustrator 17.1.0, SVG Export Plug-In . SVG Version: 6.00 Build 0)  -->
<!DOCTYPE svg PUBLIC "-//W3C//DTD SVG 1.1//EN" "http://www.w3.org/Graphics/SVG/1.1/DTD/svg11.dtd">
<svg version="1.1" id="Layer_1" xmlns="http://www.w3.org/2000/svg" xmlns:xlink="http://www.w3.org/1999/xlink" x="0px" y="0px" width="1140px" height="40px" viewBox="0 0 263.6 8" style="enable-background:new 0 0 263.6 8;" xml:space="preserve">
<style type="text/css">
	.st0{fill:#DCDBC7;}
</style>
<image style="display:none;overflow:visible;" width="1383" height="40" xlink:href="A72E6A3EED656428.png"  transform="matrix(0.9999 0 0 0.9999 -7.1445 -11.0832)">
</image>
<path class="st0" d="M4,7.6L4,7.6C2,7.6,0.4,6,0.4,4C0.4,2,2,0.4,4,0.4S7.6,2,7.6,4c0,0,0,0,0,0L8,4c0,0,0,0,0,0c0-2.2-1.8-4-4-4
	S0,1.8,0,4c0,2.2,1.8,4,4,4l0,0h0V7.6z"/>
<polygon class="st0" points="4,7.6 4,7.6 4,7.6 "/>
<polygon class="st0" points="4,7.6 4,8 263.6,8 263.4,7.6 "/>
<rect x="4" y="7.6" class="st0" width="0" height="0.4"/>
<path class="st0" d="M4.1,6.4C3,6.4,2,5.6,1.8,4.5L1.4,4.6C1.7,5.9,2.7,6.8,4,6.8L4.1,6.4L4.1,6.4z"/>
<path class="st0" d="M4,6.8L4,6.8C4.1,6.8,4,6.8,4,6.8L4,6.8z"/>
<polygon class="st0" points="4.1,6.4 4.1,6.4 4.1,6.8 262.9,6.8 262.7,6.4 "/>
<path class="st0" d="M4.1,6.4L4.1,6.4l0,0.4c0,0,0,0,0.1,0c0,0,0,0,0,0L4.1,6.4C4.1,6.4,4.1,6.4,4.1,6.4z"/>
<polygon class="st0" points="4.7,5.3 4.7,5.6 262.3,5.6 262,5.2 "/>
</svg>
