<?xml version="1.0" encoding="utf-8"?>
<!-- Generator: Adobe Illustrator 17.1.0, SVG Export Plug-In . SVG Version: 6.00 Build 0)  -->
<!DOCTYPE svg PUBLIC "-//W3C//DTD SVG 1.1//EN" "http://www.w3.org/Graphics/SVG/1.1/DTD/svg11.dtd">
<svg version="1.1" id="Livello_1" xmlns="http://www.w3.org/2000/svg" xmlns:xlink="http://www.w3.org/1999/xlink" x="0px" y="0px"
	 viewBox="0 0 81.3 80.9" style="enable-background:new 0 0 81.3 80.9;" xml:space="preserve">
<style type="text/css">
	.st0{fill:#F9D128;}
	.st1{fill:#D84839;}
	.st2{fill:#5AAF5A;}
	.st3{fill:#4793C6;stroke:#FFFFFF;stroke-miterlimit:10;}
</style>
<g id="XMLID_2_">
	<g>
		<path class="st0" d="M76.3,26.4c4.2,10.5,3.7,22.8-2.4,33.3c-8.1,14-23.7,21-38.7,18.8l17.8-30.8c3.9-6.8,1.6-15.4-5.2-19.4
			c-2.2-1.3-4.7-1.9-7.1-1.9H76.3z"/>
		<path class="st1" d="M76.3,26.4H40.7c-4.9,0-9.7,2.6-12.3,7.1c-2.6,4.4-2.5,9.7-0.1,13.9L10.6,16.8C22.2,2.1,43.1-2.2,59.8,7.4
			C67.6,11.9,73.2,18.7,76.3,26.4z"/>
		<path class="st2" d="M52.9,47.7L35.1,78.5c-4.7-0.7-9.3-2.2-13.6-4.7c-18.3-10.6-24.6-34-14-52.4c0.9-1.7,2-3.2,3.1-4.6l17.7,30.6
			l0.1,0.3c1.2,2.1,3,3.9,5.2,5.2C40.4,56.8,49,54.4,52.9,47.7z"/>
		<path class="st3" d="M47.6,28.3c6.8,3.9,9.1,12.6,5.2,19.4c-3.9,6.8-12.6,9.1-19.3,5.2c-2.2-1.3-4-3.1-5.2-5.2l-0.1-0.3
			c-2.3-4.2-2.4-9.5,0.1-13.9c2.6-4.6,7.4-7.1,12.3-7.1C43,26.4,45.4,27,47.6,28.3z"/>
	</g>
</g>
</svg>
