<?xml version="1.0" encoding="utf-8"?>
<!-- Generator: Adobe Illustrator 18.0.0, SVG Export Plug-In . SVG Version: 6.00 Build 0)  -->
<!DOCTYPE svg PUBLIC "-//W3C//DTD SVG 1.1//EN" "http://www.w3.org/Graphics/SVG/1.1/DTD/svg11.dtd">
<svg version="1.1" id="Layer_1" xmlns="http://www.w3.org/2000/svg" xmlns:xlink="http://www.w3.org/1999/xlink" xmlns:sodipodi="http://sodipodi.sourceforge.net/DTD/sodipodi-0.dtd" x="0px" y="0px"
	 viewBox="0 0 455.6 459.5" style="enable-background:new 0 0 455.6 459.5;" xml:space="preserve">
<g id="path997">
	<g>
		<defs>
			
				<path id="SVGID_1_" sodipodi:rx="146.25000" sodipodi:cy="170.24500" sodipodi:ry="146.25000" sodipodi:type="arc" sodipodi:cx="213.75000" d="
				M447.4,220.1c0-120-97.9-217.2-218.6-217.2c-120.7,0-218.6,97.3-218.6,217.2c0,120,97.9,217.2,218.6,217.2
				C349.5,437.3,447.4,340.1,447.4,220.1z"/>
		</defs>
		<use xlink:href="#SVGID_1_"  style="overflow:visible;fill:#1E8DA0;"/>
		<clipPath id="SVGID_2_">
			<use xlink:href="#SVGID_1_"  style="overflow:visible;"/>
		</clipPath>
		<rect x="10.2" y="2.9" style="clip-path:url(#SVGID_2_);fill:#1E8DA0;" width="437.2" height="434.4"/>
		<path style="clip-path:url(#SVGID_2_);fill:#1E8DA0;" d="M453.4,109.4c0-30.4-6.2-59.4-17.4-85.7c-2.8-6.6-5.9-13-9.3-19.2
			c-1.7-3.1-3.5-6.2-5.3-9.2v6.7H42.2v-6.7c-1.9,3-3.6,6.1-5.3,9.2c-3.4,6.2-6.5,12.7-9.3,19.2C16.3,50,10.1,79,10.1,109.4
			c0,121.6,99.2,220.2,221.6,220.2C354.1,329.6,453.4,231,453.4,109.4z"/>
		<path style="clip-path:url(#SVGID_2_);fill:#1E8DA0;" d="M452.3,109.4c0-30.3-6.2-59.1-17.3-85.3c-2.8-6.6-5.9-12.9-9.3-19.2
			c-1.7-3.1-3.5-6.2-5.3-9.2v6.1H43.1v-6.1c-1.8,3-3.6,6.1-5.3,9.2c-3.4,6.2-6.5,12.6-9.3,19.2c-11.2,26.2-17.3,55-17.3,85.3
			c0,121,98.7,219.2,220.5,219.2C353.5,328.6,452.3,230.4,452.3,109.4z"/>
		<path style="clip-path:url(#SVGID_2_);fill:#1E8DA0;" d="M451.2,109.4c0-30.1-6.1-58.8-17.2-84.9c-2.8-6.5-5.9-12.9-9.2-19.1
			c-1.7-3.1-3.4-6.1-5.3-9.1v5.6H44.1v-5.6c-1.8,3-3.6,6-5.3,9.1c-3.4,6.2-6.5,12.5-9.2,19.1c-11.1,26.1-17.2,54.8-17.2,84.9
			c0,120.4,98.3,218.1,219.5,218.1C352.9,327.5,451.2,229.8,451.2,109.4z"/>
		<path style="clip-path:url(#SVGID_2_);fill:#1E8DA0;" d="M450.1,109.4c0-30-6.1-58.5-17.2-84.5c-2.8-6.5-5.8-12.8-9.2-19
			c-1.7-3.1-3.4-6.1-5.3-9.1v5H45v-5c-1.8,3-3.6,6-5.3,9.1c-3.4,6.1-6.4,12.5-9.2,19c-11.1,26-17.2,54.5-17.2,84.5
			c0,119.9,97.8,217,218.4,217C352.4,326.4,450.1,229.2,450.1,109.4z"/>
		<path style="clip-path:url(#SVGID_2_);fill:#1E8DA0;" d="M449,109.4c0-29.8-6.1-58.2-17.1-84.1c-2.8-6.5-5.8-12.8-9.1-18.9
			c-1.7-3.1-3.4-6.1-5.2-9v4.5H45.9v-4.5c-1.8,3-3.6,6-5.2,9c-3.3,6.1-6.4,12.4-9.1,18.9c-11,25.8-17.1,54.2-17.1,84.1
			c0,119.3,97.3,215.9,217.3,215.9C351.8,325.3,449,228.7,449,109.4z"/>
		<path style="clip-path:url(#SVGID_2_);fill:#1E8DA0;" d="M448,109.4c0-29.7-6.1-57.9-17-83.6c-2.7-6.4-5.8-12.7-9.1-18.8
			c-1.7-3-3.4-6-5.2-9v3.9H46.8V-2c-1.8,3-3.5,6-5.2,9c-3.3,6.1-6.4,12.4-9.1,18.8c-10.9,25.7-17,54-17,83.6
			c0,118.7,96.8,214.9,216.2,214.9C351.2,324.3,448,228.1,448,109.4z"/>
		<path style="clip-path:url(#SVGID_2_);fill:#1E8DA0;" d="M446.9,109.4c0-29.5-6-57.6-16.9-83.2c-2.7-6.4-5.8-12.6-9.1-18.7
			c-1.7-3-3.4-6-5.2-9v3.3h-368v-3.3c-1.8,2.9-3.5,5.9-5.2,9c-3.3,6.1-6.3,12.3-9.1,18.7c-10.9,25.6-16.9,53.7-16.9,83.2
			c0,118.1,96.3,213.8,215.1,213.8C350.6,323.2,446.9,227.5,446.9,109.4z"/>
		<path style="clip-path:url(#SVGID_2_);fill:#1E8DA0;" d="M445.8,109.4c0-29.4-6-57.4-16.8-82.8c-2.7-6.4-5.7-12.6-9-18.6
			c-1.6-3-3.4-6-5.2-8.9v2.8H48.7v-2.8C46.9,2,45.2,5,43.5,8c-3.3,6-6.3,12.2-9,18.6C23.7,52,17.7,80,17.7,109.4
			c0,117.5,95.8,212.7,214.1,212.7C350,322.1,445.8,226.9,445.8,109.4z"/>
		<path style="clip-path:url(#SVGID_2_);fill:#1E8DA0;" d="M444.7,109.4c0-29.2-6-57.1-16.7-82.4c-2.7-6.3-5.7-12.5-9-18.5
			c-1.6-3-3.3-6-5.1-8.9v2.2H49.6v-2.2c-1.8,2.9-3.5,5.9-5.1,8.9c-3.3,6-6.3,12.2-9,18.5c-10.8,25.3-16.7,53.2-16.7,82.4
			c0,116.9,95.3,211.6,213,211.6C349.4,321,444.7,226.3,444.7,109.4z"/>
		<path style="clip-path:url(#SVGID_2_);fill:#1E8DA0;" d="M443.6,109.4c0-29.1-5.9-56.8-16.7-82c-2.7-6.3-5.7-12.4-8.9-18.4
			c-1.6-3-3.3-5.9-5.1-8.8v1.7H50.5V0.2C48.8,3.1,47.1,6,45.4,9c-3.3,6-6.2,12.1-8.9,18.4c-10.7,25.2-16.7,52.9-16.7,82
			c0,116.3,94.9,210.6,211.9,210.6C348.8,320,443.6,225.7,443.6,109.4z"/>
		<path style="clip-path:url(#SVGID_2_);fill:#1E8DA0;" d="M442.6,109.4c0-28.9-5.9-56.5-16.6-81.5c-2.7-6.3-5.6-12.4-8.9-18.3
			c-1.6-3-3.3-5.9-5.1-8.8v1.1H51.5V0.8c-1.8,2.9-3.5,5.8-5.1,8.8c-3.2,5.9-6.2,12-8.9,18.3c-10.7,25.1-16.6,52.6-16.6,81.5
			c0,115.7,94.4,209.5,210.8,209.5C348.2,318.9,442.6,225.1,442.6,109.4z"/>
		<path style="clip-path:url(#SVGID_2_);fill:#1E8DA0;" d="M441.5,109.4c0-28.8-5.9-56.2-16.5-81.1c-2.7-6.2-5.6-12.3-8.8-18.2
			c-1.6-3-3.3-5.9-5.1-8.7v0.6H52.4V1.3c-1.8,2.9-3.4,5.8-5.1,8.7c-3.2,5.9-6.2,12-8.8,18.2C27.9,53.2,22,80.6,22,109.4
			c0,115.1,93.9,208.4,209.7,208.4C347.6,317.8,441.5,224.5,441.5,109.4z"/>
		<path style="clip-path:url(#SVGID_2_);fill:#1E8DA0;" d="M440.4,109.4c0-28.6-5.8-55.9-16.4-80.7c-2.6-6.2-5.6-12.2-8.8-18.1
			c-1.6-2.9-3.3-5.8-5-8.7c-0.9-1.4-1.8-2.8-2.7-4.2v4.2H56v-4.2c-0.9,1.4-1.8,2.8-2.7,4.2c-1.7,2.9-3.4,5.7-5,8.7
			c-3.2,5.9-6.1,11.9-8.8,18.1c-10.6,24.8-16.4,52.1-16.4,80.7c0,114.5,93.4,207.3,208.6,207.3C347,316.7,440.4,223.9,440.4,109.4z"
			/>
		<path style="clip-path:url(#SVGID_2_);fill:#1E8DA0;" d="M439.3,109.4c0-28.5-5.8-55.6-16.3-80.3c-2.6-6.2-5.5-12.2-8.7-18
			c-1.6-2.9-3.3-5.8-5-8.6c-0.9-1.4-1.8-2.8-2.6-4.2v3.7H56.9v-3.7C56-0.4,55.1,1,54.2,2.4c-1.7,2.8-3.4,5.7-5,8.6
			c-3.2,5.8-6.1,11.9-8.7,18C30,53.8,24.2,80.9,24.2,109.4c0,113.9,92.9,206.3,207.6,206.3C346.4,315.7,439.3,223.3,439.3,109.4z"/>
		<path style="clip-path:url(#SVGID_2_);fill:#1E8DA0;" d="M438.2,109.4c0-28.3-5.8-55.3-16.2-79.9c-2.6-6.1-5.5-12.1-8.7-17.9
			c-1.6-2.9-3.2-5.8-5-8.6c-0.9-1.4-1.7-2.8-2.6-4.2v3.1H57.8v-3.1C56.9,0.2,56,1.6,55.2,3c-1.7,2.8-3.4,5.7-5,8.6
			c-3.2,5.8-6.1,11.8-8.7,17.9C31,54.1,25.3,81.1,25.3,109.4c0,113.3,92.4,205.2,206.5,205.2C345.8,314.6,438.2,222.7,438.2,109.4z"
			/>
		<path style="clip-path:url(#SVGID_2_);fill:#1E8DA0;" d="M437.1,109.4c0-28.2-5.7-55-16.1-79.5c-5.2-12.2-11.6-23.8-18.9-34.7v6.6
			H61.4v-6.6C54,6.1,47.7,17.7,42.5,29.9c-10.4,24.4-16.1,51.3-16.1,79.5c0,112.7,92,204.1,205.4,204.1
			C345.2,313.5,437.1,222.1,437.1,109.4z"/>
		<path style="clip-path:url(#SVGID_2_);fill:#1E8DA0;" d="M436.1,109.4c0-28-5.7-54.7-16.1-79c-5.2-12.1-11.5-23.7-18.8-34.5v6
			H62.3v-6C55,6.7,48.7,18.2,43.5,30.4c-10.3,24.3-16.1,51-16.1,79c0,112.1,91.5,203,204.3,203C344.6,312.4,436.1,221.5,436.1,109.4
			z"/>
		<path style="clip-path:url(#SVGID_2_);fill:#1E8DA0;" d="M435,109.4c0-27.9-5.7-54.5-16-78.6c-5.1-12.1-11.4-23.6-18.7-34.3v5.4
			H63.2v-5.4C55.9,7.2,49.6,18.7,44.5,30.8c-10.3,24.2-16,50.7-16,78.6c0,111.5,91,202,203.2,202C344,311.4,435,220.9,435,109.4z"/>
		<path style="clip-path:url(#SVGID_2_);fill:#1E8DA0;" d="M433.9,109.4c0-27.7-5.7-54.2-15.9-78.2c-5.1-12-11.4-23.4-18.6-34.1v4.8
			H64.1v-4.8C56.9,7.8,50.6,19.2,45.5,31.2c-10.2,24-15.9,50.5-15.9,78.2c0,111,90.5,200.9,202.2,200.9
			C343.4,310.3,433.9,220.3,433.9,109.4z"/>
		<path style="clip-path:url(#SVGID_2_);fill:#1E8DA0;" d="M432.8,109.4c0-27.6-5.6-53.9-15.8-77.8c-5.1-12-11.3-23.3-18.5-33.9v4.2
			H65v-4.2c-7.2,10.6-13.4,22-18.5,33.9c-10.2,23.9-15.8,50.2-15.8,77.8c0,110.4,90,199.8,201.1,199.8
			C342.8,309.2,432.8,219.7,432.8,109.4z"/>
		<path style="clip-path:url(#SVGID_2_);fill:#1E8DA0;" d="M431.7,109.4c0-27.4-5.6-53.6-15.7-77.4C411,20.1,404.8,8.8,397.6-1.7
			v3.6H65.9v-3.6C58.7,8.8,52.5,20.1,47.5,32c-10.1,23.8-15.7,49.9-15.7,77.4c0,109.8,89.5,198.7,200,198.7
			C342.2,308.1,431.7,219.2,431.7,109.4z"/>
		<path style="clip-path:url(#SVGID_2_);fill:#1E8DA0;" d="M430.7,109.4c0-27.3-5.6-53.3-15.6-76.9c-5-11.8-11.2-23.1-18.3-33.6v3
			H66.8v-3C59.7,9.4,53.5,20.6,48.5,32.4c-10.1,23.6-15.6,49.7-15.6,76.9c0,109.2,89.1,197.7,198.9,197.7
			C341.6,307.1,430.7,218.6,430.7,109.4z"/>
		<path style="clip-path:url(#SVGID_2_);fill:#1E8DA0;" d="M429.6,109.4c0-27.1-5.5-53-15.5-76.5c-5-11.8-11.1-22.9-18.2-33.4v2.4
			H67.7v-2.4C60.6,9.9,54.5,21.1,49.5,32.9c-10,23.5-15.5,49.4-15.5,76.5C33.9,218,122.5,306,231.7,306
			C341,306,429.6,218,429.6,109.4z"/>
		<path style="clip-path:url(#SVGID_2_);fill:#1E8DA0;" d="M428.5,109.4c0-27-5.5-52.7-15.5-76.1c-5-11.7-11.1-22.8-18.1-33.2v1.8
			H68.6V0.1c-7.1,10.4-13.2,21.5-18.1,33.2C40.5,56.7,35,82.4,35,109.4c0,108,88.1,195.5,196.8,195.5
			C340.4,304.9,428.5,217.4,428.5,109.4z"/>
		<path style="clip-path:url(#SVGID_2_);fill:#1E8DA0;" d="M427.4,109.4c0-26.8-5.5-52.4-15.4-75.7c-5-11.6-11-22.7-18-33v1.2H69.5
			V0.7c-7,10.3-13.1,21.4-18,33C41.5,57,36.1,82.5,36.1,109.4c0,107.4,87.6,194.5,195.7,194.5C339.8,303.8,427.4,216.8,427.4,109.4z
			"/>
		<path style="clip-path:url(#SVGID_2_);fill:#1E8DA0;" d="M426.3,109.4c0-26.7-5.4-52.1-15.3-75.3c-4.9-11.6-10.9-22.6-17.9-32.8
			v0.6H70.4V1.3c-7,10.3-13,21.3-17.9,32.8c-9.8,23.1-15.3,48.6-15.3,75.3c0,106.8,87.1,193.4,194.6,193.4
			C339.2,302.8,426.3,216.2,426.3,109.4z"/>
		<path style="clip-path:url(#SVGID_2_);fill:#1E8DA0;" d="M425.3,109.4c0-26.6-5.4-51.8-15.2-74.9c-4.9-11.5-10.9-22.4-17.8-32.7
			c-0.9-1.3-1.8-2.5-2.6-3.8v3.8H73.9v-3.8c-0.9,1.3-1.8,2.5-2.7,3.8c-7,10.2-12.9,21.2-17.8,32.7c-9.8,23-15.2,48.3-15.2,74.9
			c0,106.2,86.6,192.3,193.5,192.3C338.6,301.7,425.3,215.6,425.3,109.4z"/>
		<path style="clip-path:url(#SVGID_2_);fill:#1E8DA0;" d="M424.2,109.4c0-26.4-5.4-51.6-15.1-74.4c-4.9-11.4-10.8-22.3-17.7-32.5
			c-1.7-2.5-3.5-5-5.4-7.5v6.9H77.5V-5c-1.8,2.5-3.6,5-5.4,7.5c-6.9,10.2-12.9,21-17.7,32.5c-9.7,22.9-15.1,48-15.1,74.4
			c0,105.6,86.2,191.2,192.4,191.2C338,300.6,424.2,215,424.2,109.4z"/>
		<path style="clip-path:url(#SVGID_2_);fill:#1E8DA0;" d="M423.1,109.4c0-26.3-5.4-51.3-15-74c-4.8-11.4-10.8-22.2-17.6-32.3
			c-1.7-2.5-3.5-5-5.3-7.5v6.3H78.4v-6.3c-1.8,2.4-3.6,4.9-5.3,7.5C66.2,13.2,60.3,24,55.4,35.4c-9.7,22.8-15,47.8-15,74
			c0,105,85.7,190.2,191.3,190.2C337.4,299.5,423.1,214.4,423.1,109.4z"/>
		<path style="clip-path:url(#SVGID_2_);fill:#1E8DA0;" d="M422,109.4c0-26.1-5.3-51-14.9-73.6c-4.8-11.3-10.7-22.1-17.5-32.1
			c-1.7-2.5-3.5-5-5.3-7.4v5.6H79.3v-5.6c-1.8,2.4-3.6,4.9-5.3,7.4c-6.8,10.1-12.7,20.8-17.5,32.1c-9.6,22.6-15,47.5-15,73.6
			c0,104.4,85.2,189.1,190.3,189.1C336.8,298.5,422,213.8,422,109.4z"/>
		<path style="clip-path:url(#SVGID_2_);fill:#1E8DA0;" d="M420.9,109.4c0-26-5.3-50.7-14.9-73.2c-4.8-11.2-10.6-21.9-17.4-31.9
			c-1.7-2.5-3.5-5-5.3-7.4v5H80.1v-5c-1.8,2.4-3.6,4.9-5.3,7.4c-6.8,10-12.7,20.7-17.4,31.9c-9.6,22.5-14.9,47.2-14.9,73.2
			c0,103.8,84.7,188,189.2,188C336.2,297.4,420.9,213.2,420.9,109.4z"/>
		<path style="clip-path:url(#SVGID_2_);fill:#1E8DA0;" d="M419.9,109.4c0-25.8-5.3-50.4-14.8-72.8c-4.8-11.2-10.6-21.8-17.3-31.8
			c-1.7-2.5-3.4-4.9-5.2-7.3v4.3H81v-4.3c-1.8,2.4-3.6,4.8-5.2,7.3C69,14.8,63.2,25.4,58.4,36.6c-9.5,22.4-14.8,47-14.8,72.8
			c0,103.2,84.2,186.9,188.1,186.9C335.6,296.3,419.9,212.6,419.9,109.4z"/>
		<path style="clip-path:url(#SVGID_2_);fill:#1E8DA0;" d="M418.8,109.4c0-25.7-5.2-50.1-14.7-72.3c-4.7-11.1-10.5-21.7-17.2-31.6
			c-1.7-2.5-3.4-4.9-5.2-7.3v3.7H81.9v-3.7c-1.8,2.4-3.5,4.8-5.2,7.3C69.9,15.4,64.2,25.9,59.4,37C50,59.3,44.7,83.7,44.7,109.4
			c0,102.6,83.7,185.9,187,185.9C335,295.2,418.8,212,418.8,109.4z"/>
		<path style="clip-path:url(#SVGID_2_);fill:#1E8DA0;" d="M417.7,109.4c0-25.5-5.2-49.8-14.6-71.9c-4.7-11.1-10.5-21.6-17.1-31.4
			c-1.7-2.5-3.4-4.9-5.2-7.2v3h-298v-3c-1.8,2.4-3.5,4.8-5.2,7.2c-6.7,9.8-12.4,20.3-17.1,31.4C51,59.6,45.8,83.9,45.8,109.4
			c0,102.1,83.2,184.8,185.9,184.8C334.4,294.2,417.7,211.4,417.7,109.4z"/>
		<path style="clip-path:url(#SVGID_2_);fill:#1E8DA0;" d="M416.6,109.4c0-25.4-5.2-49.5-14.5-71.5c-4.7-11-10.4-21.4-17-31.2
			c-1.7-2.4-3.4-4.8-5.2-7.2v2.4H83.6v-2.4c-1.8,2.4-3.5,4.8-5.2,7.2c-6.6,9.8-12.4,20.2-17,31.2c-9.4,22-14.5,46.1-14.5,71.5
			c0,101.5,82.8,183.7,184.9,183.7C333.8,293.1,416.6,210.9,416.6,109.4z"/>
		<path style="clip-path:url(#SVGID_2_);fill:#1E8DA0;" d="M415.5,109.4c0-25.2-5.1-49.2-14.4-71.1c-4.7-10.9-10.3-21.3-16.9-31
			c-1.7-2.4-3.4-4.8-5.1-7.2v1.8H84.5V0.1c-1.8,2.3-3.5,4.7-5.1,7.2c-6.6,9.7-12.3,20.1-16.9,31C53.1,60.1,48,84.2,48,109.4
			C48,210.3,130.2,292,231.7,292C333.2,292,415.5,210.3,415.5,109.4z"/>
		<path style="clip-path:url(#SVGID_2_);fill:#1E8DA0;" d="M414.4,109.4c0-25.1-5.1-48.9-14.4-70.7c-4.6-10.9-10.3-21.2-16.8-30.8
			c-1.6-2.4-3.3-4.8-5.1-7.1v1.1H85.3V0.8c-1.8,2.3-3.4,4.7-5.1,7.1c-6.6,9.7-12.2,20-16.8,30.8C54.2,60.4,49,84.3,49,109.4
			C49,209.7,130.8,291,231.7,291C332.6,291,414.4,209.7,414.4,109.4z"/>
		<path style="clip-path:url(#SVGID_2_);fill:#1E8DA0;" d="M413.4,109.4c0-24.9-5.1-48.7-14.3-70.3c-4.6-10.8-10.2-21.1-16.7-30.7
			c-1.6-2.4-3.3-4.8-5.1-7.1v0.5H86.2V1.4c-1.7,2.3-3.4,4.7-5.1,7.1C74.6,18.1,69,28.3,64.4,39.1c-9.2,21.6-14.3,45.3-14.3,70.3
			c0,99.7,81.3,180.5,181.6,180.5C332.1,289.9,413.4,209.1,413.4,109.4z"/>
		<path style="clip-path:url(#SVGID_2_);fill:#1E8DA0;" d="M412.3,109.4c0-24.8-5.1-48.4-14.2-69.8c-4.6-10.7-10.2-20.9-16.6-30.5
			c-3.2-4.8-6.7-9.4-10.4-13.8v6.6H92.4v-6.6c-3.7,4.4-7.1,9-10.4,13.8C75.6,18.6,70,28.8,65.4,39.6C56.3,61,51.2,84.6,51.2,109.4
			c0,99.1,80.8,179.4,180.5,179.4C331.5,288.8,412.3,208.5,412.3,109.4z"/>
		<path style="clip-path:url(#SVGID_2_);fill:#1E8DA0;" d="M411.2,109.4c0-24.6-5-48.1-14.1-69.4c-4.5-10.7-10.1-20.8-16.5-30.3
			c-3.2-4.7-6.7-9.3-10.3-13.7v5.9h-277V-4c-3.7,4.4-7.1,9-10.3,13.7c-6.4,9.5-12,19.6-16.5,30.3c-9.1,21.3-14.1,44.8-14.1,69.4
			c0,98.5,80.3,178.3,179.5,178.3C330.9,287.7,411.2,207.9,411.2,109.4z"/>
		<path style="clip-path:url(#SVGID_2_);fill:#1E8DA0;" d="M410.1,109.4c0-24.5-5-47.8-14-69c-4.5-10.6-10-20.7-16.4-30.1
			C376.5,5.6,373,1,369.4-3.4v5.2H94.1v-5.2C90.5,1,87,5.6,83.8,10.3c-6.4,9.4-11.9,19.5-16.4,30.1c-9,21.2-14,44.5-14,69
			c0,97.9,79.9,177.3,178.4,177.3C330.3,286.7,410.1,207.3,410.1,109.4z"/>
		<path style="clip-path:url(#SVGID_2_);fill:#1E8DA0;" d="M409,109.4c0-24.3-5-47.5-13.9-68.6c-4.5-10.5-10-20.6-16.3-29.9
			c-3.2-4.7-6.6-9.2-10.2-13.6v4.6H94.9v-4.6c-3.6,4.4-7,8.9-10.2,13.6c-6.4,9.4-11.9,19.4-16.3,29.9c-9,21.1-13.9,44.3-13.9,68.6
			c0,97.3,79.4,176.2,177.3,176.2C329.7,285.6,409,206.7,409,109.4z"/>
		<path style="clip-path:url(#SVGID_2_);fill:#1E8DA0;" d="M408,109.4c0-24.2-4.9-47.2-13.8-68.2c-4.5-10.5-9.9-20.4-16.2-29.7
			c-3.2-4.7-6.6-9.2-10.1-13.5v3.9h-272V-2c-3.6,4.3-7,8.8-10.1,13.5c-6.3,9.3-11.8,19.3-16.2,29.7c-8.9,21-13.8,44-13.8,68.2
			c0,96.7,78.9,175.1,176.2,175.1C329.1,284.5,408,206.1,408,109.4z"/>
		<path style="clip-path:url(#SVGID_2_);fill:#1E8DA0;" d="M406.9,109.4c0-24-4.9-46.9-13.8-67.7c-4.4-10.4-9.9-20.3-16.1-29.6
			c-3.1-4.6-6.5-9.1-10.1-13.4v3.2H96.6v-3.2C93,3,89.7,7.5,86.5,12.1c-6.3,9.3-11.7,19.2-16.1,29.6c-8.9,20.8-13.8,43.7-13.8,67.7
			c0,96.1,78.4,174,175.1,174C328.5,283.4,406.9,205.5,406.9,109.4z"/>
		<path style="clip-path:url(#SVGID_2_);fill:#1E8DA0;" d="M405.8,109.4c0-23.9-4.9-46.6-13.7-67.3c-4.4-10.3-9.8-20.2-16-29.4
			c-3.1-4.6-6.5-9-10-13.3v2.5H97.4v-2.5c-3.5,4.3-6.9,8.7-10,13.3c-6.3,9.2-11.6,19-16,29.4c-8.8,20.7-13.7,43.4-13.7,67.3
			c0,95.5,77.9,173,174.1,173C327.9,282.4,405.8,204.9,405.8,109.4z"/>
		<path style="clip-path:url(#SVGID_2_);fill:#1E8DA0;" d="M404.7,109.4c0-23.7-4.8-46.3-13.6-66.9c-4.4-10.3-9.7-20.1-15.9-29.2
			c-3.1-4.6-6.4-9-10-13.2v1.8H98.3V0.1c-3.5,4.2-6.8,8.7-10,13.2c-6.2,9.1-11.6,18.9-15.9,29.2C63.6,63,58.8,85.7,58.8,109.4
			c0,94.9,77.4,171.9,173,171.9C327.3,281.3,404.7,204.3,404.7,109.4z"/>
		<path style="clip-path:url(#SVGID_2_);fill:#1E8DA0;" d="M403.6,109.4c0-23.6-4.8-46.1-13.5-66.5c-4.4-10.2-9.7-19.9-15.9-29
			c-3.1-4.5-6.4-8.9-9.9-13.1v1.1H99.1V0.7c-3.5,4.2-6.8,8.6-9.9,13.1C83,23,77.7,32.7,73.4,42.9c-8.7,20.4-13.5,42.9-13.5,66.5
			c0,94.3,77,170.8,171.9,170.8C326.7,280.2,403.6,203.7,403.6,109.4z"/>
		<path style="clip-path:url(#SVGID_2_);fill:#1E8DA0;" d="M402.6,109.4c0-23.4-4.8-45.8-13.4-66.1c-4.3-10.2-9.6-19.8-15.8-28.8
			c-3.1-4.5-6.4-8.9-9.8-13.1v0.5H99.9V1.4c-3.5,4.2-6.8,8.6-9.8,13.1c-6.1,9-11.4,18.7-15.8,28.8C65.7,63.6,60.9,86,60.9,109.4
			c0,93.7,76.5,169.7,170.8,169.7C326.1,279.1,402.6,203.1,402.6,109.4z"/>
		<path style="clip-path:url(#SVGID_2_);fill:#1E8DA0;" d="M401.5,109.4c0-23.3-4.8-45.5-13.3-65.7c-4.3-10.1-9.5-19.7-15.6-28.6
			c-3.1-4.5-6.3-8.8-9.8-13C361,0,359.2-2,357.4-4v5.9H106.1V-4c-1.8,2-3.6,4-5.3,6.1c-3.5,4.2-6.7,8.5-9.8,13
			c-6.1,9-11.4,18.6-15.6,28.6C66.8,63.9,62,86.1,62,109.4c0,93.2,76,168.7,169.7,168.7C325.5,278.1,401.5,202.5,401.5,109.4z"/>
		<path style="clip-path:url(#SVGID_2_);fill:#1E8DA0;" d="M400.4,109.4c0-23.1-4.7-45.2-13.3-65.2c-4.3-10-9.5-19.6-15.6-28.5
			c-3-4.5-6.3-8.8-9.7-12.9c-1.7-2.1-3.5-4.1-5.3-6.1v5.2H106.9v-5.2c-1.8,2-3.6,4-5.3,6.1c-3.4,4.1-6.7,8.4-9.7,12.9
			c-6.1,8.9-11.3,18.4-15.6,28.5c-8.5,20.1-13.3,42.1-13.3,65.2C63.1,202,138.6,277,231.7,277C324.9,277,400.4,202,400.4,109.4z"/>
		<path style="clip-path:url(#SVGID_2_);fill:#1E8DA0;" d="M399.3,109.4c0-23-4.7-44.9-13.2-64.8c-4.2-10-9.4-19.4-15.4-28.3
			c-3-4.4-6.2-8.7-9.6-12.8c-1.7-2.1-3.5-4.1-5.3-6v4.4H107.7v-4.4c-1.8,2-3.6,4-5.3,6c-3.4,4.1-6.6,8.4-9.6,12.8
			c-6,8.9-11.2,18.3-15.4,28.3c-8.5,19.9-13.2,41.8-13.2,64.8c0,92,75,166.5,167.6,166.5C324.3,275.9,399.3,201.4,399.3,109.4z"/>
		<path style="clip-path:url(#SVGID_2_);fill:#1E8DA0;" d="M398.2,109.4c0-22.8-4.7-44.6-13.1-64.4c-4.2-9.9-9.4-19.3-15.4-28.1
			c-3-4.4-6.2-8.7-9.6-12.7c-1.7-2-3.4-4-5.2-6v3.7H108.5v-3.7c-1.8,2-3.5,4-5.2,6c-3.4,4.1-6.6,8.3-9.6,12.7
			c-6,8.8-11.1,18.2-15.4,28.1c-8.4,19.8-13.1,41.6-13.1,64.4c0,91.4,74.5,165.4,166.5,165.4C323.7,274.8,398.2,200.8,398.2,109.4z"
			/>
		<path style="clip-path:url(#SVGID_2_);fill:#1E8DA0;" d="M397.1,109.4c0-22.7-4.6-44.3-13-64c-4.2-9.8-9.3-19.2-15.2-27.9
			c-3-4.4-6.2-8.6-9.5-12.7c-1.7-2-3.4-4-5.2-6v3H109.3v-3c-1.8,1.9-3.5,3.9-5.2,6c-3.4,4.1-6.6,8.3-9.5,12.7
			c-5.9,8.7-11.1,18.1-15.2,27.9c-8.4,19.7-13,41.3-13,64c0,90.8,74.1,164.4,165.4,164.4C323.1,273.8,397.1,200.2,397.1,109.4z"/>
		<path style="clip-path:url(#SVGID_2_);fill:#1E8DA0;" d="M396.1,109.4c0-22.5-4.6-44-12.9-63.6c-4.2-9.8-9.2-19.1-15.2-27.7
			c-3-4.3-6.1-8.5-9.5-12.6c-1.7-2-3.4-4-5.2-5.9v2.3H110.1v-2.3c-1.8,1.9-3.5,3.9-5.2,5.9c-3.4,4-6.5,8.2-9.5,12.6
			c-5.9,8.7-11,18-15.2,27.7c-8.3,19.5-12.9,41-12.9,63.6c0,90.2,73.6,163.3,164.3,163.3C322.5,272.7,396.1,199.6,396.1,109.4z"/>
		<path style="clip-path:url(#SVGID_2_);fill:#1E8DA0;" d="M395,109.4c0-22.4-4.6-43.7-12.8-63.1c-4.1-9.7-9.2-18.9-15.1-27.6
			c-2.9-4.3-6.1-8.5-9.4-12.5c-1.7-2-3.4-4-5.1-5.9v1.6H110.9V0.3c-1.8,1.9-3.5,3.9-5.1,5.9c-3.3,4-6.5,8.2-9.4,12.5
			c-5.9,8.6-10.9,17.9-15.1,27.6C73.1,65.7,68.5,87,68.5,109.4c0,89.6,73.1,162.2,163.2,162.2C321.9,271.6,395,199,395,109.4z"/>
		<path style="clip-path:url(#SVGID_2_);fill:#1E8DA0;" d="M393.9,109.4c0-44.5-18.2-84.8-47.5-113.9v6.4H117.1v-6.4
			C87.7,24.6,69.6,64.9,69.6,109.4c0,89,72.6,161.1,162.2,161.1S393.9,198.4,393.9,109.4z"/>
		<path style="clip-path:url(#SVGID_2_);fill:#1E8DA0;" d="M392.8,109.4c0-44.2-18-84.2-47.2-113.2v5.7H117.9v-5.7
			c-29.2,29-47.2,69-47.2,113.2c0,88.4,72.1,160.1,161.1,160.1S392.8,197.8,392.8,109.4z"/>
		<path style="clip-path:url(#SVGID_2_);fill:#1E8DA0;" d="M391.7,109.4c0-43.9-17.9-83.7-46.9-112.4v4.9H118.6V-3
			c-29,28.8-46.9,68.5-46.9,112.4c0,87.8,71.6,159,160,159S391.7,197.2,391.7,109.4z"/>
		<path style="clip-path:url(#SVGID_2_);fill:#1E8DA0;" d="M390.7,109.4c0-43.6-17.8-83.1-46.5-111.7v4.2H119.4v-4.2
			C90.6,26.3,72.8,65.8,72.8,109.4c0,87.2,71.2,157.9,158.9,157.9S390.7,196.6,390.7,109.4z"/>
		<path style="clip-path:url(#SVGID_2_);fill:#1E8DA0;" d="M389.6,109.4c0-43.3-17.7-82.5-46.2-110.9v3.4H120.1v-3.4
			C91.6,26.9,73.9,66.1,73.9,109.4c0,86.6,70.7,156.9,157.8,156.9S389.6,196,389.6,109.4z"/>
		<path style="clip-path:url(#SVGID_2_);fill:#1E8DA0;" d="M388.5,109.4c0-43-17.5-82-45.9-110.2v2.6H120.9v-2.6
			C92.5,27.4,75,66.4,75,109.4c0,86,70.2,155.8,156.8,155.8S388.5,195.4,388.5,109.4z"/>
		<path style="clip-path:url(#SVGID_2_);fill:#1E8DA0;" d="M387.4,109.4C387.4,66.7,370,28,341.8,0v1.9H121.7V0
			C93.5,28,76.1,66.7,76.1,109.4c0,85.4,69.7,154.7,155.7,154.7S387.4,194.8,387.4,109.4z"/>
		<path style="clip-path:url(#SVGID_2_);fill:#1E8DA0;" d="M386.3,109.4c0-42.4-17.3-80.8-45.3-108.6v1.1H122.4V0.8
			C94.5,28.6,77.2,67,77.2,109.4c0,84.8,69.2,153.6,154.6,153.6S386.3,194.2,386.3,109.4z"/>
		<path style="clip-path:url(#SVGID_2_);fill:#1E8DA0;" d="M385.3,109.4c0-42.1-17.2-80.3-45-107.9v0.4H123.2V1.5
			c-27.8,27.6-45,65.7-45,107.9c0,84.3,68.7,152.6,153.5,152.6C316.5,261.9,385.3,193.6,385.3,109.4z"/>
		<path style="clip-path:url(#SVGID_2_);fill:#1E8DA0;" d="M384.2,109.4c0-41.8-17.1-79.7-44.6-107.1c-1.7-1.7-3.5-3.4-5.3-5v4.6
			h-205v-4.6c-1.8,1.6-3.6,3.3-5.3,5C96.4,29.7,79.3,67.6,79.3,109.4c0,83.7,68.2,151.5,152.4,151.5S384.2,193.1,384.2,109.4z"/>
		<path style="clip-path:url(#SVGID_2_);fill:#1E8DA0;" d="M383.1,109.4c0-41.5-16.9-79.1-44.3-106.4c-1.7-1.7-3.5-3.4-5.3-5v3.8
			H130v-3.8c-1.8,1.6-3.5,3.3-5.3,5C97.3,30.3,80.4,67.9,80.4,109.4c0,83.1,67.8,150.4,151.4,150.4S383.1,192.5,383.1,109.4z"/>
		<path style="clip-path:url(#SVGID_2_);fill:#1E8DA0;" d="M382,109.4c0-41.2-16.8-78.6-44-105.6c-1.7-1.7-3.4-3.3-5.2-4.9v3H130.7
			v-3c-1.8,1.6-3.5,3.3-5.2,4.9c-27.2,27-44,64.4-44,105.6c0,82.5,67.3,149.3,150.3,149.3S382,191.9,382,109.4z"/>
		<path style="clip-path:url(#SVGID_2_);fill:#1E8DA0;" d="M380.9,109.4c0-40.9-16.7-78-43.7-104.8c-3.4-3.4-6.9-6.5-10.6-9.6v6.9
			H136.8V-5c-3.7,3-7.2,6.2-10.6,9.6c-27,26.8-43.7,63.9-43.7,104.8c0,81.9,66.8,148.3,149.2,148.3S380.9,191.3,380.9,109.4z"/>
		<path style="clip-path:url(#SVGID_2_);fill:#1E8DA0;" d="M379.9,109.4c0-40.6-16.6-77.4-43.4-104.1c-3.4-3.3-6.9-6.5-10.5-9.5v6.1
			H137.5v-6.1c-3.7,3-7.2,6.2-10.5,9.5C100.2,32,83.6,68.7,83.6,109.4c0,81.3,66.3,147.2,148.1,147.2S379.9,190.7,379.9,109.4z"/>
		<path style="clip-path:url(#SVGID_2_);fill:#1E8DA0;" d="M378.8,109.4c0-40.3-16.5-76.9-43.1-103.3c-3.3-3.3-6.8-6.5-10.4-9.4v5.2
			h-187v-5.2c-3.6,3-7.1,6.1-10.4,9.4c-26.6,26.4-43.1,63-43.1,103.3c0,80.7,65.8,146.1,147,146.1S378.8,190.1,378.8,109.4z"/>
		<path style="clip-path:url(#SVGID_2_);fill:#1E8DA0;" d="M377.7,109.4c0-40.1-16.3-76.3-42.7-102.6c-3.3-3.3-6.8-6.4-10.4-9.4v4.4
			H138.9v-4.4c-3.6,3-7.1,6.1-10.4,9.4c-26.4,26.2-42.7,62.5-42.7,102.6c0,80.1,65.3,145,145.9,145S377.7,189.5,377.7,109.4z"/>
		<path style="clip-path:url(#SVGID_2_);fill:#1E8DA0;" d="M376.6,109.4c0-39.8-16.2-75.7-42.4-101.8c-3.3-3.3-6.7-6.4-10.3-9.3v3.6
			H139.6v-3.6c-3.6,2.9-7,6-10.3,9.3c-26.2,26.1-42.4,62-42.4,101.8c0,79.5,64.9,144,144.9,144S376.6,188.9,376.6,109.4z"/>
		<path style="clip-path:url(#SVGID_2_);fill:#1E8DA0;" d="M375.5,109.4c0-39.5-16.1-75.2-42.1-101c-3.3-3.2-6.7-6.3-10.2-9.2v2.7
			H140.3v-2.7c-3.5,2.9-7,6-10.2,9.2c-26,25.9-42.1,61.6-42.1,101c0,78.9,64.4,142.9,143.8,142.9
			C311.2,252.3,375.5,188.3,375.5,109.4z"/>
		<path style="clip-path:url(#SVGID_2_);fill:#1E8DA0;" d="M374.4,109.4c0-39.2-16-74.6-41.8-100.3c-3.2-3.2-6.6-6.3-10.1-9.2v1.9
			H141V0c-3.5,2.9-6.9,5.9-10.1,9.2C105,34.8,89,70.2,89,109.4c0,78.3,63.9,141.8,142.7,141.8S374.4,187.7,374.4,109.4z"/>
		<path style="clip-path:url(#SVGID_2_);fill:#1E8DA0;" d="M373.4,109.4c0-38.9-15.9-74-41.5-99.5c-3.2-3.2-6.6-6.2-10.1-9.1v1.1
			H141.7V0.8c-3.5,2.9-6.9,5.9-10.1,9.1C106,35.3,90.1,70.5,90.1,109.4c0,77.7,63.4,140.7,141.6,140.7
			C310,250.1,373.4,187.1,373.4,109.4z"/>
		<path style="clip-path:url(#SVGID_2_);fill:#1E8DA0;" d="M372.3,109.4c0-38.6-15.7-73.5-41.2-98.8c-3.2-3.2-6.5-6.2-10-9v0.2
			H142.4V1.6c-3.5,2.8-6.8,5.9-10,9c-25.4,25.3-41.2,60.2-41.2,98.8c0,77.1,62.9,139.7,140.5,139.7S372.3,186.5,372.3,109.4z"/>
		<path style="clip-path:url(#SVGID_2_);fill:#1E8DA0;" d="M371.2,109.4c0-38.3-15.6-72.9-40.8-98c-3.2-3.1-6.5-6.1-9.9-8.9
			c-1.7-1.4-3.5-2.8-5.3-4.1v3.5H148.3v-3.5c-1.8,1.3-3.5,2.7-5.3,4.1c-3.4,2.8-6.8,5.8-9.9,8.9c-25.2,25.1-40.8,59.7-40.8,98
			c0,76.5,62.4,138.6,139.5,138.6S371.2,185.9,371.2,109.4z"/>
		<path style="clip-path:url(#SVGID_2_);fill:#1E8DA0;" d="M370.1,109.4c0-38-15.5-72.4-40.5-97.2c-6.3-6.2-13.1-11.8-20.5-16.8v6.5
			H154.4v-6.5c-7.4,4.9-14.2,10.6-20.5,16.8c-25,24.9-40.5,59.3-40.5,97.2c0,75.9,62,137.5,138.4,137.5S370.1,185.3,370.1,109.4z"/>
		<path style="clip-path:url(#SVGID_2_);fill:#1E8DA0;" d="M369,109.4c0-37.7-15.4-71.8-40.2-96.5c-6.2-6.2-13-11.8-20.3-16.7v5.6
			H155v-5.6c-7.3,4.9-14.1,10.5-20.3,16.7c-24.8,24.7-40.2,58.8-40.2,96.5c0,75.4,61.5,136.4,137.3,136.4S369,184.7,369,109.4z"/>
		<path style="clip-path:url(#SVGID_2_);fill:#1E8DA0;" d="M368,109.4c0-37.4-15.2-71.2-39.9-95.7C321.9,7.5,315.2,2,307.9-2.9v4.7
			H155.6v-4.7c-7.2,4.9-14,10.4-20.2,16.5C110.8,38.2,95.5,72,95.5,109.4c0,74.8,61,135.4,136.2,135.4S368,184.2,368,109.4z"/>
		<path style="clip-path:url(#SVGID_2_);fill:#1E8DA0;" d="M366.9,109.4c0-37.1-15.1-70.7-39.6-95c-6.1-6.1-12.8-11.6-20-16.4v3.8
			H156.2V-2c-7.2,4.8-13.9,10.3-20,16.4c-24.5,24.3-39.6,57.9-39.6,95c0,74.2,60.5,134.3,135.1,134.3S366.9,183.6,366.9,109.4z"/>
		<path style="clip-path:url(#SVGID_2_);fill:#1E8DA0;" d="M365.8,109.4c0-36.8-15-70.1-39.3-94.2c-6.1-6-12.7-11.5-19.8-16.3v2.9
			H156.8v-2.9C149.7,3.7,143,9.2,137,15.2c-24.3,24.1-39.3,57.4-39.3,94.2c0,73.6,60,133.2,134.1,133.2
			C305.8,242.6,365.8,183,365.8,109.4z"/>
		<path style="clip-path:url(#SVGID_2_);fill:#1E8DA0;" d="M364.7,109.4c0-36.5-14.9-69.5-38.9-93.4c-6-6-12.6-11.4-19.7-16.1v2.1
			H157.4v-2.1C150.3,4.6,143.7,10,137.7,16c-24.1,23.9-38.9,56.9-38.9,93.4c0,73,59.5,132.1,133,132.1S364.7,182.4,364.7,109.4z"/>
		<path style="clip-path:url(#SVGID_2_);fill:#1E8DA0;" d="M363.6,109.4c0-36.2-14.8-69-38.6-92.7c-6-5.9-12.5-11.3-19.5-16v1.2H158
			V0.7c-7,4.7-13.6,10.1-19.5,16c-23.9,23.7-38.6,56.5-38.6,92.7c0,72.4,59.1,131.1,131.9,131.1
			C304.6,240.5,363.6,181.8,363.6,109.4z"/>
		<path style="clip-path:url(#SVGID_2_);fill:#1E8DA0;" d="M362.6,109.4c0-35.9-14.6-68.4-38.3-91.9c-5.9-5.9-12.4-11.2-19.4-15.9
			v0.3H158.6V1.6c-7,4.7-13.4,10-19.4,15.9c-23.7,23.5-38.3,56-38.3,91.9c0,71.8,58.6,130,130.8,130S362.6,181.2,362.6,109.4z"/>
		<path style="clip-path:url(#SVGID_2_);fill:#1E8DA0;" d="M361.5,109.4c0-35.6-14.5-67.8-38-91.2c-5.9-5.8-12.3-11.1-19.2-15.7
			c-3.4-2.3-7-4.5-10.7-6.5v5.8H169.9V-4c-3.7,2-7.2,4.1-10.7,6.5c-6.9,4.6-13.3,9.9-19.2,15.7c-23.5,23.3-38,55.6-38,91.2
			c0,71.2,58.1,128.9,129.7,128.9S361.5,180.6,361.5,109.4z"/>
		<path style="clip-path:url(#SVGID_2_);fill:#1E8DA0;" d="M360.4,109.4c0-35.3-14.4-67.3-37.7-90.4c-5.8-5.8-12.2-11-19-15.6
			c-3.4-2.3-7-4.4-10.6-6.4v4.9H170.4V-3c-3.6,2-7.2,4.1-10.6,6.4c-6.8,4.6-13.2,9.8-19,15.6c-23.3,23.1-37.7,55.1-37.7,90.4
			c0,70.6,57.6,127.8,128.6,127.8S360.4,180,360.4,109.4z"/>
		<path style="clip-path:url(#SVGID_2_);fill:#1E8DA0;" d="M359.3,109.4c0-35-14.3-66.7-37.4-89.6c-5.8-5.7-12.1-10.9-18.9-15.5
			c-3.4-2.3-6.9-4.4-10.5-6.3v3.9H170.9v-3.9c-3.6,1.9-7.1,4.1-10.5,6.3c-6.8,4.6-13.1,9.7-18.9,15.5
			c-23.1,22.9-37.4,54.6-37.4,89.6c0,70,57.1,126.8,127.6,126.8S359.3,179.4,359.3,109.4z"/>
		<path style="clip-path:url(#SVGID_2_);fill:#1E8DA0;" d="M358.2,109.4c0-34.7-14.2-66.1-37-88.9c-5.7-5.7-12-10.8-18.7-15.3
			c-3.4-2.3-6.8-4.4-10.4-6.3v3H171.5v-3c-3.6,1.9-7.1,4-10.4,6.3c-6.7,4.5-13,9.7-18.7,15.3c-22.9,22.7-37,54.2-37,88.9
			c0,69.4,56.6,125.7,126.5,125.7S358.2,178.8,358.2,109.4z"/>
		<path style="clip-path:url(#SVGID_2_);fill:#1E8DA0;" d="M357.2,109.4c0-34.4-14-65.6-36.7-88.1c-5.7-5.6-11.9-10.7-18.6-15.2
			c-3.3-2.2-6.8-4.3-10.3-6.2v2.1H172v-2.1c-3.6,1.9-7,4-10.3,6.2c-6.7,4.5-12.9,9.6-18.6,15.2c-22.7,22.6-36.7,53.7-36.7,88.1
			c0,68.8,56.1,124.6,125.4,124.6S357.2,178.2,357.2,109.4z"/>
		<path style="clip-path:url(#SVGID_2_);fill:#1E8DA0;" d="M356.1,109.4c0-34.1-13.9-65-36.4-87.4C308.4,10.9,295,1.8,280.1-4.4v6.3
			h-96.8v-6.3c-14.9,6.3-28.3,15.3-39.5,26.5c-22.5,22.4-36.4,53.2-36.4,87.4c0,68.2,55.7,123.5,124.3,123.5
			C300.4,232.9,356.1,177.6,356.1,109.4z"/>
		<path style="clip-path:url(#SVGID_2_);fill:#1E8DA0;" d="M355,109.4c0-33.8-13.8-64.4-36.1-86.6c-11.2-11.1-24.4-20.1-39.2-26.2
			v5.3h-95.9v-5.3c-14.7,6.2-28,15.2-39.2,26.2c-22.3,22.2-36.1,52.8-36.1,86.6c0,67.6,55.2,122.5,123.2,122.5S355,177,355,109.4z"
			/>
		<path style="clip-path:url(#SVGID_2_);fill:#1E8DA0;" d="M353.9,109.4c0-33.5-13.7-63.9-35.8-85.8c-11.1-11-24.2-19.9-38.8-26v4.3
			h-95.1v-4.3c-14.6,6.1-27.8,15-38.8,26c-22.1,22-35.8,52.3-35.8,85.8c0,67,54.7,121.4,122.2,121.4
			C299.2,230.8,353.9,176.4,353.9,109.4z"/>
		<path style="clip-path:url(#SVGID_2_);fill:#1E8DA0;" d="M352.8,109.4c0-33.2-13.6-63.3-35.5-85.1c-11-10.9-24-19.7-38.5-25.8v3.3
			h-94.3v-3.3c-14.5,6.1-27.5,14.9-38.5,25.8c-21.9,21.8-35.5,51.9-35.5,85.1c0,66.5,54.2,120.3,121.1,120.3
			S352.8,175.8,352.8,109.4z"/>
		<path style="clip-path:url(#SVGID_2_);fill:#1E8DA0;" d="M351.7,109.4c0-32.9-13.4-62.7-35.1-84.3c-10.9-10.8-23.8-19.5-38.1-25.6
			v2.4H185v-2.4c-14.4,6-27.3,14.8-38.1,25.6c-21.7,21.6-35.1,51.4-35.1,84.3c0,65.9,53.7,119.2,120,119.2S351.7,175.2,351.7,109.4z
			"/>
		<path style="clip-path:url(#SVGID_2_);fill:#1E8DA0;" d="M350.7,109.4c0-32.6-13.3-62.2-34.8-83.6C305.1,15.1,292.3,6.5,278,0.5
			v1.4h-92.6V0.5c-14.2,6-27,14.6-37.8,25.3c-21.5,21.4-34.8,50.9-34.8,83.6c0,65.3,53.2,118.2,118.9,118.2S350.7,174.7,350.7,109.4
			z"/>
		<path style="clip-path:url(#SVGID_2_);fill:#1E8DA0;" d="M349.6,109.4c0-32.3-13.2-61.6-34.5-82.8C304.4,16,291.7,7.4,277.6,1.5
			v0.4h-91.7V1.5c-14.1,5.9-26.8,14.5-37.5,25.1c-21.3,21.2-34.5,50.5-34.5,82.8c0,64.7,52.8,117.1,117.8,117.1
			S349.6,174.1,349.6,109.4z"/>
		<path style="clip-path:url(#SVGID_2_);fill:#1E8DA0;" d="M348.5,109.4c0-32-13.1-61-34.2-82c-10.6-10.5-23.1-19-37.1-24.9
			c-7-2.9-14.3-5.2-21.9-6.8v6.2h-47.1v-6.2c-7.6,1.5-14.9,3.8-21.9,6.8c-14,5.9-26.5,14.4-37.1,24.9c-21.1,21-34.2,50-34.2,82
			c0,64.1,52.3,116,116.8,116S348.5,173.5,348.5,109.4z"/>
		<path style="clip-path:url(#SVGID_2_);fill:#1E8DA0;" d="M347.4,109.4c0-31.7-12.9-60.5-33.9-81.3c-10.5-10.4-22.9-18.8-36.8-24.6
			c-6.9-2.9-14.2-5.2-21.7-6.7v5.1h-46.6v-5.1c-7.5,1.5-14.8,3.8-21.7,6.7c-13.8,5.8-26.3,14.2-36.8,24.6
			c-20.9,20.8-33.9,49.5-33.9,81.3c0,63.5,51.8,115,115.7,115S347.4,172.9,347.4,109.4z"/>
		<ellipse style="clip-path:url(#SVGID_2_);fill:#1E8DA0;" cx="231.7" cy="109.4" rx="114.6" ry="113.9"/>
		<ellipse style="clip-path:url(#SVGID_2_);fill:#1E8DA0;" cx="231.7" cy="109.4" rx="113.5" ry="112.8"/>
		<ellipse style="clip-path:url(#SVGID_2_);fill:#1E8DA0;" cx="231.7" cy="109.4" rx="112.4" ry="111.7"/>
		<ellipse style="clip-path:url(#SVGID_2_);fill:#1E8DA0;" cx="231.7" cy="109.4" rx="111.4" ry="110.7"/>
		<ellipse style="clip-path:url(#SVGID_2_);fill:#1E8DA0;" cx="231.7" cy="109.4" rx="110.3" ry="109.6"/>
		<path style="clip-path:url(#SVGID_2_);fill:#1E8DA0;" d="M340.9,109.4c0-59.9-48.9-108.5-109.2-108.5S122.6,49.5,122.6,109.4
			c0,59.9,48.9,108.5,109.2,108.5S340.9,169.3,340.9,109.4z"/>
		<ellipse style="clip-path:url(#SVGID_2_);fill:#1E8DA0;" cx="231.7" cy="109.4" rx="108.1" ry="107.4"/>
		<ellipse style="clip-path:url(#SVGID_2_);fill:#1E8DA0;" cx="231.7" cy="109.4" rx="107" ry="106.4"/>
		<ellipse style="clip-path:url(#SVGID_2_);fill:#1E8DA0;" cx="231.7" cy="109.4" rx="105.9" ry="105.3"/>
		<ellipse style="clip-path:url(#SVGID_2_);fill:#1E8DA0;" cx="231.7" cy="109.4" rx="104.9" ry="104.2"/>
		<ellipse style="clip-path:url(#SVGID_2_);fill:#1E8DA0;" cx="231.7" cy="109.4" rx="103.8" ry="103.1"/>
		<ellipse style="clip-path:url(#SVGID_2_);fill:#1E8DA0;" cx="231.7" cy="109.4" rx="102.7" ry="102.1"/>
		<ellipse style="clip-path:url(#SVGID_2_);fill:#1E8DA0;" cx="231.7" cy="109.4" rx="101.6" ry="101"/>
		<ellipse style="clip-path:url(#SVGID_2_);fill:#1E8DA0;" cx="231.7" cy="109.4" rx="100.5" ry="99.9"/>
		<ellipse style="clip-path:url(#SVGID_2_);fill:#1E8DA0;" cx="231.7" cy="109.4" rx="99.5" ry="98.8"/>
		<ellipse style="clip-path:url(#SVGID_2_);fill:#1E8DA0;" cx="231.7" cy="109.4" rx="98.4" ry="97.8"/>
		<path style="clip-path:url(#SVGID_2_);fill:#1E8DA0;" d="M329,109.4c0-53.4-43.6-96.7-97.3-96.7s-97.3,43.3-97.3,96.7
			c0,53.4,43.6,96.7,97.3,96.7S329,162.8,329,109.4z"/>
		<ellipse style="clip-path:url(#SVGID_2_);fill:#1E8DA0;" cx="231.7" cy="109.4" rx="96.2" ry="95.6"/>
		<ellipse style="clip-path:url(#SVGID_2_);fill:#1E8DA0;" cx="231.7" cy="109.4" rx="95.1" ry="94.5"/>
		<ellipse style="clip-path:url(#SVGID_2_);fill:#1E8DA0;" cx="231.7" cy="109.4" rx="94.1" ry="93.5"/>
		<ellipse style="clip-path:url(#SVGID_2_);fill:#1E8DA0;" cx="231.7" cy="109.4" rx="93" ry="92.4"/>
		<ellipse style="clip-path:url(#SVGID_2_);fill:#1E8DA0;" cx="231.7" cy="109.4" rx="91.9" ry="91.3"/>
		<ellipse style="clip-path:url(#SVGID_2_);fill:#1E8DA0;" cx="231.7" cy="109.4" rx="90.8" ry="90.2"/>
		<ellipse style="clip-path:url(#SVGID_2_);fill:#1E8DA0;" cx="231.7" cy="109.4" rx="89.7" ry="89.2"/>
		<ellipse style="clip-path:url(#SVGID_2_);fill:#1E8DA0;" cx="231.7" cy="109.4" rx="88.6" ry="88.1"/>
		<ellipse style="clip-path:url(#SVGID_2_);fill:#1E8DA0;" cx="231.7" cy="109.4" rx="87.6" ry="87"/>
		<ellipse style="clip-path:url(#SVGID_2_);fill:#1E8DA0;" cx="231.7" cy="109.4" rx="86.5" ry="85.9"/>
		<ellipse style="clip-path:url(#SVGID_2_);fill:#1E8DA0;" cx="231.7" cy="109.4" rx="85.4" ry="84.9"/>
		<ellipse style="clip-path:url(#SVGID_2_);fill:#1E8DA0;" cx="231.7" cy="109.4" rx="84.3" ry="83.8"/>
		<ellipse style="clip-path:url(#SVGID_2_);fill:#1E8DA0;" cx="231.7" cy="109.4" rx="83.2" ry="82.7"/>
		<ellipse style="clip-path:url(#SVGID_2_);fill:#1E8DA0;" cx="231.7" cy="109.4" rx="82.2" ry="81.6"/>
		<path style="clip-path:url(#SVGID_2_);fill:#1E8DA0;" d="M312.8,109.4c0-44.5-36.3-80.6-81.1-80.6c-44.8,0-81.1,36.1-81.1,80.6
			c0,44.5,36.3,80.6,81.1,80.6C276.5,190,312.8,153.9,312.8,109.4z"/>
		<ellipse style="clip-path:url(#SVGID_2_);fill:#1E8DA0;" cx="231.7" cy="109.4" rx="80" ry="79.5"/>
		<ellipse style="clip-path:url(#SVGID_2_);fill:#1E8DA0;" cx="231.7" cy="109.4" rx="78.9" ry="78.4"/>
		<ellipse style="clip-path:url(#SVGID_2_);fill:#1E8DA0;" cx="231.7" cy="109.4" rx="77.8" ry="77.4"/>
		<ellipse style="clip-path:url(#SVGID_2_);fill:#1E8DA0;" cx="231.7" cy="109.4" rx="76.8" ry="76.3"/>
		<ellipse style="clip-path:url(#SVGID_2_);fill:#1E8DA0;" cx="231.7" cy="109.4" rx="75.7" ry="75.2"/>
		<ellipse style="clip-path:url(#SVGID_2_);fill:#1E8DA0;" cx="231.7" cy="109.4" rx="74.6" ry="74.1"/>
		<ellipse style="clip-path:url(#SVGID_2_);fill:#1E8DA0;" cx="231.7" cy="109.4" rx="73.5" ry="73.1"/>
		<ellipse style="clip-path:url(#SVGID_2_);fill:#1E8DA0;" cx="231.7" cy="109.4" rx="72.4" ry="72"/>
		<ellipse style="clip-path:url(#SVGID_2_);fill:#1E8DA0;" cx="231.7" cy="109.4" rx="71.4" ry="70.9"/>
		<ellipse style="clip-path:url(#SVGID_2_);fill:#1E8DA0;" cx="231.7" cy="109.4" rx="70.3" ry="69.8"/>
		<ellipse style="clip-path:url(#SVGID_2_);fill:#1E8DA0;" cx="231.7" cy="109.4" rx="69.2" ry="68.8"/>
		<ellipse style="clip-path:url(#SVGID_2_);fill:#1E8DA0;" cx="231.7" cy="109.4" rx="68.1" ry="67.7"/>
		<ellipse style="clip-path:url(#SVGID_2_);fill:#1E8DA0;" cx="231.7" cy="109.4" rx="67" ry="66.6"/>
		<ellipse style="clip-path:url(#SVGID_2_);fill:#1E8DA0;" cx="231.7" cy="109.4" rx="65.9" ry="65.5"/>
		<ellipse style="clip-path:url(#SVGID_2_);fill:#1E8DA0;" cx="231.7" cy="109.4" rx="64.9" ry="64.5"/>
		<ellipse style="clip-path:url(#SVGID_2_);fill:#1E8DA0;" cx="231.7" cy="109.4" rx="63.8" ry="63.4"/>
		<ellipse style="clip-path:url(#SVGID_2_);fill:#1E8DA0;" cx="231.7" cy="109.4" rx="62.7" ry="62.3"/>
		<ellipse style="clip-path:url(#SVGID_2_);fill:#1E8DA0;" cx="231.7" cy="109.4" rx="61.6" ry="61.2"/>
		<ellipse style="clip-path:url(#SVGID_2_);fill:#1E8DA0;" cx="231.7" cy="109.4" rx="60.5" ry="60.2"/>
		<ellipse style="clip-path:url(#SVGID_2_);fill:#1E8DA0;" cx="231.7" cy="109.4" rx="59.5" ry="59.1"/>
		<ellipse style="clip-path:url(#SVGID_2_);fill:#1E8DA0;" cx="231.7" cy="109.4" rx="58.4" ry="58"/>
		<ellipse style="clip-path:url(#SVGID_2_);fill:#1E8DA0;" cx="231.7" cy="109.4" rx="57.3" ry="56.9"/>
		<path style="clip-path:url(#SVGID_2_);fill:#1E8DA0;" d="M288,109.4c0-30.9-25.2-55.9-56.2-55.9s-56.2,25-56.2,55.9
			c0,30.9,25.2,55.9,56.2,55.9S288,140.2,288,109.4z"/>
		<ellipse style="clip-path:url(#SVGID_2_);fill:#1E8DA0;" cx="231.7" cy="109.4" rx="55.1" ry="54.8"/>
		<ellipse style="clip-path:url(#SVGID_2_);fill:#1E8DA0;" cx="231.7" cy="109.4" rx="54.1" ry="53.7"/>
		<ellipse style="clip-path:url(#SVGID_2_);fill:#1E8DA0;" cx="231.7" cy="109.4" rx="53" ry="52.6"/>
		<ellipse style="clip-path:url(#SVGID_2_);fill:#1E8DA0;" cx="231.7" cy="109.4" rx="51.9" ry="51.6"/>
		<ellipse style="clip-path:url(#SVGID_2_);fill:#1E8DA0;" cx="231.7" cy="109.4" rx="50.8" ry="50.5"/>
		<ellipse style="clip-path:url(#SVGID_2_);fill:#1E8DA0;" cx="231.7" cy="109.4" rx="49.7" ry="49.4"/>
		<ellipse style="clip-path:url(#SVGID_2_);fill:#1E8DA0;" cx="231.7" cy="109.4" rx="48.6" ry="48.3"/>
		<ellipse style="clip-path:url(#SVGID_2_);fill:#1E8DA0;" cx="231.7" cy="109.4" rx="47.6" ry="47.3"/>
		<ellipse style="clip-path:url(#SVGID_2_);fill:#1E8DA0;" cx="231.7" cy="109.4" rx="46.5" ry="46.2"/>
		<ellipse style="clip-path:url(#SVGID_2_);fill:#1E8DA0;" cx="231.7" cy="109.4" rx="45.4" ry="45.1"/>
		<ellipse style="clip-path:url(#SVGID_2_);fill:#1E8DA0;" cx="231.7" cy="109.4" rx="44.3" ry="44"/>
		<ellipse style="clip-path:url(#SVGID_2_);fill:#1E8DA0;" cx="231.7" cy="109.4" rx="43.2" ry="43"/>
		<ellipse style="clip-path:url(#SVGID_2_);fill:#1E8DA0;" cx="231.7" cy="109.4" rx="42.2" ry="41.9"/>
		<ellipse style="clip-path:url(#SVGID_2_);fill:#1E8DA0;" cx="231.7" cy="109.4" rx="41.1" ry="40.8"/>
		<ellipse style="clip-path:url(#SVGID_2_);fill:#1E8DA0;" cx="231.7" cy="109.4" rx="40" ry="39.8"/>
		<ellipse style="clip-path:url(#SVGID_2_);fill:#1E8DA0;" cx="231.7" cy="109.4" rx="38.9" ry="38.7"/>
		<ellipse style="clip-path:url(#SVGID_2_);fill:#1E8DA0;" cx="231.7" cy="109.4" rx="37.8" ry="37.6"/>
		<ellipse style="clip-path:url(#SVGID_2_);fill:#1E8DA0;" cx="231.7" cy="109.4" rx="36.8" ry="36.5"/>
		<ellipse style="clip-path:url(#SVGID_2_);fill:#1E8DA0;" cx="231.7" cy="109.4" rx="35.7" ry="35.5"/>
		<ellipse style="clip-path:url(#SVGID_2_);fill:#1E8DA0;" cx="231.7" cy="109.4" rx="34.6" ry="34.4"/>
		<ellipse style="clip-path:url(#SVGID_2_);fill:#1E8DA0;" cx="231.7" cy="109.4" rx="33.5" ry="33.3"/>
		<ellipse style="clip-path:url(#SVGID_2_);fill:#1E8DA0;" cx="231.7" cy="109.4" rx="32.4" ry="32.2"/>
		<ellipse style="clip-path:url(#SVGID_2_);fill:#1E8DA0;" cx="231.7" cy="109.4" rx="31.4" ry="31.2"/>
		<ellipse style="clip-path:url(#SVGID_2_);fill:#1E8DA0;" cx="231.7" cy="109.4" rx="30.3" ry="30.1"/>
		<ellipse style="clip-path:url(#SVGID_2_);fill:#1E8DA0;" cx="231.7" cy="109.4" rx="29.2" ry="29"/>
		<ellipse style="clip-path:url(#SVGID_2_);fill:#1E8DA0;" cx="231.7" cy="109.4" rx="28.1" ry="27.9"/>
		<ellipse style="clip-path:url(#SVGID_2_);fill:#1E8DA0;" cx="231.7" cy="109.4" rx="27" ry="26.9"/>
		<ellipse style="clip-path:url(#SVGID_2_);fill:#1E8DA0;" cx="231.7" cy="109.4" rx="25.9" ry="25.8"/>
		<path style="clip-path:url(#SVGID_2_);fill:#1E8DA0;" d="M256.6,109.4c0-13.6-11.1-24.7-24.9-24.7c-13.7,0-24.9,11.1-24.9,24.7
			s11.1,24.7,24.9,24.7C245.5,134.1,256.6,123,256.6,109.4z"/>
		<ellipse style="clip-path:url(#SVGID_2_);fill:#1E8DA0;" cx="231.7" cy="109.4" rx="23.8" ry="23.6"/>
		<ellipse style="clip-path:url(#SVGID_2_);fill:#1E8DA0;" cx="231.7" cy="109.4" rx="22.7" ry="22.6"/>
		<ellipse style="clip-path:url(#SVGID_2_);fill:#1E8DA0;" cx="231.7" cy="109.4" rx="21.6" ry="21.5"/>
		<ellipse style="clip-path:url(#SVGID_2_);fill:#1E8DA0;" cx="231.7" cy="109.4" rx="20.5" ry="20.4"/>
		<ellipse style="clip-path:url(#SVGID_2_);fill:#1E8DA0;" cx="231.7" cy="109.4" rx="19.5" ry="19.3"/>
		<ellipse style="clip-path:url(#SVGID_2_);fill:#1E8DA0;" cx="231.7" cy="109.4" rx="18.4" ry="18.3"/>
		<ellipse style="clip-path:url(#SVGID_2_);fill:#1E8DA0;" cx="231.7" cy="109.4" rx="17.3" ry="17.2"/>
		<ellipse style="clip-path:url(#SVGID_2_);fill:#1E8DA0;" cx="231.7" cy="109.4" rx="16.2" ry="16.1"/>
		<ellipse style="clip-path:url(#SVGID_2_);fill:#1E8DA0;" cx="231.7" cy="109.4" rx="15.1" ry="15"/>
		<ellipse style="clip-path:url(#SVGID_2_);fill:#1E8DA0;" cx="231.7" cy="109.4" rx="14.1" ry="14"/>
		<ellipse style="clip-path:url(#SVGID_2_);fill:#1E8DA0;" cx="231.7" cy="109.4" rx="13" ry="12.9"/>
		<ellipse style="clip-path:url(#SVGID_2_);fill:#1E8DA0;" cx="231.7" cy="109.4" rx="11.9" ry="11.8"/>
		<path style="clip-path:url(#SVGID_2_);fill:#1E8DA0;" d="M242.6,109.4c0-5.9-4.8-10.7-10.8-10.7c-6,0-10.8,4.8-10.8,10.7
			c0,5.9,4.8,10.7,10.8,10.7C237.7,120.1,242.6,115.3,242.6,109.4z"/>
		<ellipse style="clip-path:url(#SVGID_2_);fill:#1E8DA0;" cx="231.7" cy="109.4" rx="9.7" ry="9.7"/>
		<ellipse style="clip-path:url(#SVGID_2_);fill:#1E8DA0;" cx="231.7" cy="109.4" rx="8.6" ry="8.6"/>
		<ellipse style="clip-path:url(#SVGID_2_);fill:#1E8DA0;" cx="231.7" cy="109.4" rx="7.6" ry="7.5"/>
		<ellipse style="clip-path:url(#SVGID_2_);fill:#1E8DA0;" cx="231.7" cy="109.4" rx="6.5" ry="6.4"/>
		<ellipse style="clip-path:url(#SVGID_2_);fill:#1E8DA0;" cx="231.7" cy="109.4" rx="5.4" ry="5.4"/>
		<ellipse style="clip-path:url(#SVGID_2_);fill:#1E8DA0;" cx="231.7" cy="109.4" rx="4.3" ry="4.3"/>
		<ellipse style="clip-path:url(#SVGID_2_);fill:#1E8DA0;" cx="231.7" cy="109.4" rx="3.2" ry="3.2"/>
		<ellipse style="clip-path:url(#SVGID_2_);fill:#1E8DA0;" cx="231.7" cy="109.4" rx="2.2" ry="2.1"/>
		<ellipse style="clip-path:url(#SVGID_2_);fill:#1E8DA0;" cx="231.7" cy="109.4" rx="1.1" ry="1.1"/>
	</g>
</g>
<path id="path9" sodipodi:nodetypes="ccccc" style="fill:#E85C0D;" d="M385.1,88.9L370,84.1c18.6,37.5,37.4,37.2,46.9,58.3
	c-4.7-39.8-10-54.8-72.7-82.4C366.5,70.9,380.1,80.5,385.1,88.9z"/>
<path id="path1351" style="fill:#E85C0D;" d="M109.6,217c-16,6.8-25.5,24.3-26.3,43.6c0.8,25.6,13.4,46.1,37.2,59.7
	c18.9,11.7,39.6,20.9,60.7,26.7c10.3,3.4,20.2,3.3,29.2,3c-17.6-5.9-33.5-16-47.7-30.3c-8.9-9.5-16.2-21-21.8-34.2
	c-5.5-19-7.3-34.4-5.7-46.5V239c0.4-10.5,4.8-16.3,13.2-17.6c-6-0.5-10.2-0.9-12.3-1c-1.9-0.1-3.9-0.2-5.8-0.3
	C118.9,219.5,120.9,217.2,109.6,217z"/>
<path id="path10" sodipodi:nodetypes="ccccccccccccccccccccccccccccccccccccccccc" style="fill:#E85C0D;" d="M329.6,79.1
	c-11.1-2-21-1.3-29.8,2.1c63.1,24.9,93,54.5,89.5,88.7c-4.6-7.2-10.7-11.9-18.6-14.3c9.7,37.5,10.6,68.5,2.8,93
	c-5.4-16.3-10.3-26.1-14.7-29.5c6.1,50.3-2.1,87.5-24.8,111.7c4.3-14.8,6-26.9,5-36.5c-26.6,39.8-56.8,60.4-90.7,61.7
	c-13.4-0.1-26.1-2.1-38-6c-9,0.3-18.7-1.2-29-4.6c-21.1-5.8-41.1-14.5-59.9-26.2c-23.8-13.6-36.1-33.2-36.9-58.9
	c0.8-19.3,9.1-32.3,25.1-39c1.1-0.4,2.3-0.9,3.4-1.3c5.8-0.1,11.5-0.1,17.2,0l0,0c1.9,0.1,3.9,0.2,5.8,0.3c2.1,0.1,6.3,0.4,12.3,1
	c9.4,0.9,20.3,3,32.5,6.5c2-11.7-0.6-23.9-8-36.5c0-0.1,0-0.2,0-0.2c-1.9-4.3-5.9-8.1-12.1-11.5c-7.5-19.1-9.5-37.7-6.3-56l0.1-0.5
	l-0.8-0.8l-34.8,1.2L61.1,114c-13.7,7.6-25.4,17-35.2,28.4c-1.4,1.9-3.2,4.6-5.4,8h-0.1l0.1,0.1C27,163.8,0.3,225.2,7.8,257.2
	c31.7,72.1,79.9,96.5,95.1,98.8c47,55.6,213.4,66.6,257.5-22.8l23.9-24.9c19.1-22.1,22.6-74.3,24.2-129.2c0-0.3,0-0.8,0-1.2
	c-13.6-46-52.7-86.8-31.7-67.6c-14.2-28.8-46.3-44.9-70.5-51.3C318.1,64.3,325.9,71,329.6,79.1z"/>
<path id="path11" style="fill:#E85C0D;" d="M378.8,249.5c4.3,4.5,9.9,4.6,16.9,0.3c6.5-34.7,1.7-62.5-14.4-83.3
	C386.9,192.9,386,220.5,378.8,249.5z"/>
<g id="path12">
	<path sodipodi:nodetypes="ccccccccccccccccccccccccccccccccccccc" style="fill:#E85C0D;" d="M430.4,180.9c-3.6-14.4-9.9-24-17.6-33
		c1.6,5.3,5,22.1,3.8,30.9c10.6,30.5,11.5,65.1,2.4,103.7c11.9-19.9,21.8-42.5,29.7-67.5c-0.3,53.2-139,216.3-210.6,228.5
		l-27.2-42.4c40.5-1.7,77.9-14,112-36.9c0-0.1,0.6-0.4,1.9-1.1c-4.6-5.8-8.4-10.2-11.1-13c-2.8-2.9-8.9-1.1-18.1,5.6
		c-12.9,7.7-23.6,12.9-32.3,15.1c-18.7,15.6-41.1,20.4-67.3,14.7c-13.3,0.1-26.9-1.8-41.2-5.9c2,4.4,4.7,5.9,8.9,9.7
		c-21.6-5.5-44.5-19.5-60.7-33.7c-8.1-2.5-12.6-3.3-27.6-12.8l-0.2,0.1C70.6,342.6,18,268.9,21,226.2c-3.3,4.3-7,17.9-11,40.6
		C8.7,262,8,256.8,7.7,251c0-0.2,0-0.3,0.1-0.5c-3.2-31.2,8.1-58,34.1-80.4c2.1-6.8,6.1-15.4,9-21.1l-0.3-0.8
		c-18,6.9-35.8,24.9-50.4,49.1c-0.1,2.6,0.1,5,0.8,7.3l13.3-10.8c-4.8,12.1-8,25-9.7,38.6c-4.9,44.7,7.6,88.9,37.9,132.5
		c45.4,58.7,102.4,90.1,171,94.3c68.6,4.1,127.2-21.2,175.6-75.7c32.7-40.1,52.8-82,60.3-125.9c7.5-30.1,8.4-56.2,2.5-78.1
		c-2,15.7-4.3,23.7-6.5,24.2c-0.6-26.1-4.5-49.3-11.7-69.8C437.7,156.1,434.8,163.8,430.4,180.9z"/>
</g>
<g id="path14">
	<path style="fill:#E85C0D;" d="M394.3,317.5c-3,10.8-6.9,21-11.4,30.6l7.4,19.4c38.6-48.4,58.1-99.1,58.4-152.3
		c-7.9,25-17.8,47.5-29.7,67.5C411.5,295.3,403.3,306.8,394.3,317.5z"/>
</g>
<path id="path15" style="fill:#E85C0D;" d="M384,347.3c4.6-9.7,8.5-20,11.5-31c2.6-9.6,4.7-19.7,6.1-30.3
	c-7.4,9.3-14.6,18.1-21.7,26.2c-6.3,7.2-12.6,13.8-18.7,20c-12.5,12.4-24.6,22.7-36.1,30.7c-1.3,0.6-2,1-2,1.1
	c-34.6,23.2-72.4,35.7-113.5,37.4l27.6,43C309.8,431.9,358.7,399.6,384,347.3z"/>
<path id="path16" style="fill:#E85C0D;" d="M378.8,313.4c0.4-5.9,0.5-11.7,0.3-17.2c-0.5-16.1-4.3-31.1-11.4-45.4
	c1,28.9-4,53.9-14.9,75.1l7.5,7.2C366.4,327,372.6,320.5,378.8,313.4z"/>
<path id="path17" style="fill:#E85C0D;" d="M128.6,103c-4.4,5.1-7.6,10.8-9.5,17.2c-0.1,1.3-0.1,2.4-0.1,3.5
	c7.9,11.2,19.6,10.8,34.8-1.2c0.4-0.2,0.8-0.5,1.1-0.7c1.8-9.8,4.8-18.1,9.1-25.3l1-0.9c4.3-7.1,12.5-14.7,24.7-22.8
	C167.1,75.5,146.8,85.6,128.6,103z"/>
<path id="path20" style="fill:#BF4617;" d="M154.6,123.8h-0.1c-3.2,18.2-1.2,36.9,6.3,56c11.7-7,25.7-13.2,42.3-18.4
	c-3-4.9-9.2-9.3-18.7-13.2c-3.3-1-7.5-3.9-12.7-8.8l-13.2-12.9l-4-3.1C154.6,123.5,154.6,123.6,154.6,123.8z"/>
<linearGradient id="path21_1_" gradientUnits="userSpaceOnUse" x1="13.0804" y1="679.7938" x2="21.3955" y2="679.7938" gradientTransform="matrix(5.9323 0 0 -3.9204 83.2051 2840.0103)">
	<stop  offset="0" style="stop-color:#F4D6AD"/>
	<stop  offset="1" style="stop-color:#FEF7BD"/>
</linearGradient>
<path id="path21" style="fill:url(#path21_1_);" d="M160.8,179.8c6.2,3.3,10.2,7.2,12.1,11.5c11.5-10.6,21.7-18.3,30.3-23.3
	c3.9-2,6.1-5.1,6.9-9.3c-1.4,1.3-3.8,2.1-7.1,2.7C186.5,166.6,172.5,172.8,160.8,179.8z"/>
<path id="path23" style="fill:#13110C;" d="M184.5,147.8l-0.1,0.3c9.4,3.9,15.7,8.3,18.7,13.2c3.3-0.5,5.7-1.4,7.1-2.7
	c0.1-0.1,0.2-0.2,0.3-0.2l0.1-0.1c0.1-0.1,0.3-0.3,0.4-0.4c2.2-3.3,1.5-6-2.4-8.4C200.6,150,192.5,149.4,184.5,147.8z"/>
<path id="path24" style="fill:#E85C0D;" d="M130.3,220.1L130.3,220.1c-8.4,9-13.1,13-14.2,12c-2.5-0.1-4.6-3.6-6.4-10.7
	c-0.5,43.1,7.5,72.1,24.2,87C117.9,279.3,116.7,249.9,130.3,220.1z"/>
<path id="path27" sodipodi:nodetypes="ccccccccccccc" style="fill:#E85C0D;" d="M135.3,239.1L135.3,239.1c-1.6,12,0.2,27.5,5.7,46.4
	c22,13.7,46.5,18,73.9,12.9c7.9-2,15.1-4.9,21.7-9c5.9-4,11-3.7,15.1,0.9c3.8-1.4,7.3-1.3,10.7,0.3c7.1-1,9.5-4.7,7.2-11
	c-3.4-4.7-8.6-9-15.2-12.8c-14.5-7.5-29.6-6.3-45.4,3.6c-15,8.5-29.5,8.2-43.5-0.9c-9.2-6.3-18.1-14.8-26.7-25.4L135.3,239.1z"/>
<path id="path28" style="fill:#E85C0D;" d="M234.5,275.7c0.1,0,0.2,0,0.2,0c0.9,0,1.6,0,2.1-0.1c5.5,0.1,9.8,1.4,12.7,4
	c3.7,5.4,8.4,7.3,14.3,5.9c5.4-1.2,6-4,1.9-8.3c-7.6-6.3-15.7-10.5-24.2-12.6c-9-0.9-23.7,4.4-44.2,15.8
	C216.2,276.8,228.6,275.2,234.5,275.7z"/>
<path id="path30" sodipodi:nodetypes="cccccccccccccccc" style="fill:#E85C0D;" d="M77.8,144.5c-4.2-2.5-9.6-5-16.2-7.6
	c-3.3-1.1-6.8-2.4-10.7-3.6c-11.9,4.2-22.1,9.9-30.9,17.1c-0.1,0-0.2,0.1-0.2,0.2c-0.1,0-0.1,0.1-0.1,0.1c-0.1,0.1-0.2,0.2-0.2,0.5
	c-2.5,3.9-5.9,9.7-10.3,17.6c-6.8,12.2-8.8,22.3-9.1,31c15.5-25.7,31.1-42.1,50.3-49.4c0-0.1,0.1-0.1,0.2-0.1
	c0.2-0.1,0.5-0.2,0.8-0.2c-0.1,0-0.1,0-0.1,0.1c9-2.4,17.1-3.3,24.2-3l7.3,0.8C81.3,146.8,79.7,145.6,77.8,144.5z"/>
<path id="path31" sodipodi:nodetypes="ccccc" style="fill:#E85C0D;" d="M75.3,106.5l0.1-0.1c-12.9-5.9-21.6-22.7-25.7-50.3
	C33.3,72.2,25.4,101,25.9,142.5L75.3,106.5z"/>
<path id="path32" sodipodi:nodetypes="cccccccccccccccccccc" style="fill:#E85C0D;" d="M7.8,250.4c-0.1,0.2-0.1,0.3-0.1,0.5
	c0.3,5.8,1.1,11,2.3,15.9c4.1-22.7,7.7-36.3,11-40.6c-3,42.7-0.3,74.2,8,94.4l-1-7h-0.1c-0.1-0.5-0.2-1.1-0.2-1.6
	c-0.1-0.4-0.1-0.7-0.1-1.1l-0.4-2.3h0.1c-1.4-12.7-1.1-24.8,0.7-36.1l0.1-0.3c2.1-14.3,4.7-25,7.7-32.3c2.1,14.3,6.8,27.8,13.8,40.6
	c2.1,4,4.6,7.9,7.3,11.8c-12.8-29.1-14.7-56.8-5.9-83.1c0.2-1.2,0.5-2.3,0.8-3.3c2.6-9.5,6.1-18.7,10.8-27.2
	C28.4,201.1,11.1,226.1,7.8,250.4z"/>
<path id="path33" style="fill:#E85C0D;" d="M94.2,166l-16.1-10.3c-6.2,7.4-11.4,15.1-15.7,23c-4.9,8.9-8.5,18.3-11.2,28.1
	c-0.2,1.1-0.6,2.2-0.8,3.4c-2.1,9.2-3.2,18.8-3.4,28.9C58.9,203.9,74.6,179.4,94.2,166z"/>
<path id="path34" style="fill:#E85C0D;" d="M49.7,150.9c-3.1,6-5.7,12.6-7.9,19.8c-2.5,7.5-4.2,15.6-5.1,24
	c12.5-20.2,25.1-36,37.7-47.7c-7-0.3-15.1,0.6-24.1,3c-0.1,0.1-0.1,0.2-0.2,0.3C49.9,150.5,49.8,150.7,49.7,150.9z"/>
<path id="path37" style="fill:#E85C0D;" d="M28.3,272.5H28c-1.8,11.4-2.1,23.4-0.7,36.1h0.1c0.3,1.1,0.6,2.2,1.1,3.2
	c9.5,28.6,23.2,47,40.6,55c-13.3-14.7-22.3-30.6-27.2-47.8C35.1,306.2,30.6,290.8,28.3,272.5z"/>
<path id="path38" style="fill:#E85C0D;" d="M88.2,323.9c0-4,0.3-7.7,1.1-11.4c-2.8,3.6-5.8,6-8.7,6.9c-3.2,1-6.8-1.8-11-8.6
	c-0.4,11.4,1.4,22.2,5.8,32.4c6.3,14.8,17.7,28.5,34.3,41c-1.4-2.1-2.6-4.2-3.8-6.2c-4.4-7.4-7.8-14.6-10.6-21.5
	c-0.1-0.2-0.2-0.4-0.2-0.6c-4.4-11.2-6.7-21.6-6.9-31.1C88.2,324.4,88.2,324.2,88.2,323.9z"/>
<path id="path39" sodipodi:nodetypes="cccccc" style="fill:#E85C0D;" d="M60.6,345.2c5.3,12.7,23.5,33.8,41.8,45.7l-5.9-7
	c-10.4-12.8-16.5-17.4-20.4-31.8c-7.9-6.1-12.9-14-20-24.3C58.9,338.8,58,337.3,60.6,345.2z"/>
<path id="path40" style="fill:#E85C0D;" d="M95.1,355.9c0,0.2,0.1,0.4,0.2,0.6c3.3,3.2,7.2,5.8,11.7,7.9c1.1,0.4,2.3,1,3.4,1.4
	c-2.7-3-5.3-6.3-7.5-9.9c-6-8.8-10.8-19.2-14.7-31.2C88.4,334.3,90.7,344.7,95.1,355.9z"/>
<path id="path41" sodipodi:nodetypes="cccccccc" style="fill:#E85C0D;" d="M251.7,290.3l-0.1-0.1c-4.1-4.5-9.5-6.2-15.1-0.9
	c-6.5,4.1-14.5,6.2-22.5,8.2c-27.3,5.1-51.1,1.6-73.1-12.1c5.6,13.2,12.7,24.9,21.6,34.5c22.2,1.9,42.4-1.9,60.2-10.9L251.7,290.3z"
	/>
<path id="path42" style="fill:#E85C0D;" d="M156.8,402.1c-19.6-11.1-36.2-23.5-49.9-37.6c-4.5-2.1-8.4-4.7-11.7-7.9
	c2.8,6.9,6.2,14,10.6,21.5C118.8,388.2,135.7,396.3,156.8,402.1z"/>
<path id="path43" style="fill:#E85C0D;" d="M263.2,371.1c2.2-1.8,4.4-3.9,6.5-6c-29.4,12.7-57.5,11.8-84.4-2.7
	c6.5,5.5,8.3,9.4,5.1,11.7c-3,2.6-10.4,3.3-22,2.5c9.5,4.2,18.7,7.3,27.3,9.2C222.1,391.5,244.6,386.6,263.2,371.1z"/>
<path id="path18" style="fill:#E85C0D;" d="M119.1,120.1c1.9-6.3,5.1-12,9.5-17.2c-15-5.5-32.8-4.3-53.3,3.5l-2.5,1.8
	c-4.1,1.7-7.9,3.6-11.8,5.7c14,9.4,33.2,12.7,57.9,9.7C119,122.5,119,121.4,119.1,120.1z"/>
<g id="path13">
	<path style="fill:#E85C0D;" d="M408.5,176.8c0,0.4,0,0.9,0,1.2c-1.6,55.8-11.6,95.5-29.8,119.2c0.2,5.6,0.1,11.5-0.3,17.4
		c7.2-8.2,14.4-16.9,21.8-26.3c-1.4,10.7-3.5,20.8-6.1,30.4c9.2-10.8,17.6-22.6,25.2-35.4c9.3-39.3,8.4-74.5-2.4-105.4
		c-2.3-6.5-5-12.8-8.2-19C408.7,165.1,408.6,171,408.5,176.8z"/>
</g>
<path id="path36" sodipodi:nodetypes="cccccccccc" style="fill:#E85C0D;" d="M27.3,272.5c2.4,18.2,7.8,33.7,14.6,46.5
	c5.4,10.1,12,18.7,20,25.7c3.3,2.9,6.8,5.5,10.5,7.8c-10.3-11.6-16.9-22.8-19.7-33.8l0.3,1.3c-0.2-0.3-0.3-0.9-0.4-1.2
	c-4-11.7-4.9-24.4-2.9-38.4C42.6,267.7,38,252.3,35.9,238C32.9,245.3,27.4,263.7,27.3,272.5z"/>
<path style="fill:#E85C0D;" d="M445.2,203.7l-55.9-33.8c3.2-58-89.5-88.7-89.5-88.7c12.8-6.2,29.8-2.1,29.8-2.1
	c-16.6-24.9-51.9-28.6-51.9-28.6c168.4-2.1,169,151.8,169,151.8"/>
</svg>
