<?xml version="1.0" encoding="utf-8"?>
<!-- Generator: Adobe Illustrator 18.0.0, SVG Export Plug-In . SVG Version: 6.00 Build 0)  -->
<!DOCTYPE svg PUBLIC "-//W3C//DTD SVG 1.1//EN" "http://www.w3.org/Graphics/SVG/1.1/DTD/svg11.dtd">
<svg version="1.1" id="Layer_1" xmlns="http://www.w3.org/2000/svg" xmlns:xlink="http://www.w3.org/1999/xlink" x="0px" y="0px"
	 viewBox="0 0 479.2 137" enable-background="new 0 0 479.2 137" xml:space="preserve">
<g>
	<path fill="#FFFFFF" d="M31.6,75.8c0,0,0-0.1,0-0.1c0-0.1,0-0.1,0-0.2c0,0,0-0.1,0-0.1c0-0.1,0-0.1,0-0.2c0,0,0-0.1,0-0.1
		c0-0.1,0-0.1-0.1-0.2c0-0.1,0-0.1-0.1-0.1c0,0,0-0.1-0.1-0.1c0-0.1-0.1-0.1-0.1-0.2c0,0,0-0.1-0.1-0.1c0-0.1-0.1-0.1-0.1-0.2
		c0,0,0-0.1-0.1-0.1c0-0.1-0.1-0.1-0.1-0.2c0,0,0,0-0.1-0.1c-0.1-0.1-0.1-0.1-0.2-0.2c0,0,0,0,0,0c-0.5-0.5-1.2-0.8-1.9-0.9
		c0,0,0,0,0,0c0-0.2-0.2-0.4-0.4-0.4h-3.5c-0.2,0-0.4,0.2-0.4,0.4H4c-1.9,0-3.5,1.6-3.5,3.5v3.6H0.3c-0.2,0-0.3,0.1-0.3,0.3v2.6
		C0,82.9,0.1,83,0.3,83h0.2v1H0.2C0.1,84,0,84.1,0,84.2V86c0,0.1,0.1,0.2,0.2,0.2h0.3v0.7H0.2C0.1,86.9,0,87,0,87.1v1.7
		C0,88.9,0.1,89,0.2,89h0.3v30v13.1c0,1.9,1.6,3.5,3.5,3.5h24.1c1.9,0,3.5-1.6,3.5-3.5V119V76.1C31.7,76,31.6,75.9,31.6,75.8z"/>
	<circle fill="#4E4E4E" cx="16.1" cy="75.2" r="0.5"/>
	<circle fill="#8DD7F3" cx="16.1" cy="75.2" r="0.1"/>
	<path fill="#4E4E4E" d="M19,76.9c0,0.2-0.2,0.4-0.4,0.4h-4.9c-0.2,0-0.4-0.2-0.4-0.4l0,0c0-0.2,0.2-0.4,0.4-0.4h4.9
		C18.8,76.5,19,76.7,19,76.9L19,76.9z"/>
	<linearGradient id="SVGID_1_" gradientUnits="userSpaceOnUse" x1="1.8633" y1="103.6025" x2="30.3282" y2="103.6025">
		<stop  offset="0" style="stop-color:#932A8E"/>
		<stop  offset="1" style="stop-color:#2AAAE2"/>
	</linearGradient>
	<path fill="url(#SVGID_1_)" d="M29.9,79.7H2.3c-0.2,0-0.4,0.2-0.4,0.4V127c0,0.2,0.2,0.4,0.4,0.4h27.6c0.2,0,0.4-0.2,0.4-0.4V80.2
		C30.3,79.9,30.1,79.7,29.9,79.7z"/>
	<path opacity="0.2" fill="#FFFFFF" d="M29.9,79.7H2.3c-0.2,0-0.4,0.2-0.4,0.4l28,47.3c0.2,0,0.4-0.2,0.4-0.4V80.2
		C30.3,79.9,30.1,79.7,29.9,79.7z"/>
	<circle fill="#FFFFFF" cx="16.1" cy="131.2" r="2.5"/>
	<path fill="#E6E6E5" d="M16.1,133.6c1.4,0,2.5-1.1,2.5-2.5h-4.9C13.6,132.5,14.7,133.6,16.1,133.6z"/>
	<path fill="none" stroke="#818181" stroke-width="0.5" stroke-miterlimit="10" d="M17.1,131.7c0,0.2-0.2,0.4-0.4,0.4h-1.1
		c-0.2,0-0.4-0.2-0.4-0.4v-1.1c0-0.2,0.2-0.4,0.4-0.4h1.1c0.2,0,0.4,0.2,0.4,0.4V131.7z"/>
</g>
<g>
	<path fill="#FFFFFF" d="M178.2,131.9c0,2-1.6,3.6-3.6,3.6H94c-2,0-3.6-1.6-3.6-3.6v-108c0-2,1.6-3.6,3.6-3.6h80.6
		c2,0,3.6,1.6,3.6,3.6V131.9z"/>
	<linearGradient id="SVGID_2_" gradientUnits="userSpaceOnUse" x1="98.6875" y1="78.1553" x2="169.92" y2="78.1553">
		<stop  offset="0" style="stop-color:#932A8E"/>
		<stop  offset="1" style="stop-color:#2AAAE2"/>
	</linearGradient>
	<rect x="98.7" y="30.8" fill="url(#SVGID_2_)" width="71.2" height="94.8"/>
	<path opacity="0.2" fill="#FFFFFF" d="M178.2,131.9v-108c0-2-1.6-3.6-3.6-3.6h-50.4l34.3,115.3h16.1
		C176.6,135.6,178.2,133.9,178.2,131.9z"/>
	<circle fill="#010101" cx="134.3" cy="25.7" r="0.8"/>
	<circle fill="#FFFFFF" cx="134.3" cy="130.9" r="2.4"/>
	<path fill="#E6E6E5" d="M134.3,133.3c1.3,0,2.4-1.1,2.4-2.4h-4.8C131.9,132.2,133,133.3,134.3,133.3z"/>
	<path fill="none" stroke="#989898" stroke-miterlimit="10" d="M135.2,131.5c0,0.2-0.1,0.3-0.3,0.3h-1.2c-0.2,0-0.3-0.1-0.3-0.3
		v-1.2c0-0.2,0.2-0.3,0.3-0.3h1.2c0.2,0,0.3,0.1,0.3,0.3V131.5z"/>
	<circle fill="#8DD7F3" cx="134.3" cy="25.7" r="0.1"/>
</g>
<g>
	<path fill="#1A1A1A" d="M450.5,0H270.2c-3.7,0-6.8,3-6.8,6.8v110.6v4.1v5.8c0,0.2,0,0.5,0,0.7c0,0.2,0,0.3,0,0.5c0,1.7,1.4,3,3,3
		h25.8h12.2h112h17.2h20.7c1.7,0,3-1.4,3-3c0-0.2,0-0.3,0-0.5c0-0.2,0-0.5,0-0.7v-5.8v-4.1V6.8C457.3,3,454.2,0,450.5,0z"/>
	<linearGradient id="SVGID_3_" gradientUnits="userSpaceOnUse" x1="269.7657" y1="64.6338" x2="450.8965" y2="64.6338">
		<stop  offset="0" style="stop-color:#932A8E"/>
		<stop  offset="1" style="stop-color:#2AAAE2"/>
	</linearGradient>
	<rect x="269.8" y="7.9" fill="url(#SVGID_3_)" width="181.1" height="113.4"/>
	<circle fill="#333333" cx="360.3" cy="4.8" r="1"/>
	<path opacity="0.2" fill="#FFFFFF" d="M433.5,131.5h20.7c1.7,0,3-1.4,3-3c0-0.2,0-0.3,0-0.5c0-0.2,0-0.5,0-0.7v-5.8v-4.1V6.8
		c0-3.7-3-6.8-6.8-6.8h-99.6l-0.7,0.7L389,129.8l0.6,1.3l26.7,0.3H433.5z"/>
	<path fill="#CDCCCC" d="M450.5,0.7c3.4,0,6.1,2.7,6.1,6.1v110.6v4.1v5.8c0,0.2,0,1.1,0,1.2c0,1.3-1.1,2.4-2.4,2.4h-20.7h-17.2h-112
		h-12.2h-25.8c-1.3,0-2.4-1.1-2.4-2.4c0-0.1,0-1,0-1.2v-5.8v-4.1V6.8c0-3.4,2.7-6.1,6.1-6.1H450.5 M450.5,0H270.2
		c-3.7,0-6.8,3-6.8,6.8v110.6v4.1v5.8c0,0.2,0,1,0,1.2c0,1.7,1.4,3,3,3h25.8h12.2h112h17.2h20.7c1.7,0,3-1.4,3-3c0-0.2,0-0.9,0-1.2
		v-5.8v-4.1V6.8C457.3,3,454.2,0,450.5,0L450.5,0z"/>
	<path fill="#CDCCCC" d="M467.5,129.8h-90.6c-0.1,1.4-1.2,2.6-2.7,2.6h-28c-1.5,0-2.6-1.2-2.7-2.6H249h-7.7v4.1c0,0,2.9,3,11.9,3
		l-0.1-1.1h0.1v1.1h216.4v-0.1c6.7-0.4,9.3-2.6,9.7-2.9h0v-4.1H467.5z"/>
	<path fill="#CDCCCC" d="M374.2,132.4c1.5,0,2.6-1.2,2.7-2.6h-33.3c0.1,1.4,1.2,2.6,2.7,2.6H374.2z"/>
	<path fill="#E6E6E5" d="M242.1,134.6h236.2c0.5-0.3,0.7-0.5,0.8-0.6h0v-4.1h-11.7h-90.6c-0.1,1.4-1.2,2.6-2.7,2.6h-28
		c-1.5,0-2.6-1.2-2.7-2.6H249h-7.7v4.1C241.3,133.9,241.5,134.2,242.1,134.6z"/>
</g>
</svg>
