<?xml version="1.0" encoding="utf-8"?>
<!-- Generator: Adobe Illustrator 18.0.0, SVG Export Plug-In . SVG Version: 6.00 Build 0)  -->
<!DOCTYPE svg PUBLIC "-//W3C//DTD SVG 1.1//EN" "http://www.w3.org/Graphics/SVG/1.1/DTD/svg11.dtd">
<svg version="1.1" id="Layer_1" xmlns="http://www.w3.org/2000/svg" xmlns:xlink="http://www.w3.org/1999/xlink" x="0px" y="0px"
	 viewBox="0 357.1 1000 285.7" enable-background="new 0 357.1 1000 285.7" xml:space="preserve">
<g>
	<path fill="#FFFFFF" d="M65.9,515.2V515c0-0.2,0-0.2,0-0.4v-0.2c0-0.2,0-0.2,0-0.4v-0.2c0-0.2,0-0.2-0.2-0.4c0-0.2,0-0.2-0.2-0.2
		c0,0,0-0.2-0.2-0.2c0-0.2-0.2-0.2-0.2-0.4c0,0,0-0.2-0.2-0.2c0-0.2-0.2-0.2-0.2-0.4c0,0,0-0.2-0.2-0.2c0-0.2-0.2-0.2-0.2-0.4
		c0,0,0,0-0.2-0.2c-0.2-0.2-0.2-0.2-0.4-0.4l0,0c-1-1-2.5-1.7-4-1.9l0,0c0-0.4-0.4-0.8-0.8-0.8h-7.3c-0.4,0-0.8,0.4-0.8,0.8H8.3
		c-4,0-7.3,3.3-7.3,7.3v7.5H0.6c-0.4,0-0.6,0.2-0.6,0.6v5.4c0,0.4,0.2,0.6,0.6,0.6H1v2.1H0.4c-0.2,0-0.4,0.2-0.4,0.4v3.8
		c0,0.2,0.2,0.4,0.4,0.4H1v1.5H0.4c-0.2,0-0.4,0.2-0.4,0.4v3.5c0,0.2,0.2,0.4,0.4,0.4H1v62.6v27.3c0,4,3.3,7.3,7.3,7.3h50.3
		c4,0,7.3-3.3,7.3-7.3v-27.3v-89.5C66.2,515.7,65.9,515.4,65.9,515.2z"/>
	<circle fill="#4E4E4E" cx="33.6" cy="514" r="1"/>
	<circle fill="#8DD7F3" cx="33.6" cy="514" r="0.2"/>
	<path fill="#4E4E4E" d="M39.6,517.5c0,0.4-0.4,0.8-0.8,0.8H28.6c-0.4,0-0.8-0.4-0.8-0.8l0,0c0-0.4,0.4-0.8,0.8-0.8h10.2
		C39.2,516.7,39.6,517.1,39.6,517.5L39.6,517.5z"/>
	
		<linearGradient id="SVGID_1_" gradientUnits="userSpaceOnUse" x1="1.8633" y1="896.45" x2="30.3282" y2="896.45" gradientTransform="matrix(2.0868 0 0 -2.0868 0 2443.8647)">
		<stop  offset="0" style="stop-color:#932A8E"/>
		<stop  offset="1" style="stop-color:#2AAAE2"/>
	</linearGradient>
	<path fill="url(#SVGID_1_)" d="M62.4,523.4H4.8c-0.4,0-0.8,0.4-0.8,0.8v97.9c0,0.4,0.4,0.8,0.8,0.8h57.6c0.4,0,0.8-0.4,0.8-0.8
		v-97.7C63.2,523.8,62.8,523.4,62.4,523.4z"/>
	<path opacity="0.2" fill="#FFFFFF" enable-background="new    " d="M62.4,523.4H4.8c-0.4,0-0.8,0.4-0.8,0.8l58.4,98.7
		c0.4,0,0.8-0.4,0.8-0.8v-97.7C63.2,523.8,62.8,523.4,62.4,523.4z"/>
	<circle fill="#FFFFFF" cx="33.6" cy="630.8" r="5.2"/>
	<path fill="#E6E6E5" d="M33.6,635.9c2.9,0,5.2-2.3,5.2-5.2H28.6C28.4,633.6,30.7,635.9,33.6,635.9z"/>
	<path fill="none" stroke="#818181" stroke-width="0.5" stroke-miterlimit="10" d="M35.7,631.9c0,0.4-0.4,0.8-0.8,0.8h-2.3
		c-0.4,0-0.8-0.4-0.8-0.8v-2.3c0-0.4,0.4-0.8,0.8-0.8h2.3c0.4,0,0.8,0.4,0.8,0.8V631.9z"/>
</g>
<g>
	<path fill="#FFFFFF" d="M391.8,458c4.2,0,7.5,3.3,7.5,7.5l0.2,168.2c0,4.2-3.3,7.5-7.5,7.5l-225.4,0.2c-4.2,0-7.5-3.3-7.5-7.5
		l-0.2-168.2c0-4.2,3.3-7.5,7.5-7.5L391.8,458L391.8,458z"/>
	
		<linearGradient id="SVGID_2_" gradientUnits="userSpaceOnUse" x1="84.3245" y1="922.293" x2="155.5245" y2="922.293" gradientTransform="matrix(-1.997886e-03 -2.0868 -2.0868 1.997886e-03 2204.6707 798.1368)">
		<stop  offset="0" style="stop-color:#932A8E"/>
		<stop  offset="1" style="stop-color:#2AAAE2"/>
	</linearGradient>
	<polygon fill="url(#SVGID_2_)" points="180.9,624.1 180.8,475.5 378.6,475.3 378.8,623.9 	"/>
	<path opacity="0.2" fill="#FFFFFF" enable-background="new    " d="M391.8,458l-225.4,0.2c-4.2,0-7.5,3.3-7.5,7.5l0.1,105.2
		l240.5-71.8l0-33.6C399.5,461.3,395.9,458,391.8,458z"/>
	<circle fill="#010101" cx="170.2" cy="549.8" r="1.7"/>
	<circle fill="#FFFFFF" cx="389.8" cy="549.6" r="5"/>
	<path fill="#E6E6E5" d="M394.8,549.6c0-2.7-2.3-5-5-5l0,10C392.5,554.6,394.8,552.3,394.8,549.6z"/>
	<path fill="none" stroke="#989898" stroke-miterlimit="10" d="M391,547.7c0.4,0,0.6,0.2,0.6,0.6l0,2.5c0,0.4-0.2,0.6-0.6,0.6
		l-2.5,0c-0.4,0-0.6-0.4-0.6-0.6l0-2.5c0-0.4,0.2-0.6,0.6-0.6L391,547.7z"/>
	<circle fill="#8DD7F3" cx="170.2" cy="549.8" r="0.2"/>
</g>
<g>
	<path fill="#1A1A1A" d="M940.1,357.1H563.9c-7.7,0-14.2,6.3-14.2,14.2V602v8.6v12.1c0,0.4,0,1,0,1.5c0,0.4,0,0.6,0,1
		c0,3.5,2.9,6.3,6.3,6.3h53.8h25.5h233.7h35.9H948c3.5,0,6.3-2.9,6.3-6.3c0-0.4,0-0.6,0-1c0-0.4,0-1,0-1.5v-12.1V602V371.2
		C954.3,363.3,947.8,357.1,940.1,357.1z"/>
	
		<linearGradient id="SVGID_3_" gradientUnits="userSpaceOnUse" x1="269.8" y1="935.4" x2="450.9" y2="935.4" gradientTransform="matrix(2.0868 0 0 -2.0868 0 2443.8647)">
		<stop  offset="0" style="stop-color:#932A8E"/>
		<stop  offset="1" style="stop-color:#2AAAE2"/>
	</linearGradient>
	<rect x="563" y="373.5" fill="url(#SVGID_3_)" width="377.9" height="236.6"/>
	<circle fill="#333333" cx="751.9" cy="367.1" r="2.1"/>
	<path opacity="0.2" fill="#FFFFFF" enable-background="new    " d="M904.6,631.5h43.2c3.5,0,6.3-2.9,6.3-6.3c0-0.4,0-0.6,0-1
		c0-0.4,0-1,0-1.5v-12.1V602V371.2c0-7.7-6.3-14.2-14.2-14.2H732.1l-1.5,1.5l81.2,269.4l1.3,2.7l55.7,0.6h35.9V631.5z"/>
	<path fill="#CDCCCC" d="M940.1,358.5c7.1,0,12.7,5.6,12.7,12.7V602v8.6v12.1c0,0.4,0,2.3,0,2.5c0,2.7-2.3,5-5,5h-43.2h-35.9H635
		h-25.5h-53.8c-2.7,0-5-2.3-5-5c0-0.2,0-2.1,0-2.5v-12.1V602V371.2c0-7.1,5.6-12.7,12.7-12.7H940.1 M940.1,357.1H563.9
		c-7.7,0-14.2,6.3-14.2,14.2V602v8.6v12.1c0,0.4,0,2.1,0,2.5c0,3.5,2.9,6.3,6.3,6.3h53.8h25.5h233.7h35.9H948c3.5,0,6.3-2.9,6.3-6.3
		c0-0.4,0-1.9,0-2.5v-12.1V602V371.2C954.3,363.3,947.8,357.1,940.1,357.1L940.1,357.1z"/>
	<path fill="#CDCCCC" d="M975.6,627.9H786.5c-0.2,2.9-2.5,5.4-5.6,5.4h-58.4c-3.1,0-5.4-2.5-5.6-5.4H519.6h-16.1v8.6
		c0,0,6.1,6.3,24.8,6.3l-0.2-2.3h0.2v2.3H980v-0.2c14-0.8,19.4-5.4,20.2-6.1l0,0v-8.6H975.6z"/>
	<path fill="#CDCCCC" d="M780.9,633.3c3.1,0,5.4-2.5,5.6-5.4H717c0.2,2.9,2.5,5.4,5.6,5.4H780.9z"/>
	<path fill="#E6E6E5" d="M505.2,637.9h492.9c1-0.6,1.5-1,1.7-1.3l0,0v-8.6h-24.4H786.3c-0.2,2.9-2.5,5.4-5.6,5.4h-58.4
		c-3.1,0-5.4-2.5-5.6-5.4h-197h-16.1v8.6C503.5,636.5,504,637.1,505.2,637.9z"/>
</g>
</svg>
