<?xml version="1.0" encoding="utf-8"?>
<!-- Generator: Adobe Illustrator 18.0.0, SVG Export Plug-In . SVG Version: 6.00 Build 0)  -->
<!DOCTYPE svg PUBLIC "-//W3C//DTD SVG 1.1//EN" "http://www.w3.org/Graphics/SVG/1.1/DTD/svg11.dtd">
<svg version="1.1" id="Layer_1" xmlns="http://www.w3.org/2000/svg" xmlns:xlink="http://www.w3.org/1999/xlink" x="0px" y="0px"
	 viewBox="0 0 253.7 143.3" enable-background="new 0 0 253.7 143.3" xml:space="preserve">
<g>
	<path fill="#1A1A1A" d="M209.2,0H28.9c-3.7,0-6.8,3-6.8,6.8v110.6v4.1v5.8c0,0.2,0,0.5,0,0.7c0,0.2,0,0.3,0,0.5c0,1.7,1.4,3,3,3
		h25.8h12.2h112h17.2h20.7c1.7,0,3-1.4,3-3c0-0.2,0-0.3,0-0.5c0-0.2,0-0.5,0-0.7v-5.8v-4.1V6.8C216,3,212.9,0,209.2,0z"/>
	<linearGradient id="SVGID_1_" gradientUnits="userSpaceOnUse" x1="28.4698" y1="64.6338" x2="209.6006" y2="64.6338">
		<stop  offset="0" style="stop-color:#932A8E"/>
		<stop  offset="1" style="stop-color:#2AAAE2"/>
	</linearGradient>
	<rect x="28.5" y="7.9" fill="url(#SVGID_1_)" width="181.1" height="113.4"/>
	<circle fill="#333333" cx="119" cy="4.8" r="1"/>
	<path opacity="0.2" fill="#FFFFFF" d="M192.2,131.5h20.7c1.7,0,3-1.4,3-3c0-0.2,0-0.3,0-0.5c0-0.2,0-0.5,0-0.7v-5.8v-4.1V6.8
		c0-3.7-3-6.8-6.8-6.8h-99.6l-0.7,0.7l38.8,129.2l0.6,1.3l26.7,0.3H192.2z"/>
	<path fill="#CDCCCC" d="M209.2,0.7c3.4,0,6.1,2.7,6.1,6.1v110.6v4.1v5.8c0,0.2,0,1.1,0,1.2c0,1.3-1.1,2.4-2.4,2.4h-20.7H175h-112
		H50.9H25.1c-1.3,0-2.4-1.1-2.4-2.4c0-0.1,0-1,0-1.2v-5.8v-4.1V6.8c0-3.4,2.7-6.1,6.1-6.1H209.2 M209.2,0H28.9c-3.7,0-6.8,3-6.8,6.8
		v110.6v4.1v5.8c0,0.2,0,1,0,1.2c0,1.7,1.4,3,3,3h25.8h12.2h112h17.2h20.7c1.7,0,3-1.4,3-3c0-0.2,0-0.9,0-1.2v-5.8v-4.1V6.8
		C216,3,212.9,0,209.2,0L209.2,0z"/>
	<path fill="#CDCCCC" d="M226.2,129.8h-90.6c-0.1,1.4-1.2,2.6-2.7,2.6h-28c-1.5,0-2.6-1.2-2.7-2.6H7.7H0v4.1c0,0,2.9,3,11.9,3
		l-0.1-1.1h0.1v1.1h216.4v-0.1c6.7-0.4,9.3-2.6,9.7-2.9h0v-4.1H226.2z"/>
	<path fill="#CDCCCC" d="M132.9,132.4c1.5,0,2.6-1.2,2.7-2.6h-33.3c0.1,1.4,1.2,2.6,2.7,2.6H132.9z"/>
	<path fill="#E6E6E5" d="M0.8,134.6H237c0.5-0.3,0.7-0.5,0.8-0.6h0v-4.1h-11.7h-90.6c-0.1,1.4-1.2,2.6-2.7,2.6h-28
		c-1.5,0-2.6-1.2-2.7-2.6H7.7H0v4.1C0,133.9,0.2,134.2,0.8,134.6z"/>
</g>
<g>
	<path fill="#FFFFFF" d="M243.9,133.7c0,2-1.6,3.6-3.6,3.6h-80.6c-2,0-3.6-1.6-3.6-3.6v-108c0-2,1.6-3.6,3.6-3.6h80.6
		c2,0,3.6,1.6,3.6,3.6V133.7z"/>
	<linearGradient id="SVGID_2_" gradientUnits="userSpaceOnUse" x1="164.3916" y1="79.9453" x2="235.6241" y2="79.9453">
		<stop  offset="0" style="stop-color:#932A8E"/>
		<stop  offset="1" style="stop-color:#2AAAE2"/>
	</linearGradient>
	<rect x="164.4" y="32.5" fill="url(#SVGID_2_)" width="71.2" height="94.8"/>
	<path opacity="0.2" fill="#FFFFFF" d="M243.9,133.7v-108c0-2-1.6-3.6-3.6-3.6h-50.4l34.3,115.3h16.1
		C242.3,137.4,243.9,135.7,243.9,133.7z"/>
	<circle fill="#010101" cx="200" cy="27.5" r="0.8"/>
	<circle fill="#FFFFFF" cx="200" cy="132.7" r="2.4"/>
	<path fill="#E6E6E5" d="M200,135.1c1.3,0,2.4-1.1,2.4-2.4h-4.8C197.6,134,198.7,135.1,200,135.1z"/>
	<path fill="none" stroke="#989898" stroke-miterlimit="10" d="M200.9,133.3c0,0.2-0.1,0.3-0.3,0.3h-1.2c-0.2,0-0.3-0.1-0.3-0.3
		v-1.2c0-0.2,0.2-0.3,0.3-0.3h1.2c0.2,0,0.3,0.1,0.3,0.3V133.3z"/>
	<circle fill="#8DD7F3" cx="200" cy="27.5" r="0.1"/>
</g>
<g>
	<path fill="#FFFFFF" d="M253.7,83.5c0,0,0-0.1,0-0.1c0-0.1,0-0.1,0-0.2c0,0,0-0.1,0-0.1c0-0.1,0-0.1,0-0.2c0,0,0-0.1,0-0.1
		c0-0.1,0-0.1-0.1-0.2c0-0.1,0-0.1-0.1-0.1c0,0,0-0.1-0.1-0.1c0-0.1-0.1-0.1-0.1-0.2c0,0,0-0.1-0.1-0.1c0-0.1-0.1-0.1-0.1-0.2
		c0,0,0-0.1-0.1-0.1c0-0.1-0.1-0.1-0.1-0.2c0,0,0,0-0.1-0.1c-0.1-0.1-0.1-0.1-0.2-0.2c0,0,0,0,0,0c-0.5-0.5-1.2-0.8-1.9-0.9
		c0,0,0,0,0,0c0-0.2-0.2-0.4-0.4-0.4h-3.5c-0.2,0-0.4,0.2-0.4,0.4h-20.2c-1.9,0-3.5,1.6-3.5,3.5v3.6h-0.2c-0.2,0-0.3,0.1-0.3,0.3
		v2.6c0,0.2,0.1,0.3,0.3,0.3h0.2v1h-0.3c-0.1,0-0.2,0.1-0.2,0.2v1.7c0,0.1,0.1,0.2,0.2,0.2h0.3v0.7h-0.3c-0.1,0-0.2,0.1-0.2,0.2v1.7
		c0,0.1,0.1,0.2,0.2,0.2h0.3v30v13.1c0,1.9,1.6,3.5,3.5,3.5h24.1c1.9,0,3.5-1.6,3.5-3.5v-13.1V83.8
		C253.7,83.7,253.7,83.6,253.7,83.5z"/>
	<circle fill="#4E4E4E" cx="238.2" cy="82.8" r="0.5"/>
	<circle fill="#8DD7F3" cx="238.2" cy="82.8" r="0.1"/>
	<path fill="#4E4E4E" d="M241.1,84.6c0,0.2-0.2,0.4-0.4,0.4h-4.9c-0.2,0-0.4-0.2-0.4-0.4l0,0c0-0.2,0.2-0.4,0.4-0.4h4.9
		C240.9,84.1,241.1,84.3,241.1,84.6L241.1,84.6z"/>
	<linearGradient id="SVGID_3_" gradientUnits="userSpaceOnUse" x1="223.9518" y1="111.2822" x2="252.4166" y2="111.2822">
		<stop  offset="0" style="stop-color:#932A8E"/>
		<stop  offset="1" style="stop-color:#2AAAE2"/>
	</linearGradient>
	<path fill="url(#SVGID_3_)" d="M252,87.4h-27.6c-0.2,0-0.4,0.2-0.4,0.4v46.9c0,0.2,0.2,0.4,0.4,0.4H252c0.2,0,0.4-0.2,0.4-0.4V87.9
		C252.4,87.6,252.2,87.4,252,87.4z"/>
	<path opacity="0.2" fill="#FFFFFF" d="M252,87.4h-27.6c-0.2,0-0.4,0.2-0.4,0.4l28,47.3c0.2,0,0.4-0.2,0.4-0.4V87.9
		C252.4,87.6,252.2,87.4,252,87.4z"/>
	<circle fill="#FFFFFF" cx="238.2" cy="138.9" r="2.5"/>
	<path fill="#E6E6E5" d="M238.2,141.3c1.4,0,2.5-1.1,2.5-2.5h-4.9C235.7,140.2,236.8,141.3,238.2,141.3z"/>
	<path fill="none" stroke="#818181" stroke-width="0.5" stroke-miterlimit="10" d="M239.2,139.4c0,0.2-0.2,0.4-0.4,0.4h-1.1
		c-0.2,0-0.4-0.2-0.4-0.4v-1.1c0-0.2,0.2-0.4,0.4-0.4h1.1c0.2,0,0.4,0.2,0.4,0.4V139.4z"/>
</g>
</svg>
