<?xml version="1.0" encoding="utf-8"?>
<!-- Generator: Adobe Illustrator 18.0.0, SVG Export Plug-In . SVG Version: 6.00 Build 0)  -->
<!DOCTYPE svg PUBLIC "-//W3C//DTD SVG 1.1//EN" "http://www.w3.org/Graphics/SVG/1.1/DTD/svg11.dtd">
<svg version="1.1" id="Layer_1" xmlns="http://www.w3.org/2000/svg" xmlns:xlink="http://www.w3.org/1999/xlink" x="0px" y="0px"
	 viewBox="0 0 393.8 80.2" style="enable-background:new 0 0 393.8 80.2;" xml:space="preserve">
<style type="text/css">
	.st0{fill:#FAAB50;}
	.st1{fill:#ffffff;}
</style>
<path class="st0" d="M388.7,48V26.1c0-2.8-0.6-4.8-1.9-6.2c-1.3-1.4-3.2-2-5.9-2c-3.6,0-6.1,1-7.8,2.9c-1.6,1.9-2.5,5.1-2.5,9.5V48
	h-5.1V0h5.1v14.5c0,1.7-0.1,3.2-0.2,4.3h0.3c1-1.6,2.4-2.9,4.3-3.8c1.9-0.9,4-1.4,6.4-1.4c4.1,0,7.2,1,9.3,2.9
	c2.1,2,3.1,5.1,3.1,9.3v22H388.7L388.7,48z M358.4,44.4c0.9,0,1.8-0.1,2.6-0.2c0.8-0.1,1.5-0.3,2-0.4v3.9c-0.6,0.3-1.4,0.5-2.5,0.7
	c-1.1,0.2-2,0.3-2.9,0.3c-6.5,0-9.8-3.4-9.8-10.3V18.2h-4.8v-2.5l4.8-2.1l2.2-7.2h3v7.8h9.8v4H353V38c0,2,0.5,3.6,1.5,4.7
	C355.4,43.8,356.8,44.4,358.4,44.4L358.4,44.4z M340.9,48h-5.1V0h5.1V48L340.9,48z M314.1,44.4c3.2,0,5.7-0.9,7.5-2.6
	c1.8-1.8,2.7-4.2,2.7-7.3v-3.1l-5.1,0.2c-4.1,0.1-7,0.8-8.8,1.9c-1.8,1.1-2.7,2.9-2.7,5.2c0,1.8,0.6,3.3,1.7,4.2
	C310.6,43.9,312.1,44.4,314.1,44.4L314.1,44.4z M325.7,48l-1-4.8h-0.3c-1.7,2.1-3.4,3.6-5,4.3c-1.7,0.7-3.8,1.1-6.3,1.1
	c-3.4,0-6-0.9-7.9-2.6c-1.9-1.7-2.8-4.2-2.8-7.4c0-6.8,5.5-10.4,16.3-10.7l5.7-0.2v-2.1c0-2.6-0.6-4.6-1.7-5.9
	c-1.2-1.3-3-1.9-5.5-1.9c-2.8,0-6,0.9-9.5,2.6l-1.6-3.9c1.7-0.9,3.5-1.6,5.5-2.1c2-0.5,4-0.8,6-0.8c4,0,7,0.9,8.9,2.7
	c1.9,1.8,2.9,4.6,2.9,8.6v23H325.7L325.7,48z M286.6,17.9c-2.7,0-4.9,0.9-6.5,2.6c-1.6,1.8-2.6,4.2-2.8,7.3H295
	c0-3.2-0.7-5.7-2.1-7.4C291.4,18.7,289.3,17.9,286.6,17.9L286.6,17.9z M288,48.6c-5,0-8.9-1.5-11.8-4.6c-2.9-3-4.3-7.3-4.3-12.7
	c0-5.4,1.3-9.8,4-13c2.7-3.2,6.3-4.8,10.8-4.8c4.2,0,7.6,1.4,10,4.2c2.5,2.8,3.7,6.5,3.7,11V32h-23.3c0.1,4,1.1,7,3,9
	c1.9,2,4.6,3.1,8,3.1c3.6,0,7.2-0.8,10.8-2.3v4.6c-1.8,0.8-3.5,1.4-5.1,1.7C292.3,48.4,290.3,48.6,288,48.6L288,48.6z M266.4,48
	h-5.2V26.8h-23.7V48h-5.2v-45h5.2v19.2h23.7V2.9h5.2V48L266.4,48z"/>
<path class="st1" d="M224.3,44.4c0.9,0,1.8-0.1,2.6-0.2c0.8-0.1,1.5-0.3,2-0.4v3.9c-0.6,0.3-1.4,0.5-2.4,0.7
	c-1.1,0.2-2.1,0.3-2.9,0.3c-6.5,0-9.8-3.4-9.8-10.3V18.2h-4.8v-2.5l4.8-2.1l2.2-7.2h3v7.8h9.8v4h-9.8V38c0,2,0.5,3.6,1.5,4.7
	C221.3,43.8,222.6,44.4,224.3,44.4L224.3,44.4z M202,48V26.1c0-2.8-0.6-4.8-1.9-6.2c-1.3-1.4-3.2-2-5.9-2c-3.6,0-6.1,1-7.8,2.9
	c-1.6,1.9-2.4,5.1-2.4,9.5V48h-5.1V0h5.1v14.5c0,1.7-0.1,3.2-0.2,4.3h0.3c1-1.6,2.4-2.9,4.3-3.8c1.9-0.9,4-1.4,6.4-1.4
	c4.1,0,7.2,1,9.3,2.9c2.1,2,3.1,5.1,3.1,9.3v22H202L202,48z M152.1,25c0,2.4,0.7,4.2,2,5.4c1.3,1.2,3.2,1.8,5.6,1.8
	c5,0,7.5-2.4,7.5-7.3c0-5.1-2.5-7.6-7.6-7.6c-2.4,0-4.3,0.7-5.6,1.9C152.7,20.5,152.1,22.5,152.1,25L152.1,25z M149.3,53.6
	c0,1.8,0.8,3.2,2.3,4.2c1.5,0.9,3.7,1.4,6.6,1.4c4.3,0,7.5-0.6,9.5-1.9c2.1-1.3,3.1-3,3.1-5.2c0-1.8-0.6-3.1-1.7-3.8
	c-1.1-0.7-3.3-1.1-6.4-1.1h-6.1c-2.3,0-4.1,0.6-5.4,1.7C149.9,50,149.3,51.6,149.3,53.6L149.3,53.6z M176.2,14.2v3.2l-6.2,0.7
	c0.6,0.7,1.1,1.7,1.5,2.8c0.5,1.2,0.7,2.5,0.7,3.9c0,3.3-1.1,5.9-3.4,7.9c-2.3,2-5.4,3-9.3,3c-1,0-1.9-0.1-2.8-0.2
	c-2.2,1.1-3.3,2.6-3.3,4.3c0,0.9,0.4,1.6,1.1,2c0.8,0.4,2.1,0.7,3.9,0.7h6c3.7,0,6.5,0.8,8.4,2.3c2,1.5,2.9,3.8,2.9,6.7
	c0,3.7-1.5,6.6-4.5,8.5c-3,2-7.4,2.9-13.1,2.9c-4.4,0-7.8-0.8-10.2-2.5c-2.4-1.7-3.6-4-3.6-7c0-2,0.7-3.8,2-5.3
	c1.3-1.5,3.2-2.5,5.5-3c-0.9-0.4-1.6-1-2.2-1.8c-0.6-0.8-0.9-1.8-0.9-2.9c0-1.3,0.3-2.3,1-3.2c0.7-0.9,1.7-1.8,3.1-2.7
	c-1.7-0.7-3.2-1.9-4.3-3.7c-1.1-1.7-1.6-3.7-1.6-5.9c0-3.7,1.1-6.5,3.3-8.5c2.2-2,5.4-3,9.4-3c1.8,0,3.4,0.2,4.8,0.6H176.2
	L176.2,14.2z M136.4,5c0-1.2,0.3-2,0.9-2.6c0.6-0.5,1.3-0.8,2.2-0.8c0.8,0,1.5,0.3,2.1,0.8c0.6,0.6,0.9,1.4,0.9,2.6
	c0,1.2-0.3,2-0.9,2.6c-0.6,0.6-1.3,0.9-2.1,0.9c-0.9,0-1.6-0.3-2.2-0.9C136.7,7,136.4,6.2,136.4,5L136.4,5z M141.9,48h-5.1V14.2h5.1
	V48L141.9,48z M130.2,48h-5.1V0h5.1V48L130.2,48z M106.8,17.9c-2.7,0-4.9,0.9-6.5,2.6c-1.6,1.8-2.6,4.2-2.9,7.3h17.6
	c0-3.2-0.7-5.7-2.2-7.4C111.5,18.7,109.5,17.9,106.8,17.9L106.8,17.9z M108.2,48.6c-5,0-8.9-1.5-11.8-4.6c-2.9-3-4.3-7.3-4.3-12.7
	c0-5.4,1.3-9.8,4-13c2.7-3.2,6.3-4.8,10.8-4.8c4.2,0,7.6,1.4,10,4.2c2.5,2.8,3.7,6.5,3.7,11V32H97.4c0.1,4,1.1,7,3,9
	c1.9,2,4.6,3.1,8,3.1c3.6,0,7.2-0.8,10.8-2.3v4.6c-1.8,0.8-3.5,1.4-5.1,1.7C112.4,48.4,110.5,48.6,108.2,48.6L108.2,48.6z M82.5,48
	V26c0-2.7-0.6-4.7-1.7-6c-1.1-1.3-2.9-2-5.4-2c-3.2,0-5.5,0.9-7.1,2.7c-1.5,1.8-2.3,4.6-2.3,8.4V48H61V26c0-2.7-0.6-4.7-1.7-6
	c-1.2-1.3-2.9-2-5.4-2c-3.2,0-5.5,1-7,2.9c-1.5,1.9-2.2,5.1-2.2,9.4V48h-5.1V14.2h4.2l0.8,4.6h0.2c1-1.6,2.3-2.9,4.1-3.9
	c1.8-0.9,3.7-1.4,5.9-1.4c5.3,0,8.7,1.9,10.3,5.7h0.2c1-1.8,2.5-3.2,4.4-4.2c1.9-1,4.1-1.5,6.5-1.5c3.8,0,6.7,1,8.6,2.9
	c1.9,2,2.9,5.1,2.9,9.4v22H82.5L82.5,48z M27.3,5c0-1.2,0.3-2,0.9-2.6c0.6-0.5,1.3-0.8,2.2-0.8c0.8,0,1.5,0.3,2.1,0.8
	C33.1,3,33.4,3.9,33.4,5c0,1.2-0.3,2-0.9,2.6c-0.6,0.6-1.3,0.9-2.1,0.9c-0.9,0-1.6-0.3-2.2-0.9C27.6,7,27.3,6.2,27.3,5L27.3,5z
	 M32.9,48h-5.1V14.2h5.1V48L32.9,48z M0,48v-45h5.2v40.3h19.9V48H0L0,48z"/>
<path class="st1" d="M38.1,80.2h-2.4v-4.9h-4.5v4.9h-2.4V68.7h2.4v4.5h4.5v-4.5h2.4V80.2L38.1,80.2z M50.5,80.2H44V68.7h6.6v2h-4.2
	v2.5h3.9v2h-3.9v2.9h4.2V80.2L50.5,80.2z M62.9,80.2l-0.8-2.7h-4.2l-0.8,2.7h-2.6l4-11.5h3l4.1,11.5H62.9L62.9,80.2z M61.5,75.4
	c-0.8-2.5-1.2-3.9-1.3-4.2c-0.1-0.3-0.2-0.6-0.2-0.8c-0.2,0.7-0.7,2.3-1.5,5H61.5L61.5,75.4z M69.9,80.2V68.7h2.4v9.4H77v2H69.9
	L69.9,80.2z M86,80.2h-2.4v-9.4h-3.1v-2h8.6v2H86V80.2L86,80.2z M103.2,80.2h-2.4v-4.9h-4.5v4.9h-2.4V68.7h2.4v4.5h4.5v-4.5h2.4
	V80.2L103.2,80.2z M108.5,79c0-0.4,0.1-0.8,0.3-1c0.2-0.2,0.6-0.3,1-0.3c0.4,0,0.8,0.1,1,0.3c0.2,0.2,0.4,0.6,0.4,1
	c0,0.4-0.1,0.7-0.4,1c-0.2,0.2-0.6,0.4-1,0.4c-0.4,0-0.8-0.1-1-0.4C108.7,79.8,108.5,79.5,108.5,79L108.5,79z M120.8,80.2V68.7h2.4
	v11.4H120.8L120.8,80.2z M139.2,80.2h-3.1l-5-8.7H131c0.1,1.5,0.2,2.6,0.2,3.3v5.4H129V68.7h3.1l5,8.6h0.1c-0.1-1.5-0.1-2.5-0.1-3.2
	v-5.4h2.2V80.2L139.2,80.2z M151.8,77c0,1-0.4,1.8-1.1,2.4c-0.7,0.6-1.8,0.9-3.1,0.9c-1.2,0-2.3-0.2-3.2-0.7v-2.2
	c0.8,0.3,1.4,0.6,2,0.7c0.5,0.1,1,0.2,1.5,0.2c0.5,0,0.9-0.1,1.2-0.3c0.3-0.2,0.4-0.5,0.4-0.9c0-0.2-0.1-0.4-0.2-0.6
	c-0.1-0.2-0.3-0.3-0.6-0.5c-0.2-0.2-0.7-0.4-1.5-0.8c-0.7-0.3-1.2-0.6-1.6-0.9c-0.3-0.3-0.6-0.7-0.8-1.1c-0.2-0.4-0.3-0.9-0.3-1.4
	c0-1,0.3-1.8,1-2.4c0.7-0.6,1.6-0.9,2.8-0.9c0.6,0,1.2,0.1,1.7,0.2c0.5,0.1,1.1,0.3,1.7,0.6l-0.8,1.9c-0.6-0.2-1.1-0.4-1.5-0.5
	c-0.4-0.1-0.8-0.1-1.2-0.1c-0.5,0-0.8,0.1-1.1,0.3c-0.2,0.2-0.4,0.5-0.4,0.8c0,0.2,0,0.4,0.1,0.6c0.1,0.2,0.3,0.3,0.5,0.5
	c0.2,0.2,0.7,0.4,1.5,0.8c1.1,0.5,1.8,1,2.2,1.5C151.6,75.6,151.8,76.2,151.8,77L151.8,77z M166.1,68.7v7.4c0,0.8-0.2,1.6-0.6,2.2
	c-0.4,0.6-0.9,1.1-1.6,1.5c-0.7,0.3-1.6,0.5-2.5,0.5c-1.5,0-2.6-0.4-3.4-1.1c-0.8-0.7-1.2-1.8-1.2-3.1v-7.4h2.4v7
	c0,0.9,0.2,1.5,0.5,1.9c0.4,0.4,0.9,0.6,1.8,0.6c0.8,0,1.4-0.2,1.7-0.6c0.4-0.4,0.5-1.1,0.5-2v-7H166.1L166.1,68.7z M174.3,73.8h0.8
	c0.8,0,1.3-0.1,1.7-0.4c0.4-0.3,0.5-0.7,0.5-1.2c0-0.6-0.2-0.9-0.6-1.2c-0.4-0.2-1-0.3-1.7-0.3h-0.7V73.8L174.3,73.8z M174.3,75.8
	v4.4h-2.4V68.7h3.3c1.5,0,2.7,0.3,3.4,0.8c0.7,0.6,1.1,1.4,1.1,2.6c0,0.7-0.2,1.3-0.6,1.8c-0.4,0.5-0.9,0.9-1.6,1.2
	c1.7,2.6,2.8,4.2,3.4,5h-2.7l-2.7-4.4H174.3L174.3,75.8z M192.4,80.2l-0.8-2.7h-4.2l-0.8,2.7H184l4-11.5h3l4.1,11.5H192.4
	L192.4,80.2z M191,75.4c-0.8-2.5-1.2-3.9-1.3-4.2c-0.1-0.3-0.2-0.6-0.2-0.8c-0.2,0.7-0.7,2.3-1.5,5H191L191,75.4z M209.6,80.2h-3.1
	l-5-8.7h-0.1c0.1,1.5,0.1,2.6,0.1,3.3v5.4h-2.2V68.7h3.1l5,8.6h0.1c-0.1-1.5-0.1-2.5-0.1-3.2v-5.4h2.2V80.2L209.6,80.2z M220.3,70.6
	c-0.9,0-1.6,0.3-2.1,1c-0.5,0.7-0.8,1.7-0.8,2.9c0,2.5,1,3.8,2.9,3.8c0.8,0,1.8-0.2,2.9-0.6v2c-0.9,0.4-2,0.6-3.1,0.6
	c-1.7,0-2.9-0.5-3.8-1.5c-0.9-1-1.3-2.5-1.3-4.3c0-1.2,0.2-2.2,0.6-3.1c0.4-0.9,1.1-1.6,1.9-2.1c0.8-0.5,1.8-0.7,2.9-0.7
	c1.1,0,2.2,0.3,3.3,0.8l-0.8,2c-0.4-0.2-0.9-0.4-1.3-0.5C221.1,70.7,220.7,70.6,220.3,70.6L220.3,70.6z M235.2,80.2h-6.6V68.7h6.6v2
	H231v2.5h3.9v2H231v2.9h4.2V80.2L235.2,80.2z M240,79c0-0.4,0.1-0.8,0.3-1c0.2-0.2,0.6-0.3,1-0.3c0.4,0,0.8,0.1,1,0.3
	c0.2,0.2,0.4,0.6,0.4,1c0,0.4-0.1,0.7-0.4,1c-0.2,0.2-0.6,0.4-1,0.4c-0.4,0-0.8-0.1-1-0.4C240.1,79.8,240,79.5,240,79L240,79z
	 M259,77c0,1-0.4,1.8-1.1,2.4c-0.7,0.6-1.8,0.9-3.1,0.9c-1.2,0-2.3-0.2-3.2-0.7v-2.2c0.8,0.3,1.4,0.6,2,0.7c0.5,0.1,1,0.2,1.5,0.2
	c0.5,0,0.9-0.1,1.2-0.3c0.3-0.2,0.4-0.5,0.4-0.9c0-0.2-0.1-0.4-0.2-0.6c-0.1-0.2-0.3-0.3-0.6-0.5c-0.2-0.2-0.7-0.4-1.5-0.8
	c-0.7-0.3-1.2-0.6-1.6-0.9c-0.4-0.3-0.6-0.7-0.8-1.1c-0.2-0.4-0.3-0.9-0.3-1.4c0-1,0.4-1.8,1-2.4c0.7-0.6,1.6-0.9,2.8-0.9
	c0.6,0,1.2,0.1,1.7,0.2c0.5,0.1,1.1,0.3,1.7,0.6l-0.8,1.9c-0.6-0.2-1.1-0.4-1.5-0.5c-0.4-0.1-0.8-0.1-1.2-0.1
	c-0.5,0-0.8,0.1-1.1,0.3c-0.2,0.2-0.4,0.5-0.4,0.8c0,0.2,0.1,0.4,0.1,0.6c0.1,0.2,0.3,0.3,0.5,0.5c0.2,0.2,0.7,0.4,1.5,0.8
	c1.1,0.5,1.8,1,2.2,1.5C258.8,75.6,259,76.2,259,77L259,77z M264,80.2V68.7h2.4v11.4H264L264,80.2z M277.1,80.2l-2.8-9h-0.1
	c0.1,1.8,0.2,3,0.2,3.6v5.3h-2.2V68.7h3.3l2.7,8.8h0.1l2.9-8.8h3.3v11.4h-2.3v-5.4c0-0.3,0-0.6,0-0.9c0-0.3,0-1.2,0.1-2.7h-0.1
	l-2.9,9H277.1L277.1,80.2z M292.7,74.1h0.8c0.7,0,1.3-0.1,1.7-0.4c0.4-0.3,0.6-0.7,0.6-1.3c0-0.6-0.2-1-0.5-1.3
	c-0.3-0.3-0.8-0.4-1.5-0.4h-1.1V74.1L292.7,74.1z M298.2,72.3c0,1.2-0.4,2.2-1.2,2.8c-0.8,0.6-1.9,1-3.3,1h-1v4.1h-2.4V68.7h3.6
	c1.4,0,2.4,0.3,3.2,0.9C297.9,70.2,298.2,71.1,298.2,72.3L298.2,72.3z M303.3,80.2V68.7h2.4v9.4h4.6v2H303.3L303.3,80.2z
	 M315.4,80.2V68.7h2.4v11.4H315.4L315.4,80.2z M326,80.2h-2.4V68.7h6.6v2H326v2.9h3.9v2H326V80.2L326,80.2z M335.4,80.2V68.7h2.4
	v11.4H335.4L335.4,80.2z M350.2,80.2h-6.6V68.7h6.6v2h-4.2v2.5h3.9v2h-3.9v2.9h4.2V80.2L350.2,80.2z M365.1,74.3
	c0,1.9-0.5,3.3-1.6,4.3c-1.1,1-2.6,1.5-4.6,1.5h-3.2V68.7h3.6c1.9,0,3.3,0.5,4.3,1.5C364.5,71.2,365.1,72.6,365.1,74.3L365.1,74.3z
	 M362.5,74.4c0-2.5-1.1-3.7-3.3-3.7H358v7.4h1C361.4,78.2,362.5,76.9,362.5,74.4L362.5,74.4z"/>
<path class="st0" d="M368.2,78.4c0-0.4,0.1-0.8,0.4-1c0.2-0.2,0.6-0.3,1-0.3c0.4,0,0.8,0.1,1,0.3c0.2,0.2,0.4,0.6,0.4,1
	c0,0.4-0.1,0.7-0.4,1c-0.2,0.2-0.6,0.4-1,0.4c-0.4,0-0.8-0.1-1-0.4C368.4,79.2,368.2,78.9,368.2,78.4L368.2,78.4z"/>
</svg>
