<?xml version="1.0" encoding="utf-8"?>
<!-- Generator: Adobe Illustrator 18.0.0, SVG Export Plug-In . SVG Version: 6.00 Build 0)  -->
<!DOCTYPE svg PUBLIC "-//W3C//DTD SVG 1.1//EN" "http://www.w3.org/Graphics/SVG/1.1/DTD/svg11.dtd">
<svg version="1.1" id="Layer_1" xmlns="http://www.w3.org/2000/svg" xmlns:xlink="http://www.w3.org/1999/xlink" x="0px" y="0px"
	 viewBox="0 0 409.4 94.3" style="enable-background:new 0 0 409.4 94.3;" xml:space="preserve">
<g>
	<path style="fill:#ffffff;" d="M6.7,4.2v38.3h13.1v6.3H0V4.2H6.7z"/>
	<path style="fill:#ffffff;" d="M22.5,9c0-1.1,0.4-2.1,1.2-2.9c0.8-0.8,1.8-1.2,3-1.2c1.2,0,2.2,0.4,3,1.2C30.6,6.8,31,7.8,31,9
		s-0.4,2.2-1.2,3c-0.8,0.8-1.8,1.2-3,1.2c-1.2,0-2.2-0.4-3-1.2C22.9,11.2,22.5,10.2,22.5,9z M30,20.7v28.1h-6.5V20.7H30z"/>
	<path style="fill:#ffffff;" d="M36.8,20.7h6.5v2.6c1.3-1.3,2.3-2.2,3.2-2.7c0.9-0.5,2.1-0.7,3.6-0.7c3.2,0,5.7,1.4,7.5,4.2
		c2-2.8,4.8-4.2,8.3-4.2c6.3,0,9.5,3.8,9.5,11.5v17.4h-6.5V33.2c0-2.7-0.3-4.6-1-5.7c-0.7-1.1-1.8-1.7-3.3-1.7c-1.8,0-3.1,0.7-3.9,2
		c-0.8,1.3-1.2,3.5-1.2,6.5v14.5h-6.5V33.3c0-5-1.4-7.5-4.3-7.5c-1.8,0-3.2,0.7-4,2.1s-1.3,3.5-1.3,6.5v14.5h-6.5V20.7z"/>
	<path style="fill:#ffffff;" d="M107.7,36.3H87.6c0.2,2.3,0.9,4.2,2.3,5.5c1.3,1.3,3,2,5.1,2c1.6,0,3-0.4,4-1.2
		c1-0.8,2.2-2.2,3.6-4.3l5.5,3.1c-0.8,1.4-1.7,2.7-2.7,3.7c-0.9,1-2,1.9-3,2.5c-1.1,0.7-2.2,1.2-3.5,1.5c-1.3,0.3-2.6,0.5-4.1,0.5
		c-4.2,0-7.6-1.3-10.1-4c-2.5-2.7-3.8-6.3-3.8-10.8c0-4.4,1.2-8.1,3.7-10.8c2.5-2.7,5.8-4.1,9.9-4.1c4.1,0,7.4,1.3,9.8,4
		c2.4,2.6,3.6,6.3,3.6,10.9L107.7,36.3z M101,30.9c-0.9-3.5-3.1-5.2-6.6-5.2c-0.8,0-1.5,0.1-2.2,0.4c-0.7,0.2-1.3,0.6-1.9,1
		c-0.6,0.5-1.1,1-1.5,1.6c-0.4,0.6-0.7,1.4-0.9,2.2H101z"/>
	<path style="fill:#ffffff;" d="M119.9,0v48.8h-6.5V0H119.9z"/>
	<path style="fill:#ffffff;" d="M125.6,9c0-1.1,0.4-2.1,1.2-2.9c0.8-0.8,1.8-1.2,3-1.2c1.2,0,2.2,0.4,3,1.2c0.8,0.8,1.2,1.8,1.2,3
		s-0.4,2.2-1.2,3c-0.8,0.8-1.8,1.2-3,1.2c-1.2,0-2.2-0.4-3-1.2C126,11.2,125.6,10.2,125.6,9z M133.1,20.7v28.1h-6.5V20.7H133.1z"/>
	<path style="fill:#ffffff;" d="M167.1,48.1c0,1.3,0,2.5-0.1,3.5c-0.1,1-0.2,1.9-0.4,2.7c-0.5,2.1-1.4,3.9-2.7,5.5
		c-2.5,2.9-6,4.4-10.5,4.4c-3.8,0-6.8-1-9.3-3c-2.5-2.1-3.9-5-4.3-8.7h6.5c0.2,1.4,0.7,2.5,1.2,3.2c1.3,1.8,3.3,2.6,5.9,2.6
		c4.8,0,7.1-2.9,7.1-8.7v-3.9c-2.6,2.6-5.6,4-8.9,4c-3.8,0-7-1.4-9.4-4.2c-2.5-2.8-3.7-6.3-3.7-10.5c0-4.1,1.1-7.6,3.4-10.5
		c2.5-3,5.7-4.6,9.8-4.6c3.5,0,6.5,1.3,8.8,4v-3.2h6.5V48.1z M160.8,34.8c0-2.7-0.7-4.9-2.2-6.5c-1.5-1.7-3.4-2.5-5.7-2.5
		c-2.5,0-4.4,0.9-5.8,2.7c-1.3,1.6-1.9,3.8-1.9,6.3c0,2.6,0.6,4.7,1.9,6.3c1.4,1.8,3.4,2.7,5.8,2.7c2.5,0,4.4-0.9,5.9-2.7
		C160.2,39.5,160.8,37.4,160.8,34.8z"/>
	<path style="fill:#ffffff;" d="M173.8,0h6.5v23c2.3-2.1,4.9-3.1,7.7-3.1c3.2,0,5.7,1,7.6,3.1c1.6,1.8,2.4,4.7,2.4,8.6v17.2h-6.5
		V32.2c0-2.3-0.4-3.9-1.2-4.9c-0.8-1-2.1-1.5-3.9-1.5c-2.3,0-3.9,0.7-4.8,2.1c-0.9,1.4-1.4,3.9-1.4,7.3v13.6h-6.5V0z"/>
	<path style="fill:#ffffff;" d="M211.5,26.7v22.1H205V26.7h-2.8v-6.1h2.8V10.3h6.5v10.3h5.1v6.1H211.5z"/>
</g>
<g>
	<path style="fill:#ffffff;" d="M236.5,0h6.5v23c2.3-2.1,4.9-3.1,7.7-3.1c3.2,0,5.7,1,7.6,3.1c1.6,1.8,2.4,4.7,2.4,8.6v17.2h-6.5
		V32.2c0-2.3-0.4-3.9-1.2-4.9c-0.8-1-2.1-1.5-3.9-1.5c-2.3,0-3.9,0.7-4.8,2.1c-0.9,1.4-1.4,3.9-1.4,7.3v13.6h-6.5V0z"/>
	<path style="fill:#ffffff;" d="M292.3,36.3h-20.2c0.2,2.3,0.9,4.2,2.3,5.5c1.3,1.3,3,2,5.1,2c1.6,0,3-0.4,4-1.2
		c1-0.8,2.2-2.2,3.6-4.3l5.5,3.1c-0.8,1.4-1.7,2.7-2.7,3.7c-0.9,1-2,1.9-3,2.5c-1.1,0.7-2.2,1.2-3.5,1.5c-1.3,0.3-2.6,0.5-4.1,0.5
		c-4.2,0-7.6-1.3-10.1-4c-2.5-2.7-3.8-6.3-3.8-10.8c0-4.4,1.2-8.1,3.7-10.8c2.5-2.7,5.8-4.1,9.9-4.1c4.1,0,7.4,1.3,9.8,4
		c2.4,2.6,3.6,6.3,3.6,10.9L292.3,36.3z M285.7,30.9c-0.9-3.5-3.1-5.2-6.6-5.2c-0.8,0-1.5,0.1-2.2,0.4c-0.7,0.2-1.3,0.6-1.9,1
		c-0.6,0.5-1.1,1-1.5,1.6c-0.4,0.6-0.7,1.4-0.9,2.2H285.7z"/>
	<path style="fill:#ffffff;" d="M317.9,20.7h6.5v28.1h-6.5v-2.9c-2.7,2.5-5.6,3.8-8.6,3.8c-3.9,0-7.1-1.4-9.7-4.2
		c-2.5-2.9-3.8-6.5-3.8-10.7c0-4.2,1.3-7.7,3.8-10.5s5.7-4.2,9.5-4.2c3.3,0,6.2,1.3,8.8,4V20.7z M302.5,34.6c0,2.7,0.7,4.9,2.2,6.6
		c1.5,1.7,3.4,2.6,5.6,2.6c2.4,0,4.4-0.8,5.8-2.5c1.5-1.7,2.2-3.9,2.2-6.5s-0.7-4.8-2.2-6.5c-1.5-1.7-3.4-2.5-5.8-2.5
		c-2.2,0-4.1,0.8-5.6,2.5C303.2,30,302.5,32.1,302.5,34.6z"/>
	<path style="fill:#ffffff;" d="M337.1,0v48.8h-6.5V0H337.1z"/>
	<path style="fill:#ffffff;" d="M350.7,26.7v22.1h-6.5V26.7h-2.8v-6.1h2.8V10.3h6.5v10.3h5.1v6.1H350.7z"/>
	<path style="fill:#ffffff;" d="M358.7,0h6.5v23c2.3-2.1,4.9-3.1,7.7-3.1c3.2,0,5.7,1,7.6,3.1c1.6,1.8,2.4,4.7,2.4,8.6v17.2h-6.5
		V32.2c0-2.3-0.4-3.9-1.2-4.9c-0.8-1-2.1-1.5-3.9-1.5c-2.3,0-3.9,0.7-4.8,2.1c-0.9,1.4-1.4,3.9-1.4,7.3v13.6h-6.5V0z"/>
</g>
<g>
	<path style="fill:#ffffff;" d="M394.5,40.1V49h-2v-8.9h-2.4v-1.8h6.7v1.8H394.5z M397.6,49l2.3-11.7l3.6,7.9l3.6-7.9l2.3,11.7h-2
		l-1-5.9l-2.9,6l-2.9-6l-1,5.9H397.6z"/>
</g>
<g>
	<path style="fill:#ffffff;" d="M0.6,67.1h2.7v9.7c1-0.9,2.1-1.3,3.2-1.3c1.3,0,2.4,0.4,3.2,1.3c0.7,0.8,1,2,1,3.6v7.3H8.1v-7
		c0-1-0.2-1.6-0.5-2.1C7.2,78.2,6.7,78,5.9,78c-1,0-1.6,0.3-2,0.9c-0.4,0.6-0.6,1.6-0.6,3.1v5.8H0.6V67.1z"/>
	<path style="fill:#ffffff;" d="M27.6,82.5h-8.5c0.1,1,0.4,1.8,1,2.3c0.6,0.6,1.3,0.9,2.2,0.9c0.7,0,1.2-0.2,1.7-0.5
		c0.4-0.3,0.9-0.9,1.5-1.8l2.3,1.3c-0.4,0.6-0.7,1.1-1.1,1.6c-0.4,0.4-0.8,0.8-1.3,1.1c-0.5,0.3-0.9,0.5-1.5,0.6
		c-0.5,0.1-1.1,0.2-1.7,0.2c-1.8,0-3.2-0.6-4.3-1.7c-1.1-1.1-1.6-2.7-1.6-4.6c0-1.9,0.5-3.4,1.6-4.6c1.1-1.1,2.4-1.7,4.2-1.7
		c1.8,0,3.1,0.6,4.2,1.7c1,1.1,1.5,2.6,1.5,4.6L27.6,82.5z M24.8,80.2C24.4,78.8,23.5,78,22,78c-0.3,0-0.6,0.1-0.9,0.2
		c-0.3,0.1-0.6,0.2-0.8,0.4c-0.2,0.2-0.4,0.4-0.6,0.7c-0.2,0.3-0.3,0.6-0.4,0.9H24.8z"/>
	<path style="fill:#ffffff;" d="M41.9,75.9h2.8v11.9h-2.8v-1.2c-1.1,1.1-2.4,1.6-3.7,1.6c-1.6,0-3-0.6-4.1-1.8
		c-1.1-1.2-1.6-2.7-1.6-4.5c0-1.8,0.5-3.3,1.6-4.5c1.1-1.2,2.4-1.8,4-1.8c1.4,0,2.6,0.6,3.7,1.7V75.9z M35.4,81.8
		c0,1.1,0.3,2.1,0.9,2.8c0.6,0.7,1.4,1.1,2.4,1.1c1,0,1.8-0.3,2.5-1.1c0.6-0.7,0.9-1.6,0.9-2.8s-0.3-2-0.9-2.8
		c-0.6-0.7-1.4-1.1-2.4-1.1c-0.9,0-1.7,0.4-2.4,1.1C35.7,79.8,35.4,80.7,35.4,81.8z"/>
	<path style="fill:#ffffff;" d="M53.5,67.1v20.6h-2.7V67.1H53.5z"/>
	<path style="fill:#ffffff;" d="M62.6,78.4v9.3h-2.7v-9.3h-1.2v-2.6h1.2v-4.4h2.7v4.4h2.1v2.6H62.6z"/>
	<path style="fill:#ffffff;" d="M69.4,67.1h2.7v9.7c1-0.9,2.1-1.3,3.2-1.3c1.3,0,2.4,0.4,3.2,1.3c0.7,0.8,1,2,1,3.6v7.3h-2.7v-7
		c0-1-0.2-1.6-0.5-2.1c-0.3-0.4-0.9-0.6-1.6-0.6c-1,0-1.6,0.3-2,0.9c-0.4,0.6-0.6,1.6-0.6,3.1v5.8h-2.7V67.1z"/>
	<path style="fill:#ffffff;" d="M85.9,86.4c0-0.5,0.2-0.9,0.5-1.2s0.7-0.5,1.2-0.5c0.5,0,0.9,0.2,1.2,0.5s0.5,0.7,0.5,1.2
		c0,0.5-0.2,0.9-0.5,1.2c-0.3,0.3-0.7,0.5-1.2,0.5c-0.5,0-0.9-0.2-1.2-0.5C86,87.3,85.9,86.9,85.9,86.4z"/>
	<path style="fill:#ffffff;" d="M105.6,70.9c0-0.5,0.2-0.9,0.5-1.2c0.4-0.3,0.8-0.5,1.3-0.5c0.5,0,0.9,0.2,1.3,0.5
		c0.4,0.3,0.5,0.8,0.5,1.3s-0.2,0.9-0.5,1.3c-0.3,0.4-0.8,0.5-1.3,0.5c-0.5,0-0.9-0.2-1.3-0.5C105.7,71.9,105.6,71.4,105.6,70.9z
		 M108.7,75.9v11.9H106V75.9H108.7z"/>
	<path style="fill:#ffffff;" d="M114.8,75.9h2.8V77c1-1,2-1.4,3.2-1.4c1.4,0,2.5,0.4,3.2,1.3c0.7,0.7,1,2,1,3.6v7.3h-2.8v-6.6
		c0-1.2-0.2-2-0.5-2.4c-0.3-0.5-0.9-0.7-1.7-0.7c-0.9,0-1.6,0.3-1.9,0.9c-0.4,0.6-0.6,1.6-0.6,3.1v5.7h-2.8V75.9z"/>
	<path style="fill:#ffffff;" d="M137.9,77.9l-2.3,1.2c-0.4-0.7-0.8-1.1-1.3-1.1c-0.3,0-0.5,0.1-0.6,0.2s-0.3,0.4-0.3,0.6
		c0,0.5,0.5,0.9,1.6,1.4c1.5,0.6,2.4,1.2,2.9,1.7c0.5,0.5,0.8,1.2,0.8,2.1c0,1.1-0.4,2.1-1.3,2.9c-0.8,0.7-1.8,1.1-3,1.1
		c-2,0-3.4-1-4.2-2.9l2.3-1.1c0.3,0.6,0.6,0.9,0.7,1.1c0.3,0.3,0.7,0.5,1.2,0.5c0.9,0,1.4-0.4,1.4-1.3c0-0.5-0.4-0.9-1.1-1.4
		c-0.3-0.1-0.6-0.3-0.8-0.4c-0.3-0.1-0.6-0.3-0.8-0.4c-0.8-0.4-1.4-0.8-1.7-1.2c-0.4-0.5-0.6-1.1-0.6-1.9c0-1,0.4-1.9,1.1-2.6
		c0.7-0.7,1.6-1,2.6-1C136,75.5,137.2,76.3,137.9,77.9z"/>
	<path style="fill:#ffffff;" d="M146.4,75.9v6.8c0,2,0.8,3,2.3,3s2.3-1,2.3-3v-6.8h2.7v6.9c0,1-0.1,1.8-0.4,2.5
		c-0.2,0.6-0.6,1.2-1.2,1.7c-0.9,0.8-2.1,1.2-3.5,1.2c-1.4,0-2.6-0.4-3.5-1.2c-0.6-0.5-1-1.1-1.2-1.7c-0.2-0.6-0.3-1.4-0.3-2.5v-6.9
		H146.4z"/>
	<path style="fill:#ffffff;" d="M159.9,75.9h2.7v1.1c0.5-0.5,1-0.9,1.3-1.1c0.4-0.2,0.9-0.3,1.4-0.3c0.7,0,1.5,0.2,2.3,0.7l-1.3,2.5
		c-0.5-0.4-1-0.6-1.5-0.6c-1.5,0-2.2,1.1-2.2,3.4v6.2h-2.7V75.9z"/>
	<path style="fill:#ffffff;" d="M180.3,75.9h2.8v11.9h-2.8v-1.2c-1.1,1.1-2.4,1.6-3.7,1.6c-1.6,0-3-0.6-4.1-1.8
		c-1.1-1.2-1.6-2.7-1.6-4.5c0-1.8,0.5-3.3,1.6-4.5c1.1-1.2,2.4-1.8,4-1.8c1.4,0,2.6,0.6,3.7,1.7V75.9z M173.8,81.8
		c0,1.1,0.3,2.1,0.9,2.8c0.6,0.7,1.4,1.1,2.4,1.1c1,0,1.8-0.3,2.5-1.1c0.6-0.7,0.9-1.6,0.9-2.8s-0.3-2-0.9-2.8
		c-0.6-0.7-1.4-1.1-2.4-1.1c-0.9,0-1.7,0.4-2.4,1.1C174.1,79.8,173.8,80.7,173.8,81.8z"/>
	<path style="fill:#ffffff;" d="M189.1,75.9h2.8V77c1-1,2-1.4,3.2-1.4c1.4,0,2.5,0.4,3.2,1.3c0.7,0.7,1,2,1,3.6v7.3h-2.8v-6.6
		c0-1.2-0.2-2-0.5-2.4c-0.3-0.5-0.9-0.7-1.7-0.7c-0.9,0-1.6,0.3-1.9,0.9c-0.4,0.6-0.6,1.6-0.6,3.1v5.7h-2.8V75.9z"/>
	<path style="fill:#ffffff;" d="M214.6,76.4V80c-0.6-0.8-1.2-1.3-1.7-1.6c-0.5-0.3-1.1-0.4-1.7-0.4c-1,0-1.9,0.4-2.6,1.1
		c-0.7,0.7-1,1.6-1,2.7c0,1.1,0.3,2,1,2.7c0.7,0.7,1.5,1.1,2.6,1.1c0.7,0,1.2-0.1,1.7-0.4c0.5-0.3,1.1-0.8,1.7-1.6v3.6
		c-1.1,0.6-2.2,0.9-3.3,0.9c-1.8,0-3.4-0.6-4.6-1.8c-1.2-1.2-1.9-2.7-1.9-4.5s0.6-3.3,1.9-4.5c1.3-1.2,2.8-1.8,4.6-1.8
		C212.4,75.5,213.5,75.8,214.6,76.4z"/>
	<path style="fill:#ffffff;" d="M230.9,82.5h-8.5c0.1,1,0.4,1.8,1,2.3c0.6,0.6,1.3,0.9,2.2,0.9c0.7,0,1.2-0.2,1.7-0.5
		c0.4-0.3,0.9-0.9,1.5-1.8l2.3,1.3c-0.4,0.6-0.7,1.1-1.1,1.6c-0.4,0.4-0.8,0.8-1.3,1.1c-0.5,0.3-0.9,0.5-1.5,0.6
		c-0.5,0.1-1.1,0.2-1.7,0.2c-1.8,0-3.2-0.6-4.3-1.7c-1.1-1.1-1.6-2.7-1.6-4.6c0-1.9,0.5-3.4,1.6-4.6c1.1-1.1,2.4-1.7,4.2-1.7
		c1.8,0,3.1,0.6,4.2,1.7c1,1.1,1.5,2.6,1.5,4.6L230.9,82.5z M228.1,80.2c-0.4-1.5-1.3-2.2-2.8-2.2c-0.3,0-0.6,0.1-0.9,0.2
		c-0.3,0.1-0.6,0.2-0.8,0.4c-0.2,0.2-0.4,0.4-0.6,0.7c-0.2,0.3-0.3,0.6-0.4,0.9H228.1z"/>
	<path style="fill:#ffffff;" d="M236.4,86.4c0-0.5,0.2-0.9,0.5-1.2c0.3-0.3,0.7-0.5,1.2-0.5c0.5,0,0.9,0.2,1.2,0.5s0.5,0.7,0.5,1.2
		c0,0.5-0.2,0.9-0.5,1.2c-0.3,0.3-0.7,0.5-1.2,0.5c-0.5,0-0.9-0.2-1.2-0.5C236.6,87.3,236.4,86.9,236.4,86.4z"/>
	<path style="fill:#ffffff;" d="M263.4,77.9l-2.3,1.2c-0.4-0.7-0.8-1.1-1.3-1.1c-0.3,0-0.5,0.1-0.6,0.2c-0.2,0.2-0.3,0.4-0.3,0.6
		c0,0.5,0.5,0.9,1.6,1.4c1.5,0.6,2.4,1.2,2.9,1.7c0.5,0.5,0.8,1.2,0.8,2.1c0,1.1-0.4,2.1-1.3,2.9c-0.8,0.7-1.8,1.1-3,1.1
		c-2,0-3.4-1-4.2-2.9l2.3-1.1c0.3,0.6,0.6,0.9,0.7,1.1c0.3,0.3,0.7,0.5,1.2,0.5c0.9,0,1.4-0.4,1.4-1.3c0-0.5-0.4-0.9-1.1-1.4
		c-0.3-0.1-0.6-0.3-0.8-0.4c-0.3-0.1-0.6-0.3-0.8-0.4c-0.8-0.4-1.4-0.8-1.7-1.2c-0.4-0.5-0.6-1.1-0.6-1.9c0-1,0.4-1.9,1.1-2.6
		c0.7-0.7,1.6-1,2.6-1C261.6,75.5,262.7,76.3,263.4,77.9z"/>
	<path style="fill:#ffffff;" d="M268.9,70.9c0-0.5,0.2-0.9,0.5-1.2c0.4-0.3,0.8-0.5,1.3-0.5c0.5,0,0.9,0.2,1.3,0.5
		c0.4,0.3,0.5,0.8,0.5,1.3s-0.2,0.9-0.5,1.3c-0.3,0.4-0.8,0.5-1.3,0.5c-0.5,0-0.9-0.2-1.3-0.5C269.1,71.9,268.9,71.4,268.9,70.9z
		 M272.1,75.9v11.9h-2.7V75.9H272.1z"/>
	<path style="fill:#ffffff;" d="M278.2,75.9h2.7V77c0.5-0.6,1-0.9,1.4-1.1c0.4-0.2,0.9-0.3,1.5-0.3c1.3,0,2.4,0.6,3.2,1.8
		c0.9-1.2,2-1.8,3.5-1.8c2.7,0,4,1.6,4,4.9v7.4h-2.8v-6.6c0-1.1-0.1-1.9-0.4-2.4c-0.3-0.5-0.8-0.7-1.4-0.7c-0.8,0-1.3,0.3-1.7,0.9
		c-0.3,0.6-0.5,1.5-0.5,2.8v6.1H285v-6.6c0-2.1-0.6-3.2-1.8-3.2c-0.8,0-1.3,0.3-1.7,0.9s-0.5,1.5-0.5,2.7v6.1h-2.7V75.9z"/>
	<path style="fill:#ffffff;" d="M303.3,94.3h-2.7V75.9h2.7v1.3c1.1-1.1,2.3-1.6,3.7-1.6c1.6,0,3,0.6,4,1.8c1.1,1.2,1.6,2.7,1.6,4.5
		c0,1.8-0.5,3.3-1.6,4.5c-1.1,1.2-2.4,1.8-4,1.8c-1.4,0-2.6-0.6-3.7-1.7V94.3z M309.8,81.9c0-1.1-0.3-2.1-0.9-2.8
		c-0.6-0.7-1.4-1.1-2.4-1.1c-1,0-1.8,0.3-2.5,1.1c-0.6,0.7-0.9,1.6-0.9,2.8c0,1.1,0.3,2,0.9,2.8c0.6,0.7,1.4,1.1,2.4,1.1
		c1,0,1.7-0.4,2.4-1.1C309.5,83.9,309.8,83,309.8,81.9z"/>
	<path style="fill:#ffffff;" d="M320.8,67.1v20.6h-2.7V67.1H320.8z"/>
	<path style="fill:#ffffff;" d="M326.5,70.9c0-0.5,0.2-0.9,0.5-1.2c0.4-0.3,0.8-0.5,1.3-0.5c0.5,0,0.9,0.2,1.3,0.5
		c0.4,0.3,0.5,0.8,0.5,1.3s-0.2,0.9-0.5,1.3c-0.3,0.4-0.8,0.5-1.3,0.5c-0.5,0-0.9-0.2-1.3-0.5C326.7,71.9,326.5,71.4,326.5,70.9z
		 M329.7,75.9v11.9h-2.7V75.9H329.7z"/>
	<path style="fill:#ffffff;" d="M338.7,78.4v9.3h-2.8v-9.3h-1v-2.6h1v-4.6c0-1.5,0.3-2.6,0.8-3.2c0.7-0.9,1.8-1.3,3.1-1.3
		c0.5,0,1.1,0.1,1.8,0.4v2.8l-0.3-0.1c-0.6-0.3-1.1-0.5-1.5-0.5c-0.5,0-0.8,0.2-1,0.5c-0.2,0.3-0.3,1-0.3,2v3.9h3v2.6H338.7z"/>
	<path style="fill:#ffffff;" d="M345.9,70.9c0-0.5,0.2-0.9,0.5-1.2c0.4-0.3,0.8-0.5,1.3-0.5c0.5,0,0.9,0.2,1.3,0.5
		c0.4,0.3,0.5,0.8,0.5,1.3s-0.2,0.9-0.5,1.3c-0.3,0.4-0.8,0.5-1.3,0.5c-0.5,0-0.9-0.2-1.3-0.5C346.1,71.9,345.9,71.4,345.9,70.9z
		 M349,75.9v11.9h-2.7V75.9H349z"/>
	<path style="fill:#ffffff;" d="M365.9,82.5h-8.5c0.1,1,0.4,1.8,1,2.3c0.6,0.6,1.3,0.9,2.2,0.9c0.7,0,1.2-0.2,1.7-0.5
		c0.4-0.3,0.9-0.9,1.5-1.8l2.3,1.3c-0.4,0.6-0.7,1.1-1.1,1.6c-0.4,0.4-0.8,0.8-1.3,1.1c-0.5,0.3-0.9,0.5-1.5,0.6s-1.1,0.2-1.7,0.2
		c-1.8,0-3.2-0.6-4.3-1.7c-1.1-1.1-1.6-2.7-1.6-4.6c0-1.9,0.5-3.4,1.6-4.6c1.1-1.1,2.4-1.7,4.2-1.7c1.8,0,3.1,0.6,4.2,1.7
		c1,1.1,1.5,2.6,1.5,4.6L365.9,82.5z M363.1,80.2c-0.4-1.5-1.3-2.2-2.8-2.2c-0.3,0-0.6,0.1-0.9,0.2s-0.6,0.2-0.8,0.4
		c-0.2,0.2-0.4,0.4-0.6,0.7c-0.2,0.3-0.3,0.6-0.4,0.9H363.1z"/>
	<path style="fill:#ffffff;" d="M380.2,67.1h2.8v20.6h-2.8v-1.2c-1.1,1.1-2.3,1.6-3.7,1.6c-1.6,0-3-0.6-4.1-1.8
		c-1.1-1.2-1.6-2.7-1.6-4.5c0-1.8,0.5-3.3,1.6-4.4c1.1-1.2,2.4-1.8,4-1.8c1.4,0,2.6,0.6,3.7,1.7V67.1z M373.6,81.8
		c0,1.1,0.3,2.1,0.9,2.8c0.6,0.7,1.4,1.1,2.4,1.1c1,0,1.8-0.3,2.5-1.1c0.6-0.7,0.9-1.6,0.9-2.8s-0.3-2-0.9-2.8
		c-0.6-0.7-1.4-1.1-2.4-1.1c-0.9,0-1.7,0.4-2.4,1.1C373.9,79.8,373.6,80.7,373.6,81.8z"/>
	<path style="fill:#ffffff;" d="M389.1,86.4c0-0.5,0.2-0.9,0.5-1.2c0.3-0.3,0.7-0.5,1.2-0.5c0.5,0,0.9,0.2,1.2,0.5s0.5,0.7,0.5,1.2
		c0,0.5-0.2,0.9-0.5,1.2c-0.3,0.3-0.7,0.5-1.2,0.5c-0.5,0-0.9-0.2-1.2-0.5C389.3,87.3,389.1,86.9,389.1,86.4z"/>
</g>
</svg>
