<?xml version="1.0" encoding="utf-8"?>
<!-- Generator: Adobe Illustrator 17.1.0, SVG Export Plug-In . SVG Version: 6.00 Build 0)  -->
<!DOCTYPE svg PUBLIC "-//W3C//DTD SVG 1.1//EN" "http://www.w3.org/Graphics/SVG/1.1/DTD/svg11.dtd">
<svg version="1.1" id="Layer_1" xmlns="http://www.w3.org/2000/svg" xmlns:xlink="http://www.w3.org/1999/xlink" x="0px" y="0px"
	 viewBox="0 0 68.6 74" style="enable-background:new 0 0 68.6 74;" xml:space="preserve">
<style type="text/css">
	.st0{fill:#D84839;}
</style>
<g>
	<path class="st0" d="M54,6.1c-5.4-3.7-12-5.8-19.6-5.8c-6.9,0-13,1.7-18.1,4.9c-9.9,6-15.9,17.2-15.9,31.5
		c0,19.4,13.6,37.1,34.1,37.1c20.4,0,34.1-17.7,34.1-37.1C68.5,23,63,12.3,54,6.1z M34.4,6.8c11,0,13.2,15.3,13.2,29.2
		c0,12.9-1.2,30.1-13.1,30.1c-11.8,0-13.4-17.4-13.4-30.3C21.2,21.9,23.4,6.8,34.4,6.8z"/>
</g>
</svg>
