<?xml version="1.0" encoding="utf-8"?>
<!-- Generator: Adobe Illustrator 17.1.0, SVG Export Plug-In . SVG Version: 6.00 Build 0)  -->
<!DOCTYPE svg PUBLIC "-//W3C//DTD SVG 1.1//EN" "http://www.w3.org/Graphics/SVG/1.1/DTD/svg11.dtd">
<svg version="1.1" id="Layer_1" xmlns="http://www.w3.org/2000/svg" xmlns:xlink="http://www.w3.org/1999/xlink" x="0px" y="0px"
	 viewBox="0 0 157.5 172.9" style="enable-background:new 0 0 157.5 172.9;" xml:space="preserve">
<style type="text/css">
	.st0{fill:url(#SVGID_1_);}
	.st1{fill:#EDEDED;}
	.st2{fill:#FFFFFF;}
	.st3{fill:url(#SVGID_2_);}
	.st4{fill:url(#SVGID_3_);}
	.st5{fill:#D1D1D1;}
	.st6{fill:none;}
</style>
<g>
	<linearGradient id="SVGID_1_" gradientUnits="userSpaceOnUse" x1="91.2052" y1="163.624" x2="66.7196" y2="24.7593">
		<stop  offset="1" style="stop-color:#00B0D8"/>
		<stop  offset="1" style="stop-color:#0072A8"/>
		<stop  offset="1" style="stop-color:#0068A0"/>
	</linearGradient>
	<path class="st0" d="M78.9,164.7c-35.7,0-65.8-26.8-69.9-62.3c-2.2-18.7,3-37.1,14.7-51.9c11.7-14.8,28.4-24.1,47.1-26.3
		c2.7-0.3,5.5-0.5,8.3-0.5c35.7,0,65.8,26.8,69.9,62.3c2.2,18.7-3,37.1-14.7,51.9c-11.7,14.8-28.4,24.1-47.1,26.3
		C84.4,164.5,81.6,164.7,78.9,164.7z"/>
	<path class="st1" d="M79,30.7c31.8,0,59.2,23.8,63,56.1c4.1,34.8-20.8,66.4-55.7,70.5c-2.5,0.3-5,0.4-7.5,0.4
		c-31.8,0-59.2-23.8-63-56.1c-4.1-34.8,20.8-66.4,55.7-70.5C74.1,30.8,76.6,30.7,79,30.7 M79,16.7v14V16.7L79,16.7
		c-3,0-6.1,0.2-9.1,0.5c-20.6,2.4-39,12.7-51.8,28.9C5.3,62.4-0.4,82.7,2,103.2c4.6,39,37.6,68.5,76.9,68.5c3,0,6.1-0.2,9.1-0.5
		c20.6-2.4,39-12.7,51.8-28.9c12.8-16.2,18.6-36.5,16.2-57.1C151.4,46.1,118.3,16.7,79,16.7L79,16.7z"/>
</g>
<g>
	<path class="st2" d="M59.6,97C58.3,86.3,66,76.6,76.7,75.4l0,0c10.7-1.3,20.4,6.4,21.6,17.1l0,0c1.3,10.7-6.4,20.4-17.1,21.6l0,0
		C70.5,115.3,60.9,107.7,59.6,97L59.6,97z M60.6,96.9c1.2,10.1,10.4,17.4,20.5,16.2l0,0c10.1-1.2,17.4-10.4,16.2-20.5l0,0
		C96.1,82.4,87,75.2,76.8,76.3l0,0C66.7,77.5,59.4,86.7,60.6,96.9L60.6,96.9z"/>
	<path class="st2" d="M76.6,75.4c2.6-0.3,5.1-0.1,7.4,0.6l-9.8-22l-4.4,23.5C71.8,76.4,74.1,75.7,76.6,75.4z"/>
	<path class="st2" d="M64.2,82.7c0.8-1,1.8-1.8,2.9-2.4l-11.3-4.3l6.8,10C62.9,84.7,63.4,83.6,64.2,82.7z"/>
	<path class="st2" d="M94.3,106.2c-0.8,1-1.8,1.8-2.9,2.4l11.3,4.3l-6.8-10C95.6,104.2,95.1,105.3,94.3,106.2z"/>
	<path class="st2" d="M67.2,109.9c-1-0.8-1.8-1.8-2.4-2.9l-4.3,11.3l10-6.8C69.2,111.2,68.1,110.7,67.2,109.9z"/>
	<path class="st2" d="M90.7,79.8c1,0.8,1.8,1.8,2.4,2.9l4.3-11.3l-10,6.8C88.7,78.5,89.8,79,90.7,79.8z"/>
	<path class="st2" d="M81.4,114c-2.6,0.3-5.1,0.1-7.4-0.6l9.8,22l4.4-23.5C86.1,113,83.8,113.7,81.4,114z"/>
	<path class="st2" d="M60.2,97.1c-0.3-2.6-0.1-5.1,0.6-7.4l-22,9.8l23.5,4.4C61.3,101.8,60.5,99.5,60.2,97.1z"/>
	<path class="st2" d="M97.9,92.4c0.3,2.6,0.1,5.1-0.6,7.4l22-9.8l-23.5-4.4C96.8,87.6,97.6,89.9,97.9,92.4z"/>
</g>
<linearGradient id="SVGID_2_" gradientUnits="userSpaceOnUse" x1="175.8424" y1="-114.2819" x2="165.6017" y2="-124.5226" gradientTransform="matrix(0.999 -4.560000e-02 4.560000e-02 0.999 -66.2723 199.2606)">
	<stop  offset="1" style="stop-color:#EF4136"/>
	<stop  offset="1" style="stop-color:#F15A29"/>
</linearGradient>
<polygon class="st3" points="73.5,89.2 118.8,50.3 84.2,99 "/>
<linearGradient id="SVGID_3_" gradientUnits="userSpaceOnUse" x1="263.383" y1="1680.2091" x2="277.8662" y2="1680.2091" gradientTransform="matrix(0.7386 0.6742 -0.6742 0.7386 991.7949 -1307.485)">
	<stop  offset="1" style="stop-color:#F2F2F2"/>
	<stop  offset="1" style="stop-color:#CCCCCC"/>
</linearGradient>
<polygon class="st4" points="84.2,99 38.9,137.9 73.5,89.2 "/>
<path class="st5" d="M54.8,9.7c0-4.9,4.9-8.6,10.7-8.7l0,0c5.8-0.1,10.8,3.5,10.9,8.5l0,0c0,4.9-4.9,8.6-10.7,8.7l0,0
	C60,18.2,55,14.6,54.8,9.7L54.8,9.7z M60.1,5.6c-1.4,1.1-2.2,2.5-2.1,4l0,0c0,1.5,0.8,2.9,2.2,4l0,0c1.4,1.1,3.4,1.7,5.6,1.7l0,0
	c2.2,0,4.2-0.7,5.5-1.8l0,0c1.4-1.1,2.2-2.5,2.1-4l0,0c0-1.5-0.8-2.9-2.2-4l0,0c-1.4-1.1-3.4-1.7-5.6-1.7l0,0h0l0,0
	C63.4,3.8,61.5,4.5,60.1,5.6L60.1,5.6z"/>
<path class="st6" d="M54.8,9.7c0-4.9,4.9-8.6,10.7-8.7l0,0c5.8-0.1,10.8,3.5,10.9,8.5l0,0c0,4.9-4.9,8.6-10.7,8.7l0,0
	C59.9,18.2,54.9,14.6,54.8,9.7L54.8,9.7z M60.1,5.6c-1.4,1.1-2.2,2.5-2.1,4l0,0c0,1.5,0.8,2.9,2.2,4l0,0c1.4,1.1,3.4,1.7,5.6,1.7
	l0,0c2.2,0,4.2-0.7,5.5-1.8l0,0c1.4-1.1,2.2-2.5,2.1-4l0,0c0-1.5-0.8-2.9-2.2-4l0,0c-1.4-1.1-3.4-1.7-5.6-1.7l0,0l0,0l0,0
	C63.4,3.8,61.4,4.5,60.1,5.6L60.1,5.6z"/>
</svg>
