<?xml version="1.0" encoding="utf-8"?>
<!-- Generator: Adobe Illustrator 16.0.4, SVG Export Plug-In . SVG Version: 6.00 Build 0)  -->
<!DOCTYPE svg PUBLIC "-//W3C//DTD SVG 1.1//EN" "http://www.w3.org/Graphics/SVG/1.1/DTD/svg11.dtd">
<svg version="1.1" id="Layer_1" xmlns="http://www.w3.org/2000/svg" xmlns:xlink="http://www.w3.org/1999/xlink" x="0px" y="0px" viewBox="0 0 288 288" enable-background="new 0 0 288 288" xml:space="preserve">
<rect fill="#DCDBC7" width="288" height="288"/>
<g enable-background="new    ">
	<path fill="#231F20" d="M53.587,62.295l-13.5-20.742v16.646c0,0.562,0.079,1.014,0.237,1.354s0.369,0.601,0.633,0.782
		s0.577,0.302,0.94,0.36s0.744,0.088,1.143,0.088h0.475v1.512h-9.035v-1.512h0.457c0.41,0,0.794-0.029,1.151-0.088
		s0.671-0.179,0.94-0.36s0.48-0.442,0.633-0.782s0.229-0.791,0.229-1.354V40.551c0-0.527-0.079-0.952-0.237-1.274
		s-0.372-0.571-0.642-0.747s-0.583-0.29-0.94-0.343s-0.735-0.079-1.134-0.079h-0.457v-1.512h6.592l12.885,19.898V40.551
		c0-0.527-0.079-0.952-0.237-1.274s-0.372-0.571-0.642-0.747s-0.583-0.29-0.94-0.343s-0.735-0.079-1.134-0.079h-0.475v-1.512h9.035
		v1.512h-0.457c-0.41,0-0.794,0.029-1.151,0.088s-0.671,0.179-0.94,0.36s-0.48,0.442-0.633,0.782s-0.229,0.791-0.229,1.354v21.604
		H53.587z"/>
	<path fill="#231F20" d="M79.374,52.609c0,3.387-0.718,5.906-2.153,7.559s-3.536,2.479-6.302,2.479
		c-1.301,0-2.467-0.205-3.498-0.615S65.514,61,64.793,60.168s-1.271-1.878-1.652-3.138s-0.571-2.733-0.571-4.421
		c0-3.363,0.712-5.865,2.136-7.506s3.53-2.461,6.319-2.461c1.301,0,2.467,0.202,3.498,0.606s1.907,1.02,2.628,1.846
		s1.271,1.863,1.652,3.111S79.374,50.922,79.374,52.609z M66.05,52.609c0,1.336,0.088,2.514,0.264,3.533s0.46,1.872,0.853,2.558
		s0.902,1.204,1.529,1.556s1.392,0.527,2.294,0.527s1.664-0.176,2.285-0.527s1.125-0.87,1.512-1.556s0.665-1.538,0.835-2.558
		s0.255-2.197,0.255-3.533s-0.088-2.508-0.264-3.516s-0.457-1.849-0.844-2.522s-0.894-1.181-1.521-1.521s-1.392-0.51-2.294-0.51
		s-1.664,0.17-2.285,0.51s-1.125,0.847-1.512,1.521s-0.668,1.515-0.844,2.522S66.05,51.273,66.05,52.609z"/>
	<path fill="#231F20" d="M90.905,60.748c0.434,0,0.832-0.023,1.195-0.07s0.732-0.105,1.107-0.176v1.582
		c-0.152,0.07-0.352,0.141-0.598,0.211s-0.513,0.132-0.8,0.185s-0.589,0.094-0.905,0.123s-0.615,0.044-0.896,0.044
		c-0.914,0-1.699-0.097-2.355-0.29s-1.195-0.507-1.617-0.94s-0.735-1.008-0.94-1.723s-0.308-1.588-0.308-2.619V45.051h-2.742v-1.441
		c0.434,0,0.911-0.088,1.433-0.264s0.981-0.469,1.38-0.879c0.41-0.445,0.741-0.976,0.993-1.591s0.472-1.386,0.659-2.312h1.652v4.43
		h4.711v2.057h-4.711V57.18c0,1.23,0.249,2.133,0.747,2.707S90.073,60.748,90.905,60.748z"/>
	<path fill="#231F20" d="M112.825,52.609c0,3.387-0.718,5.906-2.153,7.559s-3.536,2.479-6.302,2.479
		c-1.301,0-2.467-0.205-3.498-0.615S98.965,61,98.244,60.168s-1.271-1.878-1.652-3.138s-0.571-2.733-0.571-4.421
		c0-3.363,0.712-5.865,2.136-7.506s3.53-2.461,6.319-2.461c1.301,0,2.467,0.202,3.498,0.606s1.907,1.02,2.628,1.846
		s1.271,1.863,1.652,3.111S112.825,50.922,112.825,52.609z M99.501,52.609c0,1.336,0.088,2.514,0.264,3.533s0.46,1.872,0.853,2.558
		s0.902,1.204,1.529,1.556s1.392,0.527,2.294,0.527s1.664-0.176,2.285-0.527s1.125-0.87,1.512-1.556s0.665-1.538,0.835-2.558
		s0.255-2.197,0.255-3.533s-0.088-2.508-0.264-3.516s-0.457-1.849-0.844-2.522s-0.894-1.181-1.521-1.521s-1.392-0.51-2.294-0.51
		s-1.664,0.17-2.285,0.51s-1.125,0.847-1.512,1.521s-0.668,1.515-0.844,2.522S99.501,51.273,99.501,52.609z"/>
	<path fill="#231F20" d="M133.058,62.646c-1.172,0-2.206-0.123-3.103-0.369s-1.646-0.589-2.25-1.028s-1.058-0.973-1.362-1.6
		s-0.457-1.315-0.457-2.065c0-0.727,0.226-1.312,0.677-1.758s1.093-0.668,1.925-0.668c0.035,0.75,0.149,1.471,0.343,2.162
		s0.483,1.301,0.87,1.828s0.879,0.949,1.477,1.266s1.318,0.475,2.162,0.475c1.617,0,2.88-0.39,3.788-1.169s1.362-1.901,1.362-3.366
		c0-0.656-0.094-1.236-0.281-1.74s-0.498-0.97-0.932-1.397s-1.005-0.838-1.714-1.23s-1.591-0.806-2.646-1.239
		c-1.113-0.457-2.086-0.946-2.918-1.468s-1.523-1.102-2.074-1.74s-0.961-1.351-1.23-2.136s-0.404-1.67-0.404-2.654
		c0-1.031,0.196-1.951,0.589-2.76s0.94-1.491,1.644-2.048s1.535-0.981,2.496-1.274s2.01-0.439,3.146-0.439
		c1.078,0,2.033,0.111,2.865,0.334s1.535,0.521,2.109,0.896s1.011,0.806,1.31,1.292s0.448,0.993,0.448,1.521
		c0,0.773-0.255,1.356-0.765,1.749s-1.198,0.589-2.065,0.589c0-0.562-0.067-1.116-0.202-1.661s-0.36-1.031-0.677-1.459
		s-0.732-0.776-1.248-1.046s-1.154-0.404-1.916-0.404c-0.691,0-1.31,0.097-1.854,0.29s-1.005,0.469-1.38,0.826
		s-0.662,0.788-0.861,1.292s-0.299,1.066-0.299,1.688c0,0.715,0.094,1.345,0.281,1.89s0.501,1.037,0.94,1.477
		s1.017,0.855,1.731,1.248s1.594,0.8,2.637,1.222c1.055,0.434,1.995,0.891,2.821,1.371s1.526,1.017,2.101,1.608
		s1.014,1.254,1.318,1.986s0.457,1.562,0.457,2.487c0,1.137-0.208,2.153-0.624,3.05s-1.011,1.655-1.784,2.276
		s-1.705,1.093-2.795,1.415S134.405,62.646,133.058,62.646z"/>
	<path fill="#231F20" d="M154.081,62.646c-1.301,0-2.47-0.22-3.507-0.659s-1.913-1.081-2.628-1.925s-1.263-1.878-1.644-3.103
		s-0.571-2.616-0.571-4.175c0-3.363,0.691-5.895,2.074-7.594s3.352-2.549,5.906-2.549c1.16,0,2.203,0.182,3.129,0.545
		s1.711,0.905,2.355,1.626s1.14,1.617,1.485,2.689s0.519,2.317,0.519,3.735v1.652h-11.988c0.023,1.312,0.155,2.44,0.396,3.384
		s0.586,1.72,1.037,2.329s1.005,1.058,1.661,1.345s1.412,0.431,2.268,0.431c0.621,0,1.198-0.07,1.731-0.211s1.017-0.328,1.45-0.562
		s0.817-0.501,1.151-0.8s0.606-0.612,0.817-0.94c0.164,0.07,0.319,0.217,0.466,0.439s0.22,0.486,0.22,0.791
		c0,0.363-0.129,0.753-0.387,1.169s-0.65,0.8-1.178,1.151s-1.187,0.645-1.978,0.879S155.147,62.646,154.081,62.646z M153.642,44.576
		c-1.336,0-2.364,0.542-3.085,1.626s-1.146,2.669-1.274,4.755h8.279c0-0.949-0.07-1.816-0.211-2.602s-0.363-1.459-0.668-2.021
		s-0.706-0.996-1.204-1.301S154.368,44.576,153.642,44.576z"/>
	<path fill="#231F20" d="M174.595,62.295h-10.389v-1.512h0.105c0.41,0,0.794-0.029,1.151-0.088s0.668-0.179,0.932-0.36
		s0.475-0.442,0.633-0.782s0.237-0.791,0.237-1.354V46.967c0-0.527-0.079-0.952-0.237-1.274s-0.372-0.571-0.642-0.747
		s-0.583-0.293-0.94-0.352s-0.735-0.088-1.134-0.088h-0.105v-1.512h5.537l0.686,3.568h0.176c0.234-0.539,0.475-1.046,0.721-1.521
		s0.548-0.891,0.905-1.248s0.8-0.639,1.327-0.844s1.189-0.308,1.986-0.308c1.312,0,2.288,0.229,2.927,0.686s0.958,1.102,0.958,1.934
		c0,0.375-0.062,0.721-0.185,1.037s-0.319,0.589-0.589,0.817s-0.615,0.404-1.037,0.527s-0.938,0.185-1.547,0.185
		c0-0.996-0.141-1.714-0.422-2.153s-0.773-0.659-1.477-0.659c-0.445,0-0.844,0.126-1.195,0.378s-0.659,0.586-0.923,1.002
		s-0.486,0.894-0.668,1.433s-0.328,1.093-0.439,1.661s-0.19,1.134-0.237,1.696s-0.07,1.072-0.07,1.529v5.66
		c0,0.527,0.079,0.952,0.237,1.274s0.372,0.565,0.642,0.729s0.583,0.272,0.94,0.325s0.735,0.079,1.134,0.079h1.002V62.295z"/>
	<path fill="#231F20" d="M181.274,60.783c0.398,0,0.776-0.026,1.134-0.079s0.671-0.161,0.94-0.325s0.483-0.407,0.642-0.729
		s0.237-0.747,0.237-1.274V46.967c0-0.527-0.079-0.952-0.237-1.274s-0.372-0.571-0.642-0.747s-0.583-0.293-0.94-0.352
		s-0.735-0.088-1.134-0.088h-0.105v-1.512h6.434v15.205c0,0.562,0.079,1.014,0.237,1.354s0.369,0.601,0.633,0.782
		s0.577,0.302,0.94,0.36s0.744,0.088,1.143,0.088h0.475v1.512H180.8v-1.512H181.274z M183.718,37.158
		c0-0.422,0.053-0.773,0.158-1.055s0.252-0.51,0.439-0.686s0.404-0.299,0.65-0.369s0.516-0.105,0.809-0.105
		c0.281,0,0.545,0.035,0.791,0.105s0.46,0.193,0.642,0.369s0.328,0.404,0.439,0.686s0.167,0.633,0.167,1.055
		s-0.056,0.773-0.167,1.055s-0.258,0.51-0.439,0.686s-0.396,0.302-0.642,0.378s-0.51,0.114-0.791,0.114
		c-0.293,0-0.562-0.038-0.809-0.114s-0.463-0.202-0.65-0.378s-0.334-0.404-0.439-0.686S183.718,37.58,183.718,37.158z"/>
	<path fill="#231F20" d="M203.581,60.783v1.512h-11.127v-1.512h0.475c0.41,0,0.794-0.029,1.151-0.088s0.668-0.179,0.932-0.36
		s0.475-0.442,0.633-0.782s0.237-0.791,0.237-1.354v-13.5h-3.287v-1.705h3.287v-1.793c0-1.078,0.146-2.027,0.439-2.848
		s0.715-1.512,1.266-2.074s1.219-0.987,2.004-1.274s1.67-0.431,2.654-0.431c0.938,0,1.729,0.062,2.373,0.185
		s1.163,0.296,1.556,0.519s0.677,0.486,0.853,0.791s0.264,0.645,0.264,1.02c0,0.328-0.073,0.618-0.22,0.87s-0.352,0.463-0.615,0.633
		s-0.574,0.299-0.932,0.387s-0.753,0.132-1.187,0.132c0-0.363-0.038-0.718-0.114-1.063s-0.205-0.653-0.387-0.923
		s-0.425-0.486-0.729-0.65s-0.686-0.246-1.143-0.246c-0.516,0-0.946,0.1-1.292,0.299s-0.624,0.495-0.835,0.888
		s-0.36,0.876-0.448,1.45s-0.132,1.242-0.132,2.004v2.127h5.08v1.705h-5.08v13.5c0,0.562,0.079,1.014,0.237,1.354
		s0.369,0.601,0.633,0.782s0.577,0.302,0.94,0.36s0.744,0.088,1.143,0.088H203.581z"/>
</g>
<g enable-background="new    ">
	<path fill="#231F20" d="M39.246,93.511l-0.997,2.748c-0.077,0.205-0.136,0.407-0.179,0.607c-0.043,0.2-0.064,0.373-0.064,0.518
		c0,0.443,0.143,0.768,0.428,0.972c0.285,0.204,0.722,0.307,1.31,0.307h0.601v1.1h-6.392v-1.1h0.499
		c0.256,0,0.473-0.027,0.652-0.083c0.179-0.056,0.341-0.16,0.486-0.313s0.283-0.361,0.416-0.626
		c0.132-0.264,0.279-0.605,0.441-1.022l5.804-15.546h2.045l5.919,16.197c0.103,0.273,0.207,0.499,0.313,0.678
		c0.106,0.179,0.232,0.322,0.377,0.429s0.311,0.181,0.499,0.224s0.409,0.063,0.665,0.063h0.345v1.1h-7.198v-1.1h0.601
		c1.048,0,1.572-0.417,1.572-1.253c0-0.145-0.019-0.294-0.058-0.447c-0.038-0.153-0.092-0.328-0.16-0.524l-1.048-2.927H39.246z
		 M44.027,87.617c-0.273-0.775-0.522-1.503-0.748-2.18c-0.226-0.678-0.412-1.332-0.556-1.963c-0.06,0.315-0.13,0.62-0.211,0.914
		c-0.081,0.294-0.168,0.595-0.262,0.901s-0.2,0.629-0.32,0.965c-0.119,0.337-0.255,0.71-0.409,1.119l-1.777,4.819h5.906
		L44.027,87.617z"/>
	<path fill="#231F20" d="M59.432,86.773c-0.503,0-0.91,0.07-1.221,0.211s-0.554,0.339-0.729,0.594
		c-0.175,0.256-0.292,0.559-0.352,0.908s-0.089,0.729-0.089,1.138c-0.725,0-1.276-0.123-1.656-0.371
		c-0.379-0.247-0.569-0.673-0.569-1.278c0-0.451,0.124-0.835,0.371-1.15s0.586-0.573,1.017-0.773c0.43-0.2,0.931-0.347,1.502-0.441
		c0.571-0.094,1.181-0.141,1.828-0.141c0.801,0,1.5,0.079,2.097,0.237c0.597,0.157,1.095,0.415,1.496,0.773
		c0.401,0.357,0.701,0.824,0.901,1.399s0.3,1.28,0.3,2.116v6.788c0,0.366,0.03,0.669,0.09,0.907c0.06,0.239,0.153,0.431,0.281,0.575
		c0.128,0.146,0.296,0.248,0.505,0.308c0.208,0.06,0.458,0.089,0.748,0.089h0.077v1.1h-3.542l-0.409-2.25h-0.217
		c-0.272,0.366-0.537,0.703-0.792,1.01s-0.537,0.571-0.844,0.793s-0.654,0.395-1.042,0.518s-0.854,0.186-1.4,0.186
		c-0.58,0-1.119-0.083-1.617-0.249c-0.499-0.167-0.929-0.422-1.291-0.768c-0.362-0.345-0.646-0.779-0.85-1.304
		s-0.307-1.145-0.307-1.86c0-1.389,0.494-2.42,1.483-3.094c0.988-0.673,2.484-1.04,4.487-1.1l2.173-0.076v-1.572
		c0-0.469-0.025-0.901-0.077-1.298c-0.051-0.396-0.162-0.737-0.332-1.022c-0.171-0.286-0.416-0.508-0.735-0.665
		C60.397,86.852,59.969,86.773,59.432,86.773z M56.262,95.965c0,0.818,0.172,1.43,0.518,1.835c0.345,0.404,0.88,0.606,1.604,0.606
		c0.528,0,1.008-0.085,1.438-0.255c0.431-0.171,0.797-0.414,1.1-0.729c0.302-0.314,0.535-0.698,0.697-1.15
		c0.162-0.451,0.243-0.954,0.243-1.509v-2.122l-1.674,0.077c-0.742,0.034-1.362,0.126-1.86,0.274
		c-0.499,0.149-0.901,0.358-1.208,0.627s-0.526,0.599-0.658,0.99C56.328,95.002,56.262,95.453,56.262,95.965z"/>
	<path fill="#231F20" d="M91.891,90.391c0,1.278-0.141,2.455-0.422,3.528c-0.281,1.074-0.697,2.021-1.247,2.839
		c-0.549,0.817-1.227,1.493-2.033,2.026c-0.805,0.532-1.728,0.893-2.768,1.08c0.077,0.895,0.222,1.643,0.435,2.243
		s0.486,1.082,0.818,1.444s0.72,0.62,1.163,0.773c0.443,0.154,0.929,0.23,1.458,0.23h0.422v1.228h-1.125
		c-0.69,0-1.378-0.092-2.064-0.275c-0.686-0.183-1.311-0.498-1.873-0.945c-0.562-0.448-1.033-1.045-1.413-1.79
		c-0.379-0.746-0.612-1.682-0.697-2.807c-1.202-0.127-2.248-0.444-3.138-0.952c-0.891-0.507-1.63-1.176-2.218-2.007
		s-1.029-1.807-1.323-2.928c-0.294-1.12-0.441-2.358-0.441-3.714c0-1.448,0.17-2.763,0.511-3.943s0.852-2.188,1.534-3.023
		c0.682-0.836,1.542-1.481,2.583-1.938c1.04-0.455,2.254-0.684,3.644-0.684c1.321,0,2.488,0.229,3.502,0.684
		c1.014,0.456,1.871,1.104,2.57,1.943c0.699,0.84,1.227,1.85,1.585,3.03C91.712,87.615,91.891,88.934,91.891,90.391z M78.327,90.391
		c0,1.296,0.096,2.453,0.288,3.472c0.192,1.019,0.5,1.879,0.927,2.582s0.978,1.24,1.656,1.61c0.678,0.371,1.502,0.557,2.474,0.557
		s1.796-0.186,2.474-0.557c0.678-0.37,1.228-0.907,1.649-1.61s0.727-1.563,0.914-2.582s0.281-2.176,0.281-3.472
		c0-1.295-0.094-2.452-0.281-3.471s-0.492-1.877-0.914-2.576c-0.422-0.698-0.967-1.231-1.636-1.598
		c-0.669-0.366-1.49-0.55-2.461-0.55c-0.972,0-1.799,0.184-2.48,0.55s-1.238,0.899-1.668,1.598
		c-0.431,0.699-0.742,1.558-0.934,2.576C78.423,87.938,78.327,89.096,78.327,90.391z"/>
	<path fill="#231F20" d="M108.996,106.052h-7.836v-1.1h0.869c0.298,0,0.577-0.021,0.837-0.064c0.26-0.042,0.486-0.13,0.677-0.262
		c0.192-0.132,0.345-0.324,0.46-0.575c0.115-0.252,0.172-0.582,0.172-0.991v-2.25c0-0.298,0.004-0.641,0.013-1.028
		c0.008-0.388,0.021-0.761,0.038-1.119c0.017-0.409,0.034-0.826,0.051-1.253h-0.103c-0.196,0.401-0.419,0.761-0.671,1.08
		c-0.251,0.32-0.539,0.593-0.863,0.818c-0.324,0.227-0.69,0.401-1.1,0.524s-0.869,0.186-1.381,0.186
		c-0.861,0-1.624-0.143-2.288-0.429c-0.665-0.285-1.223-0.724-1.675-1.316s-0.792-1.345-1.023-2.257
		c-0.23-0.911-0.345-1.994-0.345-3.247c0-1.261,0.115-2.352,0.345-3.272c0.23-0.921,0.571-1.679,1.023-2.275s1.01-1.038,1.675-1.323
		c0.665-0.285,1.427-0.429,2.288-0.429c0.503,0,0.959,0.056,1.368,0.167c0.409,0.11,0.777,0.268,1.106,0.473
		c0.328,0.204,0.62,0.447,0.875,0.729s0.477,0.593,0.665,0.934h0.154l0.473-2.046h4.193v1.1h-0.217c-0.29,0-0.567,0.021-0.831,0.063
		c-0.264,0.043-0.492,0.131-0.684,0.263c-0.191,0.132-0.345,0.324-0.46,0.575c-0.115,0.251-0.173,0.582-0.173,0.99v14.446
		c0,0.384,0.058,0.692,0.173,0.927c0.115,0.234,0.271,0.416,0.466,0.544c0.196,0.128,0.424,0.213,0.684,0.255
		c0.26,0.043,0.535,0.064,0.825,0.064h0.217V106.052z M100.609,98.343c0.682,0,1.25-0.113,1.707-0.339s0.822-0.569,1.1-1.029
		c0.277-0.46,0.473-1.039,0.588-1.738s0.172-1.521,0.172-2.468c0-0.911-0.057-1.717-0.172-2.416
		c-0.115-0.698-0.311-1.285-0.588-1.758c-0.277-0.473-0.646-0.833-1.106-1.08c-0.46-0.247-1.036-0.371-1.726-0.371
		c-0.571,0-1.061,0.124-1.47,0.371c-0.409,0.247-0.744,0.609-1.003,1.087s-0.45,1.067-0.569,1.771
		c-0.12,0.703-0.179,1.511-0.179,2.422c0,1.858,0.251,3.248,0.754,4.168C98.619,97.883,99.45,98.343,100.609,98.343z"/>
	<path fill="#231F20" d="M130.767,96.565c0.443,0.699,0.874,1.224,1.292,1.572c0.417,0.35,0.903,0.524,1.457,0.524h0.077v1.1h-0.371
		c-0.818,0-1.489-0.029-2.013-0.09c-0.524-0.06-0.97-0.174-1.336-0.345c-0.367-0.171-0.68-0.409-0.94-0.716
		s-0.539-0.707-0.837-1.202l-3.541-5.894h-2.173v5.396c0,0.383,0.058,0.692,0.173,0.927c0.115,0.234,0.27,0.411,0.466,0.53
		c0.196,0.119,0.424,0.198,0.684,0.236c0.26,0.039,0.535,0.058,0.825,0.058h0.345v1.1h-7.62v-1.1h0.333
		c0.29,0,0.564-0.019,0.825-0.058c0.26-0.038,0.488-0.117,0.684-0.236c0.196-0.119,0.352-0.296,0.467-0.53s0.172-0.544,0.172-0.927
		V83.948c0-0.384-0.057-0.692-0.172-0.928c-0.115-0.233-0.271-0.415-0.467-0.543c-0.196-0.128-0.424-0.211-0.684-0.249
		c-0.26-0.038-0.535-0.058-0.825-0.058h-0.333v-1.1h7.044c2.267,0,3.955,0.42,5.062,1.26c1.108,0.839,1.662,2.103,1.662,3.79
		c0,0.699-0.113,1.311-0.339,1.835c-0.226,0.523-0.522,0.978-0.888,1.361c-0.367,0.383-0.78,0.703-1.24,0.959
		c-0.46,0.255-0.92,0.46-1.381,0.613L130.767,96.565z M122.38,90.289h1.841c0.767,0,1.406-0.085,1.918-0.256
		c0.511-0.171,0.92-0.426,1.227-0.768c0.307-0.341,0.526-0.767,0.658-1.278c0.132-0.511,0.198-1.107,0.198-1.789
		c0-0.699-0.072-1.294-0.217-1.784c-0.145-0.489-0.379-0.89-0.703-1.201s-0.744-0.537-1.259-0.678s-1.144-0.211-1.886-0.211h-1.777
		V90.289z"/>
	<path fill="#231F20" d="M141.851,99.762h-7.556v-1.1h0.077c0.298,0,0.578-0.021,0.837-0.063c0.26-0.043,0.486-0.13,0.678-0.263
		c0.192-0.132,0.345-0.321,0.46-0.568c0.115-0.247,0.172-0.575,0.172-0.984v-8.169c0-0.384-0.058-0.692-0.172-0.927
		c-0.115-0.234-0.271-0.416-0.467-0.544c-0.196-0.128-0.424-0.213-0.684-0.256c-0.26-0.042-0.535-0.063-0.825-0.063h-0.077v-1.1
		h4.027l0.499,2.596h0.128c0.17-0.393,0.345-0.761,0.524-1.106c0.179-0.345,0.398-0.647,0.658-0.907
		c0.26-0.26,0.582-0.465,0.965-0.614c0.384-0.148,0.865-0.224,1.445-0.224c0.954,0,1.664,0.167,2.128,0.499s0.697,0.801,0.697,1.406
		c0,0.272-0.045,0.524-0.135,0.754c-0.09,0.23-0.232,0.429-0.428,0.595c-0.197,0.166-0.448,0.294-0.755,0.384
		c-0.307,0.089-0.682,0.134-1.125,0.134c0-0.724-0.102-1.246-0.307-1.565c-0.205-0.32-0.562-0.479-1.074-0.479
		c-0.324,0-0.613,0.092-0.869,0.274c-0.256,0.184-0.479,0.427-0.671,0.729c-0.192,0.303-0.354,0.65-0.486,1.042
		c-0.132,0.393-0.239,0.795-0.32,1.208c-0.081,0.414-0.139,0.825-0.172,1.234c-0.034,0.408-0.051,0.779-0.051,1.111v4.117
		c0,0.383,0.058,0.692,0.172,0.927c0.115,0.234,0.271,0.411,0.467,0.53c0.196,0.119,0.424,0.198,0.684,0.236
		c0.26,0.039,0.535,0.058,0.824,0.058h0.729V99.762z"/>
</g>
<g enable-background="new    ">
	<path fill="#FFFFFF" d="M197.085,82.941c-1.87,0-3.383,0.262-4.54,0.784c-1.156,0.523-2.06,1.26-2.709,2.211
		c-0.649,0.95-1.086,2.075-1.307,3.374c-0.223,1.3-0.333,2.71-0.333,4.23c-2.693,0-4.745-0.459-6.155-1.378
		s-2.115-2.503-2.115-4.754c0-1.679,0.459-3.104,1.379-4.277c0.918-1.172,2.178-2.131,3.778-2.876
		c1.601-0.744,3.462-1.29,5.585-1.64c2.123-0.349,4.389-0.522,6.797-0.522c2.979,0,5.577,0.293,7.795,0.879
		c2.219,0.587,4.072,1.545,5.562,2.876s2.606,3.065,3.351,5.204c0.744,2.14,1.117,4.762,1.117,7.867v25.238
		c0,1.363,0.111,2.488,0.333,3.375c0.222,0.888,0.57,1.601,1.046,2.139c0.475,0.54,1.101,0.92,1.877,1.142s1.703,0.332,2.781,0.332
		h0.285v4.088h-13.166l-1.521-8.365h-0.809c-1.014,1.362-1.996,2.614-2.946,3.755s-1.997,2.123-3.138,2.946
		c-1.141,0.825-2.432,1.467-3.873,1.926c-1.442,0.459-3.178,0.688-5.205,0.688c-2.155,0-4.158-0.309-6.013-0.927
		c-1.854-0.617-3.454-1.568-4.8-2.852c-1.348-1.283-2.4-2.899-3.162-4.849c-0.76-1.948-1.141-4.254-1.141-6.915
		c0-5.165,1.838-8.999,5.514-11.503c3.676-2.503,9.237-3.865,16.684-4.088l8.08-0.285V94.92c0-1.743-0.095-3.352-0.285-4.825
		c-0.189-1.473-0.602-2.74-1.235-3.802s-1.545-1.885-2.733-2.472C200.674,83.235,199.081,82.941,197.085,82.941z M185.297,117.116
		c0,3.042,0.643,5.316,1.926,6.821s3.271,2.258,5.965,2.258c1.965,0,3.746-0.316,5.348-0.951c1.6-0.633,2.962-1.536,4.087-2.709
		c1.124-1.172,1.988-2.598,2.591-4.277c0.602-1.68,0.902-3.549,0.902-5.609v-7.89l-6.227,0.285
		c-2.756,0.127-5.062,0.468-6.915,1.021c-1.854,0.555-3.351,1.331-4.491,2.329c-1.142,0.998-1.957,2.227-2.449,3.684
		C185.542,113.536,185.297,115.216,185.297,117.116z"/>
</g>
<g enable-background="new    ">
	<path fill="#231F20" d="M39.082,124.807l-0.754,2.25c-0.068,0.214-0.139,0.463-0.211,0.748c-0.072,0.286-0.108,0.535-0.108,0.748
		c0,0.171,0.034,0.319,0.102,0.447s0.158,0.232,0.269,0.313s0.236,0.143,0.377,0.186c0.141,0.042,0.288,0.063,0.441,0.063h1.099
		v1.394h-6.814v-1.394h0.32c0.23,0,0.441-0.025,0.633-0.076c0.192-0.052,0.371-0.147,0.537-0.288
		c0.166-0.141,0.324-0.334,0.473-0.582c0.149-0.247,0.301-0.566,0.454-0.958l5.676-15.393h3.592l5.471,15.418
		c0.128,0.366,0.262,0.671,0.403,0.914c0.141,0.242,0.294,0.435,0.46,0.575c0.166,0.141,0.343,0.241,0.53,0.3
		c0.188,0.061,0.384,0.09,0.588,0.09h0.473v1.394h-8.642v-1.394h1.023c0.128,0,0.26-0.02,0.396-0.058
		c0.136-0.038,0.257-0.098,0.364-0.179c0.106-0.081,0.194-0.186,0.262-0.313c0.068-0.128,0.102-0.281,0.102-0.46
		c0-0.213-0.025-0.418-0.077-0.613c-0.051-0.196-0.103-0.367-0.153-0.512l-0.92-2.621H39.082z M43.543,118.913
		c-0.094-0.298-0.19-0.611-0.288-0.939c-0.098-0.328-0.196-0.662-0.294-1.003s-0.191-0.68-0.281-1.017
		c-0.089-0.337-0.168-0.658-0.236-0.966c-0.077,0.265-0.166,0.555-0.269,0.87c-0.102,0.315-0.211,0.639-0.326,0.972
		c-0.115,0.332-0.23,0.664-0.345,0.997c-0.115,0.332-0.224,0.651-0.326,0.958l-1.547,4.424h5.292L43.543,118.913z"/>
	<path fill="#231F20" d="M60.661,118.185c-0.333,0-0.612,0.07-0.837,0.211c-0.226,0.141-0.407,0.337-0.543,0.588
		c-0.136,0.252-0.232,0.55-0.288,0.896c-0.056,0.345-0.083,0.722-0.083,1.131c-1.176,0-2.061-0.132-2.653-0.396
		c-0.592-0.264-0.889-0.716-0.889-1.354c0-0.478,0.143-0.887,0.428-1.228s0.673-0.618,1.164-0.831
		c0.49-0.213,1.061-0.368,1.713-0.467c0.652-0.098,1.349-0.146,2.09-0.146c0.92,0,1.724,0.079,2.41,0.236
		c0.686,0.158,1.257,0.411,1.713,0.761c0.456,0.35,0.799,0.808,1.029,1.374c0.23,0.567,0.345,1.26,0.345,2.077v6.674
		c0,0.357,0.028,0.656,0.083,0.895c0.056,0.239,0.143,0.429,0.262,0.569s0.281,0.241,0.486,0.3c0.205,0.061,0.452,0.09,0.742,0.09
		h0.102v1.394h-4.871l-0.55-1.803h-0.23c-0.29,0.35-0.562,0.654-0.818,0.914c-0.256,0.261-0.528,0.476-0.818,0.646
		c-0.29,0.171-0.616,0.296-0.978,0.377c-0.363,0.081-0.791,0.122-1.285,0.122c-0.58,0-1.119-0.086-1.617-0.256
		s-0.933-0.433-1.304-0.786c-0.371-0.354-0.663-0.797-0.876-1.33c-0.213-0.532-0.319-1.161-0.319-1.885
		c0-1.424,0.488-2.477,1.464-3.158c0.976-0.682,2.443-1.053,4.404-1.112l2.148-0.076v-1.445c0-0.435-0.017-0.835-0.051-1.201
		s-0.106-0.682-0.217-0.946c-0.111-0.264-0.275-0.469-0.492-0.613C61.307,118.257,61.019,118.185,60.661,118.185z M58.334,127.057
		c0,0.75,0.119,1.312,0.358,1.688c0.238,0.375,0.613,0.562,1.125,0.562c0.375,0,0.713-0.078,1.016-0.236
		c0.302-0.157,0.562-0.381,0.78-0.671s0.384-0.642,0.499-1.055c0.115-0.413,0.173-0.876,0.173-1.388v-1.969l-1.176,0.077
		c-0.52,0.025-0.959,0.108-1.317,0.249s-0.644,0.335-0.856,0.582s-0.367,0.55-0.46,0.907
		C58.381,126.162,58.334,126.58,58.334,127.057z"/>
	<path fill="#231F20" d="M94.744,121.585c0,1.228-0.139,2.359-0.416,3.395c-0.277,1.035-0.684,1.954-1.221,2.755
		c-0.537,0.802-1.202,1.477-1.994,2.026s-1.705,0.948-2.736,1.195c0.077,0.963,0.234,1.753,0.473,2.371
		c0.238,0.618,0.53,1.104,0.875,1.458c0.345,0.354,0.727,0.599,1.144,0.734c0.417,0.137,0.844,0.205,1.279,0.205h0.422v1.521h-1.879
		c-0.784,0-1.558-0.115-2.32-0.346c-0.763-0.229-1.453-0.594-2.071-1.093c-0.618-0.499-1.133-1.138-1.547-1.918
		c-0.413-0.779-0.663-1.724-0.748-2.831c-1.176-0.18-2.201-0.535-3.075-1.067c-0.874-0.533-1.6-1.208-2.18-2.026
		s-1.012-1.769-1.297-2.852c-0.286-1.082-0.428-2.267-0.428-3.554c0-1.448,0.183-2.763,0.549-3.943
		c0.367-1.181,0.918-2.188,1.656-3.023c0.737-0.836,1.662-1.481,2.774-1.938c1.112-0.455,2.418-0.684,3.918-0.684
		c1.415,0,2.67,0.229,3.765,0.684c1.095,0.456,2.018,1.104,2.768,1.943c0.75,0.84,1.319,1.85,1.707,3.03
		S94.744,120.128,94.744,121.585z M81.422,121.585c0,1.253,0.081,2.37,0.243,3.35c0.162,0.98,0.422,1.81,0.78,2.486
		c0.358,0.678,0.82,1.195,1.387,1.554c0.567,0.357,1.255,0.537,2.065,0.537c0.818,0,1.51-0.18,2.077-0.537
		c0.567-0.358,1.025-0.876,1.375-1.554c0.349-0.677,0.603-1.506,0.761-2.486c0.157-0.979,0.236-2.097,0.236-3.35
		s-0.079-2.369-0.236-3.349c-0.158-0.98-0.412-1.81-0.761-2.487c-0.35-0.677-0.806-1.192-1.368-1.547
		c-0.562-0.354-1.249-0.53-2.058-0.53c-0.818,0-1.513,0.177-2.084,0.53c-0.571,0.354-1.035,0.87-1.393,1.547
		c-0.358,0.678-0.618,1.507-0.78,2.487C81.503,119.216,81.422,120.332,81.422,121.585z"/>
	<path fill="#231F20" d="M103.961,137.246v-1.394h0.473c0.29,0,0.562-0.018,0.818-0.052s0.479-0.106,0.671-0.217
		c0.192-0.111,0.345-0.275,0.46-0.492c0.115-0.218,0.172-0.505,0.172-0.863v-1.917c0-0.077,0.002-0.18,0.007-0.308
		c0.004-0.127,0.013-0.274,0.025-0.44s0.025-0.341,0.038-0.524c0.013-0.183,0.023-0.364,0.032-0.543
		c0.034-0.418,0.068-0.874,0.102-1.368h-0.179c-0.179,0.299-0.392,0.575-0.639,0.831c-0.248,0.256-0.531,0.476-0.85,0.658
		c-0.32,0.184-0.678,0.328-1.074,0.435c-0.396,0.106-0.842,0.16-1.336,0.16c-0.844,0-1.594-0.143-2.25-0.429
		c-0.656-0.285-1.21-0.727-1.662-1.323c-0.452-0.596-0.795-1.354-1.029-2.275c-0.234-0.92-0.352-2.011-0.352-3.272
		c0-1.253,0.117-2.335,0.352-3.247s0.58-1.664,1.036-2.257c0.456-0.592,1.016-1.031,1.681-1.316
		c0.665-0.285,1.423-0.429,2.275-0.429c0.511,0,0.972,0.054,1.381,0.16s0.777,0.26,1.105,0.46s0.618,0.441,0.87,0.723
		c0.251,0.281,0.475,0.601,0.671,0.959h0.243l0.524-2.046h5.28v1.394h-0.102c-0.29,0-0.565,0.021-0.825,0.064
		c-0.26,0.042-0.49,0.127-0.69,0.255s-0.36,0.312-0.479,0.55c-0.12,0.239-0.179,0.559-0.179,0.959v14.088
		c0,0.358,0.058,0.646,0.172,0.863c0.115,0.217,0.269,0.381,0.46,0.492c0.192,0.11,0.416,0.183,0.671,0.217
		c0.255,0.034,0.528,0.052,0.818,0.052h0.473v1.394H103.961z M103.858,118.619c-0.878,0-1.502,0.441-1.873,1.323
		c-0.371,0.882-0.556,2.214-0.556,3.995c0,1.747,0.185,3.074,0.556,3.982c0.371,0.907,0.995,1.361,1.873,1.361
		c0.52,0,0.953-0.115,1.298-0.345c0.345-0.23,0.622-0.569,0.831-1.017s0.356-1.001,0.441-1.662c0.085-0.66,0.127-1.426,0.127-2.295
		c0-0.903-0.042-1.689-0.127-2.358c-0.085-0.669-0.232-1.225-0.441-1.668s-0.486-0.773-0.831-0.991
		C104.811,118.729,104.378,118.619,103.858,118.619z"/>
	<path fill="#231F20" d="M120.682,129.562h1.1c0.179,0,0.349-0.017,0.511-0.051s0.305-0.104,0.428-0.211s0.222-0.265,0.294-0.474
		c0.072-0.208,0.108-0.483,0.108-0.824v-12.759c0-0.349-0.036-0.628-0.108-0.837c-0.073-0.209-0.171-0.369-0.294-0.479
		s-0.266-0.186-0.428-0.224s-0.332-0.058-0.511-0.058h-1.1v-1.381h8.438c2.472,0,4.285,0.414,5.44,1.24
		c1.155,0.827,1.732,2.028,1.732,3.605c0,0.689-0.102,1.304-0.307,1.841c-0.205,0.536-0.475,1.006-0.812,1.406
		c-0.336,0.4-0.718,0.739-1.144,1.016c-0.426,0.277-0.861,0.505-1.304,0.685l3.119,5.369c0.222,0.375,0.437,0.696,0.646,0.965
		s0.417,0.49,0.626,0.665s0.424,0.303,0.646,0.384s0.456,0.121,0.703,0.121h0.103v1.394h-0.856c-0.785,0-1.468-0.029-2.052-0.09
		c-0.583-0.06-1.095-0.177-1.534-0.352c-0.439-0.174-0.818-0.415-1.138-0.722c-0.319-0.307-0.616-0.703-0.888-1.189l-3.106-5.766
		h-1.739v5.165c0,0.341,0.036,0.616,0.108,0.824c0.072,0.209,0.17,0.367,0.294,0.474c0.123,0.106,0.266,0.177,0.428,0.211
		c0.162,0.034,0.332,0.051,0.511,0.051h1.125v1.394h-9.039V129.562z M127.253,121.316h1.47c0.605,0,1.11-0.08,1.515-0.242
		s0.729-0.403,0.972-0.723c0.243-0.319,0.417-0.72,0.524-1.201c0.106-0.481,0.16-1.042,0.16-1.682c0-0.665-0.06-1.228-0.179-1.688
		s-0.307-0.837-0.562-1.131c-0.255-0.295-0.588-0.508-0.997-0.64s-0.903-0.198-1.483-0.198h-1.419V121.316z"/>
	<path fill="#231F20" d="M147.733,130.956h-8.745v-1.394h0.077c0.298,0,0.571-0.021,0.818-0.063c0.247-0.043,0.46-0.13,0.639-0.263
		c0.179-0.132,0.317-0.321,0.416-0.568s0.147-0.575,0.147-0.984v-7.594c0-0.384-0.044-0.692-0.134-0.927
		c-0.089-0.234-0.217-0.416-0.383-0.544s-0.364-0.211-0.595-0.249c-0.23-0.038-0.49-0.058-0.78-0.058h-0.077v-1.394h5.293
		l0.524,2.046h0.128c0.171-0.393,0.358-0.735,0.562-1.029s0.449-0.539,0.735-0.735c0.285-0.195,0.621-0.343,1.01-0.44
		c0.388-0.099,0.85-0.147,1.387-0.147c1.031,0,1.79,0.182,2.275,0.543c0.486,0.362,0.729,0.889,0.729,1.579
		c0,0.802-0.289,1.424-0.869,1.866c-0.579,0.443-1.397,0.665-2.454,0.665c0-0.357-0.019-0.673-0.058-0.946
		c-0.039-0.272-0.106-0.498-0.205-0.677c-0.098-0.18-0.229-0.315-0.396-0.409c-0.166-0.094-0.372-0.141-0.619-0.141
		c-0.307,0-0.571,0.076-0.793,0.229s-0.408,0.352-0.562,0.595c-0.153,0.243-0.279,0.518-0.377,0.824
		c-0.098,0.308-0.175,0.616-0.23,0.927c-0.055,0.312-0.092,0.607-0.108,0.889s-0.025,0.524-0.025,0.729v4.526
		c0,0.383,0.047,0.692,0.141,0.927s0.222,0.411,0.384,0.53s0.355,0.198,0.582,0.236c0.225,0.038,0.466,0.058,0.722,0.058h0.844
		V130.956z"/>
</g>
<g enable-background="new    ">
	<path fill="#9F392A" d="M71.554,171.771v-1.271h0.384c0.345,0,0.667-0.024,0.968-0.074c0.3-0.049,0.564-0.15,0.791-0.303
		c0.227-0.153,0.404-0.372,0.532-0.658c0.128-0.285,0.192-0.665,0.192-1.138v-14.837c0-0.443-0.066-0.801-0.199-1.071
		c-0.133-0.271-0.313-0.48-0.54-0.628c-0.227-0.148-0.49-0.244-0.791-0.288c-0.301-0.045-0.619-0.067-0.953-0.067h-0.384v-1.271
		h8.497c1.271,0,2.375,0.146,3.311,0.436c0.936,0.291,1.709,0.71,2.32,1.257s1.066,1.209,1.367,1.987
		c0.3,0.778,0.451,1.66,0.451,2.646c0,0.896-0.14,1.759-0.421,2.586c-0.281,0.827-0.742,1.56-1.382,2.194
		c-0.641,0.636-1.478,1.144-2.512,1.522c-1.035,0.379-2.301,0.568-3.798,0.568H77.48v5.113c0,0.443,0.066,0.801,0.2,1.072
		c0.133,0.271,0.312,0.475,0.539,0.613c0.227,0.138,0.49,0.229,0.791,0.272c0.3,0.045,0.618,0.067,0.953,0.067h1.005v1.271H71.554z
		 M77.48,161.93h1.611c0.917,0,1.7-0.097,2.35-0.288c0.65-0.192,1.182-0.503,1.596-0.932c0.414-0.429,0.717-0.98,0.909-1.655
		c0.192-0.675,0.288-1.489,0.288-2.445c0-0.848-0.083-1.584-0.251-2.209c-0.167-0.626-0.438-1.146-0.813-1.56
		s-0.859-0.722-1.456-0.924c-0.596-0.201-1.323-0.303-2.18-0.303H77.48V161.93z"/>
	<path fill="#9F392A" d="M97.371,170.501v1.271h-8.143v-1.271h0.236c0.345,0,0.667-0.024,0.968-0.074
		c0.301-0.049,0.562-0.15,0.784-0.303c0.221-0.153,0.399-0.372,0.532-0.658c0.133-0.285,0.2-0.665,0.2-1.138v-16.227
		c0-0.443-0.067-0.8-0.2-1.071c-0.133-0.271-0.313-0.48-0.54-0.628s-0.49-0.244-0.791-0.288c-0.301-0.044-0.618-0.066-0.953-0.066
		h-0.236v-1.271H94.8v6.649c0,0.276-0.005,0.564-0.015,0.864c-0.01,0.301-0.025,0.579-0.044,0.835
		c-0.02,0.296-0.04,0.587-0.059,0.872h0.147c0.907-1.832,2.389-2.748,4.448-2.748c0.857,0,1.618,0.115,2.283,0.347
		s1.224,0.587,1.677,1.064s0.798,1.091,1.035,1.84s0.354,1.641,0.354,2.675v7.152c0,0.473,0.059,0.853,0.178,1.138
		c0.118,0.286,0.281,0.505,0.487,0.658c0.207,0.152,0.453,0.254,0.739,0.303c0.286,0.05,0.596,0.074,0.931,0.074h0.089v1.271h-5.261
		v-10.448c0-0.66-0.059-1.246-0.177-1.759c-0.118-0.512-0.308-0.945-0.569-1.3c-0.261-0.354-0.604-0.623-1.027-0.806
		c-0.424-0.183-0.941-0.273-1.552-0.273c-0.631,0-1.175,0.116-1.633,0.348c-0.458,0.231-0.837,0.562-1.138,0.99
		c-0.301,0.428-0.524,0.945-0.672,1.551c-0.148,0.606-0.222,1.278-0.222,2.018v6.384c0,0.443,0.066,0.801,0.199,1.072
		c0.133,0.271,0.313,0.475,0.54,0.613c0.227,0.138,0.49,0.229,0.791,0.272c0.301,0.045,0.618,0.067,0.953,0.067H97.371z"/>
	<path fill="#9F392A" d="M117.632,171.771h-8.734v-1.271h0.089c0.345,0,0.667-0.024,0.968-0.074c0.3-0.049,0.562-0.15,0.783-0.303
		c0.222-0.153,0.399-0.372,0.532-0.658c0.133-0.285,0.199-0.665,0.199-1.138v-9.443c0-0.443-0.066-0.8-0.199-1.071
		c-0.133-0.271-0.313-0.48-0.54-0.628s-0.49-0.246-0.791-0.296c-0.301-0.049-0.619-0.073-0.953-0.073h-0.089v-1.271h4.655l0.576,3
		h0.148c0.197-0.453,0.399-0.879,0.606-1.278c0.207-0.398,0.46-0.748,0.761-1.049c0.3-0.301,0.672-0.537,1.116-0.71
		c0.443-0.172,1-0.258,1.67-0.258c1.104,0,1.923,0.191,2.46,0.576c0.537,0.384,0.806,0.926,0.806,1.625
		c0,0.315-0.052,0.606-0.155,0.872c-0.104,0.267-0.269,0.495-0.495,0.688s-0.517,0.34-0.872,0.443
		c-0.355,0.104-0.789,0.155-1.301,0.155c0-0.838-0.118-1.441-0.354-1.811s-0.65-0.554-1.241-0.554c-0.375,0-0.709,0.105-1.005,0.317
		c-0.295,0.212-0.554,0.492-0.775,0.842c-0.222,0.351-0.409,0.752-0.562,1.205s-0.276,0.919-0.369,1.396
		c-0.094,0.478-0.16,0.953-0.2,1.426s-0.059,0.901-0.059,1.286v4.758c0,0.443,0.066,0.801,0.2,1.072
		c0.133,0.271,0.312,0.475,0.539,0.613c0.227,0.138,0.49,0.229,0.791,0.272c0.3,0.045,0.618,0.067,0.953,0.067h0.842V171.771z"/>
	<path fill="#9F392A" d="M129.661,156.757c-0.582,0-1.052,0.081-1.412,0.244c-0.359,0.162-0.64,0.392-0.842,0.688
		c-0.202,0.295-0.337,0.645-0.406,1.049s-0.104,0.843-0.104,1.315c-0.837,0-1.476-0.143-1.914-0.429
		c-0.438-0.286-0.658-0.778-0.658-1.478c0-0.522,0.143-0.966,0.429-1.33c0.286-0.364,0.677-0.663,1.175-0.895
		c0.497-0.231,1.076-0.401,1.736-0.51c0.66-0.108,1.364-0.162,2.113-0.162c0.926,0,1.734,0.091,2.423,0.273
		c0.689,0.182,1.266,0.479,1.729,0.894c0.463,0.414,0.811,0.953,1.042,1.618s0.347,1.48,0.347,2.446v7.847
		c0,0.424,0.035,0.773,0.104,1.05c0.069,0.275,0.177,0.497,0.325,0.664c0.148,0.168,0.342,0.286,0.584,0.355
		c0.241,0.068,0.529,0.104,0.864,0.104h0.089v1.271h-4.094l-0.473-2.601h-0.251c-0.315,0.424-0.621,0.812-0.916,1.167
		c-0.296,0.354-0.621,0.66-0.976,0.916c-0.354,0.257-0.756,0.456-1.204,0.599c-0.449,0.143-0.988,0.215-1.619,0.215
		c-0.67,0-1.293-0.097-1.869-0.288c-0.576-0.192-1.074-0.488-1.493-0.887c-0.419-0.399-0.746-0.901-0.983-1.508
		c-0.236-0.605-0.354-1.322-0.354-2.15c0-1.605,0.571-2.798,1.714-3.576c1.143-0.778,2.872-1.202,5.187-1.271l2.512-0.089v-1.817
		c0-0.542-0.029-1.042-0.088-1.5c-0.06-0.458-0.188-0.853-0.384-1.183c-0.197-0.33-0.48-0.586-0.85-0.769
		C130.777,156.849,130.282,156.757,129.661,156.757z M125.996,167.383c0,0.945,0.199,1.652,0.599,2.12
		c0.399,0.468,1.017,0.702,1.854,0.702c0.611,0,1.165-0.099,1.663-0.296c0.497-0.196,0.921-0.478,1.271-0.842
		c0.35-0.364,0.618-0.808,0.805-1.33s0.281-1.104,0.281-1.744v-2.453l-1.936,0.089c-0.857,0.039-1.574,0.146-2.15,0.317
		c-0.577,0.173-1.042,0.414-1.396,0.725c-0.355,0.311-0.608,0.692-0.761,1.146S125.996,166.791,125.996,167.383z"/>
	<path fill="#9F392A" d="M150.203,157.703c0-0.364-0.156-0.604-0.467-0.717c-0.31-0.113-0.696-0.17-1.16-0.17h-0.088v-1.271h6.621
		v1.271h-0.267c-0.296,0-0.563,0.024-0.806,0.073c-0.241,0.05-0.478,0.144-0.709,0.281c-0.232,0.138-0.471,0.335-0.717,0.591
		c-0.246,0.257-0.522,0.587-0.828,0.99l-3.117,4.152l4.447,5.985c0.443,0.591,0.865,1.008,1.264,1.249
		c0.399,0.241,0.785,0.362,1.16,0.362h0.399v1.271h-7.817v-1.271h0.147c1.212,0,1.817-0.335,1.817-1.005
		c0-0.108-0.015-0.22-0.044-0.333c-0.03-0.113-0.089-0.246-0.178-0.399c-0.089-0.152-0.206-0.337-0.354-0.554
		s-0.34-0.482-0.576-0.798l-2.025-2.72l-2.113,2.956c-0.088,0.118-0.182,0.256-0.28,0.414c-0.099,0.157-0.187,0.32-0.266,0.487
		c-0.079,0.168-0.143,0.338-0.192,0.51c-0.049,0.173-0.074,0.338-0.074,0.495c0,0.345,0.143,0.589,0.429,0.731
		c0.286,0.144,0.768,0.215,1.448,0.215h0.089v1.271h-7.211v-1.271h0.281c0.364,0,0.685-0.03,0.96-0.089
		c0.276-0.06,0.537-0.163,0.783-0.311c0.246-0.147,0.493-0.348,0.739-0.599s0.518-0.563,0.813-0.938l3.812-4.936l-3.812-5.202
		c-0.443-0.521-0.875-0.921-1.293-1.197c-0.419-0.275-0.855-0.413-1.308-0.413h-0.399v-1.271h7.685v1.271h-0.09
		c-0.344,0-0.63,0.021-0.856,0.066c-0.227,0.044-0.404,0.108-0.532,0.192c-0.128,0.083-0.217,0.18-0.266,0.288
		c-0.05,0.108-0.074,0.222-0.074,0.34c0,0.207,0.062,0.411,0.186,0.613c0.123,0.202,0.297,0.46,0.523,0.775l1.996,2.72l1.566-2.262
		c0.227-0.345,0.408-0.67,0.547-0.976C150.133,158.27,150.203,157.979,150.203,157.703z"/>
	<path fill="#9F392A" d="M164.773,172.067c-1.094,0-2.076-0.186-2.947-0.555c-0.873-0.369-1.609-0.908-2.21-1.618
		c-0.601-0.709-1.062-1.578-1.382-2.608c-0.32-1.029-0.48-2.199-0.48-3.51c0-2.827,0.582-4.955,1.744-6.384s2.818-2.143,4.965-2.143
		c0.977,0,1.854,0.152,2.631,0.458c0.778,0.306,1.438,0.761,1.98,1.367c0.542,0.605,0.958,1.359,1.249,2.261
		c0.29,0.901,0.437,1.948,0.437,3.141v1.389h-10.079c0.02,1.104,0.13,2.052,0.333,2.845c0.201,0.793,0.492,1.446,0.871,1.958
		c0.379,0.513,0.845,0.89,1.396,1.131s1.188,0.362,1.906,0.362c0.522,0,1.008-0.06,1.456-0.178s0.854-0.275,1.22-0.473
		c0.363-0.197,0.687-0.422,0.967-0.673c0.281-0.251,0.51-0.515,0.688-0.79c0.139,0.059,0.269,0.182,0.392,0.369
		s0.185,0.409,0.185,0.665c0,0.306-0.108,0.633-0.324,0.982c-0.217,0.35-0.547,0.673-0.99,0.968
		c-0.443,0.296-0.998,0.542-1.663,0.739S165.67,172.067,164.773,172.067z M164.404,156.875c-1.123,0-1.987,0.456-2.594,1.367
		c-0.605,0.911-0.963,2.244-1.07,3.997h6.96c0-0.798-0.06-1.526-0.178-2.187s-0.306-1.227-0.562-1.699
		c-0.256-0.474-0.594-0.838-1.012-1.094C165.529,157.003,165.016,156.875,164.404,156.875z"/>
	<path fill="#9F392A" d="M182.537,162.033l4.035,5.984c0.521,0.809,1.041,1.424,1.559,1.848s1.115,0.636,1.795,0.636h0.089v1.271
		h-0.429c-0.877,0-1.598-0.027-2.164-0.081c-0.567-0.055-1.057-0.183-1.471-0.385c-0.414-0.201-0.793-0.497-1.139-0.887
		c-0.344-0.389-0.729-0.918-1.152-1.588l-3.029-4.744l-2.231,1.655v2.733c0,0.443,0.066,0.801,0.199,1.072
		c0.134,0.271,0.313,0.475,0.54,0.613c0.227,0.138,0.49,0.229,0.79,0.272c0.301,0.045,0.618,0.067,0.953,0.067h0.089v1.271h-8.143
		v-1.271h0.236c0.345,0,0.668-0.024,0.968-0.074c0.301-0.049,0.562-0.15,0.784-0.303c0.221-0.153,0.398-0.372,0.531-0.658
		c0.133-0.285,0.199-0.665,0.199-1.138v-16.227c0-0.443-0.066-0.8-0.199-1.071c-0.133-0.271-0.312-0.48-0.539-0.628
		s-0.49-0.244-0.791-0.288s-0.618-0.066-0.953-0.066h-0.236v-1.271h5.571v11.674c0,0.276-0.005,0.628-0.015,1.057
		s-0.025,0.85-0.045,1.264c-0.02,0.473-0.039,0.971-0.059,1.493l3.783-4.139c0.325-0.364,0.594-0.685,0.805-0.96
		c0.213-0.276,0.383-0.518,0.51-0.725c0.129-0.207,0.217-0.392,0.267-0.554c0.05-0.163,0.073-0.318,0.073-0.466
		c0-0.256-0.12-0.421-0.361-0.495c-0.242-0.073-0.613-0.11-1.115-0.11v-1.271h6.68v1.271c-0.7,0-1.387,0.246-2.062,0.738
		c-0.674,0.493-1.406,1.188-2.194,2.084L182.537,162.033z"/>
</g>
<g enable-background="new    ">
	<path fill="#231F20" d="M77.844,193.753c-0.346,0-0.625,0.049-0.839,0.145c-0.214,0.098-0.381,0.233-0.501,0.409
		s-0.201,0.384-0.242,0.624s-0.062,0.501-0.062,0.782c-0.498,0-0.877-0.085-1.138-0.255s-0.391-0.463-0.391-0.879
		c0-0.311,0.085-0.574,0.255-0.791s0.403-0.394,0.699-0.531s0.64-0.239,1.033-0.304s0.812-0.097,1.257-0.097
		c0.551,0,1.031,0.055,1.441,0.162c0.41,0.109,0.753,0.286,1.028,0.532s0.482,0.567,0.62,0.962c0.138,0.396,0.207,0.881,0.207,1.455
		v4.667c0,0.252,0.021,0.46,0.062,0.624s0.105,0.296,0.193,0.396s0.204,0.17,0.347,0.211s0.315,0.062,0.514,0.062h0.053v0.756
		h-2.435l-0.281-1.547h-0.149c-0.188,0.252-0.369,0.483-0.545,0.694s-0.369,0.393-0.58,0.545s-0.45,0.271-0.716,0.356
		c-0.267,0.084-0.587,0.127-0.962,0.127c-0.398,0-0.769-0.057-1.112-0.172c-0.343-0.113-0.639-0.289-0.888-0.527
		c-0.249-0.236-0.444-0.535-0.584-0.896c-0.141-0.359-0.211-0.786-0.211-1.278c0-0.955,0.34-1.664,1.02-2.127
		s1.708-0.715,3.085-0.756l1.494-0.053v-1.081c0-0.322-0.018-0.619-0.053-0.893c-0.035-0.271-0.111-0.506-0.229-0.703
		c-0.117-0.195-0.286-0.348-0.505-0.457C78.508,193.808,78.213,193.753,77.844,193.753z M75.665,200.072
		c0,0.562,0.119,0.983,0.356,1.261c0.237,0.279,0.605,0.418,1.103,0.418c0.363,0,0.693-0.059,0.989-0.176s0.548-0.284,0.756-0.501
		s0.368-0.48,0.479-0.791s0.167-0.656,0.167-1.037v-1.459l-1.151,0.053c-0.51,0.023-0.936,0.087-1.279,0.188
		c-0.343,0.104-0.62,0.246-0.831,0.432c-0.211,0.184-0.362,0.411-0.453,0.681S75.665,199.721,75.665,200.072z"/>
	<path fill="#231F20" d="M94.207,197.84c0,0.867-0.081,1.617-0.242,2.25s-0.397,1.154-0.708,1.564s-0.694,0.714-1.151,0.909
		c-0.457,0.196-0.981,0.295-1.573,0.295c-0.346,0-0.659-0.038-0.94-0.114s-0.535-0.185-0.76-0.325s-0.425-0.308-0.598-0.501
		s-0.324-0.407-0.453-0.642h-0.114l-0.316,1.406h-2.883v-0.756h0.141c0.205,0,0.397-0.015,0.576-0.044s0.334-0.089,0.466-0.181
		c0.132-0.09,0.237-0.221,0.316-0.391s0.119-0.396,0.119-0.677v-9.65c0-0.264-0.04-0.476-0.119-0.638
		c-0.079-0.16-0.186-0.285-0.321-0.373s-0.292-0.145-0.47-0.172c-0.179-0.025-0.368-0.039-0.567-0.039h-0.141v-0.756h3.313v3.305
		c0,0.205-0.003,0.441-0.009,0.707c-0.006,0.268-0.015,0.523-0.026,0.77c-0.012,0.281-0.023,0.571-0.035,0.87h0.07
		c0.135-0.275,0.287-0.524,0.457-0.747s0.366-0.411,0.589-0.566s0.475-0.275,0.756-0.361c0.281-0.084,0.598-0.127,0.949-0.127
		c0.592,0,1.116,0.099,1.573,0.295s0.841,0.498,1.151,0.904c0.311,0.408,0.546,0.925,0.708,1.552S94.207,196.979,94.207,197.84z
		 M90.225,194.008c-0.469,0-0.86,0.078-1.173,0.233s-0.564,0.391-0.751,0.707s-0.321,0.715-0.4,1.195s-0.119,1.046-0.119,1.696
		c0,0.627,0.04,1.181,0.119,1.661s0.214,0.885,0.404,1.213s0.442,0.576,0.756,0.742c0.313,0.168,0.708,0.251,1.182,0.251
		c0.398,0,0.737-0.083,1.015-0.251c0.278-0.166,0.507-0.414,0.686-0.742s0.309-0.734,0.391-1.217
		c0.082-0.484,0.123-1.042,0.123-1.675c0-0.639-0.041-1.196-0.123-1.675c-0.082-0.477-0.212-0.874-0.391-1.19
		s-0.41-0.554-0.694-0.712S90.624,194.008,90.225,194.008z"/>
</g>
<g enable-background="new    ">
	<path fill="#231F20" d="M102.863,202.858c-0.598,0-1.148-0.092-1.652-0.277c-0.504-0.184-0.938-0.476-1.301-0.874
		s-0.646-0.909-0.848-1.534c-0.202-0.623-0.303-1.378-0.303-2.263c0-0.961,0.101-1.765,0.303-2.413
		c0.202-0.646,0.483-1.167,0.844-1.56s0.785-0.671,1.274-0.835s1.018-0.246,1.586-0.246c0.375,0,0.749,0.037,1.121,0.109
		c0.372,0.074,0.708,0.187,1.006,0.339s0.542,0.345,0.729,0.575c0.188,0.232,0.281,0.503,0.281,0.813
		c0,0.416-0.135,0.709-0.404,0.879s-0.671,0.255-1.204,0.255c0-0.281-0.023-0.548-0.07-0.8s-0.127-0.473-0.242-0.663
		s-0.27-0.34-0.466-0.449c-0.196-0.107-0.447-0.162-0.751-0.162c-0.346,0-0.658,0.064-0.936,0.193s-0.517,0.352-0.716,0.668
		s-0.352,0.741-0.457,1.274s-0.158,1.201-0.158,2.004c0,1.277,0.212,2.229,0.637,2.856s1.121,0.94,2.087,0.94
		c0.557,0,1.043-0.117,1.459-0.352s0.727-0.536,0.932-0.905c0.088,0.07,0.161,0.164,0.22,0.281s0.088,0.258,0.088,0.422
		c0,0.205-0.064,0.41-0.193,0.615s-0.321,0.39-0.576,0.554s-0.573,0.298-0.954,0.399
		C103.818,202.807,103.373,202.858,102.863,202.858z"/>
</g>
<g enable-background="new    ">
	<path fill="#231F20" d="M117.529,200.705c0,0.264,0.04,0.477,0.119,0.638s0.186,0.285,0.321,0.373s0.292,0.145,0.47,0.172
		c0.179,0.025,0.368,0.039,0.567,0.039h0.149v0.756h-3.05l-0.193-1.617h-0.07c-0.135,0.275-0.289,0.523-0.461,0.742
		c-0.173,0.221-0.371,0.408-0.593,0.562c-0.223,0.156-0.475,0.276-0.756,0.361c-0.281,0.084-0.598,0.127-0.949,0.127
		c-0.592,0-1.116-0.099-1.573-0.295c-0.457-0.195-0.841-0.497-1.151-0.904s-0.545-0.925-0.703-1.552s-0.237-1.371-0.237-2.232
		c0-0.867,0.079-1.617,0.237-2.25s0.393-1.154,0.703-1.564s0.694-0.713,1.151-0.909s0.981-0.295,1.573-0.295
		c0.346,0,0.659,0.038,0.94,0.114s0.535,0.185,0.76,0.325s0.426,0.308,0.602,0.501s0.328,0.407,0.457,0.642h0.105
		c-0.018-0.293-0.035-0.568-0.053-0.826c-0.012-0.223-0.023-0.443-0.035-0.664c-0.012-0.219-0.018-0.382-0.018-0.487v-1.477
		c0-0.264-0.04-0.476-0.119-0.638c-0.079-0.16-0.186-0.285-0.321-0.373s-0.292-0.145-0.47-0.172
		c-0.179-0.025-0.368-0.039-0.567-0.039h-0.149v-0.756h3.313V200.705z M113.39,201.707c0.469,0,0.86-0.077,1.173-0.233
		c0.313-0.154,0.565-0.391,0.756-0.707s0.325-0.715,0.404-1.195s0.119-1.046,0.119-1.696c0-0.627-0.04-1.181-0.119-1.661
		s-0.214-0.883-0.404-1.209c-0.19-0.324-0.444-0.572-0.76-0.742s-0.712-0.255-1.187-0.255c-0.393,0-0.729,0.085-1.011,0.255
		s-0.511,0.419-0.69,0.747s-0.309,0.733-0.391,1.218c-0.082,0.482-0.123,1.038-0.123,1.665c0,1.277,0.173,2.232,0.519,2.865
		S112.593,201.707,113.39,201.707z"/>
	<path fill="#231F20" d="M125.63,202.858c-0.65,0-1.235-0.109-1.753-0.33c-0.519-0.219-0.957-0.54-1.314-0.962
		s-0.631-0.938-0.822-1.552c-0.19-0.611-0.286-1.308-0.286-2.087c0-1.682,0.346-2.947,1.037-3.797s1.676-1.274,2.953-1.274
		c0.58,0,1.102,0.091,1.564,0.272s0.855,0.452,1.178,0.813c0.322,0.359,0.57,0.809,0.743,1.344c0.173,0.537,0.259,1.159,0.259,1.868
		v0.826h-5.994c0.012,0.656,0.078,1.221,0.198,1.692s0.293,0.859,0.519,1.164s0.502,0.529,0.831,0.672
		c0.328,0.145,0.706,0.216,1.134,0.216c0.311,0,0.599-0.035,0.866-0.105s0.508-0.164,0.725-0.281s0.409-0.251,0.576-0.399
		c0.167-0.15,0.303-0.307,0.409-0.471c0.082,0.035,0.16,0.108,0.233,0.22s0.11,0.243,0.11,0.396c0,0.182-0.064,0.377-0.193,0.584
		c-0.129,0.209-0.325,0.4-0.589,0.576s-0.593,0.322-0.989,0.439S126.163,202.858,125.63,202.858z M125.41,193.823
		c-0.668,0-1.182,0.271-1.542,0.812c-0.36,0.543-0.573,1.335-0.637,2.378h4.14c0-0.475-0.035-0.908-0.105-1.301
		s-0.182-0.729-0.334-1.011s-0.353-0.498-0.602-0.65S125.773,193.823,125.41,193.823z"/>
</g>
<g enable-background="new    ">
	<path fill="#231F20" d="M138.716,201.927v0.756h-5.563v-0.756h0.237c0.205,0,0.397-0.015,0.576-0.044s0.334-0.089,0.466-0.181
		c0.132-0.09,0.237-0.221,0.316-0.391s0.119-0.396,0.119-0.677v-6.75h-1.644v-0.853h1.644v-0.896c0-0.539,0.073-1.014,0.22-1.424
		s0.357-0.756,0.633-1.037s0.609-0.493,1.002-0.637s0.835-0.216,1.327-0.216c0.469,0,0.864,0.03,1.187,0.093
		c0.322,0.061,0.582,0.147,0.778,0.259s0.338,0.243,0.426,0.396s0.132,0.322,0.132,0.51c0,0.164-0.037,0.31-0.11,0.436
		s-0.176,0.231-0.308,0.316s-0.287,0.148-0.466,0.193c-0.179,0.043-0.376,0.065-0.593,0.065c0-0.182-0.019-0.358-0.057-0.532
		c-0.038-0.172-0.103-0.326-0.193-0.461s-0.212-0.243-0.365-0.325s-0.343-0.123-0.571-0.123c-0.258,0-0.473,0.05-0.646,0.149
		s-0.312,0.248-0.417,0.443c-0.105,0.197-0.18,0.438-0.224,0.726s-0.066,0.621-0.066,1.002v1.063h2.54v0.853h-2.54v6.75
		c0,0.281,0.04,0.507,0.119,0.677s0.185,0.301,0.316,0.391c0.132,0.092,0.289,0.151,0.47,0.181s0.372,0.044,0.571,0.044H138.716z"/>
</g>
<g enable-background="new    ">
	<path fill="#231F20" d="M150.578,193.41c0,0.129-0.019,0.251-0.057,0.364c-0.038,0.115-0.096,0.215-0.172,0.299
		c-0.076,0.086-0.174,0.153-0.294,0.203s-0.263,0.074-0.427,0.074c0-0.07-0.008-0.141-0.025-0.211s-0.049-0.137-0.093-0.197
		c-0.044-0.062-0.104-0.111-0.181-0.15c-0.076-0.037-0.176-0.057-0.299-0.057c-0.152,0-0.289,0.018-0.412,0.053
		s-0.244,0.091-0.361,0.167c0.205,0.252,0.374,0.55,0.506,0.892c0.132,0.344,0.197,0.772,0.197,1.288
		c0,0.445-0.066,0.856-0.201,1.235c-0.135,0.377-0.336,0.704-0.603,0.979s-0.604,0.491-1.011,0.646
		c-0.407,0.156-0.883,0.233-1.428,0.233c-0.07,0-0.15-0.001-0.238-0.005c-0.088-0.002-0.176-0.005-0.264-0.008
		s-0.17-0.01-0.246-0.018c-0.076-0.01-0.137-0.017-0.184-0.022c-0.117,0.059-0.229,0.123-0.334,0.193
		c-0.105,0.07-0.198,0.149-0.277,0.237s-0.142,0.188-0.189,0.299s-0.07,0.234-0.07,0.369c0,0.146,0.028,0.264,0.083,0.352
		s0.133,0.157,0.233,0.207s0.218,0.082,0.356,0.096c0.138,0.016,0.286,0.022,0.444,0.022h2.039c0.539,0,0.996,0.067,1.371,0.202
		s0.681,0.32,0.918,0.559c0.237,0.236,0.41,0.521,0.519,0.852c0.108,0.331,0.163,0.69,0.163,1.077c0,0.516-0.096,0.981-0.286,1.397
		s-0.481,0.77-0.874,1.059c-0.393,0.291-0.89,0.515-1.49,0.673s-1.309,0.237-2.123,0.237c-1.253,0-2.191-0.231-2.812-0.694
		s-0.932-1.107-0.932-1.934c0-0.352,0.062-0.659,0.185-0.923s0.289-0.489,0.497-0.677s0.447-0.34,0.716-0.457
		s0.554-0.202,0.853-0.255c-0.123-0.053-0.243-0.123-0.36-0.211s-0.223-0.193-0.316-0.316s-0.17-0.264-0.229-0.422
		s-0.088-0.334-0.088-0.527c0-0.357,0.094-0.666,0.281-0.928c0.188-0.26,0.486-0.514,0.896-0.76c-0.258-0.105-0.488-0.25-0.69-0.436
		c-0.202-0.184-0.372-0.395-0.51-0.633c-0.138-0.236-0.243-0.496-0.316-0.777s-0.11-0.571-0.11-0.87c0-0.521,0.07-0.987,0.211-1.397
		s0.352-0.759,0.633-1.046s0.633-0.507,1.055-0.659c0.421-0.152,0.917-0.229,1.486-0.229c0.217,0,0.43,0.017,0.641,0.049
		s0.406,0.076,0.585,0.131c0.179,0.057,0.34,0.119,0.483,0.189s0.26,0.144,0.348,0.22c0.088-0.094,0.189-0.198,0.307-0.312
		c0.117-0.115,0.25-0.221,0.396-0.316c0.146-0.098,0.306-0.178,0.479-0.242s0.359-0.097,0.559-0.097c0.182,0,0.338,0.025,0.47,0.075
		s0.241,0.117,0.329,0.201c0.088,0.086,0.154,0.186,0.198,0.299C150.557,193.169,150.578,193.287,150.578,193.41z M142.985,204.265
		c0,0.264,0.035,0.51,0.105,0.738s0.193,0.425,0.369,0.589s0.413,0.293,0.712,0.387s0.676,0.141,1.133,0.141
		c0.645,0,1.177-0.055,1.596-0.163s0.752-0.259,0.998-0.452s0.418-0.424,0.518-0.69s0.15-0.558,0.15-0.874
		c0-0.275-0.04-0.503-0.119-0.681c-0.079-0.18-0.196-0.32-0.352-0.422c-0.155-0.104-0.348-0.175-0.576-0.216
		s-0.492-0.062-0.791-0.062h-1.766c-0.252,0-0.497,0.021-0.734,0.066c-0.237,0.043-0.448,0.127-0.633,0.25s-0.333,0.296-0.444,0.519
		S142.985,203.907,142.985,204.265z M144.031,196.135c0,0.768,0.127,1.33,0.382,1.688s0.673,0.536,1.253,0.536
		c0.293,0,0.54-0.044,0.742-0.132s0.367-0.223,0.496-0.404s0.222-0.414,0.277-0.698s0.084-0.623,0.084-1.016
		c0-0.809-0.123-1.406-0.369-1.793s-0.662-0.58-1.248-0.58c-0.58,0-0.995,0.197-1.244,0.594
		C144.155,194.724,144.031,195.326,144.031,196.135z"/>
	<path fill="#231F20" d="M156.957,201.927v0.756h-4.844v-0.756h0.141c0.205,0,0.397-0.015,0.576-0.044s0.334-0.089,0.466-0.181
		c0.132-0.09,0.237-0.221,0.316-0.391s0.118-0.396,0.118-0.677v-9.65c0-0.264-0.039-0.476-0.118-0.638
		c-0.079-0.16-0.187-0.285-0.321-0.373s-0.291-0.145-0.47-0.172c-0.179-0.025-0.368-0.039-0.567-0.039h-0.141v-0.756h3.314v3.955
		c0,0.164-0.004,0.336-0.01,0.514c-0.006,0.18-0.014,0.345-0.025,0.497c-0.012,0.176-0.023,0.349-0.035,0.519h0.088
		c0.539-1.09,1.42-1.635,2.645-1.635c0.51,0,0.963,0.069,1.358,0.207s0.728,0.349,0.997,0.633s0.475,0.648,0.615,1.094
		s0.211,0.976,0.211,1.591v4.254c0,0.281,0.035,0.507,0.105,0.677s0.168,0.301,0.291,0.391c0.123,0.092,0.27,0.151,0.439,0.181
		s0.354,0.044,0.553,0.044h0.053v0.756h-3.129v-6.214c0-0.393-0.035-0.741-0.105-1.046s-0.183-0.562-0.338-0.773
		s-0.359-0.37-0.611-0.479s-0.559-0.163-0.922-0.163c-0.375,0-0.699,0.069-0.972,0.206c-0.272,0.139-0.498,0.334-0.677,0.59
		c-0.179,0.254-0.312,0.562-0.4,0.922c-0.088,0.361-0.131,0.761-0.131,1.2v3.797c0,0.264,0.039,0.477,0.118,0.638
		s0.187,0.282,0.321,0.364s0.291,0.136,0.47,0.163c0.179,0.025,0.368,0.039,0.567,0.039H156.957z"/>
	<path fill="#231F20" d="M164.854,201.927c0.199,0,0.388-0.014,0.567-0.039c0.178-0.027,0.335-0.081,0.47-0.163
		s0.241-0.203,0.321-0.364c0.078-0.161,0.118-0.374,0.118-0.638v-5.704c0-0.264-0.04-0.476-0.118-0.637
		c-0.08-0.161-0.187-0.286-0.321-0.374s-0.292-0.146-0.47-0.176c-0.18-0.029-0.368-0.044-0.567-0.044h-0.053v-0.756h3.217v7.603
		c0,0.281,0.04,0.507,0.118,0.677c0.08,0.17,0.186,0.301,0.316,0.391c0.133,0.092,0.289,0.151,0.471,0.181s0.372,0.044,0.571,0.044
		h0.237v0.756h-5.115v-0.756H164.854z M166.076,190.114c0-0.211,0.026-0.387,0.079-0.527s0.126-0.255,0.22-0.343
		s0.202-0.149,0.325-0.185s0.258-0.053,0.404-0.053c0.141,0,0.272,0.018,0.396,0.053s0.23,0.097,0.32,0.185
		c0.092,0.088,0.164,0.202,0.221,0.343c0.055,0.141,0.083,0.316,0.083,0.527s-0.028,0.387-0.083,0.527
		c-0.057,0.141-0.129,0.255-0.221,0.343c-0.09,0.088-0.197,0.151-0.32,0.188c-0.123,0.039-0.255,0.058-0.396,0.058
		c-0.146,0-0.281-0.019-0.404-0.058c-0.123-0.037-0.231-0.101-0.325-0.188s-0.167-0.202-0.22-0.343S166.076,190.325,166.076,190.114
		z"/>
	<path fill="#231F20" d="M174.59,193.032v9.791c0,0.809-0.088,1.48-0.264,2.018c-0.176,0.535-0.422,0.963-0.738,1.283
		c-0.316,0.318-0.693,0.546-1.129,0.681c-0.438,0.135-0.916,0.202-1.438,0.202h-0.29v-0.853h0.132c0.322,0,0.609-0.055,0.861-0.163
		s0.465-0.289,0.637-0.545c0.174-0.254,0.305-0.595,0.396-1.02c0.09-0.425,0.136-0.953,0.136-1.586v-7.822
		c0-0.264-0.04-0.476-0.118-0.637c-0.08-0.161-0.187-0.286-0.321-0.374s-0.292-0.146-0.47-0.176
		c-0.18-0.029-0.368-0.044-0.567-0.044h-0.053v-0.756H174.59z M172.647,190.114c0-0.211,0.026-0.387,0.079-0.527
		s0.125-0.255,0.215-0.343c0.092-0.088,0.199-0.149,0.326-0.185c0.125-0.035,0.259-0.053,0.399-0.053s0.274,0.018,0.399,0.053
		c0.127,0.035,0.234,0.097,0.326,0.185c0.09,0.088,0.164,0.202,0.219,0.343c0.057,0.141,0.084,0.316,0.084,0.527
		s-0.027,0.387-0.084,0.527c-0.055,0.141-0.129,0.255-0.219,0.343c-0.092,0.088-0.199,0.151-0.326,0.188
		c-0.125,0.039-0.259,0.058-0.399,0.058s-0.274-0.019-0.399-0.058c-0.127-0.037-0.234-0.101-0.326-0.188
		c-0.09-0.088-0.162-0.202-0.215-0.343S172.647,190.325,172.647,190.114z"/>
</g>
<g enable-background="new    ">
	<path fill="#231F20" d="M186.605,196.891l2.399,3.56c0.311,0.48,0.62,0.847,0.927,1.099c0.309,0.252,0.664,0.378,1.068,0.378h0.053
		v0.756h-0.255c-0.521,0-0.95-0.016-1.288-0.049c-0.336-0.031-0.628-0.107-0.874-0.229c-0.246-0.119-0.472-0.295-0.677-0.527
		c-0.205-0.23-0.434-0.546-0.686-0.944l-1.802-2.821l-1.327,0.984v1.626c0,0.264,0.039,0.477,0.119,0.638
		c0.078,0.161,0.186,0.282,0.32,0.364s0.291,0.136,0.471,0.163c0.178,0.025,0.367,0.039,0.566,0.039h0.053v0.756h-4.843v-0.756
		h0.141c0.205,0,0.397-0.015,0.575-0.044c0.18-0.029,0.334-0.089,0.467-0.181c0.131-0.09,0.236-0.221,0.316-0.391
		c0.078-0.17,0.118-0.396,0.118-0.677v-9.65c0-0.264-0.04-0.476-0.118-0.638c-0.08-0.16-0.187-0.285-0.321-0.373
		s-0.292-0.145-0.47-0.172c-0.18-0.025-0.368-0.039-0.567-0.039h-0.141v-0.756h3.313v6.943c0,0.164-0.003,0.373-0.009,0.629
		c-0.006,0.254-0.015,0.505-0.026,0.751c-0.012,0.281-0.023,0.577-0.035,0.888l2.25-2.461c0.193-0.217,0.354-0.407,0.479-0.571
		c0.127-0.164,0.228-0.308,0.304-0.431s0.129-0.232,0.158-0.33c0.029-0.096,0.044-0.188,0.044-0.276
		c0-0.152-0.072-0.251-0.215-0.294c-0.145-0.045-0.365-0.066-0.664-0.066v-0.756h3.973v0.756c-0.416,0-0.824,0.146-1.227,0.439
		c-0.4,0.293-0.836,0.706-1.305,1.239L186.605,196.891z"/>
</g>
<g enable-background="new    ">
	<path fill="#231F20" d="M193.301,201.927c0.205,0,0.396-0.015,0.576-0.044c0.178-0.029,0.334-0.089,0.465-0.181
		c0.133-0.09,0.238-0.221,0.316-0.391c0.08-0.17,0.119-0.396,0.119-0.677v-9.65c0-0.264-0.039-0.476-0.119-0.638
		c-0.078-0.16-0.186-0.285-0.32-0.373s-0.291-0.145-0.471-0.172c-0.178-0.025-0.367-0.039-0.566-0.039h-0.229v-0.756h3.401v11.628
		c0,0.281,0.038,0.507,0.114,0.677s0.182,0.301,0.316,0.391c0.135,0.092,0.291,0.151,0.471,0.181
		c0.178,0.029,0.37,0.044,0.575,0.044h0.229v0.756h-5.106v-0.756H193.301z"/>
</g>
<g enable-background="new    ">
	<path fill="#231F20" d="M205.542,201.927v0.756h-4.843v-0.756h0.237c0.205,0,0.393-0.015,0.562-0.044s0.316-0.089,0.439-0.181
		c0.123-0.09,0.218-0.221,0.286-0.391c0.066-0.17,0.101-0.396,0.101-0.677v-5.616c0-0.264-0.035-0.476-0.105-0.637
		s-0.167-0.286-0.29-0.374s-0.27-0.146-0.439-0.176s-0.354-0.044-0.554-0.044h-0.053v-0.756h2.821l0.237,1.459h0.088
		c0.182-0.334,0.372-0.607,0.571-0.822c0.199-0.213,0.412-0.38,0.637-0.5c0.227-0.12,0.463-0.203,0.713-0.246
		c0.248-0.045,0.514-0.066,0.795-0.066c0.293,0,0.571,0.029,0.835,0.088s0.509,0.152,0.733,0.281
		c0.227,0.129,0.428,0.298,0.607,0.506c0.178,0.208,0.323,0.461,0.435,0.76h0.149c0.182-0.334,0.378-0.607,0.589-0.822
		c0.211-0.213,0.435-0.38,0.673-0.5c0.236-0.12,0.486-0.203,0.746-0.246c0.262-0.045,0.532-0.066,0.813-0.066
		c0.457,0,0.867,0.069,1.23,0.207s0.671,0.349,0.923,0.633s0.445,0.648,0.58,1.094s0.202,0.976,0.202,1.591v4.254
		c0,0.281,0.035,0.507,0.105,0.677s0.167,0.301,0.29,0.391c0.123,0.092,0.27,0.151,0.439,0.181s0.354,0.044,0.554,0.044h0.053v0.756
		h-3.129v-6.214c0-0.393-0.034-0.741-0.101-1.046c-0.068-0.305-0.176-0.562-0.326-0.773c-0.148-0.211-0.344-0.37-0.584-0.479
		s-0.533-0.163-0.879-0.163c-0.375,0-0.689,0.072-0.945,0.216c-0.254,0.144-0.461,0.338-0.619,0.584s-0.271,0.53-0.338,0.853
		c-0.068,0.322-0.102,0.665-0.102,1.028v3.946c0,0.281,0.035,0.507,0.105,0.677s0.167,0.301,0.29,0.391
		c0.123,0.092,0.27,0.151,0.439,0.181s0.354,0.044,0.554,0.044h0.053v0.756h-3.129v-6.214c0-0.393-0.033-0.741-0.102-1.046
		c-0.066-0.305-0.176-0.562-0.324-0.773c-0.15-0.211-0.345-0.37-0.585-0.479s-0.533-0.163-0.879-0.163
		c-0.393,0-0.722,0.079-0.989,0.237c-0.266,0.158-0.481,0.372-0.646,0.642s-0.281,0.58-0.352,0.932s-0.105,0.721-0.105,1.107v3.797
		c0,0.264,0.04,0.477,0.118,0.638c0.08,0.161,0.187,0.282,0.321,0.364s0.292,0.136,0.47,0.163c0.18,0.025,0.368,0.039,0.567,0.039
		H205.542z"/>
</g>
<g enable-background="new    ">
	<path fill="#231F20" d="M78.363,223.526v0.756H73.52v-0.756h0.149c0.205,0,0.397-0.015,0.576-0.044s0.334-0.089,0.466-0.181
		c0.132-0.09,0.237-0.221,0.316-0.391s0.119-0.396,0.119-0.677v-5.616c0-0.264-0.04-0.476-0.119-0.637s-0.186-0.286-0.321-0.374
		s-0.292-0.146-0.47-0.176s-0.368-0.044-0.567-0.044h-0.053v-0.756h2.909l0.237,1.459h0.088c0.188-0.334,0.385-0.607,0.593-0.822
		c0.208-0.213,0.428-0.38,0.659-0.5s0.478-0.203,0.738-0.246c0.261-0.045,0.535-0.066,0.822-0.066c0.475,0,0.898,0.069,1.27,0.207
		s0.688,0.349,0.949,0.633s0.46,0.648,0.598,1.094s0.207,0.976,0.207,1.591v4.254c0,0.281,0.034,0.507,0.101,0.677
		s0.163,0.301,0.286,0.391c0.123,0.092,0.27,0.151,0.439,0.181s0.354,0.044,0.554,0.044h0.062v0.756h-3.138v-6.214
		c0-0.393-0.035-0.741-0.105-1.046s-0.183-0.562-0.338-0.773s-0.359-0.37-0.611-0.479s-0.56-0.163-0.923-0.163
		c-0.41,0-0.754,0.079-1.033,0.237s-0.502,0.372-0.672,0.642s-0.292,0.58-0.365,0.932s-0.11,0.721-0.11,1.107v3.797
		c0,0.264,0.04,0.477,0.119,0.638s0.186,0.282,0.321,0.364s0.292,0.136,0.47,0.163c0.179,0.025,0.368,0.039,0.567,0.039H78.363z"/>
	<path fill="#231F20" d="M95.015,219.439c0,1.693-0.359,2.953-1.077,3.779s-1.768,1.239-3.151,1.239
		c-0.65,0-1.233-0.103-1.749-0.308s-0.954-0.516-1.314-0.932s-0.636-0.938-0.826-1.569c-0.19-0.629-0.286-1.366-0.286-2.21
		c0-1.682,0.356-2.933,1.068-3.753s1.765-1.23,3.16-1.23c0.65,0,1.233,0.102,1.749,0.303c0.516,0.203,0.954,0.51,1.314,0.924
		c0.36,0.412,0.636,0.932,0.826,1.555C94.92,217.862,95.015,218.596,95.015,219.439z M88.353,219.439
		c0,0.668,0.044,1.257,0.132,1.767s0.23,0.936,0.426,1.279c0.196,0.342,0.451,0.602,0.765,0.777s0.696,0.264,1.147,0.264
		s0.832-0.088,1.143-0.264s0.562-0.436,0.756-0.777c0.193-0.344,0.333-0.77,0.417-1.279s0.127-1.099,0.127-1.767
		s-0.044-1.254-0.132-1.758s-0.229-0.924-0.422-1.261s-0.447-0.591-0.76-0.761s-0.696-0.255-1.147-0.255s-0.832,0.085-1.143,0.255
		s-0.562,0.424-0.756,0.761s-0.334,0.757-0.422,1.261S88.353,218.771,88.353,219.439z"/>
	<path fill="#231F20" d="M107.062,219.439c0,0.867-0.081,1.617-0.242,2.25s-0.397,1.154-0.708,1.564s-0.694,0.714-1.151,0.909
		c-0.457,0.196-0.981,0.295-1.573,0.295c-0.346,0-0.659-0.038-0.94-0.114s-0.535-0.185-0.76-0.325s-0.425-0.308-0.598-0.501
		s-0.324-0.407-0.453-0.642h-0.07c0.012,0.311,0.023,0.601,0.035,0.87c0.006,0.111,0.01,0.228,0.013,0.347
		c0.003,0.121,0.006,0.233,0.009,0.339s0.006,0.2,0.009,0.286c0.003,0.084,0.004,0.15,0.004,0.197v1.723
		c0,0.264,0.04,0.476,0.119,0.637s0.186,0.284,0.321,0.369s0.292,0.141,0.47,0.168c0.179,0.025,0.368,0.039,0.567,0.039h0.053v0.756
		h-4.843v-0.756h0.141c0.205,0,0.397-0.015,0.576-0.044s0.334-0.09,0.466-0.181s0.237-0.223,0.316-0.395
		c0.079-0.174,0.119-0.4,0.119-0.682v-9.932c0-0.264-0.04-0.476-0.119-0.637s-0.186-0.286-0.321-0.374s-0.292-0.146-0.47-0.176
		s-0.368-0.044-0.567-0.044h-0.229v-0.756h3.146l0.185,1.626h0.07c0.135-0.275,0.287-0.524,0.457-0.747s0.366-0.411,0.589-0.566
		s0.475-0.275,0.756-0.361c0.281-0.084,0.598-0.127,0.949-0.127c0.592,0,1.116,0.099,1.573,0.295s0.841,0.498,1.151,0.904
		c0.311,0.408,0.546,0.925,0.708,1.552S107.062,218.578,107.062,219.439z M103.08,215.607c-0.469,0-0.86,0.078-1.173,0.233
		s-0.564,0.391-0.751,0.707s-0.321,0.715-0.4,1.195s-0.119,1.046-0.119,1.696c0,0.627,0.04,1.181,0.119,1.661
		s0.214,0.885,0.404,1.213s0.442,0.576,0.756,0.742c0.313,0.168,0.708,0.251,1.182,0.251c0.398,0,0.737-0.083,1.015-0.251
		c0.278-0.166,0.507-0.414,0.686-0.742s0.309-0.734,0.391-1.217c0.082-0.484,0.123-1.042,0.123-1.675
		c0-0.639-0.041-1.196-0.123-1.675c-0.082-0.477-0.212-0.874-0.391-1.19s-0.41-0.554-0.694-0.712S103.479,215.607,103.08,215.607z"
		/>
	<path fill="#231F20" d="M119.768,228.606h-5.388v-0.756h0.598c0.205,0,0.397-0.015,0.576-0.044s0.334-0.09,0.466-0.181
		s0.237-0.223,0.316-0.395c0.079-0.174,0.119-0.4,0.119-0.682v-1.547c0-0.205,0.003-0.441,0.009-0.707
		c0.006-0.267,0.015-0.523,0.026-0.77c0.012-0.281,0.023-0.568,0.035-0.861h-0.07c-0.135,0.275-0.289,0.523-0.461,0.742
		c-0.173,0.221-0.371,0.408-0.593,0.562c-0.223,0.156-0.475,0.276-0.756,0.361c-0.281,0.084-0.598,0.127-0.949,0.127
		c-0.592,0-1.116-0.099-1.573-0.295c-0.457-0.195-0.841-0.497-1.151-0.904s-0.545-0.925-0.703-1.552s-0.237-1.371-0.237-2.232
		c0-0.867,0.079-1.617,0.237-2.25s0.393-1.154,0.703-1.564s0.694-0.713,1.151-0.909s0.981-0.295,1.573-0.295
		c0.346,0,0.659,0.038,0.94,0.114s0.535,0.185,0.76,0.325s0.426,0.308,0.602,0.501s0.328,0.407,0.457,0.642h0.105l0.325-1.406h2.883
		v0.756h-0.149c-0.199,0-0.39,0.015-0.571,0.044s-0.338,0.09-0.47,0.181s-0.237,0.223-0.316,0.395
		c-0.079,0.174-0.119,0.4-0.119,0.682v9.932c0,0.264,0.04,0.476,0.119,0.637s0.186,0.286,0.321,0.374s0.292,0.146,0.47,0.176
		s0.368,0.044,0.567,0.044h0.149V228.606z M114.002,223.307c0.469,0,0.86-0.077,1.173-0.233c0.313-0.154,0.565-0.391,0.756-0.707
		s0.325-0.715,0.404-1.195s0.119-1.046,0.119-1.696c0-0.627-0.04-1.181-0.119-1.661s-0.214-0.883-0.404-1.209
		c-0.19-0.324-0.444-0.572-0.76-0.742s-0.712-0.255-1.187-0.255c-0.393,0-0.729,0.085-1.011,0.255s-0.511,0.419-0.69,0.747
		s-0.309,0.733-0.391,1.218c-0.082,0.482-0.123,1.038-0.123,1.665c0,1.277,0.173,2.232,0.519,2.865S113.205,223.307,114.002,223.307
		z"/>
	<path fill="#231F20" d="M126.866,224.282h-5.194v-0.756h0.053c0.205,0,0.397-0.015,0.576-0.044s0.334-0.089,0.466-0.181
		c0.132-0.09,0.237-0.221,0.316-0.391s0.119-0.396,0.119-0.677v-5.616c0-0.264-0.04-0.476-0.119-0.637s-0.186-0.286-0.321-0.374
		s-0.292-0.146-0.47-0.176s-0.368-0.044-0.567-0.044h-0.053v-0.756h2.769l0.343,1.784h0.088c0.117-0.27,0.237-0.522,0.36-0.761
		c0.123-0.236,0.274-0.444,0.453-0.623s0.4-0.319,0.664-0.422s0.595-0.154,0.993-0.154c0.656,0,1.144,0.114,1.463,0.343
		s0.479,0.551,0.479,0.967c0,0.188-0.031,0.36-0.092,0.519s-0.16,0.295-0.294,0.408c-0.135,0.115-0.308,0.203-0.519,0.264
		c-0.211,0.062-0.469,0.093-0.773,0.093c0-0.498-0.07-0.856-0.211-1.077c-0.141-0.219-0.387-0.329-0.738-0.329
		c-0.223,0-0.422,0.063-0.598,0.188c-0.176,0.127-0.33,0.294-0.461,0.502s-0.243,0.446-0.334,0.716s-0.164,0.547-0.22,0.831
		s-0.095,0.566-0.119,0.848s-0.035,0.536-0.035,0.765v2.83c0,0.264,0.04,0.477,0.119,0.638s0.186,0.282,0.321,0.364
		s0.292,0.136,0.47,0.163c0.179,0.025,0.368,0.039,0.567,0.039h0.501V224.282z"/>
</g>
<g enable-background="new    ">
	<path fill="#231F20" d="M138.284,224.458c-0.451,0-0.86-0.039-1.226-0.119c-0.366-0.078-0.678-0.198-0.936-0.359
		s-0.457-0.361-0.598-0.598c-0.141-0.238-0.211-0.515-0.211-0.831c0-0.24,0.04-0.44,0.119-0.603c0.079-0.16,0.176-0.288,0.29-0.382
		s0.237-0.159,0.369-0.198c0.132-0.037,0.25-0.057,0.356-0.057c0,0.316,0.032,0.612,0.097,0.888s0.173,0.518,0.325,0.726
		s0.353,0.372,0.602,0.492s0.555,0.18,0.918,0.18c0.322,0,0.606-0.039,0.853-0.119c0.246-0.078,0.453-0.189,0.62-0.334
		c0.167-0.143,0.294-0.316,0.382-0.518c0.088-0.203,0.132-0.424,0.132-0.664c0-0.223-0.034-0.414-0.101-0.576
		c-0.067-0.16-0.185-0.312-0.352-0.452s-0.394-0.284-0.681-0.431s-0.647-0.313-1.081-0.501c-0.463-0.205-0.866-0.402-1.208-0.593
		s-0.625-0.397-0.848-0.62s-0.39-0.476-0.501-0.761c-0.111-0.283-0.167-0.622-0.167-1.015c0-0.41,0.081-0.773,0.242-1.09
		s0.391-0.581,0.69-0.796c0.299-0.213,0.656-0.376,1.072-0.487s0.879-0.167,1.389-0.167c0.428,0,0.806,0.044,1.134,0.132
		s0.604,0.206,0.826,0.356c0.223,0.148,0.39,0.324,0.501,0.527c0.111,0.201,0.167,0.414,0.167,0.637
		c0,0.328-0.113,0.591-0.338,0.787s-0.546,0.294-0.962,0.294c0-0.604-0.125-1.072-0.374-1.406s-0.64-0.501-1.173-0.501
		c-0.305,0-0.565,0.035-0.782,0.105s-0.394,0.17-0.532,0.299s-0.239,0.281-0.303,0.457s-0.097,0.369-0.097,0.58
		c0,0.229,0.041,0.426,0.123,0.594c0.082,0.166,0.212,0.32,0.391,0.461s0.41,0.277,0.694,0.408c0.284,0.133,0.625,0.28,1.024,0.444
		c0.475,0.199,0.882,0.396,1.222,0.589s0.62,0.404,0.839,0.633s0.382,0.486,0.488,0.773s0.158,0.618,0.158,0.993
		c0,0.469-0.085,0.879-0.255,1.23s-0.41,0.646-0.721,0.884c-0.311,0.236-0.684,0.414-1.121,0.531S138.817,224.458,138.284,224.458z"
		/>
	<path fill="#231F20" d="M148.389,223.509c0.217,0,0.416-0.012,0.598-0.035s0.366-0.053,0.554-0.088v0.791
		c-0.076,0.035-0.176,0.07-0.299,0.105s-0.257,0.066-0.399,0.092c-0.145,0.027-0.295,0.047-0.453,0.062
		c-0.158,0.014-0.308,0.021-0.448,0.021c-0.457,0-0.85-0.049-1.178-0.145c-0.328-0.098-0.598-0.254-0.809-0.471
		s-0.368-0.504-0.47-0.861c-0.104-0.357-0.154-0.794-0.154-1.31v-6.012h-1.371v-0.721c0.217,0,0.456-0.044,0.717-0.132
		c0.26-0.088,0.49-0.234,0.689-0.439c0.205-0.223,0.371-0.488,0.496-0.795c0.127-0.309,0.236-0.693,0.33-1.156h0.826v2.215h2.355
		v1.028h-2.355v6.064c0,0.615,0.125,1.066,0.373,1.354C147.641,223.365,147.973,223.509,148.389,223.509z"/>
</g>
<g enable-background="new    ">
	<path fill="#231F20" d="M162.047,222.322c0,0.264,0.039,0.477,0.118,0.638s0.187,0.282,0.321,0.364s0.291,0.136,0.47,0.163
		c0.179,0.025,0.368,0.039,0.567,0.039h0.053v0.756h-2.857l-0.236-1.459h-0.088c-0.182,0.34-0.383,0.615-0.603,0.826
		s-0.452,0.377-0.698,0.496c-0.246,0.121-0.504,0.203-0.773,0.246c-0.27,0.045-0.551,0.066-0.844,0.066
		c-0.475,0-0.896-0.067-1.266-0.202s-0.68-0.346-0.932-0.633s-0.444-0.653-0.576-1.099s-0.197-0.976-0.197-1.591v-4.315
		c0-0.264-0.04-0.476-0.119-0.637s-0.186-0.286-0.32-0.374s-0.292-0.146-0.471-0.176s-0.367-0.044-0.566-0.044h-0.053v-0.756h3.225
		v6.214c0,0.393,0.031,0.741,0.093,1.046s0.164,0.562,0.308,0.773s0.337,0.371,0.58,0.479c0.243,0.109,0.547,0.163,0.91,0.163
		c0.398,0,0.739-0.07,1.023-0.211s0.519-0.339,0.703-0.593c0.185-0.256,0.32-0.562,0.408-0.919s0.133-0.753,0.133-1.187v-3.709
		c0-0.281-0.04-0.508-0.119-0.682c-0.079-0.172-0.185-0.304-0.316-0.395s-0.287-0.151-0.466-0.181s-0.37-0.044-0.575-0.044h-0.053
		v-0.756h3.217V222.322z"/>
</g>
<g enable-background="new    ">
	<path fill="#231F20" d="M165.842,215.388v-0.756h4.5v0.756h-0.229c-0.363,0-0.635,0.07-0.813,0.211s-0.269,0.36-0.269,0.659
		c0,0.1,0.012,0.201,0.035,0.304s0.059,0.221,0.105,0.355l1.223,3.401c0.076,0.211,0.154,0.444,0.236,0.698
		c0.082,0.256,0.16,0.506,0.233,0.752s0.14,0.479,0.198,0.699c0.059,0.219,0.1,0.405,0.123,0.558h0.061
		c0.029-0.129,0.078-0.288,0.146-0.479c0.067-0.189,0.144-0.397,0.229-0.623s0.173-0.456,0.264-0.69s0.177-0.46,0.259-0.677
		l1.293-3.507c0.059-0.146,0.101-0.287,0.127-0.422s0.039-0.252,0.039-0.352c0-0.311-0.098-0.536-0.294-0.677
		s-0.493-0.211-0.892-0.211h-0.133v-0.756h3.859v0.756h-0.221c-0.176,0-0.324,0.02-0.447,0.057c-0.123,0.039-0.234,0.11-0.334,0.216
		s-0.195,0.249-0.286,0.431s-0.192,0.416-0.304,0.703l-2.838,7.488h-1.645l-2.891-7.937c-0.07-0.188-0.145-0.343-0.221-0.466
		s-0.164-0.221-0.264-0.295c-0.1-0.072-0.213-0.124-0.342-0.153s-0.281-0.044-0.457-0.044H165.842z"/>
</g>
<g enable-background="new    ">
	<path fill="#231F20" d="M186.564,214.685l1.802,5.335c0.07,0.217,0.146,0.45,0.224,0.698c0.08,0.25,0.154,0.496,0.225,0.738
		c0.07,0.244,0.135,0.474,0.193,0.69s0.103,0.401,0.132,0.554h0.053c0.053-0.299,0.138-0.666,0.255-1.104
		c0.117-0.436,0.267-0.944,0.448-1.524l0.896-2.9c0.047-0.152,0.087-0.314,0.118-0.487c0.033-0.173,0.049-0.31,0.049-0.409
		c0-0.311-0.098-0.536-0.295-0.677c-0.195-0.141-0.496-0.211-0.9-0.211h-0.123v-0.756h3.85v0.756h-0.229
		c-0.176,0-0.328,0.018-0.457,0.053s-0.244,0.104-0.348,0.207c-0.102,0.103-0.197,0.244-0.285,0.426s-0.176,0.422-0.264,0.721
		l-2.32,7.488h-1.441l-2.145-6.337l-0.325-1.187l-2.549,7.523h-1.424l-2.355-7.937c-0.07-0.188-0.144-0.343-0.22-0.466
		s-0.164-0.221-0.264-0.295c-0.1-0.072-0.214-0.124-0.343-0.153s-0.281-0.044-0.457-0.044h-0.053v-0.756h4.447v0.756h-0.237
		c-0.357,0-0.627,0.053-0.809,0.158s-0.272,0.305-0.272,0.598c0,0.1,0.017,0.22,0.048,0.36c0.033,0.141,0.066,0.278,0.102,0.413
		l0.844,3.023c0.059,0.217,0.12,0.454,0.185,0.712s0.124,0.515,0.181,0.769c0.055,0.256,0.106,0.494,0.153,0.717
		s0.085,0.41,0.114,0.562h0.053c0.029-0.152,0.068-0.33,0.119-0.531c0.049-0.203,0.107-0.419,0.176-0.65
		c0.066-0.231,0.139-0.468,0.215-0.708s0.152-0.469,0.229-0.686l1.872-5.44H186.564z"/>
</g>
<g enable-background="new    ">
	<path fill="#231F20" d="M202.197,215.915c0-0.217-0.092-0.358-0.277-0.426c-0.184-0.067-0.414-0.102-0.689-0.102h-0.053v-0.756
		h3.938v0.756h-0.158c-0.176,0-0.336,0.015-0.479,0.044c-0.145,0.029-0.285,0.085-0.422,0.167c-0.139,0.082-0.28,0.199-0.427,0.352
		s-0.311,0.349-0.492,0.589l-1.854,2.47l2.646,3.56c0.264,0.352,0.515,0.6,0.751,0.743c0.238,0.144,0.468,0.215,0.69,0.215h0.237
		v0.756h-4.649v-0.756h0.088c0.721,0,1.081-0.199,1.081-0.598c0-0.064-0.009-0.13-0.026-0.197s-0.053-0.146-0.105-0.238
		c-0.053-0.09-0.123-0.2-0.211-0.329s-0.202-0.287-0.343-0.475l-1.204-1.617l-1.257,1.758c-0.053,0.07-0.108,0.152-0.167,0.246
		s-0.111,0.19-0.158,0.29s-0.085,0.201-0.114,0.303c-0.029,0.104-0.044,0.201-0.044,0.295c0,0.205,0.085,0.351,0.255,0.436
		s0.457,0.127,0.861,0.127h0.053v0.756h-4.289v-0.756h0.167c0.217,0,0.407-0.018,0.571-0.053s0.319-0.097,0.466-0.185
		s0.293-0.206,0.439-0.356c0.146-0.148,0.308-0.335,0.483-0.558l2.268-2.936l-2.268-3.094c-0.264-0.311-0.52-0.548-0.77-0.712
		c-0.248-0.164-0.508-0.246-0.777-0.246h-0.237v-0.756h4.57v0.756h-0.053c-0.205,0-0.375,0.014-0.51,0.039
		c-0.135,0.027-0.24,0.065-0.316,0.115s-0.129,0.106-0.158,0.171s-0.044,0.132-0.044,0.202c0,0.123,0.037,0.245,0.109,0.365
		c0.074,0.12,0.178,0.273,0.312,0.461l1.187,1.617l0.932-1.345c0.135-0.205,0.243-0.398,0.325-0.58S202.197,216.079,202.197,215.915
		z"/>
	<path fill="#231F20" d="M216.854,214.632v0.756h-0.053c-0.176,0-0.327,0.02-0.452,0.057c-0.127,0.039-0.24,0.11-0.344,0.216
		c-0.102,0.105-0.197,0.249-0.285,0.431s-0.185,0.416-0.29,0.703l-2.733,7.559c-0.211,0.58-0.41,1.09-0.598,1.529
		s-0.384,0.815-0.589,1.129s-0.429,0.573-0.673,0.778c-0.242,0.205-0.52,0.369-0.83,0.492s-0.668,0.208-1.072,0.255
		s-0.873,0.07-1.406,0.07h-0.158v-0.853c0.609,0,1.134-0.091,1.573-0.272s0.819-0.431,1.138-0.747c0.32-0.316,0.586-0.69,0.801-1.12
		c0.213-0.432,0.394-0.898,0.54-1.402l-3.331-7.866c-0.082-0.188-0.161-0.341-0.237-0.462c-0.076-0.119-0.163-0.218-0.259-0.294
		c-0.098-0.076-0.209-0.129-0.334-0.158c-0.127-0.029-0.277-0.044-0.453-0.044h-0.053v-0.756h4.324v0.756h-0.053
		c-0.363,0-0.635,0.07-0.812,0.211c-0.18,0.141-0.269,0.36-0.269,0.659c0,0.1,0.011,0.201,0.03,0.304
		c0.021,0.103,0.058,0.221,0.11,0.355l1.318,3.208c0.082,0.205,0.169,0.43,0.259,0.673c0.092,0.243,0.176,0.482,0.256,0.721
		c0.078,0.236,0.15,0.461,0.215,0.672s0.108,0.393,0.132,0.545h0.053c0.064-0.264,0.153-0.584,0.269-0.963
		c0.113-0.377,0.247-0.783,0.399-1.217l1.204-3.507c0.053-0.146,0.092-0.287,0.119-0.422c0.025-0.135,0.039-0.252,0.039-0.352
		c0-0.311-0.098-0.536-0.295-0.677c-0.195-0.141-0.493-0.211-0.892-0.211h-0.053v-0.756H216.854z"/>
</g>
<g enable-background="new    ">
	<path fill="#231F20" d="M225.582,223.254c0.211,0,0.385-0.041,0.523-0.123c0.137-0.082,0.252-0.19,0.342-0.325
		c0.092-0.135,0.164-0.291,0.221-0.471c0.055-0.178,0.104-0.364,0.145-0.558l0.088-0.413h0.756l-0.088,2.918h-7.348v-0.721
		l5.221-7.901h-2.812c-0.234,0-0.428,0.03-0.58,0.093c-0.152,0.061-0.277,0.153-0.373,0.276c-0.098,0.123-0.176,0.275-0.238,0.457
		c-0.061,0.182-0.124,0.393-0.188,0.633l-0.018,0.07h-0.756l0.176-2.558h6.899v0.738l-5.238,7.884H225.582z"/>
</g>
<g enable-background="new    ">
	<path fill="#FFFFFF" d="M102.438,246.075c0,0.826-0.072,1.578-0.216,2.256c-0.144,0.68-0.362,1.26-0.655,1.744
		c-0.293,0.482-0.659,0.856-1.099,1.12s-0.955,0.396-1.545,0.396c-0.615,0-1.145-0.132-1.589-0.396s-0.81-0.638-1.095-1.12
		c-0.286-0.484-0.497-1.066-0.634-1.747c-0.137-0.682-0.205-1.437-0.205-2.267s0.068-1.582,0.205-2.256s0.348-1.25,0.634-1.729
		c0.285-0.479,0.651-0.848,1.099-1.106c0.446-0.259,0.98-0.388,1.6-0.388c0.586,0,1.097,0.129,1.535,0.388
		c0.437,0.259,0.802,0.628,1.095,1.106s0.511,1.056,0.655,1.731C102.365,244.485,102.438,245.241,102.438,246.075z M96.959,246.075
		c0,0.743,0.034,1.405,0.103,1.989c0.068,0.583,0.179,1.076,0.333,1.479c0.153,0.402,0.356,0.71,0.607,0.923
		c0.251,0.212,0.558,0.318,0.919,0.318c0.366,0,0.674-0.106,0.923-0.318c0.249-0.213,0.451-0.521,0.604-0.923
		c0.154-0.403,0.264-0.896,0.33-1.479c0.065-0.584,0.099-1.246,0.099-1.989c0-0.741-0.033-1.403-0.099-1.984
		c-0.066-0.581-0.176-1.071-0.33-1.473c-0.153-0.399-0.354-0.704-0.601-0.911c-0.247-0.208-0.55-0.312-0.912-0.312
		c-0.366,0-0.675,0.104-0.926,0.312c-0.252,0.207-0.456,0.512-0.612,0.911c-0.156,0.401-0.269,0.892-0.337,1.473
		S96.959,245.334,96.959,246.075z"/>
	<path fill="#FFFFFF" d="M106.549,251.444v-0.63h1.003c0.171,0,0.331-0.012,0.479-0.036s0.278-0.075,0.389-0.15
		c0.109-0.076,0.197-0.185,0.264-0.326c0.065-0.142,0.099-0.33,0.099-0.564v-7.881c-0.19,0.234-0.371,0.447-0.542,0.638
		s-0.334,0.354-0.491,0.491s-0.309,0.242-0.458,0.318c-0.149,0.075-0.297,0.113-0.443,0.113c-0.22,0-0.4-0.074-0.542-0.224
		c-0.142-0.148-0.212-0.343-0.212-0.582c0.151-0.039,0.304-0.087,0.458-0.143c0.154-0.057,0.317-0.13,0.491-0.22
		c0.173-0.091,0.361-0.2,0.563-0.33c0.203-0.129,0.429-0.284,0.678-0.465l1.055-0.776h0.959v9.06c0,0.234,0.032,0.423,0.095,0.564
		s0.151,0.25,0.264,0.326c0.112,0.075,0.243,0.126,0.392,0.15s0.309,0.036,0.48,0.036h0.732v0.63H106.549z"/>
	<path fill="#FFFFFF" d="M122.402,243.087c0,0.352-0.056,0.694-0.168,1.025c-0.112,0.333-0.276,0.673-0.491,1.022
		c-0.215,0.349-0.478,0.712-0.787,1.087c-0.311,0.377-0.663,0.782-1.059,1.217l-2.534,2.805h3.464c0.225,0,0.41-0.031,0.557-0.096
		c0.146-0.062,0.266-0.146,0.359-0.248c0.093-0.104,0.165-0.222,0.216-0.355c0.052-0.135,0.094-0.275,0.128-0.422l0.059-0.271h0.63
		l-0.073,2.593h-6.453v-1.099l2.505-2.894c0.4-0.463,0.736-0.879,1.007-1.244c0.271-0.367,0.49-0.712,0.656-1.037
		c0.166-0.324,0.286-0.642,0.359-0.952c0.073-0.31,0.11-0.636,0.11-0.978c0-0.288-0.031-0.548-0.091-0.78
		c-0.062-0.231-0.154-0.432-0.278-0.601c-0.125-0.168-0.284-0.298-0.477-0.388c-0.193-0.091-0.421-0.136-0.685-0.136
		c-0.342,0-0.619,0.062-0.831,0.184c-0.213,0.122-0.38,0.285-0.502,0.49s-0.205,0.442-0.249,0.711s-0.066,0.552-0.066,0.85
		c-0.181,0-0.349-0.016-0.505-0.045s-0.293-0.081-0.41-0.157c-0.117-0.075-0.209-0.176-0.274-0.3
		c-0.066-0.125-0.099-0.282-0.099-0.473c0-0.288,0.062-0.556,0.187-0.802c0.124-0.247,0.31-0.46,0.557-0.642
		c0.246-0.18,0.553-0.32,0.919-0.421c0.366-0.1,0.791-0.149,1.274-0.149c0.474,0,0.898,0.06,1.274,0.179
		c0.376,0.12,0.696,0.288,0.959,0.506c0.264,0.217,0.465,0.479,0.604,0.787C122.333,242.362,122.402,242.706,122.402,243.087z"/>
	<path fill="#FFFFFF" d="M129.589,250.785c0.298,0,0.581-0.041,0.85-0.124s0.505-0.221,0.71-0.41
		c0.205-0.191,0.369-0.439,0.491-0.748c0.122-0.307,0.183-0.686,0.183-1.135c0-0.317-0.062-0.604-0.187-0.86
		c-0.124-0.257-0.304-0.475-0.538-0.655s-0.52-0.321-0.857-0.422c-0.337-0.1-0.715-0.15-1.135-0.15h-0.476v-0.762h0.476
		c0.332,0,0.641-0.055,0.927-0.164c0.285-0.11,0.534-0.265,0.747-0.465c0.212-0.2,0.379-0.443,0.501-0.729
		c0.122-0.285,0.183-0.606,0.183-0.963c0-0.293-0.029-0.554-0.088-0.784c-0.059-0.229-0.153-0.424-0.282-0.586
		c-0.129-0.16-0.295-0.282-0.498-0.365s-0.448-0.125-0.736-0.125c-0.342,0-0.62,0.062-0.835,0.184s-0.383,0.285-0.505,0.49
		s-0.205,0.442-0.249,0.711s-0.066,0.552-0.066,0.85c-0.181,0-0.349-0.016-0.505-0.045s-0.293-0.081-0.41-0.157
		c-0.117-0.075-0.209-0.176-0.274-0.3c-0.066-0.125-0.099-0.282-0.099-0.473c0-0.288,0.062-0.556,0.187-0.802
		c0.124-0.247,0.311-0.46,0.56-0.642c0.249-0.18,0.557-0.32,0.923-0.421c0.366-0.1,0.791-0.149,1.274-0.149
		c0.474,0,0.903,0.054,1.289,0.16c0.386,0.108,0.716,0.263,0.993,0.466c0.275,0.202,0.489,0.451,0.641,0.747
		c0.151,0.295,0.227,0.633,0.227,1.014c0,0.338-0.06,0.655-0.179,0.953c-0.12,0.298-0.287,0.567-0.502,0.809
		c-0.215,0.242-0.469,0.448-0.762,0.619s-0.613,0.298-0.959,0.381c0.186,0.02,0.383,0.053,0.593,0.099
		c0.21,0.047,0.417,0.114,0.623,0.202s0.401,0.197,0.589,0.329s0.354,0.293,0.498,0.483s0.259,0.411,0.345,0.663
		c0.085,0.251,0.128,0.543,0.128,0.875c0,0.4-0.054,0.76-0.161,1.077s-0.255,0.594-0.443,0.831
		c-0.188,0.236-0.406,0.438-0.655,0.604s-0.515,0.3-0.798,0.402s-0.574,0.177-0.872,0.224c-0.298,0.046-0.591,0.069-0.879,0.069
		c-0.493,0-0.918-0.045-1.274-0.136c-0.356-0.09-0.651-0.211-0.883-0.362s-0.402-0.328-0.513-0.531
		c-0.109-0.202-0.165-0.414-0.165-0.633c0-0.303,0.085-0.539,0.256-0.707c0.171-0.169,0.4-0.253,0.688-0.253
		c0,0.264,0.042,0.507,0.128,0.729c0.085,0.223,0.209,0.414,0.37,0.575s0.36,0.287,0.597,0.377
		C129.017,250.74,129.287,250.785,129.589,250.785z"/>
	<path fill="#FFFFFF" d="M142.563,248.507v1.23c0,0.234,0.033,0.423,0.099,0.564c0.066,0.142,0.154,0.25,0.264,0.326
		c0.11,0.075,0.241,0.126,0.392,0.15s0.31,0.036,0.476,0.036h0.198v0.63h-4.519v-0.63h0.425c0.171,0,0.331-0.012,0.479-0.036
		s0.278-0.075,0.389-0.15c0.109-0.076,0.197-0.185,0.264-0.326c0.065-0.142,0.099-0.33,0.099-0.564v-1.23h-4.622v-0.615l4.636-7.155
		h1.421v6.929h1.86v0.842H142.563z M141.128,244.89c0-0.221,0.002-0.462,0.007-0.726s0.011-0.532,0.018-0.806
		c0.008-0.273,0.017-0.546,0.029-0.816c0.012-0.271,0.028-0.523,0.048-0.758c-0.034,0.068-0.083,0.159-0.146,0.274
		c-0.063,0.114-0.136,0.243-0.216,0.384c-0.081,0.143-0.167,0.291-0.257,0.447s-0.181,0.309-0.271,0.458
		c-0.091,0.148-0.175,0.288-0.253,0.417c-0.078,0.13-0.146,0.238-0.205,0.326l-2.3,3.574h3.545V244.89z"/>
	<path fill="#FFFFFF" d="M150.213,250.712c0.308,0,0.592-0.043,0.854-0.128c0.261-0.086,0.488-0.228,0.682-0.425
		c0.191-0.198,0.342-0.459,0.449-0.784c0.107-0.324,0.162-0.724,0.162-1.197c0-0.396-0.055-0.739-0.162-1.032
		s-0.261-0.537-0.461-0.732s-0.439-0.341-0.718-0.437c-0.278-0.095-0.591-0.143-0.938-0.143c-0.259,0-0.482,0.01-0.671,0.029
		c-0.188,0.02-0.354,0.045-0.498,0.077c-0.144,0.031-0.27,0.067-0.377,0.105c-0.107,0.04-0.207,0.079-0.3,0.117l-0.358-0.102
		l0.482-5.311h5.01l0.074,2.264h-0.631l-0.059-0.447c-0.014-0.107-0.035-0.199-0.062-0.274c-0.026-0.076-0.068-0.14-0.127-0.19
		c-0.059-0.052-0.139-0.089-0.238-0.113c-0.101-0.024-0.229-0.037-0.385-0.037h-2.908l-0.285,3.296
		c0.151-0.054,0.369-0.107,0.656-0.161c0.285-0.054,0.65-0.08,1.094-0.08c0.484,0,0.934,0.065,1.352,0.197s0.78,0.33,1.088,0.594
		s0.548,0.594,0.721,0.992c0.174,0.397,0.261,0.86,0.261,1.388c0,0.508-0.082,0.972-0.245,1.392c-0.164,0.42-0.4,0.78-0.711,1.08
		c-0.311,0.301-0.689,0.532-1.139,0.696c-0.449,0.163-0.959,0.245-1.531,0.245c-0.557,0-1.017-0.048-1.381-0.143
		c-0.363-0.096-0.652-0.217-0.867-0.363s-0.366-0.309-0.454-0.486c-0.088-0.179-0.132-0.351-0.132-0.517
		c0-0.278,0.076-0.495,0.23-0.651s0.393-0.234,0.715-0.234c0,0.215,0.037,0.415,0.113,0.6c0.075,0.187,0.188,0.346,0.336,0.48
		c0.149,0.134,0.338,0.24,0.564,0.318S149.91,250.712,150.213,250.712z"/>
	<path fill="#FFFFFF" d="M161.84,241.308c-0.752,0-1.321,0.37-1.707,1.109c-0.386,0.74-0.605,1.84-0.659,3.3
		c0.122-0.103,0.257-0.201,0.406-0.297c0.149-0.095,0.312-0.178,0.487-0.249c0.176-0.07,0.367-0.128,0.575-0.172
		c0.207-0.044,0.433-0.066,0.677-0.066c0.459,0,0.875,0.071,1.246,0.213s0.687,0.344,0.948,0.607
		c0.261,0.264,0.462,0.586,0.604,0.967c0.141,0.381,0.212,0.812,0.212,1.289c0,0.527-0.072,1.012-0.216,1.451
		c-0.145,0.439-0.354,0.816-0.63,1.131c-0.276,0.315-0.613,0.561-1.011,0.736c-0.398,0.176-0.854,0.264-1.366,0.264
		c-0.498,0-0.96-0.104-1.384-0.312c-0.426-0.207-0.793-0.534-1.103-0.981c-0.311-0.446-0.554-1.021-0.729-1.721
		c-0.176-0.701-0.264-1.544-0.264-2.531c0-0.473,0.035-0.938,0.106-1.391c0.071-0.455,0.177-0.884,0.319-1.289
		c0.141-0.405,0.319-0.779,0.534-1.121s0.468-0.636,0.758-0.883c0.29-0.246,0.619-0.438,0.985-0.574s0.77-0.205,1.209-0.205
		c0.42,0,0.784,0.043,1.095,0.131c0.31,0.088,0.567,0.205,0.772,0.352s0.357,0.315,0.458,0.506c0.1,0.19,0.149,0.386,0.149,0.586
		c0,0.288-0.098,0.511-0.293,0.666c-0.195,0.157-0.48,0.234-0.856,0.234c0-0.243-0.023-0.472-0.069-0.685
		c-0.047-0.212-0.123-0.397-0.23-0.557c-0.107-0.158-0.244-0.283-0.41-0.373C162.289,241.353,162.084,241.308,161.84,241.308z
		 M161.319,245.702c-0.195,0-0.384,0.025-0.563,0.077c-0.182,0.051-0.352,0.117-0.51,0.197c-0.158,0.081-0.304,0.174-0.436,0.278
		c-0.132,0.105-0.249,0.209-0.352,0.312c0.01,0.752,0.062,1.395,0.157,1.927c0.096,0.532,0.229,0.967,0.399,1.303
		c0.171,0.338,0.379,0.584,0.623,0.74s0.515,0.234,0.812,0.234c0.537,0,0.945-0.209,1.227-0.626
		c0.281-0.418,0.422-1.081,0.422-1.989c0-0.854-0.153-1.477-0.458-1.867C162.336,245.897,161.896,245.702,161.319,245.702z"/>
	<path fill="#FFFFFF" d="M170.242,251.444l3.538-9.492h-3.94c-0.537,0-0.828,0.254-0.871,0.762l-0.059,0.747h-0.631l0.074-2.71
		h6.709v0.432l-3.691,10.262H170.242z"/>
	<path fill="#FFFFFF" d="M178.463,248.757c0-0.361,0.058-0.678,0.172-0.949c0.115-0.271,0.275-0.513,0.48-0.725
		c0.205-0.213,0.447-0.404,0.725-0.575c0.279-0.171,0.582-0.334,0.908-0.491c-0.283-0.16-0.544-0.335-0.783-0.523
		c-0.239-0.188-0.444-0.394-0.615-0.619c-0.171-0.224-0.305-0.47-0.398-0.735c-0.096-0.267-0.144-0.556-0.144-0.868
		c0-0.347,0.062-0.682,0.183-1.004c0.123-0.322,0.312-0.607,0.572-0.856c0.258-0.249,0.594-0.449,1.006-0.601
		c0.413-0.151,0.908-0.227,1.484-0.227c0.469,0,0.886,0.064,1.252,0.193c0.366,0.13,0.675,0.31,0.926,0.539
		c0.252,0.229,0.443,0.501,0.576,0.816c0.131,0.314,0.197,0.66,0.197,1.036c0,0.327-0.049,0.615-0.146,0.864s-0.234,0.473-0.41,0.67
		c-0.176,0.198-0.389,0.376-0.637,0.535c-0.25,0.158-0.525,0.313-0.828,0.465c0.371,0.176,0.709,0.364,1.014,0.564
		c0.306,0.2,0.568,0.417,0.788,0.651s0.39,0.488,0.509,0.762s0.18,0.574,0.18,0.901c0,0.474-0.086,0.896-0.256,1.271
		c-0.172,0.373-0.413,0.689-0.726,0.948s-0.69,0.455-1.136,0.59c-0.443,0.134-0.939,0.201-1.486,0.201
		c-0.562,0-1.055-0.073-1.479-0.22s-0.78-0.348-1.065-0.604c-0.285-0.256-0.501-0.557-0.645-0.9
		C178.535,249.521,178.463,249.151,178.463,248.757z M181.942,250.902c0.327,0,0.624-0.05,0.89-0.15
		c0.266-0.1,0.493-0.237,0.682-0.413c0.188-0.176,0.333-0.386,0.436-0.631c0.103-0.243,0.154-0.51,0.154-0.798
		c0-0.254-0.047-0.489-0.14-0.707c-0.093-0.217-0.244-0.427-0.454-0.63c-0.21-0.202-0.482-0.4-0.816-0.593
		c-0.335-0.193-0.744-0.395-1.227-0.604c-0.475,0.254-0.85,0.584-1.129,0.988c-0.277,0.406-0.417,0.892-0.417,1.458
		c0,0.312,0.042,0.596,0.128,0.85s0.213,0.473,0.381,0.655c0.168,0.184,0.38,0.325,0.634,0.425
		C181.317,250.853,181.61,250.902,181.942,250.902z M183.671,243.132c0-0.229-0.03-0.455-0.091-0.674
		c-0.062-0.221-0.16-0.417-0.293-0.59c-0.135-0.174-0.311-0.312-0.527-0.418c-0.219-0.104-0.485-0.157-0.803-0.157
		c-0.278,0-0.526,0.045-0.744,0.136c-0.217,0.09-0.398,0.215-0.545,0.373c-0.146,0.159-0.258,0.348-0.334,0.568
		c-0.075,0.219-0.113,0.459-0.113,0.717c0,0.27,0.043,0.511,0.129,0.726c0.085,0.215,0.213,0.41,0.381,0.586
		s0.379,0.341,0.633,0.494c0.254,0.154,0.547,0.31,0.879,0.466c0.283-0.142,0.518-0.287,0.699-0.437
		c0.184-0.148,0.329-0.312,0.437-0.49c0.107-0.179,0.183-0.374,0.228-0.586C183.648,243.633,183.671,243.396,183.671,243.132z"/>
</g>
<g enable-background="new    ">
	<path fill="#FFFFFF" d="M193.736,250.785c0.83,0,1.443-0.371,1.838-1.113c0.396-0.742,0.618-1.865,0.667-3.369
		c-0.107,0.132-0.233,0.259-0.378,0.381c-0.144,0.122-0.307,0.23-0.49,0.326c-0.184,0.095-0.386,0.171-0.607,0.227
		c-0.223,0.057-0.465,0.085-0.729,0.085c-0.436,0-0.834-0.063-1.197-0.191c-0.365-0.126-0.678-0.316-0.938-0.57
		c-0.262-0.254-0.465-0.572-0.609-0.953c-0.144-0.381-0.215-0.824-0.215-1.332c0-0.543,0.072-1.039,0.219-1.491
		c0.146-0.451,0.357-0.84,0.635-1.164c0.275-0.325,0.611-0.579,1.01-0.762c0.398-0.184,0.849-0.274,1.352-0.274
		c0.508,0,0.975,0.098,1.398,0.293c0.426,0.195,0.794,0.498,1.106,0.908s0.556,0.933,0.729,1.566c0.172,0.636,0.26,1.393,0.26,2.271
		c0,0.522-0.033,1.033-0.1,1.534c-0.066,0.5-0.168,0.973-0.307,1.417c-0.141,0.444-0.318,0.853-0.535,1.223
		c-0.218,0.372-0.477,0.692-0.777,0.964c-0.299,0.271-0.645,0.48-1.035,0.63c-0.391,0.148-0.828,0.223-1.312,0.223
		c-0.425,0-0.778-0.037-1.058-0.113c-0.281-0.075-0.504-0.174-0.668-0.297c-0.163-0.121-0.279-0.261-0.348-0.417
		s-0.102-0.312-0.102-0.469c0-0.186,0.046-0.342,0.139-0.469s0.195-0.21,0.308-0.249c0.068,0.156,0.152,0.307,0.253,0.45
		c0.1,0.145,0.222,0.271,0.365,0.381c0.145,0.11,0.31,0.197,0.495,0.261S193.502,250.785,193.736,250.785z M194.366,246.435
		c0.244-0.005,0.468-0.04,0.671-0.106c0.201-0.065,0.381-0.153,0.537-0.264c0.156-0.109,0.292-0.237,0.406-0.384
		c0.115-0.146,0.207-0.301,0.275-0.462v-0.029c-0.01-0.659-0.063-1.227-0.161-1.703c-0.098-0.476-0.231-0.868-0.403-1.175
		c-0.17-0.309-0.375-0.535-0.611-0.682s-0.499-0.22-0.787-0.22c-0.532,0-0.943,0.232-1.234,0.696s-0.436,1.138-0.436,2.021
		c0,0.41,0.037,0.762,0.109,1.055c0.074,0.293,0.184,0.532,0.33,0.717c0.146,0.187,0.328,0.321,0.545,0.407
		C193.825,246.392,194.078,246.435,194.366,246.435z"/>
</g>
</svg>
