<?xml version="1.0" encoding="utf-8"?>
<!-- Generator: Adobe Illustrator 17.1.0, SVG Export Plug-In . SVG Version: 6.00 Build 0)  -->
<!DOCTYPE svg PUBLIC "-//W3C//DTD SVG 1.1//EN" "http://www.w3.org/Graphics/SVG/1.1/DTD/svg11.dtd">
<svg version="1.1" id="Layer_1" xmlns="http://www.w3.org/2000/svg" xmlns:xlink="http://www.w3.org/1999/xlink" x="0px" y="0px" viewBox="44.8 0 153 153" enable-background="new 44.8 0 153 153" xml:space="preserve">
<rect x="44.8" fill="#DCDBC7" width="153" height="153"/>
<g enable-background="new    ">
	<path fill="#231F20" d="M70,17.6c1.7,0,3,0.4,3.9,1.1s1.4,1.8,1.4,3.2c0,0.8-0.2,1.4-0.6,2c-0.4,0.6-1,1-1.8,1.4
		c0.8,0.3,1.5,0.7,1.8,1.4c0.4,0.6,0.6,1.4,0.6,2.3v1.2c0,0.5,0.1,0.8,0.2,1.1s0.3,0.4,0.6,0.4l0.5,0.1v1.4h-1.1
		c-0.8,0-1.4-0.3-1.7-0.9c-0.3-0.6-0.5-1.3-0.5-2.1V29c0-0.8-0.2-1.5-0.7-2c-0.5-0.5-1.1-0.8-2-0.8H67v5.3l1.7,0.3v1.3h-5.6v-1.3
		l1.7-0.3V19.3L63.2,19v-1.3h1.7H70z M67,24.5h2.8c1.2,0,2-0.2,2.6-0.7s0.8-1.1,0.8-2c0-0.8-0.3-1.5-0.8-1.9
		c-0.5-0.5-1.3-0.7-2.4-0.7h-3V24.5z"/>
	<path fill="#231F20" d="M78.1,27.2c0-1.7,0.5-3.1,1.4-4.2c0.9-1.1,2.2-1.7,3.8-1.7c1.6,0,2.8,0.5,3.8,1.6c0.9,1.1,1.4,2.5,1.4,4.2
		v0.2c0,1.7-0.5,3.1-1.4,4.2c-0.9,1.1-2.2,1.6-3.8,1.6c-1.6,0-2.9-0.5-3.8-1.6c-0.9-1.1-1.4-2.5-1.4-4.2V27.2z M80.2,27.5
		c0,1.2,0.3,2.2,0.8,3c0.5,0.8,1.3,1.2,2.3,1.2c1,0,1.7-0.4,2.3-1.2c0.5-0.8,0.8-1.8,0.8-3v-0.2c0-1.2-0.3-2.2-0.8-3
		C85,23.4,84.3,23,83.2,23c-1,0-1.8,0.4-2.3,1.2c-0.5,0.8-0.8,1.8-0.8,3V27.5z"/>
	<path fill="#231F20" d="M100.8,27.8c0,1.7-0.4,3-1.2,4c-0.8,1-1.9,1.5-3.3,1.5c-0.8,0-1.4-0.1-2-0.4c-0.6-0.3-1-0.7-1.4-1.3
		l-0.2,1.5H91V18.2l-1.7-0.3v-1.4h3.8v6.4c0.4-0.5,0.8-0.9,1.3-1.2c0.5-0.3,1.2-0.4,1.9-0.4c1.4,0,2.5,0.6,3.3,1.7
		c0.8,1.1,1.2,2.6,1.2,4.5V27.8z M98.7,27.6c0-1.3-0.2-2.4-0.7-3.2c-0.5-0.8-1.2-1.2-2.2-1.2c-0.6,0-1.2,0.2-1.6,0.5
		c-0.4,0.3-0.8,0.7-1.1,1.3v5.1c0.3,0.5,0.6,1,1.1,1.3s1,0.5,1.6,0.5c1,0,1.7-0.4,2.2-1.1s0.7-1.6,0.7-2.8V27.6z"/>
	<path fill="#231F20" d="M102.9,27.2c0-1.7,0.5-3.1,1.4-4.2c0.9-1.1,2.2-1.7,3.8-1.7c1.6,0,2.8,0.5,3.8,1.6c0.9,1.1,1.4,2.5,1.4,4.2
		v0.2c0,1.7-0.5,3.1-1.4,4.2c-0.9,1.1-2.2,1.6-3.8,1.6c-1.6,0-2.9-0.5-3.8-1.6c-0.9-1.1-1.4-2.5-1.4-4.2V27.2z M105,27.5
		c0,1.2,0.3,2.2,0.8,3c0.5,0.8,1.3,1.2,2.3,1.2c1,0,1.7-0.4,2.3-1.2c0.5-0.8,0.8-1.8,0.8-3v-0.2c0-1.2-0.3-2.2-0.8-3
		c-0.5-0.8-1.3-1.2-2.3-1.2c-1,0-1.8,0.4-2.3,1.2c-0.5,0.8-0.8,1.8-0.8,3V27.5z"/>
	<path fill="#231F20" d="M118.8,18.8v2.8h2.2v1.6h-2.2v7c0,0.5,0.1,0.9,0.3,1.1c0.2,0.2,0.5,0.3,0.9,0.3c0.2,0,0.4,0,0.6,0
		c0.2,0,0.4-0.1,0.6-0.1l0.3,1.4c-0.2,0.1-0.5,0.2-0.9,0.3c-0.4,0.1-0.8,0.1-1.1,0.1c-0.9,0-1.5-0.3-2-0.8c-0.5-0.5-0.8-1.3-0.8-2.4
		v-7h-1.8v-1.6h1.8v-2.8H118.8z"/>
	<path fill="#231F20" d="M122.9,27.2c0-1.7,0.5-3.1,1.4-4.2s2.2-1.7,3.8-1.7c1.6,0,2.8,0.5,3.8,1.6c0.9,1.1,1.4,2.5,1.4,4.2v0.2
		c0,1.7-0.5,3.1-1.4,4.2c-0.9,1.1-2.2,1.6-3.8,1.6c-1.6,0-2.9-0.5-3.8-1.6c-0.9-1.1-1.4-2.5-1.4-4.2V27.2z M125,27.5
		c0,1.2,0.3,2.2,0.8,3c0.5,0.8,1.3,1.2,2.3,1.2c1,0,1.7-0.4,2.3-1.2c0.5-0.8,0.8-1.8,0.8-3v-0.2c0-1.2-0.3-2.2-0.8-3
		c-0.5-0.8-1.3-1.2-2.3-1.2c-1,0-1.8,0.4-2.3,1.2c-0.5,0.8-0.8,1.8-0.8,3V27.5z"/>
	<path fill="#231F20" d="M151.6,22.2H150l-0.4-2.2c-0.3-0.3-0.7-0.5-1.3-0.7c-0.5-0.2-1.1-0.3-1.9-0.3c-1.1,0-2,0.2-2.6,0.7
		s-0.9,1.1-0.9,1.8c0,0.7,0.3,1.2,0.9,1.7s1.6,0.8,2.9,1.2c1.6,0.4,2.9,1,3.7,1.8c0.8,0.8,1.3,1.8,1.3,2.9c0,1.2-0.5,2.3-1.5,3
		s-2.3,1.1-4,1.1c-1.2,0-2.2-0.2-3.2-0.6c-0.9-0.4-1.7-0.9-2.3-1.5v-2.9h1.6l0.4,2.2c0.4,0.3,0.9,0.6,1.4,0.8c0.6,0.2,1.2,0.3,2,0.3
		c1.1,0,1.9-0.2,2.5-0.7s0.9-1.1,0.9-1.8c0-0.7-0.3-1.3-0.8-1.8c-0.5-0.5-1.5-0.9-2.8-1.2c-1.6-0.4-2.9-1-3.8-1.7
		c-0.9-0.8-1.4-1.7-1.4-2.9c0-1.2,0.5-2.2,1.5-3c1-0.8,2.4-1.2,4-1.2c1.1,0,2.1,0.2,3,0.6c0.9,0.4,1.6,0.8,2.1,1.4V22.2z"/>
	<path fill="#231F20" d="M153.5,17.9v-1.4h3.8v15l1.7,0.3v1.3h-5.6v-1.3l1.7-0.3V18.2L153.5,17.9z"/>
	<path fill="#231F20" d="M168.2,33.1c-0.1-0.3-0.1-0.6-0.1-0.8c0-0.2-0.1-0.5-0.1-0.7c-0.4,0.5-0.9,0.9-1.5,1.3
		c-0.6,0.3-1.3,0.5-1.9,0.5c-1.2,0-2.1-0.3-2.7-0.9s-0.9-1.4-0.9-2.5c0-1.1,0.4-1.9,1.3-2.5c0.9-0.6,2.1-0.9,3.6-0.9h2.2v-1.3
		c0-0.7-0.2-1.2-0.6-1.6s-1-0.6-1.8-0.6c-0.5,0-1,0.1-1.4,0.2s-0.7,0.3-1,0.6l-0.2,1.2h-1.6v-2.2c0.5-0.4,1.2-0.8,1.9-1
		c0.7-0.3,1.6-0.4,2.4-0.4c1.3,0,2.4,0.3,3.2,1c0.8,0.7,1.2,1.6,1.2,2.9v5.5c0,0.1,0,0.3,0,0.4c0,0.1,0,0.3,0,0.4l0.9,0.1v1.3H168.2
		z M164.8,31.6c0.7,0,1.3-0.2,1.9-0.5c0.6-0.3,1-0.7,1.2-1.2V28h-2.2c-0.9,0-1.5,0.2-2,0.6c-0.5,0.4-0.8,0.9-0.8,1.4
		c0,0.5,0.2,0.9,0.5,1.2C163.7,31.4,164.2,31.6,164.8,31.6z"/>
	<path fill="#231F20" d="M183.2,27.8c0,1.7-0.4,3-1.2,4s-1.9,1.5-3.3,1.5c-0.8,0-1.4-0.1-2-0.4c-0.6-0.3-1-0.7-1.4-1.3l-0.2,1.5
		h-1.8V18.2l-1.7-0.3v-1.4h3.8v6.4c0.4-0.5,0.8-0.9,1.3-1.2s1.2-0.4,1.9-0.4c1.4,0,2.5,0.6,3.3,1.7c0.8,1.1,1.2,2.6,1.2,4.5V27.8z
		 M181.1,27.6c0-1.3-0.2-2.4-0.7-3.2c-0.5-0.8-1.2-1.2-2.2-1.2c-0.6,0-1.2,0.2-1.6,0.5c-0.4,0.3-0.8,0.7-1.1,1.3v5.1
		c0.3,0.5,0.6,1,1.1,1.3s1,0.5,1.6,0.5c1,0,1.7-0.4,2.2-1.1c0.5-0.7,0.7-1.6,0.7-2.8V27.6z"/>
</g>
<g enable-background="new    ">
	<path fill="#231F20" d="M63.2,52.1L64,52l3.5-8.9h1.1L72,52l0.7,0.1V53h-2.8v-0.9l0.7-0.1l-0.7-1.8h-4L65.3,52l0.7,0.1V53h-2.8
		V52.1z M66.4,49.1h3.1L68,44.8h0L66.4,49.1z"/>
	<path fill="#231F20" d="M78.4,53c0-0.2-0.1-0.4-0.1-0.5c0-0.2,0-0.3,0-0.5c-0.3,0.3-0.6,0.6-1,0.8c-0.4,0.2-0.8,0.3-1.2,0.3
		c-0.8,0-1.3-0.2-1.7-0.6c-0.4-0.4-0.6-0.9-0.6-1.6c0-0.7,0.3-1.2,0.8-1.6c0.6-0.4,1.3-0.6,2.3-0.6h1.4V48c0-0.4-0.1-0.8-0.4-1
		c-0.3-0.3-0.6-0.4-1.1-0.4c-0.3,0-0.6,0-0.9,0.1c-0.3,0.1-0.5,0.2-0.6,0.4l-0.1,0.8h-1v-1.4c0.3-0.3,0.7-0.5,1.2-0.6s1-0.2,1.5-0.2
		c0.8,0,1.5,0.2,2,0.6c0.5,0.4,0.8,1,0.8,1.8v3.5c0,0.1,0,0.2,0,0.3c0,0.1,0,0.2,0,0.3l0.5,0.1V53H78.4z M76.3,52
		c0.4,0,0.8-0.1,1.2-0.3c0.4-0.2,0.6-0.5,0.8-0.8v-1.2h-1.4c-0.5,0-1,0.1-1.3,0.4s-0.5,0.6-0.5,0.9c0,0.3,0.1,0.6,0.3,0.7
		C75.6,51.9,75.9,52,76.3,52z"/>
	<path fill="#231F20" d="M93.5,48.1c0,0.9-0.2,1.7-0.5,2.4c-0.3,0.7-0.8,1.3-1.4,1.8l2,1.4l-0.9,0.8l-2.2-1.6
		C90.2,53,90,53,89.7,53.1c-0.2,0-0.5,0.1-0.7,0.1c-1.3,0-2.3-0.5-3.1-1.4s-1.2-2.1-1.2-3.6V48c0-1.4,0.4-2.6,1.2-3.6
		c0.8-1,1.8-1.4,3.1-1.4c1.3,0,2.4,0.5,3.2,1.4c0.8,1,1.2,2.2,1.2,3.6V48.1z M92.1,48c0-1.1-0.3-2.1-0.8-2.8
		c-0.6-0.7-1.3-1.1-2.3-1.1c-0.9,0-1.7,0.4-2.2,1.1S86,46.8,86,48v0.2c0,1.2,0.3,2.1,0.8,2.8c0.5,0.7,1.3,1.1,2.2,1.1
		c1,0,1.8-0.4,2.3-1.1c0.5-0.7,0.8-1.7,0.8-2.8V48z"/>
	<path fill="#231F20" d="M94.6,49.5c0-1.2,0.3-2.1,0.8-2.9c0.5-0.7,1.2-1.1,2.1-1.1c0.4,0,0.8,0.1,1.1,0.2s0.6,0.4,0.9,0.7l0.1-0.8
		h1.2v9.1l1.1,0.2v0.9h-3.6V55l1.1-0.2v-2.5c-0.2,0.3-0.5,0.5-0.8,0.6s-0.7,0.2-1.1,0.2c-0.9,0-1.6-0.3-2.1-1
		c-0.5-0.6-0.8-1.5-0.8-2.6V49.5z M95.9,49.6c0,0.7,0.2,1.3,0.5,1.8c0.3,0.5,0.8,0.7,1.4,0.7c0.4,0,0.7-0.1,0.9-0.2
		c0.3-0.2,0.5-0.4,0.7-0.7v-3.7c-0.2-0.3-0.4-0.5-0.7-0.7s-0.6-0.2-0.9-0.2c-0.6,0-1.1,0.3-1.4,0.8s-0.5,1.2-0.5,2.1V49.6z"/>
	<path fill="#231F20" d="M110.1,43.1c1.1,0,1.9,0.2,2.5,0.7c0.6,0.5,0.9,1.2,0.9,2c0,0.5-0.1,0.9-0.4,1.3c-0.3,0.4-0.6,0.7-1.1,0.9
		c0.5,0.2,0.9,0.5,1.2,0.9s0.4,0.9,0.4,1.5v0.8c0,0.3,0,0.5,0.1,0.7c0.1,0.1,0.2,0.2,0.4,0.3l0.3,0V53h-0.7c-0.5,0-0.9-0.2-1.1-0.5
		c-0.2-0.4-0.3-0.8-0.3-1.3v-0.8c0-0.5-0.2-1-0.5-1.3c-0.3-0.3-0.7-0.5-1.3-0.5h-2.1V52l1.1,0.2V53h-3.6v-0.9l1.1-0.2v-7.8l-1.1-0.2
		v-0.9h1.1H110.1z M108.2,47.5h1.8c0.7,0,1.3-0.1,1.6-0.4c0.3-0.3,0.5-0.7,0.5-1.2c0-0.5-0.2-0.9-0.5-1.2c-0.3-0.3-0.8-0.5-1.5-0.5
		h-1.9V47.5z"/>
	<path fill="#231F20" d="M115.3,46.5v-0.9h2.3l0.1,1.1c0.2-0.4,0.5-0.7,0.8-0.9s0.7-0.3,1-0.3c0.1,0,0.2,0,0.3,0
		c0.1,0,0.2,0,0.3,0.1l-0.2,1.2l-0.8,0c-0.4,0-0.6,0.1-0.9,0.2c-0.2,0.2-0.4,0.4-0.6,0.7V52l1.1,0.2V53h-3.6v-0.9l1.1-0.2v-5.2
		L115.3,46.5z"/>
</g>
<g enable-background="new    ">
	<path fill="#FFFFFF" d="M155.7,69.7c-0.2-0.7-0.3-1.4-0.4-2s-0.1-1.2-0.2-1.8c-1,1.2-2.2,2.3-3.6,3.1s-3,1.2-4.6,1.2
		c-2.8,0-5-0.7-6.5-2.1c-1.5-1.4-2.2-3.3-2.2-5.9c0-2.6,1-4.6,3.1-6c2.1-1.4,5-2.1,8.6-2.1h5.1V51c0-1.6-0.5-2.9-1.5-3.8
		s-2.4-1.4-4.2-1.4c-1.2,0-2.3,0.2-3.3,0.5c-1,0.3-1.7,0.8-2.3,1.3l-0.5,2.9h-3.8v-5.3c1.2-1,2.8-1.8,4.5-2.4
		c1.8-0.6,3.7-0.9,5.8-0.9c3.1,0,5.6,0.8,7.5,2.4c1.9,1.6,2.9,3.8,2.9,6.8v13.2c0,0.4,0,0.7,0,1s0,0.7,0.1,1l2,0.3v3.2H155.7z
		 M147.7,66.1c1.6,0,3.2-0.4,4.5-1.2c1.4-0.8,2.3-1.7,2.9-2.9v-4.5h-5.3c-2,0-3.6,0.5-4.8,1.4s-1.8,2.1-1.8,3.4
		c0,1.2,0.4,2.1,1.1,2.7C145.1,65.8,146.2,66.1,147.7,66.1z"/>
</g>
<g enable-background="new    ">
	<path fill="#231F20" d="M62.8,68.4l0.7-0.1l3-8.6h2l3,8.6l0.7,0.1v1.2h-3.4v-1.2l0.7-0.1l-0.4-1.4h-3.2l-0.4,1.4l0.7,0.1v1.2h-3.4
		V68.4z M66.4,65.4h2.3L67.6,62h0L66.4,65.4z"/>
	<path fill="#231F20" d="M77.7,69.6c-0.1-0.1-0.1-0.2-0.1-0.4c0-0.1-0.1-0.3-0.1-0.4c-0.2,0.3-0.5,0.5-0.9,0.7
		c-0.3,0.2-0.7,0.3-1.2,0.3c-0.7,0-1.3-0.2-1.7-0.6S73,68.2,73,67.5c0-0.7,0.3-1.2,0.8-1.6s1.4-0.6,2.4-0.6h1v-0.7
		c0-0.4-0.1-0.6-0.3-0.8s-0.5-0.3-0.9-0.3c-0.2,0-0.4,0-0.6,0.1c-0.2,0.1-0.3,0.1-0.4,0.2l-0.1,0.8h-1.5l0-1.6
		c0.4-0.2,0.8-0.5,1.2-0.6s1-0.3,1.5-0.3c0.9,0,1.6,0.2,2.2,0.7c0.6,0.4,0.9,1.1,0.9,1.9v3c0,0.1,0,0.2,0,0.3c0,0.1,0,0.2,0,0.3
		l0.6,0.1v1.2H77.7z M75.9,68.2c0.3,0,0.6-0.1,0.8-0.2c0.2-0.1,0.4-0.3,0.6-0.5v-1.1h-1c-0.4,0-0.7,0.1-1,0.3
		c-0.2,0.2-0.3,0.4-0.3,0.7c0,0.2,0.1,0.4,0.2,0.6C75.4,68.2,75.6,68.2,75.9,68.2z"/>
	<path fill="#231F20" d="M93,64.7c0,0.9-0.2,1.6-0.5,2.4s-0.7,1.3-1.3,1.7l2.1,1.3L92,71.2l-2.4-1.6c-0.2,0-0.4,0.1-0.5,0.1
		c-0.2,0-0.4,0-0.5,0c-1.3,0-2.4-0.5-3.2-1.4S84,66.1,84,64.7v-0.1c0-1.4,0.4-2.6,1.2-3.6c0.8-1,1.9-1.4,3.2-1.4
		c1.3,0,2.4,0.5,3.3,1.4c0.8,1,1.2,2.1,1.2,3.6V64.7z M91,64.5c0-1-0.2-1.9-0.6-2.5c-0.4-0.6-1.1-1-1.9-1s-1.5,0.3-1.9,1
		S86,63.5,86,64.5v0.2c0,1,0.2,1.9,0.6,2.5c0.4,0.6,1,1,1.9,1c0.8,0,1.5-0.3,1.9-1c0.4-0.6,0.6-1.5,0.6-2.5V64.5z"/>
	<path fill="#231F20" d="M93.9,66c0-1.2,0.3-2.1,0.8-2.8s1.2-1.1,2.1-1.1c0.4,0,0.8,0.1,1.1,0.3c0.3,0.2,0.6,0.4,0.8,0.8l0.2-0.9
		h1.7V71l1,0.2v1.2h-3.9v-1.2l1-0.2v-2.1c-0.2,0.3-0.5,0.5-0.8,0.6s-0.6,0.2-1,0.2c-0.9,0-1.6-0.3-2.1-1c-0.5-0.7-0.8-1.5-0.8-2.6
		V66z M95.9,66.1c0,0.6,0.1,1.2,0.3,1.5s0.6,0.6,1.1,0.6c0.3,0,0.5-0.1,0.7-0.2c0.2-0.1,0.4-0.3,0.5-0.5v-3.3
		c-0.1-0.2-0.3-0.4-0.5-0.5c-0.2-0.1-0.5-0.2-0.7-0.2c-0.5,0-0.8,0.2-1.1,0.6c-0.2,0.4-0.3,1-0.3,1.7V66.1z"/>
	<path fill="#231F20" d="M109.5,59.7c1.1,0,2,0.3,2.6,0.8c0.6,0.5,1,1.2,1,2.1c0,0.5-0.1,0.9-0.4,1.3c-0.3,0.4-0.7,0.7-1.2,0.9
		c0.6,0.2,1,0.5,1.3,0.9c0.3,0.4,0.4,0.9,0.4,1.5v0.5c0,0.2,0,0.4,0.1,0.5c0.1,0.1,0.2,0.2,0.4,0.2l0.2,0v1.2h-1
		c-0.6,0-1.1-0.2-1.4-0.5c-0.3-0.3-0.4-0.8-0.4-1.4v-0.6c0-0.5-0.1-0.9-0.4-1.1s-0.6-0.4-1.1-0.4h-1.6v2.6l1.1,0.2v1.2h-4.1v-1.2
		l1.1-0.2v-7.1l-1.1-0.2v-1.2h1.1H109.5z M108.1,64h1.4c0.6,0,1-0.1,1.2-0.4c0.3-0.2,0.4-0.6,0.4-1c0-0.4-0.1-0.8-0.4-1.1
		c-0.3-0.3-0.7-0.4-1.2-0.4h-1.4V64z"/>
	<path fill="#231F20" d="M114.8,68.4l1-0.2v-4.6l-1.1-0.2v-1.2h2.9l0.1,1.1c0.2-0.4,0.4-0.7,0.7-0.9c0.3-0.2,0.6-0.3,0.9-0.3
		c0.1,0,0.2,0,0.3,0c0.1,0,0.2,0,0.3,0.1l-0.2,1.8l-0.8,0c-0.3,0-0.5,0.1-0.7,0.2c-0.2,0.1-0.3,0.3-0.4,0.5v3.6l1,0.2v1.2h-3.9V68.4
		z"/>
</g>
<g enable-background="new    ">
	<path fill="#9F392A" d="M88,79.8c1.2,0,2.2,0.3,2.8,0.9c0.7,0.6,1,1.5,1,2.5c0,1-0.3,1.9-1,2.5c-0.7,0.6-1.6,0.9-2.8,0.9h-2.4V90
		l1.3,0.2v1h-4.1v-1l1.3-0.2v-9l-1.3-0.2v-1h1.3H88z M85.6,85.5H88c0.8,0,1.4-0.2,1.7-0.6c0.4-0.4,0.6-0.9,0.6-1.6
		c0-0.6-0.2-1.2-0.6-1.6c-0.4-0.4-1-0.6-1.7-0.6h-2.4V85.5z"/>
	<path fill="#9F392A" d="M92.9,90.3l1.3-0.2v-9.8L92.9,80v-1h2.8v4.9c0.3-0.4,0.7-0.7,1.1-1c0.4-0.2,0.9-0.3,1.4-0.3
		c0.9,0,1.6,0.3,2.1,0.8c0.5,0.5,0.8,1.4,0.8,2.5V90l1.3,0.2v1h-4.1v-1l1.3-0.2v-4.1c0-0.7-0.2-1.2-0.5-1.6
		c-0.3-0.3-0.8-0.5-1.3-0.5c-0.4,0-0.8,0.1-1.2,0.3c-0.3,0.2-0.6,0.5-0.9,0.8V90l1.3,0.2v1h-4.1V90.3z"/>
	<path fill="#9F392A" d="M103.5,83.8v-1h2.7l0.1,1.2c0.2-0.4,0.5-0.8,0.9-1s0.8-0.4,1.2-0.4c0.1,0,0.2,0,0.4,0c0.1,0,0.2,0,0.3,0.1
		l-0.2,1.4l-0.9,0c-0.4,0-0.8,0.1-1,0.3c-0.3,0.2-0.5,0.5-0.6,0.8V90l1.3,0.2v1h-4.1v-1l1.3-0.2V84L103.5,83.8z"/>
	<path fill="#9F392A" d="M115.7,91.3c0-0.2-0.1-0.4-0.1-0.6c0-0.2,0-0.4-0.1-0.5c-0.3,0.4-0.7,0.7-1.1,1c-0.4,0.3-0.9,0.4-1.4,0.4
		c-0.9,0-1.6-0.2-2-0.6c-0.5-0.4-0.7-1-0.7-1.8c0-0.8,0.3-1.4,1-1.9c0.7-0.4,1.5-0.7,2.7-0.7h1.6v-1c0-0.5-0.2-0.9-0.5-1.2
		s-0.8-0.4-1.3-0.4c-0.4,0-0.7,0-1,0.1c-0.3,0.1-0.5,0.2-0.7,0.4l-0.2,0.9h-1.2v-1.6c0.4-0.3,0.9-0.6,1.4-0.7
		c0.5-0.2,1.1-0.3,1.8-0.3c1,0,1.7,0.2,2.3,0.7c0.6,0.5,0.9,1.2,0.9,2.1v4.1c0,0.1,0,0.2,0,0.3s0,0.2,0,0.3l0.6,0.1v1H115.7z
		 M113.2,90.1c0.5,0,1-0.1,1.4-0.4c0.4-0.2,0.7-0.5,0.9-0.9v-1.4h-1.6c-0.6,0-1.1,0.1-1.5,0.4s-0.6,0.6-0.6,1.1
		c0,0.4,0.1,0.7,0.3,0.9S112.7,90.1,113.2,90.1z"/>
	<path fill="#9F392A" d="M118.8,90.3l0.9-0.2l2.5-3.1l-2.4-3l-0.9-0.2v-1h3.3v1l-0.8,0.1l1.6,2l1.6-2l-0.8-0.1v-1h3.4v1l-0.9,0.2
		l-2.4,3l2.5,3.1l0.9,0.2v1H124v-1l0.8-0.1l-1.7-2.1l-1.7,2.1l0.8,0.1v1h-3.3V90.3z"/>
	<path fill="#9F392A" d="M132.1,91.4c-1.2,0-2.1-0.4-2.8-1.2c-0.7-0.8-1-1.8-1-3.1v-0.3c0-1.2,0.4-2.2,1.1-3s1.6-1.2,2.6-1.2
		c1.1,0,2,0.3,2.6,1c0.6,0.7,0.9,1.6,0.9,2.8v1h-5.5l0,0c0,0.8,0.2,1.5,0.6,2c0.4,0.5,1,0.8,1.7,0.8c0.5,0,1-0.1,1.4-0.2
		c0.4-0.1,0.7-0.4,1-0.6l0.6,1c-0.3,0.3-0.7,0.5-1.2,0.7C133.4,91.3,132.8,91.4,132.1,91.4z M131.9,83.8c-0.5,0-1,0.2-1.3,0.7
		c-0.4,0.4-0.6,1-0.7,1.6l0,0h3.9V86c0-0.6-0.2-1.1-0.5-1.5S132.5,83.8,131.9,83.8z"/>
	<path fill="#9F392A" d="M136.7,80v-1h2.8v7.1h1l1.8-2.2l-0.8-0.1v-1h3.6v1l-1,0.2l-2.2,2.7l2.7,3.4l1,0.2v1H142v-1l0.8-0.1
		l-2.3-2.8h-1V90l1.3,0.2v1h-4.1v-1l1.3-0.2v-9.8L136.7,80z"/>
</g>
<g enable-background="new    ">
	<path fill="#231F20" d="M87.3,107.7c0-0.1,0-0.3-0.1-0.4c0-0.1,0-0.2,0-0.3c-0.2,0.2-0.4,0.4-0.7,0.6c-0.3,0.2-0.6,0.2-0.9,0.2
		c-0.5,0-0.9-0.1-1.2-0.4s-0.4-0.6-0.4-1.1c0-0.5,0.2-0.8,0.6-1.1s0.9-0.4,1.6-0.4h0.9v-0.6c0-0.3-0.1-0.5-0.3-0.7
		c-0.2-0.2-0.4-0.3-0.8-0.3c-0.2,0-0.4,0-0.6,0.1s-0.3,0.1-0.4,0.2l-0.1,0.5h-0.7v-1c0.2-0.2,0.5-0.3,0.8-0.4
		c0.3-0.1,0.7-0.2,1.1-0.2c0.6,0,1,0.1,1.4,0.4c0.4,0.3,0.5,0.7,0.5,1.3v2.4c0,0.1,0,0.1,0,0.2c0,0.1,0,0.1,0,0.2l0.4,0.1v0.6H87.3z
		 M85.8,107c0.3,0,0.6-0.1,0.8-0.2c0.3-0.1,0.4-0.3,0.5-0.5v-0.8h-1c-0.4,0-0.7,0.1-0.9,0.3c-0.2,0.2-0.3,0.4-0.3,0.6
		c0,0.2,0.1,0.4,0.2,0.5C85.4,106.9,85.6,107,85.8,107z"/>
	<path fill="#231F20" d="M93.9,105.3c0,0.7-0.2,1.3-0.5,1.8c-0.4,0.4-0.8,0.7-1.4,0.7c-0.3,0-0.6-0.1-0.9-0.2s-0.4-0.3-0.6-0.6
		l-0.1,0.6h-0.8v-6.6l-0.8-0.1v-0.6h1.7v2.8c0.2-0.2,0.4-0.4,0.6-0.5c0.2-0.1,0.5-0.2,0.8-0.2c0.6,0,1.1,0.2,1.5,0.7
		S93.9,104.4,93.9,105.3L93.9,105.3z M93,105.2c0-0.6-0.1-1.1-0.3-1.4c-0.2-0.4-0.5-0.5-1-0.5c-0.3,0-0.5,0.1-0.7,0.2
		c-0.2,0.1-0.3,0.3-0.5,0.6v2.2c0.1,0.2,0.3,0.4,0.5,0.6s0.4,0.2,0.7,0.2c0.4,0,0.8-0.2,1-0.5S93,105.8,93,105.2L93,105.2z"/>
	<path fill="#231F20" d="M97.1,107.1c0.3,0,0.6-0.1,0.8-0.3s0.3-0.4,0.3-0.7h0.8l0,0c0,0.4-0.2,0.8-0.6,1.2
		c-0.4,0.3-0.9,0.5-1.4,0.5c-0.7,0-1.3-0.2-1.7-0.7s-0.6-1.1-0.6-1.8v-0.2c0-0.7,0.2-1.3,0.6-1.8c0.4-0.5,0.9-0.7,1.7-0.7
		c0.4,0,0.8,0.1,1.1,0.2s0.6,0.3,0.8,0.6l0,1.1h-0.7l-0.2-0.8c-0.1-0.1-0.2-0.2-0.4-0.3c-0.2-0.1-0.4-0.1-0.6-0.1
		c-0.5,0-0.8,0.2-1,0.5c-0.2,0.3-0.3,0.8-0.3,1.3v0.2c0,0.5,0.1,0.9,0.3,1.3C96.3,106.9,96.6,107.1,97.1,107.1z"/>
	<path fill="#231F20" d="M103.4,107.1c-0.2,0.2-0.4,0.4-0.6,0.5c-0.2,0.1-0.5,0.2-0.8,0.2c-0.6,0-1.1-0.2-1.4-0.7
		c-0.3-0.4-0.5-1-0.5-1.8v-0.1c0-0.8,0.2-1.5,0.5-2s0.8-0.7,1.5-0.7c0.3,0,0.6,0.1,0.8,0.2c0.2,0.1,0.4,0.3,0.6,0.5v-2.1l-0.8-0.1
		v-0.6h0.8h0.9v6.6l0.8,0.1v0.6h-1.6L103.4,107.1z M100.9,105.3c0,0.5,0.1,0.9,0.3,1.2s0.5,0.5,1,0.5c0.3,0,0.5-0.1,0.7-0.2
		c0.2-0.1,0.3-0.3,0.5-0.5V104c-0.1-0.2-0.3-0.4-0.5-0.5c-0.2-0.1-0.4-0.2-0.7-0.2c-0.4,0-0.8,0.2-1,0.5
		C101,104.2,100.9,104.7,100.9,105.3L100.9,105.3z"/>
	<path fill="#231F20" d="M108,107.8c-0.7,0-1.3-0.2-1.7-0.7s-0.6-1.1-0.6-1.8V105c0-0.7,0.2-1.3,0.6-1.8c0.4-0.5,0.9-0.7,1.5-0.7
		c0.7,0,1.2,0.2,1.5,0.6c0.4,0.4,0.5,1,0.5,1.6v0.6h-3.3l0,0c0,0.5,0.1,0.9,0.4,1.2c0.2,0.3,0.6,0.5,1,0.5c0.3,0,0.6,0,0.8-0.1
		s0.4-0.2,0.6-0.4l0.4,0.6c-0.2,0.2-0.4,0.3-0.7,0.4C108.8,107.7,108.4,107.8,108,107.8z M107.9,103.3c-0.3,0-0.6,0.1-0.8,0.4
		c-0.2,0.3-0.4,0.6-0.4,1l0,0h2.3v-0.1c0-0.4-0.1-0.7-0.3-0.9C108.6,103.4,108.3,103.3,107.9,103.3z"/>
	<path fill="#231F20" d="M110.8,103.3v-0.7h0.8V102c0-0.5,0.1-1,0.4-1.2c0.3-0.3,0.7-0.4,1.2-0.4c0.1,0,0.2,0,0.3,0
		c0.1,0,0.2,0,0.4,0.1l-0.1,0.7c-0.1,0-0.1,0-0.2,0c-0.1,0-0.2,0-0.2,0c-0.3,0-0.5,0.1-0.6,0.2s-0.2,0.4-0.2,0.7v0.6h1.1v0.7h-1.1
		v3.7l0.8,0.1v0.6h-2.4v-0.6l0.8-0.1v-3.7H110.8z"/>
	<path fill="#231F20" d="M114.2,105.2c0-0.8,0.2-1.5,0.5-2s0.8-0.7,1.5-0.7c0.3,0,0.6,0.1,0.8,0.2c0.2,0.1,0.4,0.3,0.6,0.5l0.1-0.6
		h0.8v5c0,0.7-0.2,1.2-0.5,1.5s-0.9,0.6-1.6,0.6c-0.2,0-0.5,0-0.8-0.1c-0.3-0.1-0.5-0.2-0.7-0.3l0.2-0.7c0.2,0.1,0.4,0.2,0.6,0.2
		c0.2,0.1,0.5,0.1,0.7,0.1c0.4,0,0.7-0.1,0.9-0.3s0.3-0.6,0.3-1v-0.5c-0.2,0.2-0.4,0.4-0.6,0.5c-0.2,0.1-0.5,0.2-0.8,0.2
		c-0.6,0-1.1-0.2-1.5-0.7S114.2,106.1,114.2,105.2L114.2,105.2z M115.1,105.3c0,0.5,0.1,0.9,0.3,1.2s0.5,0.5,1,0.5
		c0.3,0,0.5-0.1,0.7-0.2c0.2-0.1,0.3-0.3,0.5-0.5V104c-0.1-0.2-0.3-0.4-0.5-0.5s-0.4-0.2-0.7-0.2c-0.4,0-0.8,0.2-1,0.6
		S115.1,104.7,115.1,105.3L115.1,105.3z"/>
	<path fill="#231F20" d="M119.4,107.1l0.8-0.1v-5.8l-0.8-0.1v-0.6h1.7v2.9c0.2-0.2,0.4-0.4,0.6-0.6c0.3-0.1,0.5-0.2,0.8-0.2
		c0.5,0,1,0.2,1.3,0.5c0.3,0.3,0.4,0.8,0.4,1.5v2.4l0.8,0.1v0.6h-2.4v-0.6l0.8-0.1v-2.5c0-0.4-0.1-0.7-0.3-0.9
		c-0.2-0.2-0.4-0.3-0.8-0.3c-0.3,0-0.5,0.1-0.7,0.2s-0.4,0.3-0.5,0.5v3l0.8,0.1v0.6h-2.4V107.1z"/>
	<path fill="#231F20" d="M125.7,107.1l0.8-0.1v-3.6l-0.8-0.1v-0.6h1.7v4.3l0.8,0.1v0.6h-2.4V107.1z M127.4,101.3h-0.9v-0.9h0.9
		V101.3z"/>
	<path fill="#231F20" d="M130.4,108.1c0,0.5-0.1,0.9-0.4,1.2c-0.3,0.3-0.6,0.4-1.1,0.4c-0.1,0-0.2,0-0.3,0s-0.2,0-0.3-0.1l0.1-0.7
		c0,0,0.1,0,0.2,0s0.2,0,0.2,0c0.2,0,0.4-0.1,0.5-0.2c0.1-0.1,0.2-0.4,0.2-0.7v-4.7l-0.8-0.1v-0.6h1.7V108.1z M130.4,101.3h-0.9
		v-0.9h0.9V101.3z"/>
	<path fill="#231F20" d="M131.4,101v-0.6h1.7v4.2h0.6l1.1-1.3l-0.5-0.1v-0.6h2.1v0.6l-0.6,0.1l-1.3,1.6l1.6,2l0.6,0.1v0.6h-2.1v-0.6
		l0.5-0.1l-1.3-1.7h-0.6v1.6l0.8,0.1v0.6h-2.4v-0.6l0.8-0.1v-5.8L131.4,101z"/>
	<path fill="#231F20" d="M137.2,101v-0.6h1.7v6.6l0.8,0.1v0.6h-2.4v-0.6l0.8-0.1v-5.8L137.2,101z"/>
	<path fill="#231F20" d="M140.2,107.1l0.8-0.1v-3.6l-0.8-0.1v-0.6h1.6l0.1,0.7c0.2-0.2,0.4-0.4,0.6-0.6c0.3-0.1,0.6-0.2,0.9-0.2
		s0.6,0.1,0.9,0.2c0.2,0.2,0.4,0.4,0.5,0.7c0.2-0.3,0.4-0.5,0.6-0.7c0.3-0.2,0.6-0.3,0.9-0.3c0.5,0,0.9,0.2,1.2,0.5s0.4,0.9,0.4,1.6
		v2.3l0.8,0.1v0.6h-2.4v-0.6l0.8-0.1v-2.3c0-0.5-0.1-0.9-0.3-1.1c-0.2-0.2-0.4-0.3-0.8-0.3c-0.3,0-0.6,0.1-0.8,0.3s-0.3,0.5-0.3,0.9
		v2.5l0.8,0.1v0.6h-2.4v-0.6l0.8-0.1v-2.3c0-0.5-0.1-0.8-0.3-1s-0.4-0.3-0.8-0.3c-0.3,0-0.5,0.1-0.7,0.2s-0.3,0.3-0.4,0.5v3l0.8,0.1
		v0.6h-2.4V107.1z"/>
</g>
<g enable-background="new    ">
	<path fill="#231F20" d="M83.9,118.6l0.8-0.1v-3.6l-0.8-0.1v-0.6h1.6l0.1,0.8c0.2-0.3,0.4-0.5,0.6-0.6c0.3-0.1,0.5-0.2,0.9-0.2
		c0.5,0,1,0.2,1.3,0.5s0.4,0.8,0.4,1.5v2.5l0.8,0.1v0.6h-2.4v-0.6l0.8-0.1V116c0-0.4-0.1-0.8-0.3-0.9s-0.4-0.3-0.8-0.3
		c-0.3,0-0.5,0.1-0.7,0.2c-0.2,0.1-0.4,0.3-0.5,0.5v3l0.8,0.1v0.6h-2.4V118.6z"/>
	<path fill="#231F20" d="M90.1,116.6c0-0.7,0.2-1.4,0.6-1.8c0.4-0.5,1-0.7,1.6-0.7c0.7,0,1.2,0.2,1.7,0.7s0.6,1.1,0.6,1.8v0.1
		c0,0.8-0.2,1.4-0.6,1.8s-1,0.7-1.6,0.7c-0.7,0-1.3-0.2-1.7-0.7c-0.4-0.5-0.6-1.1-0.6-1.8V116.6z M91.1,116.7c0,0.5,0.1,1,0.3,1.3
		c0.2,0.3,0.6,0.5,1,0.5c0.4,0,0.8-0.2,1-0.5c0.2-0.3,0.3-0.8,0.3-1.3v-0.1c0-0.5-0.1-1-0.3-1.3c-0.2-0.4-0.6-0.5-1-0.5
		s-0.8,0.2-1,0.5c-0.2,0.4-0.3,0.8-0.3,1.3V116.7z"/>
	<path fill="#231F20" d="M95.4,120.5l0.8-0.1v-5.5l-0.8-0.1v-0.6h1.5l0.1,0.6c0.2-0.2,0.4-0.4,0.6-0.5c0.2-0.1,0.5-0.2,0.8-0.2
		c0.6,0,1.1,0.2,1.5,0.7c0.3,0.5,0.5,1.2,0.5,2v0.1c0,0.7-0.2,1.3-0.5,1.8c-0.3,0.4-0.8,0.7-1.4,0.7c-0.3,0-0.6-0.1-0.8-0.2
		c-0.2-0.1-0.4-0.3-0.6-0.5v1.7l0.8,0.1v0.6h-2.4V120.5z M99.5,116.7c0-0.6-0.1-1-0.3-1.4s-0.6-0.6-1-0.6c-0.3,0-0.5,0.1-0.7,0.2
		c-0.2,0.1-0.3,0.3-0.5,0.5v2.5c0.1,0.2,0.3,0.4,0.5,0.5c0.2,0.1,0.4,0.2,0.7,0.2c0.4,0,0.8-0.2,1-0.5
		C99.4,117.7,99.5,117.3,99.5,116.7L99.5,116.7z"/>
	<path fill="#231F20" d="M101.3,116.7c0-0.8,0.2-1.5,0.5-2s0.8-0.7,1.5-0.7c0.3,0,0.6,0.1,0.8,0.2c0.2,0.1,0.4,0.3,0.6,0.5l0.1-0.6
		h0.8v6.3l0.8,0.1v0.6h-2.4v-0.6l0.8-0.1v-1.7c-0.2,0.2-0.4,0.3-0.6,0.4s-0.5,0.1-0.8,0.1c-0.6,0-1.1-0.2-1.4-0.7
		C101.5,118.1,101.3,117.5,101.3,116.7L101.3,116.7z M102.2,116.8c0,0.5,0.1,0.9,0.3,1.2c0.2,0.3,0.5,0.5,1,0.5
		c0.3,0,0.5-0.1,0.7-0.2c0.2-0.1,0.3-0.3,0.5-0.5v-2.5c-0.1-0.2-0.3-0.3-0.5-0.5c-0.2-0.1-0.4-0.2-0.6-0.2c-0.4,0-0.8,0.2-1,0.6
		C102.3,115.7,102.2,116.1,102.2,116.8L102.2,116.8z"/>
	<path fill="#231F20" d="M106.7,114.7v-0.6h1.6l0.1,0.7c0.1-0.3,0.3-0.5,0.5-0.6c0.2-0.1,0.5-0.2,0.7-0.2c0.1,0,0.1,0,0.2,0
		c0.1,0,0.1,0,0.2,0l-0.1,0.9l-0.5,0c-0.2,0-0.4,0.1-0.6,0.2c-0.2,0.1-0.3,0.3-0.4,0.5v2.9l0.8,0.1v0.6h-2.4v-0.6l0.8-0.1v-3.6
		L106.7,114.7z"/>
	<path fill="#231F20" d="M114.5,115.7h-0.7l-0.1-0.6c-0.1-0.1-0.3-0.2-0.4-0.3c-0.2-0.1-0.4-0.1-0.6-0.1c-0.3,0-0.6,0.1-0.7,0.2
		c-0.2,0.1-0.2,0.3-0.2,0.5c0,0.2,0.1,0.4,0.2,0.5s0.4,0.2,0.9,0.3c0.6,0.1,1.1,0.3,1.4,0.6c0.3,0.2,0.5,0.5,0.5,0.9
		c0,0.4-0.2,0.8-0.5,1.1c-0.4,0.3-0.8,0.4-1.4,0.4c-0.4,0-0.7,0-1-0.1c-0.3-0.1-0.6-0.2-0.8-0.4l0-1.2h0.7l0.2,0.7
		c0.1,0.1,0.2,0.2,0.4,0.2c0.2,0,0.4,0.1,0.6,0.1c0.3,0,0.6-0.1,0.8-0.2c0.2-0.1,0.3-0.3,0.3-0.5c0-0.2-0.1-0.4-0.2-0.5
		c-0.2-0.1-0.4-0.2-0.9-0.3c-0.6-0.1-1.1-0.3-1.4-0.5c-0.3-0.2-0.5-0.5-0.5-0.9c0-0.4,0.2-0.8,0.5-1.1c0.4-0.3,0.8-0.4,1.4-0.4
		c0.4,0,0.7,0,1,0.1c0.3,0.1,0.6,0.2,0.8,0.4L114.5,115.7z"/>
	<path fill="#231F20" d="M117.1,112.9v1.2h1v0.7h-1v3.1c0,0.2,0,0.4,0.1,0.5c0.1,0.1,0.2,0.1,0.4,0.1c0.1,0,0.2,0,0.3,0
		c0.1,0,0.2,0,0.3,0l0.1,0.6c-0.1,0.1-0.2,0.1-0.4,0.1c-0.2,0-0.3,0.1-0.5,0.1c-0.4,0-0.7-0.1-0.9-0.3c-0.2-0.2-0.3-0.6-0.3-1.1
		v-3.1h-0.8v-0.7h0.8v-1.2H117.1z"/>
	<path fill="#231F20" d="M122.6,118.4c-0.2,0.3-0.4,0.5-0.6,0.6c-0.3,0.1-0.5,0.2-0.9,0.2c-0.5,0-1-0.2-1.3-0.5
		c-0.3-0.4-0.5-0.9-0.5-1.6v-2.3l-0.6-0.1v-0.6h0.6h0.9v3c0,0.5,0.1,0.9,0.2,1.1c0.2,0.2,0.4,0.3,0.7,0.3c0.3,0,0.6-0.1,0.8-0.2
		c0.2-0.1,0.4-0.3,0.5-0.6v-2.9l-0.7-0.1v-0.6h0.7h0.9v4.3l0.6,0.1v0.6h-1.4L122.6,118.4z"/>
	<path fill="#231F20" d="M126.6,114.7l-0.6,0.1l1,2.9l0.1,0.4h0l0.1-0.4l1-2.9l-0.6-0.1v-0.6h2v0.6l-0.4,0.1l-1.7,4.4h-0.7l-1.7-4.4
		l-0.4-0.1v-0.6h2V114.7z"/>
	<path fill="#231F20" d="M132,114.7l-0.6,0.1l0.7,2.5l0.1,0.6h0l0.1-0.6l1-3.2h0.7l1,3.2l0.1,0.7h0l0.1-0.7l0.6-2.5l-0.6-0.1v-0.6
		h1.9v0.6l-0.4,0.1l-1.3,4.4h-0.7l-1-3.1l-0.2-0.8l0,0l-0.2,0.8l-1,3.1h-0.7l-1.3-4.4l-0.4-0.1v-0.6h1.9V114.7z"/>
	<path fill="#231F20" d="M137.9,118.6l0.5-0.1l1.5-1.9l-1.4-1.8l-0.5-0.1v-0.6h2v0.6l-0.5,0.1l0.9,1.2l0.9-1.2l-0.5-0.1v-0.6h2v0.6
		l-0.5,0.1l-1.4,1.8l1.5,1.9l0.5,0.1v0.6h-2v-0.6l0.4-0.1l-1-1.3l-1,1.3l0.5,0.1v0.6h-2V118.6z"/>
	<path fill="#231F20" d="M148.4,114.7l-0.5,0.1l-1.9,5.2c-0.1,0.3-0.3,0.6-0.6,0.9c-0.2,0.3-0.6,0.4-1,0.4c-0.1,0-0.2,0-0.3,0
		c-0.1,0-0.2,0-0.3,0l0.1-0.7c0,0,0,0,0.2,0c0.1,0,0.2,0,0.2,0c0.2,0,0.4-0.1,0.5-0.3c0.1-0.2,0.2-0.4,0.3-0.6l0.2-0.5l-1.7-4.3
		l-0.5-0.1v-0.6h2v0.6l-0.6,0.1l0.9,2.5l0.2,0.6h0l1.1-3.1l-0.6-0.1v-0.6h2V114.7z"/>
	<path fill="#231F20" d="M150.3,118.4h2.1l0.1-0.8h0.8v1.5h-4v-0.6l2.7-3.7H150l-0.1,0.8h-0.8v-1.5h3.8v0.6L150.3,118.4z"/>
</g>
<g enable-background="new    ">
	<path fill="#FFFFFF" d="M97.4,131.4c0,0.7-0.2,1.3-0.5,1.7s-0.8,0.6-1.3,0.6c-0.6,0-1-0.2-1.3-0.6s-0.5-0.9-0.5-1.7v-1.3
		c0-0.7,0.2-1.3,0.5-1.7c0.3-0.4,0.8-0.6,1.3-0.6c0.6,0,1,0.2,1.3,0.6s0.5,0.9,0.5,1.7V131.4z M96.6,129.9c0-0.5-0.1-0.9-0.3-1.1
		c-0.2-0.2-0.4-0.4-0.8-0.4c-0.3,0-0.6,0.1-0.8,0.4c-0.2,0.2-0.3,0.6-0.3,1.1v1.7c0,0.5,0.1,0.9,0.3,1.1c0.2,0.2,0.4,0.4,0.8,0.4
		c0.3,0,0.6-0.1,0.8-0.4c0.2-0.2,0.3-0.6,0.3-1.1V129.9z"/>
	<path fill="#FFFFFF" d="M98.8,133.1l0.9-0.1v-4.2l-0.9,0v-0.5l1.7-0.4v5.1l0.9,0.1v0.5h-2.5V133.1z"/>
	<path fill="#FFFFFF" d="M102.5,133.6v-0.5l1.9-2.1c0.3-0.4,0.6-0.7,0.7-0.9c0.1-0.2,0.2-0.4,0.2-0.7c0-0.3-0.1-0.5-0.2-0.7
		c-0.2-0.2-0.4-0.3-0.7-0.3c-0.4,0-0.7,0.1-0.9,0.3c-0.2,0.2-0.3,0.5-0.3,0.8h-0.7l0,0c0-0.5,0.1-0.9,0.5-1.2s0.8-0.5,1.4-0.5
		c0.5,0,0.9,0.1,1.2,0.4s0.5,0.7,0.5,1.1c0,0.3-0.1,0.6-0.3,0.9c-0.2,0.3-0.4,0.6-0.8,1l-1.5,1.6l0,0h2l0.1-0.6h0.6v1.2H102.5z"/>
	<path fill="#FFFFFF" d="M108.5,130.4h0.7c0.3,0,0.6-0.1,0.7-0.3c0.1-0.2,0.2-0.4,0.2-0.7c0-0.3-0.1-0.6-0.2-0.7
		c-0.2-0.2-0.4-0.3-0.7-0.3c-0.3,0-0.5,0.1-0.7,0.3c-0.2,0.2-0.3,0.4-0.3,0.7h-0.7l0,0c0-0.4,0.1-0.8,0.5-1.1
		c0.3-0.3,0.7-0.4,1.3-0.4c0.5,0,0.9,0.1,1.3,0.4c0.3,0.3,0.5,0.7,0.5,1.2c0,0.2-0.1,0.5-0.2,0.7c-0.1,0.2-0.4,0.4-0.6,0.5
		c0.3,0.1,0.6,0.3,0.7,0.5c0.1,0.2,0.2,0.5,0.2,0.8c0,0.5-0.2,0.9-0.5,1.2c-0.3,0.3-0.8,0.4-1.3,0.4c-0.5,0-0.9-0.1-1.3-0.4
		c-0.3-0.3-0.5-0.7-0.5-1.1l0,0h0.7c0,0.3,0.1,0.5,0.3,0.7c0.2,0.2,0.4,0.3,0.8,0.3c0.3,0,0.6-0.1,0.8-0.3c0.2-0.2,0.3-0.4,0.3-0.8
		c0-0.3-0.1-0.6-0.2-0.8s-0.4-0.2-0.8-0.2h-0.7V130.4z"/>
	<path fill="#FFFFFF" d="M115.5,131.7h0.8v0.6h-0.8v0.7l0.6,0.1v0.5h-2v-0.5l0.6-0.1v-0.7h-2.5v-0.4l2.5-3.9h0.8V131.7z M113,131.7
		h1.7V129l0,0l-0.1,0.2L113,131.7z"/>
	<path fill="#FFFFFF" d="M120.3,129l-0.1-0.4h-1.7l-0.2,1.6c0.1-0.1,0.2-0.2,0.4-0.2c0.1-0.1,0.3-0.1,0.5-0.1c0.5,0,0.9,0.2,1.2,0.5
		s0.4,0.8,0.4,1.4c0,0.6-0.2,1-0.5,1.4s-0.7,0.5-1.3,0.5c-0.5,0-0.9-0.1-1.2-0.4c-0.3-0.3-0.5-0.6-0.5-1.2l0,0h0.7
		c0,0.3,0.1,0.5,0.3,0.7s0.4,0.3,0.7,0.3c0.3,0,0.6-0.1,0.8-0.3c0.2-0.2,0.3-0.5,0.3-0.9c0-0.4-0.1-0.7-0.3-0.9
		c-0.2-0.2-0.4-0.3-0.7-0.3c-0.3,0-0.5,0-0.7,0.1s-0.2,0.2-0.3,0.4l-0.6-0.1l0.3-3.1h3v1.1H120.3z"/>
	<path fill="#FFFFFF" d="M124.4,127.8c0.2,0,0.4,0,0.6,0.1c0.2,0,0.3,0.1,0.5,0.2l-0.1,0.6c-0.1-0.1-0.3-0.1-0.4-0.1
		c-0.1,0-0.3-0.1-0.5-0.1c-0.4,0-0.7,0.1-0.9,0.4c-0.2,0.3-0.4,0.8-0.4,1.4l0,0c0.1-0.1,0.3-0.2,0.5-0.3c0.2-0.1,0.4-0.1,0.7-0.1
		c0.5,0,0.9,0.2,1.2,0.5s0.5,0.8,0.5,1.3c0,0.6-0.2,1.1-0.5,1.4c-0.3,0.4-0.7,0.6-1.3,0.6c-0.6,0-1-0.2-1.4-0.6s-0.5-1-0.5-1.7v-0.8
		c0-0.9,0.2-1.6,0.6-2.1C123.3,128.1,123.8,127.8,124.4,127.8z M124.1,130.4c-0.3,0-0.5,0.1-0.7,0.2c-0.2,0.1-0.3,0.2-0.4,0.4v0.5
		c0,0.5,0.1,0.9,0.3,1.2c0.2,0.3,0.5,0.4,0.8,0.4c0.3,0,0.6-0.1,0.7-0.4c0.2-0.3,0.3-0.6,0.3-1c0-0.4-0.1-0.7-0.3-0.9
		C124.7,130.5,124.5,130.4,124.1,130.4z"/>
	<path fill="#FFFFFF" d="M130.9,128.5c-0.7,0.8-1.1,1.5-1.4,2.2s-0.4,1.4-0.5,2.3l-0.1,0.6h-0.8l0.1-0.6c0.1-0.9,0.3-1.7,0.6-2.4
		c0.3-0.7,0.7-1.4,1.3-2.1h-2.4l-0.1,0.7h-0.7v-1.3h3.8V128.5z"/>
	<path fill="#FFFFFF" d="M135.6,129.4c0,0.3-0.1,0.6-0.2,0.8s-0.4,0.4-0.7,0.5c0.3,0.1,0.6,0.3,0.8,0.5c0.2,0.2,0.3,0.5,0.3,0.8
		c0,0.5-0.2,0.9-0.5,1.2s-0.8,0.4-1.3,0.4c-0.6,0-1-0.1-1.3-0.4c-0.3-0.3-0.5-0.7-0.5-1.2c0-0.3,0.1-0.6,0.3-0.8
		c0.2-0.2,0.5-0.4,0.8-0.5c-0.3-0.1-0.5-0.3-0.7-0.5s-0.2-0.5-0.2-0.8c0-0.5,0.2-0.9,0.5-1.2c0.3-0.3,0.7-0.4,1.2-0.4
		c0.5,0,0.9,0.1,1.2,0.4C135.4,128.5,135.6,128.9,135.6,129.4z M135,132c0-0.3-0.1-0.6-0.3-0.8c-0.2-0.2-0.5-0.3-0.8-0.3
		c-0.3,0-0.6,0.1-0.8,0.3c-0.2,0.2-0.3,0.5-0.3,0.8c0,0.3,0.1,0.6,0.3,0.8c0.2,0.2,0.5,0.3,0.8,0.3c0.3,0,0.6-0.1,0.8-0.3
		C134.9,132.6,135,132.4,135,132z M134.8,129.4c0-0.3-0.1-0.5-0.3-0.7c-0.2-0.2-0.4-0.3-0.7-0.3c-0.3,0-0.5,0.1-0.7,0.3
		s-0.3,0.4-0.3,0.7c0,0.3,0.1,0.5,0.3,0.7c0.2,0.2,0.4,0.3,0.7,0.3c0.3,0,0.5-0.1,0.7-0.3C134.7,129.9,134.8,129.7,134.8,129.4z"/>
	<path fill="#FFFFFF" d="M138.6,133.1c0.4,0,0.7-0.1,0.9-0.4c0.2-0.3,0.3-0.7,0.3-1.4l0,0c-0.1,0.2-0.2,0.3-0.4,0.4
		c-0.2,0.1-0.4,0.1-0.6,0.1c-0.6,0-1-0.2-1.3-0.5c-0.3-0.3-0.5-0.8-0.5-1.4c0-0.6,0.2-1.1,0.5-1.5c0.3-0.4,0.8-0.6,1.2-0.6
		c0.6,0,1.1,0.2,1.4,0.6c0.3,0.4,0.5,0.9,0.5,1.6v1c0,0.9-0.2,1.5-0.5,2c-0.4,0.4-0.8,0.6-1.5,0.6c-0.2,0-0.4,0-0.6-0.1
		c-0.2,0-0.4-0.1-0.6-0.2l0.1-0.6c0.2,0.1,0.3,0.1,0.5,0.2C138.2,133,138.4,133.1,138.6,133.1z M138.7,131.2c0.3,0,0.5-0.1,0.7-0.2
		c0.2-0.1,0.3-0.3,0.4-0.5V130c0-0.5-0.1-0.9-0.3-1.1s-0.5-0.4-0.8-0.4c-0.3,0-0.5,0.1-0.7,0.4c-0.2,0.3-0.3,0.6-0.3,1
		c0,0.4,0.1,0.7,0.3,1C138.2,131.1,138.4,131.2,138.7,131.2z"/>
</g>
</svg>
