<?xml version="1.0" encoding="utf-8"?>
<!-- Generator: Adobe Illustrator 17.1.0, SVG Export Plug-In . SVG Version: 6.00 Build 0)  -->
<!DOCTYPE svg PUBLIC "-//W3C//DTD SVG 1.1//EN" "http://www.w3.org/Graphics/SVG/1.1/DTD/svg11.dtd">
<svg version="1.1" id="Layer_1" xmlns="http://www.w3.org/2000/svg" xmlns:xlink="http://www.w3.org/1999/xlink" x="0px" y="0px" viewBox="44.8 0 153 153" enable-background="new 44.8 0 153 153" xml:space="preserve">
<rect x="44.8" fill="#DCDBC7" width="153" height="153"/>
<g enable-background="new    ">
	<path fill="#231F20" d="M64.8,28.7v4.4h-1.4V23h3.1c1,0,1.7,0.2,2.2,0.7c0.5,0.5,0.8,1.2,0.8,2.1c0,0.5-0.1,1-0.4,1.4
		c-0.2,0.4-0.6,0.7-1.1,0.9c0.5,0.2,0.9,0.5,1.1,0.9c0.2,0.4,0.3,0.9,0.3,1.5v0.9c0,0.3,0,0.6,0.1,0.9s0.2,0.5,0.3,0.6v0.2h-1.5
		c-0.2-0.2-0.3-0.4-0.3-0.7s-0.1-0.6-0.1-1v-0.9c0-0.6-0.1-1-0.4-1.3s-0.6-0.5-1.1-0.5H64.8z M64.8,27.7h1.7c0.6,0,1-0.2,1.3-0.5
		c0.3-0.3,0.4-0.7,0.4-1.3c0-0.6-0.1-1-0.4-1.3s-0.7-0.5-1.2-0.5h-1.7V27.7z"/>
	<path fill="#231F20" d="M77.9,29.4c0,1.2-0.3,2.1-0.9,2.8c-0.6,0.7-1.5,1-2.5,1c-1,0-1.8-0.3-2.4-1s-0.9-1.6-0.9-2.8v-2.8
		c0-1.2,0.3-2.1,0.9-2.8c0.6-0.7,1.4-1,2.4-1c1,0,1.9,0.3,2.5,1c0.6,0.7,0.9,1.6,0.9,2.8V29.4z M76.5,26.6c0-0.9-0.2-1.5-0.5-2
		S75.1,24,74.5,24c-0.6,0-1.1,0.2-1.5,0.7c-0.3,0.5-0.5,1.1-0.5,2v2.8c0,0.9,0.2,1.6,0.5,2s0.8,0.7,1.5,0.7c0.6,0,1.1-0.2,1.5-0.7
		c0.3-0.5,0.5-1.1,0.5-2V26.6z"/>
	<path fill="#231F20" d="M79.5,33.1V23h2.8c1,0,1.7,0.2,2.2,0.7c0.5,0.5,0.8,1.1,0.8,2c0,0.5-0.1,0.9-0.4,1.3
		c-0.2,0.4-0.6,0.6-1,0.8c0.5,0.1,1,0.4,1.3,0.9s0.4,1,0.4,1.6c0,0.9-0.3,1.6-0.8,2.1c-0.5,0.5-1.3,0.7-2.2,0.7H79.5z M80.9,27.4
		h1.5c0.5,0,0.8-0.1,1.1-0.4c0.3-0.3,0.4-0.7,0.4-1.2c0-0.6-0.1-1-0.4-1.3c-0.3-0.3-0.7-0.4-1.2-0.4h-1.4V27.4z M80.9,28.4V32h1.8
		c0.5,0,0.9-0.2,1.2-0.5c0.3-0.3,0.4-0.7,0.4-1.3c0-0.6-0.1-1-0.3-1.4s-0.6-0.5-1.1-0.5H80.9z"/>
	<path fill="#231F20" d="M93.7,29.4c0,1.2-0.3,2.1-0.9,2.8c-0.6,0.7-1.5,1-2.5,1c-1,0-1.8-0.3-2.4-1s-0.9-1.6-0.9-2.8v-2.8
		c0-1.2,0.3-2.1,0.9-2.8c0.6-0.7,1.4-1,2.4-1c1,0,1.9,0.3,2.5,1c0.6,0.7,0.9,1.6,0.9,2.8V29.4z M92.3,26.6c0-0.9-0.2-1.5-0.5-2
		S90.9,24,90.3,24c-0.6,0-1.1,0.2-1.5,0.7c-0.3,0.5-0.5,1.1-0.5,2v2.8c0,0.9,0.2,1.6,0.5,2s0.8,0.7,1.5,0.7c0.6,0,1.1-0.2,1.5-0.7
		c0.3-0.5,0.5-1.1,0.5-2V26.6z"/>
	<path fill="#231F20" d="M101,24.1h-2.6v9H97v-9h-2.6V23h6.6V24.1z"/>
	<path fill="#231F20" d="M108.4,29.4c0,1.2-0.3,2.1-0.9,2.8c-0.6,0.7-1.5,1-2.5,1c-1,0-1.8-0.3-2.4-1s-0.9-1.6-0.9-2.8v-2.8
		c0-1.2,0.3-2.1,0.9-2.8c0.6-0.7,1.4-1,2.4-1c1,0,1.9,0.3,2.5,1c0.6,0.7,0.9,1.6,0.9,2.8V29.4z M107,26.6c0-0.9-0.2-1.5-0.5-2
		S105.7,24,105,24c-0.6,0-1.1,0.2-1.5,0.7c-0.3,0.5-0.5,1.1-0.5,2v2.8c0,0.9,0.2,1.6,0.5,2s0.8,0.7,1.5,0.7c0.6,0,1.1-0.2,1.5-0.7
		c0.3-0.5,0.5-1.1,0.5-2V26.6z"/>
	<path fill="#231F20" d="M119.1,30L119.1,30c0,1.1-0.3,1.8-0.8,2.4c-0.5,0.6-1.3,0.8-2.3,0.8c-1,0-1.8-0.3-2.4-1
		c-0.6-0.7-0.9-1.6-0.9-2.8v-2.8c0-1.2,0.3-2.1,0.9-2.8c0.6-0.7,1.4-1,2.3-1c1,0,1.8,0.3,2.3,0.8c0.5,0.5,0.8,1.3,0.8,2.4l0,0h-1.3
		c0-0.7-0.2-1.3-0.4-1.6c-0.3-0.3-0.7-0.5-1.3-0.5c-0.6,0-1,0.2-1.3,0.7c-0.3,0.5-0.5,1.1-0.5,2v2.8c0,0.9,0.2,1.6,0.5,2
		c0.3,0.5,0.8,0.7,1.4,0.7c0.6,0,1-0.2,1.3-0.5c0.3-0.3,0.4-0.9,0.4-1.6H119.1z"/>
	<path fill="#231F20" d="M127.1,29.4c0,1.2-0.3,2.1-0.9,2.8c-0.6,0.7-1.5,1-2.5,1c-1,0-1.8-0.3-2.4-1s-0.9-1.6-0.9-2.8v-2.8
		c0-1.2,0.3-2.1,0.9-2.8c0.6-0.7,1.4-1,2.4-1c1,0,1.9,0.3,2.5,1c0.6,0.7,0.9,1.6,0.9,2.8V29.4z M125.7,26.6c0-0.9-0.2-1.5-0.5-2
		s-0.8-0.7-1.5-0.7c-0.6,0-1.1,0.2-1.5,0.7c-0.3,0.5-0.5,1.1-0.5,2v2.8c0,0.9,0.2,1.6,0.5,2s0.8,0.7,1.5,0.7c0.6,0,1.1-0.2,1.5-0.7
		c0.3-0.5,0.5-1.1,0.5-2V26.6z"/>
	<path fill="#231F20" d="M135.4,33.1H134l-3.8-7.5l0,0v7.5h-1.4V23h1.4l3.8,7.5l0,0V23h1.4V33.1z"/>
	<path fill="#231F20" d="M137.4,33.1V23h2.8c1.1,0,1.9,0.4,2.6,1.2s1,1.9,1,3.1v1.4c0,1.3-0.3,2.3-1,3.1c-0.7,0.8-1.6,1.2-2.6,1.2
		H137.4z M138.8,24.1v8h1.3c0.7,0,1.3-0.3,1.7-0.9c0.4-0.6,0.6-1.4,0.6-2.4v-1.5c0-1-0.2-1.7-0.6-2.3c-0.4-0.6-1-0.9-1.7-0.9H138.8z
		"/>
	<path fill="#231F20" d="M150.5,28.4h-3.7V32h4.3v1.1h-5.8V23h5.7v1.1h-4.3v3.3h3.7V28.4z"/>
	<path fill="#231F20" d="M159.1,33.1h-1.4l-3.8-7.5l0,0v7.5h-1.4V23h1.4l3.8,7.5l0,0V23h1.4V33.1z"/>
	<path fill="#231F20" d="M165.7,30.5c0-0.5-0.1-0.9-0.4-1.2s-0.7-0.6-1.4-0.8c-1-0.3-1.7-0.7-2.2-1.1c-0.5-0.5-0.8-1.1-0.8-1.9
		c0-0.8,0.3-1.4,0.9-2s1.3-0.8,2.2-0.8c0.9,0,1.7,0.3,2.3,0.9c0.6,0.6,0.8,1.3,0.8,2.1l0,0h-1.4c0-0.6-0.2-1.1-0.5-1.4
		c-0.3-0.4-0.7-0.6-1.3-0.6c-0.5,0-0.9,0.2-1.2,0.5c-0.3,0.3-0.4,0.7-0.4,1.2c0,0.4,0.2,0.8,0.5,1.1c0.3,0.3,0.8,0.6,1.5,0.8
		c0.9,0.3,1.6,0.7,2.1,1.2c0.5,0.5,0.7,1.1,0.7,1.9c0,0.8-0.3,1.5-0.9,2c-0.6,0.5-1.3,0.7-2.2,0.7c-0.9,0-1.7-0.3-2.4-0.8
		s-1-1.3-1-2.3l0,0h1.4c0,0.7,0.2,1.2,0.5,1.5s0.8,0.5,1.4,0.5c0.5,0,0.9-0.1,1.2-0.4C165.6,31.4,165.7,31,165.7,30.5z"/>
	<path fill="#231F20" d="M173.8,28.4h-3.7V32h4.3v1.1h-5.8V23h5.7v1.1h-4.3v3.3h3.7V28.4z"/>
	<path fill="#231F20" d="M175.7,33.1V23h2.8c1.1,0,1.9,0.4,2.6,1.2s1,1.9,1,3.1v1.4c0,1.3-0.3,2.3-1,3.1c-0.7,0.8-1.6,1.2-2.6,1.2
		H175.7z M177.1,24.1v8h1.3c0.7,0,1.3-0.3,1.7-0.9c0.4-0.6,0.6-1.4,0.6-2.4v-1.5c0-1-0.2-1.7-0.6-2.3c-0.4-0.6-1-0.9-1.7-0.9H177.1z
		"/>
</g>
<g enable-background="new    ">
	<path fill="#231F20" d="M68.3,50.5h-3.2L64.4,53H63l3-9.9h1.3l3,9.9H69L68.3,50.5z M65.5,49.4H68l-1.2-4.3h0L65.5,49.4z"/>
	<path fill="#231F20" d="M75.1,53c0-0.2-0.1-0.3-0.1-0.5s-0.1-0.3-0.1-0.5c-0.2,0.3-0.5,0.6-0.8,0.8c-0.3,0.2-0.6,0.3-1,0.3
		c-0.6,0-1.1-0.2-1.5-0.6c-0.4-0.4-0.5-0.9-0.5-1.6c0-0.7,0.2-1.3,0.7-1.7c0.5-0.4,1.1-0.6,2-0.6h1V48c0-0.4-0.1-0.8-0.3-1
		c-0.2-0.2-0.5-0.4-0.8-0.4c-0.3,0-0.6,0.1-0.8,0.3c-0.2,0.2-0.3,0.5-0.3,0.8l-1.3,0l0,0c0-0.6,0.2-1.1,0.7-1.5
		c0.5-0.4,1.1-0.7,1.8-0.7c0.7,0,1.3,0.2,1.8,0.6c0.5,0.4,0.7,1,0.7,1.8v3.4c0,0.3,0,0.6,0.1,0.8c0,0.3,0.1,0.5,0.2,0.8H75.1z
		 M73.4,52.1c0.3,0,0.6-0.1,0.9-0.3c0.3-0.2,0.5-0.4,0.6-0.7v-1.5h-1c-0.4,0-0.7,0.1-1,0.4c-0.2,0.3-0.3,0.6-0.3,1
		c0,0.3,0.1,0.6,0.2,0.8C72.9,52,73.2,52.1,73.4,52.1z"/>
	<path fill="#231F20" d="M87.4,49.4c0,0.6-0.1,1.1-0.2,1.6c-0.2,0.5-0.4,0.9-0.7,1.2l1.5,1.6L87,54.5l-1.5-1.7
		c-0.2,0.1-0.5,0.2-0.7,0.2s-0.5,0.1-0.8,0.1c-1,0-1.8-0.3-2.4-1c-0.6-0.7-0.9-1.6-0.9-2.7v-2.7c0-1.2,0.3-2.1,0.9-2.7
		c0.6-0.7,1.4-1,2.4-1c1,0,1.8,0.3,2.4,1s0.9,1.6,0.9,2.7V49.4z M86,46.7c0-0.9-0.2-1.5-0.5-2s-0.8-0.7-1.5-0.7
		c-0.6,0-1.1,0.2-1.4,0.7c-0.3,0.4-0.5,1.1-0.5,2v2.7c0,0.9,0.2,1.5,0.5,2c0.3,0.4,0.8,0.7,1.4,0.7c0.6,0,1.1-0.2,1.5-0.7
		c0.3-0.4,0.5-1.1,0.5-2V46.7z"/>
	<path fill="#231F20" d="M92.9,53c0-0.2-0.1-0.3-0.1-0.5s-0.1-0.3-0.1-0.5c-0.2,0.3-0.5,0.6-0.8,0.8c-0.3,0.2-0.6,0.3-1,0.3
		c-0.6,0-1.1-0.2-1.5-0.6c-0.4-0.4-0.5-0.9-0.5-1.6c0-0.7,0.2-1.3,0.7-1.7c0.5-0.4,1.1-0.6,2-0.6h1V48c0-0.4-0.1-0.8-0.3-1
		c-0.2-0.2-0.5-0.4-0.8-0.4c-0.3,0-0.6,0.1-0.8,0.3c-0.2,0.2-0.3,0.5-0.3,0.8l-1.3,0l0,0c0-0.6,0.2-1.1,0.7-1.5
		c0.5-0.4,1.1-0.7,1.8-0.7c0.7,0,1.3,0.2,1.8,0.6c0.5,0.4,0.7,1,0.7,1.8v3.4c0,0.3,0,0.6,0.1,0.8c0,0.3,0.1,0.5,0.2,0.8H92.9z
		 M91.2,52.1c0.3,0,0.6-0.1,0.9-0.3c0.3-0.2,0.5-0.4,0.6-0.7v-1.5h-1c-0.4,0-0.7,0.1-1,0.4c-0.2,0.3-0.3,0.6-0.3,1
		c0,0.3,0.1,0.6,0.2,0.8C90.7,52,90.9,52.1,91.2,52.1z"/>
	<path fill="#231F20" d="M100.2,48.7V53h-1.4v-9.9h3.1c0.9,0,1.7,0.2,2.2,0.7c0.5,0.5,0.8,1.2,0.8,2.1c0,0.5-0.1,1-0.4,1.4
		c-0.2,0.4-0.6,0.7-1,0.9c0.5,0.2,0.9,0.5,1.1,0.9s0.3,0.9,0.3,1.5v0.9c0,0.3,0,0.6,0.1,0.8c0.1,0.3,0.2,0.5,0.3,0.6V53h-1.4
		c-0.2-0.1-0.3-0.4-0.3-0.7s-0.1-0.6-0.1-1v-0.8c0-0.6-0.1-1-0.4-1.3c-0.3-0.3-0.6-0.5-1-0.5H100.2z M100.2,47.7h1.6
		c0.6,0,1-0.2,1.2-0.5c0.3-0.3,0.4-0.7,0.4-1.3c0-0.6-0.1-1-0.4-1.3c-0.3-0.3-0.6-0.5-1.2-0.5h-1.7V47.7z"/>
	<path fill="#231F20" d="M109.7,46.8l-0.6,0c-0.3,0-0.5,0.1-0.7,0.3s-0.3,0.4-0.4,0.7V53h-1.4v-7.3h1.3l0.1,1.1
		c0.2-0.4,0.4-0.7,0.6-0.9s0.5-0.3,0.9-0.3c0.1,0,0.2,0,0.3,0c0.1,0,0.2,0,0.2,0.1L109.7,46.8z"/>
</g>
<g enable-background="new    ">
	<path fill="#FFFFFF" d="M146.1,63h-9.6l-2.2,7.6H130l9.3-30.2h4.1l9.2,30.2h-4.3L146.1,63z M137.5,59.6h7.7l-3.8-13.2h-0.1
		L137.5,59.6z"/>
</g>
<g enable-background="new    ">
	<path fill="#231F20" d="M67.7,67.5h-2.6l-0.5,2.1h-1.9l2.8-9.9h2l2.8,9.9h-1.9L67.7,67.5z M65.5,65.9h1.8l-0.9-3.5h0L65.5,65.9z"/>
	<path fill="#231F20" d="M74.5,69.6c-0.1-0.1-0.1-0.3-0.1-0.4c0-0.1-0.1-0.3-0.1-0.4c-0.2,0.3-0.4,0.5-0.7,0.7
		c-0.3,0.2-0.6,0.3-0.9,0.3c-0.6,0-1.1-0.2-1.5-0.6c-0.4-0.4-0.5-0.9-0.5-1.6c0-0.7,0.2-1.3,0.7-1.7c0.5-0.4,1.2-0.6,2.1-0.6h0.7
		v-0.6c0-0.4-0.1-0.6-0.2-0.8c-0.1-0.2-0.3-0.3-0.6-0.3c-0.2,0-0.4,0.1-0.5,0.2s-0.2,0.4-0.2,0.7l-1.9,0l0,0c0-0.6,0.2-1.2,0.7-1.6
		s1.1-0.7,2-0.7c0.8,0,1.4,0.2,1.9,0.7c0.5,0.4,0.7,1.1,0.7,1.9v3c0,0.4,0,0.7,0.1,1c0,0.3,0.1,0.6,0.2,0.9H74.5z M73.2,68.3
		c0.2,0,0.4-0.1,0.5-0.2c0.2-0.1,0.3-0.2,0.4-0.4v-1.4h-0.7c-0.3,0-0.5,0.1-0.6,0.3s-0.2,0.5-0.2,0.8c0,0.2,0.1,0.4,0.2,0.6
		C72.9,68.2,73,68.3,73.2,68.3z"/>
	<path fill="#231F20" d="M87.2,66c0,0.5-0.1,1-0.2,1.4c-0.1,0.4-0.3,0.8-0.6,1.1l1.5,1.6l-1.2,1l-1.5-1.7c-0.2,0.1-0.5,0.2-0.7,0.2
		s-0.5,0.1-0.8,0.1c-1,0-1.9-0.3-2.5-1s-0.9-1.6-0.9-2.7v-2.8c0-1.2,0.3-2.1,0.9-2.7s1.5-1,2.5-1c1,0,1.9,0.3,2.5,1s1,1.6,1,2.7V66z
		 M85.2,63.2c0-0.7-0.1-1.2-0.4-1.6c-0.3-0.4-0.6-0.5-1.1-0.5c-0.5,0-0.9,0.2-1.1,0.5c-0.3,0.4-0.4,0.9-0.4,1.6V66
		c0,0.7,0.1,1.3,0.4,1.6c0.3,0.4,0.6,0.5,1.1,0.5c0.5,0,0.9-0.2,1.1-0.5c0.3-0.4,0.4-0.9,0.4-1.6V63.2z"/>
	<path fill="#231F20" d="M88.5,65.6c0-1,0.2-1.9,0.6-2.5c0.4-0.6,1-1,1.8-1c0.3,0,0.6,0.1,0.9,0.2s0.5,0.4,0.6,0.7l0.1-0.8h1.7v10.2
		h-1.9V69c-0.2,0.2-0.4,0.4-0.6,0.5c-0.2,0.1-0.5,0.2-0.8,0.2c-0.8,0-1.4-0.3-1.8-0.9c-0.4-0.6-0.6-1.4-0.6-2.4V65.6z M90.4,66.5
		c0,0.5,0.1,1,0.2,1.3s0.4,0.5,0.8,0.5c0.2,0,0.4,0,0.5-0.1s0.3-0.2,0.4-0.4v-3.5c-0.1-0.2-0.2-0.3-0.4-0.4
		c-0.1-0.1-0.3-0.1-0.5-0.1c-0.4,0-0.6,0.2-0.8,0.5c-0.2,0.4-0.2,0.8-0.2,1.4V66.5z"/>
	<path fill="#231F20" d="M100.6,65.6v3.9h-1.9v-9.9h3.2c1,0,1.7,0.3,2.3,0.8s0.8,1.2,0.8,2.1c0,0.5-0.1,1-0.3,1.3
		c-0.2,0.4-0.6,0.7-1,0.9c0.5,0.2,0.9,0.5,1.1,0.9s0.3,0.9,0.3,1.5v0.7c0,0.3,0,0.6,0.1,0.9c0.1,0.3,0.2,0.5,0.3,0.7v0.1h-2
		c-0.2-0.1-0.3-0.4-0.3-0.7c0-0.3-0.1-0.7-0.1-1v-0.7c0-0.5-0.1-0.9-0.3-1.1c-0.2-0.3-0.5-0.4-0.9-0.4H100.6z M100.6,64.1h1.3
		c0.4,0,0.7-0.1,0.9-0.4c0.2-0.2,0.3-0.6,0.3-1c0-0.5-0.1-0.8-0.3-1.1c-0.2-0.3-0.5-0.4-0.9-0.4h-1.3V64.1z"/>
	<path fill="#231F20" d="M109.9,64l-0.7,0c-0.2,0-0.4,0-0.5,0.1c-0.1,0.1-0.2,0.2-0.3,0.4v5h-1.9v-7.3h1.8l0.1,1l0,0
		c0.1-0.4,0.3-0.6,0.5-0.8c0.2-0.2,0.5-0.3,0.7-0.3c0.1,0,0.2,0,0.3,0c0.1,0,0.2,0,0.3,0.1L109.9,64z"/>
</g>
<g enable-background="new    ">
	<path fill="#9F392A" d="M85.8,87.4V92h-1.6V80.5H88c1.1,0,1.9,0.3,2.5,1c0.6,0.6,0.9,1.5,0.9,2.5c0,1-0.3,1.9-0.9,2.5
		c-0.6,0.6-1.4,0.9-2.5,0.9H85.8z M85.8,86.2H88c0.6,0,1.1-0.2,1.4-0.6c0.3-0.4,0.5-1,0.5-1.6c0-0.7-0.2-1.2-0.5-1.6
		C89,82,88.6,81.7,88,81.7h-2.2V86.2z"/>
	<path fill="#9F392A" d="M100.7,92h-1.6v-5h-4.4v5h-1.6V80.5h1.6v5.2h4.4v-5.2h1.6V92z"/>
	<path fill="#9F392A" d="M104.5,87V92h-1.6V80.5h3.6c1.1,0,1.9,0.3,2.5,0.8c0.6,0.6,0.9,1.4,0.9,2.4c0,0.6-0.1,1.1-0.4,1.6
		c-0.3,0.4-0.7,0.8-1.2,1c0.6,0.2,1,0.5,1.2,1c0.3,0.5,0.4,1,0.4,1.7v1c0,0.4,0,0.7,0.1,1s0.2,0.5,0.4,0.7V92h-1.6
		c-0.2-0.2-0.3-0.4-0.3-0.8c0-0.3-0.1-0.7-0.1-1.1v-1c0-0.6-0.1-1.1-0.4-1.5c-0.3-0.4-0.7-0.6-1.2-0.6H104.5z M104.5,85.8h1.9
		c0.6,0,1.1-0.2,1.4-0.5s0.5-0.8,0.5-1.5c0-0.7-0.1-1.2-0.4-1.5c-0.3-0.4-0.8-0.5-1.4-0.5h-2V85.8z"/>
	<path fill="#9F392A" d="M117.2,89.1h-3.6l-0.8,2.9h-1.6l3.5-11.4h1.5l3.5,11.4H118L117.2,89.1z M113.9,87.8h2.9l-1.4-5h0
		L113.9,87.8z"/>
	<path fill="#9F392A" d="M124.2,85L124.2,85l2.1-4.5h1.9l-3,5.7l3.1,5.8h-1.9l-2.1-4.6h0l-2.1,4.6h-1.9l3-5.8l-3-5.7h1.9L124.2,85z"
		/>
	<path fill="#9F392A" d="M135.5,86.6h-4.2v4.1h4.9V92h-6.5V80.5h6.5v1.2h-4.9v3.7h4.2V86.6z"/>
	<path fill="#9F392A" d="M140.3,86.8h-1.1V92h-1.6V80.5h1.6v5h0.9l3-5h1.9l-3.6,5.4l3.9,6h-1.9L140.3,86.8z"/>
</g>
<g enable-background="new    ">
	<path fill="#231F20" d="M87.4,106h-2.2l-0.5,1.7h-1l2.1-6.8h0.9l2.1,6.8h-1L87.4,106z M85.4,105.2h1.7l-0.9-3h0L85.4,105.2z"/>
	<path fill="#231F20" d="M89.6,107.7v-6.8h1.9c0.6,0,1.1,0.2,1.5,0.5s0.5,0.8,0.5,1.4c0,0.3-0.1,0.6-0.2,0.9
		c-0.2,0.2-0.4,0.4-0.7,0.5c0.4,0.1,0.6,0.3,0.8,0.6c0.2,0.3,0.3,0.7,0.3,1.1c0,0.6-0.2,1.1-0.5,1.4c-0.4,0.3-0.8,0.5-1.5,0.5H89.6z
		 M90.5,103.8h1c0.3,0,0.6-0.1,0.7-0.3c0.2-0.2,0.3-0.5,0.3-0.8c0-0.4-0.1-0.7-0.3-0.8c-0.2-0.2-0.5-0.3-0.8-0.3h-0.9V103.8z
		 M90.5,104.5v2.5h1.2c0.3,0,0.6-0.1,0.8-0.3s0.3-0.5,0.3-0.9c0-0.4-0.1-0.7-0.2-0.9s-0.4-0.3-0.7-0.3H90.5z"/>
	<path fill="#231F20" d="M98.8,105.6L98.8,105.6c0,0.7-0.2,1.2-0.5,1.6s-0.9,0.6-1.5,0.6c-0.7,0-1.2-0.2-1.6-0.7s-0.6-1.1-0.6-1.9
		v-1.9c0-0.8,0.2-1.4,0.6-1.9c0.4-0.5,0.9-0.7,1.6-0.7c0.7,0,1.2,0.2,1.5,0.5c0.4,0.4,0.5,0.9,0.6,1.6l0,0h-0.9
		c0-0.5-0.1-0.9-0.3-1.1c-0.2-0.2-0.5-0.4-0.9-0.4c-0.4,0-0.7,0.2-0.9,0.5c-0.2,0.3-0.3,0.8-0.3,1.3v1.9c0,0.6,0.1,1,0.3,1.4
		c0.2,0.3,0.5,0.5,0.9,0.5c0.4,0,0.7-0.1,0.9-0.3c0.2-0.2,0.3-0.6,0.3-1.1H98.8z"/>
	<path fill="#231F20" d="M99.9,107.7v-6.8h1.9c0.7,0,1.3,0.3,1.8,0.8s0.7,1.2,0.7,2.1v1c0,0.9-0.2,1.6-0.7,2.1s-1,0.8-1.8,0.8H99.9z
		 M100.8,101.6v5.4h0.9c0.5,0,0.9-0.2,1.1-0.6c0.3-0.4,0.4-0.9,0.4-1.6v-1c0-0.6-0.1-1.2-0.4-1.6s-0.7-0.6-1.1-0.6H100.8z"/>
	<path fill="#231F20" d="M108.7,104.5h-2.5v2.4h2.9v0.7h-3.9v-6.8h3.8v0.7h-2.9v2.2h2.5V104.5z"/>
	<path fill="#231F20" d="M113.5,104.6H111v3H110v-6.8h3.9v0.7H111v2.3h2.5V104.6z"/>
	<path fill="#231F20" d="M119.1,106.7c-0.2,0.3-0.4,0.5-0.8,0.7s-0.8,0.3-1.3,0.3c-0.7,0-1.3-0.2-1.7-0.6c-0.4-0.4-0.7-1-0.7-1.8v-2
		c0-0.8,0.2-1.4,0.6-1.8s1-0.6,1.6-0.6c0.7,0,1.2,0.2,1.6,0.5c0.4,0.4,0.6,0.8,0.6,1.5l0,0h-0.9c0-0.4-0.1-0.8-0.3-1
		c-0.2-0.2-0.5-0.3-0.9-0.3c-0.4,0-0.7,0.1-1,0.4s-0.4,0.7-0.4,1.3v2c0,0.6,0.1,1,0.4,1.3s0.6,0.5,1,0.5c0.3,0,0.6-0.1,0.8-0.2
		c0.2-0.1,0.3-0.3,0.4-0.4v-1.5H117v-0.7h2.1V106.7z"/>
	<path fill="#231F20" d="M124.9,107.7h-0.9v-3h-2.6v3h-0.9v-6.8h0.9v3.1h2.6v-3.1h0.9V107.7z"/>
	<path fill="#231F20" d="M127.2,107.7h-0.9v-6.8h0.9V107.7z"/>
	<path fill="#231F20" d="M131,100.9h0.9v4.9c0,0.6-0.2,1.1-0.5,1.5c-0.3,0.4-0.8,0.6-1.3,0.6c-0.6,0-1-0.2-1.4-0.5
		c-0.3-0.3-0.5-0.8-0.5-1.5l0,0h0.9c0,0.4,0.1,0.8,0.2,1c0.2,0.2,0.4,0.3,0.7,0.3c0.3,0,0.5-0.1,0.6-0.4c0.2-0.2,0.3-0.6,0.3-1
		V100.9z"/>
	<path fill="#231F20" d="M134.8,104.6h-0.6v3h-0.9v-6.8h0.9v3h0.6l1.8-3h1.1l-2.1,3.2l2.3,3.6h-1.2L134.8,104.6z"/>
	<path fill="#231F20" d="M139.4,107h2.7v0.7h-3.6v-6.8h0.9V107z"/>
	<path fill="#231F20" d="M144.1,100.9l1.6,5.5h0l1.6-5.5h1.2v6.8h-0.9v-2.6l0.1-2.6l0,0l-1.6,5.2h-0.6l-1.6-5.2l0,0l0.1,2.6v2.6
		h-0.9v-6.8H144.1z"/>
</g>
<g enable-background="new    ">
	<path fill="#231F20" d="M88.8,119.2h-0.9l-2.6-5.1l0,0v5h-0.9v-6.8h0.9l2.6,5l0,0v-5h0.9V119.2z"/>
	<path fill="#231F20" d="M94.4,116.7c0,0.8-0.2,1.4-0.6,1.9c-0.4,0.4-1,0.7-1.7,0.7c-0.7,0-1.2-0.2-1.6-0.7
		c-0.4-0.5-0.6-1.1-0.6-1.9v-1.9c0-0.8,0.2-1.4,0.6-1.9c0.4-0.5,1-0.7,1.6-0.7c0.7,0,1.3,0.2,1.7,0.7c0.4,0.5,0.6,1.1,0.6,1.9V116.7
		z M93.5,114.8c0-0.6-0.1-1-0.4-1.3c-0.2-0.3-0.6-0.5-1-0.5c-0.4,0-0.8,0.2-1,0.5c-0.2,0.3-0.3,0.8-0.3,1.3v1.9
		c0,0.6,0.1,1.1,0.3,1.4c0.2,0.3,0.6,0.5,1,0.5c0.4,0,0.8-0.2,1-0.5s0.4-0.8,0.4-1.4V114.8z"/>
	<path fill="#231F20" d="M96.5,116.5v2.7h-0.9v-6.8h2.2c0.6,0,1.1,0.2,1.5,0.6c0.4,0.4,0.5,0.9,0.5,1.5c0,0.6-0.2,1.1-0.5,1.5
		c-0.4,0.4-0.9,0.6-1.5,0.6H96.5z M96.5,115.7h1.3c0.4,0,0.6-0.1,0.8-0.4c0.2-0.3,0.3-0.6,0.3-0.9c0-0.4-0.1-0.7-0.3-1
		s-0.5-0.4-0.8-0.4h-1.3V115.7z"/>
	<path fill="#231F20" d="M105.1,116.7c0,0.4-0.1,0.8-0.2,1.1s-0.3,0.6-0.5,0.8l1,1.1l-0.6,0.5l-1.1-1.1c-0.2,0.1-0.3,0.1-0.5,0.2
		s-0.4,0.1-0.5,0.1c-0.7,0-1.2-0.2-1.6-0.7c-0.4-0.5-0.6-1.1-0.6-1.9v-1.9c0-0.8,0.2-1.4,0.6-1.9c0.4-0.5,1-0.7,1.6-0.7
		c0.7,0,1.3,0.2,1.7,0.7c0.4,0.5,0.6,1.1,0.6,1.9V116.7z M104.2,114.8c0-0.6-0.1-1-0.4-1.3c-0.2-0.3-0.6-0.5-1-0.5
		c-0.4,0-0.8,0.2-1,0.5c-0.2,0.3-0.3,0.8-0.3,1.3v1.9c0,0.6,0.1,1.1,0.3,1.4c0.2,0.3,0.6,0.5,1,0.5c0.4,0,0.8-0.2,1-0.5
		c0.2-0.3,0.4-0.8,0.4-1.4V114.8z"/>
	<path fill="#231F20" d="M107.4,116.2v2.9h-0.9v-6.8h2.1c0.6,0,1.1,0.2,1.5,0.5c0.4,0.3,0.5,0.8,0.5,1.4c0,0.4-0.1,0.7-0.2,0.9
		c-0.2,0.3-0.4,0.5-0.7,0.6c0.3,0.1,0.6,0.3,0.7,0.6c0.2,0.3,0.2,0.6,0.2,1v0.6c0,0.2,0,0.4,0.1,0.6s0.1,0.3,0.2,0.4v0.1h-1
		c-0.1-0.1-0.2-0.3-0.2-0.5c0-0.2,0-0.4,0-0.7v-0.6c0-0.4-0.1-0.7-0.3-0.9c-0.2-0.2-0.4-0.3-0.7-0.3H107.4z M107.4,115.5h1.1
		c0.4,0,0.7-0.1,0.8-0.3c0.2-0.2,0.3-0.5,0.3-0.9c0-0.4-0.1-0.7-0.3-0.9c-0.2-0.2-0.4-0.3-0.8-0.3h-1.2V115.5z"/>
	<path fill="#231F20" d="M115,117.4c0-0.3-0.1-0.6-0.3-0.8c-0.2-0.2-0.5-0.4-0.9-0.5c-0.6-0.2-1.1-0.5-1.5-0.8
		c-0.3-0.3-0.5-0.7-0.5-1.3c0-0.5,0.2-1,0.6-1.3s0.9-0.5,1.5-0.5c0.6,0,1.1,0.2,1.5,0.6c0.4,0.4,0.6,0.9,0.6,1.4l0,0H115
		c0-0.4-0.1-0.7-0.3-1c-0.2-0.2-0.5-0.4-0.9-0.4c-0.4,0-0.6,0.1-0.8,0.3c-0.2,0.2-0.3,0.5-0.3,0.8c0,0.3,0.1,0.5,0.3,0.7
		c0.2,0.2,0.5,0.4,1,0.5c0.6,0.2,1.1,0.5,1.4,0.8c0.3,0.3,0.5,0.8,0.5,1.3c0,0.6-0.2,1-0.6,1.3s-0.9,0.5-1.5,0.5
		c-0.6,0-1.1-0.2-1.6-0.5c-0.5-0.4-0.7-0.9-0.7-1.5l0,0h0.9c0,0.5,0.1,0.8,0.4,1c0.2,0.2,0.6,0.3,1,0.3c0.4,0,0.6-0.1,0.8-0.3
		C114.9,118,115,117.8,115,117.4z"/>
	<path fill="#231F20" d="M120.9,113.1h-1.7v6.1h-0.9v-6.1h-1.7v-0.7h4.4V113.1z"/>
	<path fill="#231F20" d="M125.9,112.4v4.7c0,0.7-0.2,1.2-0.6,1.6s-0.9,0.6-1.6,0.6c-0.6,0-1.2-0.2-1.6-0.6c-0.4-0.4-0.6-0.9-0.6-1.6
		v-4.7h0.9v4.7c0,0.5,0.1,0.9,0.3,1.1c0.2,0.2,0.5,0.4,0.9,0.4c0.4,0,0.7-0.1,0.9-0.4s0.3-0.6,0.3-1.1v-4.7H125.9z"/>
	<path fill="#231F20" d="M129,117.6l0.1,0.4h0l0.1-0.4l1.4-5.3h1l-2,6.8h-0.9l-2-6.8h1L129,117.6z"/>
	<path fill="#231F20" d="M136.8,117.2L136.8,117.2l0.9-4.8h0.9l-1.4,6.8h-0.9l-1.2-4.8h0l-1.2,4.8h-0.9l-1.4-6.8h0.9l0.9,4.8h0
		l1.2-4.8h0.8L136.8,117.2z"/>
	<path fill="#231F20" d="M141.5,115L141.5,115l1.2-2.7h1.1l-1.8,3.4l1.8,3.4h-1.1l-1.3-2.7h0l-1.3,2.7h-1.1l1.8-3.4l-1.8-3.4h1.1
		L141.5,115z"/>
	<path fill="#231F20" d="M146.7,115.7L146.7,115.7l1.4-3.3h1.1l-2,4.4v2.4h-0.9v-2.5l-2-4.3h1.1L146.7,115.7z"/>
	<path fill="#231F20" d="M150.6,118.4h3v0.7h-4v-0.6l2.9-5.5h-2.9v-0.7h3.9v0.6L150.6,118.4z"/>
</g>
<g enable-background="new    ">
	<path fill="#FFFFFF" d="M99.2,131.2c0,0.7-0.1,1.3-0.4,1.7s-0.7,0.6-1.1,0.6c-0.5,0-0.9-0.2-1.2-0.6c-0.3-0.4-0.4-1-0.4-1.7v-1.3
		c0-0.7,0.1-1.3,0.4-1.7c0.3-0.4,0.7-0.6,1.1-0.6s0.9,0.2,1.1,0.6c0.3,0.4,0.4,1,0.4,1.7V131.2z M98.4,129.8c0-0.5-0.1-0.9-0.2-1.2
		s-0.3-0.4-0.6-0.4c-0.3,0-0.4,0.1-0.6,0.4s-0.2,0.7-0.2,1.2v1.5c0,0.5,0.1,0.9,0.2,1.2s0.3,0.4,0.6,0.4c0.3,0,0.4-0.1,0.6-0.4
		c0.1-0.3,0.2-0.7,0.2-1.2V129.8z"/>
	<path fill="#FFFFFF" d="M102,133.4h-0.8v-4.9l-1.1,0.1v-0.5l1.9-0.4V133.4z"/>
	<path fill="#FFFFFF" d="M107,133.4h-3.2v-0.5l1.6-2c0.3-0.4,0.4-0.6,0.5-0.9c0.1-0.2,0.1-0.5,0.1-0.7c0-0.3-0.1-0.5-0.2-0.7
		c-0.1-0.2-0.3-0.3-0.5-0.3c-0.3,0-0.5,0.1-0.6,0.3c-0.1,0.2-0.2,0.5-0.2,0.9h-0.8l0,0c0-0.5,0.1-0.9,0.4-1.2s0.7-0.5,1.2-0.5
		c0.5,0,0.8,0.1,1.1,0.4s0.4,0.7,0.4,1.2c0,0.3-0.1,0.6-0.2,1c-0.2,0.3-0.4,0.7-0.7,1.1l-1.1,1.5h2.2V133.4z"/>
	<path fill="#FFFFFF" d="M108.7,130.2h0.5c0.3,0,0.5-0.1,0.6-0.3s0.2-0.4,0.2-0.7c0-0.3-0.1-0.5-0.2-0.7c-0.1-0.2-0.3-0.3-0.6-0.3
		c-0.2,0-0.4,0.1-0.5,0.3c-0.1,0.2-0.2,0.4-0.2,0.7h-0.8l0,0c0-0.4,0.1-0.8,0.4-1.1c0.3-0.3,0.6-0.4,1.1-0.4c0.5,0,0.8,0.1,1.1,0.4
		c0.3,0.3,0.4,0.7,0.4,1.2c0,0.3-0.1,0.5-0.2,0.7c-0.1,0.2-0.3,0.4-0.6,0.5c0.3,0.1,0.5,0.3,0.6,0.5c0.1,0.2,0.2,0.5,0.2,0.8
		c0,0.5-0.2,0.9-0.5,1.2c-0.3,0.3-0.7,0.4-1.2,0.4c-0.4,0-0.8-0.1-1.1-0.4c-0.3-0.3-0.5-0.7-0.4-1.2l0,0h0.8c0,0.3,0.1,0.5,0.2,0.7
		c0.1,0.2,0.3,0.3,0.6,0.3c0.3,0,0.5-0.1,0.6-0.3c0.1-0.2,0.2-0.4,0.2-0.8c0-0.4-0.1-0.6-0.2-0.8s-0.3-0.3-0.6-0.3h-0.5V130.2z"/>
	<path fill="#FFFFFF" d="M114.3,131.5h0.6v0.6h-0.6v1.3h-0.8v-1.3h-2.1l0-0.4l2.1-3.9h0.8V131.5z M112.2,131.5h1.3v-2.6l0,0
		l-0.1,0.2L112.2,131.5z"/>
	<path fill="#FFFFFF" d="M115.7,130.9l0.3-3.1h2.5v0.6h-1.9l-0.1,1.7c0.1-0.1,0.2-0.2,0.3-0.2c0.1-0.1,0.3-0.1,0.4-0.1
		c0.4,0,0.8,0.2,1.1,0.5c0.3,0.3,0.4,0.8,0.4,1.4c0,0.6-0.1,1-0.4,1.4c-0.3,0.3-0.7,0.5-1.2,0.5c-0.4,0-0.8-0.1-1.1-0.4
		c-0.3-0.3-0.4-0.7-0.4-1.2l0,0l0.7,0c0,0.3,0.1,0.6,0.2,0.7c0.1,0.2,0.3,0.3,0.5,0.3c0.3,0,0.5-0.1,0.6-0.3
		c0.1-0.2,0.2-0.5,0.2-0.9c0-0.4-0.1-0.7-0.2-0.9c-0.1-0.2-0.3-0.3-0.6-0.3c-0.2,0-0.4,0-0.5,0.1c-0.1,0.1-0.2,0.2-0.2,0.4
		L115.7,130.9z"/>
	<path fill="#FFFFFF" d="M121.3,127.7c0.2,0,0.3,0,0.5,0.1s0.3,0.1,0.4,0.2l-0.2,0.6c-0.1-0.1-0.2-0.1-0.4-0.2
		c-0.1,0-0.3-0.1-0.4-0.1c-0.3,0-0.6,0.2-0.8,0.5s-0.3,0.7-0.3,1.2v0.2c0.1-0.1,0.3-0.3,0.5-0.3c0.2-0.1,0.4-0.1,0.6-0.1
		c0.4,0,0.8,0.2,1,0.5s0.4,0.8,0.4,1.4c0,0.6-0.1,1-0.4,1.4s-0.7,0.6-1.1,0.6c-0.5,0-0.9-0.2-1.2-0.6c-0.3-0.4-0.5-0.9-0.5-1.7V130
		c0-0.7,0.2-1.3,0.5-1.7C120.3,127.9,120.8,127.7,121.3,127.7z M121.1,130.2c-0.2,0-0.4,0-0.5,0.1s-0.3,0.2-0.3,0.4v0.5
		c0,0.5,0.1,0.9,0.2,1.2c0.2,0.3,0.4,0.4,0.6,0.4c0.2,0,0.4-0.1,0.6-0.4c0.1-0.3,0.2-0.6,0.2-1c0-0.4-0.1-0.7-0.2-0.9
		C121.5,130.3,121.3,130.2,121.1,130.2z"/>
	<path fill="#FFFFFF" d="M126.5,128.3c-0.5,0.7-0.9,1.4-1.1,2.1s-0.3,1.5-0.4,2.4l-0.1,0.5h-0.8l0-0.5c0.1-0.9,0.3-1.7,0.5-2.5
		s0.6-1.4,1.1-2.1h-2.5v-0.6h3.3V128.3z"/>
	<path fill="#FFFFFF" d="M130.2,129.2c0,0.3-0.1,0.6-0.2,0.8c-0.1,0.2-0.3,0.4-0.6,0.5c0.3,0.1,0.5,0.3,0.7,0.5
		c0.2,0.2,0.2,0.5,0.2,0.8c0,0.5-0.1,0.9-0.4,1.2c-0.3,0.3-0.7,0.4-1.2,0.4c-0.5,0-0.9-0.1-1.2-0.4c-0.3-0.3-0.4-0.7-0.4-1.2
		c0-0.3,0.1-0.6,0.2-0.8c0.2-0.2,0.4-0.4,0.7-0.5c-0.2-0.1-0.4-0.3-0.6-0.5c-0.1-0.2-0.2-0.5-0.2-0.8c0-0.5,0.1-0.9,0.4-1.2
		c0.3-0.3,0.6-0.4,1.1-0.4c0.4,0,0.8,0.1,1.1,0.4C130.1,128.3,130.2,128.7,130.2,129.2z M129.6,131.8c0-0.3-0.1-0.6-0.2-0.8
		c-0.2-0.2-0.3-0.3-0.6-0.3c-0.2,0-0.4,0.1-0.6,0.3c-0.1,0.2-0.2,0.4-0.2,0.8c0,0.3,0.1,0.6,0.2,0.8c0.1,0.2,0.3,0.3,0.6,0.3
		c0.2,0,0.4-0.1,0.6-0.3C129.5,132.4,129.6,132.2,129.6,131.8z M129.4,129.2c0-0.3-0.1-0.5-0.2-0.7c-0.1-0.2-0.3-0.3-0.5-0.3
		c-0.2,0-0.4,0.1-0.5,0.3s-0.2,0.4-0.2,0.7c0,0.3,0.1,0.5,0.2,0.7c0.1,0.2,0.3,0.3,0.5,0.3c0.2,0,0.4-0.1,0.5-0.3
		C129.4,129.8,129.4,129.5,129.4,129.2z"/>
	<path fill="#FFFFFF" d="M132.4,132.9c0.3,0,0.5-0.1,0.7-0.4s0.3-0.7,0.3-1.2v-0.3c-0.1,0.2-0.2,0.3-0.4,0.4s-0.3,0.1-0.5,0.1
		c-0.5,0-0.8-0.2-1.1-0.5c-0.3-0.3-0.4-0.8-0.4-1.4c0-0.6,0.1-1.1,0.4-1.4c0.3-0.4,0.7-0.6,1.1-0.6c0.5,0,0.9,0.2,1.2,0.6
		c0.3,0.4,0.4,0.9,0.4,1.6v1.5c0,0.7-0.2,1.2-0.5,1.6s-0.7,0.6-1.3,0.6c-0.2,0-0.3,0-0.5-0.1s-0.3-0.1-0.5-0.2l0.1-0.6
		c0.1,0.1,0.3,0.1,0.4,0.2C132.1,132.9,132.2,132.9,132.4,132.9z M132.6,131c0.2,0,0.4-0.1,0.5-0.2c0.1-0.1,0.2-0.3,0.3-0.4v-0.7
		c0-0.5-0.1-0.9-0.2-1.1s-0.3-0.4-0.6-0.4c-0.2,0-0.4,0.1-0.6,0.4s-0.2,0.6-0.2,1s0.1,0.7,0.2,1S132.3,131,132.6,131z"/>
</g>
</svg>
