<?xml version="1.0" encoding="utf-8"?>
<!-- Generator: Adobe Illustrator 17.1.0, SVG Export Plug-In . SVG Version: 6.00 Build 0)  -->
<!DOCTYPE svg PUBLIC "-//W3C//DTD SVG 1.1//EN" "http://www.w3.org/Graphics/SVG/1.1/DTD/svg11.dtd">
<svg version="1.1" id="Layer_1" xmlns="http://www.w3.org/2000/svg" xmlns:xlink="http://www.w3.org/1999/xlink" x="0px" y="0px" viewBox="44.8 0 153 153" enable-background="new 44.8 0 153 153" xml:space="preserve">
<rect x="44.8" fill="#DCDBC7" width="153" height="153"/>
<g enable-background="new    ">
	<path fill="#231F20" d="M65.9,27.2v5.9h-1.8V19.5H69c1.5,0,2.6,0.3,3.4,1c0.8,0.7,1.2,1.6,1.2,2.9c0,0.7-0.2,1.3-0.5,1.8
		c-0.4,0.5-0.9,0.9-1.6,1.2c0.7,0.2,1.3,0.6,1.6,1.2c0.3,0.5,0.5,1.2,0.5,2v1.3c0,0.4,0,0.8,0.1,1.1s0.3,0.6,0.5,0.8v0.2h-1.9
		c-0.2-0.2-0.4-0.5-0.5-0.9c-0.1-0.4-0.1-0.8-0.1-1.3v-1.2c0-0.7-0.2-1.3-0.6-1.8s-1-0.7-1.7-0.7H65.9z M65.9,25.8h2.9
		c1,0,1.8-0.2,2.2-0.6c0.5-0.4,0.7-1,0.7-1.8c0-0.8-0.2-1.4-0.7-1.8C70.6,21.2,70,21,69,21h-3.1V25.8z"/>
	<path fill="#231F20" d="M76,27.9c0-1.5,0.4-2.7,1.2-3.7c0.8-1,1.9-1.5,3.3-1.5c1.4,0,2.5,0.5,3.3,1.4c0.8,1,1.2,2.2,1.2,3.7v0.2
		c0,1.5-0.4,2.7-1.2,3.7c-0.8,1-1.9,1.4-3.3,1.4s-2.5-0.5-3.3-1.4S76,29.7,76,28.2V27.9z M77.8,28.1c0,1.1,0.2,2,0.7,2.6
		c0.5,0.7,1.1,1,2,1c0.9,0,1.5-0.3,2-1c0.5-0.7,0.7-1.6,0.7-2.6v-0.2c0-1.1-0.2-1.9-0.7-2.6s-1.1-1.1-2-1.1c-0.9,0-1.5,0.4-2,1.1
		c-0.5,0.7-0.7,1.6-0.7,2.6V28.1z"/>
	<path fill="#231F20" d="M95.9,28.4c0,1.5-0.4,2.6-1.1,3.5c-0.7,0.9-1.7,1.3-2.9,1.3c-0.7,0-1.2-0.1-1.7-0.4s-0.9-0.6-1.2-1.1
		l-0.2,1.3h-1.5V18.5h1.8v5.7c0.3-0.4,0.7-0.8,1.2-1c0.5-0.2,1-0.4,1.6-0.4c1.2,0,2.2,0.5,2.9,1.5s1,2.3,1,3.9V28.4z M94.1,28.2
		c0-1.2-0.2-2.1-0.6-2.8c-0.4-0.7-1.1-1.1-1.9-1.1c-0.6,0-1,0.1-1.4,0.4c-0.4,0.3-0.7,0.6-0.9,1.1v4.4c0.2,0.5,0.5,0.9,0.9,1.2
		c0.4,0.3,0.9,0.4,1.5,0.4c0.9,0,1.5-0.3,1.9-0.9s0.6-1.4,0.6-2.4V28.2z"/>
	<path fill="#231F20" d="M97.7,27.9c0-1.5,0.4-2.7,1.2-3.7c0.8-1,1.9-1.5,3.3-1.5c1.4,0,2.5,0.5,3.3,1.4c0.8,1,1.2,2.2,1.2,3.7v0.2
		c0,1.5-0.4,2.7-1.2,3.7c-0.8,1-1.9,1.4-3.3,1.4s-2.5-0.5-3.3-1.4s-1.2-2.2-1.2-3.7V27.9z M99.6,28.1c0,1.1,0.2,2,0.7,2.6
		c0.5,0.7,1.1,1,2,1c0.9,0,1.5-0.3,2-1c0.5-0.7,0.7-1.6,0.7-2.6v-0.2c0-1.1-0.2-1.9-0.7-2.6s-1.1-1.1-2-1.1c-0.9,0-1.5,0.4-2,1.1
		c-0.5,0.7-0.7,1.6-0.7,2.6V28.1z"/>
	<path fill="#231F20" d="M111.5,20.6V23h1.9v1.4h-1.9v6.1c0,0.5,0.1,0.8,0.3,1c0.2,0.2,0.5,0.3,0.8,0.3c0.1,0,0.2,0,0.4,0
		c0.1,0,0.2-0.1,0.3-0.1l0.2,1.3c-0.1,0.1-0.3,0.2-0.6,0.3c-0.3,0.1-0.5,0.1-0.8,0.1c-0.7,0-1.3-0.2-1.8-0.7
		c-0.4-0.5-0.7-1.2-0.7-2.1v-6.1H108V23h1.6v-2.4H111.5z"/>
	<path fill="#231F20" d="M115.2,27.9c0-1.5,0.4-2.7,1.2-3.7c0.8-1,1.9-1.5,3.3-1.5c1.4,0,2.5,0.5,3.3,1.4c0.8,1,1.2,2.2,1.2,3.7v0.2
		c0,1.5-0.4,2.7-1.2,3.7c-0.8,1-1.9,1.4-3.3,1.4s-2.5-0.5-3.3-1.4s-1.2-2.2-1.2-3.7V27.9z M117,28.1c0,1.1,0.2,2,0.7,2.6
		c0.5,0.7,1.1,1,2,1c0.9,0,1.5-0.3,2-1c0.5-0.7,0.7-1.6,0.7-2.6v-0.2c0-1.1-0.2-1.9-0.7-2.6c-0.5-0.7-1.1-1.1-2-1.1
		c-0.9,0-1.5,0.4-2,1.1c-0.5,0.7-0.7,1.6-0.7,2.6V28.1z"/>
</g>
<g enable-background="new    ">
	<path fill="#231F20" d="M69.4,50.5h-4.1L64.4,53H63l3.8-9.9H68l3.8,9.9h-1.4L69.4,50.5z M65.7,49.3H69l-1.6-4.5h0L65.7,49.3z"/>
	<path fill="#231F20" d="M77.4,53c0-0.2-0.1-0.4-0.1-0.6s0-0.3,0-0.5c-0.2,0.4-0.6,0.6-1,0.9c-0.4,0.2-0.8,0.4-1.3,0.4
		c-0.8,0-1.3-0.2-1.7-0.6c-0.4-0.4-0.6-0.9-0.6-1.6c0-0.7,0.3-1.3,0.9-1.6c0.6-0.4,1.3-0.6,2.3-0.6h1.5V48c0-0.4-0.1-0.8-0.4-1
		c-0.3-0.3-0.6-0.4-1.1-0.4c-0.4,0-0.8,0.1-1,0.3c-0.3,0.2-0.4,0.5-0.4,0.8H73l0,0c0-0.5,0.2-1,0.8-1.5c0.5-0.4,1.2-0.7,2.1-0.7
		c0.8,0,1.5,0.2,2,0.6c0.5,0.4,0.8,1,0.8,1.8v3.5c0,0.3,0,0.5,0,0.8c0,0.2,0.1,0.5,0.1,0.7H77.4z M75.1,52c0.5,0,0.9-0.1,1.3-0.4
		c0.4-0.2,0.6-0.5,0.8-0.9v-1.2h-1.5c-0.5,0-1,0.1-1.3,0.4s-0.5,0.6-0.5,1c0,0.3,0.1,0.6,0.3,0.8C74.4,51.9,74.7,52,75.1,52z"/>
	<path fill="#231F20" d="M91.7,48.9c0,0.6-0.1,1.2-0.3,1.8c-0.2,0.5-0.5,1-1,1.4l1.7,1.6l-0.9,0.9l-1.9-1.7
		c-0.3,0.1-0.5,0.2-0.8,0.2s-0.6,0.1-0.8,0.1c-1.2,0-2.1-0.4-2.8-1.2s-1.1-1.8-1.1-3v-1.8c0-1.2,0.4-2.2,1.1-3s1.7-1.2,2.8-1.2
		c1.2,0,2.2,0.4,2.9,1.2c0.7,0.8,1.1,1.8,1.1,3V48.9z M90.3,47.2c0-0.9-0.2-1.6-0.7-2.2c-0.5-0.6-1.1-0.9-2-0.9
		c-0.8,0-1.4,0.3-1.9,0.9c-0.5,0.6-0.7,1.3-0.7,2.2v1.8c0,0.9,0.2,1.7,0.7,2.2c0.5,0.6,1.1,0.9,1.9,0.9c0.8,0,1.5-0.3,2-0.9
		c0.5-0.6,0.7-1.3,0.7-2.2V47.2z"/>
	<path fill="#231F20" d="M93.1,49.5c0-1.2,0.3-2.1,0.8-2.9c0.5-0.7,1.2-1.1,2.1-1.1c0.4,0,0.8,0.1,1.2,0.3c0.3,0.2,0.6,0.4,0.9,0.7
		l0.2-0.9h1v10.2h-1.3v-3.5c-0.2,0.3-0.5,0.5-0.8,0.6c-0.3,0.1-0.7,0.2-1.1,0.2c-0.9,0-1.6-0.3-2.1-1c-0.5-0.6-0.8-1.5-0.8-2.6V49.5
		z M94.5,49.6c0,0.7,0.2,1.3,0.5,1.8s0.8,0.7,1.4,0.7c0.4,0,0.7-0.1,0.9-0.2c0.3-0.2,0.5-0.4,0.7-0.7v-3.7c-0.2-0.3-0.4-0.5-0.7-0.7
		c-0.3-0.2-0.6-0.2-0.9-0.2c-0.6,0-1.1,0.3-1.4,0.8c-0.3,0.5-0.5,1.2-0.5,2.1V49.6z"/>
	<path fill="#231F20" d="M106.4,48.7V53H105v-9.9h3.6c1.1,0,1.9,0.2,2.5,0.7c0.6,0.5,0.9,1.2,0.9,2.1c0,0.5-0.1,0.9-0.4,1.3
		c-0.3,0.4-0.7,0.7-1.2,0.9c0.5,0.2,0.9,0.5,1.2,0.9c0.2,0.4,0.4,0.9,0.4,1.5v0.9c0,0.3,0,0.6,0.1,0.8s0.2,0.4,0.4,0.6V53H111
		c-0.2-0.2-0.3-0.4-0.3-0.7s-0.1-0.6-0.1-0.9v-0.9c0-0.5-0.2-1-0.5-1.3c-0.3-0.3-0.7-0.5-1.3-0.5H106.4z M106.4,47.7h2.1
		c0.8,0,1.3-0.1,1.6-0.4c0.3-0.3,0.5-0.7,0.5-1.3c0-0.6-0.2-1-0.5-1.3c-0.3-0.3-0.8-0.5-1.5-0.5h-2.2V47.7z"/>
	<path fill="#231F20" d="M117.5,46.8l-0.7,0c-0.4,0-0.7,0.1-0.9,0.3c-0.2,0.2-0.4,0.4-0.6,0.7V53H114v-7.3h1.2l0.1,1.1
		c0.2-0.4,0.5-0.7,0.8-0.9s0.7-0.3,1.1-0.3c0.1,0,0.2,0,0.3,0c0.1,0,0.2,0,0.2,0.1L117.5,46.8z"/>
</g>
<g enable-background="new    ">
	<path fill="#FFFFFF" d="M156.1,69.7c-0.2-0.8-0.3-1.6-0.4-2.2c-0.1-0.6-0.1-1.3-0.2-1.9c-0.9,1.3-2.1,2.4-3.6,3.3
		c-1.5,0.9-3.1,1.3-4.8,1.3c-2.8,0-5-0.7-6.5-2.2c-1.5-1.5-2.2-3.5-2.2-6c0-2.6,1.1-4.6,3.2-6.1c2.1-1.5,5-2.2,8.6-2.2h5.4V51
		c0-1.6-0.5-2.9-1.5-3.8c-1-0.9-2.4-1.4-4.1-1.4c-1.6,0-2.9,0.4-3.9,1.2c-1,0.8-1.5,1.8-1.5,2.9h-4.7l-0.1-0.2
		c-0.1-2,0.8-3.8,2.8-5.5c2-1.6,4.5-2.5,7.7-2.5c3.1,0,5.6,0.8,7.5,2.4c1.9,1.6,2.8,3.8,2.8,6.8v13.2c0,1,0.1,1.9,0.2,2.8
		c0.1,0.9,0.3,1.8,0.6,2.7H156.1z M147.8,66.1c1.8,0,3.4-0.5,4.9-1.4c1.4-0.9,2.4-2,2.8-3.2v-4.4h-5.6c-2,0-3.6,0.5-4.8,1.5
		c-1.2,1-1.8,2.2-1.8,3.6c0,1.2,0.4,2.2,1.1,2.9C145.2,65.7,146.3,66.1,147.8,66.1z"/>
</g>
<g enable-background="new    ">
	<path fill="#231F20" d="M68.8,67.4h-3.5l-0.7,2.1h-2l3.4-9.9h2l3.4,9.9h-2L68.8,67.4z M65.8,65.9h2.5L67.1,62h0L65.8,65.9z"/>
	<path fill="#231F20" d="M76.5,69.6c-0.1-0.2-0.1-0.3-0.2-0.5c-0.1-0.2-0.1-0.4-0.1-0.6c-0.2,0.4-0.5,0.7-0.8,0.9
		c-0.3,0.2-0.7,0.4-1.2,0.4c-0.8,0-1.4-0.2-1.8-0.6c-0.4-0.4-0.6-0.9-0.6-1.6c0-0.7,0.3-1.3,0.8-1.7c0.6-0.4,1.4-0.6,2.4-0.6h1.1
		v-0.6c0-0.4-0.1-0.6-0.3-0.8s-0.5-0.3-0.8-0.3c-0.3,0-0.6,0.1-0.7,0.2s-0.3,0.4-0.3,0.6l-1.9,0l0,0c0-0.6,0.2-1.2,0.8-1.6
		c0.6-0.5,1.3-0.7,2.2-0.7c0.9,0,1.6,0.2,2.1,0.7c0.5,0.4,0.8,1.1,0.8,1.9v3c0,0.3,0,0.7,0.1,1c0.1,0.3,0.1,0.6,0.2,0.9H76.5z
		 M74.7,68.2c0.3,0,0.7-0.1,0.9-0.3c0.3-0.2,0.5-0.4,0.6-0.6v-1h-1.1c-0.4,0-0.7,0.1-1,0.3s-0.3,0.5-0.3,0.8c0,0.2,0.1,0.4,0.2,0.6
		S74.4,68.2,74.7,68.2z"/>
	<path fill="#231F20" d="M91.3,65.5c0,0.6-0.1,1.2-0.3,1.7c-0.2,0.5-0.5,1-0.8,1.3l1.6,1.6l-1.3,1.1l-1.8-1.7
		c-0.2,0.1-0.5,0.2-0.8,0.2c-0.3,0-0.5,0.1-0.8,0.1c-1.2,0-2.2-0.4-3-1.2c-0.8-0.8-1.1-1.8-1.1-3v-1.8c0-1.2,0.4-2.2,1.1-3
		c0.8-0.8,1.7-1.2,3-1.2c1.2,0,2.2,0.4,3,1.2c0.8,0.8,1.2,1.8,1.2,3V65.5z M89.3,63.7c0-0.8-0.2-1.4-0.6-1.9
		c-0.4-0.5-0.9-0.7-1.6-0.7c-0.7,0-1.2,0.2-1.6,0.7C85.2,62.3,85,63,85,63.7v1.8c0,0.8,0.2,1.4,0.6,1.9c0.4,0.5,0.9,0.7,1.6,0.7
		c0.7,0,1.2-0.2,1.6-0.7c0.4-0.5,0.6-1.1,0.6-1.9V63.7z"/>
	<path fill="#231F20" d="M92.6,66c0-1.2,0.2-2.1,0.8-2.8c0.5-0.7,1.2-1.1,2.1-1.1c0.4,0,0.8,0.1,1.1,0.3c0.3,0.2,0.6,0.4,0.8,0.8
		l0.2-0.9h1.7v10.2h-2v-3.5c-0.2,0.3-0.5,0.5-0.8,0.6s-0.6,0.2-1,0.2c-0.9,0-1.6-0.3-2.1-1c-0.5-0.7-0.8-1.5-0.8-2.6V66z M94.6,66.1
		c0,0.6,0.1,1.2,0.3,1.5c0.2,0.4,0.6,0.6,1.1,0.6c0.3,0,0.5-0.1,0.7-0.2c0.2-0.1,0.4-0.3,0.5-0.5v-3.3c-0.1-0.2-0.3-0.4-0.5-0.5
		s-0.5-0.2-0.7-0.2c-0.5,0-0.8,0.2-1.1,0.7s-0.3,1-0.3,1.7V66.1z"/>
	<path fill="#231F20" d="M106.3,65.6v4h-2v-9.9h3.7c1.1,0,2,0.3,2.6,0.8c0.6,0.5,1,1.2,1,2.1c0,0.5-0.1,1-0.4,1.3s-0.7,0.7-1.2,0.9
		c0.6,0.2,1,0.5,1.3,0.9c0.3,0.4,0.4,0.9,0.4,1.5v0.7c0,0.3,0,0.6,0.1,0.9s0.2,0.5,0.4,0.7v0.1h-2c-0.2-0.1-0.3-0.4-0.4-0.7
		c-0.1-0.3-0.1-0.7-0.1-1v-0.7c0-0.5-0.1-0.9-0.4-1.2c-0.3-0.3-0.6-0.4-1.1-0.4H106.3z M106.3,64.1h1.7c0.6,0,1-0.1,1.2-0.4
		s0.4-0.6,0.4-1c0-0.5-0.1-0.8-0.4-1.1s-0.7-0.4-1.2-0.4h-1.7V64.1z"/>
	<path fill="#231F20" d="M117.3,63.9l-0.7,0c-0.3,0-0.5,0.1-0.7,0.2c-0.2,0.1-0.3,0.3-0.4,0.5v5h-2v-7.3h1.8l0.1,1.1
		c0.2-0.4,0.4-0.7,0.7-0.9s0.6-0.3,0.9-0.3c0.1,0,0.2,0,0.3,0c0.1,0,0.2,0,0.3,0.1L117.3,63.9z"/>
</g>
<g enable-background="new    ">
	<path fill="#9F392A" d="M85.2,86.7v4.6h-1.5V79.8H88c1.2,0,2.2,0.3,2.8,0.9c0.7,0.6,1,1.5,1,2.5c0,1-0.3,1.9-1,2.5
		c-0.7,0.6-1.6,0.9-2.8,0.9H85.2z M85.2,85.5H88c0.8,0,1.4-0.2,1.7-0.6c0.4-0.4,0.6-0.9,0.6-1.6s-0.2-1.2-0.6-1.6S88.8,81,88,81
		h-2.8V85.5z"/>
	<path fill="#9F392A" d="M95.2,83.9c0.3-0.4,0.7-0.7,1.1-1c0.4-0.2,0.9-0.3,1.4-0.3c0.9,0,1.6,0.3,2.1,0.8c0.5,0.5,0.8,1.4,0.8,2.5
		v5.3H99v-5.3c0-0.7-0.2-1.2-0.5-1.6c-0.3-0.3-0.7-0.5-1.3-0.5c-0.4,0-0.8,0.1-1.2,0.3c-0.3,0.2-0.6,0.5-0.9,0.8v6.3h-1.5V79h1.5
		V83.9z"/>
	<path fill="#9F392A" d="M106.8,84.1l-0.8,0c-0.4,0-0.8,0.1-1,0.3c-0.3,0.2-0.5,0.5-0.6,0.8v6.1h-1.5v-8.5h1.4l0.1,1.2
		c0.2-0.4,0.5-0.8,0.9-1c0.4-0.2,0.8-0.4,1.2-0.4c0.1,0,0.2,0,0.3,0c0.1,0,0.2,0,0.3,0.1L106.8,84.1z"/>
	<path fill="#9F392A" d="M113.5,91.3c-0.1-0.3-0.1-0.5-0.1-0.7s0-0.4-0.1-0.6c-0.3,0.4-0.7,0.7-1.1,1c-0.5,0.3-1,0.4-1.5,0.4
		c-0.9,0-1.6-0.2-2-0.7c-0.5-0.5-0.7-1.1-0.7-1.9c0-0.8,0.3-1.4,1-1.9s1.5-0.7,2.7-0.7h1.7v-0.8c0-0.5-0.2-0.9-0.5-1.2
		s-0.7-0.4-1.3-0.4c-0.5,0-0.9,0.1-1.2,0.4s-0.5,0.6-0.5,0.9h-1.5l0,0c0-0.6,0.3-1.2,0.9-1.7c0.6-0.5,1.4-0.8,2.4-0.8
		c1,0,1.7,0.2,2.3,0.7c0.6,0.5,0.9,1.2,0.9,2.1v4.1c0,0.3,0,0.6,0,0.9c0,0.3,0.1,0.6,0.2,0.8H113.5z M110.9,90.1
		c0.6,0,1.1-0.1,1.5-0.4s0.7-0.6,0.9-1v-1.4h-1.7c-0.6,0-1.1,0.2-1.5,0.5c-0.4,0.3-0.6,0.7-0.6,1.1c0,0.4,0.1,0.7,0.4,0.9
		C110.1,90,110.5,90.1,110.9,90.1z"/>
	<path fill="#9F392A" d="M120,85.9l1.8-3.1h1.8l-2.8,4.2l2.8,4.3h-1.8L120,88l-1.9,3.2h-1.8l2.8-4.3l-2.8-4.2h1.8L120,85.9z"/>
	<path fill="#9F392A" d="M128.6,91.4c-1.2,0-2.1-0.4-2.8-1.2c-0.7-0.8-1-1.8-1-3.1v-0.3c0-1.2,0.4-2.2,1.1-3s1.6-1.2,2.6-1.2
		c1.1,0,2,0.3,2.6,1c0.6,0.7,0.9,1.6,0.9,2.8v1h-5.5l0,0c0,0.8,0.2,1.5,0.6,2s1,0.8,1.7,0.8c0.5,0,1-0.1,1.4-0.2
		c0.4-0.1,0.7-0.4,1-0.6l0.6,1c-0.3,0.3-0.7,0.5-1.2,0.8S129.3,91.4,128.6,91.4z M128.4,83.8c-0.5,0-1,0.2-1.3,0.7
		c-0.4,0.4-0.6,1-0.7,1.6l0,0h3.9v-0.2c0-0.6-0.2-1.1-0.5-1.5C129.5,84,129,83.8,128.4,83.8z"/>
	<path fill="#9F392A" d="M136.1,87.3h-1v3.9h-1.5V79h1.5v7.1h1l2.3-3.3h1.9l-2.9,3.9l3.3,4.6h-1.8L136.1,87.3z"/>
</g>
<g enable-background="new    ">
	<path fill="#231F20" d="M87.4,107.7c0-0.2-0.1-0.3-0.1-0.4c0-0.1,0-0.2,0-0.4c-0.2,0.2-0.4,0.4-0.7,0.6c-0.3,0.2-0.6,0.2-0.9,0.2
		c-0.5,0-0.9-0.1-1.2-0.4s-0.4-0.6-0.4-1.1c0-0.5,0.2-0.9,0.6-1.1s0.9-0.4,1.6-0.4h1v-0.5c0-0.3-0.1-0.5-0.3-0.7
		c-0.2-0.2-0.4-0.3-0.8-0.3c-0.3,0-0.5,0.1-0.7,0.2c-0.2,0.2-0.3,0.3-0.3,0.5h-0.9l0,0c0-0.4,0.2-0.7,0.5-1c0.4-0.3,0.8-0.5,1.4-0.5
		c0.6,0,1,0.1,1.4,0.4s0.5,0.7,0.5,1.3v2.4c0,0.2,0,0.4,0,0.5c0,0.2,0.1,0.3,0.1,0.5H87.4z M85.9,107c0.3,0,0.6-0.1,0.9-0.3
		c0.3-0.2,0.4-0.4,0.5-0.6v-0.8h-1c-0.4,0-0.7,0.1-0.9,0.3c-0.2,0.2-0.3,0.4-0.3,0.7c0,0.2,0.1,0.4,0.2,0.5
		C85.4,106.9,85.6,107,85.9,107z"/>
	<path fill="#231F20" d="M94.4,105.3c0,0.7-0.2,1.3-0.5,1.8c-0.4,0.4-0.8,0.7-1.4,0.7c-0.3,0-0.6-0.1-0.9-0.2
		c-0.2-0.1-0.4-0.3-0.6-0.6l-0.1,0.7h-0.8v-7.3H91v2.8c0.2-0.2,0.4-0.4,0.6-0.5c0.2-0.1,0.5-0.2,0.8-0.2c0.6,0,1.1,0.2,1.5,0.7
		S94.4,104.4,94.4,105.3L94.4,105.3z M93.5,105.2c0-0.6-0.1-1.1-0.3-1.4c-0.2-0.4-0.5-0.5-1-0.5c-0.3,0-0.5,0.1-0.7,0.2
		c-0.2,0.1-0.3,0.3-0.5,0.6v2.2c0.1,0.2,0.3,0.4,0.5,0.6c0.2,0.1,0.4,0.2,0.7,0.2c0.4,0,0.8-0.2,1-0.5
		C93.4,106.3,93.5,105.8,93.5,105.2L93.5,105.2z"/>
</g>
<g enable-background="new    ">
	<path fill="#231F20" d="M98.9,107c0.3,0,0.6-0.1,0.8-0.3s0.3-0.4,0.3-0.7h0.8l0,0c0,0.4-0.2,0.8-0.6,1.2c-0.4,0.3-0.9,0.5-1.4,0.5
		c-0.7,0-1.3-0.2-1.7-0.7s-0.6-1.1-0.6-1.8v-0.2c0-0.7,0.2-1.3,0.6-1.8c0.4-0.5,1-0.7,1.7-0.7c0.6,0,1.1,0.2,1.4,0.5
		s0.6,0.8,0.5,1.3l0,0h-0.8c0-0.3-0.1-0.6-0.3-0.8c-0.2-0.2-0.5-0.3-0.8-0.3c-0.5,0-0.8,0.2-1,0.5s-0.3,0.8-0.3,1.3v0.2
		c0,0.5,0.1,0.9,0.3,1.3C98.1,106.9,98.4,107,98.9,107z"/>
</g>
<g enable-background="new    ">
	<path fill="#231F20" d="M102.7,105.2c0-0.8,0.2-1.5,0.5-2s0.8-0.7,1.5-0.7c0.3,0,0.6,0.1,0.8,0.2c0.2,0.1,0.4,0.3,0.6,0.5v-2.8h0.9
		v7.3h-0.8l-0.1-0.6c-0.2,0.2-0.4,0.4-0.6,0.5s-0.5,0.2-0.8,0.2c-0.6,0-1.1-0.2-1.4-0.7C102.9,106.7,102.7,106.1,102.7,105.2
		L102.7,105.2z M103.6,105.3c0,0.5,0.1,0.9,0.3,1.2c0.2,0.3,0.5,0.5,1,0.5c0.3,0,0.5-0.1,0.7-0.2c0.2-0.1,0.3-0.3,0.5-0.5V104
		c-0.1-0.2-0.3-0.4-0.5-0.5s-0.4-0.2-0.7-0.2c-0.4,0-0.8,0.2-1,0.5C103.7,104.2,103.6,104.7,103.6,105.3L103.6,105.3z"/>
	<path fill="#231F20" d="M111,107.8c-0.7,0-1.3-0.2-1.7-0.7s-0.6-1.1-0.6-1.8V105c0-0.7,0.2-1.3,0.6-1.8c0.4-0.5,0.9-0.7,1.5-0.7
		c0.7,0,1.2,0.2,1.5,0.6s0.5,1,0.5,1.6v0.6h-3.3l0,0c0,0.5,0.1,0.9,0.4,1.2c0.2,0.3,0.6,0.5,1,0.5c0.3,0,0.6,0,0.8-0.1
		s0.4-0.2,0.6-0.4l0.4,0.6c-0.2,0.2-0.4,0.3-0.7,0.4C111.7,107.7,111.4,107.8,111,107.8z M110.8,103.3c-0.3,0-0.6,0.1-0.8,0.4
		s-0.4,0.6-0.4,1l0,0h2.3v-0.1c0-0.4-0.1-0.7-0.3-0.9C111.5,103.4,111.2,103.3,110.8,103.3z"/>
</g>
<g enable-background="new    ">
	<path fill="#231F20" d="M115.7,107.7v-4.4h-0.8v-0.7h0.8V102c0-0.5,0.1-1,0.4-1.2c0.3-0.3,0.7-0.4,1.2-0.4c0.1,0,0.2,0,0.3,0
		c0.1,0,0.2,0,0.4,0.1l-0.1,0.7c-0.1,0-0.1,0-0.2,0c-0.1,0-0.2,0-0.2,0c-0.3,0-0.5,0.1-0.6,0.2s-0.2,0.4-0.2,0.7v0.6h1.1v0.7h-1.1
		v4.4H115.7z"/>
</g>
<g enable-background="new    ">
	<path fill="#231F20" d="M119.3,105.2c0-0.8,0.2-1.5,0.5-2c0.4-0.5,0.8-0.7,1.5-0.7c0.3,0,0.6,0.1,0.8,0.2c0.2,0.1,0.4,0.3,0.6,0.6
		l0.1-0.7h0.7v5.1c0,0.6-0.2,1.1-0.6,1.5c-0.4,0.3-0.9,0.5-1.6,0.5c-0.2,0-0.5,0-0.8-0.1c-0.3-0.1-0.5-0.2-0.7-0.3l0.2-0.7
		c0.2,0.1,0.4,0.2,0.6,0.2c0.2,0.1,0.5,0.1,0.7,0.1c0.4,0,0.8-0.1,1-0.3c0.2-0.2,0.3-0.5,0.3-0.9v-0.6c-0.2,0.2-0.4,0.4-0.6,0.5
		s-0.5,0.2-0.8,0.2c-0.6,0-1.1-0.2-1.5-0.7C119.5,106.7,119.3,106.1,119.3,105.2L119.3,105.2z M120.3,105.3c0,0.5,0.1,0.9,0.3,1.2
		s0.5,0.5,1,0.5c0.3,0,0.5-0.1,0.7-0.2s0.3-0.3,0.5-0.5V104c-0.1-0.2-0.3-0.4-0.5-0.5s-0.4-0.2-0.7-0.2c-0.4,0-0.8,0.2-1,0.6
		C120.4,104.2,120.3,104.7,120.3,105.3L120.3,105.3z"/>
	<path fill="#231F20" d="M126.4,103.3c0.2-0.2,0.4-0.4,0.6-0.6s0.5-0.2,0.8-0.2c0.5,0,1,0.2,1.3,0.5c0.3,0.3,0.5,0.8,0.5,1.5v3.2
		h-0.9v-3.2c0-0.4-0.1-0.7-0.3-0.9s-0.4-0.3-0.8-0.3c-0.3,0-0.5,0.1-0.7,0.2s-0.4,0.3-0.5,0.5v3.7h-0.9v-7.3h0.9V103.3z"/>
	<path fill="#231F20" d="M132.5,101.3h-0.9v-0.9h0.9V101.3z M132.5,107.7h-0.9v-5.1h0.9V107.7z"/>
	<path fill="#231F20" d="M135.5,102.6v5.5c0,0.5-0.1,0.9-0.4,1.2c-0.3,0.3-0.6,0.4-1.1,0.4c-0.1,0-0.2,0-0.3,0s-0.2,0-0.3-0.1
		l0.1-0.7c0,0,0.1,0,0.2,0c0.1,0,0.1,0,0.2,0c0.2,0,0.4-0.1,0.5-0.2s0.2-0.4,0.2-0.7v-5.5H135.5z M135.4,101.3h-0.9v-0.9h0.9V101.3z
		"/>
</g>
<g enable-background="new    ">
	<path fill="#231F20" d="M140.6,105.3H140v2.3h-0.9v-7.3h0.9v4.2h0.6l1.4-2h1.1l-1.7,2.3l2,2.8h-1.1L140.6,105.3z"/>
</g>
<g enable-background="new    ">
	<path fill="#231F20" d="M145.9,107.7H145v-7.3h0.9V107.7z"/>
</g>
<g enable-background="new    ">
	<path fill="#231F20" d="M149.1,102.6l0.1,0.7c0.2-0.2,0.4-0.4,0.6-0.6c0.3-0.1,0.5-0.2,0.9-0.2c0.3,0,0.6,0.1,0.9,0.2
		c0.2,0.2,0.4,0.4,0.5,0.7c0.2-0.3,0.4-0.5,0.6-0.7c0.3-0.2,0.6-0.3,0.9-0.3c0.5,0,0.9,0.2,1.2,0.5s0.4,0.9,0.4,1.6v3h-0.9v-3
		c0-0.5-0.1-0.9-0.3-1.1s-0.4-0.3-0.8-0.3c-0.3,0-0.6,0.1-0.8,0.3s-0.3,0.5-0.3,0.8v0v3.2h-0.9v-3c0-0.5-0.1-0.8-0.3-1
		s-0.4-0.3-0.8-0.3c-0.3,0-0.5,0.1-0.7,0.2s-0.3,0.3-0.4,0.5v3.7h-0.9v-5.1H149.1z"/>
</g>
<g enable-background="new    ">
	<path fill="#231F20" d="M85.1,114.1l0.1,0.8c0.2-0.3,0.4-0.5,0.6-0.6c0.3-0.1,0.5-0.2,0.9-0.2c0.5,0,1,0.2,1.3,0.5s0.4,0.8,0.4,1.5
		v3.2h-0.9V116c0-0.4-0.1-0.8-0.3-0.9s-0.4-0.3-0.8-0.3c-0.3,0-0.5,0.1-0.7,0.2c-0.2,0.1-0.4,0.3-0.5,0.5v3.7h-0.9v-5.1H85.1z"/>
	<path fill="#231F20" d="M90,116.6c0-0.7,0.2-1.4,0.6-1.8c0.4-0.5,1-0.7,1.6-0.7c0.7,0,1.3,0.2,1.7,0.7s0.6,1.1,0.6,1.8v0.1
		c0,0.8-0.2,1.4-0.6,1.8c-0.4,0.5-1,0.7-1.7,0.7s-1.2-0.2-1.7-0.7c-0.4-0.5-0.6-1.1-0.6-1.8V116.6z M90.9,116.7c0,0.5,0.1,1,0.3,1.3
		c0.2,0.3,0.6,0.5,1,0.5c0.4,0,0.8-0.2,1-0.5c0.2-0.3,0.3-0.8,0.3-1.3v-0.1c0-0.5-0.1-1-0.3-1.3s-0.6-0.5-1-0.5
		c-0.4,0-0.8,0.2-1,0.5c-0.2,0.4-0.3,0.8-0.3,1.3V116.7z"/>
	<path fill="#231F20" d="M100.5,116.8c0,0.7-0.2,1.3-0.5,1.8c-0.3,0.4-0.8,0.7-1.4,0.7c-0.3,0-0.6-0.1-0.8-0.2s-0.4-0.3-0.6-0.5v2.5
		h-0.9v-7h0.7l0.1,0.7c0.2-0.2,0.4-0.4,0.6-0.6s0.5-0.2,0.9-0.2c0.6,0,1.1,0.2,1.5,0.7C100.3,115.2,100.5,115.9,100.5,116.8
		L100.5,116.8z M99.6,116.7c0-0.6-0.1-1-0.3-1.4s-0.6-0.6-1-0.6c-0.3,0-0.5,0.1-0.7,0.2c-0.2,0.1-0.3,0.3-0.5,0.5v2.4
		c0.1,0.2,0.3,0.4,0.5,0.5c0.2,0.1,0.4,0.2,0.7,0.2c0.4,0,0.8-0.2,1-0.5S99.6,117.3,99.6,116.7L99.6,116.7z"/>
	<path fill="#231F20" d="M102,116.7c0-0.8,0.2-1.5,0.5-2s0.8-0.7,1.5-0.7c0.3,0,0.6,0.1,0.8,0.2c0.2,0.1,0.4,0.3,0.6,0.5l0.1-0.6
		h0.7v7h-0.9v-2.4c-0.2,0.2-0.4,0.3-0.6,0.4c-0.2,0.1-0.5,0.1-0.8,0.1c-0.6,0-1.1-0.2-1.4-0.7C102.1,118.1,102,117.5,102,116.7
		L102,116.7z M102.9,116.8c0,0.5,0.1,0.9,0.3,1.2c0.2,0.3,0.5,0.5,1,0.5c0.3,0,0.5-0.1,0.6-0.2c0.2-0.1,0.3-0.3,0.5-0.5v-2.5
		c-0.1-0.2-0.3-0.3-0.5-0.4c-0.2-0.1-0.4-0.2-0.6-0.2c-0.4,0-0.8,0.2-1,0.6C103,115.7,102.9,116.1,102.9,116.8L102.9,116.8z"/>
	<path fill="#231F20" d="M110.5,114.9l-0.5,0c-0.2,0-0.4,0.1-0.6,0.2s-0.3,0.3-0.4,0.5v3.6h-0.9v-5.1h0.8l0.1,0.7
		c0.1-0.3,0.3-0.5,0.5-0.6c0.2-0.1,0.5-0.2,0.7-0.2c0.1,0,0.1,0,0.2,0s0.1,0,0.2,0L110.5,114.9z"/>
</g>
<g enable-background="new    ">
	<path fill="#231F20" d="M117,117.8c0-0.2-0.1-0.4-0.2-0.5c-0.2-0.1-0.4-0.2-0.9-0.3c-0.6-0.1-1.1-0.3-1.4-0.5
		c-0.3-0.2-0.5-0.5-0.5-0.9c0-0.4,0.2-0.8,0.5-1s0.8-0.4,1.4-0.4c0.6,0,1.1,0.2,1.4,0.5s0.5,0.7,0.5,1.1l0,0h-0.9
		c0-0.2-0.1-0.4-0.3-0.6c-0.2-0.2-0.4-0.3-0.7-0.3c-0.3,0-0.6,0.1-0.7,0.2c-0.2,0.1-0.2,0.3-0.2,0.5c0,0.2,0.1,0.4,0.2,0.5
		s0.4,0.2,0.9,0.3c0.6,0.1,1.1,0.3,1.4,0.6c0.3,0.2,0.5,0.5,0.5,0.9c0,0.4-0.2,0.8-0.5,1.1s-0.8,0.4-1.4,0.4c-0.6,0-1.2-0.2-1.5-0.5
		c-0.4-0.3-0.5-0.7-0.5-1.1l0,0h0.9c0,0.3,0.1,0.6,0.4,0.7c0.2,0.1,0.5,0.2,0.8,0.2c0.3,0,0.6-0.1,0.8-0.2
		C116.9,118.2,117,118,117,117.8z"/>
	<path fill="#231F20" d="M120.8,112.9v1.2h1v0.7h-1v3.1c0,0.2,0,0.4,0.1,0.5c0.1,0.1,0.2,0.1,0.4,0.1c0.1,0,0.1,0,0.2,0
		c0.1,0,0.1,0,0.2,0l0.1,0.6c-0.1,0.1-0.2,0.1-0.3,0.1c-0.1,0-0.3,0.1-0.4,0.1c-0.4,0-0.7-0.1-0.9-0.3c-0.2-0.2-0.3-0.6-0.3-1.1
		v-3.1H119v-0.7h0.8v-1.2H120.8z"/>
</g>
<g enable-background="new    ">
	<path fill="#231F20" d="M127.5,118.4c-0.2,0.3-0.4,0.5-0.6,0.6c-0.2,0.1-0.5,0.2-0.9,0.2c-0.6,0-1-0.2-1.3-0.5s-0.5-0.9-0.5-1.6v-3
		h0.9v3c0,0.5,0.1,0.9,0.2,1.1c0.2,0.2,0.4,0.3,0.7,0.3c0.3,0,0.6-0.1,0.8-0.2c0.2-0.1,0.4-0.3,0.5-0.6v-3.6h0.9v5.1h-0.8
		L127.5,118.4z"/>
</g>
<g enable-background="new    ">
	<path fill="#231F20" d="M132.3,117.7l0.1,0.4h0l0.1-0.4l1.2-3.6h0.9l-1.9,5.1h-0.7l-1.9-5.1h0.9L132.3,117.7z"/>
</g>
<g enable-background="new    ">
	<path fill="#231F20" d="M137.7,117.3l0.1,0.6h0l0.1-0.6l1-3.2h0.7l1,3.2l0.1,0.7h0l0.1-0.7l0.8-3.2h0.9l-1.5,5.1h-0.7l-1-3.1
		l-0.2-0.9l0,0l-0.2,0.9l-1,3.1h-0.7l-1.5-5.1h0.9L137.7,117.3z"/>
</g>
<g enable-background="new    ">
	<path fill="#231F20" d="M146.3,116l1.1-1.9h1.1l-1.6,2.5l1.7,2.6h-1.1l-1.1-1.9l-1.1,1.9h-1.1l1.7-2.6l-1.6-2.5h1.1L146.3,116z"/>
	<path fill="#231F20" d="M151.5,117.3l0.2,0.6h0l1.2-3.8h1l-2.1,5.8c-0.1,0.3-0.3,0.6-0.5,0.9s-0.6,0.4-1,0.4c-0.1,0-0.2,0-0.3,0
		c-0.1,0-0.2,0-0.3,0l0.1-0.7c0,0,0,0,0.2,0c0.1,0,0.2,0,0.2,0c0.2,0,0.4-0.1,0.5-0.3c0.1-0.2,0.2-0.4,0.3-0.6l0.2-0.5l-1.9-4.9h1
		L151.5,117.3z"/>
</g>
<g enable-background="new    ">
	<path fill="#231F20" d="M157,118.4h2.9v0.7h-4v-0.6l2.7-3.7h-2.7v-0.7h3.8v0.6L157,118.4z"/>
</g>
<g enable-background="new    ">
	<path fill="#FFFFFF" d="M99.2,131.4c0,0.7-0.2,1.3-0.5,1.7s-0.8,0.6-1.3,0.6s-1-0.2-1.3-0.6c-0.3-0.4-0.5-0.9-0.5-1.7v-1.3
		c0-0.7,0.2-1.3,0.5-1.7c0.3-0.4,0.8-0.6,1.3-0.6c0.6,0,1,0.2,1.3,0.6c0.3,0.4,0.5,0.9,0.5,1.7V131.4z M98.4,129.9
		c0-0.5-0.1-0.9-0.3-1.1c-0.2-0.2-0.4-0.4-0.8-0.4s-0.6,0.1-0.8,0.4c-0.2,0.2-0.3,0.6-0.3,1.1v1.7c0,0.5,0.1,0.9,0.3,1.1
		c0.2,0.2,0.4,0.4,0.8,0.4c0.3,0,0.6-0.1,0.8-0.4c0.2-0.2,0.3-0.6,0.3-1.1V129.9z"/>
	<path fill="#FFFFFF" d="M103.3,133.6h-0.8v-4.9l-1.2,0v-0.6l1.9-0.2V133.6z"/>
	<path fill="#FFFFFF" d="M110.4,133.6h-3.7v-0.5l1.9-2.1c0.3-0.4,0.6-0.7,0.7-0.9s0.2-0.4,0.2-0.7c0-0.3-0.1-0.5-0.2-0.7
		c-0.2-0.2-0.4-0.3-0.7-0.3c-0.4,0-0.7,0.1-0.9,0.3c-0.2,0.2-0.3,0.5-0.3,0.8h-0.7l0,0c0-0.5,0.1-0.9,0.5-1.2s0.8-0.5,1.4-0.5
		c0.5,0,0.9,0.1,1.2,0.4s0.5,0.7,0.5,1.1c0,0.3-0.1,0.6-0.3,0.9c-0.2,0.3-0.4,0.6-0.8,1l-1.5,1.6l0,0h2.7V133.6z"/>
	<path fill="#FFFFFF" d="M113.3,130.4h0.7c0.3,0,0.6-0.1,0.7-0.3c0.1-0.2,0.2-0.4,0.2-0.7c0-0.3-0.1-0.6-0.2-0.7
		c-0.2-0.2-0.4-0.3-0.7-0.3c-0.3,0-0.5,0.1-0.7,0.3c-0.2,0.2-0.3,0.4-0.3,0.7h-0.7l0,0c0-0.4,0.1-0.8,0.5-1.1
		c0.3-0.3,0.7-0.4,1.3-0.4c0.5,0,0.9,0.1,1.3,0.4c0.3,0.3,0.5,0.7,0.5,1.2c0,0.2-0.1,0.5-0.2,0.7c-0.1,0.2-0.4,0.4-0.6,0.5
		c0.3,0.1,0.6,0.3,0.7,0.5c0.1,0.2,0.2,0.5,0.2,0.8c0,0.5-0.2,0.9-0.5,1.2c-0.3,0.3-0.8,0.4-1.3,0.4c-0.5,0-0.9-0.1-1.3-0.4
		c-0.3-0.3-0.5-0.7-0.5-1.1l0,0h0.7c0,0.3,0.1,0.5,0.3,0.7c0.2,0.2,0.4,0.3,0.8,0.3c0.3,0,0.6-0.1,0.8-0.3c0.2-0.2,0.3-0.4,0.3-0.8
		c0-0.3-0.1-0.6-0.2-0.8c-0.2-0.2-0.4-0.2-0.8-0.2h-0.7V130.4z"/>
	<path fill="#FFFFFF" d="M120.9,131.7h0.8v0.6h-0.8v1.3h-0.8v-1.3h-2.5v-0.4l2.5-3.9h0.8V131.7z M118.4,131.7h1.7V129l0,0l-0.1,0.2
		L118.4,131.7z"/>
	<path fill="#FFFFFF" d="M123.6,131l0.3-3.1h2.8v0.7h-2.2l-0.2,1.6c0.1-0.1,0.3-0.2,0.4-0.2c0.1-0.1,0.3-0.1,0.5-0.1
		c0.5,0,0.9,0.2,1.2,0.5c0.3,0.3,0.4,0.8,0.4,1.4c0,0.6-0.2,1-0.5,1.4c-0.3,0.3-0.7,0.5-1.3,0.5c-0.5,0-0.9-0.1-1.2-0.4
		c-0.3-0.3-0.5-0.6-0.5-1.2l0,0h0.7c0,0.3,0.1,0.5,0.3,0.7s0.4,0.3,0.7,0.3c0.3,0,0.6-0.1,0.8-0.3s0.3-0.5,0.3-0.9
		c0-0.4-0.1-0.7-0.3-0.9c-0.2-0.2-0.4-0.3-0.8-0.3c-0.3,0-0.5,0-0.7,0.1c-0.1,0.1-0.2,0.2-0.3,0.4L123.6,131z"/>
	<path fill="#FFFFFF" d="M131,127.8c0.2,0,0.4,0,0.6,0.1s0.3,0.1,0.5,0.2l-0.2,0.6c-0.1-0.1-0.3-0.1-0.4-0.2c-0.1,0-0.3-0.1-0.5-0.1
		c-0.4,0-0.7,0.2-1,0.5c-0.2,0.3-0.4,0.7-0.4,1.3v0.1c0.2-0.1,0.4-0.3,0.6-0.3c0.2-0.1,0.4-0.1,0.7-0.1c0.5,0,0.9,0.2,1.2,0.5
		s0.5,0.8,0.5,1.3c0,0.6-0.2,1.1-0.5,1.4c-0.3,0.4-0.7,0.6-1.3,0.6c-0.6,0-1-0.2-1.4-0.6s-0.5-1-0.5-1.7v-1.1c0-0.7,0.2-1.3,0.6-1.8
		C129.9,128.1,130.5,127.8,131,127.8z M130.8,130.4c-0.3,0-0.5,0.1-0.7,0.2c-0.2,0.1-0.3,0.2-0.4,0.4v0.5c0,0.5,0.1,0.9,0.3,1.2
		c0.2,0.3,0.5,0.4,0.8,0.4c0.3,0,0.6-0.1,0.7-0.4c0.2-0.3,0.3-0.6,0.3-1c0-0.4-0.1-0.7-0.3-0.9C131.4,130.5,131.1,130.4,130.8,130.4
		z"/>
	<path fill="#FFFFFF" d="M138.1,128.5c-0.7,0.8-1.1,1.5-1.4,2.2s-0.4,1.4-0.5,2.3l-0.1,0.6h-0.8l0.1-0.6c0.1-0.9,0.3-1.7,0.6-2.4
		c0.3-0.7,0.7-1.4,1.3-2.1h-3.1v-0.6h3.8V128.5z"/>
	<path fill="#FFFFFF" d="M143.4,129.4c0,0.3-0.1,0.6-0.2,0.8s-0.4,0.4-0.7,0.5c0.3,0.1,0.6,0.3,0.8,0.5c0.2,0.2,0.3,0.5,0.3,0.8
		c0,0.5-0.2,0.9-0.5,1.2c-0.3,0.3-0.8,0.4-1.3,0.4c-0.6,0-1-0.1-1.3-0.4c-0.3-0.3-0.5-0.7-0.5-1.2c0-0.3,0.1-0.6,0.3-0.8
		c0.2-0.2,0.5-0.4,0.8-0.5c-0.3-0.1-0.5-0.3-0.7-0.5c-0.2-0.2-0.2-0.5-0.2-0.8c0-0.5,0.2-0.9,0.5-1.2c0.3-0.3,0.7-0.4,1.2-0.4
		c0.5,0,0.9,0.1,1.2,0.4C143.3,128.5,143.4,128.9,143.4,129.4z M142.8,132c0-0.3-0.1-0.6-0.3-0.8s-0.5-0.3-0.8-0.3
		c-0.3,0-0.6,0.1-0.8,0.3s-0.3,0.5-0.3,0.8c0,0.3,0.1,0.6,0.3,0.8s0.5,0.3,0.8,0.3c0.3,0,0.6-0.1,0.8-0.3
		C142.7,132.6,142.8,132.3,142.8,132z M142.7,129.4c0-0.3-0.1-0.5-0.3-0.7c-0.2-0.2-0.4-0.3-0.7-0.3c-0.3,0-0.5,0.1-0.7,0.3
		c-0.2,0.2-0.3,0.4-0.3,0.7c0,0.3,0.1,0.5,0.3,0.7s0.4,0.3,0.7,0.3c0.3,0,0.5-0.1,0.7-0.3C142.6,129.9,142.7,129.7,142.7,129.4z"/>
</g>
<g enable-background="new    ">
	<path fill="#FFFFFF" d="M148.2,133.1c0.4,0,0.7-0.1,0.9-0.4c0.2-0.3,0.3-0.7,0.3-1.3v-0.3c-0.1,0.2-0.3,0.3-0.5,0.4
		s-0.4,0.1-0.6,0.1c-0.5,0-1-0.2-1.3-0.5c-0.3-0.3-0.5-0.8-0.5-1.4c0-0.6,0.2-1,0.5-1.4c0.3-0.4,0.8-0.5,1.2-0.5
		c0.6,0,1.1,0.2,1.4,0.6c0.3,0.4,0.5,0.9,0.5,1.6v1.4c0,0.7-0.2,1.3-0.6,1.7c-0.4,0.4-0.9,0.6-1.4,0.6c-0.2,0-0.4,0-0.6-0.1
		c-0.2,0-0.4-0.1-0.6-0.2l0.1-0.6c0.2,0.1,0.3,0.1,0.5,0.2C147.8,133,148,133.1,148.2,133.1z M148.3,131.1c0.3,0,0.5-0.1,0.7-0.2
		c0.2-0.1,0.3-0.3,0.4-0.5v-0.5c0-0.5-0.1-0.9-0.3-1.1s-0.5-0.4-0.8-0.4c-0.3,0-0.5,0.1-0.7,0.4c-0.2,0.2-0.3,0.6-0.3,1
		c0,0.4,0.1,0.7,0.3,0.9C147.8,131,148,131.1,148.3,131.1z"/>
</g>
</svg>
