<?xml version="1.0" encoding="utf-8"?>
<!-- Generator: Adobe Illustrator 16.0.0, SVG Export Plug-In . SVG Version: 6.00 Build 0)  -->
<!DOCTYPE svg PUBLIC "-//W3C//DTD SVG 1.1//EN" "http://www.w3.org/Graphics/SVG/1.1/DTD/svg11.dtd">
<svg version="1.1" id="Layer_1" xmlns="http://www.w3.org/2000/svg" xmlns:xlink="http://www.w3.org/1999/xlink" x="0px" y="0px" viewBox="0 0 57.667 57.333" enable-background="new 0 0 57.667 57.333" xml:space="preserve">
<g>
	<defs>
		<rect id="SVGID_1_" x="-650.999" y="-550.334" width="1224" height="792"/>
	</defs>
	<clipPath id="SVGID_2_">
		<use xlink:href="#SVGID_1_"  overflow="visible"/>
	</clipPath>
	<g clip-path="url(#SVGID_2_)">
		<text transform="matrix(1 0 0 1 388.3291 206.5107)"><tspan x="0" y="0" fill="#939598" font-family="'FranklinGothicFS-CdIt'" font-size="10" letter-spacing="1">U</tspan><tspan x="7.5" y="0" fill="#939598" font-family="'FranklinGothicFS-CdIt'" font-size="10" letter-spacing="1">nl</tspan><tspan x="17.41" y="0" fill="#939598" font-family="'FranklinGothicFS-CdIt'" font-size="10" letter-spacing="1">i</tspan><tspan x="20.77" y="0" fill="#939598" font-family="'FranklinGothicFS-CdIt'" font-size="10">k</tspan><tspan x="26.399" y="0" fill="#939598" font-family="'FranklinGothicFS-CdIt'" font-size="10" letter-spacing="1">el</tspan><tspan x="35.869" y="0" fill="#939598" font-family="'FranklinGothicFS-CdIt'" font-size="10">y</tspan><tspan x="41.569" y="0" fill="#939598" font-family="'FranklinGothicFS-CdIt'" font-size="10" letter-spacing="1"> </tspan><tspan x="44.689" y="0" fill="#939598" font-family="'FranklinGothicFS-CdIt'" font-size="10" letter-spacing="1">He</tspan><tspan x="58.319" y="0" fill="#939598" font-family="'FranklinGothicFS-CdIt'" font-size="10" letter-spacing="1">r</tspan><tspan x="62.799" y="0" fill="#939598" font-family="'FranklinGothicFS-CdIt'" font-size="10" letter-spacing="1">oe</tspan><tspan x="75.439" y="0" fill="#939598" font-family="'FranklinGothicFS-CdIt'" font-size="10">s R</tspan><tspan x="89.898" y="0" fill="#939598" font-family="'FranklinGothicFS-CdIt'" font-size="10" letter-spacing="1">e</tspan><tspan x="96.089" y="0" fill="#939598" font-family="'FranklinGothicFS-CdIt'" font-size="10" letter-spacing="1">-</tspan><tspan x="100.289" y="0" fill="#939598" font-family="'FranklinGothicFS-CdIt'" font-size="10" letter-spacing="1">b</tspan><tspan x="107.019" y="0" fill="#939598" font-family="'FranklinGothicFS-CdIt'" font-size="10" letter-spacing="1">r</tspan><tspan x="111.559" y="0" fill="#939598" font-family="'FranklinGothicFS-CdIt'" font-size="10">a</tspan><tspan x="117.378" y="0" fill="#939598" font-family="'FranklinGothicFS-CdIt'" font-size="10" letter-spacing="1">n</tspan><tspan x="123.979" y="0" fill="#939598" font-family="'FranklinGothicFS-CdIt'" font-size="10">d</tspan></text>
	</g>
	<g clip-path="url(#SVGID_2_)">
		<defs>
			<rect id="SVGID_3_" x="-650.999" y="-550.334" width="1224" height="792"/>
		</defs>
		<clipPath id="SVGID_4_">
			<use xlink:href="#SVGID_3_"  overflow="visible"/>
		</clipPath>
		<path clip-path="url(#SVGID_4_)" fill="#939598" d="M550.722,186.022c-5.012-1.892-10.32-2.677-15.771-2.677
			c-7.869,0-13.922,1.852-15.912,2.518l-0.166,0.055l-0.807,0.27l0.07,0.846l3.061,29.516l0.061,1.403l0.678,0.224l12.324,4.048
			l0.322,0.106l0.322-0.096l12.775-3.779l0.711-0.209l0.059-1.431l2.969-29.694l0.064-0.812L550.722,186.022z M519.097,186.927
			c1.338-0.554,2.793-0.816,2.793-0.816c-0.959,0.205-2.211,0.758-2.443,1.003c-0.234,0.245,0.262,5.868,0.262,5.868
			L519.097,186.927z M534.653,221.56l-3.25-1.003l3.25,0.722l3.391-0.722L534.653,221.56z M534.612,220.191l-11.307-3.472
			l-0.43-4.775l0.451,1.901l-0.027-0.138c0,0,0.857-0.385,2.354-0.914c-0.004-0.042-0.006-0.078-0.014-0.097
			c-0.334,0.091-0.471,0.134-0.811,0.192c-0.117-0.368-0.201-0.851-0.285-1.258c0.289-0.111,0.676-0.244,1.016-0.367
			c-0.006-0.036-0.025-0.675-0.012-0.762c-0.361-0.123-0.721-0.262-1.074-0.417c0.1-0.377,0.281-0.743,0.5-1.097
			c0.422,0.012,0.836,0.04,1.238,0.08c0.1-0.142,0.633-0.653,0.773-0.778c-0.213-0.236-0.4-0.478-0.574-0.734
			c0.387-0.28,0.836-0.518,1.309-0.732c0.346,0.16,0.678,0.335,0.984,0.516c0.199-0.083,1.068-0.318,1.289-0.37
			c0.008-0.279,0.047-0.545,0.107-0.822c0.557-0.093,1.133-0.13,1.705-0.132c0.164,0.253,0.303,0.516,0.418,0.782
			c0.234,0.012,1.164,0.11,1.391,0.157c0.229-0.222,0.484-0.445,0.758-0.649c0.543,0.133,1.072,0.297,1.555,0.508
			c-0.068,0.276-0.156,0.538-0.273,0.803c0.184,0.099,0.898,0.513,1.049,0.636c0.375-0.103,0.768-0.193,1.17-0.27
			c0.35,0.308,0.668,0.633,0.91,0.985c-0.283,0.205-0.572,0.394-0.879,0.568c0.049,0.099,0.18,0.271,0.279,0.42
			c2.742-0.279,5.693-0.34,8.705-0.024l-0.002,0.029c-2.492-0.046-16.129-0.061-23.34,4.804l0.23,0.97l10.879,3.217l11.02-3.217
			l1.041-3.88l-0.436,4.886L534.612,220.191z M546.901,209.791l-2.096-1l-1.318-0.576c0,0-7.244-3.29-7.732-3.337
			c-1.375-0.131-10.346,0.995-10.346,0.995l-2.441,2.397l-0.322,1.122l-1.91-21.157c2.711-0.904,14.361-5.095,28.084,0.081
			L546.901,209.791z M549.831,193.184c0,0,0.494-5.623,0.26-5.869c-0.232-0.244-1.482-0.798-2.445-1.002
			c0,0,1.457,0.263,2.797,0.816L549.831,193.184z"/>
		<path clip-path="url(#SVGID_4_)" fill="#939598" d="M536.103,210.213l-1.844-1.401l-2.053-0.495l-2.297,0.316l-1.703,1.062
			c0,0-0.381,1.35-0.369,1.486c0.076,0.069,0.322,0.479,0.48,0.748C530.433,211.302,533.104,210.646,536.103,210.213"/>
		<path clip-path="url(#SVGID_4_)" fill="#939598" d="M546.47,200.521c-0.85-0.297-3.033-0.577-5.688-0.403
			c3.143-0.493,5.773-0.476,5.902-0.306c0.172,0.222,0.24,1.992,0.328,1.769c0.117-0.296,0.797-2.604,0.863-3.202
			c0.029-0.269-2.459-5.418-2.459-5.418c-0.012-0.019-0.025-0.033-0.039-0.05c-0.143,0.021-3.414,0.6-3.799,0.693
			c-0.07,0.019-1.385,0.91-2.869,2.183c1.379-1.438,2.584-2.416,2.697-2.498c0.305-0.221,3.529-0.708,3.658-0.737
			c0.229-0.051,2.047,1.349,2.047,1.349l-2.742-3.488c0,0-2.439-1.125-2.467-1.131c-0.016-0.003-0.029-0.004-0.041-0.008
			c-0.607,0.378-2.145,0.935-3.17,1.521c-0.066,0.038-0.445,0.704-0.869,1.636c0.365-1.012,0.705-1.701,0.736-1.734
			c0.377-0.415,2.801-1.73,2.801-1.73l0.264-0.113c0,0,1.459,0.362,1.676,0.35c0.074-0.006-1.693-0.836-1.693-0.836l-3.016-0.478
			c-0.051,0.017-0.086,0.037-0.102,0.06c-0.193,0.259-1.33,0.714-2.557,1.256c-0.09,0.04-0.447,0.832-0.613,1.604
			c0.133-0.813,0.443-1.71,0.484-1.731c0.941-0.494,2.387-1.194,2.387-1.194l0.16-0.189l1.199-0.269l-1.535-0.257l-2.451-0.079
			l-1.268,0.236l-2.568,0.896c-0.211-0.18-2.08-1.781-1.887-1.415c0.176,0.335,0.252,1.597,0.27,1.941
			c-0.182,0.085-0.699,0.331-0.951,0.494l-2.648,3.438l-2.602,3.357l-0.645,0.588l-0.471,1.252c0,0,1.492,2.46,1.725,2.469
			c0.092,0.003,0.084,0.059,0.084,0.059c1.271,0.615,1.928,1.132,2.191,0.951c0.264-0.18,0.359-1.423,1.572-2.275
			c0.762-0.537,2.031-1.547,2.031-1.547l1.961-0.658l0.891-0.531l1.418-1.197l-0.234,2.284c0,0-1.875,1.833-3.154,2.67
			c-0.08,0.052-5.363,5.237-5.363,5.237s6.215-0.729,9.986-0.797c0.531-0.014,8.852,3.735,8.852,3.735l-1.549-2.043l-0.248-1.134
			c0,0,3.742,4.251,3.58,3.506c-0.105-0.484,0.535-5.203,0.535-5.203L546.47,200.521z M524.001,198.705c0,0-0.578-0.686-0.605-0.793
			c-0.025-0.106,0.229-0.632,0.342-0.711c0.051-0.033,0.064,0.021,0.084,0.065C524.661,199.062,524.001,198.705,524.001,198.705
			 M529.433,191.64l-0.328,1.075l-0.926,0.423l0.023-0.906l-0.262,0.125l0.789-1.011l0.934-0.827L529.433,191.64z M533.472,195.181
			l0.627-1.605l-0.934-2.071l0.887,0.706l0.428,1.435L533.472,195.181z M535.72,201.955l-0.938,0.158l-0.383-0.818l0.801-0.673
			l0.734,0.457L535.72,201.955z M536.046,192.619l-0.252-0.401l0.379-0.336l0.443,0.21l-0.105,0.455L536.046,192.619z
			 M536.548,195.027l0.561-0.525l0.521,0.315l-0.234,0.63l-0.633,0.106L536.548,195.027z M538.243,199.097l-0.742,0.126
			l-0.264-0.747l0.625-0.495l0.646,0.332L538.243,199.097z"/>
		<g opacity="0.05" clip-path="url(#SVGID_4_)">
			<g>
				<defs>
					<rect id="SVGID_5_" x="-383.682" y="-339.879" width="738.273" height="306.295"/>
				</defs>
				<clipPath id="SVGID_6_">
					<use xlink:href="#SVGID_5_"  overflow="visible"/>
				</clipPath>
				<rect x="-383.682" y="-339.879" clip-path="url(#SVGID_6_)" fill="#20201F" width="738.269" height="306.295"/>
			</g>
		</g>
		<rect x="-365.988" y="-190.005" clip-path="url(#SVGID_4_)" fill="#05283A" width="702.882" height="136.646"/>
		<path clip-path="url(#SVGID_4_)" fill-rule="evenodd" clip-rule="evenodd" fill="#58595B" d="M-250.503-246.062h-0.211
			c-1.419,3.832-3.812,6.84-7.18,9.02c-3.467,2.179-7.296,3.303-11.488,3.368c-4.524-0.065-8.039-0.924-10.548-2.577
			c-2.54-1.486-4.389-3.37-5.544-5.65c-1.091-2.311-1.766-4.657-2.032-7.037c-0.281-2.279-0.422-4.229-0.422-5.848v-32.312h3.806
			v32.996c0,1.355,0.141,2.974,0.423,4.856c0.264,1.851,0.842,3.718,1.736,5.599c0.992,1.884,2.483,3.402,4.466,4.56
			c1.951,1.354,4.681,2.029,8.188,2.029c5.986-0.066,10.603-2.129,13.843-6.193c3.31-3.929,4.963-9.13,4.963-15.605v-28.242h3.878
			v52.186h-3.878V-246.062 M-205.433-267.938c0-1.422-0.073-3.105-0.213-5.054c-0.265-1.884-0.876-3.75-1.835-5.599
			c-0.859-1.884-2.313-3.403-4.362-4.558c-2.083-1.157-4.89-1.768-8.426-1.834c-5.815,0.066-10.376,2.097-13.68,6.095
			c-3.404,3.998-5.105,9.25-5.105,15.756v28.19h-3.806v-52.165h3.806v11.196h0.282c1.419-3.995,3.846-7.083,7.28-9.264
			c3.434-2.079,7.217-3.12,11.345-3.12c4.622,0.066,8.206,0.841,10.749,2.329c2.577,1.55,4.408,3.484,5.499,5.795
			c1.154,2.28,1.866,4.575,2.13,6.886c0.139,2.377,0.211,4.408,0.211,6.092v32.251h-3.875V-267.938z M-194.409-307.396h3.876v72.454
			h-3.876V-307.396z M-184.975-307.396h3.879v10.456h-3.879V-307.396z M-184.975-287.125h3.879v52.182h-3.879V-287.125z
			 M-130.413-234.942h-5.252l-22.252-29.733l-11.843,10.059v19.674h-3.876v-72.454h3.876v47.973l32.164-27.704h5.547l-22.793,19.527
			L-130.413-234.942z M-99.784-278.602c-3.307-4.089-7.982-6.217-14.029-6.382c-5.816,0.165-10.346,2.374-13.584,6.629
			c-3.24,4.254-5.107,9.07-5.604,14.445h38.271C-94.86-269.582-96.546-274.479-99.784-278.602 M-133.001-260.526
			c-0.064,6.287,1.535,11.712,4.807,16.275c3.17,4.733,7.961,7.128,14.365,7.194c10.238-0.132,16.465-5.3,18.678-15.511h3.877
			c-2.312,12.432-9.826,18.73-22.543,18.895c-7.631-0.164-13.379-2.774-17.24-7.832c-3.898-5.021-5.812-11.217-5.746-18.587
			c-0.168-7.501,1.682-14.027,5.549-19.578c3.867-5.618,9.684-8.494,17.451-8.625c8.195,0.131,14.193,2.871,17.996,8.215
			c3.732,5.248,5.385,11.765,4.955,19.554H-133.001z M-88.565-307.396h3.875v72.454h-3.875V-307.396z M-59.907-229.315
			c-0.957,2.544-1.932,4.742-2.922,6.593c-1.025,1.818-2.082,3.206-3.172,4.163c-2.512,1.685-6.576,2.46-12.191,2.328v-3.369
			c2.709,0,4.906-0.231,6.59-0.695c1.586-0.462,3.008-1.338,4.264-2.626c1.354-1.421,3.156-5.518,5.4-12.29l-21.805-51.886h4.561
			l19.377,47.624l17.84-47.624h4.361L-59.907-229.315z"/>
		<path clip-path="url(#SVGID_4_)" fill="#00A99D" d="M10.86-284.292c-3.424-2.91-7.52-4.362-12.287-4.362
			c-4.346,0-7.816,0.627-10.416,1.883c-2.666,1.289-4.873,2.99-6.617,5.104h-0.193v-25.452h-19.447v72.444h19.434v-27.763
			c0-2.114,0.275-3.879,0.828-5.298c0.586-1.353,1.293-2.359,2.123-3.019c1.725-1.286,3.535-1.898,5.436-1.831
			c3.037,0,4.967,0.941,5.797,2.822c0.791,1.913,1.154,4.421,1.088,7.523v27.566h19.441v-36.136
			C15.981-276.891,14.251-281.384,10.86-284.292"/>
		<path clip-path="url(#SVGID_4_)" fill="#00A99D" d="M112.761-281.125v-6.736c-1.857-0.531-3.762-0.793-5.713-0.793
			c-3.488,0-6.336,0.812-8.543,2.441c-2.307,1.687-4.242,4.113-5.809,7.286h-0.193v-8.426H73.831v52.678h19.432v-20.811
			c0.062-10.737,4-16.037,11.812-15.906c0.703,0,1.348,0.015,1.941,0.041C108.536-275.58,111.347-279.378,112.761-281.125"/>
		<path clip-path="url(#SVGID_4_)" fill="#00A99D" d="M44.159-288.654c-8.295,0.132-14.926,2.791-19.891,7.982
			c-4.998,5.291-7.529,11.9-7.594,19.836c0.066,8.792,2.875,15.552,8.43,20.28c5.326,4.759,12.236,7.172,20.736,7.238
			c6.109,0,11.566-1.356,16.369-4.067c4.836-2.711,8.314-6.911,10.439-12.599l-18.795,0.033c-0.795,1.222-1.967,2.132-3.521,2.726
			c-1.557,0.697-3.191,1.042-4.912,1.042c-3.172,0-5.568-0.992-7.189-2.977c-1.688-1.883-2.695-4.315-3.025-7.29h38.545
			C73.948-277.655,64.085-288.392,44.159-288.654 M35.302-266.879c0.957-5.872,4.527-8.843,10.709-8.912
			c2.77,0,4.971,0.852,6.611,2.554c1.605,1.703,2.441,3.823,2.512,6.358H35.302z"/>
		<path clip-path="url(#SVGID_4_)" fill="#00A99D" d="M162.575-265.278c-0.711-5.778-2.887-10.816-6.576-15.088
			c-4.541-5.394-11.732-8.155-21.566-8.288c-9.545,0.13-16.623,2.808-21.234,8.027c-1.441,1.79-4.24,5.596-5.691,9.697
			c-1.004,3.049-1.498,6.342-1.449,9.894c-0.102,7.506,2.203,13.936,6.908,19.291c4.607,5.485,11.764,8.295,21.467,8.427
			c9.834-0.132,17.025-2.939,21.566-8.42c3.109-3.638,5.125-7.785,6.115-12.417C162.396-255.849,163.065-260.658,162.575-265.278
			 M142.06-272.831c-0.051-0.518-0.201-0.431-0.25-1.203c-0.049-0.773-0.064-0.714,0.006-1.453c0.07-0.739,0.25-0.946,0.375-1.417
			c0.125-0.474,0.482-0.632,0.664-0.837c0.18-0.204,0.357-0.157,1.129-0.206c0.771-0.049,0.473,0.125,0.867,0.544
			c0.395,0.423,0.363,0.541,0.592,1.105c0.23,0.569-0.25,0.947-0.348,1.552c-0.096,0.607-0.279,1.064-0.275,1.761
			c0.006,0.696-0.41,1.788-0.566,2.379c-0.156,0.59-0.139,1.479,0.014,2.09c0.156,0.609-0.441,2.158-0.797,3.013
			c-0.352,0.856-0.434,1.403-1.314,1.863c-0.881,0.464-0.49,0.186-1.053,0.164c-0.564-0.022-0.357-0.094-0.605-0.349
			c-0.246-0.255-0.271-0.641-0.271-0.641l-0.004-0.698c0,0-0.029-0.133,0.111-0.664c0.141-0.531,0.109-0.415,0.203-0.769
			c0.094-0.353,0.104-1.11,0.201-1.716c0.1-0.607,0.131-0.724,0.391-1.478c0.264-0.751,0.396-0.779,0.533-1.059
			c0.139-0.28,0.203-0.515,0.326-0.989C142.112-272.31,142.112-272.31,142.06-272.831 M135.866-269.728
			c0.252-1.199,0.188-0.709,0.24-1.391c0.055-0.682-0.197-0.686-0.086-1.35c0.113-0.666-0.082-0.402,0.24-1.139
			c0.32-0.736-0.092,0.102,0.412-0.839c0.502-0.943,0.773-0.301,0.564-1.178c-0.211-0.877-0.154,0.34-0.24-1.012
			c-0.084-1.347-0.236-1.01-0.105-1.986c0.133-0.977-0.023-0.385,0.273-1.51c0.299-1.122-0.092-0.845,0.389-1.223
			c0.479-0.378,0.109-0.413,0.688-0.451c0.578-0.035,0.953-0.253,0.953-0.253s-0.076,0.044,0.629,0.482
			c0.707,0.439,1.441,1.015,1.342,1.621c-0.096,0.605-0.34,1.996-0.418,2.291c-0.076,0.295-0.32,0.737-0.316,1.434
			c0.008,0.696-0.148,1.287-0.129,1.925c0.021,0.637-0.232,1.835-0.342,2.249c-0.111,0.412-0.277,1.759-0.355,2.054
			c-0.078,0.296-0.141,0.531-0.371,1.166c-0.23,0.634-0.568,1.43-0.705,1.709c-0.137,0.281-0.684,1.149-0.805,1.368
			c-0.123,0.222-0.482,0.629-0.482,0.629c-0.223-0.12-0.324-0.211-0.572-0.466c-0.248-0.254-0.336-0.402-0.508-0.703
			c-0.176-0.299-0.291-0.582-0.314-0.967s-0.154-0.609-0.115-1.233C135.769-269.123,135.612-268.532,135.866-269.728
			 M129.079-267.732c-0.051-0.521,0.277-0.812,0.229-1.584s0.004-0.251-0.029-1.082c-0.033-0.83,0.084-1.748,0.523-2.454
			c0.439-0.705,0.551-0.169,0.713-1.263c0.166-1.096-0.086-0.15-0.229-0.568c-0.143-0.417-0.102-0.089-0.418-0.807
			c-0.316-0.714-0.082-0.4-0.199-0.683c-0.113-0.284-0.084-1.35-0.035-1.779c0.051-0.43,0.236-0.887,0.805-2.316
			c0.566-1.43,0.447-0.262,0.924-0.388s0.473,0.125,1.195,0.504c0.719,0.383,0.113,0.285,0.312,0.968
			c0.195,0.686,0.125,0.478,0.217,1.324c0.092,0.845,0.033,0.831-0.232,1.835c-0.264,1.005-0.199,0.515-0.494,1.385
			c-0.293,0.872-0.031,0.118-0.17,0.651c-0.143,0.532,0.02,0.638,0.02,0.638s0.213,0.625,0.23,1.513
			c0.02,0.89,0.021,0.639,0.014,1.143c-0.008,0.503-0.16,0.844-0.193,1.213c-0.035,0.369,0.135,0.922,0.213,1.826
			c0.076,0.905-0.125,1.422-0.324,1.937c-0.199,0.516-0.807,0.418-0.807,0.418s-0.326,0.041-0.68-0.052
			c-0.355-0.096-0.059-0.017-0.855-0.354s-0.25-0.254-0.594-1.105C128.872-267.66,129.132-267.213,129.079-267.732 M120.95-258.76
			c-0.393-0.418,0,0-0.906-0.871c-0.906-0.871-0.41-0.36-1.213-1.143c-0.807-0.781-0.389-0.925-0.574-1.415
			c-0.186-0.494-0.1-0.343-0.135-0.92c-0.037-0.58-0.164-1.056-0.422-1.755c-0.258-0.702-0.215-0.626-0.215-0.626
			s-0.07-0.209,0.041-0.621c0.109-0.416,0.674-0.646,0.674-0.646l0.857,0.102c0,0,0.104,0.09,0.688,0.751
			c0.584,0.662,0.41,0.36,1.246,1.024s0.482,0.572,0.637,1.18c0.154,0.611,0.268,0.892,0.297,1.975
			c0.029,1.084,0.018,0.889,0.078,1.855c0.062,0.963,0.092,0.845,0.014,1.141c-0.076,0.296-0.123,0.473-0.305,0.677
			C121.532-257.848,121.347-258.338,120.95-258.76 M144.142-251.797c-0.336,0.795-0.748,2.583-0.92,3.233
			c-0.17,0.65-0.553,2.572-1.275,3.391c-0.725,0.821-1.465,1.95-2.156,2.654c-0.691,0.702-1.053,1.113-1.459,1.446
			c-0.402,0.338-0.553,0.423-0.553,0.423s0.174,0.298-0.701,0.258c-0.873-0.042-1.186-0.062-1.186-0.062l-0.711,0.063l-1.359-0.358
			c0,0-1.064-0.282-1.414-0.628c-0.352-0.344,0.107-0.16-0.557-0.527c-0.662-0.364-0.824-0.47-1.045-0.591
			c-0.219-0.122,0.695,0.247-0.219-0.122c-0.914-0.368-1.812-0.795-1.812-0.795l-1.793-1.106c0,0-0.793-0.591-1.35-1.116
			c-0.555-0.528-1.127-0.996-1.127-0.996s-0.301-0.773-0.736-1.52c-0.434-0.748-0.621-0.987-0.621-0.987s-0.461-1.132-0.703-1.892
			c-0.238-0.76-0.129-0.225-0.338-1.103c-0.213-0.876-0.254-0.952-0.254-0.952s-0.029-0.135-0.084-0.402
			c-0.057-0.267-0.1-0.34-0.1-0.34l0.066-0.489c0.078-0.296,0.141-0.533,0.141-0.533c0.219-0.826,0.094-0.355,0.189-0.96
			c0.1-0.606,0-0.948,0-0.948s-0.219-0.374-0.156-0.61c0.062-0.237-0.098-0.343,0.143-0.532c0.24-0.19,0.227-0.383,0.547,0.081
			c0.32,0.465,0.479,0.823,0.479,0.823l-0.02,0.311l-0.125,0.472l0.143,0.417c0.473,0.125-0.324-0.213,0.707,0.189
			c1.031,0.398,0.486,0.315,1.031,0.398c0.549,0.081,0.354,0.347,0.906-0.077c0.555-0.42,0.449-0.259,0.602-0.598
			c0.152-0.341,0.047-0.178,0.26-0.502c0.213-0.322-0.221-0.12,0.318-0.486c0.537-0.36-0.115-0.282,0.537-0.36
			c0.654-0.081,0.521-0.053,1.25-0.176c0.725-0.124,0.357-0.158,0.877-0.209c0.52-0.053,0.846-0.094,0.846-0.094l0.324,0.213
			l0.961,1.139l0.502,1.207c0,0-0.066,0.489,0.553,0.779c0.619,0.289-0.635-0.231,0.779,0.395c1.414,0.627,0.615,0.543,1.594,0.674
			c0.977,0.132,0.996,0.77,1.242,0.078l0.248-0.693l0.033-0.371c0,0,0.24-0.188-0.037-0.577c-0.275-0.391-0.156-0.359-0.627-0.736
			c-0.467-0.378-0.629-0.484-1.07-0.727c-0.441-0.242-1.309-0.79-1.309-0.79l-0.455-0.434c-0.436-0.497-0.113-0.284-0.744-0.766
			c-0.631-0.485-0.879-0.74-0.879-0.74c-0.48-0.57-0.178-0.045-0.805-0.782c-0.627-0.735-0.67-0.809-0.67-0.809l-0.158-0.359
			c-0.176-1.246-0.561-0.272-0.289-1.529c0.268-1.257-0.016-1.143,0.314-1.435c0.33-0.291,0.553-0.422,0.553-0.422
			s0.328-0.039,0.713-0.064c0.387-0.024,0.555-0.422,1.391,0.242c0.836,0.663,0.328,0.908,1.25,0.773
			c0.92-0.135,2.797-0.777,2.797-0.777s0.389-0.276,0.713-0.064c0.322,0.214,1.053,1.039,1.568,1.238
			c0.516,0.199,0.629-0.468,1.537,0.405c0.906,0.872,1.613,2.262,1.613,2.262c0.449,0.688,0.281,1.086,1.176,1.764
			c0.895,0.68,1.256,1.472,1.332,2.375C144.636-255.334,144.142-251.797,144.142-251.797 M149.118-266.537
			c0,0-0.078,0.294-0.188,0.709c-0.109,0.413-0.066,0.488-0.145,0.783c-0.078,0.296-0.168,0.399-0.473,1.076
			c-0.309,0.676-0.033,0.119-0.221,0.827s-0.121,0.221-0.336,0.794c-0.217,0.578-0.23,0.636-0.656,1.282
			c-0.424,0.645-0.365,0.662-0.607,1.103c-0.244,0.441-0.41,0.588-0.41,0.588s-0.148,0.087-0.848,0.344
			c-0.699,0.256-0.371-0.034-0.619-0.29c-0.248-0.257-0.127-0.476-0.123-0.728c0.004-0.253,0.23-0.634,0.311-0.93
			c0.076-0.294,0.322-0.99,0.465-1.521c0.139-0.531,0.248-0.695,0.611-1.355c0.363-0.662,0.168-0.399,0.363-0.662
			c0.197-0.263,0.26-0.499,0.357-1.105c0.098-0.607-0.111-0.537-0.172-1.502c-0.062-0.964,0.113-0.664,0.418-1.342
			c0.305-0.676,0.199-0.517,0.471-0.823c0.271-0.309,0.582-0.289,1.043-0.355c0.461-0.071,0.441,0.242,0.441,0.242
			s0.088,0.149,0.377,0.478c0.295,0.331,0.098,0.596,0.162,1.309C149.405-266.905,149.274-267.129,149.118-266.537"/>
		<path clip-path="url(#SVGID_4_)" fill="#00A99D" d="M268.194-257.671c-0.67-1.628-1.596-2.992-2.775-4.09
			c-2.332-2.298-5.174-3.927-8.525-4.891c-3.516-1.099-6.928-1.912-10.24-2.447c-1.555-0.265-3.008-0.548-4.361-0.846
			c-1.316-0.2-2.467-0.467-3.445-0.799c-0.543-0.266-1.066-0.649-1.572-1.149c-0.541-0.398-0.811-0.931-0.811-1.595
			c0-1.699,0.727-2.83,2.182-3.397c1.312-0.463,2.768-0.696,4.365-0.696c1.809,0,3.406,0.526,4.791,1.576
			c1.377,0.881,2.129,2.22,2.258,4.017h17.656c-0.164-3.45-1.014-6.269-2.545-8.458c-1.539-2.222-3.547-3.913-6.029-5.074
			c-5.191-2.189-10.775-3.234-16.752-3.134c-2.646,0-5.34,0.23-8.084,0.693c-2.873,0.464-5.551,1.341-8.033,2.629
			c-2.482,1.159-4.492,2.863-6.025,5.111c-1.6,2.217-2.4,4.978-2.4,8.284c0,4.432,1.686,7.955,5.059,10.566
			c3.404,2.714,8.893,4.714,16.465,6.003c4.596,0.762,7.639,1.504,9.127,2.233c1.354,0.76,1.998,1.885,1.932,3.373
			c-0.064,1.489-0.84,2.531-2.324,3.125c-1.551,0.629-3.035,0.944-4.453,0.944c-2.51,0-4.307-0.508-5.396-1.522
			c-1.484-1.277-2.293-2.816-2.424-4.616h-19.152c0.047,0.636,0.123,1.249,0.211,1.85l-17.338,0.03
			c-0.795,1.222-1.967,2.132-3.521,2.726c-1.553,0.697-3.191,1.042-4.908,1.042c-3.176,0-5.574-0.992-7.193-2.977
			c-1.688-1.883-2.693-4.315-3.023-7.29h38.545c0.197-21.205-9.666-31.942-29.592-32.204c-8.297,0.133-14.928,2.791-19.891,7.982
			c-3.701,3.916-6.025,8.57-7.018,13.938c0.764,4.619,0.291,9.418-0.051,11.816c1.043,5.967,3.67,10.758,7.904,14.362
			c5.326,4.759,12.238,7.172,20.734,7.238c6.109,0,11.568-1.356,16.369-4.067c4.154-2.328,7.297-5.76,9.451-10.283
			c1.191,4.531,3.797,7.902,7.832,10.105c5.215,2.831,11.033,4.245,17.459,4.245c6.584,0.066,12.582-1.216,17.996-3.849
			c2.543-1.415,4.58-3.341,6.111-5.778c1.535-2.302,2.301-5.265,2.301-8.886C269.058-254.092,268.771-256.038,268.194-257.671
			 M191.71-275.791c2.768,0,4.973,0.853,6.613,2.554c1.604,1.703,2.441,3.823,2.508,6.358h-19.83
			C181.956-272.751,185.526-275.722,191.71-275.791"/>
		<path clip-path="url(#SVGID_4_)" fill-rule="evenodd" clip-rule="evenodd" fill="#FFFFFF" d="M-250.503-104.517h-0.211
			c-1.419,3.832-3.812,6.84-7.18,9.021c-3.467,2.179-7.296,3.303-11.488,3.369c-4.524-0.066-8.039-0.926-10.548-2.578
			c-2.54-1.486-4.389-3.369-5.544-5.65c-1.091-2.312-1.766-4.657-2.032-7.037c-0.281-2.278-0.422-4.229-0.422-5.848v-32.311h3.806
			v32.994c0,1.355,0.141,2.977,0.423,4.856c0.264,1.851,0.842,3.718,1.736,5.6c0.992,1.883,2.483,3.401,4.466,4.56
			c1.951,1.354,4.681,2.029,8.188,2.029c5.986-0.066,10.603-2.13,13.843-6.191c3.31-3.932,4.963-9.133,4.963-15.607v-28.24h3.878
			v52.185h-3.878V-104.517 M-205.433-126.394c0-1.42-0.073-3.104-0.213-5.054c-0.265-1.885-0.876-3.748-1.835-5.6
			c-0.859-1.884-2.313-3.4-4.362-4.558c-2.083-1.156-4.89-1.769-8.426-1.834c-5.815,0.065-10.376,2.097-13.68,6.095
			c-3.404,3.998-5.105,9.25-5.105,15.756v28.192h-3.806v-52.167h3.806v11.196h0.282c1.419-3.995,3.846-7.083,7.28-9.265
			c3.434-2.079,7.217-3.119,11.345-3.119c4.622,0.066,8.206,0.841,10.749,2.328c2.577,1.552,4.408,3.485,5.499,5.795
			c1.154,2.281,1.866,4.575,2.13,6.887c0.139,2.378,0.211,4.408,0.211,6.092v32.253h-3.875V-126.394z M-194.409-165.852h3.876
			v72.456h-3.876V-165.852z M-184.975-165.852h3.879v10.456h-3.879V-165.852z M-184.975-145.58h3.879v52.184h-3.879V-145.58z
			 M-130.413-93.396h-5.252l-22.252-29.735l-11.843,10.06v19.676h-3.876v-72.456h3.876v47.974l32.164-27.704h5.547l-22.793,19.527
			L-130.413-93.396z M-99.784-137.055c-3.307-4.091-7.982-6.219-14.029-6.384c-5.816,0.165-10.346,2.376-13.584,6.629
			c-3.24,4.255-5.107,9.07-5.604,14.445h38.271C-94.86-128.034-96.546-132.933-99.784-137.055 M-133.001-118.981
			c-0.064,6.287,1.535,11.712,4.807,16.276c3.17,4.731,7.961,7.127,14.365,7.193c10.238-0.133,16.465-5.3,18.678-15.512h3.877
			c-2.312,12.432-9.826,18.729-22.543,18.896c-7.631-0.166-13.379-2.775-17.24-7.834c-3.898-5.021-5.812-11.217-5.746-18.587
			c-0.168-7.501,1.682-14.026,5.549-19.578c3.867-5.617,9.684-8.491,17.451-8.624c8.195,0.133,14.193,2.87,17.996,8.215
			c3.732,5.249,5.385,11.766,4.955,19.554H-133.001z M-88.565-165.852h3.875v72.456h-3.875V-165.852z M-59.907-87.769
			c-0.957,2.542-1.932,4.74-2.922,6.591c-1.025,1.818-2.082,3.206-3.172,4.163c-2.512,1.686-6.576,2.46-12.191,2.328v-3.369
			c2.709,0,4.906-0.23,6.59-0.695c1.586-0.462,3.008-1.338,4.264-2.626c1.354-1.421,3.156-5.518,5.4-12.288l-21.805-51.886h4.561
			l19.377,47.622l17.84-47.622h4.361L-59.907-87.769z"/>
		<path clip-path="url(#SVGID_4_)" fill="#00A99D" d="M10.86-142.747c-3.424-2.908-7.52-4.362-12.287-4.362
			c-4.346,0-7.816,0.627-10.416,1.884c-2.666,1.288-4.873,2.989-6.617,5.104h-0.193v-25.451h-19.447v72.444h19.434v-27.764
			c0-2.114,0.275-3.88,0.828-5.298c0.586-1.354,1.293-2.357,2.123-3.019c1.725-1.285,3.535-1.898,5.436-1.83
			c3.037,0,4.967,0.939,5.797,2.82c0.791,1.914,1.154,4.422,1.088,7.523v27.566h19.441v-36.137
			C15.981-135.346,14.251-139.839,10.86-142.747"/>
		<path clip-path="url(#SVGID_4_)" fill="#00A99D" d="M112.761-139.58v-6.736c-1.857-0.529-3.762-0.793-5.713-0.793
			c-3.488,0-6.336,0.814-8.543,2.441c-2.307,1.687-4.242,4.113-5.809,7.286h-0.193v-8.424H73.831v52.677h19.432v-20.812
			c0.062-10.734,4-16.037,11.812-15.905c0.703,0,1.348,0.015,1.941,0.041C108.536-134.035,111.347-137.833,112.761-139.58"/>
		<path clip-path="url(#SVGID_4_)" fill="#00A99D" d="M44.159-147.109c-8.295,0.133-14.926,2.793-19.891,7.983
			c-4.998,5.29-7.529,11.9-7.594,19.835c0.066,8.792,2.875,15.552,8.43,20.28c5.326,4.759,12.236,7.174,20.736,7.239
			c6.109,0,11.566-1.357,16.369-4.067c4.836-2.712,8.314-6.911,10.439-12.601l-18.795,0.033c-0.795,1.223-1.967,2.132-3.521,2.727
			c-1.557,0.696-3.191,1.042-4.912,1.042c-3.172,0-5.568-0.992-7.189-2.978c-1.688-1.882-2.695-4.314-3.025-7.289h38.545
			C73.948-136.11,64.085-146.846,44.159-147.109 M35.302-125.334c0.957-5.872,4.527-8.843,10.709-8.91
			c2.77,0,4.971,0.851,6.611,2.552c1.605,1.704,2.441,3.823,2.512,6.358H35.302z"/>
		<path clip-path="url(#SVGID_4_)" fill="#00A99D" d="M162.575-123.732c-0.711-5.778-2.887-10.816-6.576-15.089
			c-4.541-5.394-11.732-8.155-21.566-8.288c-9.545,0.13-16.623,2.811-21.234,8.028c-1.441,1.79-4.24,5.595-5.691,9.696
			c-1.004,3.049-1.498,6.342-1.449,9.895c-0.102,7.506,2.203,13.936,6.908,19.29c4.607,5.487,11.764,8.295,21.467,8.428
			c9.834-0.133,17.025-2.938,21.566-8.421c3.109-3.638,5.125-7.783,6.115-12.416C162.396-114.304,163.065-119.113,162.575-123.732
			 M142.06-131.286c-0.051-0.518-0.201-0.431-0.25-1.203s-0.064-0.713,0.006-1.453c0.07-0.739,0.25-0.946,0.375-1.417
			c0.125-0.474,0.482-0.632,0.664-0.836c0.18-0.204,0.357-0.158,1.129-0.207s0.473,0.125,0.867,0.545
			c0.395,0.422,0.363,0.54,0.592,1.105c0.23,0.567-0.25,0.945-0.348,1.553c-0.096,0.605-0.279,1.062-0.275,1.76
			c0.006,0.697-0.41,1.788-0.566,2.379c-0.156,0.59-0.139,1.48,0.014,2.09c0.156,0.608-0.441,2.157-0.797,3.013
			c-0.352,0.855-0.434,1.404-1.314,1.865c-0.881,0.462-0.49,0.184-1.053,0.161c-0.564-0.021-0.357-0.092-0.605-0.349
			c-0.246-0.255-0.271-0.641-0.271-0.641l-0.004-0.698c0,0-0.029-0.133,0.111-0.663c0.141-0.532,0.109-0.414,0.203-0.769
			s0.104-1.111,0.201-1.717c0.1-0.607,0.131-0.725,0.391-1.479c0.264-0.751,0.396-0.777,0.533-1.058
			c0.139-0.281,0.203-0.517,0.326-0.99C142.112-130.766,142.112-130.766,142.06-131.286 M135.866-128.184
			c0.252-1.198,0.188-0.709,0.24-1.391c0.055-0.682-0.197-0.686-0.086-1.35c0.113-0.666-0.082-0.402,0.24-1.139
			c0.32-0.734-0.092,0.102,0.412-0.839c0.502-0.941,0.773-0.301,0.564-1.179c-0.211-0.877-0.154,0.34-0.24-1.012
			c-0.084-1.348-0.236-1.009-0.105-1.986c0.133-0.977-0.023-0.385,0.273-1.508c0.299-1.123-0.092-0.848,0.389-1.226
			c0.479-0.378,0.109-0.412,0.688-0.448c0.578-0.037,0.953-0.254,0.953-0.254s-0.076,0.043,0.629,0.482
			c0.707,0.439,1.441,1.013,1.342,1.619c-0.096,0.607-0.34,1.997-0.418,2.291c-0.076,0.295-0.32,0.737-0.316,1.436
			c0.008,0.694-0.148,1.287-0.129,1.924c0.021,0.637-0.232,1.835-0.342,2.248c-0.111,0.412-0.277,1.76-0.355,2.055
			c-0.078,0.296-0.141,0.533-0.371,1.166c-0.23,0.634-0.568,1.43-0.705,1.709c-0.137,0.281-0.684,1.148-0.805,1.368
			c-0.123,0.222-0.482,0.631-0.482,0.631c-0.223-0.122-0.324-0.212-0.572-0.467s-0.336-0.403-0.508-0.704
			c-0.176-0.298-0.291-0.582-0.314-0.968c-0.023-0.385-0.154-0.608-0.115-1.23C135.769-127.578,135.612-126.987,135.866-128.184
			 M129.079-126.188c-0.051-0.521,0.277-0.812,0.229-1.583c-0.049-0.772,0.004-0.252-0.029-1.083
			c-0.033-0.829,0.084-1.748,0.523-2.453s0.551-0.17,0.713-1.264c0.166-1.096-0.086-0.149-0.229-0.568
			c-0.143-0.416-0.102-0.089-0.418-0.807c-0.316-0.714-0.082-0.399-0.199-0.683c-0.113-0.284-0.084-1.351-0.035-1.779
			c0.051-0.43,0.236-0.887,0.805-2.316c0.566-1.43,0.447-0.26,0.924-0.388c0.477-0.126,0.473,0.125,1.195,0.506
			c0.719,0.381,0.113,0.285,0.312,0.967c0.195,0.686,0.125,0.478,0.217,1.323s0.033,0.831-0.232,1.835
			c-0.264,1.005-0.199,0.516-0.494,1.386c-0.293,0.871-0.031,0.119-0.17,0.651c-0.143,0.531,0.02,0.637,0.02,0.637
			s0.213,0.625,0.23,1.515c0.02,0.89,0.021,0.638,0.014,1.144c-0.008,0.503-0.16,0.842-0.193,1.211
			c-0.035,0.371,0.135,0.922,0.213,1.827c0.076,0.904-0.125,1.421-0.324,1.937s-0.807,0.418-0.807,0.418s-0.326,0.041-0.68-0.053
			c-0.355-0.096-0.059-0.017-0.855-0.353s-0.25-0.255-0.594-1.104C128.872-126.115,129.132-125.668,129.079-126.188 M120.95-117.214
			c-0.393-0.419,0,0-0.906-0.87c-0.906-0.873-0.41-0.362-1.213-1.146c-0.807-0.78-0.389-0.923-0.574-1.413
			c-0.186-0.494-0.1-0.345-0.135-0.922c-0.037-0.58-0.164-1.056-0.422-1.755c-0.258-0.702-0.215-0.626-0.215-0.626
			s-0.07-0.209,0.041-0.621c0.109-0.416,0.674-0.644,0.674-0.644l0.857,0.101c0,0,0.104,0.09,0.688,0.75
			c0.584,0.662,0.41,0.361,1.246,1.025c0.836,0.665,0.482,0.57,0.637,1.179c0.154,0.611,0.268,0.892,0.297,1.976
			s0.018,0.891,0.078,1.854c0.062,0.963,0.092,0.846,0.014,1.141c-0.076,0.296-0.123,0.474-0.305,0.679
			C121.532-116.302,121.347-116.791,120.95-117.214 M144.142-110.252c-0.336,0.795-0.748,2.584-0.92,3.233
			c-0.17,0.649-0.553,2.571-1.275,3.391c-0.725,0.82-1.465,1.952-2.156,2.653c-0.691,0.702-1.053,1.113-1.459,1.446
			c-0.402,0.338-0.553,0.423-0.553,0.423s0.174,0.301-0.701,0.258c-0.873-0.041-1.186-0.062-1.186-0.062l-0.711,0.063l-1.359-0.358
			c0,0-1.064-0.282-1.414-0.626c-0.352-0.346,0.107-0.162-0.557-0.529c-0.662-0.363-0.824-0.47-1.045-0.591
			c-0.219-0.122,0.695,0.247-0.219-0.122c-0.914-0.368-1.812-0.795-1.812-0.795l-1.793-1.106c0,0-0.793-0.591-1.35-1.115
			c-0.555-0.527-1.127-0.994-1.127-0.994s-0.301-0.775-0.736-1.522c-0.434-0.748-0.621-0.986-0.621-0.986s-0.461-1.133-0.703-1.893
			c-0.238-0.76-0.129-0.225-0.338-1.102c-0.213-0.877-0.254-0.952-0.254-0.952s-0.029-0.135-0.084-0.401
			c-0.057-0.268-0.1-0.342-0.1-0.342l0.066-0.489c0.078-0.295,0.141-0.531,0.141-0.531c0.219-0.826,0.094-0.354,0.189-0.962
			c0.1-0.605,0-0.947,0-0.947s-0.219-0.374-0.156-0.61c0.062-0.235-0.098-0.343,0.143-0.532s0.227-0.383,0.547,0.081
			c0.32,0.465,0.479,0.823,0.479,0.823l-0.02,0.311l-0.125,0.473l0.143,0.417c0.473,0.126-0.324-0.213,0.707,0.188
			c1.031,0.398,0.486,0.317,1.031,0.398c0.549,0.081,0.354,0.347,0.906-0.077c0.555-0.42,0.449-0.259,0.602-0.598
			c0.152-0.341,0.047-0.179,0.26-0.5c0.213-0.324-0.221-0.122,0.318-0.487c0.537-0.361-0.115-0.283,0.537-0.361
			c0.654-0.081,0.521-0.053,1.25-0.175c0.725-0.125,0.357-0.158,0.877-0.21c0.52-0.053,0.846-0.094,0.846-0.094l0.324,0.213
			l0.961,1.14l0.502,1.206c0,0-0.066,0.489,0.553,0.779c0.619,0.289-0.635-0.23,0.779,0.397c1.414,0.625,0.615,0.54,1.594,0.672
			c0.977,0.132,0.996,0.771,1.242,0.078l0.248-0.693l0.033-0.37c0,0,0.24-0.189-0.037-0.577c-0.275-0.392-0.156-0.359-0.627-0.734
			c-0.467-0.38-0.629-0.486-1.07-0.729c-0.441-0.242-1.309-0.788-1.309-0.788l-0.455-0.436c-0.436-0.496-0.113-0.284-0.744-0.766
			c-0.631-0.485-0.879-0.741-0.879-0.741c-0.48-0.569-0.178-0.045-0.805-0.781c-0.627-0.735-0.67-0.81-0.67-0.81l-0.158-0.358
			c-0.176-1.246-0.561-0.272-0.289-1.529c0.268-1.256-0.016-1.142,0.314-1.433c0.33-0.293,0.553-0.423,0.553-0.423
			s0.328-0.041,0.713-0.065c0.387-0.022,0.555-0.421,1.391,0.244c0.836,0.661,0.328,0.905,1.25,0.771
			c0.92-0.135,2.797-0.776,2.797-0.776s0.389-0.276,0.713-0.063c0.322,0.213,1.053,1.038,1.568,1.237s0.629-0.468,1.537,0.405
			c0.906,0.873,1.613,2.262,1.613,2.262c0.449,0.688,0.281,1.086,1.176,1.764c0.895,0.68,1.256,1.472,1.332,2.375
			C144.636-113.788,144.142-110.252,144.142-110.252 M149.118-124.992c0,0-0.078,0.296-0.188,0.71
			c-0.109,0.412-0.066,0.487-0.145,0.782c-0.078,0.297-0.168,0.398-0.473,1.076c-0.309,0.676-0.033,0.119-0.221,0.826
			c-0.188,0.709-0.121,0.222-0.336,0.796c-0.217,0.576-0.23,0.635-0.656,1.281c-0.424,0.645-0.365,0.661-0.607,1.104
			c-0.244,0.44-0.41,0.586-0.41,0.586s-0.148,0.087-0.848,0.345c-0.699,0.255-0.371-0.035-0.619-0.29
			c-0.248-0.258-0.127-0.477-0.123-0.729c0.004-0.251,0.23-0.635,0.311-0.93c0.076-0.295,0.322-0.988,0.465-1.521
			c0.139-0.531,0.248-0.693,0.611-1.354s0.168-0.398,0.363-0.661c0.197-0.265,0.26-0.499,0.357-1.106s-0.111-0.537-0.172-1.502
			c-0.062-0.964,0.113-0.664,0.418-1.342c0.305-0.677,0.199-0.516,0.471-0.823s0.582-0.289,1.043-0.355
			c0.461-0.069,0.441,0.242,0.441,0.242s0.088,0.149,0.377,0.479c0.295,0.331,0.098,0.596,0.162,1.309
			C149.405-125.36,149.274-125.584,149.118-124.992"/>
		<g opacity="0.9" clip-path="url(#SVGID_4_)">
			<g>
				<defs>
					<rect id="SVGID_7_" x="-255.789" y="0.681" width="56.694" height="55.338"/>
				</defs>
				<clipPath id="SVGID_8_">
					<use xlink:href="#SVGID_7_"  overflow="visible"/>
				</clipPath>
				<path clip-path="url(#SVGID_8_)" fill="#20201F" d="M-199.269,24.058c-0.711-5.777-2.887-10.816-6.576-15.088
					c-4.542-5.394-11.732-8.156-21.567-8.289c-9.545,0.13-16.622,2.812-21.234,8.028c-1.44,1.791-4.239,5.595-5.691,9.697
					c-1.003,3.048-1.498,6.342-1.45,9.895c-0.101,7.506,2.203,13.935,6.91,19.289c4.606,5.488,11.762,8.296,21.465,8.429
					c9.835-0.133,17.025-2.938,21.567-8.422c3.108-3.638,5.126-7.783,6.116-12.415C-199.449,33.486-198.779,28.678-199.269,24.058
					 M-219.784,16.505c-0.051-0.519-0.201-0.431-0.251-1.203c-0.048-0.772-0.064-0.713,0.007-1.453
					c0.069-0.74,0.249-0.946,0.374-1.418c0.125-0.473,0.483-0.631,0.664-0.836c0.181-0.203,0.358-0.157,1.13-0.206
					s0.472,0.125,0.867,0.545c0.394,0.422,0.363,0.539,0.59,1.104c0.232,0.567-0.248,0.946-0.346,1.554
					c-0.096,0.605-0.28,1.062-0.275,1.76c0.006,0.697-0.412,1.788-0.566,2.379c-0.158,0.59-0.141,1.479,0.013,2.09
					c0.155,0.608-0.443,2.157-0.796,3.013c-0.353,0.854-0.434,1.402-1.315,1.864c-0.881,0.463-0.492,0.185-1.055,0.162
					s-0.355-0.093-0.603-0.349c-0.247-0.255-0.272-0.642-0.272-0.642l-0.005-0.697c0,0-0.028-0.133,0.112-0.663
					c0.141-0.532,0.109-0.415,0.203-0.769c0.094-0.355,0.103-1.111,0.202-1.717c0.098-0.607,0.129-0.726,0.391-1.479
					c0.262-0.751,0.395-0.778,0.532-1.059c0.14-0.28,0.202-0.517,0.327-0.989C-219.73,17.025-219.73,17.025-219.784,16.505
					 M-225.979,19.607c0.254-1.198,0.189-0.709,0.242-1.391c0.053-0.682-0.199-0.686-0.087-1.35
					c0.115-0.666-0.082-0.403,0.241-1.139c0.321-0.734-0.092,0.102,0.411-0.839c0.504-0.942,0.775-0.301,0.565-1.18
					c-0.212-0.876-0.154,0.341-0.239-1.011c-0.085-1.349-0.237-1.01-0.106-1.986c0.131-0.978-0.023-0.385,0.273-1.509
					c0.299-1.122-0.093-0.847,0.389-1.226c0.478-0.378,0.109-0.411,0.687-0.448c0.577-0.036,0.952-0.255,0.952-0.255
					s-0.074,0.045,0.63,0.484c0.706,0.438,1.44,1.012,1.342,1.619c-0.097,0.605-0.339,1.996-0.417,2.291
					c-0.078,0.295-0.321,0.736-0.317,1.435c0.006,0.695-0.149,1.288-0.128,1.925c0.019,0.637-0.234,1.835-0.342,2.248
					c-0.112,0.412-0.279,1.759-0.357,2.055c-0.077,0.295-0.139,0.532-0.371,1.165c-0.229,0.635-0.569,1.431-0.706,1.709
					c-0.136,0.282-0.682,1.149-0.805,1.369c-0.121,0.221-0.482,0.63-0.482,0.63c-0.221-0.121-0.323-0.211-0.571-0.466
					c-0.248-0.255-0.335-0.404-0.509-0.705c-0.175-0.298-0.289-0.581-0.314-0.968c-0.024-0.385-0.153-0.608-0.116-1.23
					C-226.076,20.213-226.231,20.804-225.979,19.607 M-232.765,21.604c-0.052-0.521,0.278-0.812,0.229-1.583
					c-0.048-0.772,0.003-0.252-0.03-1.083c-0.032-0.829,0.084-1.748,0.525-2.453c0.439-0.707,0.55-0.171,0.712-1.265
					c0.165-1.095-0.086-0.148-0.228-0.567c-0.143-0.417-0.103-0.09-0.418-0.807c-0.317-0.714-0.083-0.399-0.199-0.683
					c-0.115-0.285-0.086-1.352-0.035-1.78c0.05-0.429,0.236-0.886,0.802-2.315c0.569-1.43,0.45-0.261,0.925-0.388
					c0.477-0.126,0.474,0.125,1.194,0.506c0.72,0.381,0.116,0.284,0.313,0.966c0.197,0.686,0.125,0.479,0.219,1.324
					c0.091,0.846,0.032,0.831-0.233,1.835c-0.265,1.004-0.199,0.515-0.495,1.385c-0.293,0.872-0.031,0.119-0.171,0.652
					c-0.14,0.531,0.022,0.637,0.022,0.637s0.212,0.625,0.229,1.514c0.019,0.891,0.021,0.639,0.015,1.145
					c-0.008,0.502-0.16,0.841-0.195,1.211c-0.036,0.37,0.135,0.922,0.213,1.827c0.077,0.903-0.126,1.42-0.325,1.937
					c-0.199,0.515-0.804,0.418-0.804,0.418s-0.328,0.04-0.681-0.054c-0.356-0.095-0.06-0.016-0.856-0.353
					c-0.795-0.336-0.25-0.254-0.592-1.104C-232.973,21.675-232.711,22.122-232.765,21.604 M-240.894,30.576
					c-0.393-0.418,0,0-0.906-0.87c-0.907-0.872-0.409-0.361-1.214-1.145c-0.805-0.781-0.387-0.923-0.574-1.414
					c-0.186-0.493-0.099-0.344-0.135-0.921c-0.037-0.58-0.164-1.057-0.42-1.756c-0.258-0.701-0.215-0.626-0.215-0.626
					s-0.071-0.208,0.039-0.62c0.11-0.416,0.676-0.645,0.676-0.645l0.857,0.101c0,0,0.103,0.091,0.688,0.751
					c0.584,0.661,0.409,0.36,1.245,1.024c0.836,0.665,0.482,0.57,0.636,1.179c0.155,0.611,0.269,0.893,0.299,1.976
					c0.029,1.085,0.016,0.892,0.078,1.854c0.06,0.964,0.092,0.846,0.013,1.142c-0.078,0.296-0.125,0.473-0.305,0.679
					C-240.312,31.488-240.498,30.999-240.894,30.576 M-217.702,37.538c-0.337,0.796-0.748,2.585-0.92,3.233
					c-0.171,0.649-0.553,2.571-1.276,3.392c-0.724,0.819-1.465,1.951-2.155,2.653c-0.693,0.702-1.054,1.112-1.459,1.446
					c-0.403,0.337-0.554,0.423-0.554,0.423s0.174,0.299-0.7,0.257s-1.186-0.061-1.186-0.061l-0.711,0.063l-1.36-0.359
					c0,0-1.063-0.281-1.413-0.626c-0.353-0.346,0.105-0.161-0.557-0.528c-0.663-0.363-0.824-0.471-1.045-0.591
					c-0.219-0.122,0.695,0.247-0.219-0.122c-0.914-0.369-1.813-0.795-1.813-0.795l-1.793-1.106c0,0-0.793-0.591-1.349-1.115
					c-0.555-0.527-1.127-0.995-1.127-0.995s-0.301-0.775-0.736-1.521c-0.433-0.748-0.623-0.986-0.623-0.986s-0.46-1.134-0.701-1.893
					c-0.24-0.76-0.129-0.225-0.339-1.102c-0.212-0.877-0.255-0.953-0.255-0.953s-0.027-0.134-0.083-0.4
					c-0.056-0.268-0.099-0.342-0.099-0.342l0.065-0.489c0.079-0.296,0.141-0.531,0.141-0.531c0.22-0.827,0.094-0.355,0.191-0.962
					c0.099-0.606-0.002-0.948-0.002-0.948s-0.217-0.374-0.154-0.609c0.062-0.235-0.099-0.343,0.141-0.532
					c0.24-0.19,0.228-0.383,0.547,0.081c0.32,0.465,0.48,0.822,0.48,0.822l-0.021,0.312l-0.126,0.472l0.144,0.418
					c0.472,0.126-0.323-0.213,0.708,0.188c1.031,0.398,0.485,0.316,1.031,0.398c0.549,0.081,0.353,0.347,0.906-0.078
					c0.555-0.42,0.45-0.258,0.602-0.598s0.047-0.179,0.258-0.5c0.215-0.323-0.22-0.121,0.319-0.486
					c0.537-0.361-0.114-0.283,0.537-0.361c0.655-0.082,0.522-0.053,1.25-0.175c0.726-0.125,0.357-0.159,0.877-0.21
					c0.519-0.053,0.846-0.094,0.846-0.094l0.323,0.213l0.963,1.14l0.5,1.206c0,0-0.065,0.489,0.554,0.779
					c0.62,0.289-0.634-0.23,0.78,0.396s0.614,0.542,1.593,0.674c0.975,0.132,0.997,0.771,1.243,0.077l0.246-0.692l0.034-0.37
					c0,0,0.241-0.189-0.036-0.577c-0.275-0.392-0.157-0.36-0.627-0.736c-0.469-0.378-0.63-0.485-1.072-0.728
					c-0.44-0.242-1.307-0.789-1.307-0.789l-0.456-0.435c-0.436-0.496-0.113-0.285-0.743-0.766c-0.632-0.485-0.88-0.741-0.88-0.741
					c-0.481-0.569-0.178-0.045-0.803-0.781c-0.628-0.735-0.672-0.811-0.672-0.811l-0.159-0.357c-0.173-1.247-0.559-0.272-0.289-1.53
					c0.27-1.255-0.015-1.141,0.317-1.433c0.329-0.293,0.553-0.423,0.553-0.423s0.328-0.04,0.712-0.064
					c0.386-0.023,0.554-0.422,1.391,0.243c0.836,0.662,0.328,0.906,1.248,0.771c0.921-0.136,2.798-0.776,2.798-0.776
					s0.389-0.276,0.713-0.063c0.322,0.213,1.052,1.038,1.567,1.237c0.517,0.199,0.629-0.468,1.537,0.405
					c0.908,0.872,1.615,2.262,1.615,2.262c0.449,0.688,0.28,1.086,1.176,1.763c0.895,0.681,1.255,1.472,1.331,2.376
					C-217.207,34.002-217.702,37.538-217.702,37.538 M-212.727,22.799c0,0-0.078,0.295-0.187,0.71
					c-0.109,0.412-0.066,0.486-0.144,0.782c-0.079,0.297-0.167,0.398-0.474,1.076c-0.306,0.676-0.031,0.117-0.22,0.826
					c-0.186,0.709-0.121,0.221-0.336,0.796c-0.215,0.576-0.231,0.634-0.657,1.28c-0.422,0.646-0.363,0.662-0.606,1.104
					c-0.244,0.44-0.409,0.587-0.409,0.587s-0.149,0.087-0.85,0.345c-0.698,0.255-0.37-0.035-0.618-0.29
					c-0.248-0.258-0.126-0.478-0.123-0.729c0.004-0.251,0.231-0.634,0.31-0.93c0.077-0.294,0.324-0.988,0.464-1.521
					c0.14-0.531,0.248-0.693,0.613-1.355c0.363-0.66,0.169-0.398,0.363-0.66c0.198-0.266,0.261-0.5,0.358-1.107
					c0.096-0.606-0.111-0.536-0.172-1.501c-0.062-0.964,0.113-0.664,0.418-1.342s0.2-0.517,0.469-0.824
					c0.274-0.308,0.583-0.288,1.045-0.354c0.46-0.069,0.44,0.242,0.44,0.242s0.087,0.149,0.378,0.479
					c0.293,0.33,0.097,0.595,0.162,1.308C-212.438,22.43-212.568,22.206-212.727,22.799"/>
			</g>
		</g>
		<path clip-path="url(#SVGID_4_)" fill="#00A99D" d="M-69.175,24.058c-0.711-5.777-2.887-10.816-6.576-15.088
			c-4.541-5.394-11.732-8.156-21.566-8.289c-9.545,0.13-16.621,2.812-21.234,8.028c-1.439,1.791-4.24,5.595-5.689,9.697
			c-1.006,3.048-1.498,6.342-1.451,9.895c-0.102,7.506,2.203,13.935,6.91,19.289c4.605,5.488,11.762,8.296,21.465,8.429
			c9.834-0.133,17.025-2.938,21.566-8.422c3.109-3.638,5.127-7.783,6.115-12.415C-69.354,33.486-68.687,28.678-69.175,24.058
			 M-89.69,16.505c-0.051-0.519-0.199-0.431-0.252-1.203c-0.047-0.772-0.062-0.713,0.008-1.453s0.25-0.946,0.375-1.418
			c0.125-0.473,0.482-0.631,0.662-0.836c0.184-0.203,0.359-0.157,1.133-0.206c0.77-0.049,0.471,0.125,0.865,0.545
			c0.395,0.422,0.363,0.539,0.592,1.104c0.23,0.567-0.248,0.946-0.348,1.554c-0.096,0.605-0.279,1.062-0.275,1.76
			c0.006,0.697-0.41,1.788-0.566,2.379c-0.156,0.59-0.139,1.479,0.014,2.09c0.156,0.608-0.441,2.157-0.795,3.013
			c-0.354,0.854-0.434,1.402-1.314,1.864c-0.881,0.463-0.492,0.185-1.057,0.162c-0.562-0.022-0.354-0.093-0.602-0.349
			c-0.248-0.255-0.273-0.642-0.273-0.642l-0.004-0.697c0,0-0.029-0.133,0.111-0.663c0.141-0.532,0.109-0.415,0.203-0.769
			c0.094-0.355,0.104-1.111,0.201-1.717c0.1-0.607,0.131-0.726,0.393-1.479c0.262-0.751,0.395-0.778,0.531-1.059
			c0.139-0.28,0.203-0.517,0.326-0.989C-89.638,17.025-89.638,17.025-89.69,16.505 M-95.884,19.607
			c0.254-1.198,0.189-0.709,0.24-1.391c0.055-0.682-0.197-0.686-0.086-1.35c0.115-0.666-0.082-0.403,0.242-1.139
			c0.32-0.734-0.094,0.102,0.41-0.839c0.504-0.942,0.775-0.301,0.564-1.18c-0.211-0.876-0.154,0.341-0.238-1.011
			c-0.086-1.349-0.236-1.01-0.107-1.986c0.133-0.978-0.023-0.385,0.273-1.509c0.301-1.122-0.092-0.847,0.391-1.226
			c0.477-0.378,0.107-0.411,0.686-0.448c0.578-0.036,0.953-0.255,0.953-0.255S-92.63,7.32-91.927,7.76
			c0.707,0.438,1.439,1.012,1.342,1.619c-0.096,0.605-0.34,1.996-0.416,2.291c-0.078,0.295-0.322,0.736-0.318,1.435
			c0.006,0.695-0.148,1.288-0.127,1.925c0.02,0.637-0.234,1.835-0.344,2.248c-0.111,0.412-0.277,1.759-0.355,2.055
			c-0.078,0.295-0.141,0.532-0.371,1.165c-0.229,0.635-0.568,1.431-0.705,1.709c-0.139,0.282-0.684,1.149-0.805,1.369
			c-0.123,0.221-0.482,0.63-0.482,0.63c-0.223-0.121-0.324-0.211-0.572-0.466s-0.334-0.404-0.508-0.705
			c-0.176-0.298-0.289-0.581-0.314-0.968c-0.023-0.385-0.154-0.608-0.115-1.23C-95.981,20.213-96.138,20.804-95.884,19.607
			 M-102.671,21.604c-0.051-0.521,0.277-0.812,0.229-1.583c-0.047-0.772,0.004-0.252-0.029-1.083
			c-0.031-0.829,0.084-1.748,0.525-2.453c0.439-0.707,0.549-0.171,0.711-1.265c0.166-1.095-0.084-0.148-0.229-0.567
			c-0.141-0.417-0.102-0.09-0.418-0.807c-0.314-0.714-0.082-0.399-0.199-0.683c-0.113-0.285-0.084-1.352-0.033-1.78
			c0.049-0.429,0.234-0.886,0.803-2.315s0.449-0.261,0.924-0.388c0.479-0.126,0.475,0.125,1.195,0.506
			c0.719,0.381,0.113,0.284,0.312,0.966c0.197,0.686,0.125,0.479,0.217,1.324c0.094,0.846,0.033,0.831-0.232,1.835
			c-0.264,1.004-0.199,0.515-0.494,1.385c-0.293,0.872-0.031,0.119-0.17,0.652c-0.141,0.531,0.02,0.637,0.02,0.637
			s0.215,0.625,0.23,1.514c0.02,0.891,0.021,0.639,0.014,1.145c-0.006,0.502-0.16,0.841-0.193,1.211
			c-0.035,0.37,0.135,0.922,0.213,1.827c0.076,0.903-0.125,1.42-0.324,1.937c-0.199,0.515-0.805,0.418-0.805,0.418
			s-0.328,0.04-0.682-0.054c-0.355-0.095-0.059-0.016-0.855-0.353c-0.795-0.336-0.25-0.254-0.592-1.104
			C-102.878,21.675-102.616,22.122-102.671,21.604 M-110.8,30.576c-0.393-0.418,0,0-0.906-0.87
			c-0.906-0.872-0.408-0.361-1.213-1.145c-0.805-0.781-0.387-0.923-0.574-1.414c-0.186-0.493-0.1-0.344-0.135-0.921
			c-0.037-0.58-0.164-1.057-0.422-1.756c-0.258-0.701-0.215-0.626-0.215-0.626s-0.07-0.208,0.041-0.62
			c0.109-0.416,0.674-0.645,0.674-0.645l0.859,0.101c0,0,0.102,0.091,0.686,0.751c0.584,0.661,0.41,0.36,1.246,1.024
			c0.836,0.665,0.482,0.57,0.637,1.179c0.154,0.611,0.268,0.893,0.299,1.976c0.027,1.085,0.016,0.892,0.076,1.854
			c0.061,0.964,0.094,0.846,0.014,1.142c-0.078,0.296-0.125,0.473-0.305,0.679C-110.218,31.488-110.403,30.999-110.8,30.576
			 M-87.608,37.538c-0.336,0.796-0.748,2.585-0.92,3.233c-0.17,0.649-0.553,2.571-1.275,3.392c-0.725,0.819-1.467,1.951-2.156,2.653
			c-0.691,0.702-1.053,1.112-1.459,1.446c-0.4,0.337-0.553,0.423-0.553,0.423s0.174,0.299-0.699,0.257
			c-0.875-0.042-1.188-0.061-1.188-0.061l-0.711,0.063l-1.359-0.359c0,0-1.062-0.281-1.414-0.626
			c-0.352-0.346,0.107-0.161-0.555-0.528c-0.664-0.363-0.826-0.471-1.045-0.591c-0.221-0.122,0.693,0.247-0.221-0.122
			c-0.912-0.369-1.812-0.795-1.812-0.795l-1.793-1.106c0,0-0.793-0.591-1.35-1.115c-0.555-0.527-1.127-0.995-1.127-0.995
			s-0.301-0.775-0.736-1.521c-0.432-0.748-0.623-0.986-0.623-0.986s-0.459-1.134-0.699-1.893c-0.24-0.76-0.131-0.225-0.34-1.102
			c-0.213-0.877-0.256-0.953-0.256-0.953s-0.027-0.134-0.082-0.4c-0.057-0.268-0.1-0.342-0.1-0.342l0.066-0.489
			c0.076-0.296,0.141-0.531,0.141-0.531c0.219-0.827,0.094-0.355,0.189-0.962c0.1-0.606-0.002-0.948-0.002-0.948
			s-0.217-0.374-0.152-0.609c0.061-0.235-0.102-0.343,0.141-0.532c0.24-0.19,0.229-0.383,0.547,0.081
			c0.32,0.465,0.479,0.822,0.479,0.822l-0.02,0.312l-0.127,0.472l0.145,0.418c0.473,0.126-0.324-0.213,0.707,0.188
			c1.031,0.398,0.484,0.316,1.031,0.398c0.551,0.081,0.354,0.347,0.906-0.078c0.557-0.42,0.449-0.258,0.602-0.598
			c0.154-0.34,0.047-0.179,0.26-0.5c0.213-0.323-0.221-0.121,0.318-0.486c0.537-0.361-0.115-0.283,0.537-0.361
			c0.656-0.082,0.521-0.053,1.25-0.175c0.727-0.125,0.357-0.159,0.877-0.21c0.52-0.053,0.846-0.094,0.846-0.094l0.324,0.213
			l0.961,1.14l0.502,1.206c0,0-0.064,0.489,0.553,0.779c0.619,0.289-0.633-0.23,0.781,0.396c1.412,0.626,0.613,0.542,1.592,0.674
			c0.977,0.132,0.998,0.771,1.244,0.077l0.246-0.692l0.033-0.37c0,0,0.242-0.189-0.037-0.577c-0.273-0.392-0.156-0.36-0.625-0.736
			c-0.469-0.378-0.631-0.485-1.072-0.728c-0.439-0.242-1.309-0.789-1.309-0.789l-0.455-0.435c-0.436-0.496-0.113-0.285-0.744-0.766
			c-0.631-0.485-0.879-0.741-0.879-0.741c-0.48-0.569-0.178-0.045-0.803-0.781c-0.629-0.735-0.672-0.811-0.672-0.811l-0.158-0.357
			c-0.174-1.247-0.561-0.272-0.289-1.53c0.268-1.255-0.016-1.141,0.314-1.433c0.33-0.293,0.555-0.423,0.555-0.423
			s0.328-0.04,0.711-0.064c0.387-0.023,0.555-0.422,1.391,0.243c0.838,0.662,0.328,0.906,1.25,0.771
			c0.92-0.136,2.797-0.776,2.797-0.776s0.391-0.276,0.713-0.063s1.053,1.038,1.568,1.237s0.629-0.468,1.535,0.405
			c0.908,0.872,1.615,2.262,1.615,2.262c0.449,0.688,0.281,1.086,1.176,1.763c0.895,0.681,1.256,1.472,1.332,2.376
			C-87.114,34.002-87.608,37.538-87.608,37.538 M-82.632,22.799c0,0-0.078,0.295-0.188,0.71c-0.109,0.412-0.066,0.486-0.145,0.782
			c-0.078,0.297-0.168,0.398-0.475,1.076c-0.307,0.676-0.029,0.117-0.219,0.826c-0.188,0.709-0.121,0.221-0.336,0.796
			c-0.217,0.576-0.23,0.634-0.658,1.28c-0.422,0.646-0.361,0.662-0.605,1.104c-0.244,0.44-0.41,0.587-0.41,0.587
			s-0.148,0.087-0.848,0.345c-0.699,0.255-0.371-0.035-0.619-0.29c-0.248-0.258-0.127-0.478-0.123-0.729
			c0.004-0.251,0.23-0.634,0.311-0.93c0.076-0.294,0.324-0.988,0.463-1.521c0.141-0.531,0.248-0.693,0.613-1.355
			c0.363-0.66,0.168-0.398,0.363-0.66c0.199-0.266,0.262-0.5,0.357-1.107c0.098-0.606-0.109-0.536-0.172-1.501
			c-0.062-0.964,0.113-0.664,0.418-1.342c0.307-0.678,0.199-0.517,0.471-0.824s0.582-0.288,1.043-0.354
			c0.461-0.069,0.441,0.242,0.441,0.242s0.086,0.149,0.377,0.479c0.293,0.33,0.098,0.595,0.162,1.308
			C-82.345,22.43-82.474,22.206-82.632,22.799"/>
		<path clip-path="url(#SVGID_4_)" fill="#EC5F55" d="M57.112,24.058c-0.711-5.777-2.887-10.816-6.576-15.088
			c-4.541-5.394-11.73-8.156-21.566-8.289c-9.545,0.13-16.621,2.812-21.234,8.028c-1.439,1.791-4.238,5.595-5.691,9.697
			c-1.002,3.048-1.498,6.342-1.449,9.895c-0.102,7.506,2.203,13.935,6.91,19.289c4.605,5.488,11.762,8.296,21.465,8.429
			c9.836-0.133,17.025-2.938,21.566-8.422c3.109-3.638,5.127-7.783,6.117-12.415C56.933,33.486,57.603,28.678,57.112,24.058
			 M36.599,16.505c-0.053-0.519-0.201-0.431-0.252-1.203c-0.049-0.772-0.062-0.713,0.008-1.453c0.068-0.74,0.248-0.946,0.373-1.418
			c0.125-0.473,0.482-0.631,0.664-0.836c0.182-0.203,0.357-0.157,1.131-0.206c0.771-0.049,0.471,0.125,0.867,0.545
			c0.393,0.422,0.361,0.539,0.59,1.104c0.23,0.567-0.248,0.946-0.348,1.554c-0.096,0.605-0.279,1.062-0.273,1.76
			s-0.412,1.788-0.566,2.379c-0.158,0.59-0.141,1.479,0.014,2.09c0.154,0.608-0.443,2.157-0.797,3.013
			c-0.354,0.854-0.434,1.402-1.314,1.864c-0.881,0.463-0.492,0.185-1.055,0.162c-0.564-0.022-0.355-0.093-0.604-0.349
			c-0.248-0.255-0.271-0.642-0.271-0.642l-0.006-0.697c0,0-0.027-0.133,0.111-0.663c0.143-0.532,0.109-0.415,0.203-0.769
			c0.094-0.355,0.104-1.111,0.203-1.717c0.098-0.607,0.129-0.726,0.391-1.479c0.262-0.751,0.395-0.778,0.533-1.059
			s0.201-0.517,0.326-0.989C36.651,17.025,36.651,17.025,36.599,16.505 M30.403,19.607c0.254-1.198,0.188-0.709,0.242-1.391
			c0.053-0.682-0.199-0.686-0.086-1.35c0.113-0.666-0.084-0.403,0.238-1.139c0.322-0.734-0.09,0.102,0.412-0.839
			c0.504-0.942,0.775-0.301,0.564-1.18c-0.211-0.876-0.154,0.341-0.238-1.011c-0.086-1.349-0.238-1.01-0.105-1.986
			c0.131-0.978-0.023-0.385,0.271-1.509c0.299-1.122-0.092-0.847,0.389-1.226c0.479-0.378,0.109-0.411,0.688-0.448
			c0.578-0.036,0.953-0.255,0.953-0.255S33.657,7.32,34.36,7.76c0.707,0.438,1.441,1.012,1.344,1.619
			c-0.098,0.605-0.34,1.996-0.418,2.291s-0.322,0.736-0.316,1.435c0.006,0.695-0.15,1.288-0.129,1.925
			c0.02,0.637-0.232,1.835-0.342,2.248c-0.111,0.412-0.279,1.759-0.357,2.055c-0.076,0.295-0.139,0.532-0.371,1.165
			c-0.229,0.635-0.568,1.431-0.705,1.709c-0.137,0.282-0.684,1.149-0.805,1.369c-0.121,0.221-0.482,0.63-0.482,0.63
			c-0.221-0.121-0.324-0.211-0.572-0.466s-0.334-0.404-0.508-0.705c-0.174-0.298-0.289-0.581-0.314-0.968
			c-0.023-0.385-0.152-0.608-0.115-1.23C30.306,20.213,30.149,20.804,30.403,19.607 M23.616,21.604
			c-0.051-0.521,0.279-0.812,0.23-1.583c-0.049-0.772,0.002-0.252-0.031-1.083c-0.031-0.829,0.084-1.748,0.525-2.453
			c0.439-0.707,0.551-0.171,0.713-1.265c0.164-1.095-0.088-0.148-0.229-0.567c-0.143-0.417-0.104-0.09-0.418-0.807
			c-0.318-0.714-0.084-0.399-0.199-0.683c-0.115-0.285-0.086-1.352-0.035-1.78s0.236-0.886,0.803-2.315
			c0.568-1.43,0.449-0.261,0.924-0.388c0.477-0.126,0.475,0.125,1.195,0.506c0.719,0.381,0.115,0.284,0.312,0.966
			c0.197,0.686,0.125,0.479,0.219,1.324c0.09,0.846,0.031,0.831-0.232,1.835c-0.266,1.004-0.199,0.515-0.496,1.385
			c-0.293,0.872-0.031,0.119-0.17,0.652c-0.141,0.531,0.021,0.637,0.021,0.637s0.211,0.625,0.229,1.514
			c0.02,0.891,0.021,0.639,0.016,1.145c-0.008,0.502-0.16,0.841-0.195,1.211s0.135,0.922,0.213,1.827
			c0.076,0.903-0.125,1.42-0.324,1.937c-0.199,0.515-0.805,0.418-0.805,0.418s-0.328,0.04-0.682-0.054
			c-0.355-0.095-0.059-0.016-0.855-0.353c-0.795-0.336-0.25-0.254-0.592-1.104C23.409,21.675,23.671,22.122,23.616,21.604
			 M15.489,30.576c-0.395-0.418,0,0-0.908-0.87c-0.904-0.872-0.408-0.361-1.213-1.145c-0.805-0.781-0.387-0.923-0.574-1.414
			c-0.186-0.493-0.1-0.344-0.135-0.921c-0.037-0.58-0.164-1.057-0.42-1.756c-0.258-0.701-0.215-0.626-0.215-0.626
			s-0.072-0.208,0.039-0.62c0.109-0.416,0.676-0.645,0.676-0.645l0.857,0.101c0,0,0.102,0.091,0.688,0.751
			c0.584,0.661,0.408,0.36,1.244,1.024c0.836,0.665,0.482,0.57,0.637,1.179c0.154,0.611,0.27,0.893,0.299,1.976
			c0.029,1.085,0.016,0.892,0.078,1.854c0.061,0.964,0.092,0.846,0.014,1.142s-0.125,0.473-0.307,0.679
			C16.069,31.488,15.884,30.999,15.489,30.576 M38.681,37.538c-0.338,0.796-0.748,2.585-0.92,3.233
			c-0.172,0.649-0.555,2.571-1.277,3.392c-0.723,0.819-1.465,1.951-2.154,2.653c-0.693,0.702-1.055,1.112-1.459,1.446
			c-0.404,0.337-0.553,0.423-0.553,0.423s0.172,0.299-0.701,0.257c-0.875-0.042-1.186-0.061-1.186-0.061l-0.711,0.063l-1.361-0.359
			c0,0-1.062-0.281-1.412-0.626c-0.354-0.346,0.105-0.161-0.557-0.528c-0.664-0.363-0.824-0.471-1.045-0.591
			c-0.221-0.122,0.693,0.247-0.221-0.122s-1.812-0.795-1.812-0.795l-1.793-1.106c0,0-0.793-0.591-1.35-1.115
			c-0.555-0.527-1.127-0.995-1.127-0.995s-0.299-0.775-0.734-1.521c-0.434-0.748-0.623-0.986-0.623-0.986s-0.461-1.134-0.701-1.893
			c-0.24-0.76-0.129-0.225-0.34-1.102s-0.254-0.953-0.254-0.953s-0.027-0.134-0.084-0.4c-0.057-0.268-0.1-0.342-0.1-0.342
			l0.066-0.489c0.078-0.296,0.141-0.531,0.141-0.531c0.219-0.827,0.094-0.355,0.191-0.962s-0.002-0.948-0.002-0.948
			s-0.217-0.374-0.154-0.609s-0.1-0.343,0.141-0.532c0.24-0.19,0.229-0.383,0.547,0.081c0.32,0.465,0.48,0.822,0.48,0.822
			l-0.02,0.312l-0.127,0.472l0.145,0.418c0.471,0.126-0.324-0.213,0.707,0.188c1.031,0.398,0.484,0.316,1.031,0.398
			c0.549,0.081,0.352,0.347,0.904-0.078c0.557-0.42,0.451-0.258,0.604-0.598s0.047-0.179,0.258-0.5
			c0.215-0.323-0.219-0.121,0.318-0.486c0.537-0.361-0.113-0.283,0.537-0.361c0.654-0.082,0.521-0.053,1.25-0.175
			c0.727-0.125,0.357-0.159,0.877-0.21c0.52-0.053,0.846-0.094,0.846-0.094l0.324,0.213l0.963,1.14l0.5,1.206
			c0,0-0.066,0.489,0.553,0.779c0.621,0.289-0.633-0.23,0.781,0.396s0.615,0.542,1.592,0.674s0.998,0.771,1.244,0.077l0.246-0.692
			l0.033-0.37c0,0,0.24-0.189-0.035-0.577c-0.275-0.392-0.158-0.36-0.627-0.736c-0.469-0.378-0.631-0.485-1.072-0.728
			s-1.307-0.789-1.307-0.789l-0.455-0.435c-0.438-0.496-0.115-0.285-0.744-0.766c-0.631-0.485-0.881-0.741-0.881-0.741
			c-0.48-0.569-0.178-0.045-0.803-0.781c-0.629-0.735-0.672-0.811-0.672-0.811l-0.158-0.357c-0.174-1.247-0.559-0.272-0.289-1.53
			c0.27-1.255-0.016-1.141,0.316-1.433c0.328-0.293,0.553-0.423,0.553-0.423s0.328-0.04,0.713-0.064
			c0.385-0.023,0.555-0.422,1.391,0.243c0.836,0.662,0.328,0.906,1.248,0.771c0.922-0.136,2.797-0.776,2.797-0.776
			s0.389-0.276,0.713-0.063c0.322,0.213,1.053,1.038,1.568,1.237s0.629-0.468,1.537,0.405c0.906,0.872,1.613,2.262,1.613,2.262
			c0.449,0.688,0.281,1.086,1.178,1.763c0.895,0.681,1.254,1.472,1.33,2.376C39.175,34.002,38.681,37.538,38.681,37.538
			 M43.655,22.799c0,0-0.078,0.295-0.188,0.71c-0.109,0.412-0.064,0.486-0.145,0.782c-0.078,0.297-0.166,0.398-0.473,1.076
			c-0.307,0.676-0.031,0.117-0.221,0.826c-0.186,0.709-0.121,0.221-0.336,0.796c-0.215,0.576-0.23,0.634-0.656,1.28
			c-0.424,0.646-0.363,0.662-0.607,1.104c-0.244,0.44-0.408,0.587-0.408,0.587s-0.148,0.087-0.85,0.345
			c-0.699,0.255-0.369-0.035-0.617-0.29c-0.25-0.258-0.127-0.478-0.125-0.729c0.004-0.251,0.232-0.634,0.311-0.93
			c0.076-0.294,0.324-0.988,0.465-1.521c0.139-0.531,0.248-0.693,0.611-1.355c0.365-0.66,0.17-0.398,0.365-0.66
			c0.197-0.266,0.26-0.5,0.357-1.107c0.096-0.606-0.111-0.536-0.174-1.501c-0.061-0.964,0.115-0.664,0.42-1.342
			s0.199-0.517,0.469-0.824c0.273-0.308,0.582-0.288,1.045-0.354c0.459-0.069,0.439,0.242,0.439,0.242s0.088,0.149,0.377,0.479
			c0.295,0.33,0.098,0.595,0.162,1.308C43.942,22.43,43.813,22.206,43.655,22.799"/>
		<path clip-path="url(#SVGID_4_)" fill="#DBE1E4" d="M188.942,24.058c-0.711-5.777-2.887-10.816-6.576-15.088
			c-4.543-5.394-11.732-8.156-21.566-8.289c-9.547,0.13-16.623,2.812-21.234,8.028c-1.441,1.791-4.24,5.595-5.691,9.697
			c-1.004,3.048-1.498,6.342-1.449,9.895c-0.102,7.506,2.201,13.935,6.908,19.289c4.607,5.488,11.764,8.296,21.467,8.429
			c9.834-0.133,17.023-2.938,21.566-8.422c3.107-3.638,5.125-7.783,6.115-12.415C188.763,33.486,189.433,28.678,188.942,24.058
			 M168.427,16.505c-0.051-0.519-0.201-0.431-0.25-1.203s-0.064-0.713,0.006-1.453s0.25-0.946,0.375-1.418
			c0.125-0.473,0.482-0.631,0.664-0.836c0.18-0.203,0.357-0.157,1.129-0.206s0.473,0.125,0.867,0.545
			c0.395,0.422,0.363,0.539,0.592,1.104c0.23,0.567-0.25,0.946-0.348,1.554c-0.096,0.605-0.279,1.062-0.275,1.76
			c0.006,0.697-0.41,1.788-0.566,2.379c-0.156,0.59-0.139,1.479,0.014,2.09c0.156,0.608-0.441,2.157-0.797,3.013
			c-0.352,0.854-0.434,1.402-1.314,1.864c-0.881,0.463-0.492,0.185-1.055,0.162s-0.355-0.093-0.604-0.349
			c-0.246-0.255-0.271-0.642-0.271-0.642l-0.006-0.697c0,0-0.027-0.133,0.113-0.663c0.141-0.532,0.109-0.415,0.203-0.769
			c0.094-0.355,0.104-1.111,0.201-1.717c0.098-0.607,0.129-0.726,0.391-1.479c0.264-0.751,0.396-0.778,0.533-1.059
			c0.139-0.28,0.201-0.517,0.326-0.989C168.479,17.025,168.479,17.025,168.427,16.505 M162.233,19.607
			c0.252-1.198,0.188-0.709,0.24-1.391c0.055-0.682-0.197-0.686-0.086-1.35c0.113-0.666-0.082-0.403,0.24-1.139
			c0.32-0.734-0.092,0.102,0.412-0.839c0.502-0.942,0.773-0.301,0.564-1.18c-0.211-0.876-0.154,0.341-0.24-1.011
			c-0.084-1.349-0.236-1.01-0.105-1.986c0.133-0.978-0.023-0.385,0.273-1.509c0.299-1.122-0.092-0.847,0.389-1.226
			c0.479-0.378,0.109-0.411,0.688-0.448c0.578-0.036,0.951-0.255,0.951-0.255s-0.074,0.045,0.631,0.484
			c0.707,0.438,1.439,1.012,1.342,1.619c-0.098,0.605-0.34,1.996-0.418,2.291s-0.32,0.736-0.316,1.435
			c0.006,0.695-0.148,1.288-0.129,1.925s-0.232,1.835-0.342,2.248c-0.111,0.412-0.277,1.759-0.355,2.055
			c-0.078,0.295-0.141,0.532-0.371,1.165c-0.23,0.635-0.568,1.431-0.707,1.709c-0.135,0.282-0.682,1.149-0.803,1.369
			c-0.123,0.221-0.482,0.63-0.482,0.63c-0.223-0.121-0.324-0.211-0.572-0.466s-0.336-0.404-0.508-0.705
			c-0.176-0.298-0.291-0.581-0.316-0.968c-0.023-0.385-0.152-0.608-0.113-1.23C162.136,20.213,161.979,20.804,162.233,19.607
			 M155.446,21.604c-0.051-0.521,0.277-0.812,0.229-1.583c-0.049-0.772,0.004-0.252-0.029-1.083
			c-0.033-0.829,0.084-1.748,0.523-2.453c0.439-0.707,0.551-0.171,0.713-1.265c0.166-1.095-0.086-0.148-0.229-0.567
			c-0.143-0.417-0.102-0.09-0.418-0.807c-0.316-0.714-0.082-0.399-0.199-0.683c-0.113-0.285-0.086-1.352-0.035-1.78
			s0.236-0.886,0.805-2.315c0.566-1.43,0.447-0.261,0.924-0.388c0.477-0.126,0.473,0.125,1.195,0.506
			c0.719,0.381,0.113,0.284,0.311,0.966c0.197,0.686,0.127,0.479,0.219,1.324s0.033,0.831-0.232,1.835
			c-0.264,1.004-0.199,0.515-0.494,1.385c-0.293,0.872-0.031,0.119-0.172,0.652c-0.141,0.531,0.021,0.637,0.021,0.637
			s0.213,0.625,0.23,1.514c0.02,0.891,0.021,0.639,0.014,1.145c-0.008,0.502-0.16,0.841-0.193,1.211
			c-0.035,0.37,0.135,0.922,0.213,1.827c0.076,0.903-0.125,1.42-0.324,1.937c-0.199,0.515-0.807,0.418-0.807,0.418
			s-0.326,0.04-0.68-0.054c-0.355-0.095-0.059-0.016-0.855-0.353c-0.797-0.336-0.25-0.254-0.594-1.104
			C155.237,21.675,155.499,22.122,155.446,21.604 M147.317,30.576c-0.393-0.418,0,0-0.906-0.87c-0.906-0.872-0.41-0.361-1.215-1.145
			c-0.805-0.781-0.387-0.923-0.572-1.414c-0.186-0.493-0.1-0.344-0.135-0.921c-0.039-0.58-0.164-1.057-0.422-1.756
			c-0.258-0.701-0.215-0.626-0.215-0.626s-0.07-0.208,0.041-0.62c0.107-0.416,0.674-0.645,0.674-0.645l0.857,0.101
			c0,0,0.104,0.091,0.688,0.751c0.584,0.661,0.41,0.36,1.246,1.024c0.836,0.665,0.482,0.57,0.637,1.179
			c0.154,0.611,0.268,0.893,0.297,1.976c0.029,1.085,0.018,0.892,0.078,1.854c0.061,0.964,0.092,0.846,0.014,1.142
			c-0.076,0.296-0.123,0.473-0.305,0.679C147.899,31.488,147.712,30.999,147.317,30.576 M170.509,37.538
			c-0.336,0.796-0.748,2.585-0.92,3.233c-0.17,0.649-0.553,2.571-1.275,3.392c-0.725,0.819-1.465,1.951-2.156,2.653
			s-1.053,1.112-1.459,1.446c-0.402,0.337-0.553,0.423-0.553,0.423s0.174,0.299-0.701,0.257c-0.873-0.042-1.186-0.061-1.186-0.061
			l-0.711,0.063l-1.359-0.359c0,0-1.064-0.281-1.414-0.626c-0.352-0.346,0.105-0.161-0.557-0.528
			c-0.662-0.363-0.824-0.471-1.045-0.591c-0.219-0.122,0.695,0.247-0.219-0.122s-1.812-0.795-1.812-0.795l-1.793-1.106
			c0,0-0.793-0.591-1.35-1.115c-0.555-0.527-1.127-0.995-1.127-0.995s-0.301-0.775-0.736-1.521
			c-0.434-0.748-0.621-0.986-0.621-0.986s-0.461-1.134-0.703-1.893c-0.238-0.76-0.129-0.225-0.338-1.102
			c-0.213-0.877-0.256-0.953-0.256-0.953s-0.027-0.134-0.082-0.4c-0.057-0.268-0.1-0.342-0.1-0.342l0.064-0.489
			c0.08-0.296,0.143-0.531,0.143-0.531c0.219-0.827,0.094-0.355,0.189-0.962c0.1-0.606-0.002-0.948-0.002-0.948
			s-0.217-0.374-0.154-0.609s-0.098-0.343,0.141-0.532c0.242-0.19,0.229-0.383,0.549,0.081c0.32,0.465,0.479,0.822,0.479,0.822
			l-0.02,0.312l-0.125,0.472l0.143,0.418c0.473,0.126-0.324-0.213,0.707,0.188c1.031,0.398,0.486,0.316,1.031,0.398
			c0.549,0.081,0.354,0.347,0.906-0.078c0.555-0.42,0.449-0.258,0.602-0.598s0.047-0.179,0.258-0.5
			c0.215-0.323-0.219-0.121,0.32-0.486c0.537-0.361-0.115-0.283,0.537-0.361c0.654-0.082,0.521-0.053,1.25-0.175
			c0.725-0.125,0.357-0.159,0.877-0.21c0.518-0.053,0.846-0.094,0.846-0.094l0.324,0.213l0.961,1.14l0.502,1.206
			c0,0-0.066,0.489,0.553,0.779c0.619,0.289-0.635-0.23,0.779,0.396s0.615,0.542,1.594,0.674c0.977,0.132,0.996,0.771,1.242,0.077
			l0.248-0.692l0.033-0.37c0,0,0.24-0.189-0.037-0.577c-0.275-0.392-0.156-0.36-0.627-0.736c-0.467-0.378-0.629-0.485-1.072-0.728
			c-0.439-0.242-1.307-0.789-1.307-0.789l-0.455-0.435c-0.436-0.496-0.113-0.285-0.744-0.766c-0.631-0.485-0.879-0.741-0.879-0.741
			c-0.482-0.569-0.18-0.045-0.805-0.781c-0.627-0.735-0.672-0.811-0.672-0.811l-0.156-0.357c-0.176-1.247-0.561-0.272-0.291-1.53
			c0.27-1.255-0.014-1.141,0.316-1.433c0.33-0.293,0.553-0.423,0.553-0.423s0.328-0.04,0.713-0.064
			c0.387-0.023,0.555-0.422,1.391,0.243c0.836,0.662,0.328,0.906,1.25,0.771c0.92-0.136,2.797-0.776,2.797-0.776
			s0.389-0.276,0.713-0.063c0.322,0.213,1.053,1.038,1.568,1.237s0.629-0.468,1.535,0.405c0.908,0.872,1.615,2.262,1.615,2.262
			c0.449,0.688,0.281,1.086,1.176,1.763c0.895,0.681,1.256,1.472,1.332,2.376C171.003,34.002,170.509,37.538,170.509,37.538
			 M175.483,22.799c0,0-0.076,0.295-0.186,0.71c-0.109,0.412-0.066,0.486-0.145,0.782c-0.078,0.297-0.168,0.398-0.473,1.076
			c-0.309,0.676-0.033,0.117-0.221,0.826s-0.123,0.221-0.338,0.796c-0.215,0.576-0.229,0.634-0.654,1.28
			c-0.424,0.646-0.365,0.662-0.607,1.104c-0.244,0.44-0.41,0.587-0.41,0.587s-0.148,0.087-0.85,0.345
			c-0.697,0.255-0.369-0.035-0.617-0.29c-0.248-0.258-0.127-0.478-0.123-0.729c0.004-0.251,0.23-0.634,0.309-0.93
			c0.078-0.294,0.324-0.988,0.465-1.521c0.141-0.531,0.248-0.693,0.613-1.355c0.363-0.66,0.168-0.398,0.363-0.66
			c0.197-0.266,0.26-0.5,0.357-1.107c0.098-0.606-0.111-0.536-0.172-1.501c-0.062-0.964,0.113-0.664,0.418-1.342
			s0.199-0.517,0.471-0.824s0.582-0.288,1.043-0.354c0.461-0.069,0.439,0.242,0.439,0.242s0.088,0.149,0.379,0.479
			c0.295,0.33,0.098,0.595,0.162,1.308C175.772,22.43,175.642,22.206,175.483,22.799"/>
		<path clip-path="url(#SVGID_4_)" fill="#00A99D" d="M268.194-116.125c-0.67-1.627-1.596-2.993-2.775-4.091
			c-2.332-2.298-5.174-3.927-8.525-4.89c-3.516-1.101-6.928-1.914-10.24-2.448c-1.555-0.266-3.008-0.547-4.361-0.847
			c-1.316-0.199-2.467-0.467-3.445-0.799c-0.543-0.266-1.066-0.648-1.572-1.148c-0.541-0.398-0.811-0.932-0.811-1.596
			c0-1.697,0.727-2.828,2.182-3.396c1.312-0.463,2.768-0.696,4.365-0.696c1.809,0,3.406,0.526,4.791,1.576
			c1.377,0.883,2.129,2.22,2.258,4.017h17.656c-0.164-3.448-1.014-6.269-2.545-8.457c-1.539-2.222-3.547-3.914-6.029-5.074
			c-5.191-2.189-10.775-3.234-16.752-3.135c-2.646,0-5.34,0.231-8.084,0.693c-2.873,0.464-5.551,1.342-8.033,2.629
			c-2.482,1.159-4.492,2.863-6.025,5.112c-1.6,2.216-2.4,4.977-2.4,8.282c0,4.433,1.686,7.955,5.059,10.566
			c3.404,2.714,8.893,4.714,16.465,6.003c4.596,0.762,7.639,1.506,9.127,2.233c1.354,0.762,1.998,1.885,1.932,3.373
			c-0.064,1.488-0.84,2.531-2.324,3.125c-1.551,0.631-3.035,0.943-4.453,0.943c-2.51,0-4.307-0.508-5.396-1.521
			c-1.484-1.277-2.293-2.816-2.424-4.616h-19.152c0.047,0.637,0.123,1.249,0.211,1.85l-17.338,0.03
			c-0.795,1.223-1.967,2.132-3.521,2.727c-1.553,0.696-3.191,1.042-4.908,1.042c-3.176,0-5.574-0.992-7.193-2.978
			c-1.688-1.882-2.693-4.314-3.023-7.289h38.545c0.197-21.206-9.666-31.941-29.592-32.205c-8.297,0.133-14.928,2.793-19.891,7.983
			c-3.701,3.915-6.025,8.569-7.018,13.938c0.764,4.618,0.291,9.419-0.051,11.815c1.043,5.967,3.67,10.759,7.904,14.362
			c5.326,4.759,12.238,7.174,20.734,7.238c6.109,0,11.568-1.356,16.369-4.066c4.154-2.329,7.297-5.762,9.451-10.284
			c1.191,4.532,3.797,7.902,7.832,10.105c5.215,2.83,11.033,4.245,17.459,4.245c6.584,0.066,12.582-1.217,17.996-3.85
			c2.543-1.415,4.58-3.34,6.111-5.778c1.535-2.302,2.301-5.264,2.301-8.886C269.058-112.547,268.771-114.493,268.194-116.125
			 M191.71-134.244c2.768,0,4.973,0.851,6.613,2.552c1.604,1.704,2.441,3.823,2.508,6.358h-19.83
			C181.956-131.206,185.526-134.177,191.71-134.244"/>
	</g>
</g>
</svg>
