<?xml version="1.0" encoding="utf-8"?>
<!-- Generator: Adobe Illustrator 16.0.0, SVG Export Plug-In . SVG Version: 6.00 Build 0)  -->
<!DOCTYPE svg PUBLIC "-//W3C//DTD SVG 1.1//EN" "http://www.w3.org/Graphics/SVG/1.1/DTD/svg11.dtd">
<svg version="1.1" id="Layer_1" xmlns="http://www.w3.org/2000/svg" xmlns:xlink="http://www.w3.org/1999/xlink" x="0px" y="0px"
	 viewBox="0 0 283 46.128" enable-background="new 0 0 283 46.128" xml:space="preserve">
<g>
	<g>
		<path fill-rule="evenodd" clip-rule="evenodd" fill="#595A5C" d="M18.486,30.886h-0.107c-0.718,1.938-1.929,3.46-3.633,4.563
			c-1.753,1.102-3.689,1.671-5.81,1.703C6.648,37.12,4.871,36.685,3.6,35.849c-1.284-0.752-2.219-1.704-2.804-2.858
			c-0.552-1.169-0.893-2.355-1.028-3.56c-0.142-1.152-0.213-2.139-0.213-2.958V10.127h1.925v16.692c0,0.686,0.071,1.504,0.216,2.455
			c0.132,0.937,0.424,1.881,0.876,2.833c0.502,0.952,1.256,1.721,2.261,2.306c0.986,0.686,2.367,1.027,4.142,1.027
			c3.027-0.033,5.363-1.077,7.002-3.133c1.675-1.988,2.511-4.619,2.511-7.895V10.127h1.963v26.399h-1.963V30.886"/>
		<path fill-rule="evenodd" clip-rule="evenodd" fill="#595A5C" d="M41.855,19.819c0-0.719-0.036-1.571-0.108-2.557
			c-0.134-0.953-0.442-1.897-0.928-2.833c-0.434-0.953-1.17-1.721-2.206-2.305c-1.054-0.585-2.474-0.895-4.263-0.928
			c-2.94,0.033-5.248,1.06-6.92,3.083c-1.723,2.022-2.583,4.678-2.583,7.969v14.26h-1.925V10.123h1.925v5.664h0.144
			c0.717-2.021,1.945-3.583,3.683-4.687c1.736-1.052,3.65-1.579,5.739-1.579c2.338,0.034,4.15,0.426,5.437,1.178
			c1.304,0.785,2.23,1.763,2.781,2.932c0.584,1.153,0.943,2.314,1.078,3.484c0.071,1.202,0.106,2.23,0.106,3.081V36.51h-1.96V19.819
			z"/>
		<rect x="46.861" y="-0.141" fill-rule="evenodd" clip-rule="evenodd" fill="#595A5C" width="1.961" height="36.651"/>
		<rect x="52.033" y="-0.141" fill-rule="evenodd" clip-rule="evenodd" fill="#595A5C" width="1.962" height="5.29"/>
		<rect x="52.033" y="10.113" fill-rule="evenodd" clip-rule="evenodd" fill="#595A5C" width="1.962" height="26.396"/>
		<polygon fill-rule="evenodd" clip-rule="evenodd" fill="#595A5C" points="79.234,36.51 76.577,36.51 65.321,21.47 59.33,26.558 
			59.33,36.51 57.369,36.51 57.369,-0.141 59.33,-0.141 59.33,24.126 75.601,10.112 78.407,10.112 66.876,19.99 		"/>
		<path fill="#595A5C" d="M96.739,13.677c-1.923-2.704-4.958-4.089-9.103-4.156c-3.931,0.067-6.873,1.521-8.827,4.363
			c-1.957,2.808-2.895,6.109-2.809,9.904c-0.033,3.729,0.935,6.862,2.907,9.402c1.954,2.559,4.861,3.879,8.721,3.962
			c6.432-0.083,10.233-3.27,11.403-9.558h-1.961c-1.119,5.165-4.269,7.779-9.448,7.846c-3.239-0.033-5.662-1.244-7.267-3.639
			c-1.653-2.309-2.465-5.053-2.431-8.233h21.32C99.464,19.628,98.628,16.332,96.739,13.677z M77.926,21.857
			c0.252-2.719,1.194-5.155,2.833-7.308c1.638-2.152,3.93-3.27,6.872-3.353c3.06,0.083,5.424,1.159,7.096,3.228
			c1.64,2.085,2.492,4.563,2.559,7.432H77.926z"/>
		<rect x="100.402" y="-0.141" fill-rule="evenodd" clip-rule="evenodd" fill="#595A5C" width="1.961" height="36.651"/>
		<path fill-rule="evenodd" clip-rule="evenodd" fill="#595A5C" d="M114.899,39.356c-0.483,1.287-0.977,2.398-1.479,3.336
			c-0.519,0.919-1.052,1.621-1.604,2.105c-1.27,0.852-3.326,1.244-6.167,1.178v-1.705c1.371,0,2.482-0.117,3.334-0.352
			c0.802-0.233,1.521-0.677,2.156-1.328c0.685-0.719,1.597-2.791,2.733-6.217l-11.03-26.247h2.307l9.8,24.09l9.026-24.09h2.206
			L114.899,39.356z"/>
	</g>
	<g>
		<path fill="#00A89C" d="M151.61,11.546c-1.731-1.472-3.803-2.207-6.215-2.207c-2.198,0-3.953,0.317-5.27,0.954
			c-1.348,0.651-2.465,1.512-3.347,2.581h-0.099V0h-9.837v36.646h9.831V22.602c0-1.069,0.14-1.962,0.419-2.681
			c0.295-0.684,0.654-1.192,1.073-1.526c0.874-0.651,1.788-0.961,2.749-0.926c1.536,0,2.515,0.477,2.934,1.428
			c0.399,0.968,0.584,2.236,0.55,3.805v13.944h9.834V18.366C154.201,15.291,153.326,13.018,151.61,11.546z"/>
		<path fill="#00A89C" d="M203.501,13.149V9.741c-0.941-0.268-1.905-0.401-2.892-0.401c-1.764,0-3.203,0.411-4.321,1.235
			c-1.166,0.853-2.145,2.081-2.938,3.686h-0.097V9.999h-9.445v26.647h9.83V26.118c0.03-5.431,2.023-8.112,5.976-8.046
			c0.354,0,0.681,0.008,0.98,0.021C201.362,15.954,202.783,14.033,203.501,13.149z"/>
		<path fill="#00A89C" d="M168.455,9.34c-4.196,0.067-7.549,1.412-10.062,4.038c-2.528,2.677-3.809,6.02-3.842,10.034
			c0.034,4.447,1.454,7.866,4.265,10.259c2.694,2.406,6.189,3.628,10.49,3.66c3.09,0,5.85-0.686,8.28-2.056
			c2.445-1.372,4.205-3.496,5.281-6.374l-9.51,0.018c-0.4,0.618-0.993,1.078-1.779,1.379c-0.789,0.352-1.614,0.526-2.486,0.526
			c-1.604,0-2.815-0.501-3.637-1.506c-0.852-0.952-1.364-2.183-1.53-3.688h19.498C183.524,14.904,178.536,9.473,168.455,9.34z
			 M163.975,20.355c0.483-2.97,2.29-4.474,5.417-4.508c1.4,0,2.515,0.431,3.346,1.292c0.81,0.861,1.233,1.933,1.27,3.216H163.975z"
			/>
		<path fill="#00A89C" d="M228.698,21.165c-0.359-2.923-1.459-5.471-3.326-7.633c-2.298-2.728-5.936-4.125-10.909-4.192
			c-4.829,0.065-8.408,1.421-10.741,4.061c-0.729,0.905-2.145,2.831-2.878,4.905c-0.51,1.542-0.759,3.208-0.734,5.004
			c-0.05,3.798,1.114,7.05,3.494,9.759c2.331,2.775,5.951,4.195,10.859,4.262c4.974-0.066,8.611-1.485,10.909-4.258
			c1.572-1.841,2.594-3.939,3.094-6.281C228.607,25.935,228.946,23.501,228.698,21.165z M218.32,17.344
			c-0.025-0.262-0.102-0.218-0.126-0.608c-0.025-0.391-0.032-0.361,0.003-0.735c0.036-0.374,0.127-0.479,0.189-0.717
			c0.062-0.24,0.245-0.32,0.336-0.424c0.091-0.103,0.181-0.08,0.571-0.104c0.392-0.025,0.239,0.062,0.438,0.275
			c0.2,0.214,0.185,0.274,0.299,0.56c0.117,0.287-0.126,0.478-0.175,0.785c-0.049,0.308-0.142,0.539-0.139,0.891
			c0.002,0.352-0.209,0.904-0.287,1.203c-0.079,0.299-0.071,0.749,0.006,1.058c0.08,0.308-0.223,1.092-0.403,1.525
			c-0.176,0.433-0.218,0.708-0.664,0.942c-0.445,0.234-0.248,0.093-0.531,0.083c-0.287-0.012-0.184-0.048-0.307-0.177
			c-0.125-0.128-0.139-0.323-0.139-0.323l-0.001-0.354c0,0-0.015-0.068,0.056-0.336c0.071-0.269,0.055-0.21,0.102-0.389
			c0.049-0.179,0.055-0.562,0.104-0.868c0.049-0.307,0.065-0.367,0.198-0.748c0.133-0.379,0.199-0.394,0.27-0.536
			c0.069-0.142,0.102-0.26,0.165-0.5C218.348,17.607,218.348,17.607,218.32,17.344z M215.188,18.914
			c0.127-0.606,0.094-0.358,0.121-0.703c0.028-0.345-0.101-0.347-0.042-0.683c0.056-0.336-0.044-0.203,0.12-0.576
			c0.162-0.373-0.046,0.052,0.209-0.424c0.253-0.477,0.391-0.152,0.283-0.596c-0.105-0.443-0.077,0.172-0.12-0.512
			c-0.041-0.681-0.118-0.511-0.053-1.004c0.066-0.495-0.013-0.195,0.138-0.764c0.151-0.568-0.047-0.428,0.196-0.619
			s0.055-0.209,0.349-0.228c0.291-0.018,0.48-0.128,0.48-0.128s-0.037,0.022,0.319,0.244c0.357,0.223,0.728,0.514,0.68,0.82
			c-0.05,0.306-0.173,1.01-0.212,1.159c-0.04,0.149-0.16,0.373-0.159,0.725c0.003,0.353-0.075,0.651-0.067,0.974
			c0.012,0.322-0.117,0.929-0.172,1.137c-0.057,0.209-0.14,0.89-0.181,1.04c-0.038,0.149-0.069,0.269-0.187,0.59
			c-0.117,0.32-0.288,0.723-0.358,0.864c-0.067,0.143-0.345,0.581-0.405,0.692c-0.063,0.112-0.244,0.318-0.244,0.318
			c-0.113-0.061-0.164-0.107-0.29-0.236s-0.17-0.203-0.256-0.355c-0.089-0.151-0.147-0.294-0.159-0.489
			c-0.013-0.195-0.078-0.308-0.06-0.624C215.138,19.22,215.059,19.519,215.188,18.914z M211.755,19.923
			c-0.026-0.263,0.142-0.41,0.115-0.801c-0.023-0.391,0.002-0.127-0.015-0.547c-0.018-0.42,0.043-0.885,0.266-1.242
			c0.223-0.356,0.277-0.085,0.359-0.639c0.084-0.554-0.043-0.075-0.115-0.288c-0.071-0.21-0.051-0.044-0.211-0.408
			c-0.16-0.361-0.042-0.202-0.102-0.346c-0.057-0.143-0.041-0.683-0.018-0.899c0.026-0.218,0.12-0.449,0.406-1.172
			c0.287-0.724,0.227-0.132,0.468-0.196s0.241,0.063,0.605,0.255c0.364,0.194,0.057,0.144,0.157,0.49
			c0.101,0.347,0.063,0.242,0.11,0.67c0.046,0.428,0.016,0.42-0.118,0.928c-0.133,0.509-0.101,0.261-0.25,0.701
			c-0.148,0.441-0.016,0.06-0.085,0.33c-0.071,0.269,0.009,0.322,0.009,0.322s0.107,0.316,0.117,0.766
			c0.009,0.45,0.01,0.323,0.007,0.578c-0.004,0.254-0.081,0.427-0.098,0.613c-0.018,0.187,0.067,0.467,0.108,0.923
			c0.037,0.458-0.064,0.719-0.165,0.98s-0.408,0.211-0.408,0.211s-0.165,0.021-0.344-0.027c-0.179-0.048-0.029-0.008-0.432-0.179
			c-0.403-0.17-0.126-0.128-0.302-0.559C211.649,19.96,211.783,20.187,211.755,19.923z M207.643,24.462
			c-0.199-0.211,0,0-0.459-0.439c-0.458-0.441-0.207-0.184-0.613-0.579c-0.408-0.395-0.195-0.468-0.29-0.716
			c-0.094-0.25-0.051-0.173-0.068-0.465c-0.02-0.294-0.083-0.534-0.213-0.888c-0.131-0.356-0.109-0.317-0.109-0.317
			s-0.036-0.105,0.021-0.314c0.055-0.211,0.342-0.327,0.342-0.327l0.433,0.052c0,0,0.053,0.045,0.349,0.38
			c0.296,0.334,0.208,0.182,0.631,0.518c0.422,0.336,0.244,0.29,0.322,0.597c0.077,0.309,0.135,0.451,0.149,0.999
			c0.016,0.548,0.009,0.45,0.04,0.938c0.03,0.487,0.046,0.428,0.007,0.577c-0.039,0.15-0.063,0.239-0.153,0.343
			C207.937,24.923,207.843,24.676,207.643,24.462z M219.374,27.984c-0.171,0.402-0.378,1.307-0.465,1.636
			c-0.087,0.328-0.279,1.301-0.646,1.715c-0.366,0.416-0.741,0.986-1.091,1.342c-0.351,0.355-0.532,0.564-0.737,0.732
			c-0.205,0.171-0.281,0.213-0.281,0.213s0.089,0.151-0.354,0.131c-0.441-0.021-0.599-0.031-0.599-0.031l-0.359,0.033l-0.688-0.182
			c0,0-0.538-0.143-0.714-0.318c-0.178-0.174,0.052-0.08-0.283-0.266s-0.416-0.238-0.529-0.301
			c-0.109-0.061,0.354,0.127-0.109-0.061c-0.463-0.187-0.916-0.402-0.916-0.402l-0.909-0.56c0,0-0.399-0.3-0.683-0.563
			c-0.278-0.268-0.568-0.504-0.568-0.504s-0.153-0.392-0.373-0.77c-0.218-0.379-0.314-0.5-0.314-0.5s-0.232-0.572-0.355-0.957
			c-0.121-0.383-0.065-0.113-0.17-0.557c-0.109-0.443-0.129-0.482-0.129-0.482s-0.016-0.068-0.043-0.203s-0.051-0.172-0.051-0.172
			l0.033-0.247c0.041-0.15,0.071-0.27,0.071-0.27c0.111-0.419,0.048-0.181,0.096-0.486c0.052-0.306,0-0.479,0-0.479
			s-0.11-0.189-0.079-0.309c0.032-0.12-0.048-0.174,0.073-0.27s0.114-0.192,0.276,0.041c0.163,0.235,0.241,0.417,0.241,0.417
			l-0.01,0.157l-0.062,0.238l0.072,0.211c0.238,0.064-0.163-0.107,0.356,0.096c0.522,0.201,0.248,0.16,0.522,0.201
			c0.278,0.041,0.178,0.176,0.458-0.039c0.28-0.211,0.228-0.131,0.305-0.302c0.077-0.173,0.025-0.091,0.132-0.253
			c0.108-0.164-0.111-0.062,0.16-0.247c0.272-0.183-0.058-0.143,0.272-0.183c0.331-0.041,0.265-0.025,0.633-0.088
			c0.366-0.063,0.181-0.08,0.442-0.105c0.264-0.027,0.429-0.049,0.429-0.049l0.164,0.109l0.485,0.575l0.255,0.61
			c0,0-0.034,0.248,0.279,0.395c0.313,0.146-0.321-0.117,0.394,0.199c0.716,0.317,0.312,0.274,0.808,0.342
			c0.492,0.066,0.503,0.389,0.626,0.038c0.127-0.35,0.127-0.35,0.127-0.35l0.017-0.188c0,0,0.122-0.094-0.019-0.291
			c-0.14-0.197-0.079-0.182-0.316-0.373s-0.319-0.244-0.543-0.367s-0.662-0.399-0.662-0.399l-0.23-0.22
			c-0.219-0.252-0.056-0.144-0.376-0.387c-0.318-0.246-0.443-0.375-0.443-0.375c-0.244-0.288-0.091-0.023-0.408-0.396
			c-0.315-0.372-0.339-0.41-0.339-0.41l-0.079-0.181c-0.09-0.63-0.284-0.138-0.147-0.774c0.137-0.636-0.007-0.578,0.161-0.725
			c0.166-0.147,0.278-0.214,0.278-0.214s0.165-0.02,0.361-0.032c0.195-0.012,0.28-0.213,0.702,0.123
			c0.424,0.335,0.167,0.459,0.634,0.391c0.465-0.068,1.414-0.393,1.414-0.393s0.196-0.14,0.361-0.033
			c0.161,0.108,0.532,0.526,0.792,0.626c0.262,0.101,0.319-0.236,0.778,0.205c0.457,0.44,0.817,1.145,0.817,1.145
			c0.228,0.348,0.141,0.549,0.594,0.893c0.452,0.342,0.635,0.744,0.674,1.2C219.625,26.195,219.374,27.984,219.374,27.984z
			 M221.892,20.528c0,0-0.041,0.149-0.095,0.359c-0.056,0.209-0.034,0.247-0.073,0.396c-0.039,0.15-0.085,0.202-0.239,0.544
			c-0.156,0.342-0.017,0.06-0.112,0.418c-0.093,0.358-0.061,0.112-0.169,0.402c-0.109,0.292-0.116,0.321-0.333,0.648
			c-0.213,0.327-0.184,0.334-0.308,0.559c-0.123,0.223-0.206,0.297-0.206,0.297s-0.076,0.043-0.429,0.174
			c-0.354,0.129-0.188-0.018-0.313-0.147c-0.126-0.13-0.064-0.24-0.063-0.367c0.003-0.128,0.118-0.321,0.158-0.471
			c0.039-0.149,0.164-0.501,0.236-0.771c0.068-0.268,0.124-0.351,0.309-0.685c0.184-0.335,0.084-0.202,0.184-0.335
			c0.1-0.133,0.132-0.252,0.18-0.559c0.05-0.307-0.056-0.271-0.087-0.76c-0.031-0.488,0.06-0.335,0.212-0.679
			c0.153-0.342,0.101-0.262,0.238-0.417c0.138-0.156,0.294-0.146,0.527-0.18c0.233-0.036,0.224,0.123,0.224,0.123
			s0.044,0.076,0.191,0.242c0.148,0.167,0.049,0.301,0.08,0.662C222.037,20.341,221.97,20.229,221.892,20.528z"/>
		<path fill="#00A89C" d="M256.812,30.073c0.601,2.293,1.919,3.997,3.96,5.111c2.64,1.432,5.583,2.146,8.832,2.146
			c3.332,0.034,6.366-0.614,9.104-1.946c1.284-0.716,2.316-1.69,3.091-2.923c0.776-1.164,1.165-2.663,1.165-4.495
			c0-1.144-0.146-2.128-0.438-2.954c-0.339-0.822-0.808-1.513-1.403-2.068c-1.18-1.163-2.618-1.987-4.312-2.475
			c-1.779-0.556-3.506-0.967-5.182-1.238c-0.787-0.134-1.521-0.277-2.204-0.428c-0.667-0.101-1.249-0.236-1.744-0.404
			c-0.274-0.134-0.539-0.328-0.795-0.581c-0.274-0.202-0.409-0.472-0.409-0.808c0-0.859,0.366-1.431,1.103-1.718
			c0.665-0.234,1.4-0.353,2.208-0.353c0.915,0,1.724,0.267,2.423,0.798c0.697,0.445,1.078,1.122,1.143,2.031h8.931
			c-0.081-1.745-0.512-3.171-1.287-4.279c-0.778-1.124-1.794-1.979-3.049-2.566c-2.626-1.107-5.45-1.636-8.475-1.586
			c-1.338,0-2.701,0.116-4.088,0.351c-1.454,0.234-2.81,0.679-4.063,1.329c-1.257,0.587-2.274,1.449-3.049,2.586
			c-0.81,1.121-1.215,2.518-1.215,4.19c0,2.242,0.854,4.024,2.559,5.345c1.724,1.374,4.499,2.384,8.33,3.038
			c2.323,0.385,3.864,0.76,4.615,1.129c0.686,0.385,1.013,0.954,0.979,1.707c-0.032,0.752-0.425,1.279-1.177,1.58
			c-0.784,0.318-1.535,0.477-2.252,0.477c-1.269,0-2.179-0.256-2.729-0.77c-0.752-0.646-1.162-1.424-1.228-2.335h-9.688
			c0.025,0.321,0.062,0.632,0.107,0.937L256.812,30.073z"/>
		<path fill="#00A89C" d="M247.404,28.919c-0.402,0.618-0.996,1.078-1.782,1.379c-0.785,0.352-1.614,0.526-2.482,0.526
			c-1.607,0-2.819-0.501-3.638-1.506c-0.854-0.952-1.364-2.183-1.53-3.688h19.496c0.101-10.726-4.89-16.157-14.968-16.29
			c-4.197,0.067-7.552,1.412-10.061,4.038c-1.874,1.981-3.05,4.335-3.552,7.05c0.387,2.336,0.147,4.764-0.025,5.977
			c0.527,3.02,1.857,5.442,3.999,7.266c2.693,2.406,6.19,3.628,10.488,3.66c3.089,0,5.852-0.686,8.28-2.056
			c2.085-1.169,3.663-2.986,4.753-5.249c0,0-0.184-0.92-0.215-1.113L247.404,28.919z M243.438,15.847
			c1.399,0,2.515,0.431,3.344,1.292c0.812,0.861,1.236,1.933,1.27,3.216h-10.032C238.503,17.385,240.309,15.882,243.438,15.847z"/>
	</g>
</g>
</svg>
