<?xml version="1.0" encoding="utf-8"?>
<!-- Generator: Adobe Illustrator 16.0.0, SVG Export Plug-In . SVG Version: 6.00 Build 0)  -->
<!DOCTYPE svg PUBLIC "-//W3C//DTD SVG 1.1//EN" "http://www.w3.org/Graphics/SVG/1.1/DTD/svg11.dtd">
<svg version="1.1" id="Layer_1" xmlns="http://www.w3.org/2000/svg" xmlns:xlink="http://www.w3.org/1999/xlink" x="0px" y="0px" viewBox="0 0 284 46.862" enable-background="new 0 0 284 46.862" xml:space="preserve">
<g>
	<g>
		<path fill-rule="evenodd" clip-rule="evenodd" fill="#FFFFFF" d="M19.463,31.905h-0.106c-0.718,1.939-1.929,3.462-3.633,4.563
			c-1.753,1.104-3.69,1.672-5.81,1.703c-2.289-0.031-4.066-0.467-5.337-1.303c-1.284-0.752-2.219-1.704-2.804-2.857
			c-0.552-1.17-0.893-2.356-1.027-3.561c-0.142-1.152-0.214-2.139-0.214-2.958V11.148h1.926v16.69c0,0.685,0.071,1.506,0.214,2.457
			c0.133,0.937,0.426,1.88,0.877,2.832c0.501,0.953,1.255,1.722,2.26,2.308c0.987,0.684,2.367,1.025,4.142,1.025
			c3.028-0.033,5.364-1.076,7.002-3.133c1.675-1.987,2.511-4.617,2.511-7.895V11.148h1.962v26.398h-1.962V31.905"/>
		<path fill-rule="evenodd" clip-rule="evenodd" fill="#FFFFFF" d="M42.833,20.839c0-0.72-0.036-1.57-0.108-2.557
			c-0.133-0.953-0.442-1.896-0.927-2.832c-0.434-0.953-1.17-1.721-2.207-2.306c-1.054-0.585-2.474-0.895-4.262-0.927
			c-2.941,0.032-5.249,1.061-6.921,3.082c-1.722,2.022-2.582,4.68-2.582,7.971v14.26H23.9V11.143h1.925v5.663h0.143
			c0.718-2.021,1.946-3.583,3.684-4.686c1.736-1.053,3.65-1.579,5.738-1.579c2.339,0.034,4.151,0.426,5.438,1.179
			c1.304,0.784,2.23,1.762,2.782,2.932c0.584,1.153,0.944,2.313,1.078,3.484c0.071,1.201,0.106,2.229,0.106,3.08v16.314h-1.96
			V20.839z"/>
		<rect x="47.838" y="0.879" fill-rule="evenodd" clip-rule="evenodd" fill="#FFFFFF" width="1.96" height="36.651"/>
		<rect x="53.01" y="0.879" fill-rule="evenodd" clip-rule="evenodd" fill="#FFFFFF" width="1.962" height="5.289"/>
		<rect x="53.01" y="11.134" fill-rule="evenodd" clip-rule="evenodd" fill="#FFFFFF" width="1.962" height="26.395"/>
		<polygon fill-rule="evenodd" clip-rule="evenodd" fill="#FFFFFF" points="80.211,37.531 77.554,37.531 66.299,22.49 60.308,27.58 
			60.308,37.531 58.346,37.531 58.346,0.879 60.308,0.879 60.308,25.147 76.578,11.132 79.384,11.132 67.854,21.01 		"/>
		<path fill="#FFFFFF" d="M97.716,14.697c-1.923-2.703-4.958-4.089-9.104-4.155c-3.929,0.066-6.872,1.522-8.827,4.362
			c-1.958,2.809-2.893,6.11-2.808,9.904c-0.033,3.729,0.935,6.863,2.908,9.402c1.953,2.559,4.861,3.879,8.721,3.961
			c6.432-0.082,10.233-3.269,11.403-9.557h-1.961c-1.119,5.164-4.269,7.779-9.448,7.846c-3.24-0.033-5.663-1.244-7.267-3.639
			c-1.654-2.309-2.464-5.053-2.43-8.234h21.319C100.441,20.649,99.604,17.353,97.716,14.697z M78.903,22.877
			c0.25-2.719,1.194-5.155,2.833-7.308c1.637-2.152,3.929-3.27,6.871-3.352c3.059,0.082,5.424,1.159,7.096,3.227
			c1.64,2.086,2.492,4.563,2.558,7.433H78.903z"/>
		<rect x="101.379" y="0.879" fill-rule="evenodd" clip-rule="evenodd" fill="#FFFFFF" width="1.961" height="36.651"/>
		<path fill-rule="evenodd" clip-rule="evenodd" fill="#FFFFFF" d="M115.877,40.376c-0.485,1.287-0.978,2.399-1.479,3.335
			c-0.519,0.92-1.052,1.622-1.604,2.106c-1.271,0.853-3.326,1.244-6.167,1.178v-1.703c1.371,0,2.482-0.117,3.334-0.354
			c0.802-0.233,1.521-0.676,2.156-1.328c0.685-0.718,1.596-2.791,2.732-6.217l-11.03-26.246h2.307l9.801,24.091l9.026-24.091h2.205
			L115.877,40.376z"/>
	</g>
	<g>
		<path fill="#FFFFFF" d="M152.588,12.566c-1.732-1.471-3.804-2.205-6.217-2.205c-2.197,0-3.952,0.316-5.269,0.953
			c-1.348,0.65-2.465,1.512-3.346,2.582h-0.099V1.02h-9.837v36.646h9.832V23.621c0-1.068,0.138-1.961,0.418-2.679
			c0.296-0.685,0.655-1.194,1.074-1.526c0.874-0.652,1.789-0.961,2.749-0.928c1.537,0,2.514,0.477,2.934,1.428
			c0.399,0.969,0.584,2.237,0.55,3.807v13.944h9.834v-18.28C155.178,16.312,154.303,14.039,152.588,12.566z"/>
		<path fill="#FFFFFF" d="M204.477,14.169v-3.408c-0.939-0.268-1.904-0.4-2.891-0.4c-1.764,0-3.203,0.41-4.32,1.234
			c-1.167,0.854-2.146,2.081-2.939,3.686h-0.096v-4.262h-9.446v26.647h9.831V27.138c0.029-5.431,2.022-8.111,5.975-8.045
			c0.354,0,0.682,0.007,0.98,0.021C202.339,16.974,203.76,15.053,204.477,14.169z"/>
		<path fill="#FFFFFF" d="M169.432,10.361c-4.196,0.066-7.549,1.412-10.062,4.037c-2.528,2.678-3.809,6.021-3.843,10.034
			c0.035,4.447,1.455,7.867,4.266,10.259c2.693,2.408,6.189,3.629,10.49,3.661c3.09,0,5.85-0.686,8.279-2.057
			c2.446-1.372,4.207-3.497,5.282-6.374l-9.509,0.017c-0.401,0.619-0.994,1.078-1.779,1.38c-0.789,0.352-1.615,0.526-2.487,0.526
			c-1.604,0-2.815-0.502-3.636-1.507c-0.853-0.951-1.365-2.182-1.531-3.688h19.498C184.501,15.925,179.512,10.494,169.432,10.361z
			 M164.952,21.375c0.483-2.97,2.29-4.472,5.418-4.507c1.4,0,2.514,0.431,3.345,1.29c0.81,0.863,1.233,1.936,1.271,3.217H164.952z"
			/>
		<path fill="#FFFFFF" d="M229.676,22.185c-0.36-2.922-1.46-5.471-3.326-7.633c-2.299-2.729-5.936-4.125-10.91-4.191
			c-4.828,0.064-8.408,1.421-10.741,4.061c-0.729,0.904-2.144,2.83-2.878,4.905c-0.51,1.542-0.759,3.207-0.734,5.005
			c-0.051,3.796,1.114,7.05,3.494,9.758c2.332,2.775,5.951,4.195,10.859,4.263c4.975-0.067,8.611-1.487,10.91-4.259
			c1.571-1.841,2.593-3.939,3.092-6.281C229.584,26.955,229.923,24.523,229.676,22.185z M219.297,18.364
			c-0.025-0.262-0.102-0.217-0.126-0.608c-0.025-0.391-0.032-0.36,0.003-0.734c0.036-0.375,0.127-0.479,0.189-0.717
			c0.062-0.24,0.244-0.32,0.336-0.423c0.091-0.104,0.182-0.08,0.571-0.104c0.392-0.025,0.239,0.062,0.438,0.275
			c0.2,0.213,0.184,0.272,0.299,0.559c0.117,0.287-0.126,0.479-0.175,0.785c-0.048,0.307-0.142,0.537-0.139,0.891
			c0.002,0.352-0.208,0.904-0.286,1.203c-0.08,0.299-0.072,0.748,0.006,1.059c0.079,0.307-0.224,1.09-0.404,1.522
			c-0.176,0.434-0.218,0.71-0.664,0.942c-0.445,0.235-0.248,0.095-0.531,0.084c-0.287-0.012-0.184-0.047-0.307-0.177
			c-0.125-0.13-0.139-0.323-0.139-0.323v-0.355c0,0-0.016-0.066,0.055-0.334c0.071-0.27,0.055-0.211,0.102-0.389
			c0.049-0.18,0.055-0.562,0.104-0.869c0.049-0.308,0.065-0.367,0.199-0.748c0.132-0.381,0.198-0.394,0.269-0.535
			c0.069-0.143,0.103-0.26,0.165-0.5C219.325,18.628,219.325,18.628,219.297,18.364z M216.165,19.935
			c0.129-0.607,0.095-0.36,0.123-0.705c0.027-0.344-0.102-0.346-0.043-0.682c0.056-0.338-0.045-0.204,0.121-0.578
			c0.161-0.371-0.047,0.053,0.208-0.423c0.253-0.478,0.392-0.152,0.284-0.597c-0.106-0.443-0.078,0.173-0.121-0.512
			c-0.041-0.682-0.119-0.512-0.053-1.006c0.066-0.493-0.012-0.193,0.139-0.763c0.15-0.567-0.047-0.428,0.195-0.619
			c0.242-0.19,0.055-0.208,0.349-0.228c0.291-0.018,0.48-0.129,0.48-0.129s-0.037,0.023,0.319,0.245
			c0.357,0.222,0.729,0.513,0.68,0.819c-0.05,0.307-0.172,1.01-0.211,1.159c-0.041,0.149-0.162,0.373-0.16,0.726
			c0.004,0.352-0.076,0.65-0.066,0.974c0.011,0.321-0.117,0.929-0.173,1.138s-0.14,0.891-0.181,1.039
			c-0.039,0.15-0.068,0.27-0.188,0.59c-0.117,0.32-0.287,0.723-0.357,0.864c-0.067,0.143-0.345,0.581-0.405,0.692
			c-0.063,0.111-0.244,0.318-0.244,0.318c-0.113-0.061-0.165-0.106-0.29-0.236c-0.126-0.128-0.17-0.203-0.256-0.355
			c-0.089-0.15-0.148-0.295-0.159-0.489c-0.013-0.194-0.078-0.308-0.06-0.624C216.115,20.24,216.036,20.539,216.165,19.935z
			 M212.733,20.944c-0.027-0.264,0.141-0.411,0.115-0.802c-0.024-0.391,0.002-0.127-0.016-0.547s0.043-0.885,0.266-1.24
			c0.223-0.357,0.277-0.086,0.359-0.641c0.084-0.554-0.043-0.074-0.115-0.287c-0.071-0.211-0.051-0.045-0.211-0.407
			s-0.042-0.203-0.102-0.346c-0.057-0.144-0.041-0.683-0.018-0.899c0.027-0.219,0.12-0.449,0.406-1.174
			c0.287-0.722,0.227-0.132,0.468-0.195c0.241-0.062,0.241,0.062,0.605,0.255c0.364,0.194,0.058,0.146,0.157,0.489
			c0.101,0.349,0.063,0.243,0.11,0.67c0.046,0.428,0.017,0.422-0.118,0.929c-0.133,0.509-0.102,0.262-0.25,0.702
			c-0.148,0.439-0.016,0.059-0.085,0.328c-0.071,0.27,0.009,0.322,0.009,0.322s0.107,0.316,0.117,0.766
			c0.009,0.45,0.01,0.324,0.008,0.578c-0.004,0.254-0.082,0.428-0.099,0.613c-0.017,0.188,0.067,0.467,0.108,0.924
			c0.037,0.458-0.064,0.72-0.164,0.98c-0.102,0.261-0.409,0.211-0.409,0.211s-0.165,0.021-0.344-0.026s-0.029-0.009-0.433-0.179
			c-0.402-0.17-0.125-0.129-0.301-0.56C212.626,20.98,212.76,21.207,212.733,20.944z M208.62,25.483c-0.199-0.212,0,0-0.459-0.442
			c-0.457-0.439-0.207-0.182-0.613-0.577c-0.408-0.396-0.195-0.468-0.29-0.716c-0.095-0.25-0.05-0.174-0.068-0.466
			c-0.019-0.293-0.083-0.532-0.214-0.888c-0.13-0.354-0.107-0.315-0.107-0.315s-0.037-0.106,0.02-0.315
			c0.055-0.21,0.342-0.326,0.342-0.326l0.434,0.051c0,0,0.052,0.047,0.348,0.381c0.297,0.334,0.208,0.182,0.631,0.519
			c0.422,0.335,0.244,0.288,0.322,0.596c0.077,0.311,0.135,0.451,0.149,0.999s0.009,0.45,0.04,0.939
			c0.03,0.486,0.046,0.426,0.007,0.576s-0.063,0.24-0.153,0.344C208.915,25.944,208.82,25.697,208.62,25.483z M220.351,29.004
			c-0.171,0.403-0.378,1.308-0.464,1.636c-0.088,0.328-0.281,1.301-0.646,1.715c-0.366,0.416-0.741,0.986-1.091,1.343
			c-0.351,0.354-0.532,0.562-0.737,0.731c-0.205,0.171-0.281,0.214-0.281,0.214s0.089,0.15-0.354,0.132
			c-0.442-0.022-0.6-0.033-0.6-0.033l-0.359,0.033l-0.688-0.182c0,0-0.538-0.143-0.714-0.318c-0.178-0.174,0.053-0.08-0.283-0.266
			c-0.335-0.186-0.416-0.238-0.529-0.299c-0.109-0.062,0.354,0.124-0.109-0.062c-0.463-0.187-0.916-0.402-0.916-0.402l-0.908-0.56
			c0,0-0.4-0.299-0.684-0.564c-0.278-0.268-0.568-0.505-0.568-0.505s-0.154-0.391-0.373-0.769c-0.218-0.378-0.314-0.498-0.314-0.498
			s-0.232-0.574-0.355-0.959c-0.121-0.383-0.065-0.113-0.17-0.557c-0.109-0.443-0.129-0.481-0.129-0.481s-0.016-0.068-0.043-0.204
			c-0.027-0.135-0.051-0.173-0.051-0.173l0.033-0.247c0.041-0.148,0.071-0.269,0.071-0.269c0.111-0.418,0.048-0.179,0.096-0.485
			c0.052-0.307,0-0.48,0-0.48s-0.11-0.188-0.079-0.309c0.033-0.119-0.049-0.173,0.074-0.27c0.12-0.096,0.113-0.193,0.275,0.041
			c0.163,0.235,0.24,0.418,0.24,0.418l-0.009,0.156l-0.063,0.239l0.072,0.212c0.24,0.062-0.162-0.109,0.357,0.095
			c0.523,0.2,0.248,0.159,0.523,0.2c0.277,0.041,0.177,0.176,0.457-0.039c0.28-0.212,0.229-0.131,0.305-0.301
			c0.078-0.173,0.025-0.091,0.132-0.254c0.108-0.164-0.111-0.062,0.159-0.246c0.273-0.184-0.057-0.143,0.273-0.184
			s0.266-0.025,0.633-0.089c0.366-0.062,0.181-0.079,0.442-0.104c0.264-0.027,0.429-0.048,0.429-0.048l0.164,0.107l0.486,0.576
			l0.254,0.611c0,0-0.035,0.247,0.279,0.394c0.313,0.146-0.321-0.117,0.394,0.199c0.716,0.316,0.312,0.275,0.808,0.342
			c0.492,0.066,0.504,0.39,0.626,0.038c0.126-0.351,0.126-0.351,0.126-0.351l0.018-0.187c0,0,0.122-0.095-0.019-0.292
			c-0.14-0.198-0.079-0.182-0.316-0.372c-0.237-0.191-0.319-0.245-0.542-0.368c-0.225-0.122-0.663-0.399-0.663-0.399l-0.23-0.219
			c-0.219-0.253-0.056-0.146-0.376-0.389c-0.318-0.245-0.443-0.373-0.443-0.373c-0.244-0.29-0.091-0.024-0.408-0.396
			c-0.315-0.373-0.338-0.41-0.338-0.41l-0.08-0.182c-0.09-0.631-0.284-0.138-0.146-0.773c0.136-0.637-0.008-0.578,0.16-0.726
			c0.166-0.147,0.278-0.214,0.278-0.214s0.165-0.021,0.362-0.032c0.194-0.013,0.279-0.213,0.701,0.122
			c0.424,0.335,0.168,0.46,0.634,0.391c0.464-0.068,1.413-0.393,1.413-0.393s0.197-0.139,0.362-0.032
			c0.161,0.108,0.532,0.525,0.792,0.626c0.262,0.102,0.318-0.236,0.779,0.205c0.457,0.441,0.816,1.145,0.816,1.145
			c0.228,0.348,0.141,0.549,0.594,0.892c0.452,0.345,0.635,0.745,0.674,1.202C220.602,27.215,220.351,29.004,220.351,29.004z
			 M222.87,21.548c0,0-0.041,0.148-0.096,0.359c-0.055,0.208-0.034,0.246-0.073,0.396s-0.085,0.202-0.239,0.544
			c-0.156,0.342-0.018,0.06-0.112,0.418c-0.093,0.357-0.061,0.111-0.169,0.402c-0.109,0.293-0.117,0.32-0.332,0.648
			c-0.214,0.326-0.184,0.335-0.309,0.558c-0.123,0.223-0.206,0.298-0.206,0.298s-0.076,0.044-0.429,0.174
			c-0.354,0.129-0.188-0.018-0.314-0.146c-0.125-0.131-0.062-0.241-0.062-0.369c0.003-0.127,0.118-0.319,0.158-0.471
			c0.039-0.148,0.164-0.5,0.236-0.769c0.068-0.269,0.123-0.351,0.309-0.686c0.184-0.335,0.084-0.202,0.184-0.335
			s0.133-0.253,0.18-0.559c0.05-0.308-0.057-0.271-0.086-0.76c-0.032-0.487,0.059-0.336,0.211-0.679
			c0.153-0.343,0.101-0.262,0.238-0.417c0.138-0.156,0.294-0.146,0.527-0.18c0.234-0.035,0.223,0.123,0.223,0.123
			s0.045,0.076,0.191,0.241c0.148,0.167,0.051,0.302,0.082,0.663C223.014,21.362,222.948,21.249,222.87,21.548z"/>
		<path fill="#FFFFFF" d="M257.79,31.093c0.6,2.292,1.918,3.997,3.959,5.111c2.64,1.432,5.583,2.147,8.832,2.147
			c3.332,0.034,6.366-0.615,9.105-1.946c1.283-0.717,2.315-1.69,3.09-2.924c0.776-1.164,1.165-2.663,1.165-4.494
			c0-1.145-0.146-2.129-0.437-2.955c-0.34-0.823-0.809-1.514-1.404-2.069c-1.18-1.161-2.618-1.985-4.312-2.474
			c-1.779-0.555-3.506-0.967-5.182-1.236c-0.787-0.135-1.521-0.279-2.204-0.43c-0.667-0.1-1.249-0.235-1.744-0.402
			c-0.274-0.136-0.539-0.329-0.795-0.582c-0.274-0.201-0.409-0.472-0.409-0.808c0-0.858,0.366-1.431,1.102-1.718
			c0.666-0.234,1.4-0.353,2.209-0.353c0.915,0,1.723,0.267,2.423,0.798c0.697,0.445,1.077,1.123,1.143,2.031h8.931
			c-0.081-1.745-0.512-3.17-1.287-4.278c-0.777-1.123-1.793-1.979-3.049-2.566c-2.626-1.107-5.451-1.636-8.475-1.585
			c-1.338,0-2.701,0.116-4.088,0.35c-1.454,0.236-2.81,0.68-4.063,1.33c-1.257,0.587-2.274,1.448-3.05,2.586
			c-0.809,1.121-1.214,2.518-1.214,4.189c0,2.242,0.854,4.024,2.559,5.346c1.724,1.373,4.499,2.384,8.33,3.037
			c2.323,0.385,3.864,0.76,4.615,1.129c0.686,0.385,1.013,0.953,0.979,1.706c-0.032,0.754-0.425,1.28-1.177,1.582
			c-0.784,0.317-1.535,0.476-2.252,0.476c-1.269,0-2.178-0.257-2.729-0.77c-0.752-0.646-1.162-1.424-1.227-2.334h-9.689
			c0.025,0.321,0.062,0.631,0.107,0.936L257.79,31.093z"/>
		<path fill="#FFFFFF" d="M248.381,29.938c-0.402,0.619-0.996,1.078-1.782,1.38c-0.785,0.352-1.614,0.526-2.482,0.526
			c-1.607,0-2.819-0.502-3.638-1.507c-0.854-0.951-1.364-2.182-1.529-3.688h19.495c0.101-10.725-4.89-16.156-14.968-16.289
			c-4.197,0.066-7.551,1.412-10.061,4.037c-1.874,1.98-3.05,4.336-3.551,7.051c0.387,2.336,0.146,4.764-0.026,5.977
			c0.527,3.02,1.857,5.442,3.999,7.266c2.693,2.408,6.19,3.629,10.488,3.661c3.09,0,5.852-0.686,8.281-2.057
			c2.084-1.169,3.662-2.986,4.752-5.249c0,0-0.184-0.92-0.215-1.111L248.381,29.938z M244.415,16.868
			c1.399,0,2.516,0.431,3.344,1.29c0.812,0.863,1.236,1.936,1.27,3.217h-10.032C239.481,18.405,241.286,16.903,244.415,16.868z"/>
	</g>
</g>
</svg>
