<?xml version="1.0" encoding="utf-8"?>
<!-- Generator: Adobe Illustrator 16.0.0, SVG Export Plug-In . SVG Version: 6.00 Build 0)  -->
<!DOCTYPE svg PUBLIC "-//W3C//DTD SVG 1.1//EN" "http://www.w3.org/Graphics/SVG/1.1/DTD/svg11.dtd">
<svg version="1.1" id="Layer_1" xmlns="http://www.w3.org/2000/svg" xmlns:xlink="http://www.w3.org/1999/xlink" x="0px" y="0px" viewBox="0 0 284 48.5" enable-background="new 0 0 284 48.5" xml:space="preserve">
<g>
	<path fill="#00A89C" d="M152.851,12.77c-1.731-1.473-3.803-2.206-6.215-2.206c-2.198,0-3.953,0.317-5.27,0.952
		c-1.348,0.65-2.465,1.513-3.347,2.582h-0.099V1.223h-9.837v36.646h9.831V23.824c0-1.068,0.14-1.963,0.419-2.68
		c0.295-0.684,0.654-1.192,1.073-1.526c0.874-0.65,1.788-0.962,2.749-0.927c1.536,0,2.515,0.477,2.934,1.428
		c0.399,0.968,0.584,2.236,0.55,3.805v13.945h9.834V19.59C155.441,16.514,154.566,14.241,152.851,12.77z"/>
	<path fill="#00A89C" d="M204.741,14.371v-3.408c-0.941-0.266-1.905-0.399-2.892-0.399c-1.764,0-3.203,0.411-4.321,1.233
		c-1.166,0.854-2.145,2.082-2.938,3.688h-0.097v-4.264h-9.445v26.648h9.83V27.342c0.03-5.433,2.023-8.113,5.976-8.047
		c0.354,0,0.681,0.008,0.98,0.021C202.603,17.178,204.023,15.255,204.741,14.371z"/>
	<path fill="#00A89C" d="M169.695,10.563c-4.196,0.067-7.549,1.412-10.062,4.036c-2.528,2.678-3.809,6.021-3.842,10.036
		c0.034,4.446,1.454,7.867,4.265,10.258c2.694,2.407,6.189,3.629,10.49,3.661c3.09,0,5.85-0.686,8.28-2.057
		c2.445-1.372,4.205-3.497,5.281-6.374l-9.51,0.017c-0.4,0.619-0.993,1.078-1.779,1.38c-0.789,0.353-1.614,0.527-2.486,0.527
		c-1.604,0-2.815-0.501-3.637-1.507c-0.852-0.952-1.364-2.182-1.53-3.688h19.498C184.765,16.127,179.776,10.697,169.695,10.563z
		 M165.215,21.578c0.483-2.971,2.29-4.474,5.417-4.509c1.4,0,2.515,0.431,3.346,1.293c0.81,0.861,1.233,1.934,1.27,3.216H165.215z"
		/>
	<path fill="#00A89C" d="M229.938,22.387c-0.359-2.921-1.459-5.47-3.326-7.631c-2.298-2.729-5.936-4.125-10.909-4.192
		c-4.829,0.065-8.408,1.419-10.741,4.061c-0.729,0.906-2.145,2.83-2.878,4.905c-0.51,1.543-0.759,3.207-0.734,5.005
		c-0.05,3.796,1.114,7.05,3.494,9.758c2.331,2.774,5.951,4.195,10.859,4.263c4.974-0.067,8.611-1.486,10.909-4.26
		c1.572-1.84,2.594-3.938,3.094-6.28C229.848,27.158,230.187,24.725,229.938,22.387z M219.561,18.566
		c-0.025-0.262-0.102-0.217-0.126-0.609c-0.025-0.389-0.032-0.359,0.003-0.733c0.036-0.374,0.127-0.479,0.189-0.717
		c0.062-0.239,0.245-0.319,0.336-0.424c0.091-0.103,0.181-0.079,0.571-0.104c0.392-0.026,0.239,0.063,0.438,0.274
		c0.2,0.214,0.185,0.273,0.299,0.56c0.117,0.288-0.126,0.479-0.175,0.785c-0.049,0.308-0.142,0.538-0.139,0.89
		c0.002,0.354-0.209,0.906-0.287,1.205c-0.079,0.298-0.071,0.748,0.006,1.057c0.08,0.307-0.223,1.092-0.403,1.523
		c-0.176,0.434-0.218,0.71-0.664,0.943c-0.445,0.234-0.248,0.094-0.531,0.082c-0.287-0.011-0.184-0.047-0.307-0.177
		c-0.125-0.128-0.139-0.323-0.139-0.323l-0.001-0.353c0,0-0.015-0.068,0.056-0.336c0.071-0.27,0.055-0.21,0.102-0.39
		c0.049-0.179,0.055-0.562,0.104-0.868s0.065-0.366,0.198-0.747c0.133-0.38,0.199-0.395,0.27-0.536
		c0.069-0.142,0.102-0.261,0.165-0.501C219.588,18.83,219.588,18.83,219.561,18.566z M216.429,20.137
		c0.127-0.606,0.094-0.359,0.121-0.705c0.028-0.343-0.101-0.345-0.042-0.682c0.056-0.338-0.044-0.203,0.12-0.576
		c0.162-0.372-0.046,0.053,0.209-0.424c0.253-0.477,0.391-0.152,0.283-0.597c-0.105-0.442-0.077,0.173-0.12-0.511
		c-0.041-0.682-0.118-0.513-0.053-1.005c0.066-0.495-0.013-0.195,0.138-0.765c0.151-0.566-0.047-0.428,0.196-0.619
		c0.243-0.189,0.055-0.208,0.349-0.227c0.291-0.018,0.48-0.129,0.48-0.129s-0.037,0.023,0.319,0.244
		c0.357,0.223,0.728,0.513,0.68,0.819c-0.05,0.307-0.173,1.011-0.212,1.158c-0.04,0.15-0.16,0.374-0.159,0.726
		c0.003,0.352-0.075,0.652-0.067,0.975c0.012,0.323-0.117,0.928-0.172,1.137c-0.057,0.209-0.14,0.891-0.181,1.041
		c-0.038,0.149-0.069,0.268-0.187,0.589c-0.117,0.319-0.288,0.724-0.358,0.864c-0.067,0.143-0.345,0.582-0.405,0.693
		c-0.063,0.111-0.244,0.318-0.244,0.318c-0.113-0.062-0.164-0.107-0.29-0.237c-0.126-0.129-0.17-0.203-0.256-0.354
		c-0.089-0.152-0.147-0.295-0.159-0.49c-0.013-0.193-0.078-0.307-0.06-0.623C216.378,20.443,216.299,20.742,216.429,20.137z
		 M212.995,21.146c-0.026-0.264,0.142-0.411,0.115-0.801c-0.023-0.391,0.002-0.127-0.015-0.548c-0.018-0.42,0.043-0.884,0.266-1.241
		c0.223-0.356,0.277-0.086,0.359-0.639c0.084-0.555-0.043-0.076-0.115-0.287c-0.071-0.211-0.051-0.045-0.211-0.408
		c-0.16-0.361-0.042-0.201-0.102-0.346c-0.057-0.144-0.041-0.684-0.018-0.9c0.026-0.217,0.12-0.447,0.406-1.172
		c0.287-0.724,0.227-0.133,0.468-0.196s0.241,0.063,0.605,0.255c0.364,0.193,0.057,0.145,0.157,0.49
		c0.101,0.348,0.063,0.241,0.11,0.67c0.046,0.428,0.016,0.42-0.118,0.928c-0.133,0.509-0.101,0.262-0.25,0.701
		c-0.148,0.44-0.016,0.06-0.085,0.329c-0.071,0.27,0.009,0.321,0.009,0.321s0.107,0.317,0.117,0.766
		c0.009,0.451,0.01,0.324,0.007,0.58c-0.004,0.253-0.081,0.426-0.098,0.613c-0.018,0.187,0.067,0.467,0.108,0.924
		c0.037,0.457-0.064,0.719-0.165,0.98c-0.101,0.26-0.408,0.211-0.408,0.211s-0.165,0.02-0.344-0.027
		c-0.179-0.048-0.029-0.008-0.432-0.179c-0.403-0.171-0.126-0.13-0.302-0.56C212.89,21.184,213.023,21.408,212.995,21.146z
		 M208.883,25.686c-0.199-0.212,0,0-0.459-0.441c-0.458-0.439-0.207-0.182-0.613-0.578c-0.408-0.395-0.195-0.469-0.29-0.716
		c-0.094-0.25-0.051-0.173-0.068-0.466c-0.02-0.293-0.083-0.533-0.213-0.887c-0.131-0.355-0.109-0.316-0.109-0.316
		s-0.036-0.106,0.021-0.314c0.055-0.212,0.342-0.326,0.342-0.326l0.433,0.051c0,0,0.053,0.045,0.349,0.38s0.208,0.183,0.631,0.518
		c0.422,0.337,0.244,0.29,0.322,0.597c0.077,0.31,0.135,0.451,0.149,0.999c0.016,0.548,0.009,0.451,0.04,0.939
		c0.03,0.487,0.046,0.427,0.007,0.577c-0.039,0.149-0.063,0.238-0.153,0.342C209.177,26.146,209.083,25.898,208.883,25.686z
		 M220.614,29.208c-0.171,0.401-0.378,1.306-0.465,1.635s-0.279,1.302-0.646,1.716s-0.741,0.986-1.091,1.342
		c-0.351,0.355-0.532,0.564-0.737,0.732c-0.205,0.17-0.281,0.213-0.281,0.213s0.089,0.151-0.354,0.131
		c-0.441-0.021-0.599-0.031-0.599-0.031l-0.359,0.031l-0.688-0.182c0,0-0.538-0.141-0.714-0.315
		c-0.178-0.175,0.052-0.083-0.283-0.268c-0.335-0.184-0.416-0.238-0.529-0.3c-0.109-0.061,0.354,0.127-0.109-0.061
		c-0.463-0.186-0.916-0.402-0.916-0.402l-0.909-0.561c0,0-0.399-0.298-0.683-0.563c-0.278-0.268-0.568-0.504-0.568-0.504
		s-0.153-0.392-0.373-0.771c-0.218-0.377-0.314-0.498-0.314-0.498s-0.232-0.572-0.355-0.957c-0.121-0.384-0.065-0.113-0.17-0.559
		c-0.109-0.443-0.129-0.48-0.129-0.48s-0.016-0.068-0.043-0.204s-0.051-0.171-0.051-0.171l0.033-0.248
		c0.041-0.149,0.071-0.27,0.071-0.27c0.111-0.418,0.048-0.18,0.096-0.485c0.052-0.308,0-0.479,0-0.479s-0.11-0.189-0.079-0.31
		c0.032-0.12-0.048-0.173,0.073-0.269s0.114-0.193,0.276,0.041c0.163,0.234,0.241,0.416,0.241,0.416l-0.01,0.158l-0.062,0.238
		l0.072,0.211c0.238,0.063-0.163-0.109,0.356,0.096c0.522,0.201,0.248,0.158,0.522,0.201c0.278,0.041,0.178,0.175,0.458-0.038
		c0.28-0.212,0.228-0.132,0.305-0.303c0.077-0.173,0.025-0.091,0.132-0.255c0.108-0.162-0.111-0.061,0.16-0.245
		c0.272-0.183-0.058-0.144,0.272-0.183c0.331-0.041,0.265-0.027,0.633-0.09c0.366-0.062,0.181-0.078,0.442-0.105
		c0.264-0.026,0.429-0.047,0.429-0.047l0.164,0.107l0.485,0.576l0.255,0.61c0,0-0.034,0.247,0.279,0.394
		c0.313,0.147-0.321-0.116,0.394,0.201c0.716,0.317,0.312,0.273,0.808,0.342c0.492,0.066,0.503,0.389,0.626,0.037
		c0.127-0.35,0.127-0.35,0.127-0.35l0.017-0.188c0,0,0.122-0.096-0.019-0.291c-0.14-0.199-0.079-0.184-0.316-0.373
		c-0.237-0.192-0.319-0.244-0.543-0.367s-0.662-0.4-0.662-0.4l-0.23-0.22c-0.219-0.251-0.056-0.143-0.376-0.388
		c-0.318-0.245-0.443-0.373-0.443-0.373c-0.244-0.289-0.091-0.024-0.408-0.396c-0.315-0.373-0.339-0.41-0.339-0.41l-0.079-0.18
		c-0.09-0.631-0.284-0.139-0.147-0.774s-0.007-0.578,0.161-0.727c0.166-0.146,0.278-0.214,0.278-0.214s0.165-0.02,0.361-0.031
		c0.195-0.013,0.28-0.214,0.702,0.123c0.424,0.334,0.167,0.458,0.634,0.391c0.465-0.069,1.414-0.393,1.414-0.393
		s0.196-0.141,0.361-0.033c0.161,0.107,0.532,0.525,0.792,0.625c0.262,0.103,0.319-0.234,0.778,0.207
		c0.457,0.441,0.817,1.144,0.817,1.144c0.228,0.348,0.141,0.55,0.594,0.892c0.452,0.344,0.635,0.745,0.674,1.201
		C220.865,27.418,220.614,29.208,220.614,29.208z M223.132,21.752c0,0-0.041,0.148-0.095,0.358
		c-0.056,0.208-0.034,0.247-0.073,0.396c-0.039,0.15-0.085,0.201-0.239,0.544c-0.156,0.343-0.017,0.06-0.112,0.419
		c-0.093,0.357-0.061,0.111-0.169,0.4c-0.109,0.293-0.116,0.323-0.333,0.649c-0.213,0.327-0.184,0.335-0.308,0.56
		c-0.123,0.221-0.206,0.295-0.206,0.295s-0.076,0.045-0.429,0.175c-0.354,0.128-0.188-0.017-0.313-0.147
		c-0.126-0.129-0.064-0.24-0.063-0.367c0.003-0.129,0.118-0.321,0.158-0.471c0.039-0.149,0.164-0.5,0.236-0.77
		c0.068-0.268,0.124-0.352,0.309-0.686c0.184-0.334,0.084-0.201,0.184-0.334c0.1-0.134,0.132-0.253,0.18-0.561
		c0.05-0.307-0.056-0.27-0.087-0.76c-0.031-0.487,0.06-0.335,0.212-0.678c0.153-0.343,0.101-0.261,0.238-0.417
		c0.138-0.155,0.294-0.146,0.527-0.18c0.233-0.035,0.224,0.122,0.224,0.122s0.044,0.076,0.191,0.243
		c0.148,0.166,0.049,0.3,0.08,0.662C223.277,21.564,223.21,21.451,223.132,21.752z"/>
	<path fill="#00A89C" d="M258.052,31.296c0.601,2.292,1.919,3.997,3.96,5.11c2.64,1.434,5.583,2.148,8.832,2.148
		c3.332,0.033,6.366-0.615,9.104-1.947c1.284-0.715,2.316-1.689,3.091-2.923c0.776-1.163,1.165-2.662,1.165-4.493
		c0-1.146-0.146-2.13-0.438-2.955c-0.339-0.824-0.808-1.515-1.403-2.068c-1.18-1.164-2.618-1.988-4.312-2.475
		c-1.779-0.557-3.506-0.969-5.182-1.238c-0.787-0.134-1.521-0.278-2.204-0.429c-0.667-0.101-1.249-0.235-1.744-0.403
		c-0.274-0.135-0.539-0.328-0.795-0.581c-0.274-0.202-0.409-0.47-0.409-0.806c0-0.86,0.366-1.434,1.103-1.719
		c0.665-0.234,1.4-0.354,2.208-0.354c0.915,0,1.724,0.267,2.423,0.798c0.697,0.444,1.078,1.124,1.143,2.032h8.931
		c-0.081-1.746-0.512-3.172-1.287-4.279c-0.778-1.124-1.794-1.979-3.049-2.566c-2.626-1.107-5.45-1.637-8.475-1.585
		c-1.338,0-2.701,0.115-4.088,0.351c-1.454,0.234-2.81,0.678-4.063,1.328c-1.257,0.588-2.274,1.451-3.049,2.586
		c-0.81,1.121-1.215,2.519-1.215,4.191c0,2.242,0.854,4.023,2.559,5.344c1.724,1.373,4.499,2.385,8.33,3.038
		c2.323,0.385,3.864,0.76,4.615,1.129c0.686,0.384,1.013,0.954,0.979,1.706c-0.032,0.754-0.425,1.28-1.177,1.581
		c-0.784,0.318-1.535,0.478-2.252,0.478c-1.269,0-2.179-0.256-2.729-0.77c-0.752-0.646-1.162-1.426-1.228-2.334h-9.688
		c0.025,0.32,0.062,0.631,0.107,0.935L258.052,31.296z"/>
	<path fill="#00A89C" d="M248.645,30.141c-0.402,0.619-0.996,1.078-1.782,1.38c-0.785,0.353-1.614,0.527-2.482,0.527
		c-1.607,0-2.819-0.501-3.638-1.507c-0.854-0.952-1.364-2.182-1.53-3.688h19.496c0.101-10.727-4.89-16.156-14.968-16.29
		c-4.197,0.067-7.552,1.412-10.061,4.036c-1.874,1.982-3.05,4.337-3.552,7.052c0.387,2.336,0.147,4.764-0.025,5.978
		c0.527,3.018,1.857,5.441,3.999,7.265c2.693,2.407,6.19,3.629,10.488,3.661c3.089,0,5.852-0.686,8.28-2.057
		c2.085-1.17,3.663-2.986,4.753-5.249c0,0-0.184-0.921-0.215-1.112L248.645,30.141z M244.678,17.069
		c1.399,0,2.515,0.431,3.344,1.293c0.812,0.861,1.236,1.934,1.27,3.216h-10.032C239.743,18.607,241.549,17.104,244.678,17.069z"/>
</g>
<g>
	<path fill-rule="evenodd" clip-rule="evenodd" fill="#FFFFFF" d="M20.295,32.998h-0.107c-0.718,1.938-1.929,3.459-3.633,4.562
		c-1.753,1.102-3.689,1.671-5.81,1.703c-2.288-0.032-4.065-0.468-5.337-1.303c-1.284-0.752-2.219-1.705-2.804-2.858
		c-0.552-1.17-0.893-2.356-1.028-3.56c-0.142-1.154-0.213-2.141-0.213-2.959V12.24h1.925v16.69c0,0.686,0.071,1.505,0.216,2.456
		c0.132,0.936,0.424,1.881,0.876,2.832c0.502,0.953,1.256,1.722,2.261,2.308c0.986,0.685,2.367,1.025,4.142,1.025
		c3.027-0.033,5.363-1.075,7.002-3.132c1.675-1.988,2.511-4.619,2.511-7.895V12.24h1.963v26.398h-1.963V32.998"/>
	<path fill-rule="evenodd" clip-rule="evenodd" fill="#FFFFFF" d="M43.664,21.93c0-0.72-0.036-1.571-0.108-2.558
		c-0.134-0.952-0.442-1.896-0.928-2.83c-0.434-0.954-1.17-1.723-2.206-2.307c-1.054-0.586-2.474-0.895-4.263-0.928
		c-2.94,0.033-5.248,1.062-6.92,3.082c-1.723,2.023-2.583,4.681-2.583,7.971v14.261h-1.925V12.234h1.925v5.664H26.8
		c0.717-2.021,1.945-3.584,3.683-4.688c1.736-1.051,3.65-1.578,5.739-1.578c2.338,0.033,4.15,0.426,5.437,1.178
		c1.304,0.785,2.23,1.764,2.781,2.932c0.584,1.153,0.943,2.314,1.078,3.484c0.071,1.203,0.106,2.229,0.106,3.08v16.315h-1.96V21.93z
		"/>
	<rect x="48.67" y="1.97" fill-rule="evenodd" clip-rule="evenodd" fill="#FFFFFF" width="1.961" height="36.651"/>
	<rect x="53.842" y="1.97" fill-rule="evenodd" clip-rule="evenodd" fill="#FFFFFF" width="1.962" height="5.289"/>
	<rect x="53.842" y="12.224" fill-rule="evenodd" clip-rule="evenodd" fill="#FFFFFF" width="1.962" height="26.397"/>
	<polygon fill-rule="evenodd" clip-rule="evenodd" fill="#FFFFFF" points="81.043,38.622 78.386,38.622 67.13,23.582 61.139,28.669 
		61.139,38.622 59.178,38.622 59.178,1.97 61.139,1.97 61.139,26.238 77.409,12.224 80.216,12.224 68.685,22.101 	"/>
	<path fill="#FFFFFF" d="M98.548,15.789c-1.923-2.704-4.958-4.09-9.103-4.156c-3.931,0.066-6.873,1.521-8.827,4.363
		c-1.957,2.809-2.895,6.109-2.809,9.902c-0.033,3.73,0.935,6.863,2.907,9.402c1.954,2.56,4.861,3.881,8.721,3.963
		c6.432-0.084,10.233-3.27,11.403-9.559H98.88c-1.119,5.166-4.269,7.78-9.448,7.847c-3.239-0.033-5.662-1.245-7.267-3.64
		c-1.653-2.307-2.465-5.052-2.431-8.231h21.32C101.272,21.74,100.437,18.444,98.548,15.789z M79.734,23.968
		c0.252-2.719,1.194-5.156,2.833-7.307c1.638-2.152,3.93-3.271,6.872-3.354c3.06,0.083,5.424,1.16,7.096,3.229
		c1.64,2.086,2.492,4.563,2.559,7.432H79.734z"/>
	<rect x="102.211" y="1.97" fill-rule="evenodd" clip-rule="evenodd" fill="#FFFFFF" width="1.961" height="36.651"/>
	<path fill-rule="evenodd" clip-rule="evenodd" fill="#FFFFFF" d="M116.708,41.468c-0.483,1.287-0.977,2.398-1.479,3.336
		c-0.519,0.918-1.052,1.621-1.604,2.104c-1.27,0.852-3.326,1.245-6.167,1.179v-1.705c1.371,0,2.482-0.116,3.334-0.353
		c0.802-0.233,1.521-0.676,2.156-1.328c0.685-0.719,1.597-2.791,2.733-6.216l-11.03-26.246h2.307l9.8,24.09l9.026-24.09h2.206
		L116.708,41.468z"/>
</g>
</svg>
